<svg xmlns="http://www.w3.org/2000/svg" xmlns:xlink="http://www.w3.org/1999/xlink" version="1.1" data-diagram-type="CLASS" style="width:563px;height:346px;" width="563px" height="346px" viewBox="0 0 563 346" zoomAndPan="magnify" preserveAspectRatio="none" contentStyleType="text/css"><?plantuml 1.2026.7beta6?><defs/><g font-family="sans-serif" lengthAdjust="spacing"><polygon points="5.5,3,5.5,3.21,15.544,2.586,25.588,3.193,35.632,3.4,45.676,2.287,55.719,2.922,65.763,2.574,75.807,2.617,85.851,2.932,95.895,2.309,105.939,3.554,115.983,2.37,126.027,2.802,136.071,3.432,146.115,2.914,156.158,3.068,166.202,2.968,176.246,3.179,186.29,3.239,196.334,3.586,206.378,3.671,216.422,3.679,226.466,3.255,236.51,3.464,246.553,3.702,256.597,2.279,266.641,3.679,276.685,2.703,286.729,3.534,296.773,2.505,306.817,2.932,316.861,3.742,326.905,2.951,336.948,3.105,346.992,3.339,357.036,3.416,367.08,2.996,377.124,3.287,387.168,2.428,397.212,3.284,407.256,3.548,417.3,3.445,427.344,3.613,437.387,2.517,447.431,2.348,457.475,2.379,467.519,2.941,477.563,2.803,487.607,3.681,497.651,2.825,507.695,2.657,517.739,3.228,527.782,2.333,537.826,2.481,547.87,3,547.953,3.2,548.279,3.281,548.671,3.519,548.89,3.34,549.325,3.684,549.638,3.732,549.82,3.808,549.639,4.026,549.901,4.427,550.116,4.809,550.424,5.23,550.37,5.5,550.369,5.5,550.524,7.828,550.186,10.156,550.144,12.484,550.538,14.813,550.37,17.141,550.149,17.049,550.381,17.559,550.141,17.874,549.848,18.167,549.675,18.51,549.638,18.908,549.697,19.05,549.246,18.963,549.006,19.384,548.507,19.178,548.303,19.684,547.87,19.641,547.87,20.125,537.826,19.886,527.782,19.688,517.739,20.367,507.695,20.254,497.651,19.81,487.607,19.909,477.563,19.51,467.519,20.357,457.475,19.795,447.431,19.813,437.387,19.032,427.344,19.235,417.3,20.171,407.256,20.07,397.212,19.598,387.168,19.318,377.124,19.422,367.08,18.954,357.036,20.055,346.992,20.38,336.948,20.167,326.905,20.336,316.861,19.504,306.817,19.728,296.773,19.253,286.729,19.925,276.685,19.887,266.641,20.193,256.597,19.411,246.553,19.506,236.51,20.084,226.466,20.208,216.422,19.128,206.378,19.447,196.334,19.79,186.29,19.03,176.246,19.994,166.202,19.899,156.158,19.54,146.115,19.783,136.071,20.369,126.027,19.328,115.983,19.956,105.939,19.926,95.895,19.756,85.851,19.782,75.807,19.754,65.763,19.016,55.719,19.24,45.676,19.179,35.632,19.704,25.588,19.729,15.544,19.802,5.5,19.641,5.463,19.551,5.138,19.473,4.778,19.311,4.513,19.379,4.14,19.186,3.732,18.908,3.583,18.846,3.563,18.546,3.262,18.128,3.382,17.885,3.334,17.572,3,17.141,3.182,17.141,2.855,14.813,3.155,12.484,2.752,10.156,3.067,7.828,3,5.5,2.908,5.462,3.176,5.159,3.367,4.824,3.585,4.5,3.364,3.994,3.732,3.732,3.793,3.879,4.109,3.641,4.485,3.549,4.888,3.523,5.147,3.148,5.5,3" fill="#FFC" style="stroke:#FD8;stroke-width:3;stroke-linejoin:miter;stroke-miterlimit:10;"/><text x="10" y="13.641" fill="#000" font-size="10" textLength="295.005" font-family="monospace">Please use CSS style instead of skinparam padding</text><!--class Corpus--><g class="entity" data-qualified-name="Corpus" id="ent0001" data-source-line="63"><polygon points="80.99,36.371,80.99,36.581,91.138,35.956,101.286,36.564,111.434,36.77,121.582,35.657,131.73,36.293,141.878,35.944,152.026,35.987,162.174,36.302,172.322,35.679,182.471,36.924,192.619,35.74,202.767,36.173,212.915,36.803,223.063,36.285,233.211,36.439,243.359,36.339,253.507,36.549,263.655,36.61,273.803,36.956,283.951,37.042,294.099,37.05,304.247,36.625,314.395,36.834,324.543,37.073,334.691,35.649,344.839,37.049,354.987,36.074,365.135,36.904,375.283,36.371,375.22,36.218,375.699,36.525,376.227,36.95,376.55,36.883,376.994,37.106,377.405,37.249,377.509,37.293,377.709,37.727,377.755,38.097,378.02,38.559,377.931,38.873,378.283,39.371,378.378,39.371,378.466,46.558,378.432,53.746,378.488,60.933,378.122,68.121,378.283,75.308,378.083,75.225,377.916,75.653,377.914,76.149,377.696,76.556,377.79,77.092,377.405,77.429,377.382,77.376,376.937,77.5,376.585,77.851,376.047,77.751,375.642,77.973,375.283,78.308,375.283,78.957,365.135,78.744,354.987,79.043,344.839,77.986,334.691,78.627,324.543,78.899,314.395,77.836,304.247,78.212,294.099,78.434,283.951,78.96,273.803,78.304,263.655,78.771,253.507,77.754,243.359,77.631,233.211,78.812,223.063,77.591,212.915,78.817,202.767,78.515,192.619,78.04,182.471,77.954,172.322,78.767,162.174,78.009,152.026,78.9,141.878,77.755,131.73,78.926,121.582,78.792,111.434,78.553,101.286,78.355,91.138,79.035,80.99,78.308,81.068,78.497,80.587,78.185,80.176,78.039,79.701,77.741,79.384,77.826,78.869,77.429,78.916,77.449,78.746,77.027,78.33,76.503,78.217,76.105,78.329,75.8,77.99,75.308,78.133,75.308,77.976,68.121,77.883,60.933,77.917,53.746,77.761,46.558,77.99,39.371,78.118,39.424,78.393,39.041,78.504,38.589,78.731,38.186,78.651,37.656,78.869,37.249,78.88,37.276,79.244,36.954,79.753,36.985,80.173,36.798,80.636,36.716,80.99,36.371" fill="#4051B5" style="stroke:#FF6F00;stroke-width:2;stroke-linejoin:miter;stroke-miterlimit:10;"/><polygon points="102.045,59.772,100.579,61.775,98.846,64.708,96.366,66.685,93.76,67.766,91.683,67.86,89.012,66.508,86.493,65.625,84.58,63.831,83.577,61.778,82.982,60.143,82.4,58.008,81.454,56.171,82.181,54.377,82.817,52.411,85.208,50.857,86.889,48.84,88.97,48.171,91.445,47.594,94.618,47.937,96.356,48.756,98.376,49.128,100.833,51.645,101.689,54.302,102.061,56.115,101.64,59.103" fill="#ADD1B2" style="stroke:#181818;stroke-width:1;stroke-linejoin:miter;stroke-miterlimit:10;"/><path d="M93.849,61.574 Q93.412,61.792 92.912,61.902 Q92.428,62.027 91.896,62.027 Q89.974,62.027 88.959,60.761 Q87.959,59.496 87.959,57.105 Q87.959,54.714 88.959,53.449 Q89.974,52.183 91.896,52.183 Q92.428,52.183 92.928,52.308 Q93.428,52.417 93.849,52.652 L93.849,54.73 Q93.365,54.292 92.912,54.089 Q92.459,53.871 91.974,53.871 Q90.959,53.871 90.428,54.699 Q89.896,55.511 89.896,57.105 Q89.896,58.714 90.428,59.527 Q90.959,60.339 91.974,60.339 Q92.459,60.339 92.912,60.136 Q93.365,59.933 93.849,59.48 L93.849,61.574 Z " fill="#FFF"/><text x="134.616" y="55.438" fill="#FFF" font-size="13" textLength="211.041" font-family="'Roboto'">Corpus of Structured Knowledge</text><text x="106.99" y="68.714" fill="#FFF" font-size="11" textLength="266.293" font-family="'Roboto'">Observations • Facts • Corrections • Validations</text></g><g class="entity" data-qualified-name="GMN2" id="ent0003" data-source-line="65"><path d="M407.9,30.641 L408.087,30.641 L407.532,35.181 L408.072,39.721 L408.255,44.261 L407.266,48.801 L407.9,53.341 L407.891,53.272 L401.973,53.765 L396.102,54.603 L390.264,55.681 L384.313,55.932 L378.52,57.341 L378.586,57.828 L384.32,57.585 L390.248,58.766 L396.2,60.121 L402.014,60.465 L407.9,61.341 L407.961,61.341 L407.872,65.88 L408.059,70.42 L408.113,74.96 L408.421,79.499 L407.9,84.039 L410.9,87.039 L410.9,88.829 L421.244,88.85 L431.588,87.718 L441.932,88.275 L452.275,88.912 L462.619,85.116 L472.963,88.848 L483.307,86.248 L493.651,88.463 L503.995,85.719 L514.339,86.856 L524.682,89.017 L535.026,86.909 L545.37,87.039 L548.37,84.039 L548.651,84.039 L549.273,74.759 L549.48,65.48 L548.36,56.2 L549.136,46.92 L548.37,37.641 L548.01,37.281 L546.549,35.819 L544.715,33.985 L542.65,31.92 L540.756,30.026 L538.37,27.641 L538.37,26.352 L528.565,25.901 L518.759,25.984 L508.954,27.484 L499.149,27.117 L489.343,29.458 L479.538,27.175 L469.732,26.726 L459.927,28.249 L450.122,25.862 L440.316,26.256 L430.511,29.371 L420.705,28.802 L410.9,27.641 L407.9,30.641" style="stroke:#181818;stroke-width:0.5;" fill="#FEFFDD"/><path d="M538.37,27.641 L538.557,27.641 L538.002,29.341 L538.542,31.041 L538.725,32.741 L537.736,34.441 L538.37,36.141 L539.87,37.641 L539.87,37.572 L541.57,37.262 L543.27,37.3 L544.97,37.58 L546.67,37.026 L548.37,37.641 L548.718,37.989 L545.974,35.244 L544.246,33.516 L542.642,31.912 L540.316,29.587 L538.37,27.641" style="stroke:#181818;stroke-width:0.5;" fill="#FEFFDD"/><text x="415.9" y="46.708" fill="#333" font-size="13" textLength="71.075" font-family="'Roboto'">The Virtual</text><text x="415.9" y="61.84" fill="#333" font-size="13" textLength="66.873" font-family="'Roboto'">Enterprise</text><text x="415.9" y="76.973" fill="#333" font-size="13" textLength="115.47" font-family="'Roboto'">Knowledge Graph</text></g><!--class PLM--><g class="entity" data-qualified-name="PLM" id="ent0005" data-source-line="67"><polygon points="103.93,148.041,103.93,148.251,113.867,147.626,123.803,148.234,133.74,148.44,143.676,147.327,153.613,147.963,163.549,147.614,173.486,147.657,183.422,147.972,193.359,147.349,203.295,148.594,213.232,147.41,223.169,147.843,233.105,148.473,243.042,147.955,252.978,148.109,262.915,148.009,272.851,148.219,282.788,148.28,292.724,148.626,302.661,148.712,312.597,148.72,322.534,148.295,332.47,148.504,342.407,148.743,352.344,148.041,352.252,147.819,352.854,148.425,353.154,148.301,353.684,148.732,353.977,148.591,354.465,148.919,354.444,148.911,354.869,149.438,354.801,149.762,355.025,150.206,355.272,150.66,355.344,151.041,355.482,151.041,355.342,158.228,355.439,165.416,355.153,172.603,355.438,179.791,355.344,186.978,355.512,187.048,355.305,187.459,355.181,187.905,354.668,188.189,354.44,188.592,354.465,189.099,354.386,188.908,354.033,189.257,353.591,189.39,353.279,189.837,352.746,189.749,352.344,189.978,352.344,189.635,342.407,190.206,332.47,189.311,322.534,189.459,312.597,190.627,302.661,190.414,292.724,190.713,282.788,189.656,272.851,190.297,262.915,190.569,252.978,189.506,243.042,189.882,233.105,190.104,223.169,190.63,213.232,189.974,203.295,190.441,193.359,189.424,183.422,189.301,173.486,190.482,163.549,189.261,153.613,190.487,143.676,190.185,133.74,189.71,123.803,189.624,113.867,190.437,103.93,189.978,103.892,189.886,103.581,189.985,103.011,189.456,102.736,189.641,102.295,189.424,101.809,189.099,101.884,189.131,101.647,188.681,101.681,188.344,101.47,187.905,101.158,187.424,100.93,186.978,101.019,186.978,100.887,179.791,101.169,172.603,100.982,165.416,100.988,158.228,100.93,151.041,100.743,150.963,100.981,150.565,101.445,150.26,101.59,149.823,101.62,149.338,101.809,148.919,101.768,148.82,102.205,148.676,102.57,148.357,103.134,148.52,103.6,148.444,103.93,148.041" fill="#4051B5" style="stroke:#FF6F00;stroke-width:2;stroke-linejoin:miter;stroke-miterlimit:10;"/><polygon points="124.985,171.442,123.519,173.445,121.786,176.378,119.306,178.355,116.7,179.436,114.623,179.53,111.952,178.178,109.433,177.295,107.52,175.501,106.517,173.448,105.922,171.813,105.34,169.678,104.394,167.841,105.121,166.047,105.757,164.081,108.148,162.527,109.829,160.51,111.91,159.841,114.385,159.264,117.558,159.607,119.296,160.426,121.316,160.798,123.773,163.315,124.629,165.972,125.001,167.785,124.58,170.773" fill="#ADD1B2" style="stroke:#181818;stroke-width:1;stroke-linejoin:miter;stroke-miterlimit:10;"/><path d="M116.789,173.244 Q116.352,173.462 115.852,173.572 Q115.368,173.697 114.836,173.697 Q112.914,173.697 111.899,172.431 Q110.899,171.166 110.899,168.775 Q110.899,166.384 111.899,165.119 Q112.914,163.853 114.836,163.853 Q115.368,163.853 115.868,163.978 Q116.368,164.087 116.789,164.322 L116.789,166.4 Q116.305,165.962 115.852,165.759 Q115.399,165.541 114.914,165.541 Q113.899,165.541 113.368,166.369 Q112.836,167.181 112.836,168.775 Q112.836,170.384 113.368,171.197 Q113.899,172.009 114.914,172.009 Q115.399,172.009 115.852,171.806 Q116.305,171.603 116.789,171.15 L116.789,173.244 Z " fill="#FFF"/><text x="149.175" y="167.108" fill="#FFF" font-size="13" textLength="181.924" font-family="'Roboto'">Perpetual Learning Machine</text><text x="129.93" y="180.384" fill="#FFF" font-size="11" textLength="220.414" font-family="'Roboto'">Capture • Extract • Structure • Validate</text></g><!--class Human--><g class="entity" data-qualified-name="Human" id="ent0006" data-source-line="69"><polygon points="10,230.981,10,231.191,20.356,230.566,30.711,231.174,41.067,231.38,51.423,230.267,61.779,230.903,72.134,230.554,82.49,230.597,92.846,230.912,103.201,230.289,113.557,231.534,123.913,230.35,134.269,230.981,134.243,230.92,134.748,231.289,135.106,231.306,135.55,231.529,135.962,231.674,136.39,231.859,136.445,231.882,136.639,232.314,136.922,232.783,137.124,233.218,137.302,233.643,137.269,233.981,137.353,233.981,137.423,238.781,137.503,243.581,137.028,248.381,137.495,253.181,137.269,257.981,137.177,257.943,137.257,258.473,136.765,258.766,136.72,259.245,136.794,259.772,136.39,260.102,136.384,260.087,135.979,260.31,135.585,260.558,135.17,260.757,134.692,260.804,134.269,260.981,134.269,261.268,123.913,260.408,113.557,261.265,103.201,261.529,92.846,261.425,82.49,261.594,72.134,260.498,61.779,260.328,51.423,260.359,41.067,260.922,30.711,260.784,20.356,261.662,10,260.981,9.978,260.927,9.532,260.699,9.181,260.699,8.642,260.248,8.237,260.118,7.879,260.102,8.079,260.185,7.837,259.733,7.753,259.347,7.252,258.788,7.274,258.446,7,257.981,7.197,257.981,6.843,253.181,6.968,248.381,7.042,243.581,7.217,238.781,7,233.981,6.999,233.98,7.318,233.615,7.181,233.061,7.319,232.621,7.858,232.348,7.879,231.859,7.787,231.639,8.368,231.84,8.754,231.571,9.117,231.25,9.531,231.047,10,230.981" fill="#4051B5" style="stroke:#FF6F00;stroke-width:2;stroke-linejoin:miter;stroke-miterlimit:10;"/><polygon points="31.055,248.413,29.589,250.416,27.856,253.349,25.376,255.326,22.77,256.408,20.693,256.501,18.022,255.149,15.503,254.266,13.59,252.473,12.587,250.42,11.992,248.785,11.41,246.649,10.464,244.812,11.191,243.018,11.827,241.053,14.218,239.498,15.899,237.482,17.98,236.812,20.455,236.235,23.628,236.578,25.366,237.397,27.386,237.769,29.843,240.286,30.699,242.943,31.071,244.756,30.65,247.744" fill="#ADD1B2" style="stroke:#181818;stroke-width:1;stroke-linejoin:miter;stroke-miterlimit:10;"/><path d="M22.859,250.215 Q22.422,250.434 21.922,250.543 Q21.438,250.668 20.906,250.668 Q18.984,250.668 17.969,249.402 Q16.969,248.137 16.969,245.746 Q16.969,243.356 17.969,242.09 Q18.984,240.824 20.906,240.824 Q21.438,240.824 21.938,240.949 Q22.438,241.059 22.859,241.293 L22.859,243.371 Q22.375,242.934 21.922,242.731 Q21.469,242.512 20.984,242.512 Q19.969,242.512 19.438,243.34 Q18.906,244.152 18.906,245.746 Q18.906,247.356 19.438,248.168 Q19.969,248.981 20.984,248.981 Q21.469,248.981 21.922,248.777 Q22.375,248.574 22.859,248.121 L22.859,250.215 Z " fill="#FFF"/><text x="36" y="250.481" fill="#FFF" font-size="13" textLength="96.269" font-family="'Roboto'">Human Agents</text></g><!--class GenAI--><g class="entity" data-qualified-name="GenAI" id="ent0007" data-source-line="70"><polygon points="169.92,230.981,169.92,231.191,179.622,230.566,189.324,231.174,199.026,231.38,208.728,230.267,218.43,230.903,228.131,230.554,237.833,230.597,247.535,230.912,257.237,230.289,266.939,231.534,276.641,230.35,286.343,230.981,286.318,230.92,286.822,231.289,287.18,231.306,287.624,231.529,288.036,231.674,288.464,231.859,288.519,231.882,288.714,232.314,288.996,232.783,289.198,233.218,289.376,233.643,289.343,233.981,289.428,233.981,289.497,238.781,289.577,243.581,289.102,248.381,289.569,253.181,289.343,257.981,289.252,257.943,289.332,258.473,288.839,258.766,288.795,259.245,288.868,259.772,288.464,260.102,288.458,260.087,288.053,260.31,287.659,260.558,287.244,260.757,286.767,260.804,286.343,260.981,286.343,261.268,276.641,260.408,266.939,261.265,257.237,261.529,247.535,261.425,237.833,261.594,228.131,260.498,218.43,260.328,208.728,260.359,199.026,260.922,189.324,260.784,179.622,261.662,169.92,260.981,169.898,260.927,169.452,260.699,169.101,260.699,168.562,260.248,168.157,260.118,167.799,260.102,167.999,260.185,167.757,259.733,167.673,259.347,167.172,258.788,167.194,258.446,166.92,257.981,167.117,257.981,166.763,253.181,166.888,248.381,166.962,243.581,167.137,238.781,166.92,233.981,166.919,233.98,167.238,233.615,167.101,233.061,167.239,232.621,167.778,232.348,167.799,231.859,167.707,231.639,168.288,231.84,168.674,231.571,169.037,231.25,169.451,231.047,169.92,230.981" fill="#4051B5" style="stroke:#FF6F00;stroke-width:2;stroke-linejoin:miter;stroke-miterlimit:10;"/><polygon points="190.975,248.413,189.509,250.416,187.776,253.349,185.296,255.326,182.69,256.408,180.613,256.501,177.942,255.149,175.423,254.266,173.51,252.473,172.507,250.42,171.912,248.785,171.33,246.649,170.384,244.812,171.111,243.018,171.747,241.053,174.138,239.498,175.819,237.482,177.9,236.812,180.375,236.235,183.548,236.578,185.286,237.397,187.306,237.769,189.763,240.286,190.619,242.943,190.991,244.756,190.57,247.744" fill="#ADD1B2" style="stroke:#181818;stroke-width:1;stroke-linejoin:miter;stroke-miterlimit:10;"/><path d="M182.779,250.215 Q182.342,250.434 181.842,250.543 Q181.358,250.668 180.826,250.668 Q178.904,250.668 177.889,249.402 Q176.889,248.137 176.889,245.746 Q176.889,243.356 177.889,242.09 Q178.904,240.824 180.826,240.824 Q181.358,240.824 181.858,240.949 Q182.358,241.059 182.779,241.293 L182.779,243.371 Q182.295,242.934 181.842,242.731 Q181.389,242.512 180.904,242.512 Q179.889,242.512 179.358,243.34 Q178.826,244.152 178.826,245.746 Q178.826,247.356 179.358,248.168 Q179.889,248.981 180.904,248.981 Q181.389,248.981 181.842,248.777 Q182.295,248.574 182.779,248.121 L182.779,250.215 Z " fill="#FFF"/><text x="195.92" y="250.481" fill="#FFF" font-size="13" textLength="88.423" font-family="'Roboto'">GenAI Agents</text></g><!--class System--><g class="entity" data-qualified-name="System" id="ent0008" data-source-line="71"><polygon points="322.2,230.981,322.2,231.191,331.882,230.566,341.563,231.174,351.245,231.38,360.927,230.267,370.608,230.903,380.29,230.554,389.972,230.597,399.653,230.912,409.335,230.289,419.017,231.534,428.698,230.35,438.38,230.783,448.062,230.981,448.117,231.114,448.475,231.13,448.919,231.353,449.331,231.498,449.782,231.739,450.183,231.859,450.257,231.89,450.539,232.358,450.741,232.793,450.92,233.219,450.964,233.589,451.062,233.981,451.216,233.981,451.296,238.781,450.821,243.581,451.288,248.381,450.963,253.181,451.062,257.981,451.226,258.049,450.734,258.342,450.689,258.82,450.763,259.348,450.344,259.671,450.183,260.102,450.197,260.134,449.802,260.382,449.388,260.582,448.91,260.628,448.523,260.893,448.062,260.981,448.062,260.408,438.38,261.265,428.698,261.529,419.017,261.425,409.335,261.594,399.653,260.498,389.972,260.328,380.29,260.359,370.608,260.922,360.927,260.784,351.245,261.662,341.563,260.806,331.882,260.638,322.2,260.981,322.229,261.051,321.691,260.6,321.285,260.469,321.01,260.653,320.559,260.412,320.079,260.102,320.305,260.196,319.804,259.637,319.826,259.294,319.733,258.904,319.23,258.345,319.2,257.981,319.168,257.981,319.242,253.181,319.417,248.381,319.199,243.581,319.354,238.781,319.2,233.981,319.029,233.91,319.167,233.47,319.707,233.196,319.506,232.616,320.06,232.348,320.079,231.859,320.105,231.923,320.469,231.601,320.882,231.399,321.41,231.473,321.738,231.064,322.2,230.981" fill="#4051B5" style="stroke:#FF6F00;stroke-width:2;stroke-linejoin:miter;stroke-miterlimit:10;"/><polygon points="343.255,248.413,341.789,250.416,340.056,253.349,337.576,255.326,334.97,256.408,332.893,256.501,330.222,255.149,327.703,254.266,325.79,252.473,324.787,250.42,324.192,248.785,323.61,246.649,322.664,244.812,323.391,243.018,324.027,241.053,326.418,239.498,328.099,237.482,330.18,236.812,332.655,236.235,335.828,236.578,337.566,237.397,339.586,237.769,342.043,240.286,342.899,242.943,343.271,244.756,342.85,247.744" fill="#ADD1B2" style="stroke:#181818;stroke-width:1;stroke-linejoin:miter;stroke-miterlimit:10;"/><path d="M335.059,250.215 Q334.622,250.434 334.122,250.543 Q333.638,250.668 333.106,250.668 Q331.184,250.668 330.169,249.402 Q329.169,248.137 329.169,245.746 Q329.169,243.356 330.169,242.09 Q331.184,240.824 333.106,240.824 Q333.638,240.824 334.138,240.949 Q334.638,241.059 335.059,241.293 L335.059,243.371 Q334.575,242.934 334.122,242.731 Q333.669,242.512 333.184,242.512 Q332.169,242.512 331.638,243.34 Q331.106,244.152 331.106,245.746 Q331.106,247.356 331.638,248.168 Q332.169,248.981 333.184,248.981 Q333.669,248.981 334.122,248.777 Q334.575,248.574 335.059,248.121 L335.059,250.215 Z " fill="#FFF"/><text x="348.2" y="250.481" fill="#FFF" font-size="13" textLength="97.862" font-family="'Roboto'">System Agents</text></g><!--class UseCases--><g class="entity" data-qualified-name="UseCases" id="ent0009" data-source-line="73"><polygon points="143.81,301.981,143.81,302.191,153.731,301.566,163.652,302.174,173.573,302.38,183.494,301.267,193.415,301.903,203.336,301.554,213.257,301.597,223.178,301.912,233.099,301.289,243.02,302.534,252.941,301.35,262.863,301.783,272.784,302.413,282.705,301.895,292.626,302.049,302.547,301.949,312.468,301.981,312.49,302.036,312.922,302.23,313.391,302.512,313.826,302.714,314.251,302.893,314.589,302.859,314.667,302.892,314.908,303.343,315.157,303.797,314.894,304.04,315.501,304.643,315.468,304.981,315.369,304.981,315.646,309.781,315.303,314.581,315.445,319.381,315.715,324.181,315.468,328.981,315.453,328.974,315.324,329.418,315.221,329.872,315.069,330.307,314.764,330.677,314.589,331.102,314.626,331.19,314.092,331.101,313.777,331.541,313.386,331.798,312.949,331.942,312.468,331.981,312.468,332.594,302.547,331.498,292.626,331.328,282.705,331.359,272.784,331.922,262.863,331.784,252.941,332.662,243.02,331.806,233.099,331.638,223.178,332.209,213.257,331.314,203.336,331.461,193.415,332.63,183.494,332.416,173.573,332.715,163.652,331.659,153.731,332.3,143.81,331.981,143.885,332.162,143.325,331.659,142.949,331.6,142.553,331.492,142.196,331.478,141.689,331.102,141.687,331.101,141.655,330.737,141.167,330.183,140.953,329.743,141.141,329.469,140.81,328.981,140.571,328.981,140.98,324.181,140.879,319.381,140.721,314.581,140.692,309.781,140.81,304.981,140.951,305.039,140.894,304.518,141.344,304.208,141.167,303.637,141.703,303.362,141.689,302.859,141.75,303.008,142.144,302.759,142.543,302.522,143.054,302.556,143.464,302.345,143.81,301.981" fill="#4051B5" style="stroke:#FF6F00;stroke-width:2;stroke-linejoin:miter;stroke-miterlimit:10;"/><polygon points="164.865,319.413,163.399,321.416,161.666,324.349,159.186,326.326,156.58,327.408,154.503,327.501,151.832,326.149,149.313,325.266,147.4,323.473,146.397,321.42,145.802,319.785,145.22,317.649,144.274,315.812,145.001,314.018,145.637,312.053,148.028,310.498,149.709,308.482,151.79,307.812,154.265,307.235,157.438,307.578,159.176,308.397,161.196,308.769,163.653,311.286,164.509,313.943,164.881,315.756,164.46,318.744" fill="#ADD1B2" style="stroke:#181818;stroke-width:1;stroke-linejoin:miter;stroke-miterlimit:10;"/><path d="M156.669,321.215 Q156.232,321.434 155.732,321.543 Q155.248,321.668 154.716,321.668 Q152.794,321.668 151.779,320.403 Q150.779,319.137 150.779,316.746 Q150.779,314.356 151.779,313.09 Q152.794,311.824 154.716,311.824 Q155.248,311.824 155.748,311.949 Q156.248,312.059 156.669,312.293 L156.669,314.371 Q156.185,313.934 155.732,313.731 Q155.279,313.512 154.794,313.512 Q153.779,313.512 153.248,314.34 Q152.716,315.153 152.716,316.746 Q152.716,318.356 153.248,319.168 Q153.779,319.981 154.794,319.981 Q155.279,319.981 155.732,319.778 Q156.185,319.574 156.669,319.121 L156.669,321.215 Z " fill="#FFF"/><text x="169.81" y="321.481" fill="#FFF" font-size="13" textLength="140.658" font-family="'Roboto'">Use Cases &amp; Systems</text></g><!--reverse link Corpus to PLM--><g class="link" data-entity-1="ent0001" data-entity-2="ent0005" id="lnk11" data-source-line="75" data-link-type="dependency"><path d="M203.471,82.465 L203.546,82.521 L201.637,84.638 L200.168,87.08 L198.555,89.417 L196.471,91.405 L195.04,93.875 L195.009,93.861 L193.685,96.431 L192.521,99.072 L191.467,101.762 L190.032,104.282 L189.13,107.041 L189.37,107.097 L188.362,109.089 L188.054,111.246 L187.832,113.423 L187.113,115.483 L186.655,117.604 L186.685,117.611 L187.136,119.688 L187.722,121.797 L188.243,123.891 L188.888,126.013 L189.13,128.041 L189.391,128.185 L190.565,130.295 L191.571,132.312 L192.823,134.465 L194.087,136.624 L194.985,138.581 L194.738,138.376 L196.766,140.641 L197.982,142.233 L199.815,144.336 L201.012,145.912 L202.73,147.921" style="stroke:#FF6F00;stroke-width:2;" fill="none"/><polygon points="206.75,78.691,206.78,78.754,204.907,79.4,203.208,80.417,201.453,81.314,199.512,81.812,197.828,82.861,197.826,82.835,198.946,82.64,200.076,82.575,201.212,82.601,202.326,82.314,203.471,82.465,203.655,82.478,203.34,83.579,203.563,84.718,203.852,85.861,203.759,86.977,203.867,88.108,203.889,88.115,204.433,86.221,205.077,84.358,205.673,82.481,206.36,80.631,206.75,78.691" fill="#FF6F00" style="stroke:#FF6F00;stroke-width:2;stroke-linejoin:miter;stroke-miterlimit:10;"/><text x="192.13" y="122.108" fill="#333" font-size="13" textLength="34.646" font-family="'Roboto'">Store</text></g><!--link Corpus to PLM--><g class="link" data-entity-1="ent0001" data-entity-2="ent0005" id="lnk12" data-source-line="76" data-link-type="dependency"><path d="M230.46,78.771 L230.553,78.778 L230.462,81.001 L230.916,83.268 L231.193,85.521 L230.885,87.726 L231.386,89.997 L231.352,89.995 L231.338,92.466 L231.499,94.947 L231.78,97.435 L231.645,99.899 L232.094,102.397 L232.34,102.403 L231.875,104.971 L232.129,107.556 L232.471,110.144 L232.302,112.719 L232.402,115.301 L232.432,115.301 L232.333,117.848 L232.373,120.398 L232.345,122.947 L232.445,125.498 L232.13,128.041 L232.427,128.062 L232.22,131.002 L231.82,133.927 L231.701,136.873 L231.596,139.82 L231.073,142.737" style="stroke:#FF6F00;stroke-width:2;" fill="none"/><polygon points="230.56,147.711,230.621,147.745,231.421,145.933,232.577,144.326,233.617,142.652,234.276,140.759,235.463,139.169,235.446,139.149,234.495,139.772,233.626,140.497,232.815,141.292,231.806,141.845,231.073,142.737,231.216,142.853,230.196,141.727,229.595,140.94,229.044,140.194,228.196,139.207,227.505,138.348,227.526,138.355,228.106,140.217,228.783,142.111,229.414,143.99,230.135,145.899,230.56,147.711" fill="#FF6F00" style="stroke:#FF6F00;stroke-width:2;stroke-linejoin:miter;stroke-miterlimit:10;"/><text x="235.13" y="122.108" fill="#333" font-size="13" textLength="54.774" font-family="'Roboto'">Retrieve</text></g><!--reverse link PLM to Human--><g class="link" data-entity-1="ent0005" data-entity-2="ent0006" id="lnk14" data-source-line="77" data-link-type="dependency"><path d="M181.413,192.466 L181.535,192.719 L172.353,196.208 L163.882,201.177 L155.18,205.665 L145.715,208.567 L137.261,213.57 L128.238,217.39 L119.441,221.681 L110.802,226.299 L102.02,230.621" style="stroke:#FF6F00;stroke-width:2;" fill="none"/><polygon points="185.92,190.301,185.922,190.371,183.947,190.221,181.984,190.482,180.017,190.61,178.037,190.297,176.076,190.594,176.067,190.569,177.096,190.834,178.168,191.222,179.271,191.696,180.27,191.874,181.413,192.466,181.588,192.528,180.841,193.464,180.602,194.58,180.426,195.717,179.888,196.727,179.541,197.804,179.558,197.819,180.809,196.297,182.138,194.841,183.429,193.354,184.793,191.928,185.92,190.301" fill="#FF6F00" style="stroke:#FF6F00;stroke-width:2;stroke-linejoin:miter;stroke-miterlimit:10;"/></g><!--reverse link PLM to GenAI--><g class="link" data-entity-1="ent0005" data-entity-2="ent0007" id="lnk16" data-source-line="78" data-link-type="dependency"><path d="M228.13,195.101 L228.223,195.101 L227.946,202.235 L228.216,209.369 L228.308,216.503 L227.813,223.637 L228.13,230.771" style="stroke:#FF6F00;stroke-width:2;" fill="none"/><polygon points="228.13,190.101,228.194,190.129,227.204,191.845,226.589,193.727,225.852,195.555,224.713,197.204,224.13,199.101,224.112,199.082,224.829,198.2,225.64,197.41,226.514,196.685,227.167,195.738,228.13,195.101,228.26,195.231,228.781,195.752,229.683,196.654,230.632,197.602,231.31,198.28,232.13,199.101,232.151,199.11,231.32,197.296,230.584,195.525,229.803,193.733,229.108,191.98,228.13,190.101" fill="#FF6F00" style="stroke:#FF6F00;stroke-width:2;stroke-linejoin:miter;stroke-miterlimit:10;"/></g><!--reverse link PLM to System--><g class="link" data-entity-1="ent0005" data-entity-2="ent0008" id="lnk18" data-source-line="79" data-link-type="dependency"><path d="M275.132,192.455 L275.253,192.708 L283.774,196.197 L293.003,201.169 L302.001,205.658 L310.241,208.559 L319.486,213.565 L328.166,217.386 L337.07,221.678 L346.131,226.298 L355.05,230.621" style="stroke:#FF6F00;stroke-width:2;" fill="none"/><polygon points="270.62,190.301,270.673,190.346,271.795,191.708,273.228,193.338,274.56,194.88,275.557,196.136,277.018,197.788,276.993,197.78,276.507,196.674,276.143,195.613,275.865,194.581,275.292,193.445,275.132,192.455,275.193,192.629,276.129,191.88,277.243,191.639,278.38,191.459,279.389,190.92,280.465,190.569,280.466,190.592,278.496,190.505,276.529,190.521,274.56,190.488,272.594,190.55,270.62,190.301" fill="#FF6F00" style="stroke:#FF6F00;stroke-width:2;stroke-linejoin:miter;stroke-miterlimit:10;"/></g><!--link Human to UseCases--><g class="link" data-entity-1="ent0006" data-entity-2="ent0009" id="lnk19" data-source-line="80" data-link-type="dependency"><path d="M104.84,261.441 L104.953,261.697 L114.178,265.165 L124.068,270.136 L133.741,274.617 L142.703,277.49 L152.608,282.494 L161.982,286.299 L171.567,290.581 L181.299,295.195 L190.897,299.508" style="stroke:#FF6F00;stroke-width:2;" fill="none"/><polygon points="195.47,301.531,195.522,301.578,194.045,299.978,192.873,298.654,191.601,297.241,190.004,295.532,188.857,294.232,188.833,294.223,189.133,295.236,189.554,296.296,190.06,297.389,190.274,298.37,190.897,299.508,190.964,299.68,189.766,299.72,188.763,300.263,187.784,300.866,186.666,301.113,185.621,301.548,185.621,301.571,187.591,301.534,189.561,301.601,191.531,301.617,193.501,301.729,195.47,301.531" fill="#FF6F00" style="stroke:#FF6F00;stroke-width:2;stroke-linejoin:miter;stroke-miterlimit:10;"/></g><!--link GenAI to UseCases--><g class="link" data-entity-1="ent0007" data-entity-2="ent0009" id="lnk20" data-source-line="81" data-link-type="dependency"><path d="M228.13,261.281 L228.223,261.281 L227.946,268.365 L228.216,275.449 L228.308,282.533 L227.813,289.617 L228.13,296.701" style="stroke:#FF6F00;stroke-width:2;" fill="none"/><polygon points="228.13,301.701,228.194,301.729,228.804,299.845,229.789,298.127,230.652,296.355,231.113,294.404,232.13,292.701,232.112,292.682,231.229,293.4,230.44,294.21,229.714,295.085,228.767,295.738,228.13,296.701,228.26,296.831,227.181,295.752,226.483,295.054,225.832,294.402,224.91,293.48,224.13,292.701,224.151,292.71,224.92,294.496,225.784,296.325,226.603,298.133,227.508,299.98,228.13,301.701" fill="#FF6F00" style="stroke:#FF6F00;stroke-width:2;stroke-linejoin:miter;stroke-miterlimit:10;"/></g><!--link System to UseCases--><g class="link" data-entity-1="ent0008" data-entity-2="ent0009" id="lnk21" data-source-line="82" data-link-type="dependency"><path d="M352.22,261.441 L352.333,261.697 L342.371,265.166 L333.07,270.139 L323.554,274.621 L313.33,277.494 L304.044,282.501 L294.23,286.306 L284.626,290.589 L275.168,295.205 L265.578,299.519" style="stroke:#FF6F00;stroke-width:2;" fill="none"/><polygon points="261,301.531,261,301.601,262.969,301.401,264.94,301.612,266.91,301.689,268.878,301.326,270.849,301.573,270.839,301.549,269.743,301.03,268.694,300.632,267.678,300.32,266.548,299.715,265.578,299.519,265.75,299.586,265.793,298.389,266.338,297.387,266.944,296.409,267.194,295.292,267.631,294.248,267.648,294.264,266.297,295.698,265.023,297.201,263.711,298.671,262.471,300.206,261,301.531" fill="#FF6F00" style="stroke:#FF6F00;stroke-width:2;stroke-linejoin:miter;stroke-miterlimit:10;"/></g><?plantuml-src hLHTJzim57tthxWKQNj2QyV70q988PI2WAPAWMaI4dAJsyPgOaUsG-dGfFsM_RJzajbnchfyQDeqFoNd7fzxxlMrjqIfcU2GKPuk9DCQEMXP8TbASSeumidWuJgu63w4qLKKGxsszxhxlSc-JndtmsXu6iHV6zuRb54GNWQ3VYlqYXB5f_tOpmFRq-d1jDjjAMVHy6Q3K5FiQYb174TVDZah5QBcZ9TKqW8cD9dFfAXu6efSI5CnvSg4a6j2Fa8eYf8c6dAw59K6XLepFbEUm8YcgO7WiuV5Jazob73WuUECfc9XsLEQA_GYvyiIPSxu_9QdzGUwth_1S3vNfQm9nlXSOGbxFiX5YXRStGGrdWck6wLklVocdEAKLhc6Ps9fGreWT68n4Lfqo7hZ-WngSCo-8VHsoNTVAP1IB8oEs-4TYQUplLil9wANEHg3ig0vkSbOCkUeb6dkXcgIKmC-avCNXxSneUH4IDFB9kADL1FmrTyiAj1QiadbzygFsifUbrN3xnetipIdCsmQ-qhp7-lPIA4qrVZ7tlo_Wl-YoyQd5YLe0MQKj2WWPH8J--YGZAK81HOJbEhzIMq6XRZpxvWRLbOAn1J6vh8akfAOmYKNYnpJ6Txp8sL6yh3NEuuc2kKZjPaK_Fhn4yxCdNPVHgFnuFxlQCvInppwPFSVTu0gSAa8iOP0ibccRTh6m27SP0XtJEgAvlUyppNAKZ9bBBHkO21fcRNMHuQ1bWvNI2MtJy8rJJ9pxptR8IrjJRMl_fDvcSn3PB_RQdt7wDiTNLstgSwhWd88PkP5KtMm1bRH0VBWme_Mm2ewNYgDXHzsI2j-gn12gb31XoRaQ0QlOKAC5TYfoftZTRV6MaWapU-EUH6vYLhU8SHeHX0VaJZNRgEjnlbS_pVEra2peL5hypVxNiAhxI_mtm00?></g></svg>