<svg xmlns="http://www.w3.org/2000/svg" xmlns:xlink="http://www.w3.org/1999/xlink" contentStyleType="text/css" data-diagram-type="CLASS" height="346px" preserveAspectRatio="none" style="width:563px;height:346px;" version="1.1" viewBox="0 0 563 346" width="563px" zoomAndPan="magnify"><?plantuml 1.2026.5?><defs/><g><polygon fill="#FFFFCC" points="5.5,3,5.5,3.2102,15.5439,2.5857,25.5878,3.1933,35.6317,3.3997,45.6756,2.2866,55.7195,2.9223,65.7634,2.5735,75.8073,2.6165,85.8511,2.9318,95.895,2.3086,105.9389,3.5536,115.9828,2.3697,126.0267,2.8022,136.0706,3.4319,146.1145,2.9142,156.1584,3.0682,166.2023,2.9681,176.2462,3.1785,186.2901,3.2391,196.334,3.5857,206.3779,3.6711,216.4218,3.6793,226.4656,3.2546,236.5095,3.4636,246.5534,3.7022,256.5973,2.2788,266.6412,3.6785,276.6851,2.7035,286.729,3.5338,296.7729,2.505,306.8168,2.9315,316.8607,3.7416,326.9046,2.9513,336.9485,3.1053,346.9924,3.3386,357.0363,3.4162,367.0801,2.9961,377.124,3.2872,387.1679,2.4276,397.2118,3.2844,407.2557,3.5482,417.2996,3.4445,427.3435,3.613,437.3874,2.5169,447.4313,2.3478,457.4752,2.3786,467.5191,2.9411,477.563,2.8035,487.6069,3.6814,497.6508,2.8253,507.6946,2.6569,517.7385,3.2283,527.7824,2.3332,537.8263,2.4809,547.8702,3,547.953,3.1999,548.2793,3.2806,548.671,3.5191,548.8898,3.3402,549.3251,3.6841,549.638,3.7322,549.8198,3.8075,549.6389,4.0255,549.9014,4.4271,550.1161,4.809,550.4245,5.2296,550.3702,5.5,550.3688,5.5,550.5244,7.8281,550.1856,10.1563,550.1445,12.4844,550.5381,14.8125,550.3702,17.1406,550.1494,17.0492,550.3805,17.5591,550.141,17.8741,549.8484,18.1671,549.6755,18.5097,549.638,18.9084,549.6965,19.0497,549.2462,18.9627,549.0064,19.3836,548.5068,19.1775,548.3025,19.6843,547.8702,19.6406,547.8702,20.1249,537.8263,19.8856,527.7824,19.6878,517.7385,20.3672,507.6946,20.2542,497.6508,19.8099,487.6069,19.9088,477.563,19.5104,467.5191,20.3571,457.4752,19.7955,447.4313,19.8132,437.3874,19.0323,427.3435,19.2354,417.2996,20.1714,407.2557,20.0704,397.2118,19.5977,387.1679,19.3185,377.124,19.4217,367.0801,18.9544,357.0363,20.0554,346.9924,20.3802,336.9485,20.167,326.9046,20.3356,316.8607,19.5039,306.8168,19.7278,296.7729,19.253,286.729,19.9247,276.6851,19.8874,266.6412,20.193,256.5973,19.411,246.5534,19.5062,236.5095,20.0841,226.4656,20.208,216.4218,19.1281,206.3779,19.4467,196.334,19.7899,186.2901,19.0298,176.2462,19.994,166.2023,19.8986,156.1584,19.5399,146.1145,19.7829,136.0706,20.3693,126.0267,19.3278,115.9828,19.9556,105.9389,19.9263,95.895,19.7564,85.8511,19.7815,75.8073,19.7541,65.7634,19.0165,55.7195,19.2398,45.6756,19.1791,35.6317,19.7044,25.5878,19.7288,15.5439,19.8024,5.5,19.6406,5.4629,19.551,5.1378,19.4734,4.7776,19.3107,4.5129,19.3789,4.1402,19.1862,3.7322,18.9084,3.5827,18.8465,3.5633,18.5455,3.2616,18.1277,3.3817,17.8845,3.3338,17.5718,3,17.1406,3.1815,17.1406,2.8548,14.8125,3.1547,12.4844,2.7524,10.1563,3.0667,7.8281,3,5.5,2.9078,5.4618,3.1762,5.1588,3.3669,4.8236,3.5847,4.4996,3.3641,3.994,3.7322,3.7322,3.7929,3.8787,4.1085,3.6407,4.4847,3.5488,4.8883,3.5232,5.1471,3.1481,5.5,3" style="stroke:#FFDD88;stroke-width:3;stroke-linejoin:miter;stroke-miterlimit:10;"/><text fill="#000000" font-family="monospace" font-size="10" lengthAdjust="spacing" textLength="295.0049" x="10" y="13.6406">Please&#160;use&#160;CSS&#160;style&#160;instead&#160;of&#160;skinparam&#160;padding</text><!--class Corpus--><g class="entity" data-qualified-name="Corpus" data-source-line="75" id="ent0001"><polygon fill="#4051B5" points="80.99,36.3706,80.99,36.5808,91.1381,35.9563,101.2861,36.5639,111.4342,36.7703,121.5822,35.6572,131.7303,36.2929,141.8783,35.9441,152.0264,35.9871,162.1744,36.3025,172.3225,35.6793,182.4705,36.9243,192.6186,35.7403,202.7666,36.1729,212.9147,36.8026,223.0627,36.2848,233.2108,36.4389,243.3588,36.3387,253.5069,36.5492,263.6549,36.6098,273.803,36.9563,283.951,37.0417,294.0991,37.0499,304.2471,36.6253,314.3952,36.8342,324.5432,37.0729,334.6913,35.6494,344.8393,37.0491,354.9874,36.0741,365.1354,36.9044,375.2835,36.3706,375.2203,36.2182,375.699,36.5253,376.2266,36.9505,376.55,36.8828,376.9939,37.106,377.4048,37.2493,377.5091,37.2925,377.7087,37.7267,377.755,38.0973,378.0204,38.5587,377.9314,38.8733,378.2835,39.3706,378.3783,39.3706,378.4662,46.5581,378.4316,53.7456,378.4878,60.9331,378.1224,68.1206,378.2835,75.3081,378.0826,75.2249,377.9164,75.6531,377.9139,76.1491,377.6957,76.5558,377.7904,77.0921,377.4048,77.4294,377.3825,77.3757,376.9368,77.4995,376.5854,77.8512,376.0469,77.7513,375.6415,77.9725,375.2835,78.3081,375.2835,78.9571,365.1354,78.7438,354.9874,79.0426,344.8393,77.9863,334.6913,78.6273,324.5432,78.8985,314.3952,77.8357,304.2471,78.2123,294.0991,78.4341,283.951,78.9599,273.803,78.3039,263.6549,78.7707,253.5069,77.7543,243.3588,77.6309,233.2108,78.8117,223.0627,77.5912,212.9147,78.8171,202.7666,78.5148,192.6186,78.0402,182.4705,77.9544,172.3225,78.7669,162.1744,78.0088,152.0264,78.9,141.8783,77.7554,131.7303,78.9256,121.5822,78.7924,111.4342,78.5531,101.2861,78.3553,91.1381,79.0347,80.99,78.3081,81.0683,78.4971,80.5873,78.1845,80.1757,78.0392,79.7006,77.7408,79.3843,77.8258,78.8687,77.4294,78.9164,77.4492,78.7461,77.0272,78.3299,76.5033,78.2167,76.105,78.3292,75.8001,77.99,75.3081,78.1333,75.3081,77.9757,68.1206,77.8826,60.9331,77.917,53.7456,77.7613,46.5581,77.99,39.3706,78.1177,39.4235,78.3935,39.0407,78.5036,38.5892,78.7312,38.1865,78.6508,37.6561,78.8687,37.2493,78.8798,37.2762,79.2435,36.9542,79.7534,36.9853,80.1729,36.7981,80.6362,36.7165,80.99,36.3706" style="stroke:#FF6F00;stroke-width:2;stroke-linejoin:miter;stroke-miterlimit:10;"/><polygon fill="#ADD1B2" points="102.0452,59.7718,100.5794,61.7746,98.8456,64.7082,96.366,66.6852,93.7603,67.7663,91.6827,67.8601,89.0124,66.5081,86.4929,65.6248,84.5805,63.8314,83.5773,61.7783,82.9824,60.1435,82.3996,58.0082,81.4536,56.1707,82.1806,54.3767,82.8175,52.4114,85.2075,50.8571,86.8891,48.8404,88.9704,48.1707,91.4447,47.594,94.6176,47.9366,96.3555,48.7562,98.3761,49.1277,100.8329,51.6448,101.6893,54.3021,102.0614,56.1151,101.64,59.1029" style="stroke:#181818;stroke-width:1;stroke-linejoin:miter;stroke-miterlimit:10;"/><path d="M93.8494,61.5737 Q93.4119,61.7925 92.9119,61.9019 Q92.4275,62.0269 91.8963,62.0269 Q89.9744,62.0269 88.9588,60.7612 Q87.9588,59.4956 87.9588,57.105 Q87.9588,54.7144 88.9588,53.4487 Q89.9744,52.1831 91.8963,52.1831 Q92.4275,52.1831 92.9275,52.3081 Q93.4275,52.4175 93.8494,52.6519 L93.8494,54.73 Q93.365,54.2925 92.9119,54.0894 Q92.4588,53.8706 91.9744,53.8706 Q90.9588,53.8706 90.4275,54.6987 Q89.8963,55.5112 89.8963,57.105 Q89.8963,58.7144 90.4275,59.5269 Q90.9588,60.3394 91.9744,60.3394 Q92.4588,60.3394 92.9119,60.1362 Q93.365,59.9331 93.8494,59.48 L93.8494,61.5737 Z " fill="#FFFFFF"/><text fill="#FFFFFF" font-family="'Roboto'" font-size="13" lengthAdjust="spacing" textLength="211.0405" x="134.6165" y="55.4375">Corpus of Structured Knowledge</text><text fill="#FFFFFF" font-family="'Roboto'" font-size="11" lengthAdjust="spacing" textLength="266.2935" x="106.99" y="68.7139">Observations &#8226; Facts &#8226; Corrections &#8226; Validations</text></g><g class="entity" data-qualified-name="GMN2" data-source-line="77" id="ent0003"><path d="M407.9,30.6406 L408.0868,30.6406 L407.5317,35.1806 L408.0718,39.7206 L408.2553,44.2606 L407.2659,48.8006 L407.9,53.3406 L407.8907,53.2722 L401.9729,53.765 L396.102,54.6029 L390.2638,55.6806 L384.3131,55.9317 L378.52,57.3406 L378.5864,57.8283 L384.3204,57.5855 L390.2483,58.7664 L396.1998,60.1211 L402.0137,60.4651 L407.9,61.3406 L407.9607,61.3406 L407.8716,65.8803 L408.0587,70.42 L408.1126,74.9597 L408.4206,79.4994 L407.9,84.0391 L410.9,87.0391 L410.9,88.8285 L421.2439,88.8504 L431.5877,87.7181 L441.9316,88.2753 L452.2755,88.9117 L462.6193,85.1159 L472.9632,88.8484 L483.307,86.2484 L493.6509,88.4626 L503.9948,85.719 L514.3386,86.8564 L524.6825,89.0167 L535.0264,86.9091 L545.3702,87.0391 L548.3702,84.0391 L548.651,84.0391 L549.2732,74.7594 L549.4802,65.4797 L548.3598,56.2 L549.1361,46.9203 L548.3702,37.6406 L548.0104,37.2808 L546.549,35.8194 L544.7148,33.9852 L542.6496,31.92 L540.7555,30.0259 L538.3702,27.6406 L538.3702,26.3524 L528.5648,25.9015 L518.7594,25.9836 L508.954,27.4836 L499.1486,27.1165 L489.3432,29.4577 L479.5378,27.1748 L469.7324,26.7258 L459.927,28.2493 L450.1216,25.8624 L440.3162,26.2563 L430.5108,29.3712 L420.7054,28.8024 L410.9,27.6406 L407.9,30.6406" fill="#FEFFDD" style="stroke:#181818;stroke-width:0.5;"/><path d="M538.3702,27.6406 L538.557,27.6406 L538.0019,29.3406 L538.542,31.0406 L538.7255,32.7406 L537.7361,34.4406 L538.3702,36.1406 L539.8702,37.6406 L539.8702,37.5715 L541.5702,37.2615 L543.2702,37.2997 L544.9702,37.58 L546.6702,37.0261 L548.3702,37.6406 L548.7182,37.9886 L545.9741,35.2445 L544.2459,33.5163 L542.6417,31.9121 L540.3163,29.5867 L538.3702,27.6406" fill="#FEFFDD" style="stroke:#181818;stroke-width:0.5;"/><text fill="#333333" font-family="'Roboto'" font-size="13" lengthAdjust="spacing" textLength="71.0747" x="415.9" y="46.7075">The Virtual</text><text fill="#333333" font-family="'Roboto'" font-size="13" lengthAdjust="spacing" textLength="66.8726" x="415.9" y="61.8403">Enterprise</text><text fill="#333333" font-family="'Roboto'" font-size="13" lengthAdjust="spacing" textLength="115.4702" x="415.9" y="76.9731">Knowledge Graph</text></g><!--class PLM--><g class="entity" data-qualified-name="PLM" data-source-line="79" id="ent0005"><polygon fill="#4051B5" points="103.93,148.0406,103.93,148.2508,113.8665,147.6263,123.8031,148.2339,133.7396,148.4403,143.6762,147.3272,153.6127,147.9629,163.5493,147.6141,173.4858,147.6571,183.4223,147.9725,193.3589,147.3493,203.2954,148.5943,213.232,147.4103,223.1685,147.8429,233.1051,148.4726,243.0416,147.9548,252.9781,148.1089,262.9147,148.0087,272.8512,148.2192,282.7878,148.2798,292.7243,148.6263,302.6609,148.7117,312.5974,148.7199,322.5339,148.2953,332.4705,148.5042,342.407,148.7429,352.3436,148.0406,352.2516,147.8185,352.8544,148.4253,353.1543,148.3008,353.6845,148.7322,353.9775,148.5911,354.4649,148.9193,354.4438,148.9106,354.869,149.4382,354.8014,149.7616,355.0245,150.2055,355.2721,150.6596,355.3436,151.0406,355.4823,151.0406,355.3423,158.2281,355.4393,165.4156,355.1528,172.6031,355.4384,179.7906,355.3436,186.9781,355.5124,187.0481,355.3047,187.4591,355.1809,187.9049,354.6676,188.1893,354.4398,188.592,354.4649,189.0994,354.3856,188.9081,354.0331,189.257,353.5913,189.3904,353.279,189.8365,352.7456,189.7486,352.3436,189.9781,352.3436,189.6351,342.407,190.2064,332.4705,189.3113,322.5339,189.459,312.5974,190.6271,302.6609,190.4138,292.7243,190.7126,282.7878,189.6563,272.8512,190.2973,262.9147,190.5685,252.9781,189.5057,243.0416,189.8823,233.1051,190.1041,223.1685,190.6299,213.232,189.9739,203.2954,190.4407,193.3589,189.4243,183.4223,189.3009,173.4858,190.4817,163.5493,189.2612,153.6127,190.4871,143.6762,190.1848,133.7396,189.7102,123.8031,189.6244,113.8665,190.4369,103.93,189.9781,103.8918,189.8859,103.5812,189.9847,103.011,189.4564,102.736,189.6411,102.2947,189.4243,101.8087,189.0994,101.8841,189.1307,101.6475,188.6812,101.681,188.3436,101.4704,187.9049,101.1579,187.424,100.93,186.9781,101.0194,186.9781,100.8866,179.7906,101.1688,172.6031,100.9816,165.4156,100.9875,158.2281,100.93,151.0406,100.7427,150.963,100.9809,150.5647,101.4449,150.2598,101.5896,149.8227,101.6197,149.3381,101.8087,148.9193,101.7676,148.8201,102.205,148.6761,102.5697,148.3565,103.1344,148.5198,103.6001,148.4441,103.93,148.0406" style="stroke:#FF6F00;stroke-width:2;stroke-linejoin:miter;stroke-miterlimit:10;"/><polygon fill="#ADD1B2" points="124.9852,171.4418,123.5194,173.4446,121.7856,176.3782,119.306,178.3552,116.7003,179.4363,114.6227,179.5301,111.9524,178.1781,109.4329,177.2948,107.5205,175.5014,106.5173,173.4483,105.9224,171.8135,105.3396,169.6782,104.3936,167.8407,105.1206,166.0467,105.7575,164.0814,108.1475,162.5271,109.8291,160.5104,111.9104,159.8407,114.3847,159.264,117.5576,159.6066,119.2955,160.4262,121.3161,160.7977,123.7729,163.3148,124.6293,165.9721,125.0014,167.7851,124.58,170.7729" style="stroke:#181818;stroke-width:1;stroke-linejoin:miter;stroke-miterlimit:10;"/><path d="M116.7894,173.2437 Q116.3519,173.4625 115.8519,173.5719 Q115.3675,173.6969 114.8363,173.6969 Q112.9144,173.6969 111.8988,172.4312 Q110.8988,171.1656 110.8988,168.775 Q110.8988,166.3844 111.8988,165.1187 Q112.9144,163.8531 114.8363,163.8531 Q115.3675,163.8531 115.8675,163.9781 Q116.3675,164.0875 116.7894,164.3219 L116.7894,166.4 Q116.305,165.9625 115.8519,165.7594 Q115.3988,165.5406 114.9144,165.5406 Q113.8988,165.5406 113.3675,166.3687 Q112.8363,167.1812 112.8363,168.775 Q112.8363,170.3844 113.3675,171.1969 Q113.8988,172.0094 114.9144,172.0094 Q115.3988,172.0094 115.8519,171.8062 Q116.305,171.6031 116.7894,171.15 L116.7894,173.2437 Z " fill="#FFFFFF"/><text fill="#FFFFFF" font-family="'Roboto'" font-size="13" lengthAdjust="spacing" textLength="181.9238" x="149.1749" y="167.1075">Perpetual Learning Machine</text><text fill="#FFFFFF" font-family="'Roboto'" font-size="11" lengthAdjust="spacing" textLength="220.4136" x="129.93" y="180.3839">Capture &#8226; Extract &#8226; Structure &#8226; Validate</text></g><!--class Human--><g class="entity" data-qualified-name="Human" data-source-line="81" id="ent0006"><polygon fill="#4051B5" points="10,230.9806,10,231.1908,20.3557,230.5663,30.7114,231.1739,41.0671,231.3803,51.4229,230.2672,61.7786,230.9029,72.1343,230.5541,82.49,230.5971,92.8457,230.9125,103.2014,230.2893,113.5571,231.5343,123.9128,230.3503,134.2686,230.9806,134.2433,230.9197,134.7479,231.2894,135.1061,231.3057,135.5501,231.5288,135.9615,231.6737,136.3899,231.8593,136.4449,231.8821,136.6393,232.3141,136.9217,232.7825,137.1237,233.2177,137.302,233.643,137.2686,233.9806,137.3534,233.9806,137.4231,238.7806,137.5026,243.5806,137.0282,248.3806,137.4947,253.1806,137.2686,257.9806,137.1772,257.9428,137.2572,258.473,136.7646,258.766,136.7203,259.2447,136.794,259.7723,136.3899,260.1019,136.3837,260.0869,135.979,260.3101,135.5845,260.5577,135.1702,260.7573,134.6923,260.8037,134.2686,260.9806,134.2686,261.2678,123.9128,260.4082,113.5571,261.265,103.2014,261.5288,92.8457,261.4252,82.49,261.5936,72.1343,260.4975,61.7786,260.3284,51.4229,260.3592,41.0671,260.9217,30.7114,260.7841,20.3557,261.662,10,260.9806,9.9777,260.9268,9.532,260.6992,9.1806,260.6995,8.6421,260.2481,8.2367,260.1178,7.8787,260.1019,8.0785,260.1847,7.8371,259.7333,7.7534,259.3471,7.2524,258.7881,7.274,258.4456,7,257.9806,7.1968,257.9806,6.8425,253.1806,6.968,248.3806,7.042,243.5806,7.2173,238.7806,7,233.9806,6.9987,233.9801,7.3182,233.6154,7.1809,233.0615,7.3186,232.6214,7.858,232.3478,7.8787,231.8593,7.7872,231.6385,8.3679,231.8403,8.7536,231.5715,9.1173,231.2496,9.5306,231.0474,10,230.9806" style="stroke:#FF6F00;stroke-width:2;stroke-linejoin:miter;stroke-miterlimit:10;"/><polygon fill="#ADD1B2" points="31.0552,248.413,29.5894,250.4159,27.8556,253.3494,25.376,255.3264,22.7703,256.4075,20.6927,256.5014,18.0224,255.1493,15.5029,254.266,13.5905,252.4726,12.5873,250.4195,11.9924,248.7847,11.4096,246.6494,10.4636,244.812,11.1906,243.0179,11.8275,241.0526,14.2175,239.4983,15.8991,237.4816,17.9804,236.8119,20.4547,236.2352,23.6276,236.5779,25.3655,237.3975,27.3861,237.769,29.8429,240.2861,30.6993,242.9433,31.0714,244.7564,30.65,247.7441" style="stroke:#181818;stroke-width:1;stroke-linejoin:miter;stroke-miterlimit:10;"/><path d="M22.8594,250.215 Q22.4219,250.4337 21.9219,250.5431 Q21.4375,250.6681 20.9063,250.6681 Q18.9844,250.6681 17.9688,249.4025 Q16.9688,248.1369 16.9688,245.7462 Q16.9688,243.3556 17.9688,242.09 Q18.9844,240.8244 20.9063,240.8244 Q21.4375,240.8244 21.9375,240.9494 Q22.4375,241.0587 22.8594,241.2931 L22.8594,243.3712 Q22.375,242.9337 21.9219,242.7306 Q21.4688,242.5119 20.9844,242.5119 Q19.9688,242.5119 19.4375,243.34 Q18.9063,244.1525 18.9063,245.7462 Q18.9063,247.3556 19.4375,248.1681 Q19.9688,248.9806 20.9844,248.9806 Q21.4688,248.9806 21.9219,248.7775 Q22.375,248.5744 22.8594,248.1212 L22.8594,250.215 Z " fill="#FFFFFF"/><text fill="#FFFFFF" font-family="'Roboto'" font-size="13" lengthAdjust="spacing" textLength="96.2686" x="36" y="250.4811">Human Agents</text></g><!--class GenAI--><g class="entity" data-qualified-name="GenAI" data-source-line="82" id="ent0007"><polygon fill="#4051B5" points="169.92,230.9806,169.92,231.1908,179.6219,230.5663,189.3238,231.1739,199.0257,231.3803,208.7276,230.2672,218.4295,230.9029,228.1314,230.5541,237.8333,230.5971,247.5352,230.9125,257.2371,230.2893,266.939,231.5343,276.6409,230.3503,286.3429,230.9806,286.3176,230.9197,286.8222,231.2894,287.1804,231.3057,287.6243,231.5288,288.0358,231.6737,288.4642,231.8593,288.5192,231.8821,288.7136,232.3141,288.996,232.7825,289.198,233.2177,289.3763,233.643,289.3429,233.9806,289.4277,233.9806,289.4974,238.7806,289.5769,243.5806,289.1025,248.3806,289.569,253.1806,289.3429,257.9806,289.2515,257.9428,289.3315,258.473,288.8389,258.766,288.7945,259.2447,288.8683,259.7723,288.4642,260.1019,288.458,260.0869,288.0533,260.3101,287.6588,260.5577,287.2445,260.7573,286.7666,260.8037,286.3429,260.9806,286.3429,261.2678,276.6409,260.4082,266.939,261.265,257.2371,261.5288,247.5352,261.4252,237.8333,261.5936,228.1314,260.4975,218.4295,260.3284,208.7276,260.3592,199.0257,260.9217,189.3238,260.7841,179.6219,261.662,169.92,260.9806,169.8977,260.9268,169.452,260.6992,169.1006,260.6995,168.5621,260.2481,168.1567,260.1178,167.7987,260.1019,167.9985,260.1847,167.7571,259.7333,167.6734,259.3471,167.1724,258.7881,167.194,258.4456,166.92,257.9806,167.1168,257.9806,166.7625,253.1806,166.888,248.3806,166.962,243.5806,167.1373,238.7806,166.92,233.9806,166.9187,233.9801,167.2382,233.6154,167.1009,233.0615,167.2386,232.6214,167.778,232.3478,167.7987,231.8593,167.7072,231.6385,168.2879,231.8403,168.6736,231.5715,169.0373,231.2496,169.4506,231.0474,169.92,230.9806" style="stroke:#FF6F00;stroke-width:2;stroke-linejoin:miter;stroke-miterlimit:10;"/><polygon fill="#ADD1B2" points="190.9752,248.413,189.5094,250.4159,187.7756,253.3494,185.296,255.3264,182.6903,256.4075,180.6127,256.5014,177.9424,255.1493,175.4229,254.266,173.5105,252.4726,172.5073,250.4195,171.9124,248.7847,171.3296,246.6494,170.3836,244.812,171.1106,243.0179,171.7475,241.0526,174.1375,239.4983,175.8191,237.4816,177.9004,236.8119,180.3747,236.2352,183.5476,236.5779,185.2855,237.3975,187.3061,237.769,189.7629,240.2861,190.6193,242.9433,190.9914,244.7564,190.57,247.7441" style="stroke:#181818;stroke-width:1;stroke-linejoin:miter;stroke-miterlimit:10;"/><path d="M182.7794,250.215 Q182.3419,250.4337 181.8419,250.5431 Q181.3575,250.6681 180.8263,250.6681 Q178.9044,250.6681 177.8888,249.4025 Q176.8888,248.1369 176.8888,245.7462 Q176.8888,243.3556 177.8888,242.09 Q178.9044,240.8244 180.8263,240.8244 Q181.3575,240.8244 181.8575,240.9494 Q182.3575,241.0587 182.7794,241.2931 L182.7794,243.3712 Q182.295,242.9337 181.8419,242.7306 Q181.3888,242.5119 180.9044,242.5119 Q179.8888,242.5119 179.3575,243.34 Q178.8263,244.1525 178.8263,245.7462 Q178.8263,247.3556 179.3575,248.1681 Q179.8888,248.9806 180.9044,248.9806 Q181.3888,248.9806 181.8419,248.7775 Q182.295,248.5744 182.7794,248.1212 L182.7794,250.215 Z " fill="#FFFFFF"/><text fill="#FFFFFF" font-family="'Roboto'" font-size="13" lengthAdjust="spacing" textLength="88.4229" x="195.92" y="250.4811">GenAI Agents</text></g><!--class System--><g class="entity" data-qualified-name="System" data-source-line="83" id="ent0008"><polygon fill="#4051B5" points="322.2,230.9806,322.2,231.1908,331.8817,230.5663,341.5634,231.1739,351.245,231.3803,360.9267,230.2672,370.6084,230.9029,380.2901,230.5541,389.9717,230.5971,399.6534,230.9125,409.3351,230.2893,419.0168,231.5343,428.6985,230.3503,438.3801,230.7829,448.0618,230.9806,448.1169,231.1136,448.4751,231.1299,448.919,231.3531,449.3305,231.498,449.7816,231.7385,450.1831,231.8593,450.2568,231.8898,450.5392,232.3583,450.7413,232.7934,450.9195,233.2187,450.9645,233.5888,451.0618,233.9806,451.2163,233.9806,451.2959,238.7806,450.8214,243.5806,451.288,248.3806,450.963,253.1806,451.0618,257.9806,451.2262,258.0487,450.7336,258.3417,450.6892,258.8204,450.763,259.348,450.3439,259.6715,450.1831,260.1019,450.1966,260.1344,449.8021,260.382,449.3877,260.5816,448.9098,260.628,448.5227,260.8933,448.0618,260.9806,448.0618,260.4082,438.3801,261.265,428.6985,261.5288,419.0168,261.4252,409.3351,261.5936,399.6534,260.4975,389.9717,260.3284,380.2901,260.3592,370.6084,260.9217,360.9267,260.7841,351.245,261.662,341.5634,260.8059,331.8817,260.6376,322.2,260.9806,322.2291,261.0509,321.6907,260.5995,321.2853,260.4693,321.01,260.6533,320.5585,260.4118,320.0787,260.1019,320.3049,260.1956,319.8038,259.6366,319.8255,259.2941,319.7333,258.9045,319.2303,258.3446,319.2,257.9806,319.168,257.9806,319.242,253.1806,319.4173,248.3806,319.1986,243.5806,319.3542,238.7806,319.2,233.9806,319.0295,233.91,319.1672,233.47,319.7066,233.1963,319.5064,232.6164,320.0597,232.3485,320.0787,231.8593,320.105,231.9229,320.4688,231.6011,320.8821,231.3989,321.41,231.4734,321.7376,231.0642,322.2,230.9806" style="stroke:#FF6F00;stroke-width:2;stroke-linejoin:miter;stroke-miterlimit:10;"/><polygon fill="#ADD1B2" points="343.2552,248.413,341.7894,250.4159,340.0556,253.3494,337.576,255.3264,334.9703,256.4075,332.8927,256.5014,330.2224,255.1493,327.7029,254.266,325.7905,252.4726,324.7873,250.4195,324.1924,248.7847,323.6096,246.6494,322.6636,244.812,323.3906,243.0179,324.0275,241.0526,326.4175,239.4983,328.0991,237.4816,330.1804,236.8119,332.6547,236.2352,335.8276,236.5779,337.5655,237.3975,339.5861,237.769,342.0429,240.2861,342.8993,242.9433,343.2714,244.7564,342.85,247.7441" style="stroke:#181818;stroke-width:1;stroke-linejoin:miter;stroke-miterlimit:10;"/><path d="M335.0594,250.215 Q334.6219,250.4337 334.1219,250.5431 Q333.6375,250.6681 333.1063,250.6681 Q331.1844,250.6681 330.1688,249.4025 Q329.1688,248.1369 329.1688,245.7462 Q329.1688,243.3556 330.1688,242.09 Q331.1844,240.8244 333.1063,240.8244 Q333.6375,240.8244 334.1375,240.9494 Q334.6375,241.0587 335.0594,241.2931 L335.0594,243.3712 Q334.575,242.9337 334.1219,242.7306 Q333.6688,242.5119 333.1844,242.5119 Q332.1688,242.5119 331.6375,243.34 Q331.1063,244.1525 331.1063,245.7462 Q331.1063,247.3556 331.6375,248.1681 Q332.1688,248.9806 333.1844,248.9806 Q333.6688,248.9806 334.1219,248.7775 Q334.575,248.5744 335.0594,248.1212 L335.0594,250.215 Z " fill="#FFFFFF"/><text fill="#FFFFFF" font-family="'Roboto'" font-size="13" lengthAdjust="spacing" textLength="97.8618" x="348.2" y="250.4811">System Agents</text></g><!--class UseCases--><g class="entity" data-qualified-name="UseCases" data-source-line="85" id="ent0009"><polygon fill="#4051B5" points="143.81,301.9806,143.81,302.1908,153.731,301.5663,163.6521,302.1739,173.5731,302.3803,183.4942,301.2672,193.4152,301.9029,203.3363,301.5541,213.2573,301.5971,223.1783,301.9125,233.0994,301.2893,243.0204,302.5343,252.9415,301.3503,262.8625,301.7829,272.7835,302.4126,282.7046,301.8948,292.6256,302.0489,302.5467,301.9487,312.4677,301.9806,312.4905,302.0356,312.9225,302.23,313.391,302.5125,313.8261,302.7145,314.2514,302.8928,314.589,302.8593,314.6675,302.8918,314.9075,303.3427,315.1568,303.7974,314.8941,304.0401,315.5009,304.6429,315.4677,304.9806,315.3689,304.9806,315.6457,309.7806,315.3027,314.5806,315.4449,319.3806,315.7149,324.1806,315.4677,328.9806,315.4527,328.9744,315.3244,329.4183,315.2205,329.8723,315.0687,330.3065,314.7636,330.6772,314.589,331.1019,314.6257,331.1904,314.0918,331.1014,313.7768,331.541,313.3862,331.798,312.9487,331.9418,312.4677,331.9806,312.4677,332.5936,302.5467,331.4975,292.6256,331.3284,282.7046,331.3592,272.7835,331.9217,262.8625,331.7841,252.9415,332.662,243.0204,331.8059,233.0994,331.6376,223.1783,332.2089,213.2573,331.3138,203.3363,331.4615,193.4152,332.6296,183.4942,332.4163,173.5731,332.7151,163.6521,331.6588,153.731,332.2998,143.81,331.9806,143.8853,332.1625,143.3255,331.6594,142.9492,331.5996,142.5533,331.4922,142.1961,331.4784,141.6887,331.1019,141.6874,331.1014,141.6554,330.7367,141.1667,330.1828,140.9529,329.7428,141.1408,329.4691,140.81,328.9806,140.571,328.9806,140.9797,324.1806,140.8789,319.3806,140.7207,314.5806,140.6921,309.7806,140.81,304.9806,140.9513,305.0391,140.8936,304.5182,141.3437,304.2076,141.167,303.6373,141.7031,303.3623,141.6887,302.8593,141.7505,303.0085,142.1442,302.759,142.5432,302.5224,143.0542,302.5559,143.464,302.3453,143.81,301.9806" style="stroke:#FF6F00;stroke-width:2;stroke-linejoin:miter;stroke-miterlimit:10;"/><polygon fill="#ADD1B2" points="164.8652,319.413,163.3994,321.4159,161.6656,324.3494,159.186,326.3264,156.5803,327.4075,154.5027,327.5014,151.8324,326.1493,149.3129,325.266,147.4005,323.4726,146.3973,321.4195,145.8024,319.7847,145.2196,317.6494,144.2736,315.812,145.0006,314.0179,145.6375,312.0526,148.0275,310.4983,149.7091,308.4816,151.7904,307.8119,154.2647,307.2352,157.4376,307.5779,159.1755,308.3975,161.1961,308.769,163.6529,311.2861,164.5093,313.9433,164.8814,315.7564,164.46,318.7441" style="stroke:#181818;stroke-width:1;stroke-linejoin:miter;stroke-miterlimit:10;"/><path d="M156.6694,321.215 Q156.2319,321.4338 155.7319,321.5431 Q155.2475,321.6681 154.7163,321.6681 Q152.7944,321.6681 151.7788,320.4025 Q150.7788,319.1369 150.7788,316.7463 Q150.7788,314.3556 151.7788,313.09 Q152.7944,311.8244 154.7163,311.8244 Q155.2475,311.8244 155.7475,311.9494 Q156.2475,312.0588 156.6694,312.2931 L156.6694,314.3713 Q156.185,313.9338 155.7319,313.7306 Q155.2788,313.5119 154.7944,313.5119 Q153.7788,313.5119 153.2475,314.34 Q152.7163,315.1525 152.7163,316.7463 Q152.7163,318.3556 153.2475,319.1681 Q153.7788,319.9806 154.7944,319.9806 Q155.2788,319.9806 155.7319,319.7775 Q156.185,319.5744 156.6694,319.1213 L156.6694,321.215 Z " fill="#FFFFFF"/><text fill="#FFFFFF" font-family="'Roboto'" font-size="13" lengthAdjust="spacing" textLength="140.6577" x="169.81" y="321.4811">Use Cases &amp; Systems</text></g><!--reverse link Corpus to PLM--><g class="link" data-entity-1="ent0001" data-entity-2="ent0005" data-link-type="dependency" data-source-line="87" id="lnk11"><path d="M203.4707,82.4651 L203.5459,82.5206 L201.6365,84.6377 L200.1677,87.0802 L198.5554,89.4168 L196.4714,91.4049 L195.0404,93.8753 L195.0089,93.8612 L193.6854,96.4308 L192.5207,99.0716 L191.4665,101.7621 L190.0318,104.2817 L189.13,107.0406 L189.3696,107.0968 L188.3623,109.0895 L188.0544,111.2461 L187.8319,113.4227 L187.1129,115.4829 L186.655,117.6044 L186.6845,117.6114 L187.1362,119.6883 L187.7222,121.7972 L188.2434,123.8906 L188.8883,126.0134 L189.13,128.0406 L189.3907,128.1855 L190.5649,130.2952 L191.5709,132.3116 L192.8231,134.4647 L194.0868,136.6242 L194.985,138.5806 L194.7383,138.376 L196.7661,140.6411 L197.9816,142.2325 L199.8146,144.3361 L201.0116,145.9122 L202.73,147.9206" fill="none" style="stroke:#FF6F00;stroke-width:2;"/><polygon fill="#FF6F00" points="206.75,78.6906,206.7797,78.7541,204.9071,79.3996,203.2084,80.4172,201.4531,81.3137,199.5115,81.8117,197.8278,82.8612,197.8259,82.8353,198.9464,82.6401,200.076,82.5752,201.2119,82.6008,202.326,82.3144,203.4707,82.4651,203.6548,82.478,203.3404,83.5789,203.5634,84.7176,203.852,85.8609,203.7591,86.9774,203.8669,88.108,203.8886,88.1147,204.4333,86.2214,205.077,84.3585,205.673,82.4809,206.36,80.6313,206.75,78.6906" style="stroke:#FF6F00;stroke-width:2;stroke-linejoin:miter;stroke-miterlimit:10;"/><text fill="#FFFFFF" font-family="'Roboto'" font-size="13" lengthAdjust="spacing" textLength="34.6455" x="192.13" y="122.1075">Store</text></g><!--link Corpus to PLM--><g class="link" data-entity-1="ent0001" data-entity-2="ent0005" data-link-type="dependency" data-source-line="88" id="lnk12"><path d="M230.46,78.7706 L230.5531,78.7783 L230.4617,81.0008 L230.9161,83.2684 L231.1927,85.5213 L230.8849,87.7259 L231.3861,89.9973 L231.3516,89.9954 L231.3384,92.4664 L231.499,94.9474 L231.7804,97.4353 L231.6454,99.8995 L232.0938,102.3969 L232.3397,102.4028 L231.8754,104.971 L232.1292,107.5563 L232.4706,110.1438 L232.3023,112.7191 L232.402,115.3008 L232.4324,115.3014 L232.3334,117.8484 L232.3725,120.3984 L232.3451,122.947 L232.4447,125.4982 L232.13,128.0406 L232.4275,128.062 L232.2197,131.0016 L231.8201,133.9273 L231.7014,136.8732 L231.5958,139.8201 L231.0731,142.737" fill="none" style="stroke:#FF6F00;stroke-width:2;"/><polygon fill="#FF6F00" points="230.56,147.7106,230.6208,147.7455,231.4207,145.9335,232.5769,144.3259,233.6171,142.6518,234.2758,140.7587,235.4625,139.1687,235.4462,139.1486,234.495,139.772,233.6262,140.4968,232.8146,141.2921,231.8057,141.8445,231.0731,142.737,231.2163,142.8534,230.1965,141.7266,229.5947,140.9397,229.0439,140.1942,228.1963,139.2075,227.5048,138.3476,227.5264,138.3547,228.1057,140.2169,228.7834,142.1113,229.4137,143.9902,230.1346,145.8986,230.56,147.7106" style="stroke:#FF6F00;stroke-width:2;stroke-linejoin:miter;stroke-miterlimit:10;"/><text fill="#FFFFFF" font-family="'Roboto'" font-size="13" lengthAdjust="spacing" textLength="54.7739" x="235.13" y="122.1075">Retrieve</text></g><!--reverse link PLM to Human--><g class="link" data-entity-1="ent0005" data-entity-2="ent0006" data-link-type="dependency" data-source-line="89" id="lnk14"><path d="M181.4134,192.4664 L181.5348,192.719 L172.3526,196.2079 L163.8821,201.1774 L155.1798,205.6648 L145.7154,208.5665 L137.2611,213.5698 L128.2382,217.39 L119.4415,221.681 L110.8021,226.2994 L102.02,230.6206" fill="none" style="stroke:#FF6F00;stroke-width:2;"/><polygon fill="#FF6F00" points="185.92,190.3006,185.9221,190.3707,183.947,190.2212,181.9841,190.4823,180.0173,190.6097,178.0373,190.2975,176.0755,190.5938,176.0669,190.5694,177.096,190.8342,178.1684,191.2222,179.2707,191.6959,180.2695,191.8744,181.4134,192.4664,181.5876,192.5275,180.8406,193.4645,180.6022,194.5798,180.4257,195.7168,179.8883,196.7273,179.5408,197.8043,179.5581,197.8191,180.8085,196.2967,182.1378,194.8414,183.4291,193.3537,184.7929,191.9278,185.92,190.3006" style="stroke:#FF6F00;stroke-width:2;stroke-linejoin:miter;stroke-miterlimit:10;"/></g><!--reverse link PLM to GenAI--><g class="link" data-entity-1="ent0005" data-entity-2="ent0007" data-link-type="dependency" data-source-line="90" id="lnk16"><path d="M228.13,195.1006 L228.2234,195.1006 L227.9459,202.2346 L228.2159,209.3686 L228.3076,216.5026 L227.8129,223.6366 L228.13,230.7706" fill="none" style="stroke:#FF6F00;stroke-width:2;"/><polygon fill="#FF6F00" points="228.13,190.1006,228.194,190.1291,227.2038,191.8445,226.5889,193.7268,225.8517,195.5547,224.7127,197.204,224.13,199.1006,224.1117,199.0823,224.8295,198.2001,225.6396,197.4102,226.5139,196.6846,227.167,195.7377,228.13,195.1006,228.2605,195.2311,228.7814,195.7521,229.6834,196.654,230.6318,197.6024,231.3098,198.2804,232.13,199.1006,232.1508,199.1099,231.3203,197.2963,230.5844,195.5248,229.8028,193.733,229.1084,191.9799,228.13,190.1006" style="stroke:#FF6F00;stroke-width:2;stroke-linejoin:miter;stroke-miterlimit:10;"/></g><!--reverse link PLM to System--><g class="link" data-entity-1="ent0005" data-entity-2="ent0008" data-link-type="dependency" data-source-line="91" id="lnk18"><path d="M275.132,192.4552 L275.2527,192.7081 L283.7737,196.1973 L293.0026,201.169 L302.001,205.6579 L310.2412,208.5593 L319.4862,213.5647 L328.1656,217.3857 L337.0701,221.678 L346.1311,226.298 L355.05,230.6206" fill="none" style="stroke:#FF6F00;stroke-width:2;"/><polygon fill="#FF6F00" points="270.62,190.3006,270.6733,190.3461,271.7946,191.7085,273.2281,193.3376,274.56,194.8799,275.5575,196.1364,277.0179,197.7884,276.9934,197.7798,276.5066,196.6744,276.143,195.6125,275.8649,194.5809,275.2919,193.445,275.132,192.4552,275.1935,192.6292,276.1286,191.88,277.2433,191.6387,278.3799,191.4594,279.389,190.9195,280.4652,190.5693,280.4658,190.5921,278.4959,190.5049,276.5287,190.5213,274.5603,190.4878,272.5944,190.5495,270.62,190.3006" style="stroke:#FF6F00;stroke-width:2;stroke-linejoin:miter;stroke-miterlimit:10;"/></g><!--link Human to UseCases--><g class="link" data-entity-1="ent0006" data-entity-2="ent0009" data-link-type="dependency" data-source-line="92" id="lnk19"><path d="M104.84,261.4406 L104.9534,261.6969 L114.1784,265.1651 L124.0681,270.1357 L133.7414,274.6171 L142.7029,277.4896 L152.6077,282.4944 L161.9815,286.2989 L171.5666,290.581 L181.2986,295.1952 L190.8973,299.5081" fill="none" style="stroke:#FF6F00;stroke-width:2;"/><polygon fill="#FF6F00" points="195.47,301.5306,195.5219,301.5777,194.0451,299.9781,192.8726,298.6544,191.6011,297.2408,190.0036,295.532,188.8573,294.2319,188.8331,294.2225,189.1327,295.2359,189.5541,296.2963,190.0601,297.3894,190.2744,298.3697,190.8973,299.5081,190.9639,299.6802,189.7663,299.7201,188.7631,300.2626,187.7836,300.8664,186.6661,301.1135,185.6212,301.5482,185.6212,301.5709,187.5909,301.534,189.5608,301.6007,191.5306,301.6173,193.5006,301.7294,195.47,301.5306" style="stroke:#FF6F00;stroke-width:2;stroke-linejoin:miter;stroke-miterlimit:10;"/></g><!--link GenAI to UseCases--><g class="link" data-entity-1="ent0007" data-entity-2="ent0009" data-link-type="dependency" data-source-line="93" id="lnk20"><path d="M228.13,261.2806 L228.2234,261.2806 L227.9459,268.3646 L228.2159,275.4486 L228.3076,282.5326 L227.8129,289.6166 L228.13,296.7006" fill="none" style="stroke:#FF6F00;stroke-width:2;"/><polygon fill="#FF6F00" points="228.13,301.7006,228.194,301.7291,228.8038,299.8445,229.7889,298.1268,230.6517,296.3547,231.1127,294.404,232.13,292.7006,232.1117,292.6823,231.2295,293.4001,230.4396,294.2102,229.7139,295.0846,228.767,295.7377,228.13,296.7006,228.2605,296.8311,227.1814,295.7521,226.4834,295.054,225.8318,294.4024,224.9098,293.4804,224.13,292.7006,224.1508,292.7099,224.9203,294.4963,225.7844,296.3248,226.6028,298.133,227.5084,299.9799,228.13,301.7006" style="stroke:#FF6F00;stroke-width:2;stroke-linejoin:miter;stroke-miterlimit:10;"/></g><!--link System to UseCases--><g class="link" data-entity-1="ent0008" data-entity-2="ent0009" data-link-type="dependency" data-source-line="94" id="lnk21"><path d="M352.22,261.4406 L352.3328,261.6972 L342.3708,265.1659 L333.0698,270.1385 L323.5536,274.6214 L313.3296,277.4937 L304.0437,282.5007 L294.2297,286.3059 L284.6258,290.5894 L275.168,295.2053 L265.5777,299.5195" fill="none" style="stroke:#FF6F00;stroke-width:2;"/><polygon fill="#FF6F00" points="261,301.5306,261.0003,301.6007,262.9692,301.4009,264.9398,301.6119,266.9098,301.6891,268.878,301.3265,270.8488,301.5727,270.8394,301.5485,269.743,301.0295,268.6939,300.6323,267.6779,300.3196,266.5483,299.7154,265.5777,299.5195,265.7496,299.5864,265.7926,298.389,266.3375,297.3871,266.9438,296.4091,267.1936,295.2922,267.6309,294.2484,267.6477,294.2637,266.2968,295.6976,265.0225,297.2013,263.7113,298.6714,262.4705,300.2056,261,301.5306" style="stroke:#FF6F00;stroke-width:2;stroke-linejoin:miter;stroke-miterlimit:10;"/></g><?plantuml-src hLNRRjiu47tdLqmJOFTbWoPDsuUW2A0uJbeqiGqvwMA10WKjZIt24YcGexZUei1-otvQlwH3IPRfIpRRedgIpXoUEJCKXyzCISfeoAHE5rOHeGQo5OfdAKwLHhYu_dGRlHjywWrlXZ7Kp-7BurSdarSXPTpl3GUNKVnNozj36KMzzz5rlnFQeGpZotuSve73wVJrzFYuermD1tSRX9hYduuInV7mpqtEIaMukTAbjBA0YKpcCsigdVPCRYnNBBNZ46eIudVecQAK2K4kbwOYS4YazCm50YEPfWp1Ym2B6pshqSBh01zdCZKBpvxAt64GURiiqUPAp-zrMhzWq_izZCRdgfGrWOtF7PRmCWIrIT63fnj5N-9KLZd15t5bD0raWN0GcuaXSr0ZJOfrZsjmhFv6E3aLNqEbo5gpO9rcHT3oG6UrCRK8BNDaLxQGkRZBL3BNw1mtRqCroIM3NyJ5rkPi_87YmbZkLHi9Vfas4AhlBIeYicfI4UwF-ifsowhXHutplpANCsmRkwFva_Lif70a2P_ipQyh-0UwF2Pfj_QylxAt0hxwKzN_NEOgKPGl_Odo9LbwZZfjYqly2WTJNlQWd9geND4Ib8PKsZaK_4kpni0Gdi4ebvhkRs-Wa4kUN3PDEFg8u1_W3536vw5cQqEmC7OUda_FtbF55cEdg7qAs_lpkDR_P3QgmMxyX-BJh5hjIkNvKrgx746c13B0yu9C0QcocFYRGsIAUrzWCK7hDcPG-CSTdjQF4CqXF-0nMLOEp9GpsYgXoc8AxxLPv9ZEyAD-utZkd9sSd0yd3ks3z9aSVFldNxZYmToyiKRheVd-87ELDimtp_twymEG3ffKGdX3ODKi8v-sDN06Tnd21sMfalb7tTU4jhJAiONE3LnRMMQTzH4pqDFX1gNLVgxVoYJZuHtOxidIrrJxwd_cwuLl4__ULHiwnj3kwEQsI_MsAgI6QCRNagk3DR2ANgEEteNH6bX5nqj7M8JX1kd4x_b4zAH31x-reOR6U0qBmLRWg2gFpjVT6fEnADhF8xxMD4SzxmnYv3c33oWQryr2NqtZS_tTEbi3xO9MhSlVhjk6LyktyEy0?></g></svg>