<svg xmlns="http://www.w3.org/2000/svg" xmlns:xlink="http://www.w3.org/1999/xlink" contentStyleType="text/css" data-diagram-type="CLASS" height="632px" preserveAspectRatio="none" style="width:589px;height:632px;background:#FFFFFF;" version="1.1" viewBox="0 0 589 632" width="589px" zoomAndPan="magnify"><defs/><g><!--class Concept--><g class="entity" data-entity="Concept" data-source-line="193" data-uid="ent0002" id="entity_Concept"><a href="http://plantuml.com" target="_top" title="Optional tooltip" xlink:actuate="onRequest" xlink:href="http://plantuml.com" xlink:show="new" xlink:title="Optional tooltip" xlink:type="simple"><polygon fill="#ADE8F4" points="71.21,303.19,71.21,303.4002,81.3431,302.7757,91.4761,303.3833,101.6092,303.5897,111.7422,302.4766,121.8753,303.1123,132.0083,302.7635,142.1414,302.8065,152.2745,303.1218,162.4075,302.4986,172.5406,303.7436,182.6736,302.5597,192.8067,302.9922,202.9397,303.6219,213.0728,303.1042,223.2058,303.2582,233.3389,303.19,233.3348,303.1802,233.9274,303.4793,234.5008,303.7323,235.1107,304.0733,235.6872,304.3339,236.1673,304.3616,236.3765,304.4482,236.4801,304.9597,236.7787,305.5521,237.0865,306.1482,236.8825,306.5323,237.3389,307.19,238.0174,307.19,237.0424,316.7034,237.8727,326.2168,236.8439,335.7302,237.2704,345.2436,238.0805,354.757,237.2902,364.2704,237.3389,373.7838,237.3713,373.7972,237.2089,374.3926,236.9985,374.9682,236.6348,375.4803,236.4901,376.0831,236.1673,376.6122,236.0943,376.4359,235.6379,376.9341,235.1059,377.2496,234.527,377.452,233.9828,377.7382,233.3389,377.7838,233.3389,377.3007,223.2058,377.1316,213.0728,377.1623,202.9397,377.7249,192.8067,377.5872,182.6736,378.4652,172.5406,377.6091,162.4075,377.4407,152.2745,378.012,142.1414,377.1169,132.0083,377.2646,121.8753,378.4327,111.7422,378.2194,101.6092,378.5182,91.4761,377.462,81.3431,378.1029,71.21,377.7838,71.2853,377.9656,70.5841,377.404,70.0664,377.2856,69.529,377.1196,69.0304,377.0472,68.3816,376.6122,68.3803,376.6116,68.2897,376.1055,67.7424,375.4102,67.4701,374.8287,67.5994,374.4137,67.21,373.7838,66.4931,373.7838,67.719,364.2704,67.4166,354.757,66.9421,345.2436,66.8562,335.7302,67.6688,326.2168,66.9107,316.7034,67.21,307.19,67.3923,307.2655,67.2741,306.5538,67.8688,306.1374,68.0621,305.5547,68.2227,304.9585,68.3816,304.3616,68.3876,304.3761,69.0399,304.351,69.5912,304.0819,70.1002,303.7108,70.6785,303.5069,71.21,303.19" style="stroke:#181818;stroke-width:0.5;"/><polygon fill="#ADD1B2" points="125.3795,322.7708,123.9137,324.7737,122.1799,327.7073,119.7003,329.6843,117.0946,330.7654,115.017,330.8592,112.3467,329.5071,109.8271,328.6238,107.9147,326.8304,106.9116,324.7773,106.3167,323.1426,105.7339,321.0073,104.7879,319.1698,105.5148,317.3757,106.1517,315.4105,108.5418,313.8561,110.2233,311.8394,112.3046,311.1697,114.7789,310.593,117.9519,310.9357,119.6898,311.7553,121.7104,312.1268,124.1672,314.6439,125.0236,317.3011,125.3957,319.1142,124.9742,322.102" style="stroke:#181818;stroke-width:1;"/><path d="M117.7149,325.0416 Q117.2305,325.2916 116.6993,325.4166 Q116.1836,325.5416 115.6055,325.5416 Q113.543,325.5416 112.4493,324.1822 Q111.3711,322.8228 111.3711,320.2447 Q111.3711,317.6666 112.4493,316.3072 Q113.543,314.9478 115.6055,314.9478 Q116.1836,314.9478 116.7149,315.0728 Q117.2461,315.1978 117.7149,315.4322 L117.7149,317.6822 Q117.1993,317.1978 116.6993,316.9791 Q116.2149,316.7603 115.6993,316.7603 Q114.5899,316.7603 114.0274,317.6353 Q113.4649,318.5103 113.4649,320.2447 Q113.4649,321.9634 114.0274,322.8541 Q114.5899,323.7291 115.6993,323.7291 Q116.2149,323.7291 116.6993,323.5103 Q117.1993,323.2759 117.7149,322.8072 L117.7149,325.0416 Z " fill="#444444"/><text fill="#444444" font-family="'Roboto'" font-size="14" lengthAdjust="spacing" textLength="57.9004" x="138.3243" y="325.1851">Concept</text><path d="M68.21,337.4869 L68.21,337.7671 L78.0999,336.9344 L87.9899,337.7446 L97.8798,338.0198 L107.7697,336.5357 L117.6597,337.3833 L127.5496,336.9182 L137.4395,336.9755 L147.3295,337.396 L157.2194,336.565 L167.1094,338.2251 L176.9993,336.6465 L186.8892,337.2232 L196.7792,338.0628 L206.6691,337.3725 L216.559,337.5779 L226.449,337.4443 L236.3389,337.4869" fill="#ADE8F4" style="stroke:#181818;stroke-width:0.5;"/></a><g data-visibility-modifier="PRIVATE_FIELD"><a href="http://plantuml.com" target="_top" title="Optional tooltip" xlink:actuate="onRequest" xlink:href="http://plantuml.com" xlink:show="new" xlink:title="Optional tooltip" xlink:type="simple"><polygon fill="none" points="75.21,352.1353,75.21,352.2054,76.41,351.9972,77.61,352.1997,78.81,352.2685,80.01,351.8975,81.21,352.1353,81.1841,352.1353,81.0678,353.3353,81.0822,354.5353,81.1873,355.7353,80.9795,356.9353,81.21,358.1353,81.21,358.3199,80.01,357.9252,78.81,358.0694,77.61,358.2793,76.41,358.1067,75.21,358.1353,75.2327,358.1353,75.1994,356.9353,75.2695,355.7353,75.2897,354.5353,75.4052,353.3353,75.21,352.1353" style="stroke:#C82930;stroke-width:1;"/></a></g><a href="http://plantuml.com" target="_top" title="Optional tooltip" xlink:actuate="onRequest" xlink:href="http://plantuml.com" xlink:show="new" xlink:title="Optional tooltip" xlink:type="simple"><text fill="#444444" font-family="'Roboto'" font-size="14" lengthAdjust="spacing" textLength="137.1289" x="90.21" y="358.482">type : ConceptType</text><path d="M68.21,369.7838 L68.21,370.064 L78.0999,369.2313 L87.9899,370.0415 L97.8798,370.3167 L107.7697,368.8326 L117.6597,369.6801 L127.5496,369.2151 L137.4395,369.2724 L147.3295,369.6929 L157.2194,368.8619 L167.1094,370.5219 L176.9993,368.9434 L186.8892,369.5201 L196.7792,370.3597 L206.6691,369.6694 L216.559,369.8747 L226.449,369.7412 L236.3389,369.7838" fill="#ADE8F4" style="stroke:#181818;stroke-width:0.5;"/></a></g><!--class UseCase--><g class="entity" data-entity="UseCase" data-source-line="197" data-uid="ent0003" id="entity_UseCase"><polygon fill="#ADE8F4" points="267.15,7,267.15,7.2102,277.1633,6.5857,287.1765,7.1933,297.1898,7.3997,307.203,6.2866,317.2163,6.9223,327.2296,6.5735,337.2428,6.6165,347.2561,6.9318,357.2693,6.3086,367.2826,7.5536,377.2959,6.3697,387.3091,6.8022,397.3224,7.4319,407.3356,6.9142,417.3489,7.0682,427.3622,6.9681,437.3754,7.1785,447.3887,7.2391,457.402,7,457.4767,7.1804,458.0532,7.441,458.62,7.6778,459.1315,7.7814,459.7238,8.08,460.2304,8.1716,460.4466,8.2612,460.2426,8.6453,460.908,9.3895,460.842,9.8308,461.332,10.5024,461.402,11,460.9069,11,461.3335,21.099,462.1436,31.1979,461.3532,41.2969,461.5073,51.3958,461.7406,61.4948,461.8182,71.5938,461.398,81.6927,461.6892,91.7917,461.402,101.8906,461.2257,101.8176,461.2552,102.4926,461.1021,103.0919,460.8359,103.6444,460.6535,104.2316,460.2304,104.7191,460.1688,104.5703,459.5815,104.7525,459.0197,104.9963,458.5258,105.4039,457.9426,105.5958,457.402,105.8906,457.402,106.572,447.3887,105.7159,437.3754,105.5476,427.3622,106.1189,417.3489,105.2238,407.3356,105.3715,397.3224,106.5396,387.3091,106.3263,377.2959,106.6251,367.2826,105.5688,357.2693,106.2098,347.2561,106.481,337.2428,105.4182,327.2296,105.7948,317.2163,106.0166,307.203,106.5424,297.1898,105.8864,287.1765,106.3532,277.1633,105.3368,267.15,105.8906,267.0636,105.6821,266.6486,105.8114,265.9272,105.2012,265.5179,105.3444,264.9136,105.017,264.3216,104.7191,264.2391,104.6849,263.9783,104.1082,263.9942,103.6462,263.5264,102.9838,263.5666,102.5318,263.15,101.8906,262.5973,101.8906,263.7674,91.7917,263.6343,81.6927,263.395,71.5938,263.1972,61.4948,263.8766,51.3958,263.7636,41.2969,263.3193,31.1979,263.4182,21.099,263.15,11,263.1099,10.9834,263.605,10.5257,263.6663,9.8884,263.9061,9.325,263.8999,8.6597,264.3216,8.1716,264.2699,8.0468,264.955,8.1007,265.5078,7.8353,266.0132,7.4554,266.5432,7.1351,267.15,7" style="stroke:#181818;stroke-width:0.5;"/><polygon fill="#ADD1B2" points="334.1232,26.5808,332.6574,28.5837,330.9236,31.5173,328.444,33.4943,325.8383,34.5754,323.7607,34.6692,321.0904,33.3171,318.5708,32.4338,316.6585,30.6404,315.6553,28.5873,315.0604,26.9526,314.4776,24.8173,313.5316,22.9798,314.2585,21.1857,314.8954,19.2205,317.2855,17.6661,318.967,15.6494,321.0483,14.9797,323.5226,14.403,326.6956,14.7457,328.4335,15.5653,330.4541,15.9368,332.9109,18.4539,333.7673,21.1111,334.1394,22.9242,333.7179,25.912" style="stroke:#181818;stroke-width:1;"/><path d="M326.4586,28.8516 Q325.9742,29.1016 325.443,29.2266 Q324.9273,29.3516 324.3492,29.3516 Q322.2867,29.3516 321.193,27.9922 Q320.1148,26.6328 320.1148,24.0547 Q320.1148,21.4766 321.193,20.1172 Q322.2867,18.7578 324.3492,18.7578 Q324.9273,18.7578 325.4586,18.8828 Q325.9898,19.0078 326.4586,19.2422 L326.4586,21.4922 Q325.943,21.0078 325.443,20.7891 Q324.9586,20.5703 324.443,20.5703 Q323.3336,20.5703 322.7711,21.4453 Q322.2086,22.3203 322.2086,24.0547 Q322.2086,25.7734 322.7711,26.6641 Q323.3336,27.5391 324.443,27.5391 Q324.9586,27.5391 325.443,27.3203 Q325.943,27.0859 326.4586,26.6172 L326.4586,28.8516 Z " fill="#444444"/><text fill="#444444" font-family="'Roboto'" font-size="14" lengthAdjust="spacing" textLength="60.416" x="347.068" y="28.9951">UseCase</text><path d="M264.15,41.2969 L264.15,41.5771 L273.9626,40.7444 L283.7752,41.5546 L293.5878,41.8298 L303.4004,40.3457 L313.213,41.1933 L323.0256,40.7282 L332.8382,40.7855 L342.6508,41.206 L352.4634,40.375 L362.276,42.0351 L372.0886,40.4565 L381.9012,41.0332 L391.7138,41.8728 L401.5264,41.1825 L411.339,41.3879 L421.1516,41.2543 L430.9642,41.5349 L440.7768,41.6157 L450.5894,42.0778 L460.402,41.2969" fill="#ADE8F4" style="stroke:#181818;stroke-width:0.5;"/><g data-visibility-modifier="PRIVATE_FIELD"><polygon fill="none" points="271.15,55.9453,271.15,56.0154,272.35,55.8072,273.55,56.0097,274.75,56.0785,275.95,55.7075,277.15,55.9453,277.1241,55.9453,277.0078,57.1453,277.0222,58.3453,277.1273,59.5453,276.9195,60.7453,277.15,61.9453,277.15,62.1299,275.95,61.7352,274.75,61.8794,273.55,62.0893,272.35,61.9167,271.15,61.9453,271.1727,61.9453,271.1394,60.7453,271.2095,59.5453,271.2297,58.3453,271.3452,57.1453,271.15,55.9453" style="stroke:#C82930;stroke-width:1;"/></g><text fill="#444444" font-family="'Roboto'" font-size="14" lengthAdjust="spacing" textLength="165.252" x="286.15" y="62.292">vocabulary: Vocabulary</text><g data-visibility-modifier="PRIVATE_FIELD"><polygon fill="none" points="271.15,80.2422,271.15,80.3122,272.35,80.1041,273.55,80.3066,274.75,80.3754,275.95,80.0044,277.15,80.2422,277.1241,80.2422,277.0078,81.4422,277.0222,82.6422,277.1273,83.8422,276.9195,85.0422,277.15,86.2422,277.15,86.4267,275.95,86.0321,274.75,86.1763,273.55,86.3862,272.35,86.2136,271.15,86.2422,271.1727,86.2422,271.1394,85.0422,271.2095,83.8422,271.2297,82.6422,271.3452,81.4422,271.15,80.2422" style="stroke:#C82930;stroke-width:1;"/></g><text fill="#444444" font-family="'Roboto'" font-size="14" lengthAdjust="spacing" textLength="103.9746" x="286.15" y="86.5889">stories: Story[]</text><path d="M264.15,97.8906 L264.15,98.1709 L273.9626,97.3382 L283.7752,98.1483 L293.5878,98.4235 L303.4004,96.9394 L313.213,97.787 L323.0256,97.322 L332.8382,97.3793 L342.6508,97.7997 L352.4634,96.9688 L362.276,98.6288 L372.0886,97.0503 L381.9012,97.6269 L391.7138,98.4666 L401.5264,97.7763 L411.339,97.9816 L421.1516,97.848 L430.9642,98.1287 L440.7768,98.2095 L450.5894,98.6715 L460.402,97.8906" fill="#ADE8F4" style="stroke:#181818;stroke-width:0.5;"/></g><!--class Vocabulary--><g class="entity" data-entity="Vocabulary" data-source-line="202" data-uid="ent0005" id="entity_Vocabulary"><polygon fill="#ADE8F4" points="97.94,191.9,97.94,192.1102,107.8208,191.4857,117.7015,192.0933,127.5823,192.2997,137.4631,191.1866,147.3439,191.8223,157.2246,191.4735,167.1054,191.5165,176.9862,191.8318,186.8669,191.2086,196.7477,192.4536,206.6285,191.9,206.5481,191.7059,207.1689,192.0734,207.8149,192.5017,208.3146,192.5765,208.8999,192.8583,209.4569,193.0716,209.4471,193.0675,209.7462,193.66,209.9992,194.2334,210.3402,194.8433,210.6008,195.4199,210.6285,195.9,210.8549,195.9,210.7134,204.3594,210.783,212.8187,210.8626,221.2781,210.3881,229.7375,210.6285,238.1969,210.8374,238.2834,210.3029,238.7247,210.3242,239.3963,209.7731,239.8308,209.6701,240.4509,209.4569,241.0253,209.5515,241.2537,208.885,241.2446,208.339,241.5264,207.803,241.8325,207.2473,242.0907,206.6285,242.1969,206.6285,242.193,196.7477,242.4841,186.8669,241.6245,176.9862,242.4813,167.1054,242.7451,157.2246,242.6414,147.3439,242.8099,137.4631,241.7138,127.5823,241.5447,117.7015,241.5755,107.8208,242.138,97.94,242.1969,97.9149,242.1364,97.4612,242.1724,96.7863,241.6745,96.1992,241.3883,95.7064,241.3299,95.1116,241.0253,94.9062,240.9402,94.7174,240.3934,94.8428,239.9767,94.5428,239.3838,94.4005,238.8563,93.94,238.1969,93.8327,238.1969,94.0464,229.7375,94.1368,221.2781,93.7825,212.8187,93.908,204.3594,93.94,195.9,93.9788,195.9161,94.375,195.4175,94.4073,194.7681,94.7854,194.2619,94.7067,193.5666,95.1116,193.0716,95.0252,192.863,95.7415,192.9924,96.1515,192.3822,96.8736,192.5254,97.4007,192.1979,97.94,191.9" style="stroke:#181818;stroke-width:0.5;"/><polygon fill="#ADD1B2" points="117.9952,211.4808,116.5294,213.4837,114.7956,216.4173,112.316,218.3943,109.7103,219.4754,107.6327,219.5692,104.9624,218.2171,102.4429,217.3338,100.5305,215.5404,99.5273,213.4873,98.9324,211.8526,98.3496,209.7173,97.4036,207.8798,98.1306,206.0857,98.7675,204.1205,101.1575,202.5661,102.8391,200.5494,104.9204,199.8797,107.3947,199.303,110.5676,199.6457,112.3055,200.4653,114.3261,200.8368,116.7829,203.3539,117.6393,206.0111,118.0114,207.8242,117.59,210.812" style="stroke:#181818;stroke-width:1;"/><path d="M110.3306,213.7516 Q109.8463,214.0016 109.315,214.1266 Q108.7994,214.2516 108.2213,214.2516 Q106.1588,214.2516 105.065,212.8922 Q103.9869,211.5328 103.9869,208.9547 Q103.9869,206.3766 105.065,205.0172 Q106.1588,203.6578 108.2213,203.6578 Q108.7994,203.6578 109.3306,203.7828 Q109.8619,203.9078 110.3306,204.1422 L110.3306,206.3922 Q109.815,205.9078 109.315,205.6891 Q108.8306,205.4703 108.315,205.4703 Q107.2056,205.4703 106.6431,206.3453 Q106.0806,207.2203 106.0806,208.9547 Q106.0806,210.6734 106.6431,211.5641 Q107.2056,212.4391 108.315,212.4391 Q108.8306,212.4391 109.315,212.2203 Q109.815,211.9859 110.3306,211.5172 L110.3306,213.7516 Z " fill="#444444"/><text fill="#444444" font-family="'Roboto'" font-size="14" lengthAdjust="spacing" textLength="78.6885" x="124.94" y="213.8951">Vocabulary</text><path d="M94.94,226.1969 L94.94,226.4771 L105.3662,225.6444 L115.7925,226.4546 L126.2187,226.7298 L136.6449,225.2457 L147.0711,226.0933 L157.4974,225.6282 L167.9236,225.6855 L178.3498,226.106 L188.776,225.275 L199.2023,226.9351 L209.6285,226.1969" fill="#ADE8F4" style="stroke:#181818;stroke-width:0.5;"/><path d="M94.94,234.1969 L94.94,234.4771 L105.3662,233.6444 L115.7925,234.4546 L126.2187,234.7298 L136.6449,233.2457 L147.0711,234.0933 L157.4974,233.6282 L167.9236,233.6855 L178.3498,234.106 L188.776,233.275 L199.2023,234.9351 L209.6285,234.1969" fill="#ADE8F4" style="stroke:#181818;stroke-width:0.5;"/></g><!--class Term--><g class="entity" data-entity="Term" data-source-line="203" data-uid="ent0007" id="entity_Term"><polygon fill="#ADE8F4" points="11,463.79,11,464.0002,20.5084,463.3757,30.0167,463.9833,39.5251,464.1897,49.0335,463.0766,58.5419,463.7123,68.0502,463.3635,77.5586,463.79,77.5097,463.6719,78.1156,464.0033,78.6018,464.0457,79.3263,464.6634,79.7409,464.5332,80.387,464.9616,80.3261,464.9363,80.7544,465.5824,80.8292,466.082,81.111,466.6673,81.3144,467.2202,81.5586,467.79,81.6181,467.79,81.6383,476.2494,81.7538,484.7087,81.7823,493.1681,81.785,501.6275,81.5586,510.0869,81.637,510.1194,81.467,510.7117,81.3062,511.3078,80.6336,511.6919,80.8303,512.4362,80.387,512.9153,80.3492,512.824,79.8894,513.314,79.1925,513.2315,78.6812,513.5972,78.2189,514.0809,77.5586,514.0869,77.5586,514.0381,68.0502,514.1922,58.5419,514.4255,49.0335,514.5031,39.5251,514.083,30.0167,514.3741,20.5084,513.5145,11,514.0869,11.0363,514.1745,10.5042,514.0214,9.9253,513.7551,9.3811,513.5727,8.6756,513.0008,8.1716,512.9153,7.9707,512.8321,7.7459,512.2704,7.6848,511.7764,7.4081,511.1932,7.4442,510.7395,7,510.0869,6.9418,510.0869,6.8856,501.6275,7.0761,493.1681,6.7777,484.7087,6.827,476.2494,7,467.79,7.1999,467.8728,7.3685,467.2799,7.6948,466.7523,7.6038,466.0519,8.0356,465.568,8.1716,464.9616,8.2469,465.1434,8.677,464.5818,9.2907,464.4634,9.8847,464.2974,10.5175,464.225,11,463.79" style="stroke:#181818;stroke-width:0.5;"/><polygon fill="#ADD1B2" points="31.0552,483.3708,29.5894,485.3737,27.8556,488.3073,25.376,490.2843,22.7703,491.3654,20.6927,491.4592,18.0224,490.1071,15.5029,489.2238,13.5905,487.4304,12.5873,485.3773,11.9924,483.7426,11.4096,481.6073,10.4636,479.7698,11.1906,477.9757,11.8275,476.0105,14.2175,474.4561,15.8991,472.4394,17.9804,471.7697,20.4547,471.193,23.6276,471.5357,25.3655,472.3553,27.3861,472.7268,29.8429,475.2439,30.6993,477.9011,31.0714,479.7142,30.65,482.702" style="stroke:#181818;stroke-width:1;"/><path d="M23.3906,485.6416 Q22.9063,485.8916 22.375,486.0166 Q21.8594,486.1416 21.2813,486.1416 Q19.2188,486.1416 18.125,484.7822 Q17.0469,483.4228 17.0469,480.8447 Q17.0469,478.2666 18.125,476.9072 Q19.2188,475.5478 21.2813,475.5478 Q21.8594,475.5478 22.3906,475.6728 Q22.9219,475.7978 23.3906,476.0322 L23.3906,478.2822 Q22.875,477.7978 22.375,477.5791 Q21.8906,477.3603 21.375,477.3603 Q20.2656,477.3603 19.7031,478.2353 Q19.1406,479.1103 19.1406,480.8447 Q19.1406,482.5634 19.7031,483.4541 Q20.2656,484.3291 21.375,484.3291 Q21.8906,484.3291 22.375,484.1103 Q22.875,483.8759 23.3906,483.4072 L23.3906,485.6416 Z " fill="#444444"/><text fill="#444444" font-family="'Roboto'" font-size="14" lengthAdjust="spacing" textLength="36.5586" x="38" y="485.7851">Term</text><path d="M8,498.0869 L8,498.3671 L18.3655,497.5344 L28.731,498.3446 L39.0965,498.6198 L49.4621,497.1357 L59.8276,497.9833 L70.1931,497.5182 L80.5586,498.0869" fill="#ADE8F4" style="stroke:#181818;stroke-width:0.5;"/><path d="M8,506.0869 L8,506.3671 L18.3655,505.5344 L28.731,506.3446 L39.0965,506.6198 L49.4621,505.1357 L59.8276,505.9833 L70.1931,505.5182 L80.5586,506.0869" fill="#ADE8F4" style="stroke:#181818;stroke-width:0.5;"/></g><!--class Story--><g class="entity" data-entity="Story" data-source-line="204" data-uid="ent0009" id="entity_Story"><polygon fill="#ADE8F4" points="346.79,575.08,346.79,575.2902,356.3589,574.6657,365.9278,575.2733,375.4968,575.4797,385.0657,574.3666,394.6346,575.0023,404.2035,574.6535,413.7724,575.08,413.7235,574.9619,414.3294,575.2933,414.8156,575.3357,415.5401,575.9534,415.9548,575.8232,416.6008,576.2516,416.5399,576.2263,416.9682,576.8724,417.0431,577.372,417.3248,577.9573,417.5283,578.5102,417.7724,579.08,417.8319,579.08,417.8521,587.5394,417.9677,595.9988,417.9961,604.4581,417.9988,612.9175,417.7724,621.3769,417.8508,621.4094,417.6809,622.0017,417.5201,622.5978,416.8474,622.9819,417.0441,623.7262,416.6008,624.2053,416.563,624.114,416.1033,624.604,415.4063,624.5215,414.8951,624.8872,414.4327,625.3709,413.7724,625.3769,413.7724,625.3281,404.2035,625.4822,394.6346,625.7155,385.0657,625.7931,375.4968,625.373,365.9278,625.6641,356.3589,624.8045,346.79,625.3769,346.8263,625.4645,346.2942,625.3114,345.7153,625.0451,345.1711,624.8627,344.4656,624.2908,343.9616,624.2053,343.7607,624.1221,343.5359,623.5604,343.4748,623.0664,343.1981,622.4832,343.2342,622.0295,342.79,621.3769,342.7318,621.3769,342.6756,612.9175,342.8661,604.4581,342.5677,595.9988,342.617,587.5394,342.79,579.08,342.9899,579.1628,343.1585,578.5699,343.4848,578.0423,343.3938,577.3419,343.8256,576.858,343.9616,576.2516,344.0369,576.4334,344.467,575.8718,345.0807,575.7534,345.6747,575.5874,346.3075,575.515,346.79,575.08" style="stroke:#181818;stroke-width:0.5;"/><polygon fill="#ADD1B2" points="366.8452,594.6608,365.3794,596.6637,363.6456,599.5973,361.166,601.5743,358.5603,602.6554,356.4827,602.7492,353.8124,601.3971,351.2929,600.5138,349.3805,598.7204,348.3773,596.6673,347.7824,595.0326,347.1996,592.8973,346.2536,591.0598,346.9806,589.2657,347.6175,587.3005,350.0075,585.7461,351.6891,583.7294,353.7704,583.0597,356.2447,582.483,359.4176,582.8257,361.1555,583.6453,363.1761,584.0168,365.6329,586.5339,366.4893,589.1911,366.8614,591.0042,366.44,593.992" style="stroke:#181818;stroke-width:1;"/><path d="M359.1806,596.9316 Q358.6963,597.1816 358.165,597.3066 Q357.6494,597.4316 357.0713,597.4316 Q355.0088,597.4316 353.915,596.0722 Q352.8369,594.7128 352.8369,592.1347 Q352.8369,589.5566 353.915,588.1972 Q355.0088,586.8378 357.0713,586.8378 Q357.6494,586.8378 358.1806,586.9628 Q358.7119,587.0878 359.1806,587.3222 L359.1806,589.5722 Q358.665,589.0878 358.165,588.8691 Q357.6806,588.6503 357.165,588.6503 Q356.0556,588.6503 355.4931,589.5253 Q354.9306,590.4003 354.9306,592.1347 Q354.9306,593.8534 355.4931,594.7441 Q356.0556,595.6191 357.165,595.6191 Q357.6806,595.6191 358.165,595.4003 Q358.665,595.1659 359.1806,594.6972 L359.1806,596.9316 Z " fill="#444444"/><text fill="#444444" font-family="'Roboto'" font-size="14" lengthAdjust="spacing" textLength="36.9824" x="373.79" y="597.0751">Story</text><path d="M343.79,609.3769 L343.79,609.6571 L354.2161,608.8244 L364.6421,609.6346 L375.0682,609.9098 L385.4942,608.4257 L395.9203,609.2733 L406.3464,608.8082 L416.7724,609.3769" fill="#ADE8F4" style="stroke:#181818;stroke-width:0.5;"/><path d="M343.79,617.3769 L343.79,617.6571 L354.2161,616.8244 L364.6421,617.6346 L375.0682,617.9098 L385.4942,616.4257 L395.9203,617.2733 L406.3464,616.8082 L416.7724,617.3769" fill="#ADE8F4" style="stroke:#181818;stroke-width:0.5;"/></g><!--class OntologyAxiom--><g class="entity" data-entity="OntologyAxiom" data-source-line="207" data-uid="ent0013" id="entity_OntologyAxiom"><polygon fill="#ADE8F4" points="376.51,315.34,376.51,315.5502,386.3335,314.9257,396.157,315.5333,405.9806,315.7397,415.8041,314.6266,425.6276,315.2623,435.4511,314.9135,445.2746,314.9565,455.0982,315.2718,464.9217,314.6486,474.7452,315.8936,484.5687,314.7097,494.3923,315.1422,504.2158,315.7719,514.0393,315.34,514.0284,315.3136,514.6137,315.5953,515.1666,315.7988,515.7591,316.0979,516.3325,316.3509,516.8677,316.5116,517.0481,316.5863,517.3087,317.1629,517.5455,317.7296,517.6491,318.2411,517.9477,318.8335,518.0393,319.34,518.2734,319.34,517.7989,327.7994,518.2655,336.2587,517.9405,344.7181,518.2172,353.1775,518.0393,361.6369,517.8868,361.5737,517.7839,362.1938,517.7991,362.8628,517.3213,363.3277,517.1345,363.913,516.8677,364.4653,516.9109,364.5696,516.3551,364.8278,515.7359,364.9327,515.2073,365.2567,514.532,365.2263,514.0393,365.6369,514.0393,365.9213,504.2158,366.1851,494.3923,366.0814,484.5687,366.2499,474.7452,365.1538,464.9217,364.9847,455.0982,365.0155,445.2746,365.578,435.4511,365.4403,425.6276,366.3183,415.8041,365.4622,405.9806,365.2938,396.157,365.8651,386.3335,364.97,376.51,365.6369,376.4438,365.477,376.0271,365.6024,375.4342,365.3024,374.9066,365.1601,374.2062,364.6005,373.6816,364.4653,373.7799,364.506,373.6291,363.9749,373.0675,363.2737,372.9491,362.756,372.7831,362.2186,372.51,361.6369,372.7273,361.6369,372.5086,353.1775,372.6642,344.7181,372.3254,336.2587,372.2842,327.7994,372.51,319.34,372.6651,319.4042,372.5235,318.6829,373.1354,318.2736,373.2766,317.6693,373.3648,317.0431,373.6816,316.5116,373.6364,316.4026,374.3058,316.4185,374.7748,315.9508,375.4541,315.9909,375.8738,315.4041,376.51,315.34" style="stroke:#181818;stroke-width:0.5;"/><polygon fill="#ADD1B2" points="396.5652,334.9208,395.0994,336.9237,393.3656,339.8573,390.886,341.8343,388.2803,342.9154,386.2027,343.0092,383.5324,341.6571,381.0129,340.7738,379.1005,338.9804,378.0973,336.9273,377.5024,335.2926,376.9196,333.1573,375.9736,331.3198,376.7006,329.5257,377.3375,327.5605,379.7275,326.0061,381.4091,323.9894,383.4904,323.3197,385.9647,322.743,389.1376,323.0857,390.8755,323.9053,392.8961,324.2768,395.3529,326.7939,396.2093,329.4511,396.5814,331.2642,396.16,334.252" style="stroke:#181818;stroke-width:1;"/><path d="M388.9006,337.1916 Q388.4163,337.4416 387.885,337.5666 Q387.3694,337.6916 386.7913,337.6916 Q384.7288,337.6916 383.635,336.3322 Q382.5569,334.9728 382.5569,332.3947 Q382.5569,329.8166 383.635,328.4572 Q384.7288,327.0978 386.7913,327.0978 Q387.3694,327.0978 387.9006,327.2228 Q388.4319,327.3478 388.9006,327.5822 L388.9006,329.8322 Q388.385,329.3478 387.885,329.1291 Q387.4006,328.9103 386.885,328.9103 Q385.7756,328.9103 385.2131,329.7853 Q384.6506,330.6603 384.6506,332.3947 Q384.6506,334.1134 385.2131,335.0041 Q385.7756,335.8791 386.885,335.8791 Q387.4006,335.8791 387.885,335.6603 Q388.385,335.4259 388.9006,334.9572 L388.9006,337.1916 Z " fill="#444444"/><text fill="#444444" font-family="'Roboto'" font-size="14" lengthAdjust="spacing" textLength="107.5293" x="403.51" y="337.3351">OntologyAxiom</text><path d="M373.51,349.6369 L373.51,349.9171 L383.7621,349.0844 L394.0142,349.8946 L404.2663,350.1698 L414.5184,348.6857 L424.7705,349.5333 L435.0226,349.0682 L445.2746,349.1255 L455.5267,349.546 L465.7788,348.715 L476.0309,350.3751 L486.283,348.7965 L496.5351,349.3732 L506.7872,350.2128 L517.0393,349.6369" fill="#ADE8F4" style="stroke:#181818;stroke-width:0.5;"/><path d="M373.51,357.6369 L373.51,357.9171 L383.7621,357.0844 L394.0142,357.8946 L404.2663,358.1698 L414.5184,356.6857 L424.7705,357.5333 L435.0226,357.0682 L445.2746,357.1255 L455.5267,357.546 L465.7788,356.715 L476.0309,358.3751 L486.283,356.7965 L496.5351,357.3732 L506.7872,358.2128 L517.0393,357.6369" fill="#ADE8F4" style="stroke:#181818;stroke-width:0.5;"/></g><!--class Persona--><g class="entity" data-entity="Persona" data-source-line="210" data-uid="ent0017" id="entity_Persona"><polygon fill="#ADE8F4" points="173.22,575.08,173.22,575.2902,182.7892,574.6657,192.3585,575.2733,201.9277,575.4797,211.4969,574.3666,221.0661,575.0023,230.6354,574.6535,240.2046,574.6965,249.7738,575.0118,259.343,575.08,259.2549,574.8671,259.9794,575.4848,260.394,575.3545,261.0149,575.722,261.6609,576.1503,262.1715,576.2516,262.1451,576.2406,262.4268,576.826,262.6303,577.3789,262.9294,577.9714,263.1824,578.5448,263.343,579.08,263.5383,579.08,263.5667,587.5394,263.5695,595.9988,263.4279,604.4581,263.4976,612.9175,263.343,621.3769,263.5593,621.4665,262.8866,621.8506,263.0834,622.5948,262.5488,623.0361,262.5702,623.7077,262.1715,624.2053,262.1083,624.0529,261.5971,624.4185,261.1347,624.9023,260.4682,624.8932,259.9222,625.175,259.343,625.3769,259.343,625.7155,249.7738,625.7931,240.2046,625.373,230.6354,625.6641,221.0661,624.8045,211.4969,625.6613,201.9277,625.9251,192.3585,625.8214,182.7892,625.9899,173.22,625.3769,173.1584,625.2281,172.5711,624.9417,172.0094,624.7169,171.5154,624.6558,170.9322,624.3791,170.3916,624.2053,170.6014,624.2922,170.1035,623.6173,169.8173,623.0302,169.7589,622.5374,169.249,621.8575,169.22,621.3769,169.047,621.3769,169.4363,612.9175,169.3652,604.4581,169.4648,595.9988,169.1127,587.5394,169.22,579.08,169.3183,579.1207,169.6361,578.5896,169.5431,577.8884,169.8934,577.3707,170.1961,576.8333,170.3916,576.2516,170.4747,576.4523,170.9567,576.016,171.5819,575.9254,172.018,575.3781,172.5679,575.1057,173.22,575.08" style="stroke:#181818;stroke-width:0.5;"/><polygon fill="#ADD1B2" points="193.2752,594.6608,191.8094,596.6637,190.0756,599.5973,187.596,601.5743,184.9903,602.6554,182.9127,602.7492,180.2424,601.3971,177.7229,600.5138,175.8105,598.7204,174.8073,596.6673,174.2124,595.0326,173.6296,592.8973,172.6836,591.0598,173.4106,589.2657,174.0475,587.3005,176.4375,585.7461,178.1191,583.7294,180.2004,583.0597,182.6747,582.483,185.8476,582.8257,187.5855,583.6453,189.6061,584.0168,192.0629,586.5339,192.9193,589.1911,193.2914,591.0042,192.87,593.992" style="stroke:#181818;stroke-width:1;"/><path d="M185.6106,596.9316 Q185.1263,597.1816 184.595,597.3066 Q184.0794,597.4316 183.5013,597.4316 Q181.4388,597.4316 180.345,596.0722 Q179.2669,594.7128 179.2669,592.1347 Q179.2669,589.5566 180.345,588.1972 Q181.4388,586.8378 183.5013,586.8378 Q184.0794,586.8378 184.6106,586.9628 Q185.1419,587.0878 185.6106,587.3222 L185.6106,589.5722 Q185.095,589.0878 184.595,588.8691 Q184.1106,588.6503 183.595,588.6503 Q182.4856,588.6503 181.9231,589.5253 Q181.3606,590.4003 181.3606,592.1347 Q181.3606,593.8534 181.9231,594.7441 Q182.4856,595.6191 183.595,595.6191 Q184.1106,595.6191 184.595,595.4003 Q185.095,595.1659 185.6106,594.6972 L185.6106,596.9316 Z " fill="#444444"/><text fill="#444444" font-family="'Roboto'" font-size="14" lengthAdjust="spacing" textLength="56.123" x="200.22" y="597.0751">Persona</text><path d="M170.22,609.3769 L170.22,609.6571 L180.4559,608.8244 L190.6918,609.6346 L200.9277,609.9098 L211.1636,608.4257 L221.3995,609.2733 L231.6354,608.8082 L241.8713,608.8655 L252.1072,609.286 L262.343,609.3769" fill="#ADE8F4" style="stroke:#181818;stroke-width:0.5;"/><path d="M170.22,617.3769 L170.22,617.6571 L180.4559,616.8244 L190.6918,617.6346 L200.9277,617.9098 L211.1636,616.4257 L221.3995,617.2733 L231.6354,616.8082 L241.8713,616.8655 L252.1072,617.286 L262.343,617.3769" fill="#ADE8F4" style="stroke:#181818;stroke-width:0.5;"/></g><!--link UseCase to UseCase--><g class="link" data-entity-1="UseCase" data-entity-2="UseCase" data-source-line="201" data-uid="lnk4" id="link_UseCase_UseCase"><path d="M461.72,39.78 L461.7337,39.8724 L464.4824,40.0099 L467.3111,40.6892 L470.1138,41.192 L472.8308,41.1147 L475.6664,41.8405 L475.656,41.8075 L477.8048,42.3529 L480.006,43.0642 L482.2437,43.8911 L484.3558,44.3201 L486.6438,45.3063 L486.8288,45.4684 L488.3863,47.3504 L490.4841,49.7058 L492.6479,52.119 L494.4281,54.1961 L496.41,56.45 L496.4357,56.466 L495.0423,58.6177 L493.7661,60.8424 L492.4333,63.0319 L491.2083,65.2886 L489.6318,67.3261 L489.7347,67.6061 L487.9514,68.2658 L486.1016,68.7451 L484.3491,69.4886 L482.6011,70.2445 L480.7087,70.6079 L480.6606,70.2911 L478.1515,71.3015 L475.4839,71.2684 L472.9368,72.0286 L470.2656,71.9719 L467.6961,72.5848" fill="none" style="stroke:#023E8A;stroke-width:1;"/><polygon fill="#023E8A" points="461.72,73.12,461.7426,73.1863,463.5396,73.6255,465.4692,74.4535,467.3556,75.1548,469.0999,75.4399,471.0409,76.3012,471.0243,76.2814,470.0816,75.4667,469.2226,74.7522,468.4218,74.1075,467.4205,73.2226,466.7001,72.674,466.8417,72.7923,467.2643,71.6711,468.1004,70.8954,468.9869,70.1618,469.5799,69.183,470.3273,68.3331,470.3384,68.353,468.6007,69.2812,466.9133,70.2999,465.2017,71.2749,463.5364,72.3332,461.72,73.12" style="stroke:#023E8A;stroke-width:1;"/><text fill="#444444" font-family="'Roboto'" font-size="14" font-weight="bold" lengthAdjust="spacing" textLength="65.9189" x="506.41" y="61.4451">requires</text></g><!--link Vocabulary to Concept--><g class="link" data-entity-1="Vocabulary" data-entity-2="Concept" data-source-line="202" data-uid="lnk6" id="link_Vocabulary_Concept"><path d="M141.8,242.62 L141.8928,242.6311 L141.3051,245.2104 L141.2612,247.8547 L141.0402,250.4779 L140.237,253.0314 L140.2398,255.6813 L140.2053,255.679 L139.8738,258.329 L139.7161,260.9905 L139.6791,263.6601 L139.226,266.302 L139.3558,268.9827 L139.6018,268.9847 L139.0526,271.7223 L139.2218,274.466 L139.4786,277.2103 L139.2255,279.9504 L139.2405,282.6928 L139.2708,282.6944 L139.3755,285.5495 L139.6182,288.4119 L139.7943,291.2708 L140.0973,294.1364 L139.9865,296.9803" fill="none" style="stroke:#023E8A;stroke-width:1;"/><polygon fill="#023E8A" points="140.48,302.96,140.5461,302.9831,140.9989,301.0548,141.8393,299.2618,142.5535,297.4248,142.8525,295.4428,143.7263,293.6615,143.7065,293.6448,142.8863,294.4327,142.1658,295.305,141.5144,296.2361,140.6245,296.9649,140.0688,297.9769,140.1881,298.1177,139.0699,297.0852,138.3,296.4637,137.5726,295.8923,136.598,295.0291,135.7534,294.3195,135.7733,294.3304,136.6894,296.0425,137.6962,297.8042,138.6593,299.542,139.706,301.3256,140.48,302.96" style="stroke:#023E8A;stroke-width:1;"/><text fill="#444444" font-family="'Roboto'" font-size="14" font-weight="bold" lengthAdjust="spacing" textLength="7.3213" x="127.1239" y="267.3949">*</text><text fill="#444444" font-family="'Roboto'" font-size="14" font-weight="bold" lengthAdjust="spacing" textLength="7.3213" x="126.311" y="287.7768">*</text></g><!--link Vocabulary to Concept--><g class="link" data-entity-1="Vocabulary" data-entity-2="Concept" data-source-line="208" data-uid="lnk15" id="link_Vocabulary_Concept"><path d="M164.2803,248.5521 L164.373,248.5636 L164.3991,250.9563 L164.9687,253.4166 L165.3614,255.8549 L165.1721,258.2208 L165.7883,260.6869 L165.7538,260.6849 L165.7242,262.9289 L165.8685,265.1826 L166.1337,267.443 L165.9823,269.6802 L166.4143,271.9499 L166.6603,271.9538 L166.097,274.2798 L166.2521,276.6172 L166.4947,278.956 L166.2275,281.2867 L166.2284,283.6216 L166.2587,283.6237 L166.0287,286.2928 L165.9365,288.9715 L165.7779,291.6456 L165.746,294.3285 L165.3008,296.9826" fill="none" style="stroke:#023E8A;stroke-width:1;"/><polygon fill="#023E8A" points="163.38,242.62,163.4476,242.6385,162.7259,244.4831,162.4004,246.4364,161.9459,248.3542,161.0672,250.1557,160.7757,252.1183,160.7548,252.1029,161.3321,251.123,162.0145,250.2205,162.7701,249.3719,163.2737,248.3377,164.1302,247.5634,164.2396,247.712,164.9166,248.0651,165.9131,248.8521,166.9485,249.6921,167.7572,250.224,168.6851,250.9179,168.7043,250.9302,167.6151,249.2526,166.6132,247.6308,165.5692,245.9821,164.6055,244.3848,163.38,242.62" style="stroke:#023E8A;stroke-width:1;"/><polygon fill="#023E8A" points="164.78,302.96,164.8413,302.9939,165.6124,301.1694,166.7428,299.5437,167.7563,297.8532,168.3848,295.9499,169.5462,294.3412,169.5295,294.3214,168.5883,294.9599,167.7311,295.6984,166.9323,296.5064,165.9323,297.0749,165.214,297.9789,165.3554,298.0975,164.3256,296.9773,163.7085,296.2036,163.1417,295.4722,162.282,294.4948,161.5764,293.6467,161.5979,293.6541,162.207,295.5059,162.9141,297.3914,163.5739,299.2606,164.3239,301.1609,164.78,302.96" style="stroke:#023E8A;stroke-width:1;"/></g><!--link Vocabulary to Term--><g class="link" data-entity-1="Vocabulary" data-entity-2="Term" data-source-line="203" data-uid="lnk8" id="link_Vocabulary_Term"><path d="M111.36,242.66 L111.4144,242.7359 L109.6113,243.6868 L108.1272,245.0828 L106.5392,246.3339 L104.6096,247.1083 L103.1529,248.5426 L103.1319,248.5151 L101.3605,249.6755 L99.6948,250.9741 L98.1027,252.3689 L96.2571,253.4324 L94.7666,254.9598 L94.923,255.1498 L92.9061,256.1286 L91.3458,257.6621 L89.8413,259.2632 L88.0126,260.4706 L86.3544,261.885 L86.3746,261.9076 L84.6881,263.3557 L83.0935,264.9067 L81.4546,266.408 L79.9004,268.0041 L78.07,269.2913 L78.279,269.504 L76.6809,271.0787 L74.948,272.5162 L73.4125,274.1545 L71.8862,275.8023 L70.0668,277.1517 L69.8301,276.9356 L68.7758,279.0126 L66.9422,280.378 L65.701,282.2844 L63.8497,283.6336 L62.4984,285.4395 L62.4747,285.4205 L61.3594,287.3836 L59.6895,288.9013 L58.3469,290.6819 L57.0317,292.4845 L55.5183,294.1279 L55.6707,294.2328 L54.2692,295.9393 L53.1281,297.8251 L51.5658,299.4209 L50.6318,301.4493 L49.28,303.19 L49.4873,303.318 L48.3266,305.1102 L47.2688,306.966 L45.7327,308.5265 L44.5473,310.3035 L43.6724,312.2722 L43.4343,312.1323 L42.6481,313.9639 L41.5936,315.6379 L40.9282,317.5406 L39.5984,319.0528 L38.6636,320.7971 L38.5286,320.7262 L37.0976,323.9945 L35.0896,326.9595 L33.4918,330.1402 L32.2955,333.5319 L30.3844,336.5478 L30.5633,336.6219 L29.4744,339.6005 L27.8289,342.3488 L26.8805,345.3856 L25.7802,348.3596 L24.3261,351.1871 L24.1238,351.131 L23.4943,354.0303 L22.7986,356.9112 L22.2331,359.8282 L21.1614,362.6049 L20.3725,365.46 L20.5763,365.4873 L19.7355,368.3576 L19.2881,371.2807 L19.4152,374.2808 L18.4846,377.139 L18.4073,380.1117 L18.6335,380.113 L18.4806,383.2673 L18.2511,386.4212 L18.1943,389.5761 L18.5369,392.7333 L18.3144,395.8872 L18.1819,395.8747 L18.9089,399.4408 L18.735,402.9219 L19.5854,406.4996 L19.859,410.0229 L19.9773,413.5316 L20.085,413.5476 L20.2888,415.4859 L20.8782,417.4815 L21.1192,419.4253 L21.2147,421.3474 L21.431,423.2875 L21.5484,423.3082 L21.7438,425.3779 L22.4842,427.5437 L22.6082,429.6009 L22.9857,431.7028 L23.28,433.79 L23.0163,433.7305 L23.6635,436.2287 L24.6285,438.7986 L25.1439,441.2671 L25.4981,443.6992 L26.0759,446.1817 L25.9412,446.1333 L26.8255,448.4892 L27.4713,450.7593 L28.7729,453.2651 L29.75,455.6543 L30.2818,457.8834" fill="none" style="stroke:#023E8A;stroke-width:1;"/><polygon fill="#023E8A" points="32.57,463.43,32.64,463.4319,32.485,461.4572,32.7406,459.4936,32.8624,457.5264,32.5446,455.5474,32.8354,453.5847,32.8115,453.5748,32.2697,454.5748,31.8485,455.6249,31.5111,456.7099,30.8848,457.6747,30.6632,458.8079,30.734,458.9783,29.5379,458.1794,28.5486,457.8781,27.5846,457.6375,26.4737,457.0437,25.44,456.6356,25.4557,456.6521,26.8587,457.9868,28.3331,459.3965,29.773,460.77,31.2787,462.2125,32.57,463.43" style="stroke:#023E8A;stroke-width:1;"/><text fill="#444444" font-family="'Roboto'" font-size="14" font-weight="bold" lengthAdjust="spacing" textLength="7.3213" x="90.8581" y="267.0891">*</text><text fill="#444444" font-family="'Roboto'" font-size="14" font-weight="bold" lengthAdjust="spacing" textLength="7.3213" x="17.6412" y="448.7196">*</text></g><!--link Story to Concept--><g class="link" data-entity-1="Story" data-entity-2="Concept" data-source-line="204" data-uid="lnk10" id="link_Story_Concept"><path d="M358.57,574.69 L358.7799,574.8757 L351.6218,566.9372 L345.6942,560.0872 L339.3659,552.8828 L331.7199,544.5127 L325.8203,537.6875 L318.9376,529.9926 L312.4461,522.6438 L306.2267,515.5357 L299.0699,507.5983 L293.7788,501.3114 L286.0621,492.8788 L279.9596,485.8741 L274.054,479.0436 L267.0026,471.1995 L260.622,463.9488 L253.9875,456.4735 L247.6633,449.2727 L241.1894,441.9395 L235.0011,434.8588 L228.552,427.5475 L222.0258,420.168 L215.0673,412.4061 L208.7415,405.2039 L202.4455,398.028 L194.4895,389.3837 L188.6754,382.6341" fill="none" style="stroke:#023E8A;stroke-width:1;"/><polygon fill="#023E8A" points="184.7,378.14,184.7668,378.1611,185.1617,379.9767,185.9482,381.9159,186.6072,383.8149,186.8468,385.5814,187.667,387.5313,187.6411,387.5297,187.5943,386.3934,187.6777,385.265,187.8518,384.1422,187.7136,383.0002,188.0128,381.885,188.0241,382.0693,189.1292,381.7445,190.2673,381.9576,191.4094,382.2362,192.5281,382.1332,193.6591,382.2309,193.6685,382.2515,191.8628,381.403,190.1002,380.6486,188.3167,379.8489,186.5729,379.1358,184.7,378.14" style="stroke:#023E8A;stroke-width:1;"/><text fill="#444444" font-family="'Roboto'" font-size="14" font-weight="bold" lengthAdjust="spacing" textLength="41.4463" x="309.28" y="493.9251">input</text><text fill="#444444" font-family="'Roboto'" font-size="14" font-weight="bold" lengthAdjust="spacing" textLength="7.3213" x="177.5413" y="402.761">*</text></g><!--link Story to Concept--><g class="link" data-entity-1="Story" data-entity-2="Concept" data-source-line="205" data-uid="lnk11" id="link_Story_Concept"><path d="M383.37,574.76 L383.4632,574.7658 L383.3311,572.4061 L383.7455,570.0803 L383.982,567.7434 L383.6331,565.3703 L384.0945,563.0474 L384.0599,563.0467 L383.9555,560.4157 L384.0251,557.7881 L384.2157,555.1628 L383.9893,552.5295 L384.347,549.9073 L384.593,549.9151 L383.9779,547.0661 L384.0809,544.2397 L384.2715,541.4161 L383.9524,538.5764 L383.9014,535.7452 L383.9316,535.748 L383.6132,532.7881 L383.4323,529.8409 L383.1851,526.8876 L383.0645,523.9461 L382.5313,520.9663 L382.8254,521.0157 L382.3248,518.0182 L381.6345,514.9889 L381.2219,512.0062 L380.8223,509.0257 L380.0103,505.9759 L379.7004,505.8943 L379.5223,503.0935 L378.3237,500.0238 L377.901,497.1585 L376.6792,494.0828 L376.1123,491.1795 L376.084,491.1685 L375.3194,488.4592 L373.8916,485.4929 L372.8552,482.6782 L371.8516,479.8762 L370.611,476.9824 L370.7727,477.0723 L369.1433,474.3431 L367.7902,471.7675 L365.99,468.9434 L364.8567,466.4899 L363.28,463.79 L363.4758,463.935 L361.0851,460.7298 L358.7917,457.5965 L356.0466,454.1287 L353.6325,450.9062 L351.5118,447.9008 L351.3074,447.7152 L348.8707,444.9959 L346.2037,442.0675 L343.8709,439.4424 L340.9675,436.2993 L338.4032,433.4642 L338.3001,433.3519 L335.6235,430.9235 L332.5062,428.0151 L329.7023,425.4481 L327.2051,423.2151 L324.1617,420.3873 L324.2807,420.5401 L321.3289,418.283 L318.0072,415.5507 L315.1489,413.4135 L312.1896,411.1468 L308.995,408.5778 L308.8782,408.4033 L305.7944,406.4154 L302.6724,404.3704 L299.6255,402.4376 L296.2865,400.0684 L293.1106,397.9429 L293.2141,398.1206 L289.7078,395.8197 L286.4013,393.8618 L283.3866,392.4047 L279.8347,390.0254 L276.7162,388.3902 L276.8194,388.5915 L273.4187,386.7593 L269.9831,384.8589 L266.6263,383.1123 L263.4517,381.721 L260.0193,379.8269 L259.964,379.7059 L256.7702,378.533 L253.2005,376.5369 L250.0582,375.4768 L246.6753,373.8897 L243.2275,372.1606" fill="none" style="stroke:#023E8A;stroke-width:1;"/><polygon fill="#023E8A" points="237.72,369.78,237.7715,369.8275,238.9533,371.1349,240.4371,372.7207,241.8225,374.2158,242.8845,375.4129,244.3942,377.0226,244.3701,377.013,243.8451,375.9184,243.4415,374.872,243.1223,373.859,242.5123,372.7307,242.3096,371.7638,242.3776,371.9354,243.2839,371.1516,244.3888,370.8687,245.5179,370.6469,246.5061,370.0696,247.5683,369.6792,247.5686,369.702,245.5986,369.6887,243.6296,369.779,241.6602,369.8194,239.6917,369.9551,237.72,369.78" style="stroke:#023E8A;stroke-width:1;"/><text fill="#444444" font-family="'Roboto'" font-size="14" font-weight="bold" lengthAdjust="spacing" textLength="52.958" x="386.28" y="493.9251">output</text><text fill="#444444" font-family="'Roboto'" font-size="14" font-weight="bold" lengthAdjust="spacing" textLength="7.3213" x="249.4304" y="364.2195">*</text></g><!--link Term to Concept--><g class="link" data-entity-1="Term" data-entity-2="Concept" data-source-line="206" data-uid="lnk12" id="link_Term_Concept"><path d="M81.74,472.45 L81.7859,472.5313 L84.2767,470.8056 L87.0368,469.5567 L89.7091,468.1526 L92.0931,466.2378 L94.8763,465.0298 L94.8568,465.0013 L97.3771,463.0921 L99.9956,461.3267 L102.6824,459.6612 L105.1339,457.6512 L107.915,456.1238 L108.0756,456.3102 L110.1495,453.8299 L112.6921,451.894 L115.292,450.0244 L117.5591,447.7685 L120.0013,445.7158 L120.0242,445.7356 L122.0462,443.3214 L124.1729,440.9973 L126.249,438.6297 L128.4214,436.3451 L130.28,433.79 L130.5336,433.9469 L132.0328,431.5312 L133.3683,429.0142 L134.9433,426.6454 L136.5296,424.2835 L137.7602,421.7016 L137.4668,421.5726 L139.105,419.3925 L139.7771,416.7875 L141.1837,414.5056 L141.8338,411.891 L143.104,409.5491 L143.0748,409.5405 L144.1527,407.1376 L144.548,404.535 L145.346,402.0502 L146.178,399.5753 L146.7659,397.029 L146.9478,397.0626 L147.2511,394.3905 L147.8653,391.7758 L147.9765,389.0683 L148.8379,386.4992 L149.2005,383.8381" fill="none" style="stroke:#023E8A;stroke-width:1;"/><polygon fill="#023E8A" points="150.06,377.9,150.1193,377.9373,148.8935,379.4932,148.0153,381.268,147.0239,382.9715,145.6604,384.4406,144.812,386.2342,144.7965,386.2134,145.6333,385.4431,146.5482,384.7775,147.5174,384.1845,148.2995,383.341,149.3437,382.8484,149.4916,382.9589,149.8526,383.629,150.6452,384.6217,151.4905,385.6537,152.0294,386.4567,152.7295,387.3802,152.7514,387.3863,152.1853,385.4813,151.719,383.6042,151.2045,381.7137,150.7818,379.849,150.06,377.9" style="stroke:#023E8A;stroke-width:1;"/><text fill="#444444" font-family="'Roboto'" font-size="14" font-weight="bold" lengthAdjust="spacing" textLength="27.6992" x="115.9737" y="402.794">1..*</text></g><!--link Concept to Term--><g class="link" data-entity-1="Concept" data-entity-2="Term" data-source-line="212" data-uid="lnk21" id="link_Concept_Term"><path d="M66.85,376.49 L66.9075,376.5636 L65.0177,377.6884 L63.4652,379.2446 L61.8028,380.6604 L59.7792,381.6141 L58.2556,383.2073 L58.232,383.1822 L56.5413,384.5564 L54.9697,386.0576 L53.481,387.6471 L51.7068,388.9324 L50.3325,390.6437 L50.5189,390.8044 L48.709,392.0977 L47.4432,393.8602 L46.2438,395.6798 L44.6581,397.1665 L43.2756,398.8283 L43.3008,398.8451 L42.0647,400.6127 L40.9433,402.4571 L39.7666,404.2644 L38.6955,406.1424 L37.28,407.79 L37.5544,407.9068 L36.4896,410.4169 L35.2478,412.8515 L34.265,415.3965 L33.2944,417.9466 L31.9391,420.3329 L31.6224,420.2838 L31.8507,422.8716 L31.0362,425.2977 L31.0145,427.8468 L30.1763,430.2692 L30.0074,432.7954 L29.977,432.7935 L30.4896,435.3066 L30.2923,437.7761 L30.5139,440.2713 L30.7707,442.7686 L30.7737,445.2504 L30.9544,445.2901 L31.3227,447.7541 L31.9998,450.286 L32.1773,452.708 L33.1,455.2939 L33.5272,457.7708" fill="none" style="stroke:#023E8A;stroke-width:1;"/><polygon fill="#023E8A" points="35.14,463.55,35.2093,463.5602,35.2901,461.5811,35.7772,459.6618,36.132,457.723,36.0516,455.7202,36.5736,453.806,36.551,453.7933,35.8942,454.7218,35.3512,455.7145,34.8872,456.7517,34.1508,457.6353,33.796,458.734,33.8866,458.8948,32.7073,457.9955,31.7924,457.5656,30.9099,457.1929,29.8396,456.487,28.868,455.9564,28.8856,455.9709,30.1142,457.4684,31.4227,459.0318,32.6927,460.5633,34.0361,462.1556,35.14,463.55" style="stroke:#023E8A;stroke-width:1;"/><text fill="#444444" font-family="'Roboto'" font-size="14" font-weight="bold" lengthAdjust="spacing" textLength="75.332" x="42.28" y="425.7851">preferred</text></g><!--link Concept to OntologyAxiom--><g class="link" data-entity-1="Concept" data-entity-2="OntologyAxiom" data-source-line="207" data-uid="lnk14" id="link_Concept_OntologyAxiom"><path d="M237.83,340.49 L237.83,340.7702 L247.7162,339.9376 L257.6023,340.7477 L267.4885,341.0229 L277.3746,339.5388 L287.2608,340.3864 L297.1469,339.9213 L307.0331,339.9787 L316.9192,340.3991 L326.8054,339.5682 L336.6915,341.2282 L346.5777,339.6496 L356.4638,340.2263 L366.35,340.49" fill="none" style="stroke:#023E8A;stroke-width:1;"/><polygon fill="#023E8A" points="372.35,340.49,372.3785,340.554,370.4939,339.5638,368.7762,338.9489,367.0041,338.2117,365.0534,337.0727,363.35,336.49,363.3317,336.4717,364.0495,337.1895,364.8596,337.9996,365.7339,338.8739,366.387,339.527,367.35,340.49,367.4805,340.6205,366.4014,341.1414,365.7034,342.0434,365.0518,342.9918,364.1298,343.6698,363.35,344.49,363.3592,344.5108,365.1457,343.6803,366.9742,342.9444,368.7824,342.1628,370.6293,341.4684,372.35,340.49" style="stroke:#023E8A;stroke-width:1;"/></g><!--link UseCase to Story--><g class="link" data-entity-1="UseCase" data-entity-2="Story" data-source-line="209" data-uid="lnk16" id="link_UseCase_Story"><path d="M461.88,90.71 L461.9205,90.7942 L463.8201,91.5148 L465.957,92.7289 L468.0167,93.7823 L469.8223,94.3072 L471.9795,95.5637 L471.9636,95.5331 L473.9035,96.4396 L475.9235,97.5006 L477.9994,98.6691 L479.883,99.4674 L482.0359,100.7842 L482.1567,100.9986 L483.8842,101.6589 L485.9644,102.9451 L488.0876,104.3077 L489.9606,105.226 L491.9651,106.378 L491.981,106.4038 L493.9013,107.5606 L495.8939,108.835 L497.8517,110.0527 L499.876,111.3786 L501.6833,112.3516 L501.8501,112.5988 L503.7368,113.8738 L505.5158,114.9894 L507.4524,116.3383 L509.3964,117.6982 L511.1064,118.7115 L510.9147,118.4547 L513.0957,120.3037 L514.6453,121.3071 L516.6749,122.9534 L518.2101,123.9375 L520.1506,125.4644 L520.1311,125.441 L522.0779,127.1481 L523.5692,128.3087 L525.3293,129.7918 L527.112,131.3019 L528.7319,132.6167 L528.8586,132.7515 L530.3376,134.1271 L532.0331,135.733 L533.3782,136.9664 L535.246,138.7554 L536.7663,140.175 L536.9448,140.3408 L538.3917,141.9036 L539.9273,143.5487 L541.0511,144.8113 L542.4767,146.3544 L544.1698,148.1458 L543.9539,147.9736 L545.4871,149.8074 L546.777,151.4473 L548.4199,153.3685 L549.4602,154.8092 L550.8586,156.5356 L550.7318,156.4509 L552.121,158.355 L552.9682,159.8971 L554.2008,161.6966 L555.8105,163.7481 L556.7487,165.351 L556.919,165.4432 L558.0372,167.3559 L558.6259,168.9819 L559.8779,170.967 L560.9854,172.8739 L561.7561,174.5984 L561.5623,174.5176 L562.5249,176.5193 L563.4241,178.4944 L564.4479,180.5216 L564.987,182.3466 L565.7969,184.2845 L565.9941,184.3427 L566.1589,186.2411 L566.7043,188.2518 L567.8057,190.4267 L567.8834,192.2994 L568.7871,194.4158 L569.0099,194.4549 L569.2487,196.5483 L569.4121,198.6284 L569.7456,200.7384 L570.4725,202.9174 L570.6428,204.9988 L570.51,204.9911 L571.0328,207.2222 L570.6524,209.4011 L571.2991,211.6393 L571.3674,213.8442 L571.28,216.04 L571.6066,216.04 L571.343,226.1841 L572.2488,236.3281 L572.0981,246.4722 L571.5057,256.6163 L571.6376,266.7604 L571.1063,276.9044 L572.2353,287.0485 L571.4865,297.1926 L571.5101,307.3367 L570.4689,317.4807 L570.7397,327.6248 L571.9877,337.7689 L571.853,347.913 L571.2228,358.057 L570.8504,368.2011 L570.9881,378.3452 L570.3651,388.4893 L571.833,398.6333 L572.2661,408.7774 L571.9819,418.9215 L572.2066,429.0656 L571.0977,439.2096 L571.3963,449.3537 L570.7632,459.4978 L571.6587,469.6419 L571.609,479.7859 L571.28,489.93 L571.5247,489.9503 L570.9696,492.4394 L570.8032,494.9607 L570.8505,497.4997 L570.6968,500.022 L570.2368,502.519 L570.0163,502.4617 L569.5525,504.8124 L569.0991,507.1658 L568.1712,509.396 L567.985,511.8188 L567.232,514.0944 L567.3365,514.1416 L566.2353,516.197 L565.3779,518.3624 L564.6596,520.5904 L563.2817,522.5212 L562.4526,524.6993 L562.5695,524.7762 L561.2852,526.7045 L559.9488,528.5984 L558.6847,530.5399 L557.4011,532.4686 L556.0856,534.3763 L555.8777,534.1926 L554.3985,536.0168 L552.8248,537.7573 L551.4463,539.6703 L549.9009,541.4359 L548.318,543.1684 L548.3657,543.2222 L546.4361,544.6615 L544.7057,546.3259 L542.894,547.8984 L541.3031,549.7203 L539.337,551.1184 L539.4472,551.2726 L537.21,552.3729 L535.3151,553.9523 L533.1833,555.2001 L531.4055,556.9432 L529.3295,558.2691 L529.4668,558.5021 L527.283,559.7564 L524.8924,560.6601 L522.926,562.2833 L520.4843,563.1001 L518.4825,564.6634 L518.5219,564.7432 L516.1238,565.6803 L513.9019,566.9743 L511.6303,568.1676 L509.376,569.3961 L506.9832,570.3442 L506.8597,570.049 L504.6719,571.5411 L502.228,572.4212 L499.8654,573.4959 L497.5399,574.6588 L495.0186,575.3542 L495.0194,575.3565 L492.5962,576.304 L490.1534,577.1964 L487.7024,578.0661 L485.2241,578.8597 L482.7756,579.7364 L482.8686,580.0383 L480.2291,580.2369 L477.9159,581.4954 L475.2935,581.7497 L472.8376,582.5447 L470.4414,583.5336 L470.446,583.5508 L467.9969,584.1968 L465.4897,584.624 L463.1456,585.6644 L460.6631,586.1844 L458.203,586.7887 L458.2755,587.1034 L455.8784,587.6287 L453.3759,587.6968 L450.9898,588.2698 L448.6255,588.9373 L446.2473,589.5444 L446.2783,589.6993 L443.9853,590.1799 L441.6793,590.5954 L439.326,590.7749 L437.1142,591.6611 L434.7615,591.8437 L434.8098,592.1212 L432.5921,592.2001 L430.4117,592.4933 L428.2336,592.7993 L426.082,593.2582 L423.9326,593.7293" fill="none" style="stroke:#023E8A;stroke-width:1;"/><polygon fill="#023E8A" points="418.01,594.69,418.0278,594.7578,419.8797,595.0579,421.8361,595.7553,423.7585,596.3233,425.5689,596.4659,427.5343,597.1974,427.5192,597.1764,426.5334,596.4205,425.624,595.7705,424.7677,595.1942,423.7285,594.3641,422.9455,593.8894,423.0952,593.9974,423.4367,592.8488,424.2152,592.0153,425.0471,591.2203,425.5687,590.2016,426.2534,589.3006,426.2659,589.3196,424.5989,590.3696,422.9886,591.5062,421.351,592.601,419.7655,593.7755,418.01,594.69" style="stroke:#023E8A;stroke-width:1;"/><text fill="#444444" font-family="'Roboto'" font-size="14" font-weight="bold" lengthAdjust="spacing" textLength="27.6992" x="429.8257" y="585.2396">1..*</text></g><!--reverse link Concept to Persona--><g class="link" data-entity-1="Concept" data-entity-2="Persona" data-source-line="210" data-uid="lnk19" id="link_Concept_Persona"><path d="M165.7171,395.6097 L165.9891,395.6772 L167.6517,405.4254 L170.9087,415.5696 L173.6465,425.5848 L174.6768,435.176 L177.9701,445.3292 L179.9895,455.1661 L182.5159,465.1288 L185.3947,475.179 L187.0589,484.9277 L191.1407,495.2767 L192.0794,504.8451 L195.1098,514.933 L198.3954,525.0843 L200.1961,534.8668 L202.8662,544.8652 L205.2072,554.7819 L207.9503,564.7985 L210.19,574.69" fill="none" style="stroke:#023E8A;stroke-width:1;"/><polygon fill="none" points="161.38,378.14,161.4498,378.1455,160.9451,381.9123,160.8498,385.7112,160.6212,389.4997,159.9541,393.2537,159.8939,397.0554,159.8877,397.0302,162.189,396.3391,164.5217,395.7747,166.8763,395.2985,169.1555,394.5186,171.5404,394.164,171.6962,394.2628,169.3309,390.8467,167.4205,387.7191,165.5657,384.6267,163.3879,381.3295,161.38,378.14" style="stroke:#023E8A;stroke-width:1;"/></g><!--link Concept to Concept--><g class="link" data-entity-1="Concept" data-entity-2="Concept" data-source-line="211" data-uid="lnk20" id="link_Concept_Concept"><path d="M237.81,328.04 L237.8192,328.133 L240.5491,328.1305 L243.333,328.673 L246.0994,329.038 L248.8078,328.8195 L251.5964,329.4088 L251.5886,329.3751 L253.7411,329.7303 L255.9329,330.2552 L258.152,330.898 L260.277,331.1344 L262.5337,331.94 L262.6955,332.1255 L264.3109,333.4389 L266.3985,335.2937 L268.5437,337.2147 L270.3537,338.7513 L272.34,340.49 L272.3635,340.5091 L270.9669,342.1594 L269.6774,343.8967 L268.3363,345.5921 L267.0938,347.3675 L265.5296,348.8818 L265.6081,349.1696 L263.8335,349.6576 L262.0083,349.96 L260.2572,350.5341 L258.5096,351.121 L256.6519,351.3044 L256.6191,350.9855 L254.1126,351.8682 L251.4983,351.701 L248.966,352.332 L246.3492,352.141 L243.8017,352.6237" fill="none" style="stroke:#023E8A;stroke-width:1;"/><polygon fill="#023E8A" points="237.81,352.94,237.835,353.0054,239.6003,353.515,241.5124,354.4082,243.3766,355.1764,245.0837,355.5339,247.0084,356.46,246.991,356.4407,246.0722,355.5976,245.2407,354.8515,244.47,354.173,243.49,353.2618,242.803,352.6764,242.9402,352.7998,243.4036,351.6948,244.2675,350.9502,245.1802,350.2495,245.8086,349.293,246.5866,348.4711,246.5969,348.4914,244.8265,349.3554,243.103,350.3117,241.3568,351.2235,239.6539,352.2202,237.81,352.94" style="stroke:#023E8A;stroke-width:1;"/><text fill="#444444" font-family="'Roboto'" font-size="14" font-weight="bold" lengthAdjust="spacing" textLength="62.4121" x="282.34" y="345.4851">broader</text></g><!--link UseCase to Vocabulary--><g class="link" data-entity-1="UseCase" data-entity-2="Vocabulary" data-source-line="213" data-uid="lnk22" id="link_UseCase_Vocabulary"><path d="M297.56,106.33 L297.7289,106.5536 L289.5169,111.7116 L282.295,118.1805 L274.7507,124.2225 L266.1462,128.8606 L258.9468,135.3594 L250.9564,140.8107 L243.2808,146.6789 L235.824,152.8369 L227.6131,157.9962 L220.9034,165.1433 L212.2419,169.706 L204.8793,175.9887 L197.6751,182.4811 L189.6179,187.8439" fill="none" style="stroke:#023E8A;stroke-width:1;"/><polygon fill="#023E8A" points="184.83,191.46,184.8459,191.5282,186.7172,190.8791,188.6816,190.6299,190.6157,190.2505,192.4502,189.4427,194.4226,189.2278,194.419,189.2022,193.2824,188.9308,192.1639,188.7887,191.0578,188.7366,189.9086,188.3746,188.8199,188.4466,189.0027,188.4721,188.7681,187.2971,189.0671,186.1964,189.4313,185.1049,189.4166,183.9605,189.6011,182.844,189.621,182.855,188.6376,184.562,187.7447,186.3192,186.8082,188.0522,185.955,189.8314,184.83,191.46" style="stroke:#023E8A;stroke-width:1;"/><text fill="#444444" font-family="'Roboto'" font-size="14" font-weight="bold" lengthAdjust="spacing" textLength="159.8721" x="262.28" y="153.8951">use case vocabulary</text><text fill="#444444" font-family="'Roboto'" font-size="14" font-weight="bold" lengthAdjust="spacing" textLength="9.7412" x="176.8659" y="176.7331">1</text></g><!--link Persona to Story--><g class="link" data-entity-1="Persona" data-entity-2="Story" data-source-line="214" data-uid="lnk23" id="link_Persona_Story"><path d="M263.69,600.23 L263.69,600.5102 L273.2314,599.6776 L282.7729,600.4877 L292.3143,600.7629 L301.8557,599.2788 L311.3971,600.1264 L320.9386,599.6613 L330.48,600.23" fill="none" style="stroke:#023E8A;stroke-width:1;"/><polygon fill="none" points="342.48,600.23,342.5189,600.2883,341.2034,599.3151,340.1157,598.6836,338.9539,597.9409,337.5481,596.8321,336.48,596.23,336.4656,596.2084,335.2011,596.9117,334.0091,597.7236,332.8674,598.6111,331.5522,599.2382,330.48,600.23,330.5824,600.3836,331.5635,600.8552,332.8434,601.7751,334.1599,602.7498,335.2641,603.4062,336.48,604.23,336.4926,604.2489,337.6741,603.4211,338.913,602.6795,340.1242,601.8963,341.3883,601.1924,342.48,600.23" style="stroke:#023E8A;stroke-width:1;"/><text fill="#444444" font-family="'Roboto'" font-size="14" font-weight="bold" lengthAdjust="spacing" textLength="9.7412" x="275.2525" y="591.6328">1</text><text fill="#444444" font-family="'Roboto'" font-size="14" font-weight="bold" lengthAdjust="spacing" textLength="27.6992" x="303.0655" y="591.4106">0..*</text></g><!--SRC=[rLTjRzf84FxkNx717ogTZfGaDCsX20aSqbPD8G9wqYcAehKzu1NBhhkx3kNQ_lSRsu1VOaYkWW_n5ypEiyyyC_iouoCP6YO52QZm5ueP0u9CADTWMKTRJKS-J9W0qltmyANpgV_W36u6Gv8yzlbvrxbkv26ZdZFeNtM6_wnmThVPTRgzFEIsutpkVEXjY6m0z_Ilammo65xrXda_n6ucpmPoFUYF2u0COkaP4o5LT4vSwiscIaR2ToINYjYBW1cCzGrXmkEH3yG4GAOWG55EDlCqcI3ObIRuat0s3Gp1d12VgXdED9B8Hr1nYe0ic0bI3lQ8-T9W31DJNOva_F6JyxdV6ut8oQv4Py9lgUyZ4MdcnePf70h5aelS-2YWlbp4w3BBnsK8YZCn-ohyv0NMYvrXhc128sx83-jQ2jEdSo2reSJOPIqPIHENfJiP7B5_WPmqhLzvfevISe4ybJEgQSoIOuuazujC8IuRdS9AqvEftTAg5lQbrPKAWrrPSXi9NMGUXFJ_3trXmxxCWoVdeHGWuip-fk1ATMdEeZa_BURCfuQwLCEUtHLyU5n6_a4TICx1Yq-7thkRp8k302Nv0JrqOqggbWTqqHE6cKCwOCA0cb0F3kXZ1DyY41xSKcMOnq8gJ4es3fWt4w0rNfWPNA_Wg2W_OwUu9zGLEdEOx5eIKiqfBzkUX7F39d23D-jMyWrWfypaydn2denkPKwibQ8IIvR3CwlZ6QcUKP10jlgAhTiEy1lYD4cSDIn2-CT-zicVUOK7deefXyjBh5PQYdORrtU4cm-amGAsjNhigowKTrovPXUlg9nS-8uY1UKF-zTTQg8E85uljO7vwylr_dKVADVhWlmwKfsfVNsPpcqJTrLuKzMbnhWOHTB3Dfxlzduhzjs1fGN6fpe0_oMnLeRgeMEATKMzD5RirtTlfGD4kdi9ywNTK5FLQTZKXuj9C-VSRfmrck_0wXYZc1iPg31bnTHkd9x11Itej1kDz-_Tyt9lIxNU8Q00fiNwYXzrbfKIO6_fGHWt_NKIPvAqraDZ_8SiHTZTNM1Cs7hxDkJOO61NVupV3Jy6oGSYVf4QARbXuI-2lZJXr0LEy2LKSNFctz-lsBvgSDBMlquUfKVTYECPQ96_D-zeq5Z06UWM5cgfbdVtg6KzhrvlRpXQkCU-HKo1jhBffFP7BK75loljsynZK7ChyL6UWToOmCXijSh8nEQO8RMU71_d7Aw1zNfTnL_bY1W8WwiqNNQ-CpdFAxgCvwydvkDSSIOIhDkaS5CqH67zPxl2KpidprKIDuCgM1EjBLmHc81IU9oBlcgvDK1OX0OljcQhjD4GWrTnIL9hP2h_0m00]--></g></svg>