<svg xmlns="http://www.w3.org/2000/svg" xmlns:xlink="http://www.w3.org/1999/xlink" contentStyleType="text/css" data-diagram-type="STATE" height="739px" preserveAspectRatio="none" style="width:820px;height:739px;" version="1.1" viewBox="0 0 820 739" width="820px" zoomAndPan="magnify"><defs/><g><!--cluster Planxs--><g class="cluster" data-qualified-name="Planxs" data-source-line="66" id="ent0002"><path d="M10,33.26 L10,33.8205 L19.8571,32.1551 L29.7143,33.7754 L39.5714,34.3258 L49.4286,31.3576 L59.2857,33.0528 L69.1429,32.1227 L79,32.2373 L88.8571,33.0782 L98.7143,31.4163 L108.5714,34.7364 L118.4286,31.5793 L128.2857,32.7326 L138.1429,34.4119 L148,33.0313 L157.8571,33.442 L167.7143,33.1748 L177.5714,33.7361 L187.4286,33.8977 L197.2857,34.8218 L207.1429,35.0495 L217,35.0714 L226.8571,33.939 L236.7143,34.4962 L246.5714,35.1326 L256.4286,31.3368 L266.2857,35.0694 L276.1429,32.4693 L286,33.26 L289,36.26 L289.4745,36.26 L288.56,40.4866 L288.9391,44.7131 L289.6592,48.9397 L288.9567,53.1662 L289,57.3928 L289,57.6736 L278.9286,58.2958 L268.8571,58.5028 L258.7857,57.3824 L248.7143,58.1587 L238.6429,55.8664 L228.5714,58.1512 L218.5,58.8547 L208.4286,58.5782 L198.3571,59.0275 L188.2857,56.1046 L178.2143,55.6537 L168.1429,55.7357 L158.0714,57.2358 L148,56.8687 L137.9286,59.2099 L127.8571,56.927 L117.7857,56.478 L107.7143,58.0015 L97.6429,55.6146 L87.5714,56.0085 L77.5,59.1233 L67.4286,58.5546 L57.3571,59.3515 L47.2857,56.5347 L37.2143,58.244 L27.1429,58.9673 L17.0714,56.1331 L7,57.3928 L6.9148,57.3928 L7.112,53.1662 L7.5793,48.9397 L6.9963,44.7131 L7.4112,40.4866 L7,36.26 L10,33.26" fill="#4051B5"/><polygon fill="none" points="10,33.26,10,33.4702,19.8571,32.8457,29.7143,33.4533,39.5714,33.6597,49.4286,32.5466,59.2857,33.1823,69.1429,32.8335,79,32.8765,88.8571,33.1918,98.7143,32.5686,108.5714,33.8136,118.4286,32.6297,128.2857,33.0622,138.1429,33.6919,148,33.1742,157.8571,33.3282,167.7143,33.2281,177.5714,33.4385,187.4286,33.4991,197.2857,33.8457,207.1429,33.9311,217,33.9393,226.8571,33.5146,236.7143,33.7236,246.5714,33.9622,256.4286,32.5388,266.2857,33.9385,276.1429,32.9635,286,33.26,286.0681,33.4244,286.3611,33.2833,286.8398,33.5904,287.3674,34.0156,287.6908,33.9479,288.1213,34.1387,288.1537,34.1521,288.4013,34.6061,288.601,35.0403,288.6473,35.411,288.9127,35.8724,289,36.26,288.4276,36.26,289.2844,46.3149,289.5482,56.3699,289.4445,66.4248,289.613,76.4797,288.5169,86.5346,288.3478,96.5896,288.3786,106.6445,288.9411,116.6994,288.8035,126.7543,289.6814,136.8093,288.8253,146.8642,288.6569,156.9191,289.2283,166.9741,288.3332,177.029,288.4809,187.0839,289.649,197.1388,289.4357,207.1938,289.7345,217.2487,288.6782,227.3036,289.3192,237.3586,289.5904,247.4135,288.5276,257.4684,288.9041,267.5233,289.126,277.5783,289.6518,287.6332,288.9958,297.6881,289.4626,307.743,288.4462,317.798,288.3227,327.8529,289.5036,337.9078,288.2831,347.9628,289.509,358.0177,289.2066,368.0726,288.7321,378.1275,288.6462,388.1825,289.4588,398.2374,288.7007,408.2923,289.5919,418.3472,288.4473,428.4022,289.6174,438.4571,289.4843,448.512,289.245,458.567,289.0472,468.6219,289.7266,478.6768,289.6136,488.7317,289.1693,498.7867,289.2682,508.8416,288.8697,518.8965,289.7165,528.9514,289.1549,539.0064,289.1726,549.0613,288.3916,559.1162,288.5948,569.1712,289.5307,579.2261,289.4298,589.281,288.9571,599.3359,288.6778,609.3909,288.7811,619.4458,288.3138,629.5007,289.4147,639.5557,289.7396,649.6106,289.5264,659.6655,289.6949,669.7204,288.8633,679.7754,289.0872,689.8303,288.6124,699.8852,289.284,709.9401,289.2468,719.9951,289,730.05,289.1701,730.1205,288.7535,730.445,288.6071,730.8814,288.6094,731.3794,288.4718,731.8194,288.1213,732.1713,288.0559,732.0135,287.6723,732.2873,287.2918,732.5688,286.7706,732.5104,286.4693,732.9831,286,733.05,286,733.308,276.1429,732.9492,266.2857,733.1922,256.4286,733.7787,246.5714,732.7371,236.7143,733.365,226.8571,733.3356,217,733.1658,207.1429,733.1909,197.2857,733.1635,187.4286,732.4258,177.5714,732.6492,167.7143,732.5885,157.8571,733.1138,148,733.1381,138.1429,733.2117,128.2857,732.759,118.4286,732.9825,108.5714,732.9298,98.7143,733.6269,88.8571,733.4766,79,732.5645,69.1429,732.9771,59.2857,732.4728,49.4286,733.3384,39.5714,733.6585,29.7143,733.5946,19.8571,732.6144,10,733.05,10.0592,733.1929,9.481,732.6455,9.177,732.7602,8.689,732.4306,8.3153,732.3768,7.8787,732.1713,7.9527,732.202,7.8483,731.8073,7.3055,731.231,7.4979,730.9592,7.2306,730.497,7,730.05,7.3553,730.05,7.7478,719.9951,7.0055,709.9401,7.1753,699.8852,7.2134,689.8303,7.1972,679.7754,6.9992,669.7204,7.7107,659.6655,6.3903,649.6106,7.5653,639.5557,6.376,629.5007,6.4597,619.4458,7.04,609.3909,7.0283,599.3359,6.5072,589.281,7.4137,579.2261,7.1089,569.1712,7.7267,559.1162,7.6671,549.0613,6.5517,539.0064,6.6021,528.9514,6.8708,518.8965,7.3555,508.8416,7.403,498.7867,7.3012,488.7317,6.658,478.6768,7.6364,468.6219,7.6338,458.567,6.9527,448.512,6.7609,438.4571,6.5986,428.4022,6.7854,418.3472,7.1374,408.2923,6.9316,398.2374,6.5822,388.1825,7.4874,378.1275,6.5411,368.0726,7.5024,358.0177,7.4272,347.9628,7.3719,337.9078,7.6925,327.8529,6.7541,317.798,6.6994,307.743,7.5189,297.6881,6.4031,287.6332,6.766,277.5783,7.1155,267.5233,7.0687,257.4684,6.6415,247.4135,6.957,237.3586,7.7446,227.3036,7.6485,217.2487,6.4037,207.1938,7.0785,197.1388,6.4861,187.0839,6.9737,177.029,7.293,166.9741,7.4199,156.9191,6.3353,146.8642,7.4005,136.8093,7.0084,126.7543,6.4447,116.6994,6.5289,106.6445,7.3266,96.5896,7.2499,86.5346,6.9836,76.4797,6.3279,66.4248,7.6581,56.3699,6.6882,46.3149,7,36.26,6.8374,36.1926,7.155,35.8271,7.5331,35.4867,7.7167,35.0657,7.7138,34.5674,7.8787,34.1387,7.8594,34.0921,8.3246,34.0152,8.751,33.8446,9.0867,33.4551,9.6285,33.5632,10,33.26" style="stroke:#FF6F00;stroke-width:2;"/><path d="M7,57.3928 L7,57.6731 L17.0714,56.8404 L27.1429,57.6505 L37.2143,57.9257 L47.2857,56.4416 L57.3571,57.2892 L67.4286,56.8242 L77.5,56.8815 L87.5714,57.3019 L97.6429,56.471 L107.7143,58.131 L117.7857,56.5524 L127.8571,57.1291 L137.9286,57.9687 L148,57.2784 L158.0714,57.4838 L168.1429,57.3502 L178.2143,57.6308 L188.2857,57.7117 L198.3571,58.1737 L208.4286,58.2876 L218.5,58.2985 L228.5714,57.7323 L238.6429,58.0109 L248.7143,58.3291 L258.7857,56.4312 L268.8571,58.2975 L278.9286,56.9975 L289,57.3928" fill="#4051B5" style="stroke:#FF6F00;stroke-width:2;"/><text fill="#FFFFFF" font-family="'Roboto'" font-size="13" lengthAdjust="spacing" textLength="42.123" x="126.9385" y="51.3269">Planxs</text></g><!--cluster Build--><g class="cluster" data-qualified-name="Build" data-source-line="94" id="ent0007"><path d="M590,7 L590,7.5605 L600,5.8951 L610,7.5154 L620,8.0658 L630,5.0976 L640,6.7928 L650,5.8627 L660,5.9773 L670,6.8182 L680,5.1563 L690,8.4764 L700,5.3193 L710,6.4726 L720,8.1519 L730,6.7713 L740,7.182 L750,6.9148 L760,7.4761 L770,7.6377 L780,8.5618 L790,8.7895 L800,8.8114 L810,7 L813,10 L813.2263,10 L813.4121,14.2266 L813.6242,18.4531 L812.3589,22.6797 L813.6031,26.9063 L813,31.1328 L813,30.3421 L803.1739,32.5563 L793.3478,29.8128 L783.5217,30.9501 L773.6957,33.1104 L763.8696,31.0029 L754.0435,31.4136 L744.2174,32.0358 L734.3913,32.2428 L724.5652,31.1224 L714.7391,31.8987 L704.913,29.6064 L695.087,31.8912 L685.2609,32.5947 L675.4348,32.3182 L665.6087,32.7675 L655.7826,29.8446 L645.9565,29.3937 L636.1304,29.4757 L626.3043,30.9758 L616.4783,30.6087 L606.6522,32.9499 L596.8261,30.667 L587,31.1328 L586.6951,31.1328 L587.2029,26.9063 L586.4073,22.6797 L586.5386,18.4531 L587.5768,14.2266 L587,10 L590,7" fill="#4051B5"/><polygon fill="none" points="590,7,590,7.2102,600,6.5857,610,7.1933,620,7.3997,630,6.2866,640,6.9223,650,6.5735,660,6.6165,670,6.9318,680,6.3086,690,7.5536,700,6.3697,710,6.8022,720,7.4319,730,6.9142,740,7.0682,750,6.9681,760,7.1785,770,7.2391,780,7.5857,790,7.6711,800,7.6793,810,7,810.0325,7.0784,810.4834,7.3185,810.9381,7.5677,811.1808,7.3051,811.7836,7.9119,812.1213,7.8787,812.03,7.8409,812.4614,8.371,812.3203,8.6641,812.6274,9.1427,813.0526,9.6703,813,10,812.9513,10,813.1053,19.9906,813.3386,29.9812,813.4162,39.9717,812.9961,49.9623,813.2872,59.9529,812.4276,69.9435,813.2844,79.9341,813.5482,89.9246,813.4445,99.9152,813.613,109.9058,812.5169,119.8964,812.3478,129.887,812.3786,139.8775,812.9411,149.8681,812.8035,159.8587,813.6814,169.8493,812.8253,179.8399,812.6569,189.8304,813.2283,199.821,812.3332,209.8116,812.4809,219.8022,813.649,229.7928,813.4357,239.7833,813.7345,249.7739,812.6782,259.7645,813.3192,269.7551,813.5904,279.7457,812.5276,289.7362,812.9041,299.7268,813.126,309.7174,813.6518,319.708,812.9958,329.6986,813.4626,339.6891,812.4462,349.6797,812.3227,359.6703,813.5036,369.6609,812.2831,379.6514,813.509,389.642,813.2066,399.6326,812.7321,409.6232,812.6462,419.6138,813.4588,429.6043,812.7007,439.5949,813.5919,449.5855,812.4473,459.5761,813.6174,469.5667,813.4843,479.5572,813.245,489.5478,813.0472,499.5384,813.7266,509.529,813.6136,519.5196,813.1693,529.5101,813.2682,539.5007,812.8697,549.4913,813.7165,559.4819,813.1549,569.4725,813.1726,579.463,812.3916,589.4536,812.5948,599.4442,813.5307,609.4348,813.4298,619.4254,812.9571,629.4159,812.6778,639.4065,812.7811,649.3971,812.3138,659.3877,813.4147,669.3783,813.7396,679.3688,813.5264,689.3594,813,699.35,813.214,699.4386,812.7822,699.7568,812.6754,700.2097,812.3534,700.5734,812.3845,701.0833,812.1213,701.4713,812.1528,701.5473,811.7675,701.8172,811.2435,701.7521,810.8314,701.9571,810.4808,702.3108,810,702.35,810,702.9173,800,701.8375,790,702.1561,780,702.4993,770,701.7392,760,702.7034,750,702.608,740,702.2492,730,702.4922,720,703.0787,710,702.0371,700,702.665,690,702.6356,680,702.4658,670,702.4909,660,702.4635,650,701.7258,640,701.9492,630,701.8885,620,702.4138,610,702.4381,600,702.5117,590,702.35,589.9629,702.2604,589.5671,702.1535,589.1361,701.9615,588.8008,702.0004,588.3574,701.7784,587.8787,701.4713,587.7292,701.4094,587.6805,701.0378,587.3494,700.5492,587.4403,700.2353,587.3631,699.8519,587,699.35,587.5446,699.35,586.5644,689.3594,587.464,679.3688,586.2572,669.3783,587.2002,659.3877,586.7007,649.3971,587.0967,639.4065,587.2403,629.4159,587.4721,619.4254,586.2801,609.4348,587.4755,599.4442,587.1782,589.4536,587.3553,579.463,587.7478,569.4725,587.0055,559.4819,587.1753,549.4913,587.2134,539.5007,587.1972,529.5101,586.9992,519.5196,587.7107,509.529,586.3903,499.5384,587.5653,489.5478,586.376,479.5572,586.4597,469.5667,587.04,459.5761,587.0283,449.5855,586.5072,439.5949,587.4137,429.6043,587.1089,419.6138,587.7267,409.6232,587.6671,399.6326,586.5517,389.642,586.6021,379.6514,586.8708,369.6609,587.3555,359.6703,587.403,349.6797,587.3012,339.6891,586.658,329.6986,587.6364,319.708,587.6338,309.7174,586.9527,299.7268,586.7609,289.7362,586.5986,279.7457,586.7854,269.7551,587.1374,259.7645,586.9316,249.7739,586.5822,239.7833,587.4874,229.7928,586.5411,219.8022,587.5024,209.8116,587.4272,199.821,587.3719,189.8304,587.6925,179.8399,586.7541,169.8493,586.6994,159.8587,587.5189,149.8681,586.4031,139.8775,586.766,129.887,587.1155,119.8964,587.0687,109.9058,586.6415,99.9152,586.957,89.9246,587.7446,79.9341,587.6485,69.9435,586.4037,59.9529,587.0785,49.9623,586.4861,39.9717,586.9737,29.9812,587.293,19.9906,587,10,587.1293,10.0536,586.971,9.4909,587.4748,9.2026,587.5298,8.7283,587.5319,8.2321,587.8787,7.8787,587.8186,7.7336,588.3446,7.8035,588.7591,7.6042,589.1494,7.3464,589.49,6.9688,590,7" style="stroke:#FF6F00;stroke-width:2;"/><path d="M587,31.1328 L587,31.4131 L596.8261,30.5804 L606.6522,31.3905 L616.4783,31.6657 L626.3043,30.1816 L636.1304,31.0292 L645.9565,30.5642 L655.7826,30.6215 L665.6087,31.0419 L675.4348,30.211 L685.2609,31.871 L695.087,30.2924 L704.913,30.8691 L714.7391,31.7087 L724.5652,31.0184 L734.3913,31.2238 L744.2174,31.0902 L754.0435,31.3708 L763.8696,31.4517 L773.6957,31.9137 L783.5217,32.0276 L793.3478,32.0385 L803.1739,31.4723 L813,31.1328" fill="#4051B5" style="stroke:#FF6F00;stroke-width:2;"/><text fill="#FFFFFF" font-family="'Roboto'" font-size="13" lengthAdjust="spacing" textLength="32.6333" x="683.6833" y="25.0669">Build</text></g><!--cluster Run--><g class="cluster" data-qualified-name="Run" data-source-line="118" id="ent0013"><path d="M324,7 L324,7.5605 L333.8333,5.8951 L343.6667,7.5154 L353.5,8.0658 L363.3333,5.0976 L373.1667,6.7928 L383,5.8627 L392.8333,5.9773 L402.6667,6.8182 L412.5,5.1563 L422.3333,8.4764 L432.1667,5.3193 L442,6.4726 L451.8333,8.1519 L461.6667,6.7713 L471.5,7.182 L481.3333,6.9148 L491.1667,7.4761 L501,7.6377 L510.8333,8.5618 L520.6667,8.7895 L530.5,8.8114 L540.3333,7.679 L550.1667,8.2362 L560,7 L563,10 L563.6242,10 L562.3589,14.2266 L563.6031,18.4531 L562.7364,22.6797 L563.4745,26.9063 L563,31.1328 L563,29.8128 L552.9167,30.9501 L542.8333,33.1104 L532.75,31.0029 L522.6667,31.4136 L512.5833,32.0358 L502.5,32.2428 L492.4167,31.1224 L482.3333,31.8987 L472.25,29.6064 L462.1667,31.8912 L452.0833,32.5947 L442,32.3182 L431.9167,32.7675 L421.8333,29.8446 L411.75,29.3937 L401.6667,29.4757 L391.5833,30.9758 L381.5,30.6087 L371.4167,32.9499 L361.3333,30.667 L351.25,30.218 L341.1667,31.7415 L331.0833,29.3546 L321,31.1328 L320.5386,31.1328 L321.5768,26.9063 L321.3873,22.6797 L321.6529,18.4531 L320.714,14.2266 L321,10 L324,7" fill="#4051B5"/><polygon fill="none" points="324,7,324,7.2102,333.8333,6.5857,343.6667,7.1933,353.5,7.3997,363.3333,6.2866,373.1667,6.9223,383,6.5735,392.8333,6.6165,402.6667,6.9318,412.5,6.3086,422.3333,7.5536,432.1667,6.3697,442,6.8022,451.8333,7.4319,461.6667,6.9142,471.5,7.0682,481.3333,6.9681,491.1667,7.1785,501,7.2391,510.8333,7.5857,520.6667,7.6711,530.5,7.6793,540.3333,7.2546,550.1667,7.4636,560,7,560.0896,7.2163,560.3323,6.9536,560.9351,7.5604,561.235,7.4359,561.7651,7.8673,562.1213,7.8787,561.9689,7.8155,562.276,8.2942,562.7012,8.8218,562.6335,9.1453,562.8567,9.5892,563,10,563.3386,10,563.4162,19.9177,562.9961,29.8354,563.2872,39.753,562.4276,49.6707,563.2844,59.5884,563.5482,69.5061,563.4445,79.4238,563.613,89.3414,562.5169,99.2591,562.3478,109.1768,562.3786,119.0945,562.9411,129.0121,562.8035,138.9298,563.6814,148.8475,562.8253,158.7652,562.6569,168.6829,563.2283,178.6005,562.3332,188.5182,562.4809,198.4359,563.649,208.3536,563.4357,218.2712,563.7345,228.1889,562.6782,238.1066,563.3192,248.0243,563.5904,257.942,562.5276,267.8596,562.9041,277.7773,563.126,287.695,563.6518,297.6127,562.9958,307.5304,563.4626,317.448,562.4462,327.3657,562.3227,337.2834,563.5036,347.2011,562.2831,357.1188,563.509,367.0364,563.2066,376.9541,562.7321,386.8718,562.6462,396.7895,563.4588,406.7071,562.7007,416.6248,563.5919,426.5425,562.4473,436.4602,563.6174,446.3779,563.4843,456.2955,563.245,466.2132,563.0472,476.1309,563.7266,486.0486,563.6136,495.9662,563.1693,505.8839,563.2682,515.8016,562.8697,525.7193,563.7165,535.637,563.1549,545.5546,563.1726,555.4723,563,565.39,562.8127,565.3124,562.6995,565.7626,562.812,566.3062,562.6051,566.7176,562.2838,567.0816,562.1213,567.5113,562.0802,567.4121,561.6691,567.6196,561.1853,567.6515,560.9014,568.1663,560.5186,568.442,560,568.39,560,568.9164,550.1667,569.0849,540.3333,568.2533,530.5,568.4772,520.6667,568.0024,510.8333,568.674,501,568.6368,491.1667,568.9424,481.3333,568.1603,471.5,568.2556,461.6667,568.8335,451.8333,568.9573,442,567.8775,432.1667,568.1961,422.3333,568.5393,412.5,567.7792,402.6667,568.7434,392.8333,568.648,383,568.2892,373.1667,568.5322,363.3333,569.1187,353.5,568.0771,343.6667,568.705,333.8333,568.6756,324,568.39,324.0148,568.4257,323.5937,568.2577,323.1659,568.0735,322.6476,567.6706,322.2518,567.5636,321.8787,567.5113,321.7365,567.4524,321.7226,567.0952,321.5543,566.674,321.4013,566.2592,321.0861,565.7771,321,565.39,320.9325,565.39,320.8798,555.4723,321.5769,545.5546,321.4266,535.637,320.5145,525.7193,320.9271,515.8016,320.4228,505.8839,321.2884,495.9663,321.6085,486.0486,321.5446,476.1309,320.5644,466.2132,321.464,456.2955,320.2572,446.3779,321.2002,436.4602,320.7007,426.5425,321.0967,416.6248,321.2403,406.7071,321.4721,396.7895,320.2801,386.8718,321.4755,376.9541,321.1782,367.0364,321.3553,357.1188,321.7478,347.2011,321.0055,337.2834,321.1753,327.3657,321.2134,317.448,321.1972,307.5304,320.9992,297.6127,321.7107,287.695,320.3903,277.7773,321.5653,267.8596,320.376,257.942,320.4597,248.0243,321.04,238.1066,321.0283,228.1889,320.5072,218.2713,321.4137,208.3536,321.1089,198.4359,321.7267,188.5182,321.6671,178.6005,320.5517,168.6829,320.6021,158.7652,320.8708,148.8475,321.3555,138.9298,321.403,129.0121,321.3012,119.0945,320.658,109.1768,321.6364,99.2591,321.6338,89.3414,320.9527,79.4238,320.7609,69.5061,320.5986,59.5884,320.7854,49.6707,321.1374,39.753,320.9316,29.8354,320.5822,19.9177,321,10,321.1501,10.0622,321.0344,9.5172,321.5062,9.2156,321.6588,8.7817,321.8175,8.3504,321.8787,7.8787,321.967,8.0919,322.2716,7.6272,322.6889,7.4346,323.2177,7.5113,323.4996,6.9919,324,7" style="stroke:#FF6F00;stroke-width:2;"/><path d="M321,31.1328 L321,31.4131 L331.0833,30.5804 L341.1667,31.3905 L351.25,31.6657 L361.3333,30.1816 L371.4167,31.0292 L381.5,30.5642 L391.5833,30.6215 L401.6667,31.0419 L411.75,30.211 L421.8333,31.871 L431.9167,30.2924 L442,30.8691 L452.0833,31.7087 L462.1667,31.0184 L472.25,31.2238 L482.3333,31.0902 L492.4167,31.3708 L502.5,31.4517 L512.5833,31.9137 L522.6667,32.0276 L532.75,32.0385 L542.8333,31.4723 L552.9167,31.7509 L563,31.1328" fill="#4051B5" style="stroke:#FF6F00;stroke-width:2;"/><text fill="#FFFFFF" font-family="'Roboto'" font-size="13" lengthAdjust="spacing" textLength="25.5112" x="429.2444" y="25.0669">Run</text></g><g><polygon fill="#FFC0CB" points="44.53,174.53,44.53,174.7402,54.477,174.1157,64.424,174.7233,74.371,174.9297,84.318,173.8166,94.265,174.4523,104.212,174.1035,114.159,174.1465,124.106,174.4618,134.053,173.8386,144,175.0836,153.947,173.8997,163.894,174.3322,173.841,174.9619,183.788,174.4442,193.735,174.5982,203.682,174.4981,213.629,174.7085,223.5759,174.7691,233.5229,175.1157,243.4699,174.53,243.5555,174.7367,243.9809,174.9149,244.351,174.9599,244.8019,175.2,245.2566,175.4492,245.5913,175.4087,245.3692,175.3167,245.976,175.9195,245.8514,176.2194,246.2829,176.7496,246.1418,177.0426,246.4699,177.53,246.4014,177.53,247.2115,187.8464,246.4212,198.1628,246.5752,208.4792,246.8086,218.7956,246.8862,229.112,246.466,239.4284,246.7572,249.7448,246.4699,260.0613,246.2937,259.9882,246.3818,260.5218,246.2873,260.9797,246.0796,261.3907,245.9558,261.8365,245.5913,262.1826,245.5296,262.0338,245.0838,262.1575,244.6635,262.3427,244.311,262.6916,243.8691,262.825,243.4699,263.0613,243.4699,263.7427,233.5229,262.8866,223.5759,262.7182,213.629,263.2895,203.682,262.3944,193.735,262.5421,183.788,263.7102,173.841,263.4969,163.894,263.7957,153.947,262.7395,144,263.3804,134.053,263.6517,124.106,262.5888,114.159,262.9654,104.212,263.1872,94.265,263.713,84.318,263.0571,74.371,263.5238,64.424,262.5075,54.477,262.384,44.53,263.0613,44.5942,263.2163,44.0143,262.6647,43.7464,262.8665,43.2836,262.5977,42.7988,262.2758,42.4087,262.1826,42.2997,262.1374,42.3742,261.8168,41.965,261.2959,42.0637,260.9853,41.5355,260.415,41.53,260.0613,42.1474,260.0613,42.0143,249.7448,41.775,239.4284,41.5772,229.112,42.2566,218.7956,42.1436,208.4792,41.6993,198.1628,41.7982,187.8464,41.53,177.53,41.4899,177.5134,41.9264,177.1971,41.9292,176.7012,42.1104,176.2792,42.0456,175.7553,42.4087,175.4087,42.357,175.2839,42.9006,175.3964,43.312,175.1896,43.676,174.8683,44.0646,174.6065,44.53,174.53" style="stroke:#FF6F00;stroke-width:2;"/><path d="M41.53,203.6628 L41.53,203.9431 L51.777,203.1104 L62.024,203.9205 L72.271,204.1957 L82.518,202.7116 L92.765,203.5592 L103.012,203.0942 L113.259,203.1515 L123.506,203.5719 L133.753,202.741 L144,204.401 L154.247,202.8224 L164.494,203.3991 L174.741,204.2387 L184.988,203.5484 L195.235,203.7538 L205.482,203.6202 L215.729,203.9008 L225.9759,203.9817 L236.2229,204.4437 L246.4699,203.6628" fill="#FFC0CB" style="stroke:#FF6F00;stroke-width:2;"/><text fill="#FFFFFF" font-family="'Roboto'" font-size="13" lengthAdjust="spacing" textLength="54.3359" x="116.832" y="193.5969">Envision</text><text fill="#FFFFFF" font-family="'Roboto'" font-size="13" lengthAdjust="spacing" textLength="123.8491" x="48.53" y="222.7297">- a shared strategy</text><text fill="#FFFFFF" font-family="'Roboto'" font-size="13" lengthAdjust="spacing" textLength="113.9912" x="48.53" y="237.8625">- EKG envisioning</text><text fill="#FFFFFF" font-family="'Roboto'" font-size="13" lengthAdjust="spacing" textLength="180.9399" x="48.53" y="252.9953">- EKG as a business enabler</text></g><g><polygon fill="#0000FF" points="60.68,304.06,60.68,304.2702,70.4829,303.6457,80.2858,304.2533,90.0887,304.4597,99.8916,303.3466,109.6945,303.9823,119.4974,303.6335,129.3003,303.6765,139.1033,303.9918,148.9062,303.3686,158.7091,304.6136,168.512,303.4297,178.3149,303.8622,188.1178,304.4919,197.9207,303.9742,207.7236,304.1282,217.5265,304.0281,227.3294,304.06,227.3522,304.115,227.7842,304.3094,228.2527,304.5918,228.6878,304.7939,229.1131,304.9721,229.4507,304.9387,229.5291,304.9712,229.7692,305.4221,230.0185,305.8768,229.7558,306.1195,230.3626,306.7223,230.3294,307.06,230.0329,307.06,230.8632,316.8264,229.8344,326.5928,230.2609,336.3592,231.071,346.1256,230.2807,355.892,230.4347,365.6584,230.668,375.4248,230.7456,385.1912,230.3255,394.9577,230.3294,404.7241,230.4179,404.7607,229.9774,405.0753,230.0655,405.6089,229.971,406.0668,229.7634,406.4778,229.4507,406.8454,229.5289,407.0342,228.9648,406.8723,228.519,406.996,228.0987,407.1812,227.7462,407.5302,227.3294,407.7241,227.3294,407.5275,217.5265,408.4055,207.7236,407.5494,197.9207,407.381,188.1178,407.9523,178.3149,407.0572,168.512,407.2049,158.7091,408.373,148.9062,408.1597,139.1033,408.4586,129.3003,407.4023,119.4974,408.0433,109.6945,408.3145,99.8916,407.2517,90.0887,407.6282,80.2858,407.85,70.4829,408.3758,60.68,407.7241,60.6795,407.7228,60.3147,407.6908,59.7608,407.202,59.3208,406.9883,59.0472,407.1762,58.5587,406.8454,58.3379,406.7539,58.5397,406.486,58.2708,406.0232,57.949,405.5384,57.7468,405.1032,57.68,404.7241,58.1388,404.7241,57.3807,394.9577,58.2719,385.1912,57.1273,375.4248,58.2974,365.6584,58.1643,355.892,57.925,346.1256,57.7272,336.3592,58.4066,326.5928,58.2936,316.8264,57.68,307.06,57.7321,307.0816,57.9383,306.6699,57.9914,306.1949,58.4278,305.8786,58.4306,305.3827,58.5587,304.9387,58.5807,304.9918,58.9053,304.5756,59.3555,304.4624,59.8992,304.5749,60.3106,304.3681,60.68,304.06" style="stroke:#FF6F00;stroke-width:2;"/><path d="M57.68,333.1928 L57.68,333.4731 L67.8358,332.6404 L77.9917,333.4505 L88.1475,333.7257 L98.3034,332.2416 L108.4592,333.0892 L118.6151,332.6242 L128.7709,332.6815 L138.9268,333.1019 L149.0826,332.271 L159.2385,333.931 L169.3943,332.3524 L179.5502,332.9291 L189.706,333.7687 L199.8619,333.0784 L210.0177,333.2838 L220.1736,333.1502 L230.3294,333.1928" fill="#0000FF" style="stroke:#FF6F00;stroke-width:2;"/><text fill="#FFFFFF" font-family="'Roboto'" font-size="13" lengthAdjust="spacing" textLength="56.5322" x="115.7386" y="323.1269">Discover</text><text fill="#FFFFFF" font-family="'Roboto'" font-size="13" lengthAdjust="spacing" textLength="134.0435" x="64.68" y="352.2597">- strategic use cases</text><text fill="#FFFFFF" font-family="'Roboto'" font-size="13" lengthAdjust="spacing" textLength="136.3032" x="64.68" y="367.3925">- initial use case tree</text><text fill="#FFFFFF" font-family="'Roboto'" font-size="13" lengthAdjust="spacing" textLength="140.0801" x="64.68" y="382.5253">- business knowledge</text><text fill="#FFFFFF" font-family="'Roboto'" font-size="13" lengthAdjust="spacing" textLength="148.6494" x="64.68" y="397.6581">- priorities &amp; outcomes</text></g><g><polygon fill="#008000" points="34.35,448.72,34.35,448.9302,44.3183,448.3057,54.2867,448.9133,64.255,449.1197,74.2233,448.0066,84.1916,448.6423,94.16,448.2935,104.1283,448.3365,114.0966,448.6518,124.065,448.0286,134.0333,449.2736,144.0016,448.0897,153.9699,448.5222,163.9383,449.1519,173.9066,448.6342,183.8749,448.7882,193.8433,448.6881,203.8116,448.8985,213.7799,448.9591,223.7482,449.3057,233.7166,449.3911,243.6849,449.3993,253.6532,448.72,253.6857,448.7984,254.1366,449.0385,254.5913,449.2877,254.834,449.0251,255.4368,449.6319,255.7745,449.5987,255.6832,449.5609,256.1147,450.091,255.9736,450.3841,256.2807,450.8627,256.7059,451.3903,256.6532,451.72,256.6045,451.72,256.7585,461.4864,256.9919,471.2528,257.0695,481.0192,256.6493,490.7856,256.9404,500.552,256.0808,510.3184,256.9376,520.0848,257.2014,529.8512,257.0978,539.6177,256.6532,549.3841,256.842,549.4623,256.3287,549.7467,256.1009,550.1494,255.9346,550.5776,255.9321,551.0736,255.7745,551.5054,255.7495,551.4449,255.4372,551.891,254.9037,551.8031,254.458,551.9269,254.1066,552.2786,253.6532,552.3841,253.6532,551.7172,243.6849,551.8649,233.7166,553.033,223.7482,552.8197,213.7799,553.1186,203.8116,552.0623,193.8433,552.7033,183.8749,552.9745,173.9066,551.9117,163.9383,552.2882,153.9699,552.51,144.0016,553.0358,134.0333,552.3799,124.065,552.8466,114.0966,551.8303,104.1283,551.7068,94.16,552.8877,84.1916,551.6671,74.2233,552.893,64.255,552.5907,54.2867,552.1161,44.3183,552.0303,34.35,552.3841,34.4085,552.5253,33.8876,552.1161,33.577,552.2149,33.0067,551.6866,32.7317,551.8713,32.2287,551.5054,32.3778,551.5672,32.1284,551.1124,31.8917,550.6629,31.9252,550.3253,31.7147,549.8866,31.35,549.3841,31.5193,549.3841,31.6182,539.6177,31.2197,529.8512,32.0665,520.0848,31.5049,510.3184,31.5226,500.552,30.7416,490.7856,30.9448,481.0192,31.8807,471.2528,31.7798,461.4864,31.35,451.72,31.3368,451.7145,31.4265,451.2546,31.6341,450.8435,31.6659,450.3597,32.1807,450.0758,32.2287,449.5987,32.323,449.8264,32.7201,449.5851,33.1659,449.4612,33.484,449.0294,33.9369,448.9226,34.35,448.72" style="stroke:#FF6F00;stroke-width:2;"/><path d="M31.35,477.8528 L31.35,478.1331 L41.1458,477.3004 L50.9416,478.1105 L60.7374,478.3857 L70.5332,476.9016 L80.329,477.7492 L90.1248,477.2842 L99.9205,477.3415 L109.7163,477.7619 L119.5121,476.931 L129.3079,478.591 L139.1037,477.0124 L148.8995,477.5891 L158.6953,478.4287 L168.4911,477.7384 L178.2869,477.9438 L188.0827,477.8102 L197.8785,478.0908 L207.6743,478.1717 L217.4701,478.6337 L227.2658,478.7476 L237.0616,478.7585 L246.8574,478.1923 L256.6532,477.8528" fill="#008000" style="stroke:#FF6F00;stroke-width:2;"/><text fill="#FFFFFF" font-family="'Roboto'" font-size="13" lengthAdjust="spacing" textLength="43.9829" x="122.0102" y="467.7869">Assess</text><text fill="#FFFFFF" font-family="'Roboto'" font-size="13" lengthAdjust="spacing" textLength="93.2979" x="38.35" y="496.9197">- current state</text><text fill="#FFFFFF" font-family="'Roboto'" font-size="13" lengthAdjust="spacing" textLength="134.0879" x="38.35" y="512.0525">- required next state</text><text fill="#FFFFFF" font-family="'Roboto'" font-size="13" lengthAdjust="spacing" textLength="201.3032" x="38.35" y="527.1853">- maturity (buss/org/data/tech)</text><text fill="#FFFFFF" font-family="'Roboto'" font-size="13" lengthAdjust="spacing" textLength="155.3525" x="38.35" y="542.3181">- scalability assessment</text></g><g><polygon fill="#FFFF00" points="69.36,605.39,69.36,605.6002,79.3197,604.9757,89.2794,605.5833,99.2392,605.7897,109.1989,604.6766,119.1586,605.3123,129.1183,604.9635,139.078,605.0065,149.0377,605.3218,158.9975,604.6986,168.9572,605.9436,178.9169,604.7597,188.8766,605.1922,198.8363,605.8219,208.796,605.3042,218.7558,605.4582,228.7155,605.3581,238.6752,605.5685,248.6349,605.39,248.6654,605.4636,249.1339,605.7461,249.569,605.9481,249.9943,606.1264,250.3644,606.1714,250.7562,606.2687,250.899,606.3278,251.1482,606.7825,250.8856,607.0252,251.4924,607.628,251.3679,607.9279,251.6349,608.39,252.1687,608.39,251.1399,618.1564,251.5664,627.9228,252.3765,637.6892,251.5862,647.4556,251.7402,657.222,251.9735,666.9884,252.0511,676.7548,251.631,686.5213,251.9221,696.2877,251.6349,706.0541,251.4586,705.981,251.5467,706.5146,251.4523,706.9725,251.2446,707.3836,251.1207,707.8293,250.7562,708.1754,250.6946,708.0266,250.2488,708.1503,249.8284,708.3355,249.4759,708.6845,249.0341,708.8178,248.6349,709.0541,248.6349,709.7355,238.6752,708.8794,228.7155,708.711,218.7558,709.2823,208.796,708.3872,198.8363,708.5349,188.8766,709.703,178.9169,709.4897,168.9572,709.7886,158.9975,708.7323,149.0377,709.3733,139.078,709.6445,129.1183,708.5817,119.1586,708.9582,109.1989,709.18,99.2392,709.7058,89.2794,709.0499,79.3197,709.5166,69.36,709.0541,69.2894,708.8835,68.8493,708.6698,68.5757,708.8577,67.9958,708.3061,67.7279,708.5079,67.2387,708.1754,67.3023,708.2017,66.9804,707.7169,66.7783,707.2817,66.8528,706.9611,66.4436,706.4401,66.36,706.0541,66.9519,706.0541,65.8073,696.2877,66.9774,686.5213,66.8443,676.7548,66.605,666.9884,66.4072,657.222,67.0866,647.4556,66.9736,637.6892,66.5293,627.9228,66.6282,618.1564,66.36,608.39,66.3199,608.3734,66.7564,608.0571,66.7592,607.5612,66.9404,607.1392,66.8756,606.6153,67.2387,606.2687,67.187,606.1439,67.7306,606.2564,68.142,606.0496,68.506,605.7283,68.8946,605.4665,69.36,605.39" style="stroke:#FF6F00;stroke-width:2;"/><path d="M66.36,634.5228 L66.36,634.8031 L76.1113,633.9704 L85.8626,634.7805 L95.6139,635.0557 L105.3652,633.5716 L115.1166,634.4192 L124.8679,633.9542 L134.6192,634.0115 L144.3705,634.4319 L154.1218,633.601 L163.8731,635.261 L173.6244,633.6824 L183.3757,634.2591 L193.127,635.0987 L202.8783,634.4084 L212.6297,634.6138 L222.381,634.4802 L232.1323,634.7608 L241.8836,634.8417 L251.6349,634.5228" fill="#FFFF00" style="stroke:#FF6F00;stroke-width:2;"/><text fill="#FFFFFF" font-family="'Roboto'" font-size="13" lengthAdjust="spacing" textLength="35.7246" x="141.1351" y="624.4569">Chart</text><text fill="#FFFFFF" font-family="'Roboto'" font-size="13" lengthAdjust="spacing" textLength="110.4873" x="73.36" y="653.5897">- viable roadmap</text><text fill="#FFFFFF" font-family="'Roboto'" font-size="13" lengthAdjust="spacing" textLength="99.4995" x="73.36" y="668.7225">- business case</text><text fill="#FFFFFF" font-family="'Roboto'" font-size="13" lengthAdjust="spacing" textLength="161.2749" x="73.36" y="683.8553">- stakeholder agreement</text><text fill="#FFFFFF" font-family="'Roboto'" font-size="13" lengthAdjust="spacing" textLength="67.0059" x="73.36" y="698.9881">- mandate</text></g><polygon fill="#222222" points="154.0552,91.6924,152.5894,93.6953,150.8556,96.6288,148.376,98.6058,145.7703,99.6869,143.6927,99.7807,141.0224,98.4287,138.5029,97.5454,136.5905,95.752,135.5873,93.6989,134.9924,92.0641,134.4096,89.9288,133.4636,88.0913,134.1906,86.2973,134.8275,84.332,137.2175,82.7777,138.8991,80.761,140.9804,80.0913,143.4547,79.5146,146.6276,79.8572,148.3655,80.6768,150.3861,81.0484,152.8429,83.5654,153.6993,86.2227,154.0714,88.0358,153.65,91.0235" style="stroke:#222222;stroke-width:1;"/><g><polygon fill="#4051B5" points="613.48,628.09,613.48,628.3002,623.0985,627.6757,632.717,628.2833,642.3355,628.4897,651.954,627.3766,661.5725,628.0123,671.191,627.6635,680.8095,627.7065,690.428,628.0218,700.0465,627.3986,709.665,628.6436,719.2835,627.4597,728.902,627.8922,738.5205,628.09,738.5756,628.223,738.9338,628.2393,739.3778,628.4625,739.7892,628.6074,740.2404,628.8479,740.6418,628.9687,740.7155,628.9992,740.998,629.4677,741.2,629.9028,741.3782,630.3281,741.4232,630.6982,741.5205,631.09,741.9841,631.09,742.2228,641.5431,740.7993,651.9962,742.199,662.4494,741.224,672.9025,741.5205,683.3556,741.6849,683.4237,741.1923,683.7167,741.148,684.1954,741.2217,684.723,740.8026,685.0465,740.6418,685.4769,740.6553,685.5094,740.2608,685.757,739.8464,685.9566,739.3686,686.003,738.9814,686.2683,738.5205,686.3556,738.5205,685.7832,728.902,686.64,719.2835,686.9038,709.665,686.8002,700.0465,686.9686,690.428,685.8725,680.8095,685.7034,671.191,685.7342,661.5725,686.2967,651.954,686.1591,642.3355,687.037,632.717,686.1809,623.0985,686.0126,613.48,686.3556,613.5091,686.4259,612.9707,685.9745,612.5653,685.8443,612.29,686.0283,611.8385,685.7868,611.3587,685.4769,611.5849,685.5706,611.0838,685.0116,611.1055,684.6691,611.0133,684.2795,610.5103,683.7196,610.48,683.3556,610.3841,683.3556,610.606,672.9025,611.1318,662.4494,610.4758,651.9962,610.9426,641.5431,610.48,631.09,610.3095,631.0194,610.4472,630.5793,610.9866,630.3057,610.7864,629.7258,611.3397,629.4579,611.3587,628.9687,611.385,629.0323,611.7488,628.7104,612.1621,628.5083,612.69,628.5828,613.0176,628.1736,613.48,628.09" style="stroke:#FF6F00;stroke-width:2;"/><path d="M610.48,657.2228 L610.48,657.5031 L620.56,656.6704 L630.6401,657.4805 L640.7201,657.7557 L650.8002,656.2716 L660.8802,657.1192 L670.9602,656.6542 L681.0403,656.7115 L691.1203,657.1319 L701.2004,656.301 L711.2804,657.961 L721.3604,656.3824 L731.4405,656.9591 L741.5205,657.2228" fill="#4051B5" style="stroke:#FF6F00;stroke-width:2;"/><text fill="#FFFFFF" font-family="'Roboto'" font-size="13" lengthAdjust="spacing" textLength="52.2793" x="649.8606" y="647.1569">Allocate</text><text fill="#FFFFFF" font-family="'Roboto'" font-size="13" lengthAdjust="spacing" textLength="107.0405" x="617.48" y="676.2897">- budget &amp; team</text></g><g><polygon fill="#4051B5" points="609.01,471.42,609.01,471.6302,619.0091,471.0057,629.0082,471.6133,639.0074,471.8197,649.0065,470.7066,659.0056,471.3423,669.0047,470.9935,679.0038,471.0365,689.003,471.3518,699.0021,470.7286,709.0012,471.9736,719.0003,470.7897,728.9995,471.2222,738.9986,471.8519,748.9977,471.3342,758.9968,471.42,759.0055,471.441,759.417,471.5859,759.8681,471.8265,760.3001,472.0209,760.7686,472.3033,761.1181,472.2987,761.3248,472.3843,761.5031,472.8096,761.548,473.1797,761.7881,473.6306,762.0373,474.0853,761.9968,474.42,761.2756,474.42,762.6753,484.8731,761.7003,495.3262,762.5306,505.7794,761.5018,516.2325,761.9968,526.6856,761.9757,526.6769,762.0495,527.2045,761.6303,527.5279,761.502,527.9718,761.3982,528.4259,761.1181,528.8069,761.1712,528.9351,760.6934,528.9815,760.3062,529.2469,759.7723,529.1579,759.4574,529.5975,758.9968,529.6856,758.9968,530.2338,748.9977,530.1302,738.9986,530.2986,728.9995,529.2025,719.0003,529.0334,709.0012,529.0642,699.0021,529.6267,689.003,529.4891,679.0038,530.367,669.0047,529.5109,659.0056,529.3426,649.0065,529.9139,639.0074,529.0188,629.0082,529.1665,619.0091,530.3346,609.01,529.6856,609.0656,529.8198,608.6794,529.7361,608.1204,529.2351,607.7779,529.2567,607.3883,529.1645,606.8887,528.8069,606.7432,528.7467,606.6834,528.3705,606.576,527.9745,606.5622,527.6173,606.1844,527.1094,606.01,526.6856,606.4726,526.6856,605.4562,516.2325,605.3327,505.7794,606.5136,495.3262,605.2931,484.8731,606.01,474.42,606.1667,474.4849,606.2494,474.0221,606.279,473.5373,606.4283,473.1021,606.8542,472.7815,606.8887,472.2987,606.8505,472.2065,607.3884,472.3052,607.6667,471.777,608.2402,471.9616,608.6475,471.7449,609.01,471.42" style="stroke:#FF6F00;stroke-width:2;"/><path d="M606.01,500.5528 L606.01,500.8331 L615.7592,500.0004 L625.5084,500.8105 L635.2575,501.0857 L645.0067,499.6016 L654.7559,500.4492 L664.5051,499.9842 L674.2542,500.0415 L684.0034,500.4619 L693.7526,499.631 L703.5018,501.291 L713.2509,499.7124 L723.0001,500.2891 L732.7493,501.1287 L742.4985,500.4384 L752.2476,500.6438 L761.9968,500.5528" fill="#4051B5" style="stroke:#FF6F00;stroke-width:2;"/><text fill="#FFFFFF" font-family="'Roboto'" font-size="13" lengthAdjust="spacing" textLength="70.3574" x="648.8247" y="490.4869">Implement</text><text fill="#FFFFFF" font-family="'Roboto'" font-size="13" lengthAdjust="spacing" textLength="131.9868" x="613.01" y="519.6197">- detail the use case</text></g><g><polygon fill="#4051B5" points="616.83,319.19,616.83,319.4002,626.5854,318.7757,636.3407,319.3833,646.0961,319.5897,655.8515,318.4766,665.6069,319.1123,675.3622,318.7635,685.1176,318.8065,694.873,319.1218,704.6283,318.4986,714.3837,319.7436,724.1391,318.5597,733.8945,318.9922,743.6498,319.6219,753.4052,319.1042,763.1606,319.19,763.1693,319.211,763.5808,319.3559,764.0319,319.5965,764.4639,319.7909,764.9323,320.0733,765.2819,320.0687,765.4885,320.1543,765.6668,320.5796,765.7118,320.9497,765.9519,321.4006,766.2011,321.8553,766.1606,322.19,765.4394,322.19,766.8391,331.8183,765.8641,341.4467,766.6944,351.075,765.6655,360.7034,766.0921,370.3317,766.9022,379.9601,766.1606,389.5884,766.1456,389.5822,766.0173,390.0261,765.9134,390.4802,765.7615,390.9143,765.4564,391.285,765.2819,391.7098,765.3185,391.7982,764.7846,391.7092,764.4696,392.1488,764.079,392.4058,763.6415,392.5496,763.1606,392.5884,763.1606,393.2015,753.4052,392.1054,743.6498,391.9363,733.8945,391.967,724.1391,392.5296,714.3837,392.3919,704.6283,393.2698,694.873,392.4138,685.1176,392.2454,675.3622,392.8167,665.6069,391.9216,655.8515,392.0693,646.0961,393.2374,636.3407,393.0241,626.5854,393.3229,616.83,392.5884,616.789,392.4893,616.4465,392.511,616.0568,392.4188,615.4969,391.9157,615.1207,391.856,614.7087,391.7098,614.7475,391.7258,614.7337,391.3686,614.3559,390.8607,614.3239,390.496,613.8352,389.9421,613.83,389.5884,613.1527,389.5884,614.3336,379.9601,613.1131,370.3317,614.339,360.7034,614.0366,351.075,613.5621,341.4467,613.4762,331.8183,613.83,322.19,613.9713,322.2485,613.9136,321.7276,614.3637,321.417,614.187,320.8467,614.7231,320.5717,614.7087,320.0687,614.7705,320.2178,615.1642,319.9684,615.5632,319.7317,616.0742,319.7652,616.484,319.5547,616.83,319.19" style="stroke:#FF6F00;stroke-width:2;"/><path d="M613.83,348.3228 L613.83,348.6031 L623.9854,347.7704 L634.1407,348.5805 L644.2961,348.8557 L654.4515,347.3716 L664.6069,348.2192 L674.7622,347.7542 L684.9176,347.8115 L695.073,348.2319 L705.2283,347.401 L715.3837,349.061 L725.5391,347.4824 L735.6945,348.0591 L745.8498,348.8987 L756.0052,348.2084 L766.1606,348.3228" fill="#4051B5" style="stroke:#FF6F00;stroke-width:2;"/><text fill="#FFFFFF" font-family="'Roboto'" font-size="13" lengthAdjust="spacing" textLength="27.8091" x="676.0907" y="338.2569">Test</text><text fill="#FFFFFF" font-family="'Roboto'" font-size="13" lengthAdjust="spacing" textLength="128.3306" x="620.83" y="367.3897">- add test scenarios</text><text fill="#FFFFFF" font-family="'Roboto'" font-size="13" lengthAdjust="spacing" textLength="93.3486" x="620.83" y="382.5225">- full coverage</text></g><g><polygon fill="#4051B5" points="613.88,189.66,613.88,189.8702,623.6454,189.2457,633.4107,189.8533,643.1761,190.0597,652.9414,188.9466,662.7068,189.5823,672.4721,189.2335,682.2375,189.2765,692.0028,189.5918,701.7682,188.9686,711.5335,190.2136,721.2989,189.0297,731.0642,189.4622,740.8296,190.0919,750.5949,189.5742,760.3603,189.7282,770.1256,189.66,770.1215,189.6502,770.5726,189.8907,771.0046,190.0851,771.4731,190.3676,771.9083,190.5696,772.2469,190.5387,772.4561,190.6253,772.5011,190.9954,772.7412,191.4463,772.9904,191.901,772.7278,192.1437,773.1256,192.66,773.8041,192.66,772.8291,203.1131,773.6594,213.5662,772.6306,224.0194,773.0571,234.4725,773.1256,244.9256,773.354,245.0202,772.9349,245.3437,772.8066,245.7876,772.7027,246.2416,772.5508,246.6758,772.2469,247.0469,772.2464,247.0457,771.8593,247.3111,771.3254,247.2221,771.0104,247.6617,770.6198,247.9187,770.1256,247.9256,770.1256,248.3702,760.3603,248.5386,750.5949,247.4425,740.8296,247.2734,731.0642,247.3042,721.2989,247.8667,711.5335,247.7291,701.7682,248.607,692.0028,247.7509,682.2375,247.5826,672.4721,248.1539,662.7068,247.2588,652.9414,247.4065,643.1761,248.5746,633.4107,248.3613,623.6454,248.6601,613.88,247.9256,613.839,247.8265,613.4965,247.8482,613.1068,247.756,612.5469,247.2529,612.1707,247.1932,611.7587,247.0469,611.7975,247.063,611.7837,246.7058,611.4059,246.1979,611.3739,245.8332,610.8852,245.2792,610.88,244.9256,610.2027,244.9256,611.3836,234.4725,610.1631,224.0194,611.389,213.5662,611.0866,203.1131,610.88,192.66,610.7975,192.6258,610.9468,192.1906,611.3728,191.87,611.315,191.349,611.7652,191.0384,611.7587,190.5387,611.6882,190.3685,612.2617,190.5531,612.669,190.3364,613.0627,190.0869,613.4618,189.8503,613.88,189.66" style="stroke:#FF6F00;stroke-width:2;"/><path d="M610.88,218.7928 L610.88,219.0731 L621.0204,218.2404 L631.1607,219.0505 L641.3011,219.3257 L651.4414,217.8416 L661.5818,218.6892 L671.7221,218.2242 L681.8625,218.2815 L692.0028,218.7019 L702.1432,217.871 L712.2835,219.531 L722.4239,217.9524 L732.5642,218.5291 L742.7046,219.3687 L752.8449,218.6784 L762.9853,218.8838 L773.1256,218.7928" fill="#4051B5" style="stroke:#FF6F00;stroke-width:2;"/><text fill="#FFFFFF" font-family="'Roboto'" font-size="13" lengthAdjust="spacing" textLength="38.1177" x="672.944" y="208.7269">Verify</text><text fill="#FFFFFF" font-family="'Roboto'" font-size="13" lengthAdjust="spacing" textLength="138.2456" x="617.88" y="237.8597">- verify with business</text></g><g><polygon fill="#4051B5" points="606.33,45,606.33,45.2102,616.1898,44.5857,626.0496,45.1933,635.9094,45.3997,645.7692,44.2866,655.6291,44.9223,665.4889,44.5735,675.3487,44.6165,685.2085,44.9318,695.0683,44.3086,704.9281,45.5536,714.7879,44.3697,724.6477,44.8022,734.5076,45.4319,744.3674,44.9142,754.2272,45.0682,764.087,44.9681,773.9468,45.1785,783.8066,45.2391,793.6664,45,793.7411,45.1804,794.1763,45.3824,794.6016,45.5607,794.9717,45.6056,795.4226,45.8457,795.7877,45.8787,796.004,45.9683,795.7414,46.2109,796.3482,46.8138,796.2236,47.1136,796.6551,47.6438,796.6664,48,796.1714,48,796.5979,58.3164,797.408,68.6328,796.6177,78.9492,796.7717,89.2656,797.0051,99.582,797.0827,109.8984,796.6625,120.2148,796.6664,130.5313,796.7549,130.5679,796.3144,130.8825,796.4025,131.4161,796.308,131.874,796.1004,132.285,795.7877,132.6526,795.8659,132.8414,795.3019,132.6795,794.856,132.8032,794.4357,132.9884,794.0832,133.3374,793.6664,133.5313,793.6664,133.3347,783.8066,134.2127,773.9468,133.3566,764.087,133.1882,754.2272,133.7595,744.3674,132.8644,734.5076,133.0121,724.6477,134.1802,714.7879,133.9669,704.9281,134.2657,695.0683,133.2095,685.2085,133.8504,675.3487,134.1217,665.4889,133.0588,655.6291,133.4354,645.7692,133.6572,635.9094,134.183,626.0496,133.5271,616.1898,133.9938,606.33,133.5313,606.2594,133.3607,605.8193,133.1469,605.5457,133.3349,604.9658,132.7833,604.6979,132.985,604.2087,132.6526,604.2723,132.6789,603.9504,132.1941,603.7483,131.7589,603.8228,131.4383,603.4136,130.9173,603.33,130.5313,603.9219,130.5313,602.7773,120.2148,603.9474,109.8984,603.8143,99.582,603.575,89.2656,603.3772,78.9492,604.0566,68.6328,603.9436,58.3164,603.33,48,603.3821,48.0216,603.5883,47.6099,603.6414,47.1349,604.0778,46.8186,604.0806,46.3227,604.2087,45.8787,604.2307,45.9318,604.5553,45.5156,605.0055,45.4024,605.5492,45.5149,605.9606,45.3081,606.33,45" style="stroke:#FF6F00;stroke-width:2;"/><path d="M603.33,74.1328 L603.33,74.4131 L613.5056,73.5804 L623.6812,74.3905 L633.8568,74.6657 L644.0324,73.1816 L654.208,74.0292 L664.3836,73.5642 L674.5592,73.6215 L684.7348,74.0419 L694.9104,73.211 L705.086,74.871 L715.2616,73.2924 L725.4372,73.8691 L735.6128,74.7087 L745.7884,74.0184 L755.964,74.2238 L766.1396,74.0902 L776.3152,74.3708 L786.4908,74.4517 L796.6664,74.1328" fill="#4051B5" style="stroke:#FF6F00;stroke-width:2;"/><text fill="#FFFFFF" font-family="'Roboto'" font-size="13" lengthAdjust="spacing" textLength="46.2681" x="676.8642" y="64.0669">Deliver</text><text fill="#FFFFFF" font-family="'Roboto'" font-size="13" lengthAdjust="spacing" textLength="149.2715" x="610.33" y="93.1997">- continuously improve</text><text fill="#FFFFFF" font-family="'Roboto'" font-size="13" lengthAdjust="spacing" textLength="169.3364" x="610.33" y="108.3325">- deliver small increments</text><text fill="#FFFFFF" font-family="'Roboto'" font-size="13" lengthAdjust="spacing" textLength="75.8735" x="610.33" y="123.4653">- frequently</text></g><g><polygon fill="#4051B5" points="340.41,45,340.41,45.2102,350.569,44.5857,360.728,45.1933,370.887,45.3997,381.046,44.2866,391.205,44.9223,401.3641,44.5735,411.5231,44.6165,421.6821,44.9318,431.8411,44.3086,442.0001,45.5536,452.1591,44.3697,462.3181,44.8022,472.4771,45.4319,482.6361,44.9142,492.7951,45.0682,502.9541,44.9681,513.1131,45.1785,523.2722,45.2391,533.4312,45.5857,543.5902,45,543.6758,45.2067,544.1011,45.3849,544.4712,45.4299,544.9221,45.67,545.3768,45.9192,545.7115,45.8787,545.4894,45.7867,546.0962,46.3895,545.9717,46.6894,546.4031,47.2196,546.262,47.5126,546.5902,48,546.5217,48,547.3318,58.3164,546.5414,68.6328,546.6955,78.9492,546.9288,89.2656,547.0064,99.582,546.5863,109.8984,546.8774,120.2148,546.5902,130.5313,546.4139,130.4582,546.502,130.9918,546.4075,131.4497,546.1999,131.8607,546.076,132.3065,545.7115,132.6526,545.6499,132.5038,545.204,132.6275,544.7837,132.8127,544.4312,133.1616,543.9894,133.295,543.5902,133.5313,543.5902,134.2127,533.4312,133.3566,523.2722,133.1882,513.1131,133.7595,502.9541,132.8644,492.7951,133.0121,482.6361,134.1802,472.4771,133.9669,462.3181,134.2657,452.1591,133.2095,442.0001,133.8504,431.8411,134.1217,421.6821,133.0588,411.5231,133.4354,401.3641,133.6572,391.205,134.183,381.046,133.5271,370.887,133.9938,360.728,132.9775,350.569,132.854,340.41,133.5313,340.4742,133.6863,339.8943,133.1347,339.6264,133.3365,339.1636,133.0677,338.6788,132.7458,338.2887,132.6526,338.1797,132.6074,338.2542,132.2868,337.845,131.7659,337.9437,131.4553,337.4155,130.885,337.41,130.5313,338.0274,130.5313,337.8943,120.2148,337.655,109.8984,337.4572,99.582,338.1366,89.2656,338.0236,78.9492,337.5793,68.6328,337.6782,58.3164,337.41,48,337.3699,47.9834,337.8064,47.6671,337.8092,47.1712,337.9904,46.7492,337.9256,46.2253,338.2887,45.8787,338.237,45.7539,338.7806,45.8664,339.192,45.6596,339.556,45.3383,339.9446,45.0765,340.41,45" style="stroke:#FF6F00;stroke-width:2;"/><path d="M337.41,74.1328 L337.41,74.4131 L347.371,73.5804 L357.3319,74.3905 L367.2929,74.6657 L377.2538,73.1816 L387.2148,74.0292 L397.1758,73.5642 L407.1367,73.6215 L417.0977,74.0419 L427.0586,73.211 L437.0196,74.871 L446.9806,73.2924 L456.9415,73.8691 L466.9025,74.7087 L476.8635,74.0184 L486.8244,74.2238 L496.7854,74.0902 L506.7463,74.3708 L516.7073,74.4517 L526.6683,74.9137 L536.6292,75.0276 L546.5902,74.1328" fill="#4051B5" style="stroke:#FF6F00;stroke-width:2;"/><text fill="#FFFFFF" font-family="'Roboto'" font-size="13" lengthAdjust="spacing" textLength="45.519" x="419.2406" y="64.0669">Deploy</text><text fill="#FFFFFF" font-family="'Roboto'" font-size="13" lengthAdjust="spacing" textLength="185.1802" x="344.41" y="93.1997">- as "Infrastructure as Code"</text><text fill="#FFFFFF" font-family="'Roboto'" font-size="13" lengthAdjust="spacing" textLength="174.167" x="344.41" y="108.3325">- "continuous deployment"</text><text fill="#FFFFFF" font-family="'Roboto'" font-size="13" lengthAdjust="spacing" textLength="111.9219" x="344.41" y="123.4653">- fully automated</text></g><g><polygon fill="#4051B5" points="356.21,304.06,356.21,304.2702,366.309,303.6457,376.408,304.2533,386.507,304.4597,396.606,303.3466,406.705,303.9823,416.804,303.6335,426.903,303.6765,437.002,303.9918,447.101,303.3686,457.2,304.6136,467.299,303.4297,477.398,303.8622,487.497,304.4919,497.596,303.9742,507.695,304.1282,517.794,304.06,517.7899,304.0502,518.241,304.2907,518.673,304.4851,519.1415,304.7676,519.5766,304.9696,519.9153,304.9387,520.1245,305.0253,520.1695,305.3954,520.4095,305.8463,520.6588,306.301,520.3962,306.5437,520.794,307.06,521.4725,307.06,520.4975,316.8264,521.3278,326.5928,520.299,336.3592,520.7255,346.1256,521.5356,355.892,520.7452,365.6584,520.8993,375.4248,521.1326,385.1912,521.2102,394.9577,520.794,404.7241,520.7928,404.7236,520.7067,405.185,520.2662,405.4996,520.3544,406.0331,520.2599,406.491,519.9153,406.8454,519.972,406.9823,519.5692,407.2099,519.0052,407.0481,518.5593,407.1717,518.139,407.357,517.794,407.7241,517.794,407.6652,507.695,407.5275,497.596,408.4055,487.497,407.5494,477.398,407.381,467.299,407.9523,457.2,407.0572,447.101,407.2049,437.002,408.373,426.903,408.1597,416.804,408.4586,406.705,407.4023,396.606,408.0433,386.507,408.3145,376.408,407.2517,366.309,407.6282,356.21,407.7241,356.2261,407.7629,355.8689,407.749,355.3609,407.3713,354.9962,407.3393,354.4423,406.8506,354.0887,406.8454,353.8801,406.759,354.068,406.4854,353.5164,405.9054,353.7182,405.6375,353.4494,405.1747,353.21,404.7241,352.9421,404.7241,352.8562,394.9577,353.6688,385.1912,352.9107,375.4248,353.8019,365.6584,352.6573,355.892,353.8274,346.1256,353.6943,336.3592,353.455,326.5928,353.2572,316.8264,353.21,307.06,353.4338,307.1527,353.5747,306.714,353.6136,306.2331,353.8198,305.8214,353.8728,305.3463,354.0887,304.9387,354.1801,305.1593,354.5327,304.8106,354.9592,304.6404,355.2839,304.2241,355.734,304.1109,356.21,304.06" style="stroke:#FF6F00;stroke-width:2;"/><path d="M353.21,333.1928 L353.21,333.4731 L363.0679,332.6404 L372.9258,333.4505 L382.7836,333.7257 L392.6415,332.2416 L402.4994,333.0892 L412.3573,332.6242 L422.2152,332.6815 L432.0731,333.1019 L441.9309,332.271 L451.7888,333.931 L461.6467,332.3524 L471.5046,332.9291 L481.3625,333.7687 L491.2203,333.0784 L501.0782,333.2838 L510.9361,333.1502 L520.794,333.1928" fill="#4051B5" style="stroke:#FF6F00;stroke-width:2;"/><text fill="#FFFFFF" font-family="'Roboto'" font-size="13" lengthAdjust="spacing" textLength="55.5356" x="409.2342" y="323.1269">Measure</text><text fill="#FFFFFF" font-family="'Roboto'" font-size="13" lengthAdjust="spacing" textLength="92.3076" x="360.21" y="352.2597">- performance</text><text fill="#FFFFFF" font-family="'Roboto'" font-size="13" lengthAdjust="spacing" textLength="79.5171" x="360.21" y="367.3925">- availability</text><text fill="#FFFFFF" font-family="'Roboto'" font-size="13" lengthAdjust="spacing" textLength="89.7939" x="360.21" y="382.5253">- vulnerability</text><text fill="#FFFFFF" font-family="'Roboto'" font-size="13" lengthAdjust="spacing" textLength="143.584" x="360.21" y="397.6581">- business outcome(s)</text></g><g><polygon fill="#4051B5" points="341.28,448.72,341.28,448.9302,351.0399,448.3057,360.7998,448.9133,370.5598,449.1197,380.3197,448.0066,390.0796,448.6423,399.8395,448.2935,409.5994,448.3365,419.3594,448.6518,429.1193,448.0286,438.8792,449.2736,448.6391,448.0897,458.399,448.5222,468.159,449.1519,477.9189,448.6342,487.6788,448.7882,497.4387,448.6881,507.1986,448.8985,516.9586,448.9591,526.7185,448.72,526.7932,448.9004,527.2283,449.1024,527.6537,449.2807,528.0237,449.3256,528.4747,449.5657,528.8398,449.5987,529.0561,449.6883,528.7934,449.9309,529.4002,450.5338,529.2757,450.8336,529.7071,451.3638,529.7185,451.72,529.2235,451.72,529.65,461.4864,530.4601,471.2528,529.6697,481.0192,529.8238,490.7856,530.0571,500.552,530.1347,510.3184,529.7146,520.0848,530.0057,529.8512,529.1461,539.6177,529.7185,549.3841,529.8061,549.4203,529.7116,549.8783,529.5039,550.2893,529.3801,550.7351,528.8668,551.0195,528.8398,551.5054,528.7566,551.3045,528.3363,551.4898,527.9838,551.8387,527.5419,551.9721,527.2297,552.4182,526.7185,552.3841,526.7185,552.2094,516.9586,552.041,507.1986,552.6123,497.4387,551.7172,487.6788,551.8649,477.9189,553.033,468.159,552.8197,458.399,553.1186,448.6391,552.0623,438.8792,552.7033,429.1193,552.9745,419.3594,551.9117,409.5994,552.2882,399.8395,552.51,390.0796,553.0358,380.3197,552.3799,370.5598,552.8466,360.7998,551.8303,351.0399,551.7068,341.28,552.3841,341.3442,552.5392,340.7643,551.9875,340.4964,552.1893,340.0336,551.9205,339.5488,551.5986,339.1587,551.5054,339.0497,551.4603,339.1242,551.1396,338.715,550.6187,338.8137,550.3081,338.2855,549.7378,338.28,549.3841,338.8974,549.3841,338.7643,539.6177,338.525,529.8512,338.3272,520.0848,339.0066,510.3184,338.8936,500.552,338.4493,490.7856,338.5482,481.0192,338.1497,471.2528,338.9965,461.4864,338.28,451.72,338.3277,451.7398,338.5089,451.3177,338.4441,450.7939,338.6824,450.3955,339.1464,450.0906,339.1587,449.5987,339.2135,449.731,339.5775,449.4097,339.9661,449.148,340.4035,449.0041,340.7682,448.6844,341.28,448.72" style="stroke:#FF6F00;stroke-width:2;"/><path d="M338.28,477.8528 L338.28,478.1331 L348.3557,477.3004 L358.4314,478.1105 L368.5071,478.3857 L378.5828,476.9016 L388.6585,477.7492 L398.7343,477.2842 L408.81,477.3415 L418.8857,477.7619 L428.9614,476.931 L439.0371,478.591 L449.1128,477.0124 L459.1885,477.5891 L469.2642,478.4287 L479.3399,477.7384 L489.4156,477.9438 L499.4913,477.8102 L509.5671,478.0908 L519.6428,478.1717 L529.7185,477.8528" fill="#4051B5" style="stroke:#FF6F00;stroke-width:2;"/><text fill="#FFFFFF" font-family="'Roboto'" font-size="13" lengthAdjust="spacing" textLength="58.2905" x="404.854" y="467.7869">Optimize</text><text fill="#FFFFFF" font-family="'Roboto'" font-size="13" lengthAdjust="spacing" textLength="167.4385" x="345.28" y="496.9197">- structural feedback loop</text><text fill="#FFFFFF" font-family="'Roboto'" font-size="13" lengthAdjust="spacing" textLength="149.2715" x="345.28" y="512.0525">- continuously improve</text><text fill="#FFFFFF" font-family="'Roboto'" font-size="13" lengthAdjust="spacing" textLength="141.5591" x="345.28" y="527.1853">- continuously update</text><text fill="#FFFFFF" font-family="'Roboto'" font-size="13" lengthAdjust="spacing" textLength="87.5977" x="357.677" y="542.3181">use case tree</text></g><g><polygon fill="#4051B5" points="405.56,193.79,405.56,194.0002,415.687,193.3757,425.8139,193.9833,435.9409,194.1897,446.0678,193.0766,456.1948,193.7123,466.3217,193.3635,476.4487,193.79,476.3998,193.6719,476.8642,193.9447,477.209,193.9286,477.7921,194.4877,478.0653,194.2988,478.57,194.6687,478.5091,194.6435,478.8788,195.148,478.895,195.5063,479.1182,195.9502,479.2631,196.3617,479.4487,196.79,479.5082,196.79,479.5284,205.59,479.6439,214.39,479.6724,223.19,479.6751,231.99,479.4487,240.79,479.5271,240.8225,479.4157,241.2734,479.3135,241.7281,478.6994,241.9708,478.9547,242.5736,478.57,242.9113,478.5322,242.82,478.2138,243.2514,477.6583,243.1103,477.2885,243.4174,476.9675,243.8426,476.4487,243.79,476.4487,243.7413,466.3217,243.8953,456.1948,244.1286,446.0678,244.2062,435.9409,243.7861,425.8139,244.0772,415.687,243.2176,405.56,243.79,405.5963,243.8776,405.2057,243.7831,404.7682,243.5754,404.3654,243.4516,403.8013,242.9383,403.4387,242.9113,403.2378,242.8281,403.0716,242.4078,403.0691,242.0553,402.8509,241.6135,402.9456,241.3012,402.56,240.79,402.5018,240.79,402.4456,231.99,402.6361,223.19,402.3377,214.39,402.387,205.59,402.56,196.79,402.7599,196.8728,402.8699,196.4213,403.1377,196.0352,402.9881,195.4762,403.3612,195.1337,403.4387,194.6687,403.514,194.8505,403.8027,194.3475,404.275,194.2877,404.7275,194.1803,405.2189,194.1665,405.56,193.79" style="stroke:#FF6F00;stroke-width:2;"/><path d="M402.56,222.9228 L402.56,223.2031 L412.1711,222.3704 L421.7822,223.1805 L431.3933,223.4557 L441.0043,221.9716 L450.6154,222.8192 L460.2265,222.3542 L469.8376,222.4115 L479.4487,222.9228" fill="#4051B5" style="stroke:#FF6F00;stroke-width:2;"/><text fill="#FFFFFF" font-family="'Roboto'" font-size="13" lengthAdjust="spacing" textLength="52.8887" x="414.56" y="212.8569">Operate</text></g><!--link *start*Planxs to Envision--><g class="link" data-entity-1="ent0002" data-entity-2="ent0003" data-link-type="dependency" data-source-line="68" id="lnk3"><path d="M144,99.43 L144.2802,99.43 L143.4476,109.24 L144.2577,119.05 L144.5329,128.86 L143.0488,138.67 L143.8964,148.48 L143.4313,158.29 L144,168.1" fill="none" style="stroke:#FF6F00;stroke-width:2;"/><polygon fill="#FF6F00" points="144,174.1,144.064,174.1285,144.6738,172.2439,145.6589,170.5262,146.5217,168.7541,146.9827,166.8034,148,165.1,147.9817,165.0817,147.0995,165.7995,146.3096,166.6096,145.5839,167.4839,144.637,168.137,144,169.1,144.1305,169.2305,143.0514,168.1514,142.3534,167.4534,141.7018,166.8018,140.7798,165.8798,140,165.1,140.0208,165.1092,140.7903,166.8957,141.6544,168.7242,142.4728,170.5324,143.3784,172.3793,144,174.1" style="stroke:#FF6F00;stroke-width:2;"/></g><!--link Envision to Discover--><g class="link" data-entity-1="ent0003" data-entity-2="ent0004" data-link-type="dependency" data-source-line="70" id="lnk4"><path d="M144,263.28 L144.0934,263.28 L143.8159,270.214 L144.0859,277.148 L144.1776,284.082 L143.6829,291.016 L144,297.95" fill="none" style="stroke:#FF6F00;stroke-width:2;"/><polygon fill="#FF6F00" points="144,303.95,144.064,303.9785,144.6738,302.0939,145.6589,300.3762,146.5217,298.6041,146.9827,296.6534,148,294.95,147.9817,294.9317,147.0995,295.6495,146.3096,296.4596,145.5839,297.3339,144.637,297.987,144,298.95,144.1305,299.0805,143.0514,298.0014,142.3534,297.3034,141.7018,296.6518,140.7798,295.7298,140,294.95,140.0208,294.9592,140.7903,296.7457,141.6544,298.5742,142.4728,300.3824,143.3784,302.2293,144,303.95" style="stroke:#FF6F00;stroke-width:2;"/></g><!--link Discover to Assess--><g class="link" data-entity-1="ent0004" data-entity-2="ent0005" data-link-type="dependency" data-source-line="71" id="lnk5"><path d="M144,407.99 L144.0934,407.99 L143.8159,414.858 L144.0859,421.726 L144.1776,428.594 L143.6829,435.462 L144,442.33" fill="none" style="stroke:#FF6F00;stroke-width:2;"/><polygon fill="#FF6F00" points="144,448.33,144.064,448.3585,144.6738,446.4739,145.6589,444.7562,146.5217,442.9841,146.9827,441.0334,148,439.33,147.9817,439.3117,147.0995,440.0295,146.3096,440.8396,145.5839,441.7139,144.637,442.367,144,443.33,144.1305,443.4605,143.0514,442.3814,142.3534,441.6834,141.7018,441.0318,140.7798,440.1098,140,439.33,140.0208,439.3392,140.7903,441.1257,141.6544,442.9542,142.4728,444.7624,143.3784,446.6093,144,448.33" style="stroke:#FF6F00;stroke-width:2;"/></g><!--link Assess to Chart--><g class="link" data-entity-1="ent0005" data-entity-2="ent0006" data-link-type="dependency" data-source-line="72" id="lnk6"><path d="M148.95,552.63 L149.2289,552.6571 L149.3005,561.8442 L151.0071,571.1901 L152.1814,580.4843 L151.6045,589.6084 L153.4516,598.9679" fill="none" style="stroke:#FF6F00;stroke-width:2;"/><polygon fill="#FF6F00" points="154.03,604.94,154.0965,604.9622,154.5217,603.0276,155.3366,601.2229,156.0247,599.3759,156.2954,597.3899,157.1438,595.5963,157.1238,595.5799,156.3149,596.3793,155.6068,597.2618,154.9688,598.2021,154.0892,598.9434,153.548,599.9633,153.6653,600.1058,152.5411,599.0819,151.7593,598.4741,151.0193,597.917,150.0363,597.0646,149.181,596.3675,149.2008,596.3787,150.1416,598.0768,151.1724,599.8258,152.1598,601.5503,153.2301,603.3216,154.03,604.94" style="stroke:#FF6F00;stroke-width:2;"/></g><!--link Chart to Allocate--><g class="link" data-entity-1="ent0006" data-entity-2="ent0008" data-link-type="dependency" data-source-line="95" id="lnk7"><path d="M252.03,657.22 L252.03,657.5002 L262.0963,656.6676 L272.1626,657.4777 L282.2289,657.7529 L292.2951,656.2688 L302.3614,657.1164 L312.4277,656.6513 L322.494,656.7087 L332.5603,657.1291 L342.6266,656.2982 L352.6929,657.9582 L362.7591,656.3796 L372.8254,656.9563 L382.8917,657.7959 L392.958,657.1056 L403.0243,657.311 L413.0906,657.1774 L423.1569,657.458 L433.2231,657.5388 L443.2894,658.0009 L453.3557,658.1147 L463.422,658.1257 L473.4883,657.5595 L483.5546,657.8381 L493.6209,658.1563 L503.6871,656.2584 L513.7534,658.1247 L523.8197,656.8247 L533.886,657.9317 L543.9523,656.56 L554.0186,657.1287 L564.0849,658.2088 L574.1511,657.155 L584.2174,657.3604 L594.2837,657.6715 L604.35,657.22" fill="none" style="stroke:#FF6F00;stroke-width:2;"/><polygon fill="#FF6F00" points="610.35,657.22,610.3785,657.284,608.4939,656.2938,606.7762,655.6789,605.0041,654.9417,603.0534,653.8027,601.35,653.22,601.3317,653.2017,602.0495,653.9195,602.8596,654.7296,603.7339,655.6039,604.387,656.257,605.35,657.22,605.4805,657.3505,604.4014,657.8714,603.7034,658.7734,603.0518,659.7218,602.1298,660.3998,601.35,661.22,601.3592,661.2408,603.1457,660.4103,604.9742,659.6744,606.7824,658.8928,608.6293,658.1984,610.35,657.22" style="stroke:#FF6F00;stroke-width:2;"/><text fill="#FFFFFF" font-family="'Roboto'" font-size="13" lengthAdjust="spacing" textLength="78.8696" x="392.008" y="633.2869">handover to</text><text fill="#FFFFFF" font-family="'Roboto'" font-size="13" lengthAdjust="spacing" textLength="114.7656" x="374.06" y="648.4197">delivery manager</text></g><!--reverse link Implement to Allocate--><g class="link" data-entity-1="ent0009" data-entity-2="ent0008" data-link-type="dependency" data-source-line="97" id="lnk9"><path d="M682.2198,535.912 L682.4997,535.9265 L681.1404,546.0899 L681.4217,556.3382 L681.1688,566.5588 L679.1589,576.6886 L679.4776,586.9389 L678.4854,597.1213 L678.0149,607.3307 L677.907,617.5589 L677.47,627.77" fill="none" style="stroke:#FF6F00;stroke-width:2;"/><polygon fill="#FF6F00" points="682.53,529.92,682.5925,529.9517,681.5149,531.6137,680.8035,533.4617,679.9729,535.249,678.7501,536.8373,678.0701,538.7012,678.0528,538.682,678.8152,537.838,679.6651,537.0911,680.5758,536.4116,681.2769,535.4997,682.2715,534.9133,682.4086,535.0369,682.8731,535.6129,683.7377,536.5497,684.6512,537.5306,685.2806,538.2553,686.0594,539.1147,686.0807,539.1229,685.3436,537.272,684.7032,535.4582,684.0162,533.6265,683.4181,531.8289,682.53,529.92" style="stroke:#FF6F00;stroke-width:2;"/></g><!--reverse link Test to Implement--><g class="link" data-entity-1="ent0010" data-entity-2="ent0009" data-link-type="dependency" data-source-line="99" id="lnk11"><path d="M688.2381,398.8847 L688.5181,398.8965 L687.2507,409.1936 L687.6247,419.5599 L687.4642,429.9037 L685.546,440.1734 L685.9573,450.5413 L685.0573,460.8539 L685.19,471.21" fill="none" style="stroke:#FF6F00;stroke-width:2;"/><polygon fill="#FF6F00" points="688.49,392.89,688.5528,392.9211,687.4914,394.5935,686.798,396.4483,685.9847,398.2436,684.7774,399.8437,684.1156,401.7141,684.0981,401.695,684.8523,400.8437,685.6949,400.0886,686.5989,399.4003,687.2912,398.4816,688.28,397.8856,688.4159,398.0105,688.8911,398.5763,689.7629,399.5067,690.6832,400.4817,691.3218,401.1978,692.1086,402.05,692.1297,402.0584,691.3749,400.2141,690.7165,398.4079,690.0116,396.5833,689.3953,394.7937,688.49,392.89" style="stroke:#FF6F00;stroke-width:2;"/></g><!--reverse link Verify to Test--><g class="link" data-entity-1="ent0011" data-entity-2="ent0010" data-link-type="dependency" data-source-line="100" id="lnk13"><path d="M691.4925,254.1094 L691.7728,254.1135 L690.7798,264.8963 L691.4294,275.7034 L691.5441,286.5026 L689.8998,297.2757 L690.5868,308.0834 L690.53,318.88" fill="none" style="stroke:#FF6F00;stroke-width:2;"/><polygon fill="#FF6F00" points="691.58,248.11,691.6436,248.1394,690.6285,249.8402,689.9862,251.7133,689.2225,253.5303,688.0595,255.1629,687.4492,257.0507,687.4312,257.0322,688.1618,256.1605,688.9833,255.3825,689.8681,254.6697,690.535,253.7324,691.5071,253.1095,691.6395,253.238,692.1447,253.7747,693.0363,254.6867,693.9752,255.6445,694.6396,256.3359,695.4484,257.1673,695.4693,257.1763,694.6649,255.3517,693.9558,253.5678,693.2007,251.7642,692.5332,249.9982,691.58,248.11" style="stroke:#FF6F00;stroke-width:2;"/></g><!--reverse link Deliver to Verify--><g class="link" data-entity-1="ent0012" data-entity-2="ent0011" data-link-type="dependency" data-source-line="101" id="lnk15"><path d="M696.8943,139.7782 L697.174,139.7958 L695.7221,149.64 L695.9098,159.5871 L695.5636,169.5007 L693.4615,179.3041 L693.79,189.26" fill="none" style="stroke:#FF6F00;stroke-width:2;"/><polygon fill="#FF6F00" points="697.27,133.79,697.3321,133.8224,696.2364,135.4725,695.5048,137.3126,694.6547,139.0908,693.4146,140.6655,692.7143,142.5219,692.6972,142.5024,693.4688,141.6669,694.3268,140.9293,695.2448,140.2598,695.956,139.3557,696.9569,138.7802,697.0953,138.9023,697.5477,139.4897,698.4042,140.4336,699.3099,141.421,699.9288,142.1554,700.6986,143.0228,700.7199,143.0307,700.0029,141.1725,699.383,139.3504,698.7162,137.5109,698.1387,135.7045,697.27,133.79" style="stroke:#FF6F00;stroke-width:2;"/></g><!--link Deliver to Deploy--><g class="link" data-entity-1="ent0012" data-entity-2="ent0014" data-link-type="dependency" data-source-line="119" id="lnk16"><path d="M602.92,89.26 L602.92,89.5402 L592.948,88.7076 L582.976,89.5177 L573.004,89.7929 L563.032,88.3088 L553.06,89.26" fill="none" style="stroke:#FF6F00;stroke-width:2;"/><polygon fill="#FF6F00" points="547.06,89.26,547.0885,89.324,548.8039,89.9338,550.6862,90.9189,552.5141,91.7817,554.1634,92.2427,556.06,93.26,556.0417,93.2417,555.1595,92.3595,554.3696,91.5696,553.6439,90.8439,552.697,89.897,552.06,89.26,552.1905,89.3905,552.7114,88.3114,553.6134,87.6134,554.5618,86.9618,555.2398,86.0398,556.06,85.26,556.0692,85.2808,554.2557,86.0503,552.4842,86.9144,550.6924,87.7328,548.9393,88.6384,547.06,89.26" style="stroke:#FF6F00;stroke-width:2;"/></g><!--link Deploy to Operate--><g class="link" data-entity-1="ent0014" data-entity-2="ent0017" data-link-type="dependency" data-source-line="120" id="lnk18"><path d="M441.66,133.79 L441.9402,133.7922 L441.0229,144.5077 L441.7482,155.2361 L441.9387,165.9603 L440.3699,176.6706 L441.2363,187.4002" fill="none" style="stroke:#FF6F00;stroke-width:2;"/><polygon fill="#FF6F00" points="441.19,193.4,441.2538,193.4289,441.8781,191.5492,442.8764,189.8391,443.7529,188.0737,444.2289,186.1267,445.2594,184.4311,445.2412,184.4127,444.3535,185.1236,443.5574,185.9277,442.825,186.7964,441.8731,187.4421,441.2286,188.4001,441.3601,188.5296,440.2851,187.4466,439.594,186.7416,438.9498,186.0827,438.033,185.1555,437.2596,184.3694,437.2805,184.3785,438.0359,186.1713,438.8863,188.0054,439.6909,189.8196,440.5829,191.6718,441.19,193.4" style="stroke:#FF6F00;stroke-width:2;"/></g><!--link Operate to Measure--><g class="link" data-entity-1="ent0017" data-entity-2="ent0015" data-link-type="dependency" data-source-line="121" id="lnk19"><path d="M440.28,244.26 L440.5601,244.2683 L439.4097,254.9401 L439.9014,265.6607 L439.8583,276.3655 L438.0568,287.0179 L438.6894,297.7427" fill="none" style="stroke:#FF6F00;stroke-width:2;"/><polygon fill="#FF6F00" points="438.51,303.74,438.5731,303.7704,439.239,301.9049,440.275,300.2174,441.1905,298.4719,441.7096,296.5359,442.7773,294.8636,442.7596,294.8448,441.8563,295.5359,441.0426,296.322,440.2911,297.1743,439.3251,297.7988,438.6595,298.7422,438.7939,298.8688,437.7309,297.7746,437.0601,297.0499,436.4372,296.3703,435.5358,295.4284,434.7809,294.6244,434.802,294.633,435.5169,296.4435,436.3276,298.2932,437.0921,300.1239,437.9449,301.9908,438.51,303.74" style="stroke:#FF6F00;stroke-width:2;"/></g><!--link Measure to Optimize--><g class="link" data-entity-1="ent0015" data-entity-2="ent0016" data-link-type="dependency" data-source-line="122" id="lnk20"><path d="M435.93,407.99 L436.0234,407.992 L435.6006,414.8544 L435.7253,421.7283 L435.6717,428.5985 L435.0318,435.4563 L435.2034,442.3313" fill="none" style="stroke:#FF6F00;stroke-width:2;"/><polygon fill="#FF6F00" points="435.08,448.33,435.1434,448.3598,435.7918,446.4882,436.8121,444.7911,437.7112,443.0371,438.2122,441.0963,439.2643,439.4142,439.2464,439.3955,438.3496,440.095,437.5432,440.8887,436.7997,441.7479,435.8396,442.3814,435.1829,443.3311,435.316,443.4588,434.2479,442.3693,433.5686,441.6528,432.9366,440.9819,432.0288,440.0461,431.266,439.2496,431.287,439.2584,432.019,441.0616,432.8465,442.9048,433.6279,444.7287,434.4972,446.5895,435.08,448.33" style="stroke:#FF6F00;stroke-width:2;"/></g><!--reverse link Planxs to Optimize--><g class="link" data-entity-1="ent0002" data-entity-2="ent0016" data-link-type="dependency" data-source-line="138" id="lnk22"><path d="M289.9605,250.5629 L290.0528,250.5778 L289.8968,251.264 L290.2815,252.0376 L290.4901,252.7827 L290.1198,253.4343 L290.5508,254.2153 L290.5168,254.2096 L290.7955,256.7705 L291.246,259.36 L291.8158,261.9694 L291.9742,264.5102 L292.7089,267.1471 L292.9508,267.1922 L292.9201,269.7069 L293.5956,272.3532 L294.3572,275.0155 L294.6175,277.5845 L295.1415,280.2026 L295.1712,280.2087 L295.6722,282.8265 L296.3083,285.4724 L296.8792,288.1047 L297.5746,290.7629 L297.8642,293.3369 L298.1549,293.4038 L298.7641,296.0383 L299.1859,298.6297 L299.8821,301.2842 L300.5911,303.9417 L300.8927,306.5055 L300.582,306.4264 L301.8549,309.2115 L302.1049,311.7362 L303.1324,314.4588 L303.3593,316.9776 L304.2424,319.6635 L304.2131,319.6553 L305.2971,322.3734 L305.6963,324.8988 L306.4995,327.5379 L307.3367,330.1866 L307.9292,332.7664 L308.1058,332.8212 L308.7354,335.3664 L309.6668,338.0054 L310.1098,340.4926 L311.2813,343.2062 L311.9685,345.7693 L312.1989,345.8483 L313.0369,348.405 L313.9892,351.0009 L314.4099,353.4146 L315.2203,355.9619 L316.376,358.6276 L316.1176,358.5299 L317.3097,361.1521 L318.2108,363.6642 L319.534,366.336 L320.1364,368.7352 L321.1672,371.2965 L321.0265,371.2377 L322.299,373.8225 L322.97,376.1563 L324.0687,378.6685 L325.586,381.3555 L326.3579,383.7313 L326.5338,383.8124 L327.7755,386.2993 L328.4703,388.5339 L329.8502,391.0844 L331.0808,393.5661 L331.9636,395.8874 L331.7766,395.792 L333.133,398.2346 L334.4281,400.6459 L335.8435,403.1186 L336.7911,405.3526 L338,407.72 L338.1764,407.8256 L339.0884,409.7656 L340.3408,411.9094 L342.0908,414.3508 L342.9248,416.2443 L344.4978,418.5798 L344.6817,418.7116 L346.0674,420.7196 L347.3909,422.6831 L348.8548,424.7471 L350.6433,427.0437 L351.9725,429.0112 L351.87,428.9265 L353.8194,431.168 L355.0715,432.833 L357.1166,435.1535 L358.7152,437.105 L360.1934,438.957 L360.2732,439.0311 L361.9561,440.8519 L363.9246,442.938 L365.6352,444.7844 L367.2378,446.5306 L368.93,448.36" fill="none" style="stroke:#FF6F00;stroke-width:2;"/><polygon fill="#FF6F00" points="289.103,244.6245,289.1705,244.6435,288.4356,246.4829,288.096,248.4337,287.6277,250.3482,286.736,252.1434,286.4304,254.1038,286.4096,254.0883,286.994,253.1126,287.6829,252.215,288.4445,251.3718,288.9556,250.3413,289.8176,249.5732,289.9281,249.721,290.598,250.0824,291.5904,250.8753,292.6222,251.7209,293.425,252.2601,294.3482,252.9604,294.3675,252.9726,293.2902,251.2876,292.3005,249.6578,291.2686,248.0013,290.3173,246.3957,289.103,244.6245" style="stroke:#FF6F00;stroke-width:2;"/></g><!--SRC=[hLPRRzis57xdhs1iO6i764dNoqCV2ZYEcmLjuy3EDWphKD3IaKsO8ZLUx6X5_liEAKgYOXV3Xld1aixvzF5SFXxgJ5MMAqctJEO7pQq5IGic311oTi9bjGDobaF19T3Bwo-VfZUtNsQBZuib3R_ngulNBzQlKyXgFblSNasNlqNS2SZTTFPXUZtlY8uWY-NLV9ckGyT5yQQukEWWxnUtzmD0WFXV1vakbujVXvYMXPWTbnNJhAHhbkqsMZcPpvHG6ZDcqg0Bf2NaUpfJPSKoImMhbRFKWBLSRan2SCVo74tqnyIsRFYq14tV9FRLbkNguD5DpNlFJtK5Md2v-rdcuGQQsfz0D76sgVG037ndeAAlKgDKENZZoq7ILr0m9opzIjuhQMzP2NIqL6jbrIXOcYNw6WVZYly5zCLByfWoJRLM1-HftaXAdl2qZGaajXQ0KUcI2NA_vTbEWZ5Ol05h9XWQlvBB9yqPA91SAesrYfv4Cj6HifzCQcgjvcjduRJNPtQSLZ1_Ct3Koevj81RsYFC_vZDOmbXcuHzhy_yb_2-glB9CF-dvl0slDGnoMVbSJhpr1754WXoX2dU2oGSl5FBx3t_G2UujENb7vtBFZPzaumgt2o7TSmkuuYPJUzoRuxN0FTOzjlwfCJwXyKO3I1AVMkTiY-7ISGr2g4DF_fPEAAC6dP1ZZpI6jwa7tlc7Qmhn6KV0aOyP95WxmqCrGRAr04sww3miylACEWCqOnZOmCybjvo9peip1620wFXtKXq4v9kXkz9SuUZdOEXt50TUfafS8fR00pAd_MXiL9ZODVpfk4zTmiEnjsJM8MrDd-7wvbpfpNdEB3kta6sV9pYJCS7MN7We2zOopE5GSm_OSryLgXNBIrRrzYujdtLlnZXsi5K2TKgPxsQWwzmbddG-qCTMJvUEYznFiz1ZhmHiSeQUj-5K32AnwZEEQC7nllOCkDsnIosGJbo5xzsKbMWM8zrjTDs3iSJ_nUTVGFEY9iqbsguQVZn_MlExeFL-dIPfR9_5HbbWPRAGz-LW6HVKRg4J0mch1ftcERw34PWCPOOjDvshS4BG80VCYyIeGkMRG0xSRhjgepYRG8CoSAPmwPGpegQyh3IIfFvOCsfmyWjKQgP3i2R555v6Q1HrtvEbazYH2A8JpJTR6qfK2LMJvj9jpWMUaRwZyThPFm4pJWE9rmHlUOdd6eb4eJg6ZcvaeHdkDfTP3qVJ30_IKO8QzVbYQjxgiqaHlfGeOsSLoXzoqYuUzXdemf-1CeFKpFROjBW1KllU2VoKEE7eT1_twZFpd90sgJWnGWuu50g0t7_jKA5KDG2TRDqt0Qxoc-QpnE-fuPnvx9Uc4o_agDe7ypS0]--></g></svg>