<svg xmlns="http://www.w3.org/2000/svg" xmlns:xlink="http://www.w3.org/1999/xlink" contentStyleType="text/css" data-diagram-type="STATE" height="344px" preserveAspectRatio="none" style="width:975px;height:344px;background:#2E303E;" version="1.1" viewBox="0 0 975 344" width="975px" zoomAndPan="magnify"><defs/><g><rect fill="#2E303E" height="344" style="stroke:none;stroke-width:1;" width="975" x="0" y="0"/><path d="M11,7 L11,7.5605 L21.0316,5.8951 L31.0632,7.5154 L41.0947,8.0658 L51.1263,5.0976 L61.1579,6.7928 L71.1895,5.8627 L81.2211,5.9773 L91.2526,6.8182 L101.2842,5.1563 L111.3158,8.4764 L121.3474,5.3193 L131.3789,6.4726 L141.4105,8.1519 L151.4421,6.7713 L161.4737,7.182 L171.5053,6.9148 L181.5368,7.4761 L191.5684,7.6377 L201.6,8.5618 L211.6316,8.7895 L221.6632,8.8114 L231.6947,7.679 L241.7263,8.2362 L251.7579,8.8726 L261.7895,5.0768 L271.8211,8.8094 L281.8526,6.2093 L291.8842,8.4235 L301.9158,5.6799 L311.9474,6.8173 L321.9789,8.9776 L332.0105,6.87 L342.0421,7.2808 L352.0737,7.903 L362.1053,8.11 L372.1368,6.9896 L382.1684,7.7659 L392.2,5.4736 L402.2316,7.7584 L412.2632,8.4619 L422.2947,8.1854 L432.3263,8.6347 L442.3579,5.7118 L452.3895,5.2608 L462.4211,5.3429 L472.4526,6.843 L482.4842,6.4759 L492.5158,8.8171 L502.5474,6.5342 L512.5789,6.0852 L522.6105,7.6087 L532.6421,5.2218 L542.6737,5.6157 L552.7053,8.7305 L562.7368,8.1618 L572.7684,8.9586 L582.8,6.1419 L592.8316,7.8512 L602.8632,8.5745 L612.8947,5.7403 L622.9263,6.7444 L632.9579,7.336 L642.9895,8.738 L653.0211,6.9888 L663.0526,8.2335 L673.0842,5.5232 L683.1158,5.194 L693.1474,8.343 L703.1789,5.0882 L713.2105,8.3572 L723.2421,7.551 L733.2737,6.2856 L743.3053,6.0566 L753.3368,8.2234 L763.3684,6.2018 L773.4,8.5783 L783.4316,5.526 L793.4632,8.6465 L803.4947,8.2915 L813.5263,7.6532 L823.5579,7.1259 L833.5895,8.9376 L843.6211,8.6362 L853.6526,7.4513 L863.6842,7.7152 L873.7158,6.6526 L883.7474,8.9105 L893.7789,7.413 L903.8105,7.4602 L913.8421,5.3777 L923.8737,5.9194 L933.9053,8.4153 L943.9368,8.146 L953.9684,6.8855 L964,7 L968,11 L967.7136,11 L967.8054,17.0594 L967.3901,23.1188 L968.3687,29.1781 L968.6574,35.2375 L968,41.2969 L968,42.7006 L957.9896,43.15 L947.9792,40.9323 L937.9688,41.5295 L927.9583,40.2633 L917.9479,42.0543 L907.9375,41.9549 L897.9271,42.7699 L887.9167,40.6845 L877.9063,40.9385 L867.8958,42.4794 L857.8854,42.8098 L847.875,39.9301 L837.8646,40.7799 L827.8542,41.6949 L817.8438,39.668 L807.8333,42.2393 L797.8229,41.9848 L787.8125,41.0282 L777.8021,41.6762 L767.7917,43.24 L757.7813,40.4626 L747.7708,42.1368 L737.7604,42.0586 L727.75,41.6056 L717.7396,41.6727 L707.7292,41.5995 L697.7188,39.6325 L687.7083,40.228 L677.6979,40.0661 L667.6875,41.4671 L657.6771,41.5319 L647.6667,41.7282 L637.6563,40.5209 L627.6458,41.1168 L617.6354,40.9763 L607.625,42.8352 L597.6146,42.4344 L587.6042,40.0021 L577.5938,41.1024 L567.5833,39.7576 L557.5729,42.0659 L547.5625,42.9195 L537.5521,42.749 L527.5417,40.1354 L517.5313,42.5341 L507.5208,39.3161 L497.5104,41.8306 L487.5,40.4987 L477.4896,41.5548 L467.4792,41.9378 L457.4688,42.5558 L447.4583,39.3771 L437.4479,42.5648 L427.4375,41.772 L417.4271,42.2444 L407.4167,43.291 L397.4063,41.3115 L387.3958,41.7643 L377.3854,41.866 L367.375,41.8228 L357.3646,41.2947 L347.3542,43.1921 L337.3438,39.6709 L327.3333,42.8043 L317.3229,39.6329 L307.3125,39.856 L297.3021,41.4036 L287.2917,41.3723 L277.2813,39.9827 L267.2708,42.4001 L257.2604,41.5872 L247.25,43.2346 L237.2396,43.0758 L227.2292,40.1015 L217.2188,40.2357 L207.2083,40.9524 L197.1979,42.2449 L187.1875,42.3715 L177.1771,42.1 L167.1667,40.385 L157.1563,42.9938 L147.1458,42.987 L137.1354,41.1708 L127.125,40.6594 L117.1146,40.2265 L107.1042,40.7247 L97.0938,41.6633 L87.0833,41.1145 L77.0729,40.1828 L67.0625,42.5966 L57.0521,40.073 L47.0417,42.6366 L37.0313,42.4362 L27.0208,42.2885 L17.0104,43.1435 L7,41.2969 L6.7814,41.2969 L6.7328,35.2375 L7.4612,29.1781 L6.4694,23.1188 L6.792,17.0594 L7,11 L11,7" fill="#9397B2"/><polygon fill="none" points="11,7,11,7.2102,21.0316,6.5857,31.0632,7.1933,41.0947,7.3997,51.1263,6.2866,61.1579,6.9223,71.1895,6.5735,81.2211,6.6165,91.2526,6.9318,101.2842,6.3086,111.3158,7.5536,121.3474,6.3697,131.3789,6.8022,141.4105,7.4319,151.4421,6.9142,161.4737,7.0682,171.5053,6.9681,181.5368,7.1785,191.5684,7.2391,201.6,7.5857,211.6316,7.6711,221.6632,7.6793,231.6947,7.2546,241.7263,7.4636,251.7579,7.7022,261.7895,6.2788,271.8211,7.6785,281.8526,6.7035,291.8842,7.5338,301.9158,6.505,311.9474,6.9315,321.9789,7.7416,332.0105,6.9513,342.0421,7.1053,352.0737,7.3386,362.1053,7.4162,372.1368,6.9961,382.1684,7.2872,392.2,6.4276,402.2316,7.2844,412.2632,7.5482,422.2947,7.4445,432.3263,7.613,442.3579,6.5169,452.3895,6.3478,462.4211,6.3786,472.4526,6.9411,482.4842,6.8035,492.5158,7.6814,502.5474,6.8253,512.5789,6.6569,522.6105,7.2283,532.6421,6.3332,542.6737,6.4809,552.7053,7.649,562.7368,7.4357,572.7684,7.7345,582.8,6.6782,592.8316,7.3192,602.8632,7.5904,612.8947,6.5276,622.9263,6.9041,632.9579,7.126,642.9895,7.6518,653.0211,6.9958,663.0526,7.4626,673.0842,6.4462,683.1158,6.3227,693.1474,7.5036,703.1789,6.2831,713.2105,7.509,723.2421,7.2066,733.2737,6.7321,743.3053,6.6462,753.3368,7.4588,763.3684,6.7007,773.4,7.5919,783.4316,6.4473,793.4632,7.6174,803.4947,7.4843,813.5263,7.245,823.5579,7.0472,833.5895,7.7266,843.6211,7.6136,853.6526,7.1693,863.6842,7.2682,873.7158,6.8697,883.7474,7.7165,893.7789,7.1549,903.8105,7.1726,913.8421,6.3916,923.8737,6.5948,933.9053,7.5307,943.9368,7.4298,953.9684,6.9571,964,7,963.9589,6.9008,964.5378,7.1669,965.0438,7.2573,965.75,7.8307,966.3571,8.165,966.8284,8.1716,966.9905,8.2387,967.2768,8.8259,967.2549,9.2855,967.5582,9.8798,967.6463,10.3849,968,11,968.284,11,968.2468,21.115,968.5524,31.23,967.7703,41.3451,967.8656,51.4601,968.4435,61.5751,968.5673,71.6901,967.4875,81.8051,967.8061,91.9202,968.1493,102.0352,967.3892,112.1502,968.3534,122.2652,968.258,132.3802,967.8992,142.4953,968.1422,152.6103,968.7287,162.7253,967.6871,172.8403,968.315,182.9553,968.2856,193.0704,968.1158,203.1854,968.1409,213.3004,968.1135,223.4154,967.3758,233.5304,967.5992,243.6454,967.5385,253.7605,968.0638,263.8755,968.0881,273.9905,968.1617,284.1055,967.709,294.2205,967.9325,304.3356,967.8798,314.4506,968.5769,324.5656,968,334.6806,968.1314,334.735,967.6162,335.1844,967.5089,335.8027,967.1193,336.304,967.1516,336.9802,966.8284,337.5091,966.906,337.6964,966.3322,337.9111,965.6415,337.8435,965.1906,338.3549,964.4709,338.2176,964,338.6806,964,338.8808,953.9684,338.3813,943.9368,338.7773,933.9053,338.921,923.8737,339.1527,913.8421,337.9607,903.8105,339.1561,893.7789,338.8588,883.7474,339.036,873.7158,339.4284,863.6842,338.6861,853.6526,338.8559,843.6211,338.8941,833.5895,338.8779,823.5579,338.6798,813.5263,339.3913,803.4947,338.0709,793.4632,339.2459,783.4316,338.0566,773.4,338.1403,763.3684,338.7206,753.3368,338.7089,743.3053,338.1878,733.2737,339.0943,723.2421,338.7895,713.2105,339.4073,703.1789,339.3477,693.1474,338.2324,683.1158,338.2827,673.0842,338.5514,663.0526,339.0361,653.0211,339.0836,642.9895,338.9818,632.9579,338.3387,622.9263,339.317,612.8947,339.3144,602.8632,338.6333,592.8316,338.4416,582.8,338.2792,572.7684,338.466,562.7368,338.818,552.7053,338.6122,542.6737,338.2628,532.6421,339.168,522.6105,338.2217,512.5789,339.183,502.5474,339.1079,492.5158,339.0525,482.4842,339.3731,472.4526,338.4347,462.4211,338.38,452.3895,339.1995,442.3579,338.0837,432.3263,338.4466,422.2947,338.7961,412.2632,338.7493,402.2316,338.3222,392.2,338.6376,382.1684,339.4252,372.1368,339.3291,362.1053,338.0843,352.0737,338.7591,342.0421,338.1667,332.0105,338.6543,321.9789,338.9736,311.9474,339.1005,301.9158,338.0159,291.8842,339.0812,281.8526,338.689,271.8211,338.1253,261.7895,338.2096,251.7579,339.0072,241.7263,338.9305,231.6947,338.6642,221.6632,338.0085,211.6316,339.3388,201.6,338.3688,191.5684,338.1526,181.5368,338.6133,171.5053,339.2703,161.4737,339.296,151.4421,338.7158,141.4105,338.5295,131.3789,338.8504,121.3474,338.8668,111.3158,338.1728,101.2842,339.0946,91.2526,339.2394,81.2211,338.4649,71.1895,338.2514,61.1579,339.3553,51.1263,338.7016,41.0947,338.6805,31.0632,338.9797,21.0316,338.0349,11,338.6806,11.0676,338.8438,10.4323,338.4416,9.9539,338.418,9.2754,337.9112,8.7894,337.8693,8.1716,337.5091,8.0348,337.4524,8.0127,336.9746,7.8198,336.4261,7.3678,335.7702,7.3461,335.2926,7,334.6806,6.4286,334.6806,6.5295,324.5656,7.6828,314.4506,7.6844,304.3356,7.5685,294.2205,6.6396,284.1055,7.3842,273.9905,6.5279,263.8755,7.0582,253.7605,6.9987,243.6454,6.7376,233.5304,7.6159,223.4154,7.4433,213.3004,6.6792,203.1854,7.5266,193.0704,7.0919,182.9553,6.4164,172.8403,6.7667,162.7253,6.4747,152.6103,6.8609,142.4953,6.371,132.3802,6.3998,122.2652,7.0703,112.1502,6.8796,102.0352,6.9414,91.9202,6.8568,81.8051,7.1673,71.6901,6.4449,61.5751,7.1601,51.4601,6.2569,41.3451,7.296,31.23,7.5928,21.115,7,11,7.1608,11.0666,7.3456,10.4804,7.5278,9.8931,7.7355,9.3164,7.7402,8.6556,8.1716,8.1716,8.2285,8.3091,8.7793,8.0388,9.2834,7.6557,9.8679,7.4668,10.4077,7.1701,11,7" style="stroke:#0077B6;stroke-width:0.5;"/><path d="M7,41.2969 L7,41.5771 L17.0104,40.7444 L27.0208,41.5546 L37.0313,41.8298 L47.0417,40.3457 L57.0521,41.1933 L67.0625,40.7282 L77.0729,40.7855 L87.0833,41.206 L97.0938,40.375 L107.1042,42.0351 L117.1146,40.4565 L127.125,41.0332 L137.1354,41.8728 L147.1458,41.1825 L157.1563,41.3879 L167.1667,41.2543 L177.1771,41.5349 L187.1875,41.6157 L197.1979,42.0778 L207.2083,42.1916 L217.2188,42.2026 L227.2292,41.6364 L237.2396,41.915 L247.25,42.2332 L257.2604,40.3353 L267.2708,42.2016 L277.2813,40.9015 L287.2917,42.0086 L297.3021,40.6368 L307.3125,41.2055 L317.3229,42.2857 L327.3333,41.2319 L337.3438,41.4373 L347.3542,41.7484 L357.3646,41.8519 L367.375,41.2917 L377.3854,41.6798 L387.3958,40.5337 L397.4063,41.6761 L407.4167,42.0278 L417.4271,41.8896 L427.4375,42.1142 L437.4479,40.6528 L447.4583,40.4273 L457.4688,40.4683 L467.4792,41.2184 L477.4896,41.0348 L487.5,42.2054 L497.5104,41.064 L507.5208,40.8395 L517.5313,41.6012 L527.5417,40.4078 L537.5521,40.6047 L547.5625,42.1621 L557.5729,41.8778 L567.5833,42.2762 L577.5938,40.8678 L587.6042,41.7225 L597.6146,42.0841 L607.625,40.667 L617.6354,41.1691 L627.6458,41.4649 L637.6563,42.1659 L647.6667,41.2913 L657.6771,41.9136 L667.6875,40.5585 L677.6979,40.3939 L687.7083,41.9684 L697.7188,40.341 L707.7292,41.9755 L717.7396,41.5724 L727.75,40.9397 L737.7604,40.8252 L747.7708,41.9086 L757.7813,40.8978 L767.7917,42.086 L777.8021,40.5599 L787.8125,42.1201 L797.8229,41.9426 L807.8333,41.6235 L817.8438,41.3598 L827.8542,42.2657 L837.8646,42.115 L847.875,41.5225 L857.8854,41.6545 L867.8958,41.1232 L877.9063,42.2521 L887.9167,41.5034 L897.9271,41.527 L907.9375,40.4857 L917.9479,40.7566 L927.9583,42.0045 L937.9688,41.8699 L947.9792,41.2396 L957.9896,40.8673 L968,41.2969" fill="#9397B2" style="stroke:#0077B6;stroke-width:0.5;"/><text fill="#03045E" font-family="'Roboto'" font-size="14" lengthAdjust="spacing" textLength="29.7842" x="472.6079" y="28.9951">Plan</text><g id="Plan.Envision"><polygon fill="#9397B2" points="60.45,77.7469,60.45,77.9571,70.2792,77.3326,80.1083,77.9402,89.9375,78.1466,99.7666,77.0335,109.5958,77.6692,119.425,77.3204,129.2541,77.3634,139.0833,77.6787,148.9124,77.0555,158.7416,78.3005,168.5707,77.1166,178.3999,77.5491,188.2291,78.1788,198.0582,77.6611,207.8874,77.8151,217.7165,77.7149,227.5457,77.7469,227.5685,77.8019,228.1419,78.0548,228.7518,78.3959,229.3284,78.6565,229.8951,78.8933,230.3741,78.9184,230.4525,78.9509,230.7512,79.5433,231.059,80.1394,230.855,80.5235,231.5203,81.2677,231.5457,81.7469,231.2492,81.7469,232.0795,91.3582,231.0507,100.9695,231.4772,110.5809,232.2873,120.1922,231.497,129.8035,231.651,139.4148,231.8843,149.0262,231.5457,158.6375,231.6739,158.6906,231.3102,159.2027,231.1655,159.8055,230.6665,160.2615,230.696,160.9365,230.3741,161.4659,230.4441,161.6347,229.8651,161.8371,229.321,162.1233,228.6155,162.0201,228.0282,162.2023,227.5457,162.6375,227.5457,162.0161,217.7165,162.5786,207.8874,162.441,198.0582,163.3189,188.2291,162.4628,178.3999,162.2944,168.5707,162.8658,158.7416,161.9707,148.9124,162.1184,139.0833,163.2865,129.2541,163.0732,119.425,163.372,109.5958,162.3157,99.7666,162.9567,89.9375,163.2279,80.1083,162.1651,70.2792,162.5416,60.45,162.6375,60.4661,162.6763,59.9675,162.6039,59.3181,162.1676,58.8119,162.077,58.1166,161.5297,57.6216,161.4659,57.413,161.3795,57.5424,160.9645,56.9322,160.2431,57.0754,159.8338,56.7479,159.2295,56.45,158.6375,56.1821,158.6375,56.0962,149.0262,56.9088,139.4148,56.1507,129.8035,57.0419,120.1922,55.8973,110.5809,57.0674,100.9695,56.9343,91.3582,56.45,81.7469,56.5254,81.7781,56.6989,81.1872,57.1424,80.7082,57.3419,80.1281,57.4394,79.5057,57.6216,78.9184,57.6558,79.001,58.1706,78.644,58.8443,78.6705,59.3384,78.2632,59.9063,78.0343,60.45,77.7469" style="stroke:#0077B6;stroke-width:0.5;"/><path d="M56.45,112.0437 L56.45,112.324 L66.1775,111.4913 L75.9051,112.3015 L85.6326,112.5767 L95.3602,111.0926 L105.0877,111.9401 L114.8152,111.4751 L124.5428,111.5324 L134.2703,111.9529 L143.9979,111.1219 L153.7254,112.7819 L163.4529,111.2034 L173.1805,111.7801 L182.908,112.6197 L192.6355,111.9294 L202.3631,112.1347 L212.0906,112.0012 L221.8182,112.2818 L231.5457,112.0437" fill="#9397B2" style="stroke:#0077B6;stroke-width:0.5;"/><text fill="#03045E" font-family="'Roboto'" font-size="14" lengthAdjust="spacing" textLength="58.5156" x="114.74" y="99.742">Envision</text><text fill="#03045E" font-family="'Roboto'" font-size="14" lengthAdjust="spacing" textLength="133.376" x="65.45" y="134.0389">- a shared strategy</text><text fill="#03045E" font-family="'Roboto'" font-size="14" lengthAdjust="spacing" textLength="66.8008" x="65.45" y="150.3357">- see also</text><a href="/process/plan/envision/" target="_top" title="/process/plan/envision/" xlink:actuate="onRequest" xlink:href="/process/plan/envision/" xlink:show="new" xlink:title="/process/plan/envision/" xlink:type="simple"><text fill="#90EE90" font-family="'Roboto'" font-size="14" lengthAdjust="spacing" textLength="71.3945" x="136.701" y="150.3357">"Envision"</text></a></g><g id="Plan.Discover"><polygon fill="#9397B2" points="253.96,53.2969,253.96,53.5071,263.9647,52.8826,273.9693,53.4902,283.974,53.6966,293.9787,52.5835,303.9833,53.2192,313.988,52.8704,323.9927,52.9134,333.9973,53.2287,344.002,52.6055,354.0067,53.8505,364.0113,52.6666,374.016,53.0991,384.0207,53.7288,394.0253,53.2111,404.03,53.3651,414.0347,53.2649,424.0393,53.4754,434.044,53.2969,434.0745,53.3705,434.6844,53.7116,435.261,53.9722,435.8277,54.209,436.3392,54.3125,436.8724,54.4684,437.0152,54.5276,437.323,55.1237,437.1189,55.5078,437.7843,56.2521,437.7184,56.6934,438.044,57.2969,438.5778,57.2969,437.549,66.9724,437.9755,76.6478,438.7856,86.3233,437.9952,95.9988,438.1493,105.6743,438.3826,115.3498,438.4602,125.0252,438.0401,134.7007,438.3312,144.3762,437.4716,154.0517,438.3284,163.7272,438.5922,173.4026,438.044,183.0781,438.1809,183.1348,437.9985,183.722,437.4266,184.1479,437.1402,184.692,436.9154,185.2616,436.8724,185.9066,436.8649,185.8884,436.2817,186.0803,435.828,186.585,435.1531,186.5557,434.5659,186.7382,434.044,187.0781,434.044,187.3064,424.0393,186.4113,414.0347,186.559,404.03,187.7271,394.0253,187.5138,384.0207,187.8126,374.016,186.7563,364.0113,187.3973,354.0067,187.6685,344.002,186.6057,333.9973,186.9823,323.9927,187.2041,313.988,187.7299,303.9833,187.0739,293.9787,187.5407,283.974,186.5243,273.9693,186.4009,263.9647,187.5817,253.96,187.0781,253.8685,186.8573,253.4592,187.0006,252.855,186.6731,252.2288,186.2927,251.6521,186.0319,251.1316,185.9066,251.2729,185.9651,250.8051,185.3027,250.8452,184.8507,250.2584,184.139,250.3845,183.7226,249.96,183.0781,250.4443,183.0781,250.205,173.4026,250.0072,163.7272,250.6866,154.0517,250.5736,144.3762,250.1293,134.7007,250.2282,125.0252,249.8297,115.3498,250.6765,105.6743,250.1149,95.9988,250.1326,86.3233,249.3516,76.6478,249.5548,66.9724,249.96,57.2969,250.1234,57.3646,250.3267,56.786,250.4154,56.16,250.5637,55.5587,250.8298,55.0062,251.1316,54.4684,251.044,54.2571,251.7502,54.3619,252.3573,54.2276,252.8958,53.9276,253.483,53.7452,253.96,53.2969" style="stroke:#0077B6;stroke-width:0.5;"/><path d="M249.96,87.5938 L249.96,87.874 L259.8592,87.0413 L269.7583,87.8515 L279.6575,88.1267 L289.5566,86.6426 L299.4558,87.4901 L309.3549,87.0251 L319.2541,87.0824 L329.1533,87.5029 L339.0524,86.6719 L348.9516,88.3319 L358.8507,86.7534 L368.7499,87.3301 L378.649,88.1697 L388.5482,87.4794 L398.4474,87.6847 L408.3465,87.5512 L418.2457,87.8318 L428.1448,87.9126 L438.044,87.5938" fill="#9397B2" style="stroke:#0077B6;stroke-width:0.5;"/><text fill="#03045E" font-family="'Roboto'" font-size="14" lengthAdjust="spacing" textLength="60.8809" x="313.5616" y="75.292">Discover</text><text fill="#03045E" font-family="'Roboto'" font-size="14" lengthAdjust="spacing" textLength="144.3545" x="258.96" y="109.5889">- strategic use cases</text><text fill="#03045E" font-family="'Roboto'" font-size="14" lengthAdjust="spacing" textLength="146.7881" x="258.96" y="125.8857">- initial use case tree</text><text fill="#03045E" font-family="'Roboto'" font-size="14" lengthAdjust="spacing" textLength="150.8555" x="258.96" y="142.1826">- business knowledge</text><text fill="#03045E" font-family="'Roboto'" font-size="14" lengthAdjust="spacing" textLength="160.084" x="258.96" y="158.4795">- priorities &amp; outcomes</text><text fill="#03045E" font-family="'Roboto'" font-size="14" lengthAdjust="spacing" textLength="66.8008" x="258.96" y="174.7764">- see also</text><a href="/process/plan/discover/" target="_top" title="/process/plan/discover/" xlink:actuate="onRequest" xlink:href="/process/plan/discover/" xlink:show="new" xlink:title="/process/plan/discover/" xlink:type="simple"><text fill="#90EE90" font-family="'Roboto'" font-size="14" lengthAdjust="spacing" textLength="73.7598" x="330.211" y="174.7764">"Discover"</text></a></g><g id="Plan.Assess"><polygon fill="#9397B2" points="459.61,61.4469,459.61,61.6571,469.4762,61.0326,479.3423,61.6402,489.2085,61.8466,499.0747,60.7335,508.9409,61.3692,518.807,61.0204,528.6732,61.0634,538.5394,61.3787,548.4055,60.7555,558.2717,62.0005,568.1379,60.8166,578.004,61.2491,587.8702,61.8788,597.7364,61.3611,607.6026,61.5151,617.4687,61.4149,627.3349,61.6254,637.2011,61.686,647.0672,62.0326,656.9334,62.1179,666.7996,62.1261,676.6657,61.7015,686.5319,61.9105,696.3981,61.4469,696.4877,61.6631,696.8718,61.4591,697.616,62.1245,698.0573,62.0585,698.7289,62.5485,699.2265,62.6184,699.0741,62.5553,699.4397,63.1754,699.9235,63.8444,699.9144,64.3093,700.1962,64.8946,700.3981,65.4469,700.7367,65.4469,700.8143,75.4,700.3942,85.3531,700.6853,95.3062,699.8257,105.2594,700.6825,115.2125,700.9463,125.1656,700.8426,135.1187,701.0111,145.0719,699.915,155.025,699.7459,164.9781,700.3981,174.9312,700.2067,174.852,700.1456,175.4894,699.8689,176.0376,699.905,176.7152,699.407,177.1717,699.2265,177.7597,699.1828,177.654,698.6899,178.0643,698.0101,178.0229,697.4632,178.3028,697.0466,178.8968,696.3981,178.9312,696.3981,179.3669,686.5319,179.6657,676.6657,178.6095,666.7996,179.2504,656.9334,179.5217,647.0672,178.4588,637.2011,178.8354,627.3349,179.0572,617.4687,179.583,607.6026,178.9271,597.7364,179.3938,587.8702,178.3775,578.004,178.254,568.1379,179.4349,558.2717,178.2143,548.4055,179.4402,538.5394,179.1379,528.6732,178.6633,518.807,178.5775,508.9409,179.39,499.0747,178.6319,489.2085,179.5231,479.3423,178.3785,469.4762,179.5487,459.61,178.9312,459.6718,179.0804,459.0756,178.7724,458.4847,178.4772,458.0056,178.4521,457.4255,178.1829,456.7816,177.7597,456.8337,177.7813,456.6298,177.2282,456.2728,176.6117,456.2993,176.154,455.892,175.5167,455.61,174.9312,455.7826,174.9312,455.0016,164.9781,455.2048,155.025,456.1407,145.0719,456.0398,135.1187,455.5671,125.1656,455.2878,115.2125,455.3911,105.2594,454.9238,95.3062,456.0247,85.3531,456.3496,75.4,455.61,65.4469,455.7721,65.514,456.0583,64.9698,456.0365,64.2981,456.3398,63.7609,456.4279,63.1347,456.7816,62.6184,456.8178,62.7059,457.3787,62.4601,457.9834,62.3199,458.4493,61.8448,459.0272,61.6398,459.61,61.4469" style="stroke:#0077B6;stroke-width:0.5;"/><path d="M455.61,95.7437 L455.61,96.024 L465.8095,95.1913 L476.009,96.0015 L486.2085,96.2767 L496.408,94.7926 L506.6075,95.6401 L516.807,95.1751 L527.0065,95.2324 L537.206,95.6529 L547.4055,94.8219 L557.605,96.4819 L567.8045,94.9034 L578.004,95.4801 L588.2035,96.3197 L598.4031,95.6294 L608.6026,95.8347 L618.8021,95.7012 L629.0016,95.9818 L639.2011,96.0626 L649.4006,96.5247 L659.6001,96.6385 L669.7996,96.6494 L679.9991,96.0833 L690.1986,96.3619 L700.3981,95.7437" fill="#9397B2" style="stroke:#0077B6;stroke-width:0.5;"/><text fill="#03045E" font-family="'Roboto'" font-size="14" lengthAdjust="spacing" textLength="47.3662" x="554.3209" y="83.442">Assess</text><text fill="#03045E" font-family="'Roboto'" font-size="14" lengthAdjust="spacing" textLength="100.4746" x="464.61" y="117.7389">- current state</text><text fill="#03045E" font-family="'Roboto'" font-size="14" lengthAdjust="spacing" textLength="144.4023" x="464.61" y="134.0357">- required next state</text><text fill="#03045E" font-family="'Roboto'" font-size="14" lengthAdjust="spacing" textLength="216.7881" x="464.61" y="150.3326">- maturity (buss/org/data/tech)</text><text fill="#03045E" font-family="'Roboto'" font-size="14" lengthAdjust="spacing" textLength="66.8008" x="464.61" y="166.6295">- see also</text><a href="/process/plan/assess/" target="_top" title="/process/plan/assess/" xlink:actuate="onRequest" xlink:href="/process/plan/assess/" xlink:show="new" xlink:title="/process/plan/assess/" xlink:type="simple"><text fill="#90EE90" font-family="'Roboto'" font-size="14" lengthAdjust="spacing" textLength="60.2451" x="535.861" y="166.6295">"Assess"</text></a></g><g id="Plan.Chart"><polygon fill="#9397B2" points="722.16,53.2969,722.16,53.5071,732.3537,52.8826,742.5474,53.4902,752.7412,53.6966,762.9349,52.5835,773.1286,53.2192,783.3223,52.8704,793.516,52.9134,803.7098,53.2287,813.9035,52.6055,824.0972,53.8505,834.2909,52.6666,844.4846,53.0991,854.6783,53.7288,864.8721,53.2111,875.0658,53.3651,885.2595,53.2649,895.4532,53.4754,905.6469,53.536,915.8407,53.2969,915.9154,53.4772,916.4919,53.7378,917.0587,53.9747,917.5702,54.0782,918.1625,54.3769,918.6691,54.4684,918.8854,54.558,918.6813,54.9421,919.3467,55.6864,919.2807,56.1277,919.7707,56.7993,919.8407,57.2969,919.3456,57.2969,919.7722,66.9724,920.5823,76.6478,919.7919,86.3233,919.946,95.9988,920.1793,105.6743,920.2569,115.3498,919.8368,125.0252,920.1279,134.7007,919.2682,144.3762,920.1251,154.0517,920.3889,163.7272,920.2852,173.4026,919.8407,183.0781,920.0295,183.1563,919.4576,183.5822,919.1712,184.1263,918.9464,184.6959,918.8853,185.3334,918.6691,185.9066,918.644,185.846,918.1903,186.3507,917.5154,186.3214,916.9283,186.5038,916.4355,186.9141,915.8407,187.0781,915.8407,186.4113,905.6469,186.559,895.4532,187.7271,885.2595,187.5138,875.0658,187.8126,864.8721,186.7563,854.6783,187.3973,844.4846,187.6685,834.2909,186.6057,824.0972,186.9823,813.9035,187.2041,803.7098,187.7299,793.516,187.0739,783.3223,187.5407,773.1286,186.5243,762.9349,186.4009,752.7412,187.5817,742.5474,186.3612,732.3537,187.5871,722.16,187.0781,722.1864,187.1418,721.5601,186.7613,720.9835,186.5005,720.5215,186.5165,719.8591,186.0487,719.3316,185.9066,719.5138,185.9821,718.927,185.2704,719.0531,184.8539,718.7778,184.2713,718.4698,183.6751,718.16,183.0781,718.2072,183.0781,718.8866,173.4026,718.7736,163.7272,718.3293,154.0517,718.4282,144.3762,718.0297,134.7007,718.8765,125.0252,718.3149,115.3498,718.3326,105.6743,717.5516,95.9988,717.7548,86.3233,718.6907,76.6478,718.5898,66.9724,718.16,57.2969,718.1468,57.2914,718.2951,56.6901,718.5612,56.1376,718.6516,55.5123,719.225,55.087,719.3316,54.4684,719.4259,54.6962,719.9644,54.3962,720.5516,54.2138,721.0112,53.7234,721.6054,53.558,722.16,53.2969" style="stroke:#0077B6;stroke-width:0.5;"/><path d="M718.16,87.5938 L718.16,87.874 L728.244,87.0413 L738.3281,87.8515 L748.4121,88.1267 L758.4961,86.6426 L768.5802,87.4901 L778.6642,87.0251 L788.7482,87.0824 L798.8323,87.5029 L808.9163,86.6719 L819.0003,88.3319 L829.0844,86.7534 L839.1684,87.3301 L849.2524,88.1697 L859.3365,87.4794 L869.4205,87.6847 L879.5045,87.5512 L889.5886,87.8318 L899.6726,87.9126 L909.7566,88.3747 L919.8407,87.5938" fill="#9397B2" style="stroke:#0077B6;stroke-width:0.5;"/><text fill="#03045E" font-family="'Roboto'" font-size="14" lengthAdjust="spacing" textLength="38.4727" x="799.764" y="75.292">Chart</text><text fill="#03045E" font-family="'Roboto'" font-size="14" lengthAdjust="spacing" textLength="118.9863" x="727.16" y="109.5889">- viable roadmap</text><text fill="#03045E" font-family="'Roboto'" font-size="14" lengthAdjust="spacing" textLength="107.1533" x="727.16" y="125.8857">- business case</text><text fill="#03045E" font-family="'Roboto'" font-size="14" lengthAdjust="spacing" textLength="173.6807" x="727.16" y="142.1826">- stakeholder agreement</text><text fill="#03045E" font-family="'Roboto'" font-size="14" lengthAdjust="spacing" textLength="72.1602" x="727.16" y="158.4795">- mandate</text><text fill="#03045E" font-family="'Roboto'" font-size="14" lengthAdjust="spacing" textLength="66.8008" x="727.16" y="174.7764">- see also</text><a href="/process/plan/chart/" target="_top" title="/process/plan/chart/" xlink:actuate="onRequest" xlink:href="/process/plan/chart/" xlink:show="new" xlink:title="/process/plan/chart/" xlink:type="simple"><text fill="#90EE90" font-family="'Roboto'" font-size="14" lengthAdjust="spacing" textLength="51.3516" x="798.411" y="174.7764">"Chart"</text></a></g><g id="Plan.Train"><polygon fill="#9397B2" points="170.89,260.0869,170.89,260.2971,181.1921,259.6726,191.4942,260.2802,201.7963,260.4866,212.0984,259.3735,222.4005,260.0092,232.7026,259.6604,243.0047,259.7034,253.3069,260.0187,263.609,259.3955,273.9111,260.6405,284.2132,259.4566,294.5153,259.8891,304.8174,260.5188,315.1195,260.0869,315.1086,260.0605,315.6939,260.3422,316.2468,260.5457,316.8393,260.8448,317.4127,261.0978,317.9479,261.2584,318.1283,261.3332,318.3889,261.9097,318.6257,262.4765,318.7293,262.988,319.0279,263.5803,319.1195,264.0869,319.8217,264.0869,318.3983,274.1858,319.798,284.2848,318.823,294.3837,319.6533,304.4827,318.6245,314.5817,319.1195,324.6806,319.0984,324.6719,319.1136,325.3409,318.6359,325.8058,318.449,326.3911,318.2865,326.9866,317.9479,327.5091,318.001,327.6372,317.3817,327.7422,316.8532,328.0661,316.1778,328.0357,315.7215,328.5339,315.1195,328.6806,315.1195,329.2288,304.8174,329.1252,294.5153,329.2936,284.2132,328.1975,273.9111,328.0284,263.609,328.0592,253.3069,328.6217,243.0047,328.4841,232.7026,329.362,222.4005,328.5059,212.0984,328.3376,201.7963,328.9089,191.4942,328.0138,181.1921,328.1615,170.89,328.6806,170.9728,328.8805,170.3799,328.5805,169.8523,328.4382,169.1519,327.8786,168.668,327.8417,168.0616,327.5091,168.2434,327.5844,167.6818,326.8831,167.5634,326.3655,167.3974,325.8281,167.325,325.3294,166.89,324.6806,166.8858,324.6806,167.3526,314.5817,166.3362,304.4827,166.2127,294.3837,167.3936,284.2848,166.1731,274.1858,166.89,264.0869,167.0467,264.1518,167.1879,263.5475,167.2761,262.9213,167.484,262.3447,167.9685,261.8827,168.0616,261.2584,168.0234,261.1663,168.7028,261.2064,169.1224,260.6196,169.8374,260.7456,170.3861,260.4703,170.89,260.0869" style="stroke:#0077B6;stroke-width:0.5;"/><path d="M166.89,294.3837 L166.89,294.664 L177.0386,293.8313 L187.1873,294.6415 L197.3359,294.9167 L207.4845,293.4326 L217.6332,294.2801 L227.7818,293.8151 L237.9304,293.8724 L248.0791,294.2929 L258.2277,293.4619 L268.3763,295.1219 L278.525,293.5434 L288.6736,294.1201 L298.8222,294.9597 L308.9709,294.2694 L319.1195,294.3837" fill="#9397B2" style="stroke:#0077B6;stroke-width:0.5;"/><text fill="#03045E" font-family="'Roboto'" font-size="14" lengthAdjust="spacing" textLength="35.6494" x="225.18" y="282.082">Train</text><text fill="#03045E" font-family="'Roboto'" font-size="14" lengthAdjust="spacing" textLength="66.8008" x="175.89" y="316.3789">- see also</text><a href="/process/plan/train/" target="_top" title="/process/plan/train/" xlink:actuate="onRequest" xlink:href="/process/plan/train/" xlink:show="new" xlink:title="/process/plan/train/" xlink:type="simple"><text fill="#90EE90" font-family="'Roboto'" font-size="14" lengthAdjust="spacing" textLength="48.5283" x="247.141" y="316.3789">"Train"</text></a></g><polygon fill="#222222" points="38.0552,122.6293,36.5894,124.6321,34.8556,127.5657,32.376,129.5427,29.7703,130.6238,27.6927,130.7176,25.0224,129.3656,22.5029,128.4823,20.5905,126.6889,19.5873,124.6358,18.9924,123.001,18.4096,120.8657,17.4636,119.0282,18.1906,117.2342,18.8275,115.2689,21.2175,113.7146,22.8991,111.6979,24.9804,111.0282,27.4547,110.4515,30.6276,110.7941,32.3655,111.6137,34.3861,111.9852,36.8429,114.5023,37.6993,117.1596,38.0714,118.9726,37.65,121.9604" style="stroke:#222222;stroke-width:1;"/><polygon fill="none" points="960.0608,122.8725,958.4484,125.0757,956.5412,128.3026,953.8136,130.4773,950.9474,131.6665,948.662,131.7697,945.7247,130.2824,942.9532,129.3108,940.8495,127.3381,939.7461,125.0796,939.0917,123.2814,938.4506,120.9326,937.41,118.9113,938.2096,116.9379,938.9102,114.7761,941.5393,113.0664,943.389,110.848,945.6784,110.1113,948.4001,109.4769,951.8904,109.8538,953.8021,110.7554,956.0247,111.1641,958.7272,113.9329,959.6693,116.8558,960.0786,118.8502,959.615,122.1368" style="stroke:#222222;stroke-width:1;"/><polygon fill="#222222" points="955.0331,121.6563,954.1536,122.858,953.1134,124.6182,951.6256,125.8044,950.0622,126.453,948.8156,126.5093,947.2135,125.6981,945.7017,125.1681,944.5543,124.0921,943.9524,122.8602,943.5955,121.8793,943.2458,120.5982,942.6782,119.4957,943.1143,118.4192,943.4965,117.2401,944.9305,116.3075,945.9394,115.0975,947.1882,114.6957,948.6728,114.3496,950.5766,114.5552,951.6193,115.047,952.8317,115.2699,954.3057,116.7801,954.8196,118.3745,955.0429,119.4623,954.79,121.255" style="stroke:#222222;stroke-width:1;"/><!--link *start*Plan to Envision--><g class="link" data-entity-1=".start.Plan" data-entity-2="Envision" data-source-line="200" data-uid="lnk3" id="link_.start.Plan_Envision"><path d="M38.42,120.1969 L38.42,120.2903 L40.768,120.0127 L43.116,120.2828 L45.464,120.3745 L47.812,119.8798 L50.16,120.1969" fill="none" style="stroke:#FF9900;stroke-width:1;"/><polygon fill="#FF9900" points="56.16,120.1969,56.1885,120.2609,54.3039,119.2707,52.5862,118.6558,50.8141,117.9186,48.8634,116.7796,47.16,116.1969,47.1417,116.1786,47.8595,116.8963,48.6696,117.7065,49.5439,118.5808,50.197,119.2339,51.16,120.1969,51.2905,120.3274,50.2114,120.8483,49.5134,121.7503,48.8618,122.6987,47.9398,123.3767,47.16,124.1969,47.1692,124.2177,48.9557,123.3871,50.7842,122.6513,52.5924,121.8697,54.4393,121.1753,56.16,120.1969" style="stroke:#FF9900;stroke-width:1;"/></g><!--link Envision to Discover--><g class="link" data-entity-1="Envision" data-entity-2="Discover" data-source-line="202" data-uid="lnk4" id="link_Envision_Discover"><path d="M231.89,120.1969 L231.89,120.2903 L234.282,120.0127 L236.674,120.2828 L239.066,120.3745 L241.458,119.8798 L243.85,120.1969" fill="none" style="stroke:#FF9900;stroke-width:1;"/><polygon fill="#FF9900" points="249.85,120.1969,249.8785,120.2609,247.9939,119.2707,246.2762,118.6558,244.5041,117.9186,242.5534,116.7796,240.85,116.1969,240.8317,116.1786,241.5495,116.8963,242.3596,117.7065,243.2339,118.5808,243.887,119.2339,244.85,120.1969,244.9805,120.3274,243.9014,120.8483,243.2034,121.7503,242.5518,122.6987,241.6298,123.3767,240.85,124.1969,240.8592,124.2177,242.6457,123.3871,244.4742,122.6513,246.2824,121.8697,248.1293,121.1753,249.85,120.1969" style="stroke:#FF9900;stroke-width:1;"/></g><!--link Discover to Assess--><g class="link" data-entity-1="Discover" data-entity-2="Assess" data-source-line="203" data-uid="lnk5" id="link_Discover_Assess"><path d="M438.15,120.1969 L438.15,120.2903 L440.392,120.0127 L442.634,120.2828 L444.876,120.3745 L447.118,119.8798 L449.36,120.1969" fill="none" style="stroke:#FF9900;stroke-width:1;"/><polygon fill="#FF9900" points="455.36,120.1969,455.3885,120.2609,453.5039,119.2707,451.7862,118.6558,450.0141,117.9186,448.0634,116.7796,446.36,116.1969,446.3417,116.1786,447.0595,116.8963,447.8696,117.7065,448.7439,118.5808,449.397,119.2339,450.36,120.1969,450.4905,120.3274,449.4114,120.8483,448.7134,121.7503,448.0618,122.6987,447.1398,123.3767,446.36,124.1969,446.3692,124.2177,448.1557,123.3871,449.9842,122.6513,451.7924,121.8697,453.6393,121.1753,455.36,120.1969" style="stroke:#FF9900;stroke-width:1;"/></g><!--link Assess to Chart--><g class="link" data-entity-1="Assess" data-entity-2="Chart" data-source-line="204" data-uid="lnk6" id="link_Assess_Chart"><path d="M700.85,120.1969 L700.85,120.2903 L703.066,120.0127 L705.282,120.2828 L707.498,120.3745 L709.714,119.8798 L711.93,120.1969" fill="none" style="stroke:#FF9900;stroke-width:1;"/><polygon fill="#FF9900" points="717.93,120.1969,717.9585,120.2609,716.0739,119.2707,714.3562,118.6558,712.5841,117.9186,710.6334,116.7796,708.93,116.1969,708.9117,116.1786,709.6295,116.8963,710.4396,117.7065,711.3139,118.5808,711.967,119.2339,712.93,120.1969,713.0605,120.3274,711.9814,120.8483,711.2834,121.7503,710.6318,122.6987,709.7098,123.3767,708.93,124.1969,708.9392,124.2177,710.7257,123.3871,712.5542,122.6513,714.3624,121.8697,716.2093,121.1753,717.93,120.1969" style="stroke:#FF9900;stroke-width:1;"/></g><!--link Chart to *end*Plan--><g class="link" data-entity-1="Chart" data-entity-2=".end.Plan" data-source-line="206" data-uid="lnk8" id="link_Chart_.end.Plan"><path d="M920.31,120.1969 L920.31,120.2903 L922.606,120.0127 L924.902,120.2828 L927.198,120.3745 L929.494,119.8798 L931.79,120.1969" fill="none" style="stroke:#FF9900;stroke-width:1;"/><polygon fill="#FF9900" points="937.79,120.1969,937.8185,120.2609,935.9339,119.2707,934.2162,118.6558,932.4441,117.9186,930.4934,116.7796,928.79,116.1969,928.7717,116.1786,929.4895,116.8963,930.2996,117.7065,931.1739,118.5808,931.827,119.2339,932.79,120.1969,932.9205,120.3274,931.8414,120.8483,931.1434,121.7503,930.4918,122.6987,929.5698,123.3767,928.79,124.1969,928.7992,124.2177,930.5857,123.3871,932.4142,122.6513,934.2224,121.8697,936.0693,121.1753,937.79,120.1969" style="stroke:#FF9900;stroke-width:1;"/></g><!--link *start*Plan to Train--><g class="link" data-entity-1=".start.Plan" data-entity-2="Train" data-source-line="208" data-uid="lnk9" id="link_.start.Plan_Train"><path d="M28.44,130.2969 L28.5328,130.3079 L28.5489,132.7324 L29.1087,135.2216 L29.4916,137.6897 L29.292,140.0886 L29.8986,142.5833 L29.8648,142.5762 L30.3421,145.5282 L30.9899,148.5161 L31.756,151.5289 L32.1141,154.4558 L33.0438,157.5031 L33.2757,157.5851 L33.8763,160.5126 L35.1542,163.6795 L36.5147,166.8756 L37.3944,169.9018 L38.527,173.0173 L38.553,173.033 L40.2095,175.8239 L41.9842,178.6861 L43.7019,181.5139 L45.5284,184.4073 L47,187.0869 L47.2237,187.2841 L49.6352,190.0194 L51.9024,192.6276 L54.3808,195.4219 L56.8692,198.225 L59.0438,200.7515 L58.8223,200.5198 L61.8534,203.4551 L64.1554,205.6274 L67.0116,208.3797 L69.297,210.5347 L72.0503,213.1793 L72.0311,213.1557 L75.0204,215.689 L77.56,217.6712 L80.365,219.9785 L83.1922,222.3132 L85.8587,224.4509 L85.9654,224.6021 L88.7476,226.4887 L91.712,228.6337 L94.3816,230.3608 L97.491,232.7112 L100.308,234.6471 L100.4359,234.8545 L103.3976,236.6556 L106.4227,238.5597 L109.153,239.9853 L112.0994,241.7616 L115.2373,243.8486 L115.1055,243.606 L118.2745,245.4832 L121.295,247.0869 L124.531,249.0873 L127.399,250.4105 L130.4857,252.1362 L130.4193,251.9989 L133.6112,253.7184 L136.5193,254.8511 L139.6292,256.4011 L142.9366,258.3593 L145.8923,259.5905 L145.9695,259.7681 L149.1033,261.2302 L151.9967,262.1401 L155.1912,263.7417 L158.32,265.1926 L161.2961,266.2924" fill="none" style="stroke:#FF9900;stroke-width:1;"/><polygon fill="#FF9900" points="166.84,268.5869,166.8908,268.6351,165.3827,267.0642,164.1722,265.7762,162.8648,264.396,161.2387,262.7128,160.0538,261.4492,160.0298,261.4392,160.3557,262.4398,160.8022,263.4905,161.3326,264.5758,161.5739,265.5414,162.2201,266.6748,162.2907,266.8453,161.0945,266.914,160.1046,267.4804,159.1398,268.1076,158.0286,268.3814,156.9944,268.8411,156.995,268.8638,158.9633,268.7796,160.9342,268.7989,162.9038,268.7682,164.8759,268.8329,166.84,268.5869" style="stroke:#FF9900;stroke-width:1;"/></g><!--reverse link Envision to Train--><g class="link" data-entity-1="Envision" data-entity-2="Train" data-source-line="209" data-uid="lnk11" id="link_Envision_Train"><path d="M170.9602,168.0787 L171.2032,168.2183 L175.264,176.1222 L180.7491,184.845 L185.7703,193.3011 L189.2664,200.8803 L194.7839,209.6217 L199.1635,217.7088 L203.9959,226.0563 L209.1431,234.5848 L213.2054,242.4896 L219.4273,251.6359 L223.57,259.5869" fill="none" style="stroke:#FF9900;stroke-width:1;"/><polygon fill="#FF9900" points="167.97,162.8769,168.0397,162.8841,168.0361,164.8218,168.4411,166.802,168.713,168.7683,168.5475,170.6892,168.9875,172.673,168.9625,172.6663,169.1451,171.5437,169.4538,170.4552,169.8502,169.3903,169.9445,168.2439,170.4619,167.2117,170.51,167.3899,171.4994,167.3037,172.6292,167.7378,173.7762,168.2353,174.8235,168.3636,175.9232,168.6861,175.9366,168.7044,174.3263,167.5156,172.777,166.4104,171.1983,165.2649,169.6758,164.1964,167.97,162.8769" style="stroke:#FF9900;stroke-width:1;"/></g><!--reverse link Discover to Train--><g class="link" data-entity-1="Discover" data-entity-2="Train" data-source-line="210" data-uid="lnk13" id="link_Discover_Train"><path d="M302.2028,192.4514 L302.4445,192.5932 L296.7759,200.6113 L292.5244,209.4606 L287.8114,218.0393 L281.5809,225.7279 L277.3617,234.5961 L272.0102,242.8003 L267.1093,251.2687 L262.6,259.9669" fill="none" style="stroke:#FF9900;stroke-width:1;"/><polygon fill="#FF9900" points="305.24,187.2769,305.2808,187.3338,303.5585,188.312,302.0753,189.624,300.5143,190.8273,298.6971,191.6731,297.2345,193.0138,297.228,192.9887,298.2936,192.5913,299.3921,192.3202,300.5135,192.1369,301.5561,191.6509,302.709,191.589,302.8876,191.6354,302.7906,192.6309,303.2151,193.7621,303.7033,194.9099,303.8212,195.9613,304.1339,197.0634,304.1565,197.066,304.3445,195.1049,304.6354,193.1555,304.8768,191.2004,305.2128,189.2561,305.24,187.2769" style="stroke:#FF9900;stroke-width:1;"/></g><!--reverse link Assess to Train--><g class="link" data-entity-1="Assess" data-entity-2="Train" data-source-line="211" data-uid="lnk15" id="link_Assess_Train"><path d="M459.7137,181.9899 L459.8418,182.2391 L450.5721,186.0678 L442.0534,191.3576 L433.2902,196.1715 L423.7227,199.4208 L415.2211,204.7439 L406.1195,208.8995 L397.2567,213.5198 L388.5598,218.4629 L379.2909,222.2931 L371.1608,228.3388 L361.5501,231.5041 L352.9247,236.5862 L344.4195,241.9022 L335.2148,245.8575 L326.4197,250.6093 L317.4696,255.0598 L308.6,259.6669" fill="none" style="stroke:#FF9900;stroke-width:1;"/><polygon fill="#FF9900" points="465.05,179.2469,465.054,179.3168,463.0756,179.2204,461.1204,179.534,459.1577,179.7141,457.1701,179.455,455.2169,179.8038,455.209,179.7792,456.2507,180.0143,457.3323,180.3737,458.4417,180.8195,459.4554,180.9675,460.6031,181.5327,460.7788,181.5891,460.0573,182.5457,459.8488,183.667,459.7029,184.8084,459.1928,185.8329,458.8742,186.9189,458.892,186.9332,460.1011,185.3778,461.3909,183.8874,462.6418,182.3657,463.9669,180.9037,465.05,179.2469" style="stroke:#FF9900;stroke-width:1;"/></g><!--SRC=[rLXjRzis4FwkNy76sDeE2VoID8c78e3jE6tHp0xixCCG504jdIt25AcHL3nlw7_VYR8jIdv9LjW3eW-nSlVStNF7uvlUoDWmAKX8HJ1Jp1WGP4ov1izx4y2O2I3jJu-_jRxq7Zlzs_w0sATIRvtNBpikPDZjz7lNhS4V2rpbl7v-SNxfGkvQdQ-jJzsLeye5RTIQunpI7rnt1suSKkdQPmMvwVVk2u0Sukaf4p5LD28ZwaydIYOYw4WkrH9e51KQ4I3Ci-2VGiqV_LJmhd7QE2Rr3yUaKN_ls7sUnw1kcPYwPgJ2sIGq4mKWFEyjOSBdIG34X40c841HJbOkD1cZuKYQy9XOCuA3G0AgfcXf995FeD8n0J9Z9inyi2SS80t6C37HvShTV_xI-Thh3eUaZiEtTMJp7Eve4A0ZSkR81baf598bbuvy6D90pb9qsOkj1CTA_2u2-mBB5ienrp2c2JVa7-z62jEZ4P2ZWSJSvP6LP4NCXzSAX-nl8FKpxxlhgQMKdA6VZHQRtPWvnnf97XGznJZoT08BJckcxL9Z5EQ1rvOAarredCR547a48OF_uhumGLuMmPTHB0LsD8RvGS8RsMKrIoBUADOie8QEg8OzXol4yBbCWeC6a9o3dyuElVSmUPGE0fJa1upGJbrIDJzWYAump1mo01C6r9ZwSC0OG_Wp0U737LM6-IocmcJExaFcJmLeZGjc3jSBE39oBNQIMtEzWQU3oPSb8LL4ULctbiuj6mDkDh3L-GgmawPTFDUSM-bMprQxaPJLv3KyzLg-aUeP1XQoDLQgtJQ1tvBE6KchXfiG_bDvzd7dlC89JyM4myUFk5jfAQwkS7o7s7mW3MvWMtUFVUqBvOuhxzd59SgX2tyXIK7vu_vvbmvj1o2lvzf0zFfglN_U1whrSaD-7QNEsRw-IZjjCbfil1dhqi6uc8KzmzQUF-tzKEwx4yisc83g48ANvBenLHy3KznNr4jpnVFwxbOwGAQxXz3TsWqrcquQbUPfywBTS8BFGhnuUIrZ51ibng5QgPtMpZv0WLAbLhku69sNZx5Kw_yf5ittzShDJRDPgvMLxb77yqA65nE8OZpQ1Q1znUnT4JtQ-jnnAf2uz_3BDtAYqflfoHMU19-Ojg3bMwwxPjfFRwlUyYLNjRJ6e5xsauix8HvuFC_-a9EL62CkmcAR2HJSAsm-p_v5M1AxH0hI5OM2T15zHVbNSa8eqHWL0cm6XTbEvWMj1Y3Osf8yF91ghAIFzjKO2rA51QfAZfO6H-GRybs6jkQPJ-QJ12z9FYvrkg1dWXb6-KfBZ08e84Q9PdQSfaBEE0IJeZfMJE9jde4cFnEP6Bm0ba9ipo1Oe323fK6MGLQcrDXFLFfz99ieZbpXcPYbHHEuSAzf8seIbTuJtY5xNPLgKarN-ge1FtpluBPJenQ3n39mHijsHshtnEW8bp8bQH3HE9UlQfMMCXSZlIc4UD_7HgJfjvWe_UIpKaSK5s_ZuhVIybC8ihBGZ9JjhzrM9eMWbOLQg-__0W00]--></g></svg>