<?xml version="1.0" encoding="us-ascii" standalone="no"?><svg xmlns="http://www.w3.org/2000/svg" xmlns:xlink="http://www.w3.org/1999/xlink" contentStyleType="text/css" height="831px" preserveAspectRatio="none" style="width:804px;height:831px;background:#FFFFFF;" version="1.1" viewBox="0 0 804 831" width="804px" zoomAndPan="magnify"><defs><filter height="300%" id="f1wl2ozpwtb7dp" width="300%" x="-1" y="-1"><feGaussianBlur result="blurOut" stdDeviation="2.0"/><feColorMatrix in="blurOut" result="blurOut2" type="matrix" values="0 0 0 0 0 0 0 0 0 0 0 0 0 0 0 0 0 0 .4 0"/><feOffset dx="4.0" dy="4.0" in="blurOut2" result="blurOut3"/><feBlend in="SourceGraphic" in2="blurOut3" mode="normal"/></filter></defs><g><!--cluster Plan--><g id="cluster_Plan"><rect fill="none" filter="url(#f1wl2ozpwtb7dp)" height="784" rx="20" ry="20" style="stroke:#0077B6;stroke-width:0.5;" width="270" x="7" y="35"/><path d="M27,35 L257,35 A20,20 0 0 1 277,55 L277,61.9688 L7,61.9688 L7,55 A20,20 0 0 1 27,35 " fill="#ADE8F4" style="stroke:#ADE8F4;stroke-width:1.0;"/><rect fill="none" height="784" rx="20" ry="20" style="stroke:#0077B6;stroke-width:0.5;" width="270" x="7" y="35"/><line style="stroke:#0077B6;stroke-width:0.5;" x1="7" x2="277" y1="61.9688" y2="61.9688"/><text fill="#03045E" font-family="sans-serif" font-size="12" lengthAdjust="spacing" textLength="23" x="130.5" y="54.1387">Plan</text></g><!--cluster Build--><g id="cluster_Build"><rect fill="none" filter="url(#f1wl2ozpwtb7dp)" height="783" rx="20" ry="20" style="stroke:#0077B6;stroke-width:0.5;" width="218" x="565" y="7"/><path d="M585,7 L763,7 A20,20 0 0 1 783,27 L783,33.9688 L565,33.9688 L565,27 A20,20 0 0 1 585,7 " fill="#ADE8F4" style="stroke:#ADE8F4;stroke-width:1.0;"/><rect fill="none" height="783" rx="20" ry="20" style="stroke:#0077B6;stroke-width:0.5;" width="218" x="565" y="7"/><line style="stroke:#0077B6;stroke-width:0.5;" x1="565" x2="783" y1="33.9688" y2="33.9688"/><text fill="#03045E" font-family="sans-serif" font-size="12" lengthAdjust="spacing" textLength="29" x="659.5" y="26.1387">Build</text></g><!--cluster Run--><g id="cluster_Run"><rect fill="none" filter="url(#f1wl2ozpwtb7dp)" height="635" rx="20" ry="20" style="stroke:#0077B6;stroke-width:0.5;" width="232" x="309" y="7"/><path d="M329,7 L521,7 A20,20 0 0 1 541,27 L541,33.9688 L309,33.9688 L309,27 A20,20 0 0 1 329,7 " fill="#ADE8F4" style="stroke:#ADE8F4;stroke-width:1.0;"/><rect fill="none" height="635" rx="20" ry="20" style="stroke:#0077B6;stroke-width:0.5;" width="232" x="309" y="7"/><line style="stroke:#0077B6;stroke-width:0.5;" x1="309" x2="541" y1="33.9688" y2="33.9688"/><text fill="#03045E" font-family="sans-serif" font-size="12" lengthAdjust="spacing" textLength="21" x="414.5" y="26.1387">Run</text></g><ellipse cx="137" cy="93" fill="#222222" filter="url(#f1wl2ozpwtb7dp)" rx="10" ry="10" style="stroke:none;stroke-width:1.0;"/><g id="Plan.Envision"><rect fill="#ADE8F4" filter="url(#f1wl2ozpwtb7dp)" height="91.875" rx="20" ry="20" style="stroke:#0077B6;stroke-width:0.5;" width="198" x="38" y="200"/><line style="stroke:#0077B6;stroke-width:0.5;" x1="38" x2="236" y1="231.9688" y2="231.9688"/><text fill="#03045E" font-family="sans-serif" font-size="12" lengthAdjust="spacing" textLength="49" x="112.5" y="220.1387">Envision</text><text fill="#03045E" font-family="sans-serif" font-size="12" lengthAdjust="spacing" textLength="116" x="47" y="252.1074">- a shared strategy</text><text fill="#03045E" font-family="sans-serif" font-size="12" lengthAdjust="spacing" textLength="105" x="47" y="266.0762">- EKG envisioning</text><text fill="#03045E" font-family="sans-serif" font-size="12" lengthAdjust="spacing" textLength="170" x="47" y="280.0449">- EKG as a business enabler</text></g><g id="Plan.Discover"><rect fill="#ADE8F4" filter="url(#f1wl2ozpwtb7dp)" height="105.8438" rx="20" ry="20" style="stroke:#0077B6;stroke-width:0.5;" width="168" x="53" y="353"/><line style="stroke:#0077B6;stroke-width:0.5;" x1="53" x2="221" y1="384.9688" y2="384.9688"/><text fill="#03045E" font-family="sans-serif" font-size="12" lengthAdjust="spacing" textLength="54" x="110" y="373.1387">Discover</text><text fill="#03045E" font-family="sans-serif" font-size="12" lengthAdjust="spacing" textLength="128" x="62" y="405.1074">- strategic use cases</text><text fill="#03045E" font-family="sans-serif" font-size="12" lengthAdjust="spacing" textLength="127" x="62" y="419.0762">- initial use case tree</text><text fill="#03045E" font-family="sans-serif" font-size="12" lengthAdjust="spacing" textLength="134" x="62" y="433.0449">- business knowledge</text><text fill="#03045E" font-family="sans-serif" font-size="12" lengthAdjust="spacing" textLength="140" x="62" y="447.0137">- priorities &amp; outcomes</text></g><g id="Plan.Assess"><rect fill="#ADE8F4" filter="url(#f1wl2ozpwtb7dp)" height="105.8438" rx="20" ry="20" style="stroke:#0077B6;stroke-width:0.5;" width="213" x="31.5" y="520"/><line style="stroke:#0077B6;stroke-width:0.5;" x1="31.5" x2="244.5" y1="551.9688" y2="551.9688"/><text fill="#03045E" font-family="sans-serif" font-size="12" lengthAdjust="spacing" textLength="44" x="116" y="540.1387">Assess</text><text fill="#03045E" font-family="sans-serif" font-size="12" lengthAdjust="spacing" textLength="86" x="40.5" y="572.1074">- current state</text><text fill="#03045E" font-family="sans-serif" font-size="12" lengthAdjust="spacing" textLength="125" x="40.5" y="586.0762">- required next state</text><text fill="#03045E" font-family="sans-serif" font-size="12" lengthAdjust="spacing" textLength="185" x="40.5" y="600.0449">- maturity (buss/org/data/tech)</text><text fill="#03045E" font-family="sans-serif" font-size="12" lengthAdjust="spacing" textLength="145" x="40.5" y="614.0137">- scalability assessment</text></g><g id="Plan.Chart"><rect fill="#ADE8F4" filter="url(#f1wl2ozpwtb7dp)" height="105.8438" rx="20" ry="20" style="stroke:#0077B6;stroke-width:0.5;" width="179" x="60.5" y="689"/><line style="stroke:#0077B6;stroke-width:0.5;" x1="60.5" x2="239.5" y1="720.9688" y2="720.9688"/><text fill="#03045E" font-family="sans-serif" font-size="12" lengthAdjust="spacing" textLength="31" x="134.5" y="709.1387">Chart</text><text fill="#03045E" font-family="sans-serif" font-size="12" lengthAdjust="spacing" textLength="103" x="69.5" y="741.1074">- viable roadmap</text><text fill="#03045E" font-family="sans-serif" font-size="12" lengthAdjust="spacing" textLength="96" x="69.5" y="755.0762">- business case</text><text fill="#03045E" font-family="sans-serif" font-size="12" lengthAdjust="spacing" textLength="151" x="69.5" y="769.0449">- stakeholder agreement</text><text fill="#03045E" font-family="sans-serif" font-size="12" lengthAdjust="spacing" textLength="61" x="69.5" y="783.0137">- mandate</text></g><g id="Build.Allocate"><rect fill="#ADE8F4" filter="url(#f1wl2ozpwtb7dp)" height="63.9375" rx="20" ry="20" style="stroke:#0077B6;stroke-width:0.5;" width="127" x="584.5" y="710"/><line style="stroke:#0077B6;stroke-width:0.5;" x1="584.5" x2="711.5" y1="741.9688" y2="741.9688"/><text fill="#03045E" font-family="sans-serif" font-size="12" lengthAdjust="spacing" textLength="48" x="624" y="730.1387">Allocate</text><text fill="#03045E" font-family="sans-serif" font-size="12" lengthAdjust="spacing" textLength="99" x="593.5" y="762.1074">- budget &amp; team</text></g><g id="Build.Implement"><rect fill="#ADE8F4" filter="url(#f1wl2ozpwtb7dp)" height="63.9375" rx="20" ry="20" style="stroke:#0077B6;stroke-width:0.5;" width="152" x="581" y="541"/><line style="stroke:#0077B6;stroke-width:0.5;" x1="581" x2="733" y1="572.9688" y2="572.9688"/><text fill="#03045E" font-family="sans-serif" font-size="12" lengthAdjust="spacing" textLength="63" x="625.5" y="561.1387">Implement</text><text fill="#03045E" font-family="sans-serif" font-size="12" lengthAdjust="spacing" textLength="124" x="590" y="593.1074">- detail the use case</text></g><g id="Build.Test"><rect fill="#ADE8F4" filter="url(#f1wl2ozpwtb7dp)" height="77.9063" rx="20" ry="20" style="stroke:#0077B6;stroke-width:0.5;" width="150" x="584" y="367"/><line style="stroke:#0077B6;stroke-width:0.5;" x1="584" x2="734" y1="398.9688" y2="398.9688"/><text fill="#03045E" font-family="sans-serif" font-size="12" lengthAdjust="spacing" textLength="26" x="646" y="387.1387">Test</text><text fill="#03045E" font-family="sans-serif" font-size="12" lengthAdjust="spacing" textLength="122" x="593" y="419.1074">- add test scenarios</text><text fill="#03045E" font-family="sans-serif" font-size="12" lengthAdjust="spacing" textLength="88" x="593" y="433.0762">- full coverage</text></g><g id="Build.Verify"><rect fill="#ADE8F4" filter="url(#f1wl2ozpwtb7dp)" height="63.9375" rx="20" ry="20" style="stroke:#0077B6;stroke-width:0.5;" width="157" x="584.5" y="214"/><line style="stroke:#0077B6;stroke-width:0.5;" x1="584.5" x2="741.5" y1="245.9688" y2="245.9688"/><text fill="#03045E" font-family="sans-serif" font-size="12" lengthAdjust="spacing" textLength="35" x="645.5" y="234.1387">Verify</text><text fill="#03045E" font-family="sans-serif" font-size="12" lengthAdjust="spacing" textLength="129" x="593.5" y="266.1074">- verify with business</text></g><g id="Build.Deliver"><rect fill="#ADE8F4" filter="url(#f1wl2ozpwtb7dp)" height="91.875" rx="20" ry="20" style="stroke:#0077B6;stroke-width:0.5;" width="185" x="581.5" y="47"/><line style="stroke:#0077B6;stroke-width:0.5;" x1="581.5" x2="766.5" y1="78.9688" y2="78.9688"/><text fill="#03045E" font-family="sans-serif" font-size="12" lengthAdjust="spacing" textLength="43" x="652.5" y="67.1387">Deliver</text><text fill="#03045E" font-family="sans-serif" font-size="12" lengthAdjust="spacing" textLength="138" x="590.5" y="99.1074">- continuously improve</text><text fill="#03045E" font-family="sans-serif" font-size="12" lengthAdjust="spacing" textLength="157" x="590.5" y="113.0762">- deliver small increments</text><text fill="#03045E" font-family="sans-serif" font-size="12" lengthAdjust="spacing" textLength="70" x="590.5" y="127.0449">- frequently</text></g><g id="Run.Deploy"><rect fill="#ADE8F4" filter="url(#f1wl2ozpwtb7dp)" height="91.875" rx="20" ry="20" style="stroke:#0077B6;stroke-width:0.5;" width="199" x="325.5" y="47"/><line style="stroke:#0077B6;stroke-width:0.5;" x1="325.5" x2="524.5" y1="78.9688" y2="78.9688"/><text fill="#03045E" font-family="sans-serif" font-size="12" lengthAdjust="spacing" textLength="43" x="403.5" y="67.1387">Deploy</text><text fill="#03045E" font-family="sans-serif" font-size="12" lengthAdjust="spacing" textLength="171" x="334.5" y="99.1074">- as "Infrastructure as Code"</text><text fill="#03045E" font-family="sans-serif" font-size="12" lengthAdjust="spacing" textLength="160" x="334.5" y="113.0762">- "continuous deployment"</text><text fill="#03045E" font-family="sans-serif" font-size="12" lengthAdjust="spacing" textLength="101" x="334.5" y="127.0449">- fully automated</text></g><g id="Run.Operate"><rect fill="#ADE8F4" filter="url(#f1wl2ozpwtb7dp)" height="50" rx="20" ry="20" style="stroke:#0077B6;stroke-width:0.5;" width="78" x="386" y="221"/><line style="stroke:#0077B6;stroke-width:0.5;" x1="386" x2="464" y1="252.9688" y2="252.9688"/><text fill="#03045E" font-family="sans-serif" font-size="12" lengthAdjust="spacing" textLength="50" x="400" y="241.1387">Operate</text></g><g id="Run.Measure"><rect fill="#ADE8F4" filter="url(#f1wl2ozpwtb7dp)" height="105.8438" rx="20" ry="20" style="stroke:#0077B6;stroke-width:0.5;" width="165" x="342.5" y="353"/><line style="stroke:#0077B6;stroke-width:0.5;" x1="342.5" x2="507.5" y1="384.9688" y2="384.9688"/><text fill="#03045E" font-family="sans-serif" font-size="12" lengthAdjust="spacing" textLength="52" x="399" y="373.1387">Measure</text><text fill="#03045E" font-family="sans-serif" font-size="12" lengthAdjust="spacing" textLength="87" x="351.5" y="405.1074">- performance</text><text fill="#03045E" font-family="sans-serif" font-size="12" lengthAdjust="spacing" textLength="71" x="351.5" y="419.0762">- availability</text><text fill="#03045E" font-family="sans-serif" font-size="12" lengthAdjust="spacing" textLength="81" x="351.5" y="433.0449">- vulnerability</text><text fill="#03045E" font-family="sans-serif" font-size="12" lengthAdjust="spacing" textLength="137" x="351.5" y="447.0137">- business outcome(s)</text></g><g id="Run.Optimize"><rect fill="#ADE8F4" filter="url(#f1wl2ozpwtb7dp)" height="105.8438" rx="20" ry="20" style="stroke:#0077B6;stroke-width:0.5;" width="185" x="327.5" y="520"/><line style="stroke:#0077B6;stroke-width:0.5;" x1="327.5" x2="512.5" y1="551.9688" y2="551.9688"/><text fill="#03045E" font-family="sans-serif" font-size="12" lengthAdjust="spacing" textLength="54" x="393" y="540.1387">Optimize</text><text fill="#03045E" font-family="sans-serif" font-size="12" lengthAdjust="spacing" textLength="157" x="336.5" y="572.1074">- structural feedback loop</text><text fill="#03045E" font-family="sans-serif" font-size="12" lengthAdjust="spacing" textLength="138" x="336.5" y="586.0762">- continuously improve</text><text fill="#03045E" font-family="sans-serif" font-size="12" lengthAdjust="spacing" textLength="130" x="336.5" y="600.0449">- continuously update</text><text fill="#03045E" font-family="sans-serif" font-size="12" lengthAdjust="spacing" textLength="84" x="348.5" y="614.0137">use case tree</text></g><!--link *start*Plan to Envision--><g id="link_*start*Plan_Envision"><path d="M137,103.446 C137,121.403 137,161.62 137,194.615 " fill="none" id="*start*Plan-to-Envision" style="stroke:#023E8A;stroke-width:1.0;"/><polygon fill="#023E8A" points="137,199.844,141,190.844,137,194.844,133,190.844,137,199.844" style="stroke:#023E8A;stroke-width:1.0;"/></g><!--link Envision to Discover--><g id="link_Envision_Discover"><path d="M137,292.276 C137,309.53 137,329.426 137,347.655 " fill="none" id="Envision-to-Discover" style="stroke:#023E8A;stroke-width:1.0;"/><polygon fill="#023E8A" points="137,352.749,141,343.749,137,347.749,133,343.749,137,352.749" style="stroke:#023E8A;stroke-width:1.0;"/></g><!--link Discover to Assess--><g id="link_Discover_Assess"><path d="M137.316,459.207 C137.424,476.899 137.544,496.748 137.653,514.807 " fill="none" id="Discover-to-Assess" style="stroke:#023E8A;stroke-width:1.0;"/><polygon fill="#023E8A" points="137.684,519.85,141.6299,510.8262,137.654,514.8501,133.6301,510.8742,137.684,519.85" style="stroke:#023E8A;stroke-width:1.0;"/></g><!--link Assess to Chart--><g id="link_Assess_Chart"><path d="M141.764,626.382 C143.071,644.568 144.543,665.053 145.877,683.621 " fill="none" id="Assess-to-Chart" style="stroke:#023E8A;stroke-width:1.0;"/><polygon fill="#023E8A" points="146.249,688.804,149.5933,679.5403,145.8904,683.8169,141.6139,680.114,146.249,688.804" style="stroke:#023E8A;stroke-width:1.0;"/></g><!--link Chart to Allocate--><g id="link_Chart_Allocate"><path d="M239.608,742 C337.078,742 490.763,742 579.186,742 " fill="none" id="Chart-to-Allocate" style="stroke:#023E8A;stroke-width:1.0;"/><polygon fill="#023E8A" points="584.391,742,575.391,738,579.391,742,575.391,746,584.391,742" style="stroke:#023E8A;stroke-width:1.0;"/><text fill="#444444" font-family="sans-serif" font-size="12" font-weight="bold" lengthAdjust="spacing" textLength="89" x="367.5" y="718.1387">handover to</text><text fill="#444444" font-family="sans-serif" font-size="12" font-weight="bold" lengthAdjust="spacing" textLength="126" x="349" y="732.1074">delivery manager</text></g><!--reverse link Implement to Allocate--><g id="link_Implement_Allocate"><path d="M655.057,610.056 C653.454,639.798 651.203,681.56 649.678,709.863 " fill="none" id="Implement-backto-Allocate" style="stroke:#023E8A;stroke-width:1.0;"/><polygon fill="#023E8A" points="655.328,605.02,650.8504,613.7922,655.0594,610.0128,658.8388,614.2219,655.328,605.02" style="stroke:#023E8A;stroke-width:1.0;"/></g><!--reverse link Test to Implement--><g id="link_Test_Implement"><path d="M658.473,450.475 C658.129,478.882 657.687,515.309 657.378,540.844 " fill="none" id="Test-backto-Implement" style="stroke:#023E8A;stroke-width:1.0;"/><polygon fill="#023E8A" points="658.536,445.269,654.4257,454.2192,658.4746,450.2686,662.4251,454.3175,658.536,445.269" style="stroke:#023E8A;stroke-width:1.0;"/></g><!--reverse link Verify to Test--><g id="link_Verify_Test"><path d="M662.078,283.421 C661.445,308.416 660.607,341.521 659.965,366.874 " fill="none" id="Verify-backto-Test" style="stroke:#023E8A;stroke-width:1.0;"/><polygon fill="#023E8A" points="662.21,278.216,657.985,287.1126,662.0843,283.2144,665.9825,287.3137,662.21,278.216" style="stroke:#023E8A;stroke-width:1.0;"/></g><!--reverse link Deliver to Verify--><g id="link_Deliver_Verify"><path d="M670.326,144.43 C668.66,167.301 666.742,193.633 665.286,213.615 " fill="none" id="Deliver-backto-Verify" style="stroke:#023E8A;stroke-width:1.0;"/><polygon fill="#023E8A" points="670.7,139.305,666.0574,147.991,670.3372,144.2918,674.0364,148.5715,670.7,139.305" style="stroke:#023E8A;stroke-width:1.0;"/></g><!--link Deliver to Deploy--><g id="link_Deliver_Deploy"><path d="M581.269,93 C564.18,93 547.09,93 530.001,93 " fill="none" id="Deliver-to-Deploy" style="stroke:#023E8A;stroke-width:1.0;"/><polygon fill="#023E8A" points="524.697,93,533.697,97,529.697,93,533.697,89,524.697,93" style="stroke:#023E8A;stroke-width:1.0;"/></g><!--link Deploy to Operate--><g id="link_Deploy_Operate"><path d="M425,139.305 C425,164.075 425,194.038 425,215.726 " fill="none" id="Deploy-to-Operate" style="stroke:#023E8A;stroke-width:1.0;"/><polygon fill="#023E8A" points="425,220.776,429,211.776,425,215.776,421,211.776,425,220.776" style="stroke:#023E8A;stroke-width:1.0;"/></g><!--link Operate to Measure--><g id="link_Operate_Measure"><path d="M425,271.341 C425,291.629 425,321.351 425,347.618 " fill="none" id="Operate-to-Measure" style="stroke:#023E8A;stroke-width:1.0;"/><polygon fill="#023E8A" points="425,352.822,429,343.822,425,347.822,421,343.822,425,352.822" style="stroke:#023E8A;stroke-width:1.0;"/></g><!--link Measure to Optimize--><g id="link_Measure_Optimize"><path d="M423.418,459.207 C422.882,476.899 422.28,496.748 421.733,514.807 " fill="none" id="Measure-to-Optimize" style="stroke:#023E8A;stroke-width:1.0;"/><polygon fill="#023E8A" points="421.58,519.85,425.8508,510.9753,421.7314,514.8523,417.8544,510.733,421.58,519.85" style="stroke:#023E8A;stroke-width:1.0;"/></g><!--reverse link Plan to Optimize--><g id="link_Plan_Optimize"><path d="M277.1481,275.1134 C277.2267,275.7247 277.306,276.3365 277.3859,276.9489 C277.5458,278.1738 277.7083,279.401 277.8736,280.6305 C280.5178,300.3019 283.8559,320.5471 288.0581,340.8414 C296.4624,381.4299 308.3228,422.215 325,459 C334.948,480.942 350.399,502.006 365.97,519.878 " fill="none" id="Plan-backto-Optimize" style="stroke:#023E8A;stroke-width:1.0;"/><polygon fill="#023E8A" points="277.1481,275.1134,274.3288,284.5502,277.7859,280.0726,282.2635,283.5297,277.1481,275.1134" style="stroke:#023E8A;stroke-width:1.0;"/></g><!--SRC=[rLXjRzis4FxENy76mDeE2-8aNjeLHG3RST8WQHpOsO1X7G9QEjk4AL8ZANlUaF- -8oLBbEEyh8W_n1yiwUxHtNF7uylfJGnZBe5spcw_ji-lRhlzo_w0-b_ZwAZJFMsIDnLasElshqxQWzyBNAFJwdGxlH1otUvUjCzwfQ46mEZWb_qAqX-Sz0QX7zfe-Ly9EUrVtTG05OIO6PSfqooX8nRD9bfbCkugeJHjBARS0Y5lAPUHo6AWTWfq0X8q4xHypz0nWaVAJd-YWa-cbZ8PqvZf6Rvf5LLpq0kDbkY2ssbkWyz1KWFMSZanwv7SV3dlNbprXaEw7zAxPd6CSDeAP8EShKPAjDKC5CCfYzN2mQtE851yMQQW1PUpNsNiRu2EcJ0XP8hy7M6B77DTe3o1CSk4fV-IjwTAsYkM0DtffmWTCcde418-KYBU8KwRvx7AlXSE-Jz0zm_8NMYshRLQeD6DRsmsOvS2KuQ-wfPI74Ks0RIryTNEsY3NofHqbCQi59gWhj15vK6g-F-OhzNlypn4AacL1EdI_9s4DxBBSvObOYtxCRDin0oyiBkQZqYeBDwg0oK4H9OhBCENTbDvwI90Ax553nrdakdb5btqfELscmwujA37B88j-XZ2Nnd82AwPjZpYAPCsDtOpvT5CWZ7qC82R0ewCmZSU9NVFz0QU0QPQbgJI2HFhkdlXNF8nNE8I_A3n4l0eJRzutZFkfGzQzjgDfBmcp64xiae_mS137lJbj0zDuBUqsw8kQxXPuKFZoLyuvpLEU2Od0Zv_nctDA7byZECxnE83PN6dUt3tUAbzORtYrhVm-X8Lq8M_aQHaulRbUQ-TgRP0tYoDXUJrvVhbUMyfrwiD-NMakcBx-Z8TbCces7XprkK1EZy2rwFmPzZcqwUzxuhzyS3o3IPcPWhnSsBT66g4ZXdkA_gviUwtdYYbBKJw-126MxjbTjD9ey5Y-3Xk1SuRpSDcwsSWRMir7sKMDgYgpRJHF3Y4Zwp6iz5iVlWmEbe_sp9Z7Y5G0xFw_eez7cfz1DU2IRH2_lZnJxgB8o9tZ_6eDkS6pxI4hEvArGataMikoUgcrBIDGTCalvJIxXIF8vMTJtINCcfG236cK2E3oRAcxLsSKIYUtUwyhcC63OmomtqW8Db889kIZeCLTdb4Csml8bmaJ4tF9RSSk-cL5jjLW1gYj3-JQY4WdjJLgUOAUrKEXlv0LMQnTK8NHUWE46LQkqxAfpYGQpmFSXUwn4NhdZPXDjFkZFmE_PizfITxRfNRin1DtmSu4p71HbmuAFFI19qHudFj07FkiaArOd72qafUXkMYhiJ8OmPJR6fnDDa4S-7DbUe4MtD7z6vLCfsC2zTLUGHrGo-4Yb3poRVnlYgi-eQzlk1ultGMi3l6KLe1wMwMudldIIfoPwIyBLGtO2nnVyNpRw3vU4doIo4xoUtZ0MubFlRbNFd9WyRXipXG5bWIE7Aw67154lxpoAeOYFVgwpIEyHraO28iCnnoKwh6cH3KbmF6HGfMFlCv4V_HPPLjBCwSgAyCdFjSPYepOabvaceq4kgBd563HtdXlW5fJzQ4cB7sROKLosfC1fcRnGM8xchtJSYdA1LgIV9BEIdxUFvp8rfSI_bNO2RJG8fhWBSymHMP58PyTWpTEPTZpN2sPP5rS1HrLGmx0MgdYXT3Sr8NJOXmgSGopgp2yiVTPUNSppFivrnJWnrKA6Pp7BHY0eJoUIRSPxBxYhBkYxdwphmdP1LKiMBu671H60F4xgCS5KgbDT36eNiGaALkqdoJbAwjCtULQxhh2hcesly0]--></g></svg>