<svg xmlns="http://www.w3.org/2000/svg" xmlns:xlink="http://www.w3.org/1999/xlink" contentStyleType="text/css" data-diagram-type="STATE" height="880px" preserveAspectRatio="none" style="width:872px;height:880px;background:#FFFFFF;" version="1.1" viewBox="0 0 872 880" width="872px" zoomAndPan="magnify"><defs/><g><!--cluster Plan--><g class="cluster" data-entity="Plan" data-source-line="193" data-uid="ent0002" id="cluster_Plan"><path d="M11,39.6 L11,40.1605 L21.069,38.4951 L31.1379,40.1154 L41.2069,40.6658 L51.2759,37.6976 L61.3448,39.3928 L71.4138,38.4627 L81.4828,38.5773 L91.5517,39.4182 L101.6207,37.7563 L111.6897,41.0764 L121.7586,37.9193 L131.8276,39.0726 L141.8966,40.7519 L151.9655,39.3713 L162.0345,39.782 L172.1034,39.5148 L182.1724,40.0761 L192.2414,40.2377 L202.3103,41.1618 L212.3793,41.3895 L222.4483,41.4114 L232.5172,40.279 L242.5862,40.8362 L252.6552,41.4726 L262.7241,37.6768 L272.7931,41.4094 L282.8621,38.8093 L292.931,41.0235 L303,39.6 L307,43.6 L306.56,43.6 L306.9391,48.6594 L307.6592,53.7188 L306.9567,58.7781 L307.0936,63.8375 L307,68.8969 L307,69.7999 L297,70.0068 L287,68.8865 L277,69.6628 L267,67.3704 L257,69.6552 L247,70.3587 L237,70.0823 L227,70.5316 L217,67.6087 L207,67.1577 L197,67.2398 L187,68.7399 L177,68.3728 L167,70.714 L157,68.4311 L147,67.9821 L137,69.5056 L127,67.1186 L117,67.5125 L107,70.6274 L97,70.0587 L87,70.8555 L77,68.0388 L67,69.7481 L57,70.4713 L47,67.6371 L37,68.6412 L27,69.2328 L17,70.6349 L7,68.8969 L6.9963,68.8969 L7.4112,63.8375 L6.5077,58.7781 L6.398,53.7188 L7.4477,48.6594 L7,43.6 L11,39.6" fill="#ADE8F4"/><polygon fill="none" points="11,39.6,11,39.8102,21.069,39.1857,31.1379,39.7933,41.2069,39.9997,51.2759,38.8866,61.3448,39.5223,71.4138,39.1735,81.4828,39.2165,91.5517,39.5318,101.6207,38.9086,111.6897,40.1536,121.7586,38.9697,131.8276,39.4022,141.8966,40.0319,151.9655,39.5142,162.0345,39.6682,172.1034,39.5681,182.1724,39.7785,192.2414,39.8391,202.3103,40.1857,212.3793,40.2711,222.4483,40.2793,232.5172,39.8546,242.5862,40.0636,252.6552,40.3022,262.7241,38.8788,272.7931,40.2785,282.8621,39.3035,292.931,40.1338,303,39.6,302.9369,39.4476,303.5569,39.8132,304.226,40.297,304.6908,40.2879,305.2762,40.5697,305.8284,40.7716,305.9327,40.8148,306.1909,41.3904,306.2959,41.9024,306.6198,42.5053,306.5894,42.9613,307,43.6,307.2844,43.6,307.5482,53.5666,307.4445,63.5333,307.613,73.4999,306.5169,83.4665,306.3478,93.4331,306.3786,103.3998,306.9411,113.3664,306.8035,123.333,307.6814,133.2996,306.8253,143.2663,306.6569,153.2329,307.2283,163.1995,306.3332,173.1661,306.4809,183.1328,307.649,193.0994,307.4357,203.066,307.7345,213.0327,306.6782,222.9993,307.3192,232.9659,307.5904,242.9325,306.5276,252.8992,306.9041,262.8658,307.126,272.8324,307.6518,282.799,306.9958,292.7657,307.4626,302.7323,306.4462,312.6989,306.3227,322.6655,307.5036,332.6322,306.2831,342.5988,307.509,352.5654,307.2066,362.532,306.7321,372.4987,306.6462,382.4653,307.4588,392.4319,306.7007,402.3986,307.5919,412.3652,306.4473,422.3318,307.6174,432.2984,307.4843,442.2651,307.245,452.2317,307.0472,462.1983,307.7266,472.1649,307.6136,482.1316,307.1693,492.0982,307.2682,502.0648,306.8697,512.0314,307.7165,521.9981,307.1549,531.9647,307.1726,541.9313,306.3916,551.898,306.5948,561.8646,307.5307,571.8312,307.4298,581.7978,306.9571,591.7645,306.6778,601.7311,306.7811,611.6977,306.3138,621.6643,307.4147,631.631,307.7396,641.5976,307.5264,651.5642,307.6949,661.5308,306.8633,671.4975,307.0872,681.4641,306.6124,691.4307,307.284,701.3973,307.2468,711.364,307.5524,721.3306,306.7703,731.2972,306.8656,741.2639,307.4435,751.2305,307.5673,761.1971,306.4875,771.1637,306.8061,781.1304,307.1493,791.097,306.3892,801.0636,307.3534,811.0302,307.258,820.9969,306.8992,830.9635,307.1422,840.9301,307.7287,850.8967,306.6871,860.8634,307,870.83,307.097,870.8702,306.8537,871.4321,306.567,871.9761,306.3405,872.545,306.0977,873.1072,305.8284,873.6584,305.7488,873.4662,305.2116,873.7693,304.6382,873.9849,304.1395,874.381,303.5769,874.6228,303,874.83,303,874.9917,292.931,874.539,282.8621,874.7625,272.7931,874.7098,262.7241,875.4069,252.6552,875.2566,242.5862,874.3445,232.5172,874.7571,222.4483,874.2528,212.3793,875.1184,202.3103,875.4385,192.2414,875.3746,182.1724,874.3944,172.1034,875.294,162.0345,874.0872,151.9655,875.0302,141.8966,874.5307,131.8276,874.9267,121.7586,875.0703,111.6897,875.3021,101.6207,874.1101,91.5517,875.3055,81.4828,875.0082,71.4138,875.1853,61.3448,875.5778,51.2759,874.8355,41.2069,875.0053,31.1379,875.0434,21.069,875.0272,11,874.83,10.9999,874.8297,10.525,874.8146,9.7908,874.1736,9.3751,874.3011,8.6577,873.7006,8.1716,873.6584,8.0052,873.5895,7.9496,873.0978,7.7117,872.5307,7.3169,871.8985,7.3617,871.4485,7,870.83,7.1089,870.83,7.7267,860.8634,7.6671,850.8967,6.5517,840.9301,6.6021,830.9635,6.8708,820.9969,7.3555,811.0302,7.403,801.0636,7.3012,791.097,6.658,781.1304,7.6364,771.1637,7.6338,761.1971,6.9527,751.2305,6.7609,741.2639,6.5986,731.2972,6.7854,721.3306,7.1374,711.364,6.9316,701.3973,6.5822,691.4307,7.4874,681.4641,6.5411,671.4975,7.5024,661.5308,7.4272,651.5642,7.3719,641.5976,7.6925,631.631,6.7541,621.6643,6.6994,611.6977,7.5189,601.7311,6.4031,591.7645,6.766,581.7978,7.1155,571.8312,7.0687,561.8646,6.6415,551.898,6.957,541.9313,7.7446,531.9647,7.6485,521.9981,6.4037,512.0314,7.0785,502.0648,6.4861,492.0982,6.9737,482.1316,7.293,472.1649,7.4199,462.1983,6.3353,452.2317,7.4005,442.2651,7.0084,432.2984,6.4447,422.3318,6.5289,412.3652,7.3266,402.3986,7.2499,392.4319,6.9836,382.4653,6.3279,372.4987,7.6581,362.532,6.6882,352.5654,6.4719,342.5988,6.9327,332.6322,7.5897,322.6655,7.6154,312.6989,7.0351,302.7323,6.8488,292.7657,7.1698,282.799,7.1862,272.8324,6.4922,262.8658,7.414,252.8992,7.5588,242.9325,6.7842,232.9659,6.5708,222.9993,7.6746,213.0327,7.021,203.066,6.9998,193.0994,7.299,183.1328,6.3543,173.1661,7.53,163.1995,6.9846,153.2329,7.6688,143.2663,6.7841,133.2996,7.409,123.333,6.556,113.3664,7.245,103.3998,7.3793,93.4331,6.6727,83.4665,7.363,73.4999,6.4286,63.5333,6.5295,53.5666,7,43.6,7.2103,43.6871,7.4451,43.1216,7.6437,42.5411,7.592,41.857,8.0556,41.3863,8.1716,40.7716,8.1114,40.6262,8.7447,40.5552,9.3028,40.3026,9.8352,39.9878,10.5129,40.024,11,39.6" style="stroke:#0077B6;stroke-width:0.5;"/><path d="M7,68.8969 L7,69.1771 L17,68.3444 L27,69.1546 L37,69.4298 L47,67.9457 L57,68.7933 L67,68.3282 L77,68.3855 L87,68.806 L97,67.975 L107,69.6351 L117,68.0565 L127,68.6332 L137,69.4728 L147,68.7825 L157,68.9879 L167,68.8543 L177,69.1349 L187,69.2157 L197,69.6778 L207,69.7916 L217,69.8026 L227,69.2364 L237,69.515 L247,69.8332 L257,67.9353 L267,69.8016 L277,68.5015 L287,69.6086 L297,68.2368 L307,68.8969" fill="#ADE8F4" style="stroke:#0077B6;stroke-width:0.5;"/><text fill="#03045E" font-family="'Roboto'" font-size="14" lengthAdjust="spacing" textLength="29.7842" x="142.1079" y="60.5951">Plan</text></g><!--cluster Build--><g class="cluster" data-entity="Build" data-source-line="221" data-uid="ent0007" id="cluster_Build"><path d="M627,7 L627,7.5605 L637.1739,5.8951 L647.3478,7.5154 L657.5217,8.0658 L667.6957,5.0976 L677.8696,6.7928 L688.0435,5.8627 L698.2174,5.9773 L708.3913,6.8182 L718.5652,5.1563 L728.7391,8.4764 L738.913,5.3193 L749.087,6.4726 L759.2609,8.1519 L769.4348,6.7713 L779.6087,7.182 L789.7826,6.9148 L799.9565,7.4761 L810.1304,7.6377 L820.3043,8.5618 L830.4783,8.7895 L840.6522,8.8114 L850.8261,7.679 L861,7 L865,11 L865.4121,11 L865.6242,16.0594 L864.3589,21.1188 L865.6031,26.1781 L864.7364,31.2375 L865,36.2969 L865,37.7204 L854.9167,34.9768 L844.8333,36.1142 L834.75,38.2745 L824.6667,36.1669 L814.5833,36.5777 L804.5,37.1999 L794.4167,37.4068 L784.3333,36.2865 L774.25,37.0628 L764.1667,34.7704 L754.0833,37.0552 L744,37.7587 L733.9167,37.4823 L723.8333,37.9316 L713.75,35.0087 L703.6667,34.5577 L693.5833,34.6398 L683.5,36.1399 L673.4167,35.7728 L663.3333,38.114 L653.25,35.8311 L643.1667,35.3821 L633.0833,36.9056 L623,36.2969 L622.4073,36.2969 L622.5386,31.2375 L623.5768,26.1781 L623.3873,21.1188 L623.6529,16.0594 L623,11 L627,7" fill="#ADE8F4"/><polygon fill="none" points="627,7,627,7.2102,637.1739,6.5857,647.3478,7.1933,657.5217,7.3997,667.6957,6.2866,677.8696,6.9223,688.0435,6.5735,698.2174,6.6165,708.3913,6.9318,718.5652,6.3086,728.7391,7.5536,738.913,6.3697,749.087,6.8022,759.2609,7.4319,769.4348,6.9142,779.6087,7.0682,789.7826,6.9681,799.9565,7.1785,810.1304,7.2391,820.3043,7.5857,830.4783,7.6711,840.6522,7.6793,850.8261,7.2546,861,7,861.0591,7.1428,861.6553,7.4506,862.0394,7.2465,862.7836,7.9119,863.2249,7.8459,863.8284,8.1716,863.9928,8.2397,863.9103,8.6741,864.276,9.2942,864.7598,9.9632,864.7507,10.4281,865,11,865.1053,11,865.3386,20.9684,865.4162,30.9369,864.9961,40.9053,865.2872,50.8737,864.4276,60.8422,865.2844,70.8106,865.5482,80.779,865.4445,90.7475,865.613,100.7159,864.5169,110.6843,864.3478,120.6528,864.3786,130.6212,864.9411,140.5896,864.8035,150.5581,865.6814,160.5265,864.8253,170.4949,864.6569,180.4634,865.2283,190.4318,864.3332,200.4002,864.4809,210.3687,865.649,220.3371,865.4357,230.3055,865.7345,240.274,864.6782,250.2424,865.3192,260.2108,865.5904,270.1793,864.5276,280.1477,864.9041,290.1161,865.126,300.0846,865.6518,310.053,864.9958,320.0214,865.4626,329.9899,864.4462,339.9583,864.3227,349.9267,865.5036,359.8952,864.2831,369.8636,865.509,379.832,865.2066,389.8005,864.7321,399.7689,864.6462,409.7373,865.4588,419.7058,864.7007,429.6742,865.5919,439.6427,864.4473,449.6111,865.6174,459.5795,865.4843,469.548,865.245,479.5164,865.0472,489.4848,865.7266,499.4533,865.6136,509.4217,865.1693,519.3901,865.2682,529.3586,864.8697,539.327,865.7165,549.2954,865.1549,559.2639,865.1726,569.2323,864.3916,579.2007,864.5948,589.1692,865.5307,599.1376,865.4298,609.106,864.9571,619.0745,864.6778,629.0429,864.7811,639.0113,864.3138,648.9798,865.4147,658.9482,865.7396,668.9166,865.5264,678.8851,865.6949,688.8535,864.8633,698.8219,865.0872,708.7904,864.6124,718.7588,865.284,728.7272,865.2468,738.6957,865.5524,748.6641,864.7703,758.6325,864.8656,768.601,865.4435,778.5694,865.5673,788.5378,864.4875,798.5063,864.8061,808.4747,865.1493,818.4431,864.3892,828.4116,865,838.38,865.1088,838.4251,864.8451,838.9786,864.5003,839.4985,864.3409,840.0952,864.2871,840.7357,863.8284,841.2084,863.7885,841.1121,863.3029,841.5397,862.7335,841.765,862.1461,841.947,861.5837,842.1891,861,842.38,861,842.4935,850.8261,841.7558,840.6522,841.9792,830.4783,841.9185,820.3043,842.4438,810.1304,842.4681,799.9565,842.5417,789.7826,842.089,779.6087,842.3125,769.4348,842.2598,759.2609,842.9569,749.087,842.8066,738.913,841.8945,728.7391,842.3071,718.5652,841.8028,708.3913,842.6684,698.2174,842.9885,688.0435,842.9246,677.8696,841.9444,667.6957,842.844,657.5217,841.6372,647.3478,842.5802,637.1739,842.0807,627,842.38,627.0123,842.4098,626.465,842.2197,625.9289,842.0568,625.2111,841.4554,624.7979,841.5892,624.1716,841.2084,624.2264,841.2312,624.0467,840.6881,623.9332,840.1724,623.4703,839.5121,623.2883,838.968,623,838.38,623.2134,838.38,623.1972,828.4116,622.9992,818.4431,623.7107,808.4747,622.3903,798.5063,623.5653,788.5378,622.376,778.5694,622.4597,768.601,623.04,758.6325,623.0283,748.6641,622.5072,738.6957,623.4137,728.7272,623.1089,718.7588,623.7267,708.7904,623.6671,698.8219,622.5517,688.8535,622.6021,678.8851,622.8708,668.9166,623.3555,658.9482,623.403,648.9798,623.3012,639.0113,622.658,629.0429,623.6364,619.0745,623.6338,609.106,622.9527,599.1376,622.7609,589.1692,622.5986,579.2007,622.7854,569.2323,623.1374,559.2639,622.9316,549.2954,622.5822,539.327,623.4874,529.3586,622.5411,519.3901,623.5024,509.4217,623.4272,499.4533,623.3719,489.4848,623.6925,479.5164,622.7541,469.548,622.6994,459.5795,623.5189,449.6111,622.4031,439.6427,622.766,429.6742,623.1155,419.7058,623.0687,409.7373,622.6415,399.7689,622.957,389.8005,623.7446,379.832,623.6485,369.8636,622.4037,359.8952,623.0785,349.9267,622.4861,339.9583,622.9737,329.9899,623.293,320.0214,623.4199,310.053,622.3353,300.0846,623.4005,290.1161,623.0084,280.1477,622.4447,270.1793,622.5289,260.2108,623.3266,250.2424,623.2499,240.274,622.9836,230.3055,622.3279,220.3371,623.6581,210.3687,622.6882,200.4002,622.4719,190.4318,622.9327,180.4634,623.5897,170.4949,623.6154,160.5265,623.0351,150.5581,622.8488,140.5896,623.1698,130.6212,623.1862,120.6528,622.4922,110.6843,623.414,100.7159,623.5588,90.7475,622.7842,80.779,622.5708,70.8106,623.6746,60.8422,623.021,50.8737,622.9998,40.9053,623.299,30.9369,622.3543,20.9684,623,11,623.1632,11.0676,623.2296,10.4323,623.6746,9.9539,623.6365,9.2754,624.0632,8.7894,624.1716,8.1716,624.1149,8.0348,624.7685,8.0127,625.3513,7.8198,625.8269,7.3678,626.4806,7.3461,627,7" style="stroke:#0077B6;stroke-width:0.5;"/><path d="M623,36.2969 L623,36.5771 L633.0833,35.7444 L643.1667,36.5546 L653.25,36.8298 L663.3333,35.3457 L673.4167,36.1933 L683.5,35.7282 L693.5833,35.7855 L703.6667,36.206 L713.75,35.375 L723.8333,37.0351 L733.9167,35.4565 L744,36.0332 L754.0833,36.8728 L764.1667,36.1825 L774.25,36.3879 L784.3333,36.2543 L794.4167,36.5349 L804.5,36.6157 L814.5833,37.0778 L824.6667,37.1916 L834.75,37.2026 L844.8333,36.6364 L854.9167,36.915 L865,36.2969" fill="#ADE8F4" style="stroke:#0077B6;stroke-width:0.5;"/><text fill="#03045E" font-family="'Roboto'" font-size="14" lengthAdjust="spacing" textLength="35.1436" x="726.4282" y="27.9951">Build</text></g><!--cluster Run--><g class="cluster" data-entity="Run" data-source-line="245" data-uid="ent0013" id="cluster_Run"><path d="M343,7 L343,7.5605 L353.08,5.8951 L363.16,7.5154 L373.24,8.0658 L383.32,5.0976 L393.4,6.7928 L403.48,5.8627 L413.56,5.9773 L423.64,6.8182 L433.72,5.1563 L443.8,8.4764 L453.88,5.3193 L463.96,6.4726 L474.04,8.1519 L484.12,6.7713 L494.2,7.182 L504.28,6.9148 L514.36,7.4761 L524.44,7.6377 L534.52,8.5618 L544.6,8.7895 L554.68,8.8114 L564.76,7.679 L574.84,8.2362 L584.92,8.8726 L595,7 L599,11 L598.3589,11 L599.6031,16.0594 L598.7364,21.1188 L599.4745,26.1781 L598.56,31.2375 L599,36.2969 L599,36.1142 L589,38.2745 L579,36.1669 L569,36.5777 L559,37.1999 L549,37.4068 L539,36.2865 L529,37.0628 L519,34.7704 L509,37.0552 L499,37.7587 L489,37.4823 L479,37.9316 L469,35.0087 L459,34.5577 L449,34.6398 L439,36.1399 L429,35.7728 L419,38.114 L409,35.8311 L399,35.3821 L389,36.9056 L379,34.5186 L369,34.9125 L359,38.0274 L349,37.4587 L339,36.2969 L339.6529,36.2969 L338.714,31.2375 L339.2837,26.1781 L339.5248,21.1188 L338.5801,16.0594 L339,11 L343,7" fill="#ADE8F4"/><polygon fill="none" points="343,7,343,7.2102,353.08,6.5857,363.16,7.1933,373.24,7.3997,383.32,6.2866,393.4,6.9223,403.48,6.5735,413.56,6.6165,423.64,6.9318,433.72,6.3086,443.8,7.5536,453.88,6.3697,463.96,6.8022,474.04,7.4319,484.12,6.9142,494.2,7.0682,504.28,6.9681,514.36,7.1785,524.44,7.2391,534.52,7.5857,544.6,7.6711,554.68,7.6793,564.76,7.2546,574.84,7.4636,584.92,7.7022,595,7,594.908,6.7779,595.6522,7.4433,596.0935,7.3773,596.7651,7.8673,597.1996,7.7848,597.8284,8.1716,597.8073,8.1628,598.2911,8.8319,598.282,9.2967,598.5638,9.8821,598.87,10.4775,599,11,599.4162,11,598.9961,21.0201,599.2872,31.0403,598.4276,41.0604,599.2844,51.0806,599.5482,61.1007,599.4445,71.1209,599.613,81.141,598.5169,91.1612,598.3478,101.1813,598.3786,111.2015,598.9411,121.2216,598.8035,131.2418,599.6814,141.2619,598.8253,151.2821,598.6569,161.3022,599.2283,171.3224,598.3332,181.3425,598.4809,191.3627,599.649,201.3828,599.4357,211.403,599.7345,221.4231,598.6782,231.4433,599.3192,241.4634,599.5904,251.4836,598.5276,261.5037,598.9041,271.5239,599.126,281.544,599.6518,291.5642,598.9958,301.5843,599.4626,311.6045,598.4462,321.6246,598.3227,331.6448,599.5036,341.6649,598.2831,351.6851,599.509,361.7052,599.2066,371.7254,598.7321,381.7455,598.6462,391.7657,599.4588,401.7858,598.7007,411.806,599.5919,421.8261,598.4473,431.8463,599.6174,441.8664,599.4843,451.8866,599.245,461.9067,599.0472,471.9269,599.7266,481.947,599.6136,491.9672,599.1693,501.9873,599.2682,512.0075,598.8697,522.0276,599.7165,532.0478,599.1549,542.0679,599.1726,552.0881,598.3916,562.1082,598.5948,572.1284,599.5307,582.1485,599.4298,592.1687,598.9571,602.1888,598.6778,612.209,598.7811,622.2291,598.3138,632.2493,599.4147,642.2694,599.7396,652.2896,599.5264,662.3097,599.6949,672.3299,599,682.35,598.9579,682.3326,598.7925,682.9268,598.412,683.4319,598.3845,684.0833,598.1387,684.6442,597.8284,685.1784,597.8989,685.3485,597.2334,685.342,596.6799,685.6057,596.1879,686.0179,595.6381,686.2904,595,686.35,595,685.8375,584.92,686.1561,574.84,686.4993,564.76,685.7392,554.68,686.7034,544.6,686.608,534.52,686.2492,524.44,686.4922,514.36,687.0787,504.28,686.0371,494.2,686.665,484.12,686.6356,474.04,686.4658,463.96,686.4909,453.88,686.4635,443.8,685.7258,433.72,685.9492,423.64,685.8885,413.56,686.4138,403.48,686.4381,393.4,686.5117,383.32,686.059,373.24,686.2825,363.16,686.2298,353.08,686.9269,343,686.35,343.0544,686.4814,342.3724,685.9662,341.8593,685.8589,341.2293,685.4693,340.774,685.5016,340.1716,685.1784,340.359,685.256,340.105,684.6822,339.5688,683.9915,339.6115,683.5406,339.0056,682.8209,339,682.35,339.2002,682.35,338.7007,672.3299,339.0967,662.3097,339.2403,652.2896,339.4721,642.2694,338.2801,632.2493,339.4755,622.2291,339.1782,612.209,339.3553,602.1888,339.7478,592.1687,339.0055,582.1485,339.1753,572.1284,339.2134,562.1082,339.1972,552.0881,338.9992,542.0679,339.7107,532.0478,338.3903,522.0276,339.5653,512.0075,338.376,501.9873,338.4597,491.9672,339.04,481.947,339.0283,471.9269,338.5072,461.9067,339.4137,451.8866,339.1089,441.8664,339.7267,431.8463,339.6671,421.8261,338.5517,411.806,338.6021,401.7858,338.8708,391.7657,339.3555,381.7455,339.403,371.7254,339.3012,361.7052,338.658,351.6851,339.6364,341.6649,339.6338,331.6448,338.9527,321.6246,338.7609,311.6045,338.5986,301.5843,338.7854,291.5642,339.1374,281.544,338.9316,271.5239,338.5822,261.5037,339.4874,251.4836,338.5411,241.4634,339.5024,231.4433,339.4272,221.4231,339.3719,211.403,339.6925,201.3828,338.7541,191.3627,338.6994,181.3425,339.5189,171.3224,338.4031,161.3022,338.766,151.2821,339.1155,141.2619,339.0687,131.2418,338.6415,121.2216,338.957,111.2015,339.7446,101.1813,339.6485,91.1612,338.4037,81.141,339.0785,71.1209,338.4861,61.1007,338.9737,51.0806,339.293,41.0604,339.4199,31.0403,338.3353,21.0201,339,11,339.1234,11.0511,339.2369,10.4354,339.2976,9.7978,339.5579,9.2429,340.0378,8.7789,340.1716,8.1716,340.2034,8.2485,340.7352,7.9322,341.2172,7.496,341.9526,7.6713,342.3945,7.1383,343,7" style="stroke:#0077B6;stroke-width:0.5;"/><path d="M339,36.2969 L339,36.5771 L349,35.7444 L359,36.5546 L369,36.8298 L379,35.3457 L389,36.1933 L399,35.7282 L409,35.7855 L419,36.206 L429,35.375 L439,37.0351 L449,35.4565 L459,36.0332 L469,36.8728 L479,36.1825 L489,36.3879 L499,36.2543 L509,36.5349 L519,36.6157 L529,37.0778 L539,37.1916 L549,37.2026 L559,36.6364 L569,36.915 L579,37.2332 L589,35.3353 L599,36.2969" fill="#ADE8F4" style="stroke:#0077B6;stroke-width:0.5;"/><text fill="#03045E" font-family="'Roboto'" font-size="14" lengthAdjust="spacing" textLength="27.4736" x="455.2632" y="27.9951">Run</text></g><g id="Plan.Envision"><polygon fill="#ADE8F4" points="45.57,212.19,45.57,212.4002,55.8014,211.7757,66.0327,212.3833,76.2641,212.5897,86.4954,211.4766,96.7268,212.1123,106.9581,211.7635,117.1895,211.8065,127.4208,212.1218,137.6522,211.4986,147.8835,212.7436,158.1149,211.5597,168.3462,211.9922,178.5776,212.6219,188.8089,212.1042,199.0403,212.2582,209.2716,212.1581,219.503,212.3685,229.7343,212.4291,239.9657,212.7757,250.197,212.8611,260.4284,212.19,260.515,212.3992,261.0266,212.5027,261.6189,212.8014,262.215,213.1092,262.5991,212.9052,263.2568,213.3616,263.4658,213.4481,263.3998,213.8894,263.8898,214.561,263.8073,214.9955,264.173,215.6156,264.4284,216.19,265.17,216.19,264.3797,226.5442,264.5337,236.8983,264.767,247.2525,264.8446,257.6067,264.4245,267.9608,264.7156,278.315,263.856,288.6692,264.7128,299.0233,264.4284,309.3775,264.5972,309.4474,264.331,309.9999,264.1486,310.5871,263.5767,311.0129,263.2903,311.557,263.2568,312.2059,263.1776,312.0146,262.6836,312.4221,262.1004,312.614,261.6467,313.1187,260.9718,313.0894,260.4284,313.3775,260.4284,313.0344,250.197,313.6058,239.9657,312.7107,229.7343,312.8584,219.503,314.0265,209.2716,313.8132,199.0403,314.112,188.8089,313.0557,178.5776,313.6967,168.3462,313.9679,158.1149,312.9051,147.8835,313.2816,137.6522,313.5035,127.4208,314.0293,117.1895,313.3733,106.9581,313.8401,96.7268,312.8237,86.4954,312.7002,76.2641,313.8811,66.0327,312.6606,55.8014,313.8865,45.57,313.3775,45.5964,313.4411,44.9701,313.0607,44.3935,312.7999,43.9315,312.8158,43.2691,312.3481,42.7416,312.2059,42.9238,312.2814,42.337,311.5697,42.4631,311.1533,42.1878,310.5706,41.8798,309.9744,41.57,309.3775,41.6172,309.3775,42.2966,299.0233,42.1836,288.6692,41.7393,278.315,41.8382,267.9608,41.4397,257.6067,42.2865,247.2525,41.7249,236.8983,41.7426,226.5442,41.57,216.19,41.3827,216.1124,41.6795,215.5726,42.2021,215.1263,42.4053,214.5478,42.494,213.9218,42.7416,213.3616,42.7005,213.2624,43.2793,213.0598,43.7854,212.6816,44.4915,212.7864,45.0987,212.6521,45.57,212.19" style="stroke:#0077B6;stroke-width:0.5;"/><path d="M41.57,246.4869 L41.57,246.7671 L51.6999,245.9344 L61.8299,246.7446 L71.9598,247.0198 L82.0897,245.5357 L92.2196,246.3833 L102.3496,245.9182 L112.4795,245.9755 L122.6094,246.396 L132.7393,245.565 L142.8693,247.2251 L152.9992,245.6465 L163.1291,246.2232 L173.2591,247.0628 L183.389,246.3725 L193.5189,246.5779 L203.6488,246.4443 L213.7788,246.7249 L223.9087,246.8057 L234.0386,247.2678 L244.1685,247.3816 L254.2985,247.3926 L264.4284,246.4869" fill="#ADE8F4" style="stroke:#0077B6;stroke-width:0.5;"/><text fill="#03045E" font-family="'Roboto'" font-size="14" lengthAdjust="spacing" textLength="58.5156" x="123.7414" y="234.1851">Envision</text><text fill="#03045E" font-family="'Roboto'" font-size="14" lengthAdjust="spacing" textLength="133.376" x="50.57" y="268.482">- a shared strategy</text><text fill="#03045E" font-family="'Roboto'" font-size="14" lengthAdjust="spacing" textLength="122.7598" x="50.57" y="284.7789">- EKG envisioning</text><text fill="#03045E" font-family="'Roboto'" font-size="14" lengthAdjust="spacing" textLength="194.8584" x="50.57" y="301.0757">- EKG as a business enabler</text></g><g id="Plan.Discover"><polygon fill="#ADE8F4" points="62.96,374.38,62.96,374.5902,72.9647,373.9657,82.9693,374.5733,92.974,374.7797,102.9787,373.6666,112.9833,374.3023,122.988,373.9535,132.9927,373.9965,142.9973,374.3118,153.002,373.6886,163.0067,374.9336,173.0113,373.7497,183.016,374.1822,193.0207,374.8119,203.0253,374.2942,213.03,374.4482,223.0347,374.3481,233.0393,374.5585,243.044,374.38,243.0745,374.4536,243.6844,374.7947,244.261,375.0553,244.8277,375.2921,245.3392,375.3957,245.8724,375.5516,246.0152,375.6107,246.323,376.2068,246.1189,376.5909,246.7843,377.3352,246.7184,377.7765,247.044,378.38,247.5778,378.38,246.549,388.3331,246.9755,398.2863,247.7856,408.2394,246.9952,418.1925,247.1493,428.1456,247.3826,438.0988,247.4602,448.0519,247.0401,458.005,247.3312,467.9581,246.4716,477.9113,247.044,487.8644,247.1316,487.9007,246.9785,488.5,246.7123,489.0525,246.5298,489.6396,245.958,490.0655,245.8724,490.6928,245.7892,490.492,245.2275,490.7358,244.7335,491.1433,244.1503,491.3352,243.6966,491.8399,243.044,491.8644,243.044,491.6897,233.0393,491.5213,223.0347,492.0926,213.03,491.1975,203.0253,491.3452,193.0207,492.5133,183.016,492.3,173.0113,492.5989,163.0067,491.5426,153.002,492.1836,142.9973,492.4548,132.9927,491.392,122.988,491.7685,112.9833,491.9904,102.9787,492.5161,92.974,491.8602,82.9693,492.3269,72.9647,491.3106,62.96,491.8644,62.8736,491.6558,62.4586,491.7852,61.7372,491.175,61.3279,491.3182,60.7236,490.9908,60.1316,490.6928,60.0491,490.6586,59.7883,490.082,59.8042,489.62,59.3364,488.9576,59.3766,488.5056,58.96,487.8644,58.4073,487.8644,59.5774,477.9113,59.4443,467.9581,59.205,458.005,59.0072,448.0519,59.6866,438.0988,59.5736,428.1456,59.1293,418.1925,59.2282,408.2394,58.8297,398.2863,59.6765,388.3331,58.96,378.38,59.0077,378.3998,59.2475,377.8363,59.2413,377.171,59.5382,376.6313,60.0607,376.185,60.1316,375.5516,60.1864,375.6839,60.6918,375.304,61.2218,374.9837,61.8007,374.7812,62.3068,374.403,62.96,374.38" style="stroke:#0077B6;stroke-width:0.5;"/><path d="M58.96,408.6769 L58.96,408.9571 L68.8592,408.1244 L78.7583,408.9346 L88.6575,409.2098 L98.5566,407.7257 L108.4558,408.5733 L118.3549,408.1082 L128.2541,408.1655 L138.1533,408.586 L148.0524,407.755 L157.9516,409.4151 L167.8507,407.8365 L177.7499,408.4132 L187.649,409.2528 L197.5482,408.5625 L207.4474,408.7679 L217.3465,408.6343 L227.2457,408.9149 L237.1448,408.9957 L247.044,408.6769" fill="#ADE8F4" style="stroke:#0077B6;stroke-width:0.5;"/><text fill="#03045E" font-family="'Roboto'" font-size="14" lengthAdjust="spacing" textLength="60.8809" x="122.5616" y="396.3751">Discover</text><text fill="#03045E" font-family="'Roboto'" font-size="14" lengthAdjust="spacing" textLength="144.3545" x="67.96" y="430.672">- strategic use cases</text><text fill="#03045E" font-family="'Roboto'" font-size="14" lengthAdjust="spacing" textLength="146.7881" x="67.96" y="446.9689">- initial use case tree</text><text fill="#03045E" font-family="'Roboto'" font-size="14" lengthAdjust="spacing" textLength="150.8555" x="67.96" y="463.2657">- business knowledge</text><text fill="#03045E" font-family="'Roboto'" font-size="14" lengthAdjust="spacing" textLength="160.084" x="67.96" y="479.5626">- priorities &amp; outcomes</text></g><g id="Plan.Assess"><polygon fill="#ADE8F4" points="34.61,552.86,34.61,553.0702,44.4762,552.4457,54.3423,553.0533,64.2085,553.2597,74.0747,552.1466,83.9409,552.7823,93.807,552.4335,103.6732,552.4765,113.5394,552.7918,123.4055,552.1686,133.2717,553.4136,143.1379,552.2297,153.004,552.6622,162.8702,553.2919,172.7364,552.7742,182.6026,552.9282,192.4687,552.8281,202.3349,553.0385,212.2011,553.0991,222.0672,553.4457,231.9334,553.5311,241.7996,553.5393,251.6657,553.1146,261.5319,553.3236,271.3981,552.86,271.4877,553.0763,271.8718,552.8722,272.616,553.5376,273.0573,553.4716,273.7289,553.9617,274.2265,554.0316,274.0741,553.9684,274.4397,554.5885,274.9235,555.2575,274.9144,555.7224,275.1962,556.3077,275.3981,556.86,275.7367,556.86,275.8143,566.8131,275.3942,576.7663,275.6853,586.7194,274.8257,596.6725,275.6825,606.6256,275.9463,616.5788,275.8426,626.5319,276.0111,636.485,274.915,646.4381,274.7459,656.3913,275.3981,666.3444,275.2067,666.2651,275.1456,666.9025,274.8689,667.4507,274.905,668.1284,274.407,668.5848,274.2265,669.1728,274.1828,669.0672,273.6899,669.4774,273.0101,669.4361,272.4632,669.7159,272.0466,670.3099,271.3981,670.3444,271.3981,670.78,261.5319,671.0789,251.6657,670.0226,241.7996,670.6636,231.9334,670.9348,222.0672,669.872,212.2011,670.2485,202.3349,670.4704,192.4687,670.9961,182.6026,670.3402,172.7364,670.8069,162.8702,669.7906,153.004,669.6671,143.1379,670.848,133.2717,669.6274,123.4055,670.8533,113.5394,670.551,103.6732,670.0765,93.807,669.9906,83.9409,670.8031,74.0747,670.045,64.2085,670.9362,54.3423,669.7916,44.4762,670.9618,34.61,670.3444,34.6718,670.4935,34.0756,670.1855,33.4847,669.8903,33.0056,669.8652,32.4255,669.5961,31.7816,669.1728,31.8337,669.1944,31.6298,668.6413,31.2728,668.0248,31.2993,667.5671,30.892,666.9298,30.61,666.3444,30.7826,666.3444,30.0016,656.3913,30.2048,646.4381,31.1407,636.485,31.0398,626.5319,30.5671,616.5788,30.2878,606.6256,30.3911,596.6725,29.9238,586.7194,31.0247,576.7663,31.3496,566.8131,30.61,556.86,30.7721,556.9271,31.0583,556.383,31.0365,555.7112,31.3398,555.1741,31.4279,554.5478,31.7816,554.0316,31.8178,554.119,32.3787,553.8733,32.9834,553.7331,33.4493,553.2579,34.0272,553.0529,34.61,552.86" style="stroke:#0077B6;stroke-width:0.5;"/><path d="M30.61,587.1569 L30.61,587.4371 L40.8095,586.6044 L51.009,587.4146 L61.2085,587.6898 L71.408,586.2057 L81.6075,587.0533 L91.807,586.5882 L102.0065,586.6455 L112.206,587.066 L122.4055,586.235 L132.605,587.8951 L142.8045,586.3165 L153.004,586.8932 L163.2035,587.7328 L173.4031,587.0425 L183.6026,587.2479 L193.8021,587.1143 L204.0016,587.3949 L214.2011,587.4757 L224.4006,587.9378 L234.6001,588.0516 L244.7996,588.0626 L254.9991,587.4964 L265.1986,587.775 L275.3981,587.1569" fill="#ADE8F4" style="stroke:#0077B6;stroke-width:0.5;"/><text fill="#03045E" font-family="'Roboto'" font-size="14" lengthAdjust="spacing" textLength="47.3662" x="129.3209" y="574.8551">Assess</text><text fill="#03045E" font-family="'Roboto'" font-size="14" lengthAdjust="spacing" textLength="100.4746" x="39.61" y="609.152">- current state</text><text fill="#03045E" font-family="'Roboto'" font-size="14" lengthAdjust="spacing" textLength="144.4023" x="39.61" y="625.4489">- required next state</text><text fill="#03045E" font-family="'Roboto'" font-size="14" lengthAdjust="spacing" textLength="216.7881" x="39.61" y="641.7457">- maturity (buss/org/data/tech)</text><text fill="#03045E" font-family="'Roboto'" font-size="14" lengthAdjust="spacing" textLength="167.3027" x="39.61" y="658.0426">- scalability assessment</text></g><g id="Plan.Chart"><polygon fill="#ADE8F4" points="71.16,733.35,71.16,733.5602,81.3537,732.9357,91.5474,733.5433,101.7412,733.7497,111.9349,732.6366,122.1286,733.2723,132.3223,732.9235,142.516,732.9665,152.7098,733.2818,162.9035,732.6586,173.0972,733.9036,183.2909,732.7197,193.4846,733.1522,203.6783,733.7819,213.8721,733.2642,224.0658,733.4182,234.2595,733.3181,244.4532,733.5285,254.6469,733.5891,264.8407,733.35,264.9154,733.5304,265.4919,733.791,266.0587,734.0278,266.5702,734.1314,267.1625,734.43,267.6691,734.5216,267.8854,734.6112,267.6813,734.9953,268.3467,735.7395,268.2807,736.1808,268.7707,736.8524,268.8407,737.35,268.3456,737.35,268.7722,747.3031,269.5823,757.2563,268.7919,767.2094,268.946,777.1625,269.1793,787.1156,269.2569,797.0688,268.8368,807.0219,269.1279,816.975,268.2682,826.9281,269.1251,836.8813,268.8407,846.8344,269.0095,846.9043,268.7432,847.4568,268.5608,848.0439,267.989,848.4698,267.7026,849.0139,267.6691,849.6628,267.5898,849.4714,267.0959,849.879,266.5127,850.0709,266.059,850.5756,265.3841,850.5463,264.8407,850.8344,264.8407,850.4913,254.6469,851.0626,244.4532,850.1675,234.2595,850.3152,224.0658,851.4833,213.8721,851.27,203.6783,851.5689,193.4846,850.5126,183.2909,851.1536,173.0972,851.4248,162.9035,850.362,152.7098,850.7385,142.516,850.9604,132.3223,851.4861,122.1286,850.8302,111.9349,851.2969,101.7412,850.2806,91.5474,850.1571,81.3537,851.338,71.16,850.8344,71.0685,850.6136,70.6592,850.7568,70.055,850.4294,69.4288,850.0489,68.8521,849.7882,68.3316,849.6628,68.4729,849.7213,68.0051,849.0589,68.0452,848.6069,67.4584,847.8952,67.5845,847.4788,67.16,846.8344,67.6443,846.8344,67.405,836.8813,67.2072,826.9281,67.8866,816.975,67.7736,807.0219,67.3293,797.0688,67.4282,787.1156,67.0297,777.1625,67.8765,767.2094,67.3149,757.2563,67.3326,747.3031,67.16,737.35,66.9727,737.2724,67.2695,736.7326,67.7921,736.2863,67.9953,735.7078,68.084,735.0818,68.3316,734.5216,68.2905,734.4224,68.8693,734.2198,69.3754,733.8416,70.0815,733.9464,70.6887,733.8121,71.16,733.35" style="stroke:#0077B6;stroke-width:0.5;"/><path d="M67.16,767.6469 L67.16,767.9271 L77.244,767.0944 L87.3281,767.9046 L97.4121,768.1798 L107.4961,766.6957 L117.5802,767.5433 L127.6642,767.0782 L137.7482,767.1355 L147.8323,767.556 L157.9163,766.725 L168.0003,768.3851 L178.0844,766.8065 L188.1684,767.3832 L198.2524,768.2228 L208.3365,767.5325 L218.4205,767.7379 L228.5045,767.6043 L238.5886,767.8849 L248.6726,767.9657 L258.7566,768.4278 L268.8407,767.6469" fill="#ADE8F4" style="stroke:#0077B6;stroke-width:0.5;"/><text fill="#03045E" font-family="'Roboto'" font-size="14" lengthAdjust="spacing" textLength="38.4727" x="148.764" y="755.3451">Chart</text><text fill="#03045E" font-family="'Roboto'" font-size="14" lengthAdjust="spacing" textLength="118.9863" x="76.16" y="789.642">- viable roadmap</text><text fill="#03045E" font-family="'Roboto'" font-size="14" lengthAdjust="spacing" textLength="107.1533" x="76.16" y="805.9389">- business case</text><text fill="#03045E" font-family="'Roboto'" font-size="14" lengthAdjust="spacing" textLength="173.6807" x="76.16" y="822.2357">- stakeholder agreement</text><text fill="#03045E" font-family="'Roboto'" font-size="14" lengthAdjust="spacing" textLength="72.1602" x="76.16" y="838.5326">- mandate</text></g><polygon fill="#222222" points="163.0552,103.0324,161.5894,105.0353,159.8556,107.9688,157.376,109.9458,154.7703,111.0269,152.6927,111.1207,150.0224,109.7687,147.5029,108.8854,145.5905,107.092,144.5873,105.0389,143.9924,103.4041,143.4096,101.2688,142.4636,99.4313,143.1906,97.6373,143.8275,95.672,146.2175,94.1177,147.8991,92.101,149.9804,91.4313,152.4547,90.8546,155.6276,91.1972,157.3655,92.0168,159.3861,92.3884,161.8429,94.9054,162.6993,97.5627,163.0714,99.3758,162.65,102.3635" style="stroke:#222222;stroke-width:1;"/><g id="Build.Allocate"><polygon fill="#ADE8F4" points="651.36,757.79,651.36,758.0002,661.0225,757.3757,670.6849,757.9833,680.3474,758.1897,690.0098,757.0766,699.6723,757.7123,709.3347,757.3635,718.9972,757.4065,728.6597,757.7218,738.3221,757.0986,747.9846,758.3436,757.647,757.1597,767.3095,757.5922,776.972,758.2219,786.6344,757.79,786.6235,757.7636,787.2088,758.0453,787.7617,758.2488,788.3542,758.5479,788.9277,758.8009,789.4628,758.9616,789.6432,759.0363,789.9038,759.6129,790.1407,760.1796,790.2442,760.6911,790.5429,761.2835,790.6344,761.79,791.3366,761.79,789.9132,771.889,791.3129,781.9879,790.3379,792.0869,791.1682,802.1858,790.1394,812.2848,790.6344,822.3838,790.6133,822.375,790.6285,823.044,790.1508,823.5089,789.9639,824.0942,789.8014,824.6897,789.4628,825.2122,789.5159,825.3404,788.8967,825.4453,788.3681,825.7693,787.6928,825.7388,787.2364,826.237,786.6344,826.3838,786.6344,826.9319,776.972,826.8283,767.3095,826.9968,757.647,825.9007,747.9846,825.7316,738.3221,825.7623,728.6597,826.3249,718.9972,826.1872,709.3347,827.0652,699.6723,826.2091,690.0098,826.0407,680.3474,826.612,670.6849,825.7169,661.0225,825.8646,651.36,826.3838,651.4428,826.5836,650.8499,826.2836,650.3223,826.1413,649.6219,825.5817,649.138,825.5448,648.5316,825.2122,648.7134,825.2875,648.1518,824.5862,648.0334,824.0686,647.8674,823.5312,647.795,823.0326,647.36,822.3838,647.3558,822.3838,647.8226,812.2848,646.8062,802.1858,646.6827,792.0869,647.8636,781.9879,646.6431,771.889,647.36,761.79,647.5167,761.8549,647.6579,761.2507,647.7461,760.6245,647.954,760.0478,648.4385,759.5858,648.5316,758.9616,648.4934,758.8694,649.1728,758.9095,649.5924,758.3227,650.3074,758.4488,650.8561,758.1735,651.36,757.79" style="stroke:#0077B6;stroke-width:0.5;"/><path d="M647.36,792.0869 L647.36,792.3671 L657.5939,791.5344 L667.8278,792.3446 L678.0617,792.6198 L688.2955,791.1357 L698.5294,791.9833 L708.7633,791.5182 L718.9972,791.5755 L729.2311,791.996 L739.465,791.165 L749.6989,792.8251 L759.9328,791.2465 L770.1666,791.8232 L780.4005,792.6628 L790.6344,792.0869" fill="#ADE8F4" style="stroke:#0077B6;stroke-width:0.5;"/><text fill="#03045E" font-family="'Roboto'" font-size="14" lengthAdjust="spacing" textLength="56.3008" x="690.8468" y="779.7851">Allocate</text><text fill="#03045E" font-family="'Roboto'" font-size="14" lengthAdjust="spacing" textLength="115.2744" x="656.36" y="814.082">- budget &amp; team</text></g><g id="Build.Implement"><polygon fill="#ADE8F4" points="645.93,577.31,645.93,577.5202,656.0637,576.8957,666.1975,577.5033,676.3312,577.7097,686.4649,576.5966,696.5986,577.2323,706.7324,576.8835,716.8661,576.9265,726.9998,577.2418,737.1336,576.6186,747.2673,577.8636,757.401,576.6797,767.5347,577.1122,777.6685,577.7419,787.8022,577.2242,797.9359,577.3782,808.0696,577.31,808.0656,577.3002,808.6581,577.5993,809.2315,577.8523,809.8414,578.1933,810.418,578.4539,810.8981,578.4816,811.1073,578.5682,811.2108,579.0797,811.5095,579.6721,811.8173,580.2682,811.6132,580.6523,812.0696,581.31,812.7482,581.31,811.7731,591.409,812.6035,601.5079,811.5746,611.6069,812.0011,621.7058,812.8113,631.8048,812.0696,641.9038,812.0546,641.8975,811.8678,642.4829,811.7053,643.0783,811.4949,643.6539,811.1312,644.166,810.8981,644.7322,810.9347,644.8206,810.2594,644.7902,809.803,645.2884,809.2709,645.6039,808.692,645.8063,808.0696,645.9038,808.0696,646.5168,797.9359,645.4207,787.8022,645.2516,777.6685,645.2823,767.5347,645.8449,757.401,645.7072,747.2673,646.5852,737.1336,645.7291,726.9998,645.5607,716.8661,646.132,706.7324,645.2369,696.5986,645.3846,686.4649,646.5527,676.3312,646.3394,666.1975,646.6382,656.0637,645.582,645.93,645.9038,645.9707,646.002,645.4396,645.8513,644.7384,645.2896,644.2207,645.1713,643.6833,645.0053,643.1016,644.7322,643.3023,644.8153,642.866,644.166,642.7754,643.6598,642.2281,642.9645,641.9557,642.383,641.93,641.9038,642.4336,641.9038,641.2131,631.8048,642.439,621.7058,642.1366,611.6069,641.6621,601.5079,641.5762,591.409,641.93,581.31,642.0713,581.3685,642.0721,580.7061,642.5809,580.2541,642.4627,579.5424,643.0574,579.126,643.1016,578.4816,643.1634,578.6307,643.6985,578.3227,644.239,578.0275,644.8913,578.0024,645.4426,577.7333,645.93,577.31" style="stroke:#0077B6;stroke-width:0.5;"/><path d="M641.93,611.6069 L641.93,611.8871 L651.9382,611.0544 L661.9464,611.8646 L671.9546,612.1398 L681.9629,610.6557 L691.9711,611.5033 L701.9793,611.0382 L711.9875,611.0955 L721.9957,611.516 L732.0039,610.685 L742.0121,612.3451 L752.0204,610.7665 L762.0286,611.3432 L772.0368,612.1828 L782.045,611.4925 L792.0532,611.6979 L802.0614,611.5643 L812.0696,611.6069" fill="#ADE8F4" style="stroke:#0077B6;stroke-width:0.5;"/><text fill="#03045E" font-family="'Roboto'" font-size="14" lengthAdjust="spacing" textLength="75.7695" x="689.1151" y="599.3051">Implement</text><text fill="#03045E" font-family="'Roboto'" font-size="14" lengthAdjust="spacing" textLength="142.1396" x="650.93" y="633.602">- detail the use case</text></g><g id="Build.Test"><polygon fill="#ADE8F4" points="653.9,390.67,653.9,390.8802,663.7876,390.2557,673.6753,390.8633,683.5629,391.0697,693.4505,389.9566,703.3382,390.5923,713.2258,390.2435,723.1134,390.2865,733.0011,390.6018,742.8887,389.9786,752.7763,391.2236,762.664,390.0397,772.5516,390.4722,782.4392,391.1019,792.3269,390.5842,802.2145,390.7382,812.1021,390.67,812.0981,390.6602,812.6906,390.9593,813.264,391.2123,813.8739,391.5533,814.4505,391.8139,814.9306,391.8416,815.1398,391.9282,815.2433,392.4397,815.542,393.0321,815.8498,393.6282,815.6457,394.0123,816.1021,394.67,816.7807,394.67,815.8056,404.2813,816.636,413.8927,815.6071,423.504,816.0336,433.1153,816.8438,442.7266,816.0534,452.338,816.2075,461.9493,816.1021,471.5606,816.2064,471.6038,815.996,472.1794,815.6323,472.6915,815.4877,473.2943,814.9886,473.7503,814.9306,474.3891,814.9669,474.4766,814.4348,474.7922,813.8559,474.9946,813.3117,475.2808,812.6062,475.1775,812.1021,475.5606,812.1021,474.9084,802.2145,474.9392,792.3269,475.5017,782.4392,475.3641,772.5516,476.242,762.664,475.3859,752.7763,475.2176,742.8887,475.7889,733.0011,474.8938,723.1134,475.0415,713.2258,476.2096,703.3382,475.9963,693.4505,476.2951,683.5629,475.2388,673.6753,475.8798,663.7876,476.151,653.9,475.5606,653.8397,475.4151,653.3221,475.2968,652.7847,475.1308,652.2861,475.0584,651.6367,474.6221,651.0716,474.3891,651.214,474.4481,650.6667,473.7527,650.3944,473.1713,650.5237,472.7562,649.9135,472.0349,649.9,471.5606,650.409,471.5606,650.1066,461.9493,649.6321,452.338,649.5462,442.7266,650.3588,433.1153,649.6007,423.504,650.4919,413.8927,649.3473,404.2813,649.9,394.67,650.0901,394.7488,650.2835,394.1661,650.4441,393.5699,650.6175,392.979,651.061,392.4999,651.0716,391.8416,651.1498,392.0305,651.6588,391.6594,652.2372,391.4555,652.752,391.0985,653.4257,391.125,653.9,390.67" style="stroke:#0077B6;stroke-width:0.5;"/><path d="M649.9,424.9669 L649.9,425.2471 L659.6766,424.4144 L669.4532,425.2246 L679.2298,425.4998 L689.0064,424.0157 L698.783,424.8633 L708.5596,424.3982 L718.3362,424.4555 L728.1128,424.876 L737.8894,424.045 L747.666,425.7051 L757.4426,424.1265 L767.2192,424.7032 L776.9958,425.5428 L786.7724,424.8525 L796.549,425.0579 L806.3256,424.9243 L816.1021,424.9669" fill="#ADE8F4" style="stroke:#0077B6;stroke-width:0.5;"/><text fill="#03045E" font-family="'Roboto'" font-size="14" lengthAdjust="spacing" textLength="29.9482" x="718.027" y="412.6651">Test</text><text fill="#03045E" font-family="'Roboto'" font-size="14" lengthAdjust="spacing" textLength="138.2021" x="658.9" y="446.962">- add test scenarios</text><text fill="#03045E" font-family="'Roboto'" font-size="14" lengthAdjust="spacing" textLength="100.5293" x="658.9" y="463.2589">- full coverage</text></g><g id="Build.Verify"><polygon fill="#ADE8F4" points="650.56,228.49,650.56,228.7002,660.4941,228.0757,670.4282,228.6833,680.3623,228.8897,690.2964,227.7766,700.2306,228.4123,710.1647,228.0635,720.0988,228.1065,730.0329,228.4218,739.967,227.7986,749.9011,229.0436,759.8352,227.8597,769.7693,228.2922,779.7034,228.9219,789.6376,228.4042,799.5717,228.5582,809.5058,228.4581,819.4399,228.49,819.4627,228.545,820.0361,228.798,820.646,229.139,821.2225,229.3996,821.7893,229.6364,822.2683,229.6616,822.3467,229.6941,822.6454,230.2864,822.9532,230.8825,822.7492,231.2666,823.4145,232.0109,823.4399,232.49,823.1434,232.49,823.9737,242.589,822.9449,252.6879,823.3714,262.7869,824.1815,272.8858,823.3911,282.9848,823.4399,293.0838,823.4723,293.0972,823.3099,293.6926,823.0994,294.2682,822.7357,294.7803,822.5911,295.3831,822.2683,295.9122,822.1953,295.7359,821.7389,296.2341,821.2069,296.5496,820.628,296.752,820.0838,297.0382,819.4399,297.0838,819.4399,296.6007,809.5058,296.4316,799.5717,296.4623,789.6376,297.0249,779.7034,296.8872,769.7693,297.7652,759.8352,296.9091,749.9011,296.7407,739.967,297.312,730.0329,296.4169,720.0988,296.5646,710.1647,297.7327,700.2306,297.5194,690.2964,297.8182,680.3623,296.762,670.4282,297.4029,660.4941,297.6742,650.56,297.0838,650.4997,296.9383,649.9821,296.8199,649.4447,296.6539,648.9461,296.5815,648.2967,296.1452,647.7316,295.9122,647.874,295.9712,647.3267,295.2759,647.0544,294.6944,647.1837,294.2794,646.5735,293.558,646.56,293.0838,647.069,293.0838,646.7666,282.9848,646.2921,272.8858,646.2062,262.7869,647.0188,252.6879,646.2607,242.589,646.56,232.49,646.7423,232.5655,646.6241,231.8538,647.2188,231.4374,647.4121,230.8547,647.5727,230.2585,647.7316,229.6616,647.7376,229.6761,648.3899,229.651,648.9412,229.3819,649.4502,229.0108,650.0285,228.8069,650.56,228.49" style="stroke:#0077B6;stroke-width:0.5;"/><path d="M646.56,262.7869 L646.56,263.0671 L656.3867,262.2344 L666.2133,263.0446 L676.04,263.3198 L685.8666,261.8357 L695.6933,262.6833 L705.52,262.2182 L715.3466,262.2755 L725.1733,262.696 L734.9999,261.865 L744.8266,263.5251 L754.6533,261.9465 L764.4799,262.5232 L774.3066,263.3628 L784.1332,262.6725 L793.9599,262.8779 L803.7866,262.7443 L813.6132,263.0249 L823.4399,262.7869" fill="#ADE8F4" style="stroke:#0077B6;stroke-width:0.5;"/><text fill="#03045E" font-family="'Roboto'" font-size="14" lengthAdjust="spacing" textLength="41.0498" x="714.475" y="250.4851">Verify</text><text fill="#03045E" font-family="'Roboto'" font-size="14" lengthAdjust="spacing" textLength="148.8799" x="655.56" y="284.782">- verify with business</text></g><g id="Build.Deliver"><polygon fill="#ADE8F4" points="642.82,50,642.82,50.2102,652.9381,49.5857,663.0562,50.1933,673.1743,50.3997,683.2925,49.2866,693.4106,49.9223,703.5287,49.5735,713.6468,49.6165,723.7649,49.9318,733.883,49.3086,744.0012,50.5536,754.1193,49.3697,764.2374,49.8022,774.3555,50.4319,784.4736,49.9142,794.5917,50.0682,804.7098,49.9681,814.828,50.1785,824.9461,50.2391,835.0642,50.5857,845.1823,50,845.2679,50.2067,845.8346,50.4435,846.3462,50.547,846.9385,50.8457,847.5346,51.1535,848.0107,51.1716,847.7886,51.0796,848.454,51.8238,848.388,52.2651,848.8781,52.9367,848.7955,53.3712,849.1823,54,849.1138,54,849.9239,64.3542,849.1336,74.7083,849.2876,85.0625,849.5209,95.4167,849.5985,105.7708,849.1784,116.125,849.4695,126.4792,848.6099,136.8333,849.1823,147.1875,849.2699,147.2238,849.1168,147.8231,848.8506,148.3756,848.6681,148.9628,848.0963,149.3886,848.0107,150.0159,847.9275,149.8151,847.3658,150.0589,846.8719,150.4664,846.2886,150.6583,845.8349,151.163,845.1823,151.1875,845.1823,151.0128,835.0642,150.8444,824.9461,151.4158,814.828,150.5207,804.7098,150.6684,794.5917,151.8365,784.4736,151.6232,774.3555,151.922,764.2374,150.8657,754.1193,151.5067,744.0012,151.7779,733.883,150.7151,723.7649,151.0916,713.6468,151.3135,703.5287,151.8393,693.4106,151.1833,683.2925,151.6501,673.1743,150.6337,663.0562,150.5102,652.9381,151.6911,642.82,151.1875,642.7285,150.9667,642.3192,151.1099,641.715,150.7825,641.0888,150.402,640.5121,150.1413,639.9916,150.0159,640.1329,150.0744,639.6651,149.4121,639.7052,148.9601,639.1184,148.2484,639.2445,147.8319,638.82,147.1875,639.3043,147.1875,639.065,136.8333,638.8672,126.4792,639.5466,116.125,639.4336,105.7708,638.9893,95.4167,639.0882,85.0625,638.6897,74.7083,639.5365,64.3542,638.82,54,638.8677,54.0198,639.1075,53.4563,639.1013,52.791,639.3982,52.2513,639.9207,51.805,639.9916,51.1716,640.0464,51.3039,640.5518,50.924,641.0818,50.6037,641.6607,50.4012,642.1668,50.023,642.82,50" style="stroke:#0077B6;stroke-width:0.5;"/><path d="M638.82,84.2969 L638.82,84.5771 L648.8373,83.7444 L658.8545,84.5546 L668.8718,84.8298 L678.889,83.3457 L688.9063,84.1933 L698.9235,83.7282 L708.9408,83.7855 L718.958,84.206 L728.9753,83.375 L738.9925,85.0351 L749.0098,83.4565 L759.027,84.0332 L769.0443,84.8728 L779.0615,84.1825 L789.0788,84.3879 L799.096,84.2543 L809.1133,84.5349 L819.1305,84.6157 L829.1478,85.0778 L839.1651,85.1916 L849.1823,84.2969" fill="#ADE8F4" style="stroke:#0077B6;stroke-width:0.5;"/><text fill="#03045E" font-family="'Roboto'" font-size="14" lengthAdjust="spacing" textLength="49.8271" x="719.0876" y="71.9951">Deliver</text><text fill="#03045E" font-family="'Roboto'" font-size="14" lengthAdjust="spacing" textLength="160.7539" x="647.82" y="106.292">- continuously improve</text><text fill="#03045E" font-family="'Roboto'" font-size="14" lengthAdjust="spacing" textLength="182.3623" x="647.82" y="122.5889">- deliver small increments</text><text fill="#03045E" font-family="'Roboto'" font-size="14" lengthAdjust="spacing" textLength="81.71" x="647.82" y="138.8857">- frequently</text></g><g id="Run.Deploy"><polygon fill="#ADE8F4" points="359.29,50,359.29,50.2102,369.2639,49.5857,379.2377,50.1933,389.2116,50.3997,399.1854,49.2866,409.1593,49.9223,419.1331,49.5735,429.107,49.6165,439.0808,49.9318,449.0547,49.3086,459.0285,50.5536,469.0024,49.3697,478.9763,49.8022,488.9501,50.4319,498.924,49.9142,508.8978,50.0682,518.8717,49.9681,528.8455,50.1785,538.8194,50.2391,548.7932,50.5857,558.7671,50.6711,568.7409,50.6793,578.7148,50,578.7473,50.0784,579.3396,50.3771,579.9358,50.6849,580.3199,50.4808,581.0641,51.1462,581.5432,51.1716,581.4519,51.1338,581.9419,51.8054,581.8594,52.2398,582.2251,52.8599,582.7089,53.5289,582.7148,54,582.6661,54,582.8201,64.3542,583.0534,74.7083,583.131,85.0625,582.7109,95.4167,583.002,105.7708,582.1424,116.125,582.9992,126.4792,583.263,136.8333,582.7148,147.1875,582.8517,147.2442,582.6693,147.8314,582.0974,148.2572,581.811,148.8014,581.5862,149.371,581.5432,150.0159,581.5357,149.9978,580.9525,150.1897,580.4988,150.6944,579.8239,150.6651,579.2367,150.8475,578.7148,151.1875,578.7148,151.4158,568.7409,150.5207,558.7671,150.6684,548.7932,151.8365,538.8194,151.6232,528.8455,151.922,518.8717,150.8657,508.8978,151.5067,498.924,151.7779,488.9501,150.7151,478.9763,151.0916,469.0024,151.3135,459.0285,151.8393,449.0547,151.1833,439.0808,151.6501,429.107,150.6337,419.1331,150.5102,409.1593,151.6911,399.1854,150.4706,389.2116,151.6965,379.2377,151.3941,369.2639,150.9196,359.29,151.1875,359.2449,151.0786,358.7828,151.0945,358.1204,150.6267,357.6684,150.6668,356.9567,150.08,356.4616,150.0159,356.6517,150.0947,356.3764,149.512,356.0684,148.9158,355.7732,148.3249,355.7481,147.8459,355.29,147.1875,355.9036,147.1875,355.4593,136.8333,355.5582,126.4792,355.1597,116.125,356.0065,105.7708,355.4449,95.4167,355.4626,85.0625,354.6816,74.7083,354.8848,64.3542,355.29,54,355.4534,54.0677,355.6567,53.4891,355.7454,52.8632,355.8937,52.2618,356.1598,51.7093,356.4616,51.1716,356.374,50.9603,357.0802,51.065,357.6873,50.9307,358.2258,50.6307,358.813,50.4483,359.29,50" style="stroke:#0077B6;stroke-width:0.5;"/><path d="M355.29,84.2969 L355.29,84.5771 L365.178,83.7444 L375.0661,84.5546 L384.9541,84.8298 L394.8421,83.3457 L404.7302,84.1933 L414.6182,83.7282 L424.5062,83.7855 L434.3943,84.206 L444.2823,83.375 L454.1703,85.0351 L464.0584,83.4565 L473.9464,84.0332 L483.8345,84.8728 L493.7225,84.1825 L503.6105,84.3879 L513.4986,84.2543 L523.3866,84.5349 L533.2746,84.6157 L543.1627,85.0778 L553.0507,85.1916 L562.9387,85.2026 L572.8268,84.6364 L582.7148,84.2969" fill="#ADE8F4" style="stroke:#0077B6;stroke-width:0.5;"/><text fill="#03045E" font-family="'Roboto'" font-size="14" lengthAdjust="spacing" textLength="49.0205" x="444.4921" y="71.9951">Deploy</text><text fill="#03045E" font-family="'Roboto'" font-size="14" lengthAdjust="spacing" textLength="199.4248" x="364.29" y="106.292">- as "Infrastructure as Code"</text><text fill="#03045E" font-family="'Roboto'" font-size="14" lengthAdjust="spacing" textLength="187.5645" x="364.29" y="122.5889">- "continuous deployment"</text><text fill="#03045E" font-family="'Roboto'" font-size="14" lengthAdjust="spacing" textLength="120.5313" x="364.29" y="138.8857">- fully automated</text></g><g id="Run.Measure"><polygon fill="#ADE8F4" points="379.69,374.38,379.69,374.5902,389.9623,373.9657,400.2346,374.5733,410.5069,374.7797,420.7792,373.6666,431.0514,374.3023,441.3237,373.9535,451.596,373.9965,461.8683,374.3118,472.1406,373.6886,482.4129,374.9336,492.6852,373.7497,502.9575,374.1822,513.2298,374.8119,523.502,374.2942,533.7743,374.4482,544.0466,374.3481,554.3189,374.38,554.3417,374.435,554.9151,374.688,555.525,375.029,556.1016,375.2896,556.6683,375.5264,557.1473,375.5516,557.2257,375.5841,557.5244,376.1764,557.8322,376.7725,557.6282,377.1566,558.2935,377.9009,558.3189,378.38,558.0224,378.38,558.8527,388.3331,557.8239,398.2863,558.2504,408.2394,559.0605,418.1925,558.2702,428.1456,558.4242,438.0988,558.6575,448.0519,558.7351,458.005,558.315,467.9581,558.6061,477.9113,558.3189,487.8644,558.1426,487.7914,558.1722,488.4663,558.0191,489.0657,557.7529,489.6181,557.5704,490.2053,557.1473,490.6928,557.0857,490.544,556.4985,490.7263,555.9367,490.9701,555.4428,491.3776,554.8595,491.5695,554.3189,491.8644,554.3189,492.5458,544.0466,491.6897,533.7743,491.5213,523.502,492.0926,513.2298,491.1975,502.9575,491.3452,492.6852,492.5133,482.4129,492.3,472.1406,492.5989,461.8683,491.5426,451.596,492.1836,441.3237,492.4548,431.0514,491.392,420.7792,491.7685,410.5069,491.9904,400.2346,492.5161,389.9623,491.8602,379.69,491.8644,379.749,492.0068,379.0537,491.4595,378.4722,491.1872,378.0572,491.3165,377.3358,490.7063,376.8616,490.6928,377.0183,490.7577,376.6909,490.1535,376.3104,489.5273,376.0497,488.9506,376.0656,488.4886,375.69,487.8644,375.3907,487.8644,376.2819,477.9113,375.1373,467.9581,376.3074,458.005,376.1743,448.0519,375.935,438.0988,375.7372,428.1456,376.4166,418.1925,376.3036,408.2394,375.8593,398.2863,375.9582,388.3331,375.69,378.38,375.6499,378.3634,376.145,377.9057,376.2063,377.2684,376.4461,376.705,376.4399,376.0397,376.8616,375.5516,376.8099,375.4268,377.495,375.4807,378.0478,375.2153,378.5532,374.8354,379.0832,374.5151,379.69,374.38" style="stroke:#0077B6;stroke-width:0.5;"/><path d="M375.69,408.6769 L375.69,408.9571 L385.8361,408.1244 L395.9821,408.9346 L406.1282,409.2098 L416.2742,407.7257 L426.4203,408.5733 L436.5663,408.1082 L446.7124,408.1655 L456.8584,408.586 L467.0045,407.755 L477.1505,409.4151 L487.2966,407.8365 L497.4426,408.4132 L507.5887,409.2528 L517.7347,408.5625 L527.8808,408.7679 L538.0268,408.6343 L548.1729,408.9149 L558.3189,408.6769" fill="#ADE8F4" style="stroke:#0077B6;stroke-width:0.5;"/><text fill="#03045E" font-family="'Roboto'" font-size="14" lengthAdjust="spacing" textLength="59.8076" x="437.1006" y="396.3751">Measure</text><text fill="#03045E" font-family="'Roboto'" font-size="14" lengthAdjust="spacing" textLength="99.4082" x="384.69" y="430.672">- performance</text><text fill="#03045E" font-family="'Roboto'" font-size="14" lengthAdjust="spacing" textLength="85.6338" x="384.69" y="446.9689">- availability</text><text fill="#03045E" font-family="'Roboto'" font-size="14" lengthAdjust="spacing" textLength="96.7012" x="384.69" y="463.2657">- vulnerability</text><text fill="#03045E" font-family="'Roboto'" font-size="14" lengthAdjust="spacing" textLength="154.6289" x="384.69" y="479.5626">- business outcome(s)</text></g><g id="Run.Optimize"><polygon fill="#ADE8F4" points="362.84,552.86,362.84,553.0702,372.8559,552.4457,382.8718,553.0533,392.8878,553.2597,402.9037,552.1466,412.9196,552.7823,422.9355,552.4335,432.9514,552.4765,442.9673,552.7918,452.9833,552.1686,462.9992,553.4136,473.0151,552.2297,483.031,552.6622,493.0469,553.2919,503.0629,552.7742,513.0788,552.9282,523.0947,552.8281,533.1106,553.0385,543.1265,553.0991,553.1424,553.4457,563.1584,552.86,563.244,553.0667,563.8107,553.3035,564.3222,553.407,564.9146,553.7057,565.5107,554.0135,565.9868,554.0316,565.7647,553.9396,566.4301,554.6838,566.3641,555.1251,566.8541,555.7967,566.7716,556.2312,567.1584,556.86,567.0899,556.86,567.9,566.8131,567.1096,576.7663,567.2637,586.7194,567.497,596.6725,567.5746,606.6256,567.1545,616.5788,567.4456,626.5319,566.5859,636.485,567.4427,646.4381,567.7066,656.3913,567.1584,666.3444,567.2953,666.4011,567.1128,666.9883,566.541,667.4141,566.2546,667.9582,566.0297,668.5279,565.9868,669.1728,565.9793,669.1547,565.396,669.3466,564.9423,669.8513,564.2674,669.822,563.6803,670.0044,563.1584,670.3444,563.1584,670.5726,553.1424,669.6775,543.1265,669.8252,533.1106,670.9933,523.0947,670.78,513.0788,671.0789,503.0629,670.0226,493.0469,670.6636,483.031,670.9348,473.0151,669.872,462.9992,670.2485,452.9833,670.4704,442.9673,670.9961,432.9514,670.3402,422.9355,670.8069,412.9196,669.7906,402.9037,669.6671,392.8878,670.848,382.8718,669.6274,372.8559,670.8533,362.84,670.3444,362.8664,670.408,362.2401,670.0276,361.6635,669.7668,361.2015,669.7827,360.5391,669.3149,360.0116,669.1728,360.1938,669.2483,359.607,668.5366,359.7331,668.1202,359.4578,667.5375,359.1498,666.9413,358.84,666.3444,358.8872,666.3444,359.5666,656.3913,359.4536,646.4381,359.0093,636.485,359.1082,626.5319,358.7097,616.5788,359.5565,606.6256,358.9949,596.6725,359.0126,586.7194,358.2316,576.7663,358.4348,566.8131,358.84,556.86,359.0034,556.9277,359.2067,556.3491,359.2954,555.7232,359.4437,555.1218,359.7098,554.5693,360.0116,554.0316,359.924,553.8203,360.6302,553.925,361.2373,553.7907,361.7758,553.4907,362.363,553.3083,362.84,552.86" style="stroke:#0077B6;stroke-width:0.5;"/><path d="M358.84,587.1569 L358.84,587.4371 L368.7599,586.6044 L378.6798,587.4146 L388.5998,587.6898 L398.5197,586.2057 L408.4396,587.0533 L418.3595,586.5882 L428.2795,586.6455 L438.1994,587.066 L448.1193,586.235 L458.0392,587.8951 L467.9591,586.3165 L477.8791,586.8932 L487.799,587.7328 L497.7189,587.0425 L507.6388,587.2479 L517.5587,587.1143 L527.4787,587.3949 L537.3986,587.4757 L547.3185,587.9378 L557.2384,588.0516 L567.1584,587.1569" fill="#ADE8F4" style="stroke:#0077B6;stroke-width:0.5;"/><text fill="#03045E" font-family="'Roboto'" font-size="14" lengthAdjust="spacing" textLength="62.7744" x="431.612" y="574.8551">Optimize</text><text fill="#03045E" font-family="'Roboto'" font-size="14" lengthAdjust="spacing" textLength="180.3184" x="367.84" y="609.152">- structural feedback loop</text><text fill="#03045E" font-family="'Roboto'" font-size="14" lengthAdjust="spacing" textLength="160.7539" x="367.84" y="625.4489">- continuously improve</text><text fill="#03045E" font-family="'Roboto'" font-size="14" lengthAdjust="spacing" textLength="152.4482" x="367.84" y="641.7457">- continuously update</text><text fill="#03045E" font-family="'Roboto'" font-size="14" lengthAdjust="spacing" textLength="94.3359" x="381.1906" y="658.0426">use case tree</text></g><g id="Run.Operate"><polygon fill="#ADE8F4" points="429.52,236.63,429.52,236.8402,439.1396,236.2157,448.7593,236.8233,458.3789,237.0297,467.9985,235.9166,477.6181,236.5523,487.2378,236.2035,496.8574,236.2465,506.477,236.63,506.4683,236.609,506.9545,236.6514,507.679,237.2691,508.0937,237.1388,508.7145,237.5064,509.3055,237.8016,509.4385,237.8567,509.5134,238.3563,509.7951,238.9416,509.9986,239.4946,510.2977,240.0871,510.477,240.63,510.5567,240.63,510.6723,249.4894,510.7007,258.3488,510.7035,267.2081,510.5619,276.0675,510.477,284.9269,510.6198,284.986,510.459,285.5821,509.7863,285.9663,509.983,286.7105,509.4485,287.1518,509.3055,287.7553,509.3736,287.9197,508.6766,287.8372,508.1653,288.2028,507.703,288.6866,507.0365,288.6776,506.477,288.9269,506.477,289.0322,496.8574,289.2655,487.2378,289.3431,477.6181,288.923,467.9985,289.2141,458.3789,288.3545,448.7593,289.2113,439.1396,289.4751,429.52,288.9269,429.5767,289.0638,429.0325,288.8813,428.327,288.3095,427.7398,288.0231,427.178,287.7983,426.6916,287.7553,426.6734,287.7478,426.3967,287.1645,426.4328,286.7109,425.9348,286.036,425.6487,285.4488,425.52,284.9269,425.5961,284.9269,425.2977,276.0675,425.347,267.2081,425.7363,258.3488,425.6652,249.4894,425.52,240.63,425.7462,240.7237,425.6552,240.0233,426.0869,239.5393,426.4048,239.0083,426.3118,238.307,426.6916,237.8016,426.6793,237.7721,427.2733,237.6061,427.9061,237.5337,428.3881,237.0973,429.0133,237.0068,429.52,236.63" style="stroke:#0077B6;stroke-width:0.5;"/><path d="M425.52,270.9269 L425.52,271.2071 L436.1396,270.3744 L446.7593,271.1846 L457.3789,271.4598 L467.9985,269.9757 L478.6181,270.8233 L489.2378,270.3582 L499.8574,270.4155 L510.477,270.9269" fill="#ADE8F4" style="stroke:#0077B6;stroke-width:0.5;"/><text fill="#03045E" font-family="'Roboto'" font-size="14" lengthAdjust="spacing" textLength="56.957" x="439.52" y="258.6251">Operate</text></g><!--link *start*Plan to Envision--><g class="link" data-entity-1=".start.Plan" data-entity-2="Envision" data-source-line="195" data-uid="lnk3" id="link_.start.Plan_Envision"><path d="M153,110.67 L153.2802,110.67 L152.4476,120.204 L153.2577,129.738 L153.5329,139.272 L152.0488,148.806 L152.8964,158.34 L152.4313,167.874 L152.4887,177.408 L152.9091,186.942 L152.0782,196.476 L153,206.01" fill="none" style="stroke:#023E8A;stroke-width:1;"/><polygon fill="#023E8A" points="153,212.01,153.064,212.0385,153.6738,210.1539,154.6589,208.4362,155.5217,206.6641,155.9827,204.7134,157,203.01,156.9817,202.9917,156.0995,203.7095,155.3096,204.5196,154.5839,205.3939,153.637,206.047,153,207.01,153.1305,207.1405,152.0514,206.0614,151.3534,205.3634,150.7018,204.7118,149.7798,203.7898,149,203.01,149.0208,203.0192,149.7903,204.8057,150.6544,206.6342,151.4728,208.4424,152.3784,210.2893,153,212.01" style="stroke:#023E8A;stroke-width:1;"/></g><!--link Envision to Discover--><g class="link" data-entity-1="Envision" data-entity-2="Discover" data-source-line="197" data-uid="lnk4" id="link_Envision_Discover"><path d="M153,313.83 L153.2802,313.83 L152.4476,324.658 L153.2577,335.486 L153.5329,346.314 L152.0488,357.142 L153,367.97" fill="none" style="stroke:#023E8A;stroke-width:1;"/><polygon fill="#023E8A" points="153,373.97,153.064,373.9985,153.6738,372.1139,154.6589,370.3962,155.5217,368.6241,155.9827,366.6734,157,364.97,156.9817,364.9517,156.0995,365.6695,155.3096,366.4796,154.5839,367.3539,153.637,368.007,153,368.97,153.1305,369.1005,152.0514,368.0214,151.3534,367.3234,150.7018,366.6718,149.7798,365.7498,149,364.97,149.0208,364.9792,149.7903,366.7657,150.6544,368.5942,151.4728,370.4024,152.3784,372.2493,153,373.97" style="stroke:#023E8A;stroke-width:1;"/></g><!--link Discover to Assess--><g class="link" data-entity-1="Discover" data-entity-2="Assess" data-source-line="198" data-uid="lnk5" id="link_Discover_Assess"><path d="M153,491.91 L153.2802,491.91 L152.4476,502.804 L153.2577,513.698 L153.5329,524.592 L152.0488,535.486 L153,546.38" fill="none" style="stroke:#023E8A;stroke-width:1;"/><polygon fill="#023E8A" points="153,552.38,153.064,552.4085,153.6738,550.5239,154.6589,548.8062,155.5217,547.0341,155.9827,545.0834,157,543.38,156.9817,543.3617,156.0995,544.0795,155.3096,544.8896,154.5839,545.7639,153.637,546.417,153,547.38,153.1305,547.5105,152.0514,546.4314,151.3534,545.7334,150.7018,545.0818,149.7798,544.1598,149,543.38,149.0208,543.3892,149.7903,545.1757,150.6544,547.0042,151.4728,548.8124,152.3784,550.6593,153,552.38" style="stroke:#023E8A;stroke-width:1;"/></g><!--link Assess to Chart--><g class="link" data-entity-1="Assess" data-entity-2="Chart" data-source-line="199" data-uid="lnk6" id="link_Assess_Chart"><path d="M157.87,670.55 L158.1493,670.5735 L158.1122,679.9356 L159.7122,689.4353 L160.7791,698.8902 L160.0928,708.1978 L161.7301,717.7007 L162.6261,727.1412" fill="none" style="stroke:#023E8A;stroke-width:1;"/><polygon fill="#023E8A" points="163.13,733.12,163.1962,733.143,163.6455,731.2139,164.4828,729.4195,165.1938,727.5812,165.4893,725.5987,166.3599,723.8158,166.3402,723.7991,165.5213,724.5885,164.8023,725.4621,164.1526,726.3943,163.264,727.1246,162.71,728.1377,162.8291,728.2787,161.7101,727.2472,160.9388,726.6273,160.2098,726.0577,159.2341,725.1959,158.3882,724.4878,158.4081,724.4987,159.3272,726.2091,160.3371,727.9693,161.3031,729.7055,162.3528,731.4875,163.13,733.12" style="stroke:#023E8A;stroke-width:1;"/></g><!--link Chart to Allocate--><g class="link" data-entity-1="Chart" data-entity-2="Allocate" data-source-line="222" data-uid="lnk7" id="link_Chart_Allocate"><path d="M269.06,792.09 L269.06,792.3702 L279.1149,791.5376 L289.1697,792.3477 L299.2246,792.6229 L309.2795,791.1388 L319.3343,791.9864 L329.3892,791.5213 L339.4441,791.5787 L349.4989,791.9991 L359.5538,791.1682 L369.6086,792.8282 L379.6635,791.2496 L389.7184,791.8263 L399.7732,792.6659 L409.8281,791.9756 L419.883,792.181 L429.9378,792.0474 L439.9927,792.328 L450.0476,792.4088 L460.1024,792.8709 L470.1573,792.9847 L480.2122,792.9957 L490.267,792.4295 L500.3219,792.7081 L510.3768,793.0263 L520.4316,791.1284 L530.4865,792.9947 L540.5414,791.6947 L550.5962,792.8017 L560.6511,791.43 L570.7059,791.9987 L580.7608,793.0788 L590.8157,792.025 L600.8705,792.2304 L610.9254,792.5415 L620.9803,792.645 L631.0351,792.0848 L641.09,792.09" fill="none" style="stroke:#023E8A;stroke-width:1;"/><polygon fill="#023E8A" points="647.09,792.09,647.1185,792.154,645.2339,791.1638,643.5162,790.5489,641.7441,789.8117,639.7934,788.6727,638.09,788.09,638.0717,788.0717,638.7895,788.7895,639.5996,789.5996,640.4739,790.4739,641.127,791.127,642.09,792.09,642.2205,792.2205,641.1414,792.7414,640.4434,793.6434,639.7918,794.5918,638.8698,795.2698,638.09,796.09,638.0992,796.1108,639.8857,795.2803,641.7142,794.5444,643.5224,793.7628,645.3693,793.0684,647.09,792.09" style="stroke:#023E8A;stroke-width:1;"/><text fill="#444444" font-family="'Roboto'" font-size="14" font-weight="bold" lengthAdjust="spacing" textLength="95.7305" x="410.4896" y="765.0851">handover to</text><text fill="#444444" font-family="'Roboto'" font-size="14" font-weight="bold" lengthAdjust="spacing" textLength="138.5098" x="389.1" y="781.382">delivery manager</text></g><!--reverse link Implement to Allocate--><g class="link" data-entity-1="Implement" data-entity-2="Allocate" data-source-line="224" data-uid="lnk9" id="link_Implement_Allocate"><path d="M725.2305,652.1739 L725.5104,652.1865 L724.2495,661.7115 L724.6297,671.3102 L724.4754,680.8849 L722.5637,690.3808 L722.9813,699.9811 L722.0876,709.5227 L721.7157,719.0876 L721.7066,728.6688 L720.4474,738.1939 L721.6766,747.8307 L720.51,757.36" fill="none" style="stroke:#023E8A;stroke-width:1;"/><polygon fill="#023E8A" points="725.5,646.18,725.5627,646.2113,724.4964,647.8805,723.7975,649.7333,722.979,651.5263,721.767,653.1227,721.0997,654.9912,721.0823,654.9721,721.839,654.123,722.6838,653.3704,723.5898,652.6847,724.2848,651.7681,725.2754,651.175,725.4116,651.2995,725.8836,651.8683,726.7532,652.8007,727.6714,653.7775,728.3073,654.4962,729.0917,655.3506,729.1128,655.3589,728.3634,653.5126,727.7104,651.7041,727.0109,649.8773,726.4001,648.0853,725.5,646.18" style="stroke:#023E8A;stroke-width:1;"/></g><!--reverse link Test to Implement--><g class="link" data-entity-1="Test" data-entity-2="Implement" data-source-line="226" data-uid="lnk11" id="link_Test_Implement"><path d="M731.3762,481.9365 L731.6562,481.9461 L730.5004,491.4291 L730.9865,500.968 L730.9379,510.4887 L729.1311,519.9496 L729.6545,529.4897 L728.8661,538.9853 L728.5998,548.4986 L728.6964,558.0242 L727.5423,567.5073 L728.14,577.05" fill="none" style="stroke:#023E8A;stroke-width:1;"/><polygon fill="#023E8A" points="731.58,475.94,731.643,475.9706,730.5951,477.6514,729.9166,479.5117,729.1178,481.3136,727.9234,482.9232,727.2766,484.7989,727.2589,484.78,728.0062,483.9227,728.8427,483.1608,729.7412,482.4652,730.4261,481.5411,731.4101,480.9371,731.545,481.0631,732.029,481.6204,732.9067,482.5455,733.8324,483.5156,734.4787,484.2245,735.2719,485.0707,735.293,485.0792,734.5237,483.2406,733.8503,481.4407,733.1307,479.6222,732.4994,477.8393,731.58,475.94" style="stroke:#023E8A;stroke-width:1;"/></g><!--reverse link Verify to Test--><g class="link" data-entity-1="Verify" data-entity-2="Test" data-source-line="227" data-uid="lnk13" id="link_Verify_Test"><path d="M734.5283,303.4396 L734.8085,303.4429 L733.8605,313.1019 L734.5553,322.7805 L734.7151,332.4527 L733.1157,342.104 L733.8478,351.783 L733.2675,361.4464 L733.2094,371.116 L733.5145,380.79 L733.49,390.46" fill="none" style="stroke:#023E8A;stroke-width:1;"/><polygon fill="#023E8A" points="734.6,297.44,734.6637,297.4692,733.653,299.1727,733.0156,301.0475,732.2567,302.8665,731.098,304.5021,730.4927,306.3915,730.4746,306.373,731.2029,305.4994,732.0224,304.7193,732.9054,304.0041,733.5697,303.0651,734.5402,302.4396,734.6723,302.5686,735.1803,303.1024,736.0738,304.0126,737.0144,304.9687,737.6813,305.6577,738.4921,306.4872,738.513,306.4962,737.7039,304.6735,736.9899,302.8918,736.2301,301.0904,735.5578,299.3266,734.6,297.44" style="stroke:#023E8A;stroke-width:1;"/></g><!--reverse link Deliver to Verify--><g class="link" data-entity-1="Deliver" data-entity-2="Verify" data-source-line="228" data-uid="lnk15" id="link_Deliver_Verify"><path d="M740.8643,157.3906 L741.1441,157.4063 L739.7449,167.4796 L739.9861,177.6449 L739.6931,187.7802 L737.6436,197.817 L737.922,207.9844 L736.89,218.0782 L736.89,228.23" fill="none" style="stroke:#023E8A;stroke-width:1;"/><polygon fill="#023E8A" points="741.2,151.4,741.2623,151.432,740.1777,153.0893,739.4584,154.9342,738.6201,156.7181,737.3906,158.3011,736.7027,160.1621,736.6854,160.1428,737.4514,159.3021,738.3045,158.5588,739.2181,157.8832,739.9231,156.9743,740.9202,156.3922,741.0578,156.5152,741.5176,157.0957,742.379,158.0353,743.2895,159.0187,743.9148,159.7472,744.6901,160.6097,744.7114,160.6178,743.9821,158.764,743.3497,156.9469,742.6706,155.1121,742.0806,153.3111,741.2,151.4" style="stroke:#023E8A;stroke-width:1;"/></g><!--link Deliver to Deploy--><g class="link" data-entity-1="Deliver" data-entity-2="Deploy" data-source-line="246" data-uid="lnk16" id="link_Deliver_Deploy"><path d="M638.43,100.6 L638.43,100.8802 L628.572,100.0476 L618.714,100.8577 L608.856,101.1329 L598.998,99.6488 L589.14,100.6" fill="none" style="stroke:#023E8A;stroke-width:1;"/><polygon fill="#023E8A" points="583.14,100.6,583.1685,100.664,584.8839,101.2738,586.7662,102.2589,588.5941,103.1217,590.2434,103.5827,592.14,104.6,592.1217,104.5817,591.2395,103.6995,590.4496,102.9096,589.7239,102.1839,588.777,101.237,588.14,100.6,588.2705,100.7305,588.7914,99.6514,589.6934,98.9534,590.6418,98.3018,591.3198,97.3798,592.14,96.6,592.1492,96.6208,590.3357,97.3903,588.5642,98.2544,586.7724,99.0728,585.0193,99.9784,583.14,100.6" style="stroke:#023E8A;stroke-width:1;"/></g><!--link Deploy to Operate--><g class="link" data-entity-1="Deploy" data-entity-2="Operate" data-source-line="247" data-uid="lnk18" id="link_Deploy_Operate"><path d="M468.69,151.4 L468.9702,151.4018 L468.0759,161.2466 L468.8244,171.1016 L469.038,180.9534 L467.4923,190.7941 L468.2782,200.6494 L467.7515,210.4965 L467.7472,220.3469 L468.1969,230.2001" fill="none" style="stroke:#023E8A;stroke-width:1;"/><polygon fill="#023E8A" points="468.16,236.2,468.2238,236.2288,468.8452,234.3481,469.8408,232.6364,470.7146,230.8697,471.1875,228.9219,472.2153,227.2248,472.1971,227.2063,471.3105,227.9187,470.5156,228.724,469.7846,229.5938,468.8337,230.2411,468.1908,231.2001,468.322,231.3298,467.2462,230.2475,466.5537,229.544,465.908,228.8866,464.9902,227.9604,464.2154,227.1756,464.2363,227.1847,464.9946,228.9762,465.8478,230.8092,466.6552,232.6222,467.55,234.4733,468.16,236.2" style="stroke:#023E8A;stroke-width:1;"/></g><!--link Operate to Measure--><g class="link" data-entity-1="Operate" data-entity-2="Measure" data-source-line="248" data-uid="lnk19" id="link_Operate_Measure"><path d="M467.85,289.35 L468.1302,289.3517 L467.2385,299.1992 L467.9896,309.0566 L468.2057,318.9107 L466.6625,328.7544 L467.451,338.612 L466.9269,348.4617 L466.9251,358.3145 L467.3774,368.1701" fill="none" style="stroke:#023E8A;stroke-width:1;"/><polygon fill="#023E8A" points="467.34,374.17,467.4038,374.1989,468.0253,372.3181,469.0211,370.6066,469.895,368.8399,470.3681,366.8921,471.396,365.1951,471.3778,365.1767,470.4911,365.8889,469.6962,366.6941,468.9651,367.5639,468.0142,368.2111,467.3711,369.1701,467.5024,369.2998,466.4267,368.2175,465.7342,367.5138,465.0886,366.8564,464.1708,365.9301,463.3961,365.1453,463.417,365.1544,464.1751,366.9459,465.0282,368.779,465.8355,370.592,466.7301,372.4432,467.34,374.17" style="stroke:#023E8A;stroke-width:1;"/></g><!--link Measure to Optimize--><g class="link" data-entity-1="Measure" data-entity-2="Optimize" data-source-line="249" data-uid="lnk20" id="link_Measure_Optimize"><path d="M465.69,491.91 L465.9702,491.9163 L464.8909,502.7918 L465.454,513.7045 L465.4823,524.605 L463.7517,535.4657 L464.4558,546.3815" fill="none" style="stroke:#023E8A;stroke-width:1;"/><polygon fill="#023E8A" points="464.32,552.38,464.3834,552.4099,465.0356,550.5396,466.0594,548.8446,466.9621,547.0926,467.4671,545.1528,468.5227,543.4729,468.5048,543.4541,467.6066,544.1518,466.7986,544.9438,466.0533,545.8015,465.0919,546.433,464.4332,547.3813,464.5666,547.5088,463.4996,546.4182,462.8222,545.6999,462.1922,545.027,461.2858,544.0899,460.5248,543.2917,460.5458,543.3005,461.274,545.1053,462.0978,546.95,462.8755,548.7754,463.7411,550.6376,464.32,552.38" style="stroke:#023E8A;stroke-width:1;"/></g><!--reverse link Plan to Optimize--><g class="link" data-entity-1="Plan" data-entity-2="Optimize" data-source-line="265" data-uid="lnk22" id="link_Plan_Optimize"><path d="M307.9406,307.9717 L308.0177,308.0244 L307.7931,307.8748 L308.0208,308.0338 L308.1012,308.0923 L307.6973,307.8203 L307.9638,308.0058 L307.9296,308.001 L308.0046,309.5834 L308.252,311.1905 L308.6191,312.8146 L308.5734,314.3799 L309.106,316.0275 L309.3491,316.0654 L309.3331,319.2187 L310.0269,322.4826 L310.8073,325.76 L311.0838,328.9589 L311.6253,332.1991 L311.6552,332.2043 L312.1809,335.4561 L312.8427,338.7316 L313.4389,341.9957 L314.1603,345.2816 L314.4735,348.4962 L314.7662,348.5534 L315.409,351.8278 L315.8629,355.0653 L316.5932,358.3568 L317.3365,361.6508 L317.6694,364.8647 L317.3562,364.7966 L318.6765,368.2058 L318.9655,371.3909 L320.0386,374.7463 L320.3042,377.9263 L321.2316,381.2501 L321.202,381.2429 L322.3415,384.5971 L322.7895,387.7842 L323.6455,391.0699 L324.5358,394.3639 L325.179,397.5981 L325.3577,397.646 L326.0476,400.849 L327.0428,404.1337 L327.544,407.2862 L328.7821,410.6359 L329.5302,413.8545 L329.7638,413.9237 L330.6744,417.1327 L331.701,420.3761 L332.1887,423.4597 L333.0714,426.6605 L334.3041,429.9649 L334.0416,429.8789 L335.3222,433.1387 L336.3071,436.3017 L337.7209,439.6052 L338.4024,442.6687 L339.5192,445.8749 L339.3759,445.823 L340.7496,449.0406 L341.5107,452.0361 L342.7074,455.1896 L344.3305,458.4976 L345.1944,461.5304 L345.3742,461.6024 L346.7282,464.7211 L347.5233,467.6157 L349.0185,470.791 L350.3612,473.9052 L351.3484,476.8768 L351.1566,476.7916 L352.6398,479.8562 L354.0602,482.8928 L355.6041,485.9843 L356.668,488.8626 L358,491.86 L358.1816,491.9564 L359.5058,494.9903 L361.1805,498.2104 L363.3673,501.7022 L364.6113,504.6936 L366.6159,508.0888 L366.8057,508.2119 L368.7263,511.2705 L370.5827,514.2874 L372.584,517.3984 L374.9202,520.7268 L376.7825,523.7475 L376.6763,523.6673 L379.244,526.8885 L381.0896,529.5645 L383.7562,532.8603 L385.9605,535.8072 L388.0403,538.66 L388.1233,538.7305 L390.4342,541.4716 L393.0423,544.4651 L395.3819,547.2306 L397.6094,549.9007 L399.93,552.65" fill="none" style="stroke:#023E8A;stroke-width:1;"/><polygon fill="#023E8A" points="307.1567,302.0232,307.2239,302.043,306.4663,303.8731,306.1025,305.8196,305.6105,307.7282,304.6967,309.5121,304.3668,311.4686,304.3462,311.4528,304.9426,310.4844,305.6426,309.5955,306.4146,308.7618,306.9384,307.7377,307.8099,306.9803,307.9222,307.1267,308.5797,307.5022,309.5651,308.3053,310.5905,309.1604,311.3832,309.7121,312.2982,310.4234,312.3176,310.4353,311.2608,308.7378,310.2924,307.0944,309.2813,305.4249,308.3515,303.8051,307.1567,302.0232" style="stroke:#023E8A;stroke-width:1;"/></g><!--SRC=[rLXjJoCt4FxkNs68rBkhYWYGSlHqGaf2u10SGGcjLFKgvEnE4YjUUsjxawOL_xrZxsPVyWOzaG_aGtPtvjbvjyUpUogsN4awPZASQMujI3famW0XUnjPUo4CkGJQkdhysho-UsntRxizwd-rqzDM-x9UXlGxxUxTHRFtUuQhjHgjTgjJXjmtspVDgqukg0OmEFxbg81qUnUTNbaFhJNyBuTSTkyUAe02Gio4ovXf5j412oOZhH8PjfLGcjPcOsxHrtUKoq0a8L0x1Ze22Pe9chzdw1310sN7Fr71HsDBCIOqP7g2Rrf5rHIq2n7G6RVZL0QVOhmCMClbo2nxyl3bkdrpr-dtwT6sG1U6txCmH46qKQBrKZyq6alFIlJ-c8Lgvj3BKhxCOz22oyclClGti4XsWRc08Kk4fV-IIoNj7Ok0xlSK-gxsFIKDN15kJ-ppVu0UDSXJML9JQpL3EMlVM2_6pWN6I8cmAYd6jB4HP3QjlDfQocgbBabBQNGsuvGA2LKK6gGA_u_uIi6-J4EWebX9a2wotsdmMklIc2MHEAx6B6IM3PY1LrPNqH48bOGxLQ24WC2j3lFgQWejRGHe9NQeeUL4CZtVeOgEjDpkKW6N5lIG1R137NtuAm4Pm3tJbWSyPjAcmXx6F9X8C0Otp09kCZXQL7vZgt4hejVOMS8Ksv9KEc9YcRVYpYqVmYtkh1k5vu2jPlhDSqMufswKxBbhZVAS8eOdf1bOfP-nm4CswdBSJGlu7Mqtg8iQDY5yg3txAwzvZGkUoP60pv-nMnabpyynltqiFb0M6zZ6xl5QVM6vufPxTdMBAfaBVwEHaed7rxTxwH2r0-FDt5Y8tbwiNz_k7SLwqP3VHgWBQzzUf4jbCiWQRshrqi6uweK_mzQVF-rzb-_R7KiRJCZC6CAN-BhMrG0LC-mh-gM-udbzUodjmDFjAIotTilikfD6ZOLmDcoKbDVg9_N6pq2Qrce-I2oiOHNDj5O_Fe4pLh6pLgz__3WuNJxRCcEs6501isf_nQ4EkTw3Uy4aIY5__FWdFS2Co8DpFAfDkS4pBI6BkvnrmKtWfacokCavJMDGD4alERKznkD88USJFQ2C6YH2Y27KQC5eNk5sRguePC-kEo_pc441WyHmxmX8DX1eJMwEWsLoUK0J72y2t2HCXSybjnp7vmMNMWrGGUJo9rBD18IZAZlMNE4SpC7G7wXAB8vEg29ptG62H6itIVaGb-WQpuFSkIvnqrhXHimcsfsHtwD-SwZqwD3jSeSMWl674iu4JB015mxAF3L2POJuM3l0bBkeKArO6B6ueETkEQyBCjenWJ4EjPXDDi9OU74vEyAntndwj2YPLiA5cweyWhhK2w42v7podmXyLLZr3KTumV5-xYJWT8nPMW3fGHBZUzTHB59b9B_DM0zWB75_sVDleFbmJj9BHhj8vUC1Ra4-z-LSw4cTnlHPJ9G55fKKELu8k2C9_praKGp4Q_Lr6eRu3bfW0YmpJBd9MSD42EhB0VqYcLK-ygaX_YlB8jfOdAcXlZ9mxNEPgCI8EULHh558cP_5Z1eyoWltqKTxOqqPCzH-hB1YNkIabxXLd87eWNOVWNo8Og7c9BtaYxABvp-NqUoQqxy2Cua6abrBUCiZt9599iX7nz3zQpdK35TR4bW7Hr9RXR1VGkqN_g9hZkgyAIDSAB6C4wkm_B6xB9JxTORpd1jgS88gazaKavOjW39zcWZtNMoLaTTzjbRVcm-4B9pATWpl0suAGu3GVOMZGgcu0bgRkes097QBvfkaT6cVUIfKqmDNo5dL_WS0]--></g></svg>