<?xml version="1.0" encoding="us-ascii" standalone="no"?><svg xmlns="http://www.w3.org/2000/svg" xmlns:xlink="http://www.w3.org/1999/xlink" contentStyleType="text/css" height="335px" preserveAspectRatio="none" style="width:900px;height:335px;background:#2E303E;" version="1.1" viewBox="0 0 900 335" width="900px" zoomAndPan="magnify"><defs><filter height="300%" id="fqkpbxx6w45na" width="300%" x="-1" y="-1"><feGaussianBlur result="blurOut" stdDeviation="2.0"/><feColorMatrix in="blurOut" result="blurOut2" type="matrix" values="0 0 0 0 0 0 0 0 0 0 0 0 0 0 0 0 0 0 .4 0"/><feOffset dx="4.0" dy="4.0" in="blurOut2" result="blurOut3"/><feBlend in="SourceGraphic" in2="blurOut3" mode="normal"/></filter></defs><g><rect fill="#2E303E" height="335" style="stroke:none;stroke-width:1.0;" width="900" x="0" y="0"/><rect fill="none" filter="url(#fqkpbxx6w45na)" height="316.9063" rx="20" ry="20" style="stroke:#0077B6;stroke-width:0.5;" width="872" x="7" y="7"/><path d="M27,7 L859,7 A20,20 0 0 1 879,27 L879,38.9688 L7,38.9688 L7,27 A20,20 0 0 1 27,7 " fill="#9397B2" style="stroke:#9397B2;stroke-width:1.0;"/><rect fill="none" height="316.9063" rx="20" ry="20" style="stroke:#0077B6;stroke-width:0.5;" width="872" x="7" y="7"/><line style="stroke:#0077B6;stroke-width:0.5;" x1="7" x2="879" y1="38.9688" y2="38.9688"/><text fill="#03045E" font-family="sans-serif" font-size="12" lengthAdjust="spacing" textLength="23" x="431.5" y="27.1387">Plan</text><ellipse cx="28" cy="110.9688" fill="#222222" filter="url(#fqkpbxx6w45na)" rx="10" ry="10" style="stroke:none;stroke-width:1.0;"/><g id="Plan.Envision"><rect fill="#9397B2" filter="url(#fqkpbxx6w45na)" height="77.9063" rx="20" ry="20" style="stroke:#0077B6;stroke-width:0.5;" width="156" x="56" y="71.9688"/><line style="stroke:#0077B6;stroke-width:0.5;" x1="56" x2="212" y1="103.9375" y2="103.9375"/><text fill="#03045E" font-family="sans-serif" font-size="12" lengthAdjust="spacing" textLength="49" x="109.5" y="92.1074">Envision</text><text fill="#03045E" font-family="sans-serif" font-size="12" lengthAdjust="spacing" textLength="116" x="65" y="124.0762">- a shared strategy</text><text fill="#03045E" font-family="sans-serif" font-size="12" lengthAdjust="spacing" textLength="61" x="65" y="138.0449">- see also</text><a href="/process/plan/envision/" target="_top" title="/process/plan/envision/" xlink:actuate="onRequest" xlink:href="/process/plan/envision/" xlink:show="new" xlink:title="/process/plan/envision/" xlink:type="simple"><text fill="#90EE90" font-family="sans-serif" font-size="12" lengthAdjust="spacing" textLength="59" x="130" y="138.0449">"Envision"</text></a></g><g id="Plan.Discover"><rect fill="#9397B2" filter="url(#fqkpbxx6w45na)" height="119.8125" rx="20" ry="20" style="stroke:#0077B6;stroke-width:0.5;" width="168" x="230" y="50.9688"/><line style="stroke:#0077B6;stroke-width:0.5;" x1="230" x2="398" y1="82.9375" y2="82.9375"/><text fill="#03045E" font-family="sans-serif" font-size="12" lengthAdjust="spacing" textLength="54" x="287" y="71.1074">Discover</text><text fill="#03045E" font-family="sans-serif" font-size="12" lengthAdjust="spacing" textLength="128" x="239" y="103.0762">- strategic use cases</text><text fill="#03045E" font-family="sans-serif" font-size="12" lengthAdjust="spacing" textLength="127" x="239" y="117.0449">- initial use case tree</text><text fill="#03045E" font-family="sans-serif" font-size="12" lengthAdjust="spacing" textLength="134" x="239" y="131.0137">- business knowledge</text><text fill="#03045E" font-family="sans-serif" font-size="12" lengthAdjust="spacing" textLength="140" x="239" y="144.9824">- priorities &amp; outcomes</text><text fill="#03045E" font-family="sans-serif" font-size="12" lengthAdjust="spacing" textLength="61" x="239" y="158.9512">- see also</text><a href="/process/plan/discover/" target="_top" title="/process/plan/discover/" xlink:actuate="onRequest" xlink:href="/process/plan/discover/" xlink:show="new" xlink:title="/process/plan/discover/" xlink:type="simple"><text fill="#90EE90" font-family="sans-serif" font-size="12" lengthAdjust="spacing" textLength="64" x="304" y="158.9512">"Discover"</text></a></g><g id="Plan.Assess"><rect fill="#9397B2" filter="url(#fqkpbxx6w45na)" height="105.8438" rx="20" ry="20" style="stroke:#0077B6;stroke-width:0.5;" width="213" x="416.5" y="57.9688"/><line style="stroke:#0077B6;stroke-width:0.5;" x1="416.5" x2="629.5" y1="89.9375" y2="89.9375"/><text fill="#03045E" font-family="sans-serif" font-size="12" lengthAdjust="spacing" textLength="44" x="501" y="78.1074">Assess</text><text fill="#03045E" font-family="sans-serif" font-size="12" lengthAdjust="spacing" textLength="86" x="425.5" y="110.0762">- current state</text><text fill="#03045E" font-family="sans-serif" font-size="12" lengthAdjust="spacing" textLength="125" x="425.5" y="124.0449">- required next state</text><text fill="#03045E" font-family="sans-serif" font-size="12" lengthAdjust="spacing" textLength="185" x="425.5" y="138.0137">- maturity (buss/org/data/tech)</text><text fill="#03045E" font-family="sans-serif" font-size="12" lengthAdjust="spacing" textLength="61" x="425.5" y="151.9824">- see also</text><a href="/process/plan/assess/" target="_top" title="/process/plan/assess/" xlink:actuate="onRequest" xlink:href="/process/plan/assess/" xlink:show="new" xlink:title="/process/plan/assess/" xlink:type="simple"><text fill="#90EE90" font-family="sans-serif" font-size="12" lengthAdjust="spacing" textLength="54" x="490.5" y="151.9824">"Assess"</text></a></g><g id="Plan.Chart"><rect fill="#9397B2" filter="url(#fqkpbxx6w45na)" height="119.8125" rx="20" ry="20" style="stroke:#0077B6;stroke-width:0.5;" width="179" x="647.5" y="50.9688"/><line style="stroke:#0077B6;stroke-width:0.5;" x1="647.5" x2="826.5" y1="82.9375" y2="82.9375"/><text fill="#03045E" font-family="sans-serif" font-size="12" lengthAdjust="spacing" textLength="31" x="721.5" y="71.1074">Chart</text><text fill="#03045E" font-family="sans-serif" font-size="12" lengthAdjust="spacing" textLength="103" x="656.5" y="103.0762">- viable roadmap</text><text fill="#03045E" font-family="sans-serif" font-size="12" lengthAdjust="spacing" textLength="96" x="656.5" y="117.0449">- business case</text><text fill="#03045E" font-family="sans-serif" font-size="12" lengthAdjust="spacing" textLength="151" x="656.5" y="131.0137">- stakeholder agreement</text><text fill="#03045E" font-family="sans-serif" font-size="12" lengthAdjust="spacing" textLength="61" x="656.5" y="144.9824">- mandate</text><text fill="#03045E" font-family="sans-serif" font-size="12" lengthAdjust="spacing" textLength="61" x="656.5" y="158.9512">- see also</text><a href="/process/plan/chart/" target="_top" title="/process/plan/chart/" xlink:actuate="onRequest" xlink:href="/process/plan/chart/" xlink:show="new" xlink:title="/process/plan/chart/" xlink:type="simple"><text fill="#90EE90" font-family="sans-serif" font-size="12" lengthAdjust="spacing" textLength="41" x="721.5" y="158.9512">"Chart"</text></a></g><ellipse cx="855" cy="110.9688" fill="none" filter="url(#fqkpbxx6w45na)" rx="10" ry="10" style="stroke:#222222;stroke-width:1.0;"/><ellipse cx="855.5" cy="111.4688" fill="#222222" rx="6" ry="6" style="stroke:none;stroke-width:1.0;"/><g id="Plan.Train"><rect fill="#9397B2" filter="url(#fqkpbxx6w45na)" height="63.9375" rx="20" ry="20" style="stroke:#0077B6;stroke-width:0.5;" width="136" x="155" y="243.9688"/><line style="stroke:#0077B6;stroke-width:0.5;" x1="155" x2="291" y1="275.9375" y2="275.9375"/><text fill="#03045E" font-family="sans-serif" font-size="12" lengthAdjust="spacing" textLength="29" x="208.5" y="264.1074">Train</text><text fill="#03045E" font-family="sans-serif" font-size="12" lengthAdjust="spacing" textLength="61" x="164" y="296.0762">- see also</text><a href="/process/plan/train/" target="_top" title="/process/plan/train/" xlink:actuate="onRequest" xlink:href="/process/plan/train/" xlink:show="new" xlink:title="/process/plan/train/" xlink:type="simple"><text fill="#90EE90" font-family="sans-serif" font-size="12" lengthAdjust="spacing" textLength="39" x="229" y="296.0762">"Train"</text></a></g><!--link *start*Plan to Envision--><g id="link_*start*Plan_Envision"><path d="M38.3516,110.9688 C42.4673,110.9688 46.583,110.9688 50.6988,110.9688 " fill="none" id="*start*Plan-to-Envision" style="stroke:#FF9900;stroke-width:1.0;"/><polygon fill="#FF9900" points="55.912,110.9688,46.912,106.9688,50.912,110.9688,46.912,114.9688,55.912,110.9688" style="stroke:#FF9900;stroke-width:1.0;"/></g><!--link Envision to Discover--><g id="link_Envision_Discover"><path d="M212.047,110.9688 C216.341,110.9688 220.634,110.9688 224.928,110.9688 " fill="none" id="Envision-to-Discover" style="stroke:#FF9900;stroke-width:1.0;"/><polygon fill="#FF9900" points="229.968,110.9688,220.968,106.9688,224.968,110.9688,220.968,114.9688,229.968,110.9688" style="stroke:#FF9900;stroke-width:1.0;"/></g><!--link Discover to Assess--><g id="link_Discover_Assess"><path d="M398.09,110.9688 C402.415,110.9688 406.74,110.9688 411.066,110.9688 " fill="none" id="Discover-to-Assess" style="stroke:#FF9900;stroke-width:1.0;"/><polygon fill="#FF9900" points="416.143,110.9688,407.143,106.9688,411.143,110.9688,407.143,114.9688,416.143,110.9688" style="stroke:#FF9900;stroke-width:1.0;"/></g><!--link Assess to Chart--><g id="link_Assess_Chart"><path d="M629.582,110.9688 C633.712,110.9688 637.843,110.9688 641.973,110.9688 " fill="none" id="Assess-to-Chart" style="stroke:#FF9900;stroke-width:1.0;"/><polygon fill="#FF9900" points="647.205,110.9688,638.205,106.9688,642.205,110.9688,638.205,114.9688,647.205,110.9688" style="stroke:#FF9900;stroke-width:1.0;"/></g><!--link Chart to *end*Plan--><g id="link_Chart_*end*Plan"><path d="M826.883,110.9688 C831.198,110.9688 835.514,110.9688 839.829,110.9688 " fill="none" id="Chart-to-*end*Plan" style="stroke:#FF9900;stroke-width:1.0;"/><polygon fill="#FF9900" points="844.895,110.9688,835.895,106.9688,839.895,110.9688,835.895,114.9688,844.895,110.9688" style="stroke:#FF9900;stroke-width:1.0;"/></g><!--link *start*Plan to Train--><g id="link_*start*Plan_Train"><path d="M28.9423,121.3188 C30.6288,133.8358 35.1748,156.1748 47,170.9688 C73.8274,204.5318 114.642,229.6096 150.215,246.7208 " fill="none" id="*start*Plan-to-Train" style="stroke:#FF9900;stroke-width:1.0;"/><polygon fill="#FF9900" points="154.973,248.9776,148.5556,241.5065,150.4554,246.8348,145.1271,248.7346,154.973,248.9776" style="stroke:#FF9900;stroke-width:1.0;"/></g><!--reverse link Envision to Train--><g id="link_Envision_Train"><path d="M157.279,154.6028 C172.551,182.5727 192.177,218.5178 205.992,243.8186 " fill="none" id="Envision-backto-Train" style="stroke:#FF9900;stroke-width:1.0;"/><polygon fill="#FF9900" points="154.867,150.1848,155.6684,160.0009,157.2628,154.5734,162.6903,156.1677,154.867,150.1848" style="stroke:#FF9900;stroke-width:1.0;"/></g><!--reverse link Discover to Train--><g id="link_Discover_Train"><path d="M278.299,175.9168 C265.265,199.2627 251.105,224.6268 240.377,243.8434 " fill="none" id="Discover-backto-Train" style="stroke:#FF9900;stroke-width:1.0;"/><polygon fill="#FF9900" points="280.889,171.2768,273.0094,177.1854,278.4518,175.6425,279.9947,181.0849,280.889,171.2768" style="stroke:#FF9900;stroke-width:1.0;"/></g><!--reverse link Assess to Train--><g id="link_Assess_Train"><path d="M422.695,166.4678 C375.346,192.1938 320.548,221.9674 280.347,243.8104 " fill="none" id="Assess-backto-Train" style="stroke:#FF9900;stroke-width:1.0;"/><polygon fill="#FF9900" points="427.253,163.9908,417.4353,164.7734,422.8598,166.3781,421.255,171.8026,427.253,163.9908" style="stroke:#FF9900;stroke-width:1.0;"/></g><!--SRC=[rLXjJ-Cu4FwUN-6bkcFt1EeBBDsULaYbbDtLSXHHxiC9hP2RJ1khZfsp7NhSQV_xZPqsSK8Bt8gUH3xGu7bcdcSc4x_aJGHJ9e2SVBhzhV_budOmEXzT4NSrslsZzeT1yAQ4Z8U3qSLf_-gF9Qvnr3xg7dtm8PVzmTV-fs4HgD6bdLPlMa96LwV3Av-7D8RkAY1deulh2g2417hEH4eLJSY4XlEPafc81f9BjG8QHOL610Zp9FYdMFFRq0wyxHnqzaZx_HxfjDzvVf_lKr3dJCnzDzBWR1QRcG8GGR1Bc0Xv5W4nCP0P252KaoA49bDqd4WJxn7dHgY8I4JL73sD9F8Er48n0sJ1J9p7O7SWY0PZc9ZfUkMkFtyPVBqOZiUaxPVZaaOHmicXDtQL9wnG4ZbiUOPnJ2Evi72ZCgZdop7VtqNaRe1CATS-94RzLh11ZRdDCvx2b6RSa7-2tJCfp0LDWEoCKeIEyR6GCIHi8dcq4rXhNjFoQRl1CViRIBiJVFV3zfMI2mowrcDz67FFiMJ8LOsKOYFG6M2ijQudjJwfl1R1YLHObQN5wsEaA1c4ZFvB-ChxyZo6K2Qf5DZWIFE3WjUgoskM9RnM_OWQEg4QNfYkmX5ocKLR9P2SGsYOn3PyQPgIPO009VaM6KviIAhkjqWn58QPRH8mOK1DQGXRv1Z3dnc842wfCYnaAHKc3tOTit0kG6jouC7r4ewAV8z7nJq8lKQdXocd9I5LGddTzY2TSpO5N7jWO_02yAXCDta-2Ev6DqPsrhMYdCMlOJyqKZsXm44sSbdhfXTubmmEYQqQBbRuJ-F9ot_d5RxmLCmuVFo8ovgMulWOd-yOcm-amPLku-hnKkj2lUFgItXrYlBambyeKb1- -_AwQtkuBOZNzzf0ylfg_VAwjrJhrOByEafTgdrzbVRQPB9SU7FLnGOwtm9Nit1xsDRJkxqVoltnnF859g8wXkWvkQvDDKHYYkkAUcwkxSCdMcaBcJx-2FsbtL2pRgVHw1tqkYSTZtmHupaiw1kZs2GpdjH6ww1r-1ugaXgjLhSxEQflOwdM_nCNBTVrnjbPhzTgrOrbYV2e6CGC3oQGfBYrYq27YgLsDumHNNqkEHKeFBZvvHlPL_QWkd-CEy4xfXreTLVQJfaExU4rMDsKfhxMI1haF-Nm8CODJn2u7x9V32FZaXRRJE30jSBc2znVX6MfBwGoMaYeZ2xP2yc_adr2YKPMYB0P56OxkwzODG31rfRaveOqKoL3z6-cM90cB55DihDos27VKE-AshddCLb8CZmaXJZLwOgT2MOOvOKL3zq05SGaqymzfxcG2mxHh6fE5PDuucQWoSz4PWOFW3MApHb4InHci7B8CyZBP9t3JDdF9VcBueqht1CpMpI14_S3Qq9DfkmvuIsgrqsfPaqxqpSDXF4x3xTP6dKO59Q3SrckEwpV7QCJdCgKf552qtAyg9KjPJcCykOGutaV6v7QJpE9_G9Kc1EAaxVnyHjbXHQ2gXmq5-Nwwt4lOo7evQ3Ew_k_]--></g></svg>