<svg xmlns="http://www.w3.org/2000/svg" xmlns:xlink="http://www.w3.org/1999/xlink" contentStyleType="text/css" data-diagram-type="CLASS" height="388px" preserveAspectRatio="none" style="width:420px;height:388px;" version="1.1" viewBox="0 0 420 388" width="420px" zoomAndPan="magnify"><defs/><g><!--class Concept--><g class="entity" data-qualified-name="Concept" data-source-line="61" id="ent0002"><a href="/concept/concept/#ontology" target="_top" title="/concept/concept/#ontology" xlink:actuate="onRequest" xlink:href="/concept/concept/#ontology" xlink:show="new" xlink:title="/concept/concept/#ontology" xlink:type="simple"><polygon fill="#4051B5" points="211.53,189,211.53,189.2102,221.7506,188.5857,231.9712,189.1933,242.1917,189.3997,252.4123,188.2866,262.6329,188.9223,272.8535,188.5735,283.0741,188.6165,293.2946,189,293.286,188.979,293.6307,188.9628,294.2138,189.522,294.487,189.3331,294.9665,189.642,295.416,189.8787,295.549,189.9338,295.5653,190.292,295.7885,190.7359,295.9333,191.1474,296.1739,191.5985,296.2946,192,296.3744,192,296.4899,196.8,296.5183,201.6,296.5211,206.4,296.3795,211.2,296.2946,216,296.4374,216.0591,296.3352,216.5138,295.7211,216.7565,295.9764,217.3593,295.5004,217.6592,295.416,218.1213,295.4841,218.2857,294.9286,218.1446,294.5587,218.4517,294.2378,218.8769,293.7127,218.8093,293.2946,219,293.2946,219.1053,283.0741,219.3386,272.8535,219.4162,262.6329,218.9961,252.4123,219.2872,242.1917,218.4276,231.9712,219.2844,221.7506,219.5482,211.53,219,211.5867,219.1369,211.1839,219.0131,210.6198,218.4998,210.174,218.2719,209.7537,218.1057,209.4087,218.1213,209.3905,218.1138,209.1724,217.672,209.2671,217.3597,208.8277,216.8262,208.6001,216.3805,208.53,216,208.6061,216,208.3077,211.2,208.357,206.4,208.7463,201.6,208.6752,196.8,208.53,192,208.7562,192.0937,208.6066,191.5347,208.9798,191.1922,209.239,190.8025,209.0875,190.2427,209.4087,189.8787,209.3965,189.8492,209.849,189.7417,210.3403,189.7279,210.6809,189.3502,211.1647,189.3182,211.53,189" style="stroke:#FF6F00;stroke-width:2;"/><polygon fill="#ADD1B2" points="232.5852,206.4324,231.1194,208.4353,229.3856,211.3688,226.906,213.3458,224.3003,214.4269,222.2227,214.5207,219.5524,213.1687,217.0329,212.2854,215.1205,210.492,214.1173,208.4389,213.5224,206.8041,212.9396,204.6688,211.9936,202.8313,212.7206,201.0373,213.3575,199.072,215.7475,197.5177,217.4291,195.501,219.5104,194.8313,221.9847,194.2546,225.1576,194.5972,226.8955,195.4168,228.9161,195.7884,231.3729,198.3054,232.2293,200.9627,232.6014,202.7758,232.18,205.7635" style="stroke:#181818;stroke-width:1;"/><path d="M224.3894,208.2344 Q223.9519,208.4531 223.4519,208.5625 Q222.9675,208.6875 222.4363,208.6875 Q220.5144,208.6875 219.4988,207.4219 Q218.4988,206.1563 218.4988,203.7656 Q218.4988,201.375 219.4988,200.1094 Q220.5144,198.8438 222.4363,198.8438 Q222.9675,198.8438 223.4675,198.9688 Q223.9675,199.0781 224.3894,199.3125 L224.3894,201.3906 Q223.905,200.9531 223.4519,200.75 Q222.9988,200.5313 222.5144,200.5313 Q221.4988,200.5313 220.9675,201.3594 Q220.4363,202.1719 220.4363,203.7656 Q220.4363,205.375 220.9675,206.1875 Q221.4988,207 222.5144,207 Q222.9988,207 223.4519,206.7969 Q223.905,206.5938 224.3894,206.1406 L224.3894,208.2344 Z " fill="#FFFFFF"/><text fill="#FFFFFF" font-family="'Roboto'" font-size="13" lengthAdjust="spacing" textLength="53.7646" x="237.53" y="208.5005">Concept</text></a></g><!--class Term--><g class="entity" data-qualified-name="Term" data-source-line="62" id="ent0003"><a href="/concept/term/#ontology" target="_top" title="/concept/term/#ontology" xlink:actuate="onRequest" xlink:href="/concept/term/#ontology" xlink:show="new" xlink:title="/concept/term/#ontology" xlink:type="simple"><polygon fill="#4051B5" points="166.44,280,166.44,280.2102,176.7645,279.5857,187.0891,280.1933,197.4136,280.3997,207.7382,279.2866,218.0627,279.9223,228.3873,280,228.3329,279.8687,228.7626,280.0576,229.2271,280.3305,229.5719,280.3143,230.1549,280.8734,230.5086,280.8787,230.3145,280.7983,230.6234,281.2777,230.9931,281.7823,231.0094,282.1405,231.2325,282.5844,231.3873,283,231.3766,283,231.4468,287.8,231.467,292.6,231.5825,297.4,231.611,302.2,231.3873,307,231.5964,307.0866,231.2899,307.4567,231.1786,307.9077,231.0763,308.3624,230.4622,308.6051,230.5086,309.1213,230.5951,309.3303,230.0465,309.2057,229.7282,309.6372,229.1726,309.4961,228.8028,309.8032,228.3873,310,228.3873,310.7416,218.0627,309.9513,207.7382,310.1053,197.4136,310.3386,187.0891,310.4162,176.7645,309.9961,166.44,310,166.4766,310.0885,165.9427,309.648,165.6277,309.7361,165.2371,309.6416,164.7996,309.434,164.3187,309.1213,164.5075,309.1995,163.9942,308.6354,163.7664,308.1896,163.6001,307.7693,163.5976,307.4168,163.44,307,163.3745,307,163.6671,302.2,163.3818,297.4,163.3256,292.6,163.5161,287.8,163.44,283,163.2346,282.9149,163.4559,282.5095,163.9913,282.2343,164.1014,281.7828,164.3691,281.3966,164.3187,280.8787,164.2776,280.7796,164.7837,280.8012,165.2425,280.709,165.5312,280.206,166.0035,280.1462,166.44,280" style="stroke:#FF6F00;stroke-width:2;"/><polygon fill="#ADD1B2" points="187.4952,297.4324,186.0294,299.4353,184.2956,302.3688,181.816,304.3458,179.2103,305.4269,177.1327,305.5207,174.4624,304.1687,171.9429,303.2854,170.0305,301.492,169.0273,299.4389,168.4324,297.8041,167.8496,295.6688,166.9036,293.8313,167.6306,292.0373,168.2675,290.072,170.6575,288.5177,172.3391,286.501,174.4204,285.8313,176.8947,285.2546,180.0676,285.5972,181.8055,286.4168,183.8261,286.7884,186.2829,289.3054,187.1393,291.9627,187.5114,293.7758,187.09,296.7635" style="stroke:#181818;stroke-width:1;"/><path d="M179.2994,299.2344 Q178.8619,299.4531 178.3619,299.5625 Q177.8775,299.6875 177.3463,299.6875 Q175.4244,299.6875 174.4088,298.4219 Q173.4088,297.1563 173.4088,294.7656 Q173.4088,292.375 174.4088,291.1094 Q175.4244,289.8438 177.3463,289.8438 Q177.8775,289.8438 178.3775,289.9688 Q178.8775,290.0781 179.2994,290.3125 L179.2994,292.3906 Q178.815,291.9531 178.3619,291.75 Q177.9088,291.5313 177.4244,291.5313 Q176.4088,291.5313 175.8775,292.3594 Q175.3463,293.1719 175.3463,294.7656 Q175.3463,296.375 175.8775,297.1875 Q176.4088,298 177.4244,298 Q177.9088,298 178.3619,297.7969 Q178.815,297.5938 179.2994,297.1406 L179.2994,299.2344 Z " fill="#FFFFFF"/><text fill="#FFFFFF" font-family="'Roboto'" font-size="13" lengthAdjust="spacing" textLength="33.9473" x="192.44" y="299.5005">Term</text></a></g><!--class BusinessTerm--><g class="entity" data-qualified-name="BusinessTerm" data-source-line="63" id="ent0004"><polygon fill="#4051B5" points="231.78,351,231.78,351.2102,241.7194,350.5857,251.6588,351.1933,261.5982,351.3997,271.5376,350.2866,281.4771,350.9223,291.4165,350.5735,301.3559,350.6165,311.2953,350.9318,321.2347,350.3086,331.1741,351.5536,341.1135,350.3697,351.0529,351,351.0277,350.9391,351.5323,351.3088,351.8905,351.3251,352.3344,351.5482,352.7459,351.6931,353.1743,351.8787,353.2292,351.9015,353.4236,352.3334,353.7061,352.8019,353.9081,353.2371,354.0864,353.6624,354.0529,354,354.1378,354,354.2075,358.8,354.287,363.6,353.8126,368.4,354.2791,373.2,354.0529,378,353.9616,377.9622,354.0416,378.4924,353.549,378.7854,353.5046,379.2641,353.5784,379.7917,353.1743,380.1213,353.1681,380.1063,352.7634,380.3295,352.3689,380.5771,351.9546,380.7767,351.4767,380.8231,351.0529,381,351.0529,381.2872,341.1135,380.4276,331.1741,381.2844,321.2347,381.5482,311.2953,381.4445,301.3559,381.613,291.4165,380.5169,281.4771,380.3478,271.5376,380.3786,261.5982,380.9411,251.6588,380.8035,241.7194,381.6814,231.78,381,231.7577,380.9462,231.312,380.7186,230.9606,380.7188,230.4221,380.2674,230.0167,380.1372,229.6587,380.1213,229.8585,380.2041,229.6171,379.7526,229.5334,379.3665,229.0324,378.8075,229.054,378.465,228.78,378,228.9768,378,228.6225,373.2,228.748,368.4,228.822,363.6,228.9973,358.8,228.78,354,228.7787,353.9995,229.0982,353.6347,228.9609,353.0808,229.0986,352.6408,229.638,352.3672,229.6587,351.8787,229.5672,351.6579,230.1479,351.8597,230.5336,351.5908,230.8973,351.269,231.3106,351.0668,231.78,351" style="stroke:#FF6F00;stroke-width:2;"/><polygon fill="#ADD1B2" points="252.8352,368.4324,251.3694,370.4353,249.6356,373.3688,247.156,375.3458,244.5503,376.4269,242.4727,376.5207,239.8024,375.1687,237.2829,374.2854,235.3705,372.492,234.3673,370.4389,233.7724,368.8041,233.1896,366.6688,232.2436,364.8313,232.9706,363.0373,233.6075,361.072,235.9975,359.5177,237.6791,357.501,239.7604,356.8313,242.2347,356.2546,245.4076,356.5972,247.1455,357.4168,249.1661,357.7884,251.6229,360.3054,252.4793,362.9627,252.8514,364.7758,252.43,367.7635" style="stroke:#181818;stroke-width:1;"/><path d="M244.6394,370.2344 Q244.2019,370.4531 243.7019,370.5625 Q243.2175,370.6875 242.6863,370.6875 Q240.7644,370.6875 239.7488,369.4219 Q238.7488,368.1563 238.7488,365.7656 Q238.7488,363.375 239.7488,362.1094 Q240.7644,360.8438 242.6863,360.8438 Q243.2175,360.8438 243.7175,360.9688 Q244.2175,361.0781 244.6394,361.3125 L244.6394,363.3906 Q244.155,362.9531 243.7019,362.75 Q243.2488,362.5313 242.7644,362.5313 Q241.7488,362.5313 241.2175,363.3594 Q240.6863,364.1719 240.6863,365.7656 Q240.6863,367.375 241.2175,368.1875 Q241.7488,369 242.7644,369 Q243.2488,369 243.7019,368.7969 Q244.155,368.5938 244.6394,368.1406 L244.6394,370.2344 Z " fill="#FFFFFF"/><text fill="#FFFFFF" font-family="'Roboto'" font-size="13" lengthAdjust="spacing" textLength="91.2729" x="257.78" y="370.5005">BusinessTerm</text></g><!--class TechnicalTerm--><g class="entity" data-qualified-name="TechnicalTerm" data-source-line="64" id="ent0005"><polygon fill="#4051B5" points="71.49,351,71.49,351.2102,81.8108,350.5857,92.1316,351.1933,102.4524,351.3997,112.7732,350.2866,123.094,350.9223,133.4148,350.5735,143.7356,350.6165,154.0564,350.9318,164.3772,350.3086,174.698,351.5536,185.0188,350.3697,195.3396,351,195.3144,350.9391,195.819,351.3088,196.1772,351.3251,196.6211,351.5482,197.0326,351.6931,197.4609,351.8787,197.5159,351.9015,197.7103,352.3334,197.9928,352.8019,198.1948,353.2371,198.3731,353.6624,198.3396,354,198.4245,354,198.4941,358.8,198.5737,363.6,198.0992,368.4,198.5658,373.2,198.3396,378,198.2483,377.9622,198.3283,378.4924,197.8357,378.7854,197.7913,379.2641,197.8651,379.7917,197.4609,380.1213,197.4547,380.1063,197.0501,380.3295,196.6556,380.5771,196.2412,380.7767,195.7634,380.8231,195.3396,381,195.3396,381.2872,185.0188,380.4276,174.698,381.2844,164.3772,381.5482,154.0564,381.4445,143.7356,381.613,133.4148,380.5169,123.094,380.3478,112.7732,380.3786,102.4524,380.9411,92.1316,380.8035,81.8108,381.6814,71.49,381,71.4677,380.9462,71.022,380.7186,70.6706,380.7188,70.1321,380.2674,69.7267,380.1372,69.3687,380.1213,69.5685,380.2041,69.3271,379.7526,69.2434,379.3665,68.7424,378.8075,68.764,378.465,68.49,378,68.6868,378,68.3325,373.2,68.458,368.4,68.532,363.6,68.7073,358.8,68.49,354,68.4887,353.9995,68.8082,353.6347,68.6709,353.0808,68.8086,352.6408,69.348,352.3672,69.3687,351.8787,69.2772,351.6579,69.8579,351.8597,70.2436,351.5908,70.6073,351.269,71.0206,351.0668,71.49,351" style="stroke:#FF6F00;stroke-width:2;"/><polygon fill="#ADD1B2" points="92.5452,368.4324,91.0794,370.4353,89.3456,373.3688,86.866,375.3458,84.2603,376.4269,82.1827,376.5207,79.5124,375.1687,76.9929,374.2854,75.0805,372.492,74.0773,370.4389,73.4824,368.8041,72.8996,366.6688,71.9536,364.8313,72.6806,363.0373,73.3175,361.072,75.7075,359.5177,77.3891,357.501,79.4704,356.8313,81.9447,356.2546,85.1176,356.5972,86.8555,357.4168,88.8761,357.7884,91.3329,360.3054,92.1893,362.9627,92.5614,364.7758,92.14,367.7635" style="stroke:#181818;stroke-width:1;"/><path d="M84.3494,370.2344 Q83.9119,370.4531 83.4119,370.5625 Q82.9275,370.6875 82.3963,370.6875 Q80.4744,370.6875 79.4588,369.4219 Q78.4588,368.1563 78.4588,365.7656 Q78.4588,363.375 79.4588,362.1094 Q80.4744,360.8438 82.3963,360.8438 Q82.9275,360.8438 83.4275,360.9688 Q83.9275,361.0781 84.3494,361.3125 L84.3494,363.3906 Q83.865,362.9531 83.4119,362.75 Q82.9588,362.5313 82.4744,362.5313 Q81.4588,362.5313 80.9275,363.3594 Q80.3963,364.1719 80.3963,365.7656 Q80.3963,367.375 80.9275,368.1875 Q81.4588,369 82.4744,369 Q82.9588,369 83.4119,368.7969 Q83.865,368.5938 84.3494,368.1406 L84.3494,370.2344 Z " fill="#FFFFFF"/><text fill="#FFFFFF" font-family="'Roboto'" font-size="13" lengthAdjust="spacing" textLength="95.8496" x="97.49" y="370.5005">TechnicalTerm</text></g><!--class ConceptVocabulary--><g class="entity" data-qualified-name="ConceptVocabulary" data-source-line="65" id="ent0006"><polygon fill="#4051B5" points="10,98,10,98.2102,20.3222,97.5857,30.6443,98.1933,40.9665,98.3997,51.2887,97.2866,61.6108,97.9223,71.933,97.5735,82.2552,97.6165,92.5773,97.9318,102.8995,97.3086,113.2217,98.5536,123.5438,97.3697,133.866,97.8022,144.1882,98.4319,154.5104,97.9142,164.8325,98,164.8412,98.021,165.2527,98.1659,165.7038,98.4065,166.1358,98.6009,166.6043,98.8833,166.9538,98.8787,167.1605,98.9643,167.3388,99.3896,167.3837,99.7597,167.6238,100.2106,167.873,100.6653,167.8325,101,167.5921,101,168.0587,105.8,167.7337,110.6,168.0105,115.4,167.6675,120.2,167.8325,125,167.8114,124.9913,167.8852,125.5189,167.466,125.8423,167.3377,126.2862,167.2339,126.7403,166.9538,127.1213,167.0069,127.2495,166.5291,127.2959,166.1419,127.5612,165.608,127.4722,165.2931,127.9118,164.8325,128,164.8325,128.5482,154.5104,128.4445,144.1882,128.613,133.866,127.5169,123.5438,127.3478,113.2217,127.3786,102.8995,127.9411,92.5773,127.8035,82.2552,128.6814,71.933,127.8253,61.6108,127.6569,51.2887,128.2283,40.9665,127.3332,30.6443,127.4809,20.3222,128.649,10,128,10.0556,128.1342,9.6694,128.0505,9.1104,127.5494,8.7679,127.5711,8.3783,127.4789,7.8787,127.1213,7.7332,127.0611,7.6734,126.6848,7.566,126.2889,7.5522,125.9317,7.1744,125.4237,7,125,7.1542,125,6.8154,120.2,6.7742,115.4,7.1679,110.6,6.761,105.8,7,101,7.1567,101.0649,7.2394,100.6021,7.269,100.1173,7.4183,99.6821,7.8442,99.3615,7.8787,98.8787,7.8405,98.7865,8.3784,98.8852,8.6567,98.357,9.2302,98.5416,9.6375,98.3249,10,98" style="stroke:#FF6F00;stroke-width:2;"/><polygon fill="#ADD1B2" points="31.0552,115.4324,29.5894,117.4353,27.8556,120.3688,25.376,122.3458,22.7703,123.4269,20.6927,123.5207,18.0224,122.1687,15.5029,121.2854,13.5905,119.492,12.5873,117.4389,11.9924,115.8041,11.4096,113.6688,10.4636,111.8313,11.1906,110.0373,11.8275,108.072,14.2175,106.5177,15.8991,104.501,17.9804,103.8313,20.4547,103.2546,23.6276,103.5972,25.3655,104.4168,27.3861,104.7884,29.8429,107.3054,30.6993,109.9627,31.0714,111.7758,30.65,114.7635" style="stroke:#181818;stroke-width:1;"/><path d="M22.8594,117.2344 Q22.4219,117.4531 21.9219,117.5625 Q21.4375,117.6875 20.9063,117.6875 Q18.9844,117.6875 17.9688,116.4219 Q16.9688,115.1563 16.9688,112.7656 Q16.9688,110.375 17.9688,109.1094 Q18.9844,107.8438 20.9063,107.8438 Q21.4375,107.8438 21.9375,107.9688 Q22.4375,108.0781 22.8594,108.3125 L22.8594,110.3906 Q22.375,109.9531 21.9219,109.75 Q21.4688,109.5313 20.9844,109.5313 Q19.9688,109.5313 19.4375,110.3594 Q18.9063,111.1719 18.9063,112.7656 Q18.9063,114.375 19.4375,115.1875 Q19.9688,116 20.9844,116 Q21.4688,116 21.9219,115.7969 Q22.375,115.5938 22.8594,115.1406 L22.8594,117.2344 Z " fill="#FFFFFF"/><text fill="#FFFFFF" font-family="'Roboto'" font-size="13" lengthAdjust="spacing" textLength="126.8325" x="36" y="117.5005">ConceptVocabulary</text></g><!--class UseCase--><g class="entity" data-qualified-name="UseCase" data-source-line="66" id="ent0007"><a href="/concept/use-case/#ontology" target="_top" title="/concept/use-case/#ontology" xlink:actuate="onRequest" xlink:href="/concept/use-case/#ontology" xlink:show="new" xlink:title="/concept/use-case/#ontology" xlink:type="simple"><polygon fill="#4051B5" points="32.37,189,32.37,189.2102,42.8826,188.5857,53.3951,189.1933,63.9077,189.3997,74.4203,188.2866,84.9329,188.9223,95.4454,188.5735,105.958,188.6165,116.4706,189,116.4619,188.979,116.8067,188.9628,117.3897,189.522,117.663,189.3331,118.1424,189.642,118.5919,189.8787,118.7249,189.9338,118.7412,190.292,118.9644,190.7359,119.1093,191.1474,119.3498,191.5985,119.4706,192,119.5503,192,119.6658,196.8,119.6943,201.6,119.697,206.4,119.5555,211.2,119.4706,216,119.6134,216.0591,119.5111,216.5138,118.897,216.7565,119.1523,217.3593,118.6763,217.6592,118.5919,218.1213,118.66,218.2857,118.1045,218.1446,117.7346,218.4517,117.4137,218.8769,116.8886,218.8093,116.4706,219,116.4706,219.1053,105.958,219.3386,95.4454,219.4162,84.9329,218.9961,74.4203,219.2872,63.9077,218.4276,53.3951,219.2844,42.8826,219.5482,32.37,219,32.4267,219.1369,32.0239,219.0131,31.4598,218.4998,31.014,218.2719,30.5937,218.1057,30.2487,218.1213,30.2305,218.1138,30.0124,217.672,30.1071,217.3597,29.6677,216.8262,29.4401,216.3805,29.37,216,29.4461,216,29.1477,211.2,29.197,206.4,29.5863,201.6,29.5152,196.8,29.37,192,29.5962,192.0937,29.4466,191.5347,29.8198,191.1922,30.079,190.8025,29.9275,190.2427,30.2487,189.8787,30.2365,189.8492,30.689,189.7417,31.1803,189.7279,31.5209,189.3502,32.0047,189.3182,32.37,189" style="stroke:#FF6F00;stroke-width:2;"/><polygon fill="#ADD1B2" points="53.4252,206.4324,51.9594,208.4353,50.2256,211.3688,47.746,213.3458,45.1403,214.4269,43.0627,214.5207,40.3924,213.1687,37.8729,212.2854,35.9605,210.492,34.9573,208.4389,34.3624,206.8041,33.7796,204.6688,32.8336,202.8313,33.5606,201.0373,34.1975,199.072,36.5875,197.5177,38.2691,195.501,40.3504,194.8313,42.8247,194.2546,45.9976,194.5972,47.7355,195.4168,49.7561,195.7884,52.2129,198.3054,53.0693,200.9627,53.4414,202.7758,53.02,205.7635" style="stroke:#181818;stroke-width:1;"/><path d="M45.2294,208.2344 Q44.7919,208.4531 44.2919,208.5625 Q43.8075,208.6875 43.2763,208.6875 Q41.3544,208.6875 40.3388,207.4219 Q39.3388,206.1563 39.3388,203.7656 Q39.3388,201.375 40.3388,200.1094 Q41.3544,198.8438 43.2763,198.8438 Q43.8075,198.8438 44.3075,198.9688 Q44.8075,199.0781 45.2294,199.3125 L45.2294,201.3906 Q44.745,200.9531 44.2919,200.75 Q43.8388,200.5313 43.3544,200.5313 Q42.3388,200.5313 41.8075,201.3594 Q41.2763,202.1719 41.2763,203.7656 Q41.2763,205.375 41.8075,206.1875 Q42.3388,207 43.3544,207 Q43.8388,207 44.2919,206.7969 Q44.745,206.5938 45.2294,206.1406 L45.2294,208.2344 Z " fill="#FFFFFF"/><text fill="#FFFFFF" font-family="'Roboto'" font-size="13" lengthAdjust="spacing" textLength="56.1006" x="58.37" y="208.5005">UseCase</text></a></g><!--class Story--><g class="entity" data-qualified-name="Story" data-source-line="67" id="ent0008"><a href="/concept/story/#ontology" target="_top" title="/concept/story/#ontology" xlink:actuate="onRequest" xlink:href="/concept/story/#ontology" xlink:show="new" xlink:title="/concept/story/#ontology" xlink:type="simple"><polygon fill="#4051B5" points="281.25,7,281.25,7.2102,291.6401,6.5857,302.0303,7.1933,312.4204,7.3997,322.8105,6.2866,333.2007,6.9223,343.5908,7,343.5364,6.8687,343.9662,7.0576,344.4307,7.3305,344.7754,7.3143,345.3585,7.8734,345.7121,7.8787,345.518,7.7983,345.827,8.2777,346.1966,8.7823,346.2129,9.1405,346.4361,9.5844,346.5908,10,346.5802,10,346.6503,14.8,346.6705,19.6,346.7861,24.4,346.8145,29.2,346.5908,34,346.8,34.0866,346.4935,34.4567,346.3821,34.9077,346.2799,35.3624,345.6658,35.6051,345.7121,36.1213,345.7987,36.3303,345.2501,36.2057,344.9317,36.6372,344.3762,36.4961,344.0063,36.8032,343.5908,37,343.5908,37.7416,333.2007,36.9513,322.8105,37.1053,312.4204,37.3386,302.0303,37.4162,291.6401,36.9961,281.25,37,281.2866,37.0885,280.7527,36.648,280.4377,36.7361,280.0471,36.6416,279.6096,36.434,279.1287,36.1213,279.3175,36.1995,278.8042,35.6354,278.5764,35.1896,278.4101,34.7693,278.4076,34.4168,278.25,34,278.1845,34,278.4771,29.2,278.1918,24.4,278.1356,19.6,278.3261,14.8,278.25,10,278.0446,9.9149,278.2659,9.5095,278.8013,9.2343,278.9114,8.7828,279.1791,8.3966,279.1287,7.8787,279.0876,7.7796,279.5937,7.8012,280.0525,7.709,280.3412,7.206,280.8135,7.1462,281.25,7" style="stroke:#FF6F00;stroke-width:2;"/><polygon fill="#ADD1B2" points="302.3052,24.4324,300.8394,26.4353,299.1056,29.3688,296.626,31.3458,294.0203,32.4269,291.9427,32.5207,289.2724,31.1687,286.7529,30.2854,284.8405,28.492,283.8373,26.4389,283.2424,24.8041,282.6596,22.6688,281.7136,20.8313,282.4406,19.0373,283.0775,17.072,285.4675,15.5177,287.1491,13.501,289.2304,12.8313,291.7047,12.2546,294.8776,12.5972,296.6155,13.4168,298.6361,13.7884,301.0929,16.3054,301.9493,18.9627,302.3214,20.7758,301.9,23.7635" style="stroke:#181818;stroke-width:1;"/><path d="M294.1094,26.2344 Q293.6719,26.4531 293.1719,26.5625 Q292.6875,26.6875 292.1563,26.6875 Q290.2344,26.6875 289.2188,25.4219 Q288.2188,24.1563 288.2188,21.7656 Q288.2188,19.375 289.2188,18.1094 Q290.2344,16.8438 292.1563,16.8438 Q292.6875,16.8438 293.1875,16.9688 Q293.6875,17.0781 294.1094,17.3125 L294.1094,19.3906 Q293.625,18.9531 293.1719,18.75 Q292.7188,18.5313 292.2344,18.5313 Q291.2188,18.5313 290.6875,19.3594 Q290.1563,20.1719 290.1563,21.7656 Q290.1563,23.375 290.6875,24.1875 Q291.2188,25 292.2344,25 Q292.7188,25 293.1719,24.7969 Q293.625,24.5938 294.1094,24.1406 L294.1094,26.2344 Z " fill="#FFFFFF"/><text fill="#FFFFFF" font-family="'Roboto'" font-size="13" lengthAdjust="spacing" textLength="34.3408" x="307.25" y="26.5005">Story</text></a></g><!--class StoryConceptRelationship--><g class="entity" data-qualified-name="StoryConceptRelationship" data-source-line="68" id="ent0009"><polygon fill="#4051B5" points="214.17,98,214.17,98.2102,223.9946,97.5857,233.8192,98.1933,243.6438,98.3997,253.4684,97.2866,263.293,97.9223,273.1177,97.5735,282.9423,97.6165,292.7669,97.9318,302.5915,97.3086,312.4161,98.5536,322.2407,97.3697,332.0653,97.8022,341.8899,98.4319,351.7145,97.9142,361.5391,98.0682,371.3638,97.9681,381.1884,98.1785,391.013,98.2391,400.8376,98.5857,410.6622,98,410.7478,98.2067,411.1731,98.3849,411.5432,98.4299,411.9941,98.67,412.4488,98.9192,412.7835,98.8787,412.5614,98.7867,413.1682,99.3895,413.0437,99.6894,413.4751,100.2196,413.334,100.5126,413.6622,101,413.6394,101,413.9094,105.8,413.6459,110.6,413.6973,115.4,413.7751,120.2,413.6622,125,413.7904,125.0531,413.4852,125.4238,413.3992,125.8852,412.9587,126.1998,413.0468,126.7333,412.7835,127.1213,412.8534,127.2901,412.4159,127.434,412.0132,127.6616,411.4491,127.4998,411.0033,127.6234,410.6622,128,410.6622,127.3786,400.8376,127.9411,391.013,127.8035,381.1884,128.6814,371.3638,127.8253,361.5391,127.6569,351.7145,128.2283,341.8899,127.3332,332.0653,127.4809,322.2407,128.649,312.4161,128.4357,302.5915,128.7345,292.7669,127.6782,282.9423,128.3192,273.1177,128.5904,263.293,127.5276,253.4684,127.9041,243.6438,128.126,233.8192,128.6518,223.9946,127.9958,214.17,128,214.229,128.1425,213.6751,127.6537,213.2351,127.44,212.9614,127.6279,212.3815,127.0763,212.0487,127.1213,212.2054,127.1862,211.9366,126.7234,211.6147,126.2386,211.4125,125.8034,211.487,125.4828,211.17,125,211.0702,125,211.3673,120.2,210.9858,115.4,211.3758,110.6,211.3314,105.8,211.17,101,211.2454,101.0312,211.3603,100.5818,211.7452,100.2442,211.8862,99.8055,211.9251,99.3245,212.0487,98.8787,212.0829,98.9613,212.4563,98.6628,212.9886,98.7478,213.3412,98.3992,213.7677,98.2289,214.17,98" style="stroke:#FF6F00;stroke-width:2;"/><polygon fill="#ADD1B2" points="235.2252,115.4324,233.7594,117.4353,232.0256,120.3688,229.546,122.3458,226.9403,123.4269,224.8627,123.5207,222.1924,122.1687,219.6729,121.2854,217.7605,119.492,216.7573,117.4389,216.1624,115.8041,215.5796,113.6688,214.6336,111.8313,215.3606,110.0373,215.9975,108.072,218.3875,106.5177,220.0691,104.501,222.1504,103.8313,224.6247,103.2546,227.7976,103.5972,229.5355,104.4168,231.5561,104.7884,234.0129,107.3054,234.8693,109.9627,235.2414,111.7758,234.82,114.7635" style="stroke:#181818;stroke-width:1;"/><path d="M227.0294,117.2344 Q226.5919,117.4531 226.0919,117.5625 Q225.6075,117.6875 225.0763,117.6875 Q223.1544,117.6875 222.1388,116.4219 Q221.1388,115.1563 221.1388,112.7656 Q221.1388,110.375 222.1388,109.1094 Q223.1544,107.8438 225.0763,107.8438 Q225.6075,107.8438 226.1075,107.9688 Q226.6075,108.0781 227.0294,108.3125 L227.0294,110.3906 Q226.545,109.9531 226.0919,109.75 Q225.6388,109.5313 225.1544,109.5313 Q224.1388,109.5313 223.6075,110.3594 Q223.0763,111.1719 223.0763,112.7656 Q223.0763,114.375 223.6075,115.1875 Q224.1388,116 225.1544,116 Q225.6388,116 226.0919,115.7969 Q226.545,115.5938 227.0294,115.1406 L227.0294,117.2344 Z " fill="#FFFFFF"/><text fill="#FFFFFF" font-family="'Roboto'" font-size="13" lengthAdjust="spacing" textLength="168.4922" x="240.17" y="117.5005">StoryConceptRelationship</text></g><!--reverse link Term to BusinessTerm--><g class="link" data-entity-1="ent0003" data-entity-2="ent0004" data-link-type="extension" data-source-line="71" id="lnk10"><path d="M231.4036,320.9469 L231.5694,321.1728 L239.1879,326.4562 L247.7787,333.0639 L256.0528,339.2403 L263.2858,343.9986 L271.96,350.72" fill="none" style="stroke:#FF6F00;stroke-width:2;"/><polygon fill="none" points="216.89,310.3,216.9472,310.3405,218.9702,313.3171,221.3284,316.5311,223.5775,319.6678,225.4676,322.5504,227.8546,325.7847,227.8337,325.7694,229.1596,323.7655,230.5907,321.8388,232.095,319.9659,233.3471,317.9079,234.9525,316.109,235.009,316.2847,231.2757,314.7472,227.7073,313.7227,224.1591,312.7607,220.4938,311.4346,216.89,310.3" style="stroke:#FF6F00;stroke-width:2;"/></g><!--reverse link Term to TechnicalTerm--><g class="link" data-entity-1="ent0003" data-entity-2="ent0005" data-link-type="extension" data-source-line="72" id="lnk11"><path d="M171.9144,323.4927 L171.9829,323.5562 L166.7285,328.8129 L161.8756,334.442 L156.892,339.9499 L151.4784,345.0589 L146.66,350.72" fill="none" style="stroke:#FF6F00;stroke-width:2;"/><polygon fill="none" points="184.16,310.3,184.1936,310.3615,180.7651,312.001,177.5337,314.0008,174.2381,315.8833,170.7313,317.3801,167.5169,319.4108,167.4993,319.3918,169.1792,320.9394,170.948,322.5826,172.7785,324.2924,174.3962,325.7729,176.312,327.5745,176.48,327.6508,177.6903,324.0327,179.3912,320.6374,181.1519,317.2694,182.5644,313.7431,184.16,310.3" style="stroke:#FF6F00;stroke-width:2;"/></g><!--reverse link Concept to Term--><g class="link" data-entity-1="ent0002" data-entity-2="ent0003" data-link-type="composition" data-source-line="75" id="lnk12"><path d="M234.0572,228.8504 L234.1353,228.9015 L232.5756,230.7795 L231.4742,232.9572 L230.2235,235.0374 L228.4821,236.7965 L227.42,239 L227.3905,238.982 L225.9863,240.9859 L224.7308,243.0805 L223.5786,245.2381 L222.0703,247.1785 L221.0608,249.4231 L221.2745,249.545 L219.596,251.4268 L218.5416,253.6643 L217.5633,255.9453 L216.142,257.9737 L214.9538,260.135 L214.9804,260.1495 L213.823,262.1911 L212.7869,264.2986 L211.6923,266.3743 L210.7095,268.5106 L209.3623,270.4494 L209.6268,270.5873 L208.6676,272.4351 L207.5378,274.1939 L206.6576,276.083 L205.7892,277.9782 L204.55,279.68" fill="none" style="stroke:#FF6F00;stroke-width:2;"/><polygon fill="#FF6F00" points="241.27,219.26,241.2932,219.3261,239.8636,219.6079,238.5701,220.2771,237.2322,220.8202,235.7486,220.9484,234.4668,221.6509,234.4409,221.6494,234.2429,223.0827,234.1753,224.5234,234.1983,225.9693,233.909,227.3974,234.0572,228.8504,234.1183,229.0245,235.3481,228.174,236.7566,227.8318,238.1868,227.5517,239.4902,226.9107,240.8604,226.4595,240.8831,226.4608,240.9317,225.019,241.0836,223.5831,241.1857,222.1443,241.383,220.711,241.27,219.26" style="stroke:#FF6F00;stroke-width:2;"/><text fill="#333333" font-family="'Roboto'" font-size="13" lengthAdjust="spacing" textLength="35.4834" x="230.42" y="254.0669">:term</text><text fill="#333333" font-family="'Roboto'" font-size="13" lengthAdjust="spacing" textLength="8.271" x="226.0617" y="240.93">1</text><text fill="#333333" font-family="'Roboto'" font-size="13" lengthAdjust="spacing" textLength="23.0356" x="177.5273" y="266.8567">1..*</text></g><!--link Concept to BusinessTerm--><g class="link" data-entity-1="ent0002" data-entity-2="ent0004" data-link-type="dependency" data-source-line="76" id="lnk13"><path d="M261.92,219.36 L262.002,219.4048 L262.7939,221.1683 L264.0664,223.1942 L265.1824,225.1346 L265.7837,226.7941 L267.0975,228.8425 L267.0657,228.829 L267.7876,230.7998 L268.6697,232.8388 L269.6631,234.9251 L270.2728,236.8482 L271.42,239 L271.6548,239.0737 L272.0784,241.8639 L273.1874,244.8693 L274.38,247.9009 L275.0861,250.7798 L276.0481,253.739 L276.0775,253.7466 L276.7997,256.7034 L277.6556,259.6947 L278.4471,262.6694 L279.3615,265.6758 L279.8748,268.5787 L280.1666,268.6404 L280.791,271.5753 L281.2272,274.4704 L281.9389,277.4238 L282.6634,280.3799 L282.9789,283.2494 L282.6631,283.1948 L283.7681,286.1472 L283.8331,288.9198 L284.6887,291.8291 L284.7302,294.5977 L285.439,297.4816 L285.4088,297.4773 L286.1443,300.2321 L286.1754,302.8881 L286.6222,305.6024 L287.1038,308.3215 L287.3337,311.0054 L287.5176,311.026 L287.6136,313.5144 L288.0238,316.038 L287.9258,318.5046 L288.5858,321.0562 L288.7419,323.5513 L288.9846,323.5728 L289.1387,325.8284 L289.4133,328.0947 L289.1281,330.3114 L289.2533,332.5644 L289.742,334.8496 L289.4665,334.8307 L289.8501,336.804 L289.9233,338.756 L290.4467,340.7389 L290.2013,342.6691 L290.413,344.6306" fill="none" style="stroke:#FF6F00;stroke-width:2;"/><polygon fill="#FF6F00" points="290.77,350.62,290.8356,350.6446,291.3321,348.7271,292.2133,346.9538,292.9692,345.1335,293.3132,343.1589,294.2273,341.3979,294.208,341.3807,293.37,342.1497,292.6298,343.0054,291.9574,343.9214,291.0511,344.6297,290.4725,345.6289,290.595,345.7669,289.4868,344.7207,288.7363,344.0776,288.0295,343.4836,287.0687,342.6036,286.2415,341.874,286.2617,341.8844,287.1378,343.6183,288.1058,345.3998,289.0294,347.1582,290.0377,348.9606,290.77,350.62" style="stroke:#FF6F00;stroke-width:2;"/><text fill="#333333" font-family="'Roboto'" font-size="13" lengthAdjust="spacing" textLength="69.7671" x="290.42" y="299.5669">:labelTerm</text><text fill="#333333" font-family="'Roboto'" font-size="13" lengthAdjust="spacing" textLength="24.8066" x="271.2427" y="241.0606">0..1</text><text fill="#333333" font-family="'Roboto'" font-size="13" lengthAdjust="spacing" textLength="8.271" x="278.776" y="338.0877">1</text></g><!--reverse link ConceptVocabulary to Concept--><g class="link" data-entity-1="ent0006" data-entity-2="ent0002" data-link-type="aggregation" data-source-line="79" id="lnk14"><path d="M120.7517,134.7844 L120.8026,134.8628 L122.5995,135.8953 L124.6947,137.3871 L126.6927,138.7293 L128.3713,139.5798 L130.4921,141.111 L130.4724,141.0826 L132.3696,142.333 L134.3661,143.7265 L136.4316,145.2195 L138.2592,146.3697 L140.42,148 L140.5736,148.1922 L142.9866,149.9727 L145.8481,152.3143 L148.7644,154.7245 L151.3622,156.7362 L154.1275,158.9575 L154.1449,158.9823 L156.9778,160.9544 L159.8901,163.0394 L162.7641,165.07 L165.7112,167.2045 L168.42,169 L168.56,169.2633 L170.6181,170.3601 L172.5858,171.287 L174.6857,172.4625 L176.7918,173.6497 L178.7016,174.4677 L178.5632,174.1785 L180.9739,175.7644 L182.9291,176.3982 L185.2305,177.7558 L187.1754,178.3681 L189.4125,179.5913 L189.4003,179.5634 L191.7086,180.8403 L193.7317,181.4656 L195.9231,182.4754 L198.1286,183.5175 L200.2322,184.3267 L200.3017,184.4981 L202.3531,185.1858 L204.5233,186.1663 L206.5012,186.6729 L208.766,187.8865 L210.84,188.63" fill="none" style="stroke:#FF6F00;stroke-width:2;"/><polygon fill="none" points="110.61,128.37,110.674,128.3985,111.0704,129.6314,111.842,131.0313,112.4913,132.3769,112.7389,133.5435,113.5427,134.9578,113.5421,134.9319,114.9811,134.781,116.4233,134.7607,117.8676,134.8311,119.3044,134.5887,120.7517,134.7844,120.9203,134.8595,119.9733,133.3814,119.5184,132.1225,119.1236,130.8903,118.3794,129.5026,117.819,128.1966,117.8196,128.2194,116.377,128.2207,114.9368,128.3255,113.4955,128.3803,112.0565,128.5305,110.61,128.37" style="stroke:#FF6F00;stroke-width:2;"/><text fill="#333333" font-family="'Roboto'" font-size="13" lengthAdjust="spacing" textLength="97.5571" x="171.42" y="163.0669">skos:inScheme</text><text fill="#333333" font-family="'Roboto'" font-size="13" lengthAdjust="spacing" textLength="8.271" x="105.9171" y="150.0737">1</text><text fill="#333333" font-family="'Roboto'" font-size="13" lengthAdjust="spacing" textLength="23.0356" x="175.3452" y="178.9687">0..*</text></g><!--link ConceptVocabulary to UseCase--><g class="link" data-entity-1="ent0006" data-entity-2="ent0007" data-link-type="dependency" data-source-line="80" id="lnk15"><path d="M79.45,128.45 L79.5359,128.4867 L78.4726,130.272 L77.913,132.2722 L77.1894,134.2024 L75.9264,135.9026 L75.41,137.9213 L75.3769,137.9114 L74.6303,139.8831 L74.0506,141.9043 L73.587,143.9599 L72.7234,145.8969 L72.42,148 L72.6643,148.0293 L71.7023,151.6373 L71.4537,155.3308 L71.2921,159.0348 L70.6241,162.6781 L70.2224,166.3532 L70.2527,166.3552 L70.4168,169.6555 L70.7186,172.9645 L70.954,176.2694 L71.3162,179.5822 L71.2649,182.869" fill="none" style="stroke:#FF6F00;stroke-width:2;"/><polygon fill="#FF6F00" points="72.03,188.82,72.0971,188.8401,72.4616,186.8931,73.2196,185.0638,73.8494,183.1962,74.0579,181.2026,74.8496,179.3834,74.8291,179.3676,74.0457,180.192,73.3656,181.0962,72.7573,182.056,71.9014,182.8245,71.3924,183.8608,71.5052,184.0069,70.3685,183.0031,69.5611,182.4257,68.7939,181.9004,67.793,181.0724,66.915,180.4036,66.9344,180.4154,67.9289,182.0813,69.0118,183.801,70.0521,185.4948,71.1738,187.2381,72.03,188.82" style="stroke:#FF6F00;stroke-width:2;"/><text fill="#333333" font-family="'Roboto'" font-size="13" lengthAdjust="spacing" textLength="59.2046" x="75.42" y="163.0669">:useCase</text><text fill="#333333" font-family="'Roboto'" font-size="13" lengthAdjust="spacing" textLength="23.0356" x="47.8814" y="150.1782">0..*</text><text fill="#333333" font-family="'Roboto'" font-size="13" lengthAdjust="spacing" textLength="8.271" x="59.3988" y="176.0413">1</text></g><!--link Story to StoryConceptRelationship--><g class="link" data-entity-1="ent0008" data-entity-2="ent0009" data-link-type="dependency" data-source-line="83" id="lnk16"><path d="M312.42,37.3 L312.7002,37.3 L311.8676,48.188 L312.6777,59.076 L312.9529,69.964 L311.4688,80.852 L312.42,91.74" fill="none" style="stroke:#FF6F00;stroke-width:2;"/><polygon fill="#FF6F00" points="312.42,97.74,312.484,97.7685,313.0938,95.8839,314.0789,94.1662,314.9417,92.3941,315.4027,90.4434,316.42,88.74,316.4017,88.7217,315.5195,89.4395,314.7296,90.2496,314.0039,91.1239,313.057,91.777,312.42,92.74,312.5505,92.8705,311.4714,91.7914,310.7734,91.0934,310.1218,90.4418,309.1998,89.5198,308.42,88.74,308.4408,88.7492,309.2103,90.5357,310.0744,92.3642,310.8928,94.1724,311.7984,96.0193,312.42,97.74" style="stroke:#FF6F00;stroke-width:2;"/><text fill="#333333" font-family="'Roboto'" font-size="13" lengthAdjust="spacing" textLength="91.0063" x="315.42" y="72.0669">:storyConcept</text><text fill="#333333" font-family="'Roboto'" font-size="13" lengthAdjust="spacing" textLength="23.0356" x="283.291" y="58.9822">0..*</text><text fill="#333333" font-family="'Roboto'" font-size="13" lengthAdjust="spacing" textLength="8.271" x="300.5519" y="84.9358">1</text></g><!--link StoryConceptRelationship to Concept--><g class="link" data-entity-1="ent0009" data-entity-2="ent0002" data-link-type="dependency" data-source-line="84" id="lnk17"><path d="M304.13,128.26 L304.2101,128.308 L302.8679,130.008 L301.9955,131.9895 L300.9701,133.8793 L299.4416,135.4677 L298.6095,137.4733 L298.5801,137.4552 L297.1785,139.4365 L295.9251,141.5091 L294.7748,143.6452 L293.2692,145.5626 L292.2613,147.7863 L292.4688,147.9185 L290.6567,149.7827 L289.4506,152.0329 L288.3183,154.3303 L286.756,156.3536 L285.4198,158.5211 L285.4451,158.5379 L284.0081,160.609 L282.6859,162.7567 L281.3083,164.8675 L280.0364,167.0488 L278.42,169 L278.6612,169.1755 L276.4907,172.1643 L274.1647,175.04 L272.0665,178.0813 L269.9788,181.1304 L267.5531,183.9335" fill="none" style="stroke:#FF6F00;stroke-width:2;"/><polygon fill="#FF6F00" points="263.87,188.67,263.9031,188.7318,265.5413,187.6184,267.3733,186.867,269.1423,185.9978,270.7036,184.7408,272.5523,184.0206,272.5491,183.9949,271.4121,184.02,270.2912,184.1747,269.1817,184.4194,268.0333,184.3538,266.9392,184.7229,267.1224,184.7458,266.5903,183.5742,266.5929,182.4695,266.6607,181.3729,266.349,180.2289,266.2369,179.1098,266.259,179.1153,265.7532,181.0193,265.3479,182.9482,264.8942,184.8651,264.5329,186.8049,263.87,188.67" style="stroke:#FF6F00;stroke-width:2;"/><text fill="#333333" font-family="'Roboto'" font-size="13" lengthAdjust="spacing" textLength="56.2148" x="295.42" y="163.0669">:concept</text></g><!--SRC=[hLHTQzim57tNhr2TXq4XMR9-F8GnSDoFZMr9STgDKKgHxPj4n9QC91FIRlzzalmbjmvZOtx9pRddddllaUmZdYlA6TuGbkm4LGeOLg80T9J0YZB0i-l7h_wd-MEm-B88iNq6f-EpINJcKfQNmM9-uOS_AbuFvSOFFllNbutGAyeYlBWCtJvui5gThyRZXdArcDzs29PYdeRYX-7YUvTJgo2vfImdWcGu8l5sBNZ1ae2dNEYD2PCw1KmXz0O7FCj9h71AzhnGM89IbAsb8t13aaH3-9s3XQMUO23mkOClDoJXEyDUaLI2a_cupq6ab6tlM683ABtlOPHprgkq13tuLaAEJrsGyGGCUD9P-W9Mf4WLVaPNdAavoG1x8O-uufv5oXQjnnPSqYV0anFqorNoXU0xhLDME9OxEeCJ-vGYQf-2dafa94Mt6nfl6KYfpUkenYdHu3EQlJYSpWr4CowqLrN6kJ9LmbNlNSfNIj2eKD2VDPkzNil21mVNTsLBrb0P-qhp7_Vfj92AAFYZD_zluRzmMS-fU8uLn_egAPxXX0g8pKS5RMW2E8Ci0Y4HAi_N2pYB8LSU9X9NCRw_VnkNOVCxqDFgzklzmqDTUGiYisKcS6kK_jzNC2iaDLCsXIxGgiORHcEIEl8EycBiRpmcKP4IiNSNQD6QVYSX818igOhTYGi9mrXZVLCl5Q_KRUIMIGCShAc62I4bndwveNahqvCqdpfhfSmXfYIbJsKAMV3zp-6mQrWBTnsgP2IgZzERUFXOqxp9Q7JibJscU6gEgUMCHoDD6mu_MBhRo71J4a6ZtjXBeMdIMcxhkMatjktg3bCijrnEALl66yYWhx0ig6UepqctByhGDB-J-jr6vL6yA3Xah56GJWuT91gbTjvfTSw_0G00]--></g></svg>