<svg xmlns="http://www.w3.org/2000/svg" xmlns:xlink="http://www.w3.org/1999/xlink" contentStyleType="text/css" data-diagram-type="STATE" height="294px" preserveAspectRatio="none" style="width:1181px;height:294px;" version="1.1" viewBox="0 0 1181 294" width="1181px" zoomAndPan="magnify"><defs/><g><g><polygon fill="#4051B5" points="58.77,80.73,58.77,80.9402,68.5731,80.3157,78.3763,80.9233,88.1794,81.1297,97.9826,80.0166,107.7857,80.6523,117.5888,80.3035,127.392,80.3465,137.1951,80.6618,146.9983,80.0386,156.8014,81.2836,166.6046,80.0997,176.4077,80.5322,186.2108,81.1619,196.014,80.6442,205.8171,80.7982,215.6203,80.6981,225.4234,80.9085,235.2265,80.73,235.257,80.8036,235.7255,81.0861,236.1607,81.2881,236.586,81.4664,236.9561,81.5114,237.3479,81.6087,237.4906,81.6678,237.7399,82.1225,237.4772,82.3652,238.084,82.968,237.9595,83.2679,238.2265,83.73,238.7604,83.73,237.7315,93.3583,238.158,102.9867,238.9681,112.615,238.1778,122.2434,238.3318,131.8717,238.5652,141.5001,238.2265,151.1284,238.3547,151.1815,238.0496,151.5522,237.9635,152.0136,237.5231,152.3282,237.6112,152.8618,237.3479,153.2498,237.4178,153.4186,236.9803,153.5624,236.5775,153.79,236.0134,153.6282,235.5676,153.7519,235.2265,154.1284,235.2265,153.507,225.4234,154.0696,215.6203,153.9319,205.8171,154.8098,196.014,153.9538,186.2108,153.7854,176.4077,154.3567,166.6046,153.4616,156.8014,153.6093,146.9983,154.7774,137.1951,154.5641,127.392,154.8629,117.5888,153.8066,107.7857,154.4476,97.9826,154.7189,88.1794,153.656,78.3763,154.0326,68.5731,154.2544,58.77,154.1284,58.8531,154.3292,58.3452,153.9514,57.9805,153.9194,57.4266,153.4307,56.9866,153.2169,56.6487,153.2498,56.8038,153.314,56.2522,152.734,56.4539,152.4662,56.1851,152.0033,55.8632,151.5185,55.77,151.1284,55.4162,151.1284,56.2288,141.5001,55.4707,131.8717,56.3619,122.2434,55.2173,112.615,56.3874,102.9867,56.2543,93.3583,55.77,83.73,55.8454,83.7612,55.9603,83.3118,56.3452,82.9742,56.4862,82.5355,56.5251,82.0545,56.6487,81.6087,56.6829,81.6913,57.0563,81.3928,57.5886,81.4778,57.9412,81.1292,58.3677,80.9589,58.77,80.73" style="stroke:#FF6F00;stroke-width:2;"/><path d="M55.77,109.8628 L55.77,110.1431 L65.9065,109.3104 L76.0429,110.1205 L86.1794,110.3957 L96.3159,108.9116 L106.4524,109.7592 L116.5888,109.2942 L126.7253,109.3515 L136.8618,109.7719 L146.9983,108.941 L157.1347,110.601 L167.2712,109.0224 L177.4077,109.5991 L187.5442,110.4387 L197.6806,109.7484 L207.8171,109.9538 L217.9536,109.8202 L228.0901,110.1008 L238.2265,109.8628" fill="#4051B5" style="stroke:#FF6F00;stroke-width:2;"/><text fill="#FFFFFF" font-family="'Roboto'" font-size="13" lengthAdjust="spacing" textLength="61.4707" x="116.2629" y="99.7969">Identified</text><text fill="#FFFFFF" font-family="'Roboto'" font-size="13" lengthAdjust="spacing" textLength="150.6934" x="62.77" y="128.9297">- name and description</text><text fill="#FFFFFF" font-family="'Roboto'" font-size="13" lengthAdjust="spacing" textLength="158.4565" x="62.77" y="144.0625">- added to use case tree</text></g><g><polygon fill="#4051B5" points="271.21,58.03,271.21,58.2402,281.0085,57.6157,290.807,58.2233,300.6055,58.4297,310.404,57.3166,320.2025,57.9523,330.001,57.6035,339.7995,57.6465,349.598,57.9618,359.3965,57.3386,369.195,58.5836,378.9935,57.3997,388.792,58.03,388.7668,57.9691,389.2714,58.3388,389.6296,58.3551,390.0735,58.5782,390.485,58.7231,390.9134,58.9087,390.9683,58.9315,391.1627,59.3634,391.4452,59.8319,391.6472,60.2671,391.8255,60.6924,391.792,61.03,392.0467,61.03,392.2556,71.2843,392.4943,81.5385,391.0708,91.7928,392.4705,102.047,391.4955,112.3013,392.3258,122.5556,391.297,132.8098,391.7235,143.0641,392.5336,153.3184,391.7433,163.5726,391.792,173.8269,391.8245,173.8403,391.7206,174.2943,391.5687,174.7285,391.2636,175.0992,391.1775,175.5606,390.9134,175.9482,390.8403,175.7719,390.5254,176.2115,390.1348,176.4685,389.6973,176.6123,389.2945,176.8399,388.792,176.8269,388.792,176.3438,378.9935,176.1747,369.195,176.2055,359.3965,176.768,349.598,176.6303,339.7995,177.5083,330.001,176.6522,320.2025,176.4838,310.404,177.0551,300.6055,176.16,290.807,176.3077,281.0085,177.4758,271.21,176.8269,271.2656,176.961,270.8794,176.8773,270.3204,176.3763,269.9779,176.398,269.5883,176.3058,269.0887,175.9482,268.9432,175.8879,268.8834,175.5117,268.776,175.1157,268.7622,174.7585,268.3844,174.2506,268.21,173.8269,268.6726,173.8269,267.6562,163.5726,267.5327,153.3184,268.7136,143.0641,267.4931,132.8098,268.719,122.5556,268.4166,112.3013,267.9421,102.047,267.8562,91.7928,268.6688,81.5385,267.9107,71.2843,268.21,61.03,268.3923,61.1055,268.2155,60.5352,268.7516,60.2602,268.8864,59.819,268.9884,59.3642,269.0887,58.9087,269.0947,58.9232,269.6056,58.9567,270.0155,58.7462,270.3831,58.4336,270.8199,58.2883,271.21,58.03" style="stroke:#FF6F00;stroke-width:2;"/><path d="M268.21,87.1628 L268.21,87.4431 L278.5085,86.6104 L288.807,87.4205 L299.1055,87.6957 L309.404,86.2116 L319.7025,87.0592 L330.001,86.5942 L340.2995,86.6515 L350.598,87.0719 L360.8965,86.241 L371.195,87.901 L381.4935,86.3224 L391.792,87.1628" fill="#4051B5" style="stroke:#FF6F00;stroke-width:2;"/><text fill="#FFFFFF" font-family="'Roboto'" font-size="13" lengthAdjust="spacing" textLength="50.686" x="304.658" y="77.0969">Defined</text><text fill="#FFFFFF" font-family="'Roboto'" font-size="13" lengthAdjust="spacing" textLength="72.6489" x="275.21" y="106.2297">- outcomes</text><text fill="#FFFFFF" font-family="'Roboto'" font-size="13" lengthAdjust="spacing" textLength="68.123" x="275.21" y="121.3625">- personas</text><text fill="#FFFFFF" font-family="'Roboto'" font-size="13" lengthAdjust="spacing" textLength="67.4312" x="275.21" y="136.4953">- concepts</text><text fill="#FFFFFF" font-family="'Roboto'" font-size="13" lengthAdjust="spacing" textLength="52.3745" x="275.21" y="151.6281">- stories</text><text fill="#FFFFFF" font-family="'Roboto'" font-size="13" lengthAdjust="spacing" textLength="99.582" x="275.21" y="166.761">- dependencies</text></g><g><polygon fill="#4051B5" points="425.01,88.3,425.01,88.5102,435.4079,87.8857,445.8058,88.4933,456.2037,88.6997,466.6016,87.5866,476.9995,88.2223,487.3974,87.8735,497.7953,87.9165,508.1932,88.2318,518.5911,87.6086,528.989,88.3,529.0596,88.4705,529.3329,88.2816,529.8123,88.5906,530.3169,88.9602,530.6751,88.9765,531.1103,89.1787,531.1313,89.1874,531.2762,89.5989,531.5168,90.05,531.7112,90.482,531.9936,90.9504,531.989,91.3,532.6601,91.3,532.6683,101.7531,532.2436,112.2062,532.4526,122.6594,532.6912,133.1125,531.989,143.5656,531.7669,143.4736,532.0222,144.0764,531.5462,144.3763,531.6262,144.9065,531.1336,145.1995,531.1103,145.6869,531.1016,145.6659,530.7807,146.0911,530.2556,146.0234,529.851,146.2466,529.4565,146.4942,528.989,146.5656,528.989,146.9819,518.5911,146.5617,508.1932,146.8528,497.7953,145.9932,487.3974,146.85,476.9995,147.1138,466.6016,147.0102,456.2037,147.1786,445.8058,146.0825,435.4079,145.9134,425.01,146.5656,424.9307,146.3743,424.5782,146.3718,424.1364,146.1536,423.8241,146.2483,423.2907,145.8089,422.8887,145.6869,422.783,145.6432,422.7832,145.2918,422.3318,144.7534,422.2016,144.3479,422.3856,144.0727,422.01,143.5656,422.4457,143.5656,422.7445,133.1125,421.6882,122.6594,422.3292,112.2062,422.6004,101.7531,422.01,91.3,421.8645,91.2397,422.1562,90.8635,422.4003,90.4675,422.7379,90.1103,422.7117,89.6024,422.8887,89.1787,422.9477,89.3211,423.2423,88.8324,423.6508,88.6186,424.2257,88.8066,424.4943,88.2549,425.01,88.3" style="stroke:#FF6F00;stroke-width:2;"/><path d="M422.01,117.4328 L422.01,117.7131 L432.0081,116.8804 L442.0062,117.6905 L452.0043,117.9657 L462.0024,116.4816 L472.0005,117.3292 L481.9985,116.8642 L491.9966,116.9215 L501.9947,117.3419 L511.9928,116.511 L521.9909,118.171 L531.989,117.4328" fill="#4051B5" style="stroke:#FF6F00;stroke-width:2;"/><text fill="#FFFFFF" font-family="'Roboto'" font-size="13" lengthAdjust="spacing" textLength="60.3662" x="446.8164" y="107.3669">Proposed</text><text fill="#FFFFFF" font-family="'Roboto'" font-size="13" lengthAdjust="spacing" textLength="85.979" x="429.01" y="136.4997">- chart phase</text></g><g><polygon fill="#4051B5" points="565.23,88.3,565.23,88.5102,574.8252,87.8857,584.4203,88.4933,594.0155,88.6997,603.6107,87.5866,613.2059,88.2223,622.801,87.8735,632.3962,87.9165,641.9914,88.2318,651.5865,87.6086,661.1817,88.8536,670.7769,88.3,670.6965,88.1059,671.1759,88.4148,671.6805,88.7845,672.0387,88.8008,672.4826,89.024,672.8982,89.1787,672.8884,89.1746,673.1289,89.6257,673.3233,90.0577,673.6058,90.5262,673.8078,90.9613,673.7769,91.3,674.4561,91.3,674.0315,101.7531,674.2405,112.2062,674.4791,122.6594,673.0557,133.1125,673.7769,143.5656,673.9858,143.6522,673.5098,143.9521,673.5898,144.4822,673.0972,144.7753,673.0528,145.2539,672.8982,145.6869,672.9928,145.9153,672.4677,145.8477,672.0631,146.0708,671.6686,146.3184,671.2542,146.5181,670.7769,146.5656,670.7769,146.5617,661.1817,146.8528,651.5865,145.9932,641.9914,146.85,632.3962,147.1138,622.801,147.0102,613.2059,147.1786,603.6107,146.0825,594.0155,145.9134,584.4203,145.9442,574.8252,146.5067,565.23,146.5656,565.2049,146.5051,564.8927,146.5997,564.3592,146.1604,563.9134,145.9328,563.5621,145.933,563.1087,145.6869,562.9033,145.6019,562.7731,145.1965,562.9571,144.9212,562.7156,144.4697,562.6319,144.0836,562.23,143.5656,561.9082,143.5656,562.5492,133.1125,562.8204,122.6594,561.7576,112.2062,562.1341,101.7531,562.23,91.3,562.2688,91.3161,562.6065,90.9589,562.5802,90.4509,562.8997,90.0862,562.7624,89.5323,563.1087,89.1787,563.0223,88.9701,563.5972,89.158,563.8658,88.6064,564.4464,88.8082,564.8321,88.5394,565.23,88.3" style="stroke:#FF6F00;stroke-width:2;"/><path d="M562.23,117.4328 L562.23,117.7131 L572.3706,116.8804 L582.5113,117.6905 L592.6519,117.9657 L602.7925,116.4816 L612.9331,117.3292 L623.0738,116.8642 L633.2144,116.9215 L643.355,117.3419 L653.4956,116.511 L663.6363,118.171 L673.7769,117.4328" fill="#4051B5" style="stroke:#FF6F00;stroke-width:2;"/><text fill="#FFFFFF" font-family="'Roboto'" font-size="13" lengthAdjust="spacing" textLength="52.146" x="591.9304" y="107.3669">Planned</text><text fill="#FFFFFF" font-family="'Roboto'" font-size="13" lengthAdjust="spacing" textLength="87.5469" x="569.23" y="136.4997">- on roadmap</text></g><g><polygon fill="#4051B5" points="706.92,88.3,706.92,88.5102,717.1351,87.8857,727.3502,88.4933,737.5653,88.6997,747.7804,87.5866,757.9954,88.2223,768.2105,87.8735,778.4256,87.9165,788.6407,88.2318,798.8558,87.6086,809.0709,88.3,809.1415,88.4705,809.4147,88.2816,809.8942,88.5906,810.3988,88.9602,810.757,88.9765,811.1922,89.1787,811.2132,89.1874,811.3581,89.5989,811.5986,90.05,811.7931,90.482,812.0755,90.9504,812.0709,91.3,812.7419,91.3,812.7501,101.7531,812.3255,112.2062,812.5345,122.6594,812.7731,133.1125,812.0709,143.5656,811.8488,143.4736,812.1041,144.0764,811.6281,144.3763,811.7081,144.9065,811.2155,145.1995,811.1922,145.6869,811.1835,145.6659,810.8625,146.0911,810.3375,146.0234,809.9328,146.2466,809.5383,146.4942,809.0709,146.5656,809.0709,146.9819,798.8558,146.5617,788.6407,146.8528,778.4256,145.9932,768.2105,146.85,757.9954,147.1138,747.7804,147.0102,737.5653,147.1786,727.3502,146.0825,717.1351,145.9134,706.92,146.5656,706.8407,146.3743,706.4882,146.3718,706.0464,146.1536,705.7341,146.2483,705.2007,145.8089,704.7987,145.6869,704.693,145.6432,704.6932,145.2918,704.2418,144.7534,704.1116,144.3479,704.2956,144.0727,703.92,143.5656,704.3557,143.5656,704.6545,133.1125,703.5982,122.6594,704.2392,112.2062,704.5104,101.7531,703.92,91.3,703.7745,91.2397,704.0662,90.8635,704.3103,90.4675,704.6479,90.1103,704.6217,89.6024,704.7987,89.1787,704.8577,89.3211,705.1523,88.8324,705.5608,88.6186,706.1357,88.8066,706.4043,88.2549,706.92,88.3" style="stroke:#FF6F00;stroke-width:2;"/><path d="M703.92,117.4328 L703.92,117.7131 L713.7519,116.8804 L723.5838,117.6905 L733.4157,117.9657 L743.2476,116.4816 L753.0795,117.3292 L762.9114,116.8642 L772.7433,116.9215 L782.5752,117.3419 L792.4071,116.511 L802.239,118.171 L812.0709,117.4328" fill="#4051B5" style="stroke:#FF6F00;stroke-width:2;"/><text fill="#FFFFFF" font-family="'Roboto'" font-size="13" lengthAdjust="spacing" textLength="68.3516" x="723.8197" y="107.3669">InProgress</text><text fill="#FFFFFF" font-family="'Roboto'" font-size="13" lengthAdjust="spacing" textLength="84.1509" x="710.92" y="136.4997">- build phase</text></g><polygon fill="#222222" points="26.0552,119.8624,24.5894,121.8653,22.8556,124.7988,20.376,126.7758,17.7703,127.8569,15.6927,127.9507,13.0224,126.5987,10.5029,125.7154,8.5905,123.922,7.5873,121.8689,6.9924,120.2341,6.4096,118.0988,5.4636,116.2613,6.1906,114.4673,6.8275,112.502,9.2175,110.9477,10.8991,108.931,12.9804,108.2613,15.4547,107.6846,18.6276,108.0272,20.3655,108.8468,22.3861,109.2184,24.8429,111.7354,25.6993,114.3927,26.0714,116.2058,25.65,119.1935" style="stroke:#222222;stroke-width:1;"/><polygon fill="none" points="811.0608,280.5056,809.4484,282.7088,807.5412,285.9357,804.8136,288.1104,801.9474,289.2996,799.662,289.4028,796.7247,287.9155,793.9532,286.9439,791.8495,284.9712,790.7461,282.7128,790.0917,280.9145,789.4506,278.5657,788.41,276.5445,789.2096,274.571,789.9102,272.4092,792.5393,270.6995,794.389,268.4811,796.6784,267.7444,799.4001,267.1101,802.8904,267.487,804.8021,268.3885,807.0247,268.7972,809.7272,271.566,810.6693,274.489,811.0786,276.4834,810.615,279.7699" style="stroke:#222222;stroke-width:1;"/><polygon fill="#222222" points="806.0331,279.2894,805.1536,280.4912,804.1134,282.2513,802.6256,283.4375,801.0622,284.0862,799.8156,284.1424,798.2135,283.3312,796.7017,282.8012,795.5543,281.7252,794.9524,280.4933,794.5955,279.5125,794.2458,278.2313,793.6782,277.1288,794.1143,276.0524,794.4965,274.8732,795.9305,273.9406,796.9394,272.7306,798.1882,272.3288,799.6728,271.9828,801.5766,272.1883,802.6193,272.6801,803.8317,272.903,805.3057,274.4133,805.8196,276.0076,806.0429,277.0955,805.79,278.8881" style="stroke:#222222;stroke-width:1;"/><g><polygon fill="#4051B5" points="844.74,92.43,844.74,92.6402,854.8048,92.0157,864.8695,92.6233,874.9343,92.8297,884.999,91.7166,895.0638,92.3523,905.1285,92.0035,915.1933,92.0465,925.2581,92.43,925.2494,92.409,925.5941,92.3928,926.1772,92.952,926.4505,92.7631,926.9299,93.072,927.3794,93.3087,927.5124,93.3638,927.5287,93.722,927.7519,94.1659,927.8968,94.5774,928.1373,95.0285,928.2581,95.43,928.3378,95.43,928.4533,104.23,928.4818,113.03,928.4845,121.83,928.3429,130.63,928.2581,139.43,928.4008,139.4891,928.2986,139.9438,927.6845,140.1865,927.9398,140.7893,927.4638,141.0892,927.3794,141.5513,927.4475,141.7157,926.892,141.5746,926.5221,141.8817,926.2012,142.3069,925.6761,142.2393,925.2581,142.43,925.2581,142.5353,915.1933,142.7686,905.1285,142.8462,895.0638,142.4261,884.999,142.7172,874.9343,141.8576,864.8695,142.7144,854.8048,142.9782,844.74,142.43,844.7967,142.5669,844.3939,142.4431,843.8298,141.9298,843.384,141.7019,842.9637,141.5357,842.6187,141.5513,842.6005,141.5438,842.3824,141.102,842.4771,140.7897,842.0377,140.2562,841.8101,139.8105,841.74,139.43,841.8161,139.43,841.5177,130.63,841.567,121.83,841.9563,113.03,841.8852,104.23,841.74,95.43,841.9662,95.5237,841.8166,94.9647,842.1898,94.6222,842.449,94.2325,842.2975,93.6727,842.6187,93.3087,842.6065,93.2792,843.059,93.1717,843.5503,93.1579,843.8909,92.7802,844.3747,92.7482,844.74,92.43" style="stroke:#FF6F00;stroke-width:2;"/><path d="M841.74,121.5628 L841.74,121.8431 L851.3531,121.0104 L860.9662,121.8205 L870.5794,122.0957 L880.1925,120.6116 L889.8056,121.4592 L899.4187,120.9942 L909.0318,121.0515 L918.6449,121.4719 L928.2581,121.5628" fill="#4051B5" style="stroke:#FF6F00;stroke-width:2;"/><text fill="#FFFFFF" font-family="'Roboto'" font-size="13" lengthAdjust="spacing" textLength="62.5181" x="853.74" y="111.4969">Delivered</text></g><g><polygon fill="#4051B5" points="961.12,92.43,961.12,92.6402,971.0911,92.0157,981.0623,92.6233,991.0334,92.8297,1001.0045,91.7166,1010.9757,92.3523,1020.9468,92.0035,1030.9179,92.0465,1040.889,92.43,1040.8803,92.409,1041.2251,92.3928,1041.8082,92.952,1042.0814,92.7631,1042.5609,93.072,1043.0104,93.3087,1043.1434,93.3638,1043.1597,93.722,1043.3828,94.1659,1043.5277,94.5774,1043.7683,95.0285,1043.889,95.43,1043.9688,95.43,1044.0843,104.23,1044.1127,113.03,1044.1155,121.83,1043.9739,130.63,1043.889,139.43,1044.0318,139.4891,1043.9296,139.9438,1043.3155,140.1865,1043.5708,140.7893,1043.0948,141.0892,1043.0104,141.5513,1043.0785,141.7157,1042.523,141.5746,1042.1531,141.8817,1041.8322,142.3069,1041.3071,142.2393,1040.889,142.43,1040.889,142.5353,1030.9179,142.7686,1020.9468,142.8462,1010.9757,142.4261,1001.0045,142.7172,991.0334,141.8576,981.0623,142.7144,971.0911,142.9782,961.12,142.43,961.1767,142.5669,960.7739,142.4431,960.2098,141.9298,959.764,141.7019,959.3437,141.5357,958.9987,141.5513,958.9805,141.5438,958.7624,141.102,958.8571,140.7897,958.4177,140.2562,958.1901,139.8105,958.12,139.43,958.1961,139.43,957.8977,130.63,957.947,121.83,958.3363,113.03,958.2652,104.23,958.12,95.43,958.3462,95.5237,958.1966,94.9647,958.5698,94.6222,958.829,94.2325,958.6775,93.6727,958.9987,93.3087,958.9865,93.2792,959.439,93.1717,959.9303,93.1579,960.2709,92.7802,960.7547,92.7482,961.12,92.43" style="stroke:#FF6F00;stroke-width:2;"/><path d="M958.12,121.5628 L958.12,121.8431 L967.6499,121.0104 L977.1798,121.8205 L986.7097,122.0957 L996.2396,120.6116 L1005.7695,121.4592 L1015.2994,120.9942 L1024.8293,121.0515 L1034.3591,121.4719 L1043.889,121.5628" fill="#4051B5" style="stroke:#FF6F00;stroke-width:2;"/><text fill="#FFFFFF" font-family="'Roboto'" font-size="13" lengthAdjust="spacing" textLength="61.769" x="970.12" y="111.4969">Deployed</text></g><g><polygon fill="#4051B5" points="1076.97,92.43,1076.97,92.6402,1087.4216,92.0157,1097.8731,92.6233,1108.3247,92.8297,1118.7762,91.7166,1129.2278,92.3523,1139.6793,92.0035,1150.1309,92.0465,1160.5824,92.3618,1171.034,92.43,1170.9458,92.2171,1171.5289,92.7762,1171.8021,92.5874,1172.2815,92.8963,1172.7861,93.266,1173.1553,93.3087,1173.1289,93.2977,1173.352,93.7416,1173.4969,94.1531,1173.7375,94.6042,1173.9319,95.0362,1174.034,95.43,1174.2292,95.43,1174.2576,104.23,1174.2604,113.03,1174.1188,121.83,1174.1885,130.63,1174.034,139.43,1174.2502,139.5196,1173.6361,139.7623,1173.8914,140.3651,1173.4154,140.665,1173.4954,141.1951,1173.1553,141.5513,1173.0921,141.3989,1172.7223,141.706,1172.4014,142.1312,1171.8763,142.0635,1171.4717,142.2867,1171.034,142.43,1171.034,142.7686,1160.5824,142.8462,1150.1309,142.4261,1139.6793,142.7172,1129.2278,141.8576,1118.7762,142.7144,1108.3247,142.9782,1097.8731,142.8745,1087.4216,143.043,1076.97,142.43,1076.9084,142.2812,1076.4625,142.0534,1076.0422,141.8872,1075.6897,141.8847,1075.2479,141.6665,1074.8487,141.5513,1075.0585,141.6382,1074.6192,141.1048,1074.3916,140.659,1074.3918,140.3076,1073.9404,139.7692,1073.97,139.43,1073.797,139.43,1074.1863,130.63,1074.1152,121.83,1074.2148,113.03,1073.8627,104.23,1073.97,95.43,1074.0683,95.4707,1074.3276,95.0811,1074.176,94.5212,1074.4677,94.145,1074.7117,93.749,1074.8487,93.3087,1074.9318,93.5094,1075.2724,93.1317,1075.7562,93.0997,1076.0508,92.6109,1076.4593,92.3972,1076.97,92.43" style="stroke:#FF6F00;stroke-width:2;"/><path d="M1073.97,121.5628 L1073.97,121.8431 L1083.9764,121.0104 L1093.9828,121.8205 L1103.9892,122.0957 L1113.9956,120.6116 L1124.002,121.4592 L1134.0084,120.9942 L1144.0148,121.0515 L1154.0212,121.4719 L1164.0276,120.641 L1174.034,121.5628" fill="#4051B5" style="stroke:#FF6F00;stroke-width:2;"/><text fill="#FFFFFF" font-family="'Roboto'" font-size="13" lengthAdjust="spacing" textLength="76.064" x="1085.97" y="111.4969">Deprecated</text></g><g><polygon fill="#4051B5" points="931.18,196.83,931.18,197.0402,941.153,196.4157,951.126,197.0233,961.099,197.2297,971.072,196.1166,981.045,196.7523,991.018,196.4035,1000.991,196.4465,1010.964,196.7618,1020.9369,196.1386,1030.9099,197.3836,1040.8829,196.1997,1050.8559,196.6322,1060.8289,196.83,1060.884,196.963,1061.2422,196.9793,1061.6862,197.2025,1062.0976,197.3474,1062.5488,197.5879,1062.9502,197.7087,1063.0239,197.7392,1063.3064,198.2077,1063.5084,198.6428,1063.6866,199.0681,1063.7316,199.4382,1063.8289,199.83,1063.9835,199.83,1064.063,208.63,1063.5885,217.43,1064.0551,226.23,1063.7301,235.03,1063.8289,243.83,1063.9933,243.8981,1063.5007,244.1911,1063.4564,244.6698,1063.5301,245.1974,1063.111,245.5208,1062.9502,245.9513,1062.9637,245.9837,1062.5692,246.2313,1062.1548,246.431,1061.677,246.4773,1061.2898,246.7427,1060.8289,246.83,1060.8289,246.2576,1050.8559,247.1144,1040.8829,247.3782,1030.9099,247.2745,1020.9369,247.443,1010.964,246.3469,1000.991,246.1778,991.018,246.2086,981.045,246.7711,971.072,246.6335,961.099,247.5114,951.126,246.6553,941.153,246.4869,931.18,246.83,931.2091,246.9003,930.6707,246.4489,930.2653,246.3187,929.99,246.5026,929.5385,246.2612,929.0587,245.9513,929.2849,246.045,928.7838,245.486,928.8055,245.1435,928.7133,244.7538,928.2103,244.194,928.18,243.83,928.148,243.83,928.222,235.03,928.3973,226.23,928.1786,217.43,928.3342,208.63,928.18,199.83,928.0095,199.7594,928.1472,199.3193,928.6866,199.0457,928.4864,198.4658,929.0397,198.1979,929.0587,197.7087,929.085,197.7723,929.4488,197.4504,929.8621,197.2483,930.39,197.3228,930.7176,196.9136,931.18,196.83" style="stroke:#FF6F00;stroke-width:2;"/><path d="M928.18,225.9628 L928.18,226.2431 L937.8692,225.4104 L947.5584,226.2205 L957.2476,226.4957 L966.9368,225.0116 L976.626,225.8592 L986.3153,225.3942 L996.0045,225.4515 L1005.6937,225.8719 L1015.3829,225.041 L1025.0721,226.701 L1034.7613,225.1224 L1044.4505,225.6991 L1054.1397,226.5387 L1063.8289,225.9628" fill="#4051B5" style="stroke:#FF6F00;stroke-width:2;"/><text fill="#FFFFFF" font-family="'Roboto'" font-size="13" lengthAdjust="spacing" textLength="111.6489" x="940.18" y="215.8969">Decommissioned</text></g><!--link *start* to Identified--><g class="link" data-entity-1="ent0002" data-entity-2="ent0002" data-link-type="dependency" data-source-line="62" id="lnk3"><path d="M26.49,117.43 L26.49,117.5234 L31.128,117.2459 L35.766,117.5159 L40.404,117.6076 L45.042,117.1129 L49.68,117.43" fill="none" style="stroke:#FF6F00;stroke-width:2;"/><polygon fill="#FF6F00" points="55.68,117.43,55.7085,117.494,53.8239,116.5038,52.1062,115.8889,50.3341,115.1517,48.3834,114.0127,46.68,113.43,46.6617,113.4117,47.3795,114.1295,48.1896,114.9396,49.0639,115.8139,49.717,116.467,50.68,117.43,50.8105,117.5605,49.7314,118.0814,49.0334,118.9834,48.3818,119.9318,47.4598,120.6098,46.68,121.43,46.6892,121.4508,48.4757,120.6203,50.3042,119.8844,52.1124,119.1028,53.9593,118.4084,55.68,117.43" style="stroke:#FF6F00;stroke-width:2;"/></g><!--link Identified to Defined--><g class="link" data-entity-1="ent0002" data-entity-2="ent0003" data-link-type="dependency" data-source-line="64" id="lnk4"><path d="M238.5,117.43 L238.5,117.5234 L243.162,117.2459 L247.824,117.5159 L252.486,117.6076 L257.148,117.1129 L261.81,117.43" fill="none" style="stroke:#FF6F00;stroke-width:2;"/><polygon fill="#FF6F00" points="267.81,117.43,267.8385,117.494,265.9539,116.5038,264.2362,115.8889,262.4641,115.1517,260.5134,114.0127,258.81,113.43,258.7917,113.4117,259.5095,114.1295,260.3196,114.9396,261.1939,115.8139,261.847,116.467,262.81,117.43,262.9405,117.5605,261.8614,118.0814,261.1634,118.9834,260.5118,119.9318,259.5898,120.6098,258.81,121.43,258.8192,121.4508,260.6057,120.6203,262.4342,119.8844,264.2424,119.1028,266.0893,118.4084,267.81,117.43" style="stroke:#FF6F00;stroke-width:2;"/></g><!--link Defined to Proposed--><g class="link" data-entity-1="ent0003" data-entity-2="ent0004" data-link-type="dependency" data-source-line="66" id="lnk5"><path d="M392.02,117.43 L392.02,117.5234 L396.728,117.2459 L401.436,117.5159 L406.144,117.6076 L410.852,117.1129 L415.56,117.43" fill="none" style="stroke:#FF6F00;stroke-width:2;"/><polygon fill="#FF6F00" points="421.56,117.43,421.5885,117.494,419.7039,116.5038,417.9862,115.8889,416.2141,115.1517,414.2634,114.0127,412.56,113.43,412.5417,113.4117,413.2595,114.1295,414.0696,114.9396,414.9439,115.8139,415.597,116.467,416.56,117.43,416.6905,117.5605,415.6114,118.0814,414.9134,118.9834,414.2618,119.9318,413.3398,120.6098,412.56,121.43,412.5692,121.4508,414.3557,120.6203,416.1842,119.8844,417.9924,119.1028,419.8393,118.4084,421.56,117.43" style="stroke:#FF6F00;stroke-width:2;"/></g><!--link Proposed to *end*--><g class="link" data-entity-1="ent0004" data-entity-2="ent0006" data-link-type="dependency" data-source-line="68" id="lnk7"><path d="M506.76,146.86 L506.8203,146.9313 L508.503,148.293 L510.5393,150.0728 L512.4604,151.7165 L514.003,152.9122 L516.0695,154.728 L516.0482,154.7008 L517.9441,156.1487 L519.9477,157.7334 L522.0263,159.4131 L523.8467,160.7653 L526.0288,162.5763 L526.1726,162.7759 L527.942,163.8455 L530.1313,165.498 L532.3719,167.2216 L534.3143,168.5314 L536.4136,170.0589 L536.4299,170.0845 L538.5232,171.4012 L540.6909,172.8342 L542.8227,174.2111 L545.023,175.6951 L547,176.83 L547.1479,177.089 L550.4798,178.9937 L553.7162,180.7313 L557.0923,182.7135 L560.475,184.7071 L563.6503,186.3376 L563.5001,186.0545 L567.2133,188.4188 L570.432,189.8507 L574.0266,191.9915 L577.2341,193.4023 L580.7589,195.4114 L580.7453,195.3841 L584.3883,197.433 L587.7154,198.8447 L591.2289,200.6324 L594.758,202.4516 L598.1742,204.0431 L598.2523,204.2108 L601.6876,205.6779 L605.2564,207.4315 L608.6092,208.7215 L612.2841,210.703 L615.7449,212.2247 L615.8429,212.4478 L619.3392,213.9503 L622.8842,215.5635 L626.2031,216.6622 L629.6877,218.1381 L633.3192,219.9482 L633.2131,219.6932 L636.7945,221.3754 L640.2563,222.7704 L643.8916,224.582 L647.2306,225.6821 L650.7458,227.2052 L650.6897,227.0635 L654.2086,228.6561 L657.4876,229.6427 L660.9372,231.0603 L664.5538,232.8995 L667.8731,233.9879 L667.9415,234.169 L671.3237,235.5533 L674.4931,236.3741 L677.9291,237.9006 L681.307,239.2734 L684.5496,240.2879 L684.4782,240.0905 L687.7499,241.4098 L690.9982,242.6644 L694.2925,244.046 L697.4082,244.9337 L700.6237,246.0974 L700.691,246.2916 L703.6071,246.9269 L706.6532,247.9372 L709.8891,249.4952 L712.7755,250.0448 L715.9439,251.408 L716.0154,251.6226 L718.8559,252.4559 L721.6722,253.2165 L724.5431,254.1411 L727.5403,255.4444 L730.3588,256.2118 L730.3181,256.0851 L733.1108,257.32 L735.6269,257.6934 L738.4574,259.0463 L741.1109,259.8477 L743.7167,260.5005 L743.7485,260.6047 L748.3107,261.9206 L752.9866,263.6094 L757.5598,264.9614 L762.09,266.1725 L766.6559,267.5006 L766.6887,267.6152 L770.0186,268.4135 L773.5009,269.7438 L776.8108,270.4724 L780.1916,271.4486 L783.5491,272.3434" fill="none" style="stroke:#FF6F00;stroke-width:2;"/><polygon fill="#FF6F00" points="789.33,273.95,789.3746,274.0041,787.7221,272.5907,786.3309,271.4942,784.8546,270.2945,783.0985,268.7554,781.7297,267.6862,781.7072,267.6734,782.1625,268.6012,782.7316,269.5933,783.3797,270.63,783.7554,271.5128,784.5126,272.6112,784.6034,272.7718,783.4242,272.9848,782.5102,273.6669,781.6284,274.4062,780.5585,274.8126,779.5876,275.394,779.5909,275.4165,781.5345,275.0947,783.4933,274.8753,785.4447,274.6065,787.4101,274.4319,789.33,273.95" style="stroke:#FF6F00;stroke-width:2;"/><text fill="#333333" font-family="'Roboto'" font-size="13" lengthAdjust="spacing" textLength="57.1353" x="704" y="226.3969">Rejected</text></g><!--link Proposed to Planned--><g class="link" data-entity-1="ent0004" data-entity-2="ent0005" data-link-type="dependency" data-source-line="70" id="lnk8"><path d="M532.35,117.43 L532.35,117.5234 L537.038,117.2459 L541.726,117.5159 L546.414,117.6076 L551.102,117.1129 L555.79,117.43" fill="none" style="stroke:#FF6F00;stroke-width:2;"/><polygon fill="#FF6F00" points="561.79,117.43,561.8185,117.494,559.9339,116.5038,558.2162,115.8889,556.4441,115.1517,554.4934,114.0127,552.79,113.43,552.7717,113.4117,553.4895,114.1295,554.2996,114.9396,555.1739,115.8139,555.827,116.467,556.79,117.43,556.9205,117.5605,555.8414,118.0814,555.1434,118.9834,554.4918,119.9318,553.5698,120.6098,552.79,121.43,552.7992,121.4508,554.5857,120.6203,556.4142,119.8844,558.2224,119.1028,560.0693,118.4084,561.79,117.43" style="stroke:#FF6F00;stroke-width:2;"/></g><!--link Planned to InProgress--><g class="link" data-entity-1="ent0005" data-entity-2="ent0006" data-link-type="dependency" data-source-line="72" id="lnk9"><path d="M674.05,117.43 L674.05,117.5234 L678.754,117.2459 L683.458,117.5159 L688.162,117.6076 L692.866,117.1129 L697.57,117.43" fill="none" style="stroke:#FF6F00;stroke-width:2;"/><polygon fill="#FF6F00" points="703.57,117.43,703.5985,117.494,701.7139,116.5038,699.9962,115.8889,698.2241,115.1517,696.2734,114.0127,694.57,113.43,694.5517,113.4117,695.2695,114.1295,696.0796,114.9396,696.9539,115.8139,697.607,116.467,698.57,117.43,698.7005,117.5605,697.6214,118.0814,696.9234,118.9834,696.2718,119.9318,695.3498,120.6098,694.57,121.43,694.5792,121.4508,696.3657,120.6203,698.1942,119.8844,700.0024,119.1028,701.8493,118.4084,703.57,117.43" style="stroke:#FF6F00;stroke-width:2;"/></g><!--link InProgress to Delivered--><g class="link" data-entity-1="ent0006" data-entity-2="ent0010" data-link-type="dependency" data-source-line="74" id="lnk11"><path d="M812.57,117.43 L812.57,117.5234 L817.142,117.2459 L821.714,117.5159 L826.286,117.6076 L830.858,117.1129 L835.43,117.43" fill="none" style="stroke:#FF6F00;stroke-width:2;"/><polygon fill="#FF6F00" points="841.43,117.43,841.4585,117.494,839.5739,116.5038,837.8562,115.8889,836.0841,115.1517,834.1334,114.0127,832.43,113.43,832.4117,113.4117,833.1295,114.1295,833.9396,114.9396,834.8139,115.8139,835.467,116.467,836.43,117.43,836.5605,117.5605,835.4814,118.0814,834.7834,118.9834,834.1318,119.9318,833.2098,120.6098,832.43,121.43,832.4392,121.4508,834.2257,120.6203,836.0542,119.8844,837.8624,119.1028,839.7093,118.4084,841.43,117.43" style="stroke:#FF6F00;stroke-width:2;"/></g><!--link Delivered to Deployed--><g class="link" data-entity-1="ent0010" data-entity-2="ent0012" data-link-type="dependency" data-source-line="76" id="lnk13"><path d="M928.5,117.43 L928.5,117.5234 L933.134,117.2459 L937.768,117.5159 L942.402,117.6076 L947.036,117.1129 L951.67,117.43" fill="none" style="stroke:#FF6F00;stroke-width:2;"/><polygon fill="#FF6F00" points="957.67,117.43,957.6985,117.494,955.8139,116.5038,954.0962,115.8889,952.3241,115.1517,950.3734,114.0127,948.67,113.43,948.6517,113.4117,949.3695,114.1295,950.1796,114.9396,951.0539,115.8139,951.707,116.467,952.67,117.43,952.8005,117.5605,951.7214,118.0814,951.0234,118.9834,950.3718,119.9318,949.4498,120.6098,948.67,121.43,948.6792,121.4508,950.4657,120.6203,952.2942,119.8844,954.1024,119.1028,955.9493,118.4084,957.67,117.43" style="stroke:#FF6F00;stroke-width:2;"/></g><!--link Deployed to Defined--><g class="link" data-entity-1="ent0012" data-entity-2="ent0003" data-link-type="dependency" data-source-line="78" id="lnk14"><path d="M982.94,92.01 L983.01,92.0718 L981.134,89.9996 L979.6683,88.2899 L978.069,86.4622 L976.0302,84.2462 L974.5998,82.5677 L974.5758,82.5429 L972.558,80.575 L970.6616,78.7319 L968.8496,76.9756 L966.7468,74.9202 L965.0513,73.2837 L965.2043,73.4764 L962.7591,71.3813 L960.7609,69.8486 L958.8172,68.3846 L956.5562,66.5213 L954.462,64.868 L954.4776,64.894 L952.1624,63.4882 L949.9179,62.2009 L947.6393,60.8565 L945.4258,59.6211 L943,58.03 L943.125,58.3008 L939.8487,56.7911 L936.4917,55.1067 L933.2528,53.678 L930.0194,52.2612 L926.6108,50.4648 L926.4918,50.1672 L923.6737,49.5254 L920.4637,47.9036 L917.5516,47.0269 L914.3328,45.3829 L911.3654,44.3678 L911.3557,44.3389 L908.6135,43.7256 L905.6457,42.4377 L902.811,41.5478 L899.9875,40.6914 L897.0834,39.5939 L897.131,39.7726 L894.3831,38.8731 L891.7166,38.279 L888.9185,37.1907 L886.3167,36.8395 L883.5844,35.9983 L883.6319,36.2373 L881.0436,35.6796 L878.4789,35.2406 L875.8047,34.2504 L873.2107,33.6642 L870.6879,33.4361 L870.6512,33.1624 L868.1896,33.0755 L865.6866,32.6801 L863.2437,32.7321 L860.6982,32.0203 L858.2137,31.7625 L858.2021,31.6105 L855.7749,31.6776 L853.2982,31.095 L850.8567,30.9744 L848.4495,31.3061 L845.9812,30.8325 L845.9864,31.026 L843.5558,31.0926 L841.1088,30.557 L838.6823,30.7756 L836.2514,30.8298 L833.81,30.5012 L833.8079,30.2913 L831.3515,30.4832 L828.8945,30.6063 L826.4388,30.8645 L823.9778,30.5975 L821.5198,30.6239 L821.5268,30.8293 L818.9934,30.4642 L816.4736,30.4957 L813.9736,31.1065 L811.4371,30.6507 L808.9301,31.0555 L808.9403,31.2815 L803.5743,31.3894 L798.2049,31.4208 L792.8433,31.6248 L787.4997,32.2277 L782.1306,32.2661 L782.1262,32.1331 L779.2253,32.6268 L776.2942,32.2163 L773.3975,32.8339 L770.4814,32.8726 L767.56,32.7553 L767.5616,32.8642 L764.442,32.82 L761.3279,33.1657 L758.2089,33.1592 L755.0878,33.0055 L751.9684,32.974 L751.9698,33.0932 L748.609,32.8767 L745.2548,33.2136 L741.8932,32.9247 L738.5347,32.8932 L735.1751,32.7772 L735.1639,32.507 L731.5326,32.4458 L727.9149,32.71 L724.278,32.5137 L720.6342,32.1524 L717,32.02 L716.9909,31.8771 L712.0293,31.606 L707.0516,31.0818 L702.1183,31.2531 L697.163,31.0803 L692.1776,30.4353 L692.195,30.6686 L687.6253,30.4022 L683.0225,29.6925 L678.4547,29.4506 L673.8637,28.899 L669.3012,28.7297 L669.3114,28.8555 L661.118,28.1783 L652.9368,27.6529 L644.7168,26.6458 L636.5282,26.0273 L628.3409,25.4261 L628.3553,25.6227 L624.638,25.405 L620.8817,24.6539 L617.1707,24.5226 L613.4605,24.4021 L609.7344,24.0634 L609.7188,23.7924 L606.2021,24.0176 L602.6585,23.7727 L599.1082,23.4109 L595.5731,23.3161 L592.0283,23.0504 L592.0387,23.3741 L588.6105,22.8023 L585.2061,22.972 L581.7923,22.8498 L578.3765,22.6652 L574.9615,22.5046 L574.9616,22.5673 L571.6238,22.5629 L568.2852,22.2429 L564.9477,22.35 L561.6098,22.3308 L558.2725,22.5437 L558.2738,22.5721 L554.9598,22.7312 L551.6467,22.9122 L548.3232,22.8596 L545.0132,23.1071 L541.7,23.2854 L541.695,23.2322 L538.3804,23.853 L535.0307,24.0989 L531.6495,24.0077 L528.3231,24.5026 L524.9826,24.8472 L524.9456,24.5934 L521.5764,25.474 L518.1722,26.1147 L514.7434,26.5865 L511.2558,26.6554 L507.859,27.3469 L507.8994,27.5491 L504.2361,27.7342 L500.76,28.8562 L497.1582,29.3495 L493.6345,30.2332 L490.0678,30.902 L490.094,31.0056 L486.3752,32.0511 L482.5014,32.4831 L478.8875,33.9439 L475.1111,34.7614 L471.3477,35.6303 L471.3917,35.7819 L469.4823,36.5176 L467.4323,36.7689 L465.4953,37.4095 L463.542,37.994 L461.5576,38.4711 L461.5838,38.5547 L459.5334,39.1063 L457.6041,40.0437 L455.4042,40.1194 L453.5366,41.2533 L451.4372,41.6492 L451.3487,41.3864 L449.2639,42.1277 L447.2496,43.0782 L445.1513,43.7793 L442.9807,44.2659 L440.954,45.1795 L441.016,45.3526 L438.7945,46.0045 L436.7113,47.0424 L434.5266,47.7969 L432.1837,48.1096 L430.0751,49.0766 L430.0125,48.9112 L427.7934,49.8786 L425.6082,50.9358 L423.3542,51.8113 L421.0768,52.6247 L418.768,53.3552 L418.7119,53.214 L416.5188,54.553 L414.1648,55.4869 L411.6995,56.1405 L409.3144,56.9963 L407,58.03 L406.9273,57.8671 L405.0439,58.7987 L403.1905,59.7973 L401.236,60.5695 L399.2555,61.2834 L397.414,62.3087" fill="none" style="stroke:#FF6F00;stroke-width:2;"/><polygon fill="#FF6F00" points="392.19,65.26,392.1967,65.3297,394.1375,64.9337,396.1176,64.9464,398.0849,64.8261,400.01,64.2679,401.9935,64.3157,401.9865,64.2908,400.8654,63.8757,399.7792,63.5865,398.7173,63.3848,397.5716,62.8816,396.5433,62.8006,396.7211,62.85,396.6439,61.6543,397.0859,60.6029,397.5911,59.5691,397.7279,58.4328,398.0584,57.3504,398.0767,57.364,396.8762,58.926,395.7589,60.5497,394.6014,62.1437,393.5205,63.7944,392.19,65.26" style="stroke:#FF6F00;stroke-width:2;"/><text fill="#333333" font-family="'Roboto'" font-size="13" lengthAdjust="spacing" textLength="78.6157" x="636" y="32.0969">new version</text></g><!--link Deployed to Deprecated--><g class="link" data-entity-1="ent0012" data-entity-2="ent0015" data-link-type="dependency" data-source-line="80" id="lnk16"><path d="M1044.24,117.43 L1044.24,117.5234 L1048.898,117.2459 L1053.556,117.5159 L1058.214,117.6076 L1062.872,117.1129 L1067.53,117.43" fill="none" style="stroke:#FF6F00;stroke-width:2;"/><polygon fill="#FF6F00" points="1073.53,117.43,1073.5585,117.494,1071.6739,116.5038,1069.9562,115.8889,1068.1841,115.1517,1066.2334,114.0127,1064.53,113.43,1064.5117,113.4117,1065.2295,114.1295,1066.0396,114.9396,1066.9139,115.8139,1067.567,116.467,1068.53,117.43,1068.6605,117.5605,1067.5814,118.0814,1066.8834,118.9834,1066.2318,119.9318,1065.3098,120.6098,1064.53,121.43,1064.5392,121.4508,1066.3257,120.6203,1068.1542,119.8844,1069.9624,119.1028,1071.8093,118.4084,1073.53,117.43" style="stroke:#FF6F00;stroke-width:2;"/></g><!--link Deprecated to Decommissioned--><g class="link" data-entity-1="ent0015" data-entity-2="ent0017" data-link-type="dependency" data-source-line="82" id="lnk18"><path d="M1098.38,142.77 L1098.4428,142.8391 L1096.4152,144.3079 L1094.7559,146.1818 L1092.9767,147.9238 L1090.8029,149.2319 L1089.1753,151.1406 L1089.1524,151.1148 L1087.0817,152.7395 L1085.1263,154.4947 L1083.2511,156.3406 L1081.0995,157.874 L1079.335,159.845 L1079.4948,160.0321 L1077.1205,161.3684 L1075.2128,163.2509 L1073.362,165.2001 L1071.18,166.7615 L1069.1722,168.5269 L1069.1914,168.5504 L1067.1288,170.1765 L1065.1535,171.9096 L1063.1361,173.5911 L1061.199,175.371 L1059,176.83 L1059.1831,177.0655 L1057.0639,178.7177 L1054.8267,180.218 L1052.7623,181.9406 L1050.706,183.6737 L1048.3931,185.0766 L1048.2053,184.8169 L1046.3794,186.9043 L1043.9351,188.1365 L1041.9609,190.0189 L1039.5027,191.2316 L1037.4412,192.9932" fill="none" style="stroke:#FF6F00;stroke-width:2;"/><polygon fill="#FF6F00" points="1032.53,196.44,1032.5435,196.5088,1034.4363,195.9253,1036.4083,195.7448,1038.3544,195.4331,1040.2159,194.6899,1042.1946,194.544,1042.1902,194.5185,1041.0557,194.2087,1039.9438,194.0276,1038.8475,193.9359,1037.6973,193.536,1036.6227,193.5677,1036.8044,193.5996,1036.611,192.4171,1036.9483,191.3275,1037.3503,190.2494,1037.3755,189.1052,1037.599,187.9957,1037.6185,188.0074,1036.576,189.6791,1035.6224,191.4041,1034.6259,193.1033,1033.7112,194.8516,1032.53,196.44" style="stroke:#FF6F00;stroke-width:2;"/></g><!--link Decommissioned to *end*--><g class="link" data-entity-1="ent0017" data-entity-2="ent0006" data-link-type="dependency" data-source-line="84" id="lnk19"><path d="M927.72,241.64 L927.7944,241.9102 L918.297,243.663 L909.2359,246.9996 L900.0327,249.8205 L890.3622,250.9452 L881.3111,254.3179 L871.9113,256.4252 L862.6502,259.036 L853.4856,261.9969 L843.9886,263.7514 L835.1532,267.9073 L825.4577,268.941 L816.4046,272.3068" fill="none" style="stroke:#FF6F00;stroke-width:2;"/><polygon fill="#FF6F00" points="810.62,273.9,810.6304,273.9693,812.5472,274.0568,814.5252,274.5503,816.4833,274.9117,818.3758,274.8381,820.3591,275.3666,820.3463,275.3441,819.3051,274.6841,818.3285,274.1377,817.3967,273.6703,816.3104,272.9308,815.4405,272.5723,815.601,272.6635,815.8167,271.4848,816.5009,270.5723,817.2423,269.6923,817.6511,268.6234,818.2348,267.6538,818.2492,267.6714,816.7051,268.8948,815.2266,270.1983,813.7165,271.4631,812.2668,272.8017,810.62,273.9" style="stroke:#FF6F00;stroke-width:2;"/></g><!--SRC=[hLLDRnCn4BtxLqpR0n9IfPH-77f0sYPjgO0asXOXX53bh6SJarrxPNk9qeh_pjZU9jus287mQVBcpPiFhoTxkd5IArXm9LP6EeSAIbvPP6nlXykP5jcUm58gX8lh-u_PpVX-EFamoI6SWvF1wT7iDANSNWudur6MV-buEoZJRFW-kxxS2BsWJFBHPPxcWOEoF2i7WmtbQZA-wn42nPyD9SlpoUS-vqc5sQLK3JUyXXalbdEZMoM6kjA6EkRAaWkLO-mL37NTyC91nTUwTM3HEQdcDX6OSY48WZS9baSzez30MOBVBhZGAy-ECzzwtgqRD9LKoqzA10FZx7SmOfrFhMm9LFZIOWCdAQYqG0yUzq67LrgvJcaGJZgK4PQyhHmyCayRynfXFzSpxVG-smPkxo20j_81uUYO_KoLCcFqYdHYH78bYSx1SJXHnAqhf09DpIjsjv35Kg6rDDoUQb5n0X_PnRFBwtsXx48RccNdIJwfpf6gxsmgSyx8MPlEAlNwpbws5U3V5axVqfBFiHli2yr_xAUNmZhky8-p-NyD_yMKgKxszVKtE7mBDu8Uc2mb2iQsjlUCmkibk3CyDZMwqTQ3JnOSqaDIv2AzSyZnEnQkxwUeYgkWr1aXhoB6t50zb7TZnxoL_84cPkxCY3ULNaSuMacLvw1m1SIrj3cVCng31NTTP6T7Jw7hMbeV4xtfRuXDfMCvXqDG_X7IPWPwpuMHOLK_ez0Yed2deRK81RT-XI1k1kafjCCe5zeKexLYjU8zhD2gmCRrCEkqaVrGWGtIlbA5npUp3m8BRXmq2-x_MRhvXm8K6Cr5pPjq_jupQsKbOiGl]--></g></svg>