<svg xmlns="http://www.w3.org/2000/svg" xmlns:xlink="http://www.w3.org/1999/xlink" contentStyleType="text/css" data-diagram-type="CLASS" height="519px" preserveAspectRatio="none" style="width:739px;height:519px;" version="1.1" viewBox="0 0 739 519" width="739px" zoomAndPan="magnify"><defs/><g><!--class UseCase--><g class="entity" data-qualified-name="UseCase" data-source-line="66" id="ent0002"><a href="/concept/use-case/#ontology" target="_top" title="/concept/use-case/#ontology" xlink:actuate="onRequest" xlink:href="/concept/use-case/#ontology" xlink:show="new" xlink:title="/concept/use-case/#ontology" xlink:type="simple"><polygon fill="#4051B5" points="352.01,9.7747,352.01,9.9849,362.5226,9.3604,373.0351,9.968,383.5477,10.1744,394.0603,9.0613,404.5729,9.697,415.0854,9.3482,425.598,9.3912,436.1106,9.7747,436.1019,9.7537,436.4467,9.7375,437.0297,10.2967,437.303,10.1078,437.7824,10.4167,438.2319,10.6534,438.3649,10.7085,438.3812,11.0667,438.6044,11.5106,438.7493,11.9221,438.9898,12.3732,439.1106,12.7747,439.1903,12.7747,439.3058,17.5747,439.3343,22.3747,439.337,27.1747,439.1955,31.9747,439.1106,36.7747,439.2534,36.8338,439.1511,37.2885,438.537,37.5312,438.7923,38.134,438.3163,38.4339,438.2319,38.896,438.3,39.0604,437.7445,38.9193,437.3746,39.2264,437.0537,39.6516,436.5286,39.584,436.1106,39.7747,436.1106,39.88,425.598,40.1133,415.0854,40.1909,404.5729,39.7708,394.0603,40.0619,383.5477,39.2023,373.0351,40.0591,362.5226,40.3229,352.01,39.7747,352.0667,39.9116,351.6639,39.7878,351.0998,39.2745,350.654,39.0467,350.2337,38.8804,349.8887,38.896,349.8705,38.8885,349.6524,38.4467,349.7471,38.1344,349.3077,37.601,349.0801,37.1552,349.01,36.7747,349.0861,36.7747,348.7877,31.9747,348.837,27.1747,349.2263,22.3747,349.1552,17.5747,349.01,12.7747,349.2362,12.8684,349.0866,12.3094,349.4598,11.9669,349.719,11.5772,349.5675,11.0174,349.8887,10.6534,349.8765,10.6239,350.329,10.5164,350.8203,10.5026,351.1609,10.1249,351.6447,10.0929,352.01,9.7747" style="stroke:#FF6F00;stroke-width:2;"/><polygon fill="#ADD1B2" points="373.0652,27.2071,371.5994,29.21,369.8656,32.1435,367.386,34.1205,364.7803,35.2016,362.7027,35.2955,360.0324,33.9434,357.5129,33.0601,355.6005,31.2667,354.5973,29.2136,354.0024,27.5788,353.4196,25.4435,352.4736,23.606,353.2006,21.812,353.8375,19.8467,356.2275,18.2924,357.9091,16.2757,359.9904,15.606,362.4647,15.0293,365.6376,15.3719,367.3755,16.1916,369.3961,16.5631,371.8529,19.0801,372.7093,21.7374,373.0814,23.5505,372.66,26.5382" style="stroke:#181818;stroke-width:1;"/><path d="M364.8694,29.0091 Q364.4319,29.2278 363.9319,29.3372 Q363.4475,29.4622 362.9163,29.4622 Q360.9944,29.4622 359.9788,28.1966 Q358.9788,26.931 358.9788,24.5403 Q358.9788,22.1497 359.9788,20.8841 Q360.9944,19.6185 362.9163,19.6185 Q363.4475,19.6185 363.9475,19.7435 Q364.4475,19.8528 364.8694,20.0872 L364.8694,22.1653 Q364.385,21.7278 363.9319,21.5247 Q363.4788,21.306 362.9944,21.306 Q361.9788,21.306 361.4475,22.1341 Q360.9163,22.9466 360.9163,24.5403 Q360.9163,26.1497 361.4475,26.9622 Q361.9788,27.7747 362.9944,27.7747 Q363.4788,27.7747 363.9319,27.5716 Q364.385,27.3685 364.8694,26.9153 L364.8694,29.0091 Z " fill="#FFFFFF"/><text fill="#FFFFFF" font-family="'Roboto'" font-size="13" lengthAdjust="spacing" textLength="56.1006" x="378.01" y="29.2752">UseCase</text></a></g><!--class UseCaseStereotype--><g class="entity" data-qualified-name="UseCaseStereotype" data-source-line="67" id="ent0003"><polygon fill="#4051B5" points="27.16,100.7747,27.16,100.9849,36.8965,100.3604,46.6331,100.968,56.3696,101.1744,66.1062,100.0613,75.8427,100.697,85.5793,100.3482,95.3158,100.3912,105.0523,100.7065,114.7889,100.0833,124.5254,101.3283,134.262,100.1444,143.9985,100.5769,153.735,101.2067,163.4716,100.6889,173.2081,100.8429,182.9447,100.7747,182.9406,100.7649,183.3917,101.0054,183.8237,101.1998,184.2922,101.4823,184.7273,101.6843,185.066,101.6534,185.2752,101.74,185.3201,102.1101,185.5602,102.561,185.8095,103.0158,185.5468,103.2584,185.9447,103.7747,186.1708,103.7747,185.8458,108.5747,186.1226,113.3747,185.7797,118.1747,185.9218,122.9747,185.9447,127.7747,186.1731,127.8693,185.7539,128.1928,185.6256,128.6367,185.5217,129.0907,185.3699,129.5249,185.066,129.896,185.0655,129.8948,184.6784,130.1602,184.1444,130.0712,183.8295,130.5108,183.4389,130.7678,182.9447,130.7747,182.9447,131.2192,173.2081,131.3877,163.4716,130.2916,153.735,130.1225,143.9985,130.1533,134.262,130.7158,124.5254,130.5782,114.7889,131.4561,105.0523,130.6,95.3158,130.4317,85.5793,131.003,75.8427,130.1079,66.1062,130.2556,56.3696,131.4237,46.6331,131.2104,36.8965,131.5092,27.16,130.7747,27.119,130.6756,26.7765,130.6973,26.3868,130.6051,25.8269,130.102,25.4507,130.0422,25.0387,129.896,25.0775,129.9121,25.0637,129.5549,24.6859,129.047,24.6539,128.6822,24.1652,128.1283,24.16,127.7747,23.9342,127.7747,24.3279,122.9747,23.921,118.1747,24.3297,113.3747,24.2289,108.5747,24.16,103.7747,24.0775,103.7405,24.2268,103.3053,24.6528,102.9847,24.595,102.4637,25.0452,102.1531,25.0387,101.6534,24.9682,101.4832,25.5417,101.6678,25.949,101.4511,26.3427,101.2016,26.7418,100.965,27.16,100.7747" style="stroke:#FF6F00;stroke-width:2;"/><polygon fill="#ADD1B2" points="48.2152,118.2071,46.7494,120.21,45.0156,123.1435,42.536,125.1205,39.9303,126.2016,37.8527,126.2955,35.1824,124.9434,32.6629,124.0601,30.7505,122.2667,29.7473,120.2136,29.1524,118.5788,28.5696,116.4435,27.6236,114.606,28.3506,112.812,28.9875,110.8467,31.3775,109.2924,33.0591,107.2757,35.1404,106.606,37.6147,106.0293,40.7876,106.3719,42.5255,107.1916,44.5461,107.5631,47.0029,110.0801,47.8593,112.7374,48.2314,114.5505,47.81,117.5382" style="stroke:#181818;stroke-width:1;"/><path d="M40.0194,120.0091 Q39.5819,120.2278 39.0819,120.3372 Q38.5975,120.4622 38.0663,120.4622 Q36.1444,120.4622 35.1288,119.1966 Q34.1288,117.931 34.1288,115.5403 Q34.1288,113.1497 35.1288,111.8841 Q36.1444,110.6185 38.0663,110.6185 Q38.5975,110.6185 39.0975,110.7435 Q39.5975,110.8528 40.0194,111.0872 L40.0194,113.1653 Q39.535,112.7278 39.0819,112.5247 Q38.6288,112.306 38.1444,112.306 Q37.1288,112.306 36.5975,113.1341 Q36.0663,113.9466 36.0663,115.5403 Q36.0663,117.1497 36.5975,117.9622 Q37.1288,118.7747 38.1444,118.7747 Q38.6288,118.7747 39.0819,118.5716 Q39.535,118.3685 40.0194,117.9153 L40.0194,120.0091 Z " fill="#FFFFFF"/><text fill="#FFFFFF" font-family="'Roboto'" font-size="13" lengthAdjust="spacing" textLength="127.7847" x="53.16" y="120.2752">UseCaseStereotype</text></g><!--class Story--><g class="entity" data-qualified-name="Story" data-source-line="68" id="ent0004"><a href="/concept/story/#ontology" target="_top" title="/concept/story/#ontology" xlink:actuate="onRequest" xlink:href="/concept/story/#ontology" xlink:show="new" xlink:title="/concept/story/#ontology" xlink:type="simple"><polygon fill="#4051B5" points="214.89,200.7747,214.89,200.9849,225.2801,200.3604,235.6703,200.968,246.0604,201.1744,256.4505,200.0613,266.8407,200.697,277.2308,200.7747,277.1764,200.6434,277.6062,200.8323,278.0707,201.1052,278.4154,201.089,278.9985,201.6481,279.3521,201.6534,279.158,201.573,279.467,202.0524,279.8366,202.557,279.8529,202.9152,280.0761,203.3591,280.2308,203.7747,280.2202,203.7747,280.2903,208.5747,280.3105,213.3747,280.4261,218.1747,280.4545,222.9747,280.2308,227.7747,280.44,227.8614,280.1335,228.2314,280.0221,228.6824,279.9199,229.1371,279.3058,229.3798,279.3521,229.896,279.4387,230.105,278.8901,229.9804,278.5717,230.4119,278.0162,230.2708,277.6463,230.5779,277.2308,230.7747,277.2308,231.5163,266.8407,230.726,256.4505,230.88,246.0604,231.1133,235.6703,231.1909,225.2801,230.7708,214.89,230.7747,214.9266,230.8632,214.3927,230.4227,214.0777,230.5108,213.6871,230.4163,213.2496,230.2087,212.7687,229.896,212.9575,229.9742,212.4442,229.4101,212.2164,228.9643,212.0501,228.544,212.0476,228.1915,211.89,227.7747,211.8245,227.7747,212.1171,222.9747,211.8318,218.1747,211.7756,213.3747,211.9661,208.5747,211.89,203.7747,211.6846,203.6896,211.9059,203.2842,212.4413,203.009,212.5514,202.5575,212.8191,202.1713,212.7687,201.6534,212.7276,201.5543,213.2337,201.5759,213.6925,201.4837,213.9812,200.9807,214.4535,200.9209,214.89,200.7747" style="stroke:#FF6F00;stroke-width:2;"/><polygon fill="#ADD1B2" points="235.9452,218.2071,234.4794,220.21,232.7456,223.1435,230.266,225.1205,227.6603,226.2016,225.5827,226.2955,222.9124,224.9434,220.3929,224.0601,218.4805,222.2667,217.4773,220.2136,216.8824,218.5788,216.2996,216.4435,215.3536,214.606,216.0806,212.812,216.7175,210.8467,219.1075,209.2924,220.7891,207.2757,222.8704,206.606,225.3447,206.0293,228.5176,206.3719,230.2555,207.1916,232.2761,207.5631,234.7329,210.0801,235.5893,212.7374,235.9614,214.5505,235.54,217.5382" style="stroke:#181818;stroke-width:1;"/><path d="M227.7494,220.0091 Q227.3119,220.2278 226.8119,220.3372 Q226.3275,220.4622 225.7963,220.4622 Q223.8744,220.4622 222.8588,219.1966 Q221.8588,217.931 221.8588,215.5403 Q221.8588,213.1497 222.8588,211.8841 Q223.8744,210.6185 225.7963,210.6185 Q226.3275,210.6185 226.8275,210.7435 Q227.3275,210.8528 227.7494,211.0872 L227.7494,213.1653 Q227.265,212.7278 226.8119,212.5247 Q226.3588,212.306 225.8744,212.306 Q224.8588,212.306 224.3275,213.1341 Q223.7963,213.9466 223.7963,215.5403 Q223.7963,217.1497 224.3275,217.9622 Q224.8588,218.7747 225.8744,218.7747 Q226.3588,218.7747 226.8119,218.5716 Q227.265,218.3685 227.7494,217.9153 L227.7494,220.0091 Z " fill="#FFFFFF"/><text fill="#FFFFFF" font-family="'Roboto'" font-size="13" lengthAdjust="spacing" textLength="34.3408" x="240.89" y="220.2752">Story</text></a></g><!--class WorkflowDefinition--><g class="entity" data-qualified-name="WorkflowDefinition" data-source-line="69" id="ent0005"><a href="/concept/workflow/#ontology" target="_top" title="/concept/workflow/#ontology" xlink:actuate="onRequest" xlink:href="/concept/workflow/#ontology" xlink:show="new" xlink:title="/concept/workflow/#ontology" xlink:type="simple"><polygon fill="#4051B5" points="318.35,100.7747,318.35,100.9849,328.4437,100.3604,338.5373,100.968,348.631,101.1744,358.7246,100.0613,368.8183,100.697,378.9119,100.3482,389.0056,100.3912,399.0992,100.7065,409.1929,100.0833,419.2865,101.3283,429.3802,100.1444,439.4738,100.5769,449.5675,101.2067,459.6611,100.6889,469.7548,100.7747,469.7635,100.7957,470.175,100.9406,470.6261,101.1812,471.0581,101.3756,471.5266,101.658,471.8761,101.6534,472.0828,101.739,472.261,102.1643,472.306,102.5344,472.5461,102.9853,472.7953,103.44,472.7548,103.7747,472.5144,103.7747,472.981,108.5747,472.656,113.3747,472.9327,118.1747,472.5898,122.9747,472.7548,127.7747,472.7337,127.766,472.8074,128.2936,472.3883,128.617,472.26,129.0609,472.1561,129.515,471.8761,129.896,471.9292,130.0242,471.4513,130.0706,471.0642,130.3359,470.5303,130.247,470.2153,130.6865,469.7548,130.7747,469.7548,131.3229,459.6611,131.2192,449.5675,131.3877,439.4738,130.2916,429.3802,130.1225,419.2865,130.1533,409.1929,130.7158,399.0992,130.5782,389.0056,131.4561,378.9119,130.6,368.8183,130.4317,358.7246,131.003,348.631,130.1079,338.5373,130.2556,328.4437,131.4237,318.35,130.7747,318.4056,130.9089,318.0194,130.8252,317.4604,130.3241,317.1179,130.3458,316.7283,130.2536,316.2287,129.896,316.0832,129.8358,316.0234,129.4595,315.916,129.0636,315.9022,128.7064,315.5244,128.1984,315.35,127.7747,315.5042,127.7747,315.1654,122.9747,315.1242,118.1747,315.5179,113.3747,315.111,108.5747,315.35,103.7747,315.5067,103.8396,315.5894,103.3768,315.619,102.892,315.7683,102.4568,316.1942,102.1362,316.2287,101.6534,316.1905,101.5612,316.7284,101.6599,317.0067,101.1317,317.5802,101.3163,317.9875,101.0996,318.35,100.7747" style="stroke:#FF6F00;stroke-width:2;"/><polygon fill="#ADD1B2" points="339.4052,118.2071,337.9394,120.21,336.2056,123.1435,333.726,125.1205,331.1203,126.2016,329.0427,126.2955,326.3724,124.9434,323.8529,124.0601,321.9405,122.2667,320.9373,120.2136,320.3424,118.5788,319.7596,116.4435,318.8136,114.606,319.5406,112.812,320.1775,110.8467,322.5675,109.2924,324.2491,107.2757,326.3304,106.606,328.8047,106.0293,331.9776,106.3719,333.7155,107.1916,335.7361,107.5631,338.1929,110.0801,339.0493,112.7374,339.4214,114.5505,339,117.5382" style="stroke:#181818;stroke-width:1;"/><path d="M331.2094,120.0091 Q330.7719,120.2278 330.2719,120.3372 Q329.7875,120.4622 329.2563,120.4622 Q327.3344,120.4622 326.3188,119.1966 Q325.3188,117.931 325.3188,115.5403 Q325.3188,113.1497 326.3188,111.8841 Q327.3344,110.6185 329.2563,110.6185 Q329.7875,110.6185 330.2875,110.7435 Q330.7875,110.8528 331.2094,111.0872 L331.2094,113.1653 Q330.725,112.7278 330.2719,112.5247 Q329.8188,112.306 329.3344,112.306 Q328.3188,112.306 327.7875,113.1341 Q327.2563,113.9466 327.2563,115.5403 Q327.2563,117.1497 327.7875,117.9622 Q328.3188,118.7747 329.3344,118.7747 Q329.8188,118.7747 330.2719,118.5716 Q330.725,118.3685 331.2094,117.9153 L331.2094,120.0091 Z " fill="#FFFFFF"/><text fill="#FFFFFF" font-family="'Roboto'" font-size="13" lengthAdjust="spacing" textLength="123.4048" x="344.35" y="120.2752">WorkflowDefinition</text></a></g><!--class Outcome--><g class="entity" data-qualified-name="Outcome" data-source-line="70" id="ent0006"><a href="/concept/outcome/#ontology" target="_top" title="/concept/outcome/#ontology" xlink:actuate="onRequest" xlink:href="/concept/outcome/#ontology" xlink:show="new" xlink:title="/concept/outcome/#ontology" xlink:type="simple"><polygon fill="#4051B5" points="445.39,300.7747,445.39,300.9849,455.0935,300.3604,464.797,300.968,474.5005,301.1744,484.204,300.0613,493.9075,300.697,503.611,300.3482,513.3145,300.3912,523.018,300.7065,532.7215,300.7747,532.6334,300.5618,533.2164,301.1209,533.4897,300.9321,533.9691,301.241,534.4737,301.6107,534.8429,301.6534,534.8164,301.6424,535.0396,302.0864,535.1845,302.4978,535.425,302.9489,535.6195,303.3809,535.7215,303.7747,535.9168,303.7747,535.9452,308.5747,535.948,313.3747,535.8064,318.1747,535.8761,322.9747,535.7215,327.7747,535.9378,327.8643,535.3237,328.107,535.579,328.7098,535.103,329.0097,535.183,329.5399,534.8429,329.896,534.7797,329.7436,534.4099,330.0507,534.0889,330.4759,533.5639,330.4082,533.1592,330.6314,532.7215,330.7747,532.7215,331.1133,523.018,331.1909,513.3145,330.7708,503.611,331.0619,493.9075,330.2023,484.204,331.0591,474.5005,331.3229,464.797,331.2192,455.0935,331.3877,445.39,330.7747,445.3284,330.6259,444.8825,330.3981,444.4622,330.2319,444.1097,330.2294,443.6679,330.0112,443.2687,329.896,443.4785,329.9829,443.0392,329.4495,442.8116,329.0037,442.8118,328.6524,442.3604,328.1139,442.39,327.7747,442.217,327.7747,442.6063,322.9747,442.5352,318.1747,442.6348,313.3747,442.2827,308.5747,442.39,303.7747,442.4883,303.8154,442.7476,303.4258,442.596,302.8659,442.8877,302.4897,443.1317,302.0937,443.2687,301.6534,443.3518,301.8541,443.6924,301.4764,444.1762,301.4444,444.4708,300.9556,444.8793,300.7419,445.39,300.7747" style="stroke:#FF6F00;stroke-width:2;"/><polygon fill="#ADD1B2" points="466.4452,318.2071,464.9794,320.21,463.2456,323.1435,460.766,325.1205,458.1603,326.2016,456.0827,326.2955,453.4124,324.9434,450.8929,324.0601,448.9805,322.2667,447.9773,320.2136,447.3824,318.5788,446.7996,316.4435,445.8536,314.606,446.5806,312.812,447.2175,310.8467,449.6075,309.2924,451.2891,307.2757,453.3704,306.606,455.8447,306.0293,459.0176,306.3719,460.7555,307.1916,462.7761,307.5631,465.2329,310.0801,466.0893,312.7374,466.4614,314.5505,466.04,317.5382" style="stroke:#181818;stroke-width:1;"/><path d="M458.2494,320.0091 Q457.8119,320.2278 457.3119,320.3372 Q456.8275,320.4622 456.2963,320.4622 Q454.3744,320.4622 453.3588,319.1966 Q452.3588,317.931 452.3588,315.5403 Q452.3588,313.1497 453.3588,311.8841 Q454.3744,310.6185 456.2963,310.6185 Q456.8275,310.6185 457.3275,310.7435 Q457.8275,310.8528 458.2494,311.0872 L458.2494,313.1653 Q457.765,312.7278 457.3119,312.5247 Q456.8588,312.306 456.3744,312.306 Q455.3588,312.306 454.8275,313.1341 Q454.2963,313.9466 454.2963,315.5403 Q454.2963,317.1497 454.8275,317.9622 Q455.3588,318.7747 456.3744,318.7747 Q456.8588,318.7747 457.3119,318.5716 Q457.765,318.3685 458.2494,317.9153 L458.2494,320.0091 Z " fill="#FFFFFF"/><text fill="#FFFFFF" font-family="'Roboto'" font-size="13" lengthAdjust="spacing" textLength="59.3315" x="471.39" y="320.2752">Outcome</text></a></g><!--class OutcomeRelationship--><g class="entity" data-qualified-name="OutcomeRelationship" data-source-line="71" id="ent0007"><polygon fill="#4051B5" points="435.2,150.7747,435.2,150.9849,445.0658,150.3604,454.9316,150.968,464.7973,151.1744,474.6631,150.0613,484.5289,150.697,494.3947,150.3482,504.2605,150.3912,514.1262,150.7065,523.992,150.0833,533.8578,151.3283,543.7236,150.1444,553.5894,150.5769,563.4551,151.2067,573.3209,150.6889,583.1867,150.8429,593.0525,150.7428,602.9183,150.7747,602.941,150.8297,603.373,151.0241,603.8415,151.3065,604.2767,151.5086,604.702,151.6868,605.0396,151.6534,605.118,151.6859,605.3581,152.1368,605.6073,152.5915,605.3447,152.8342,605.9515,153.437,605.9183,153.7747,605.8194,153.7747,606.0962,158.5747,605.7533,163.3747,605.8954,168.1747,606.1655,172.9747,605.9183,177.7747,605.9033,177.7685,605.775,178.2124,605.6711,178.6664,605.5192,179.1006,605.2141,179.4713,605.0396,179.896,605.0762,179.9845,604.5423,179.8955,604.2273,180.3351,603.8367,180.5921,603.3992,180.7359,602.9183,180.7747,602.9183,181.3877,593.0525,180.2916,583.1867,180.1225,573.3209,180.1533,563.4551,180.7158,553.5894,180.5782,543.7236,181.4561,533.8578,180.6,523.992,180.4317,514.1262,181.003,504.2605,180.1079,494.3947,180.2556,484.5289,181.4237,474.6631,181.2104,464.7973,181.5092,454.9316,180.4529,445.0658,181.0939,435.2,180.7747,435.2753,180.9565,434.7155,180.4535,434.3392,180.3937,433.9433,180.2863,433.5861,180.2725,433.0787,179.896,433.0774,179.8955,433.0454,179.5308,432.5567,178.9769,432.3429,178.5368,432.5308,178.2632,432.2,177.7747,431.961,177.7747,432.3697,172.9747,432.2689,168.1747,432.1107,163.3747,432.0821,158.5747,432.2,153.7747,432.3413,153.8332,432.2836,153.3123,432.7337,153.0017,432.557,152.4314,433.0931,152.1564,433.0787,151.6534,433.1405,151.8025,433.5342,151.5531,433.9332,151.3165,434.4442,151.3499,434.854,151.1394,435.2,150.7747" style="stroke:#FF6F00;stroke-width:2;"/><polygon fill="#ADD1B2" points="456.2552,168.2071,454.7894,170.21,453.0556,173.1435,450.576,175.1205,447.9703,176.2016,445.8927,176.2955,443.2224,174.9434,440.7029,174.0601,438.7905,172.2667,437.7873,170.2136,437.1924,168.5788,436.6096,166.4435,435.6636,164.606,436.3906,162.812,437.0275,160.8467,439.4175,159.2924,441.0991,157.2757,443.1804,156.606,445.6547,156.0293,448.8276,156.3719,450.5655,157.1916,452.5861,157.5631,455.0429,160.0801,455.8993,162.7374,456.2714,164.5505,455.85,167.5382" style="stroke:#181818;stroke-width:1;"/><path d="M448.0594,170.0091 Q447.6219,170.2278 447.1219,170.3372 Q446.6375,170.4622 446.1063,170.4622 Q444.1844,170.4622 443.1688,169.1966 Q442.1688,167.931 442.1688,165.5403 Q442.1688,163.1497 443.1688,161.8841 Q444.1844,160.6185 446.1063,160.6185 Q446.6375,160.6185 447.1375,160.7435 Q447.6375,160.8528 448.0594,161.0872 L448.0594,163.1653 Q447.575,162.7278 447.1219,162.5247 Q446.6688,162.306 446.1844,162.306 Q445.1688,162.306 444.6375,163.1341 Q444.1063,163.9466 444.1063,165.5403 Q444.1063,167.1497 444.6375,167.9622 Q445.1688,168.7747 446.1844,168.7747 Q446.6688,168.7747 447.1219,168.5716 Q447.575,168.3685 448.0594,167.9153 L448.0594,170.0091 Z " fill="#FFFFFF"/><text fill="#FFFFFF" font-family="'Roboto'" font-size="13" lengthAdjust="spacing" textLength="139.7183" x="461.2" y="170.2752">OutcomeRelationship</text></g><!--class Concept--><g class="entity" data-qualified-name="Concept" data-source-line="72" id="ent0008"><a href="/concept/concept/#ontology" target="_top" title="/concept/concept/#ontology" xlink:actuate="onRequest" xlink:href="/concept/concept/#ontology" xlink:show="new" xlink:title="/concept/concept/#ontology" xlink:type="simple"><polygon fill="#4051B5" points="417.17,391.7747,417.17,391.9849,427.3906,391.3604,437.6112,391.968,447.8317,392.1744,458.0523,391.0613,468.2729,391.697,478.4935,391.3482,488.7141,391.3912,498.9346,391.7747,498.926,391.7537,499.2707,391.7375,499.8538,392.2967,500.127,392.1078,500.6065,392.4167,501.056,392.6534,501.189,392.7085,501.2053,393.0667,501.4285,393.5106,501.5733,393.9221,501.8139,394.3732,501.9346,394.7747,502.0144,394.7747,502.1299,399.5747,502.1583,404.3747,502.1611,409.1747,502.0195,413.9747,501.9346,418.7747,502.0774,418.8338,501.9752,419.2885,501.3611,419.5312,501.6164,420.134,501.1404,420.4339,501.056,420.896,501.1241,421.0604,500.5686,420.9193,500.1987,421.2264,499.8778,421.6516,499.3527,421.584,498.9346,421.7747,498.9346,421.88,488.7141,422.1133,478.4935,422.1909,468.2729,421.7708,458.0523,422.0619,447.8317,421.2023,437.6112,422.0591,427.3906,422.3229,417.17,421.7747,417.2267,421.9116,416.8239,421.7878,416.2598,421.2745,415.814,421.0467,415.3937,420.8804,415.0487,420.896,415.0305,420.8885,414.8124,420.4467,414.9071,420.1344,414.4677,419.601,414.2401,419.1552,414.17,418.7747,414.2461,418.7747,413.9477,413.9747,413.997,409.1747,414.3863,404.3747,414.3152,399.5747,414.17,394.7747,414.3962,394.8684,414.2466,394.3094,414.6198,393.9669,414.879,393.5772,414.7275,393.0174,415.0487,392.6534,415.0365,392.6239,415.489,392.5164,415.9803,392.5026,416.3209,392.1249,416.8047,392.0929,417.17,391.7747" style="stroke:#FF6F00;stroke-width:2;"/><polygon fill="#ADD1B2" points="438.2252,409.2071,436.7594,411.21,435.0256,414.1435,432.546,416.1205,429.9403,417.2016,427.8627,417.2955,425.1924,415.9434,422.6729,415.0601,420.7605,413.2667,419.7573,411.2136,419.1624,409.5788,418.5796,407.4435,417.6336,405.606,418.3606,403.812,418.9975,401.8467,421.3875,400.2924,423.0691,398.2757,425.1504,397.606,427.6247,397.0293,430.7976,397.3719,432.5355,398.1916,434.5561,398.5631,437.0129,401.0801,437.8693,403.7374,438.2414,405.5505,437.82,408.5382" style="stroke:#181818;stroke-width:1;"/><path d="M430.0294,411.0091 Q429.5919,411.2278 429.0919,411.3372 Q428.6075,411.4622 428.0763,411.4622 Q426.1544,411.4622 425.1388,410.1966 Q424.1388,408.931 424.1388,406.5403 Q424.1388,404.1497 425.1388,402.8841 Q426.1544,401.6185 428.0763,401.6185 Q428.6075,401.6185 429.1075,401.7435 Q429.6075,401.8528 430.0294,402.0872 L430.0294,404.1653 Q429.545,403.7278 429.0919,403.5247 Q428.6388,403.306 428.1544,403.306 Q427.1388,403.306 426.6075,404.1341 Q426.0763,404.9466 426.0763,406.5403 Q426.0763,408.1497 426.6075,408.9622 Q427.1388,409.7747 428.1544,409.7747 Q428.6388,409.7747 429.0919,409.5716 Q429.545,409.3685 430.0294,408.9153 L430.0294,411.0091 Z " fill="#FFFFFF"/><text fill="#FFFFFF" font-family="'Roboto'" font-size="13" lengthAdjust="spacing" textLength="53.7646" x="443.17" y="411.2752">Concept</text></a></g><!--class ConceptVocabulary--><g class="entity" data-qualified-name="ConceptVocabulary" data-source-line="73" id="ent0009"><polygon fill="#4051B5" points="574.64,250.7747,574.64,250.9849,584.9622,250.3604,595.2843,250.968,605.6065,251.1744,615.9287,250.0613,626.2508,250.697,636.573,250.3482,646.8952,250.3912,657.2173,250.7065,667.5395,250.0833,677.8617,251.3283,688.1838,250.1444,698.506,250.5769,708.8282,251.2067,719.1504,250.6889,729.4725,250.7747,729.4812,250.7957,729.8927,250.9406,730.3438,251.1812,730.7758,251.3756,731.2443,251.658,731.5938,251.6534,731.8005,251.739,731.9788,252.1643,732.0237,252.5344,732.2638,252.9853,732.513,253.44,732.4725,253.7747,732.2321,253.7747,732.6987,258.5747,732.3737,263.3747,732.6505,268.1747,732.3075,272.9747,732.4725,277.7747,732.4514,277.766,732.5252,278.2936,732.106,278.617,731.9777,279.0609,731.8739,279.515,731.5938,279.896,731.6469,280.0242,731.1691,280.0706,730.7819,280.3359,730.248,280.247,729.9331,280.6865,729.4725,280.7747,729.4725,281.3229,719.1504,281.2192,708.8282,281.3877,698.506,280.2916,688.1838,280.1225,677.8617,280.1533,667.5395,280.7158,657.2173,280.5782,646.8952,281.4561,636.573,280.6,626.2508,280.4317,615.9287,281.003,605.6065,280.1079,595.2843,280.2556,584.9622,281.4237,574.64,280.7747,574.6956,280.9089,574.3094,280.8252,573.7504,280.3241,573.4079,280.3458,573.0183,280.2536,572.5187,279.896,572.3732,279.8358,572.3134,279.4595,572.206,279.0636,572.1922,278.7064,571.8144,278.1984,571.64,277.7747,571.7942,277.7747,571.4554,272.9747,571.4142,268.1747,571.8079,263.3747,571.401,258.5747,571.64,253.7747,571.7967,253.8396,571.8794,253.3768,571.909,252.892,572.0583,252.4568,572.4842,252.1362,572.5187,251.6534,572.4805,251.5612,573.0184,251.6599,573.2967,251.1317,573.8702,251.3163,574.2775,251.0996,574.64,250.7747" style="stroke:#FF6F00;stroke-width:2;"/><polygon fill="#ADD1B2" points="595.6952,268.2071,594.2294,270.21,592.4956,273.1435,590.016,275.1205,587.4103,276.2016,585.3327,276.2955,582.6624,274.9434,580.1429,274.0601,578.2305,272.2667,577.2273,270.2136,576.6324,268.5788,576.0496,266.4435,575.1036,264.606,575.8306,262.812,576.4675,260.8467,578.8575,259.2924,580.5391,257.2757,582.6204,256.606,585.0947,256.0293,588.2676,256.3719,590.0055,257.1916,592.0261,257.5631,594.4829,260.0801,595.3393,262.7374,595.7114,264.5505,595.29,267.5382" style="stroke:#181818;stroke-width:1;"/><path d="M587.4994,270.0091 Q587.0619,270.2278 586.5619,270.3372 Q586.0775,270.4622 585.5463,270.4622 Q583.6244,270.4622 582.6088,269.1966 Q581.6088,267.931 581.6088,265.5403 Q581.6088,263.1497 582.6088,261.8841 Q583.6244,260.6185 585.5463,260.6185 Q586.0775,260.6185 586.5775,260.7435 Q587.0775,260.8528 587.4994,261.0872 L587.4994,263.1653 Q587.015,262.7278 586.5619,262.5247 Q586.1088,262.306 585.6244,262.306 Q584.6088,262.306 584.0775,263.1341 Q583.5463,263.9466 583.5463,265.5403 Q583.5463,267.1497 584.0775,267.9622 Q584.6088,268.7747 585.6244,268.7747 Q586.1088,268.7747 586.5619,268.5716 Q587.015,268.3685 587.4994,267.9153 L587.4994,270.0091 Z " fill="#FFFFFF"/><text fill="#FFFFFF" font-family="'Roboto'" font-size="13" lengthAdjust="spacing" textLength="126.8325" x="600.64" y="270.2752">ConceptVocabulary</text></g><!--class Term--><g class="entity" data-qualified-name="Term" data-source-line="74" id="ent0010"><a href="/concept/term/#ontology" target="_top" title="/concept/term/#ontology" xlink:actuate="onRequest" xlink:href="/concept/term/#ontology" xlink:show="new" xlink:title="/concept/term/#ontology" xlink:type="simple"><polygon fill="#4051B5" points="427.08,482.7747,427.08,482.9849,437.4045,482.3604,447.7291,482.968,458.0536,483.1744,468.3782,482.0613,478.7027,482.697,489.0273,482.7747,488.9729,482.6434,489.4026,482.8323,489.8671,483.1052,490.2119,483.089,490.7949,483.6481,491.1486,483.6534,490.9545,483.573,491.2634,484.0524,491.6331,484.557,491.6494,484.9152,491.8725,485.3591,492.0273,485.7747,492.0166,485.7747,492.0868,490.5747,492.107,495.3747,492.2225,500.1747,492.251,504.9747,492.0273,509.7747,492.2364,509.8614,491.9299,510.2314,491.8186,510.6824,491.7163,511.1371,491.1022,511.3798,491.1486,511.896,491.2351,512.105,490.6865,511.9804,490.3682,512.4119,489.8126,512.2708,489.4428,512.5779,489.0273,512.7747,489.0273,513.5163,478.7027,512.726,468.3782,512.88,458.0536,513.1133,447.7291,513.1909,437.4045,512.7708,427.08,512.7747,427.1166,512.8632,426.5827,512.4227,426.2677,512.5108,425.8771,512.4163,425.4396,512.2087,424.9587,511.896,425.1475,511.9742,424.6342,511.4101,424.4064,510.9643,424.2401,510.544,424.2376,510.1915,424.08,509.7747,424.0145,509.7747,424.3071,504.9747,424.0218,500.1747,423.9656,495.3747,424.1561,490.5747,424.08,485.7747,423.8746,485.6896,424.0959,485.2842,424.6313,485.009,424.7414,484.5575,425.0091,484.1713,424.9587,483.6534,424.9176,483.5543,425.4237,483.5759,425.8825,483.4837,426.1712,482.9807,426.6435,482.9209,427.08,482.7747" style="stroke:#FF6F00;stroke-width:2;"/><polygon fill="#ADD1B2" points="448.1352,500.2071,446.6694,502.21,444.9356,505.1435,442.456,507.1205,439.8503,508.2016,437.7727,508.2955,435.1024,506.9434,432.5829,506.0601,430.6705,504.2667,429.6673,502.2136,429.0724,500.5788,428.4896,498.4435,427.5436,496.606,428.2706,494.812,428.9075,492.8467,431.2975,491.2924,432.9791,489.2757,435.0604,488.606,437.5347,488.0293,440.7076,488.3719,442.4455,489.1916,444.4661,489.5631,446.9229,492.0801,447.7793,494.7374,448.1514,496.5505,447.73,499.5382" style="stroke:#181818;stroke-width:1;"/><path d="M439.9394,502.0091 Q439.5019,502.2278 439.0019,502.3372 Q438.5175,502.4622 437.9863,502.4622 Q436.0644,502.4622 435.0488,501.1966 Q434.0488,499.931 434.0488,497.5403 Q434.0488,495.1497 435.0488,493.8841 Q436.0644,492.6185 437.9863,492.6185 Q438.5175,492.6185 439.0175,492.7435 Q439.5175,492.8528 439.9394,493.0872 L439.9394,495.1653 Q439.455,494.7278 439.0019,494.5247 Q438.5488,494.306 438.0644,494.306 Q437.0488,494.306 436.5175,495.1341 Q435.9863,495.9466 435.9863,497.5403 Q435.9863,499.1497 436.5175,499.9622 Q437.0488,500.7747 438.0644,500.7747 Q438.5488,500.7747 439.0019,500.5716 Q439.455,500.3685 439.9394,499.9153 L439.9394,502.0091 Z " fill="#FFFFFF"/><text fill="#FFFFFF" font-family="'Roboto'" font-size="13" lengthAdjust="spacing" textLength="33.9473" x="453.08" y="502.2752">Term</text></a></g><!--class Persona--><g class="entity" data-qualified-name="Persona" data-source-line="75" id="ent0011"><a href="/concept/persona/#ontology" target="_top" title="/concept/persona/#ontology" xlink:actuate="onRequest" xlink:href="/concept/persona/#ontology" xlink:show="new" xlink:title="/concept/persona/#ontology" xlink:type="simple"><polygon fill="#4051B5" points="10,300.7747,10,300.9849,20.0143,300.3604,30.0286,300.968,40.0428,301.1744,50.0571,300.0613,60.0714,300.697,70.0857,300.3482,80.1,300.3912,90.1143,300.7747,90.1056,300.7537,90.4503,300.7375,91.0334,301.2967,91.3067,301.1078,91.7861,301.4167,92.2356,301.6534,92.3686,301.7085,92.3849,302.0667,92.6081,302.5106,92.7529,302.9221,92.9935,303.3732,93.1143,303.7747,93.194,303.7747,93.3095,308.5747,93.3379,313.3747,93.3407,318.1747,93.1991,322.9747,93.1143,327.7747,93.257,327.8338,93.1548,328.2885,92.5407,328.5312,92.796,329.134,92.32,329.4339,92.2356,329.896,92.3037,330.0604,91.7482,329.9193,91.3783,330.2264,91.0574,330.6516,90.5323,330.584,90.1143,330.7747,90.1143,330.88,80.1,331.1133,70.0857,331.1909,60.0714,330.7708,50.0571,331.0619,40.0428,330.2023,30.0286,331.0591,20.0143,331.3229,10,330.7747,10.0567,330.9116,9.6539,330.7878,9.0898,330.2745,8.644,330.0467,8.2237,329.8804,7.8787,329.896,7.8605,329.8885,7.6424,329.4467,7.7371,329.1344,7.2977,328.601,7.0701,328.1552,7,327.7747,7.0761,327.7747,6.7777,322.9747,6.827,318.1747,7.2163,313.3747,7.1452,308.5747,7,303.7747,7.2262,303.8684,7.0766,303.3094,7.4498,302.9669,7.709,302.5772,7.5575,302.0174,7.8787,301.6534,7.8665,301.6239,8.319,301.5164,8.8103,301.5026,9.1509,301.1249,9.6347,301.0929,10,300.7747" style="stroke:#FF6F00;stroke-width:2;"/><polygon fill="#ADD1B2" points="31.0552,318.2071,29.5894,320.21,27.8556,323.1435,25.376,325.1205,22.7703,326.2016,20.6927,326.2955,18.0224,324.9434,15.5029,324.0601,13.5905,322.2667,12.5873,320.2136,11.9924,318.5788,11.4096,316.4435,10.4636,314.606,11.1906,312.812,11.8275,310.8467,14.2175,309.2924,15.8991,307.2757,17.9804,306.606,20.4547,306.0293,23.6276,306.3719,25.3655,307.1916,27.3861,307.5631,29.8429,310.0801,30.6993,312.7374,31.0714,314.5505,30.65,317.5382" style="stroke:#181818;stroke-width:1;"/><path d="M22.8594,320.0091 Q22.4219,320.2278 21.9219,320.3372 Q21.4375,320.4622 20.9063,320.4622 Q18.9844,320.4622 17.9688,319.1966 Q16.9688,317.931 16.9688,315.5403 Q16.9688,313.1497 17.9688,311.8841 Q18.9844,310.6185 20.9063,310.6185 Q21.4375,310.6185 21.9375,310.7435 Q22.4375,310.8528 22.8594,311.0872 L22.8594,313.1653 Q22.375,312.7278 21.9219,312.5247 Q21.4688,312.306 20.9844,312.306 Q19.9688,312.306 19.4375,313.1341 Q18.9063,313.9466 18.9063,315.5403 Q18.9063,317.1497 19.4375,317.9622 Q19.9688,318.7747 20.9844,318.7747 Q21.4688,318.7747 21.9219,318.5716 Q22.375,318.3685 22.8594,317.9153 L22.8594,320.0091 Z " fill="#FFFFFF"/><text fill="#FFFFFF" font-family="'Roboto'" font-size="13" lengthAdjust="spacing" textLength="52.1143" x="36" y="320.2752">Persona</text></a></g><!--class StoryConceptRelationship--><g class="entity" data-qualified-name="StoryConceptRelationship" data-source-line="92" id="ent0022"><polygon fill="#4051B5" points="183.81,300.7747,183.81,300.9849,193.6346,300.3604,203.4592,300.968,213.2838,301.1744,223.1084,300.0613,232.933,300.697,242.7577,300.3482,252.5823,300.3912,262.4069,300.7065,272.2315,300.0833,282.0561,301.3283,291.8807,300.1444,301.7053,300.5769,311.5299,301.2067,321.3545,300.6889,331.1791,300.8429,341.0037,300.7428,350.8284,300.9532,360.653,301.0138,370.4776,301.3604,380.3022,300.7747,380.3878,300.9814,380.8131,301.1596,381.1832,301.2046,381.6341,301.4447,382.0888,301.6939,382.4235,301.6534,382.2014,301.5614,382.8082,302.1642,382.6837,302.4641,383.1151,302.9943,382.974,303.2873,383.3022,303.7747,383.2794,303.7747,383.5494,308.5747,383.2859,313.3747,383.3373,318.1747,383.4151,322.9747,383.3022,327.7747,383.4304,327.8278,383.1252,328.1985,383.0392,328.6599,382.5987,328.9745,382.6868,329.508,382.4235,329.896,382.4934,330.0648,382.0559,330.2087,381.6532,330.4363,381.0891,330.2745,380.6433,330.3981,380.3022,330.7747,380.3022,330.1533,370.4776,330.7158,360.653,330.5782,350.8284,331.4561,341.0037,330.6,331.1791,330.4317,321.3545,331.003,311.5299,330.1079,301.7053,330.2556,291.8807,331.4237,282.0561,331.2104,272.2315,331.5092,262.4069,330.4529,252.5823,331.0939,242.7577,331.3651,232.933,330.3023,223.1084,330.6788,213.2838,330.9007,203.4592,331.4265,193.6346,330.7705,183.81,330.7747,183.869,330.9172,183.3151,330.4284,182.8751,330.2147,182.6014,330.4026,182.0215,329.851,181.6887,329.896,181.8454,329.9609,181.5766,329.4981,181.2547,329.0133,181.0525,328.5781,181.127,328.2575,180.81,327.7747,180.7102,327.7747,181.0073,322.9747,180.6258,318.1747,181.0158,313.3747,180.9714,308.5747,180.81,303.7747,180.8854,303.806,181.0003,303.3565,181.3852,303.0189,181.5262,302.5802,181.5651,302.0992,181.6887,301.6534,181.7229,301.736,182.0963,301.4375,182.6286,301.5226,182.9812,301.1739,183.4077,301.0036,183.81,300.7747" style="stroke:#FF6F00;stroke-width:2;"/><polygon fill="#ADD1B2" points="204.8652,318.2071,203.3994,320.21,201.6656,323.1435,199.186,325.1205,196.5803,326.2016,194.5027,326.2955,191.8324,324.9434,189.3129,324.0601,187.4005,322.2667,186.3973,320.2136,185.8024,318.5788,185.2196,316.4435,184.2736,314.606,185.0006,312.812,185.6375,310.8467,188.0275,309.2924,189.7091,307.2757,191.7904,306.606,194.2647,306.0293,197.4376,306.3719,199.1755,307.1916,201.1961,307.5631,203.6529,310.0801,204.5093,312.7374,204.8814,314.5505,204.46,317.5382" style="stroke:#181818;stroke-width:1;"/><path d="M196.6694,320.0091 Q196.2319,320.2278 195.7319,320.3372 Q195.2475,320.4622 194.7163,320.4622 Q192.7944,320.4622 191.7788,319.1966 Q190.7788,317.931 190.7788,315.5403 Q190.7788,313.1497 191.7788,311.8841 Q192.7944,310.6185 194.7163,310.6185 Q195.2475,310.6185 195.7475,310.7435 Q196.2475,310.8528 196.6694,311.0872 L196.6694,313.1653 Q196.185,312.7278 195.7319,312.5247 Q195.2788,312.306 194.7944,312.306 Q193.7788,312.306 193.2475,313.1341 Q192.7163,313.9466 192.7163,315.5403 Q192.7163,317.1497 193.2475,317.9622 Q193.7788,318.7747 194.7944,318.7747 Q195.2788,318.7747 195.7319,318.5716 Q196.185,318.3685 196.6694,317.9153 L196.6694,320.0091 Z " fill="#FFFFFF"/><text fill="#FFFFFF" font-family="'Roboto'" font-size="13" lengthAdjust="spacing" textLength="168.4922" x="209.81" y="320.2752">StoryConceptRelationship</text></g><!--reverse link UseCase to Story--><g class="link" data-entity-1="ent0002" data-entity-2="ent0004" data-link-type="composition" data-source-line="78" id="lnk12"><path d="M337.5055,43.7411 L337.5408,43.8276 L335.233,44.4687 L333.1319,45.6168 L330.9636,46.5998 L328.5738,47.0398 L326.4905,48.2315 L326.4759,48.2002 L324.2828,49.0546 L322.1635,50.0666 L320.0955,51.1883 L317.8508,51.9322 L315.8536,53.2053 L315.9715,53.4212 L313.6714,54.0779 L311.7156,55.3651 L309.8019,56.7293 L307.6437,57.6458 L305.6141,58.7978 L305.6305,58.8232 L303.6418,60.0551 L301.7281,61.403 L299.7782,62.6949 L297.8973,64.0935 L295.7915,65.1442 L295.9736,65.3804 L294.0986,66.8304 L292.1061,68.1281 L290.2856,69.6487 L288.4731,71.1799 L286.4054,72.3798 L286.1877,72.1445 L284.8241,74.2532 L282.7438,75.5871 L281.2083,77.51 L279.1117,78.8264 L277.4751,80.6399 L277.4524,80.6196 L276.0294,82.7441 L274.077,84.3934 L272.4369,86.3231 L270.8231,88.2764 L269.0201,90.0598 L269.1686,90.1701 L267.4267,92.2017 L265.9386,94.4219 L264.0398,96.337 L262.7535,98.7071 L261.06,100.7747 L261.2728,100.8934 L259.8807,103.2946 L258.5942,105.7547 L256.8169,107.9411 L255.3995,110.3281 L254.3007,112.8929 L254.0423,112.7955 L253.2883,115.5051 L252.2431,118.1049 L251.6203,120.8639 L250.2763,123.3511 L249.3609,125.9999 L249.2129,125.9633 L248.786,128.754 L247.7263,131.3885 L247.1166,134.134 L246.9472,136.9882 L245.9938,139.6489 L246.1853,139.6773 L245.9084,142.4458 L245.0358,145.1257 L244.9093,147.9165 L244.6203,150.6831 L243.9525,153.3935 L243.7431,153.3784 L243.7176,156.0691 L243.6235,158.7548 L243.6641,161.4503 L243.1809,164.1081 L242.9903,166.7869 L243.1958,166.789 L242.7182,169.3035 L242.6373,171.8221 L243.1361,174.3467 L242.5677,176.8602 L242.8603,179.3827 L243.0863,179.3917 L243.0432,181.6566 L242.9235,183.9185 L242.9765,186.1872 L243.4284,188.472 L243.3158,190.7341 L243.1832,190.7232 L243.7368,192.6878 L243.3887,194.5782 L244.0658,196.553 L244.1657,198.4802 L244.11,200.3947" fill="none" style="stroke:#FF6F00;stroke-width:2;"/><polygon fill="#FF6F00" points="348.71,39.4447,348.7254,39.513,347.2727,38.9927,345.9104,38.8729,344.5187,38.6227,343.0302,37.9434,341.6756,37.8581,341.6545,37.8431,340.7256,38.9525,339.9033,40.1374,339.155,41.3748,338.1515,42.4313,337.5055,43.7411,337.5461,43.9212,338.8662,43.8535,340.3048,44.3115,341.7578,44.8336,343.1267,44.9825,344.5399,45.3278,344.5585,45.3409,345.3652,44.145,346.2565,43.0089,347.107,41.844,348.0353,40.7342,348.71,39.4447" style="stroke:#FF6F00;stroke-width:2;"/><text fill="#FFFFFF" font-family="'Roboto'" font-size="13" lengthAdjust="spacing" textLength="33.5981" x="264.06" y="120.3416">owns</text><text fill="#FFFFFF" font-family="'Roboto'" font-size="13" lengthAdjust="spacing" textLength="8.271" x="330.8677" y="57.2228">1</text><text fill="#FFFFFF" font-family="'Roboto'" font-size="13" lengthAdjust="spacing" textLength="23.0356" x="214.3838" y="187.8624">0..*</text></g><!--reverse link UseCase to WorkflowDefinition--><g class="link" data-entity-1="ent0002" data-entity-2="ent0005" data-link-type="composition" data-source-line="79" id="lnk13"><path d="M394.06,52.0747 L394.3402,52.0747 L393.5076,61.7627 L394.3177,71.4507 L394.5929,81.1387 L393.1088,90.8267 L394.06,100.5147" fill="none" style="stroke:#FF6F00;stroke-width:2;"/><polygon fill="#FF6F00" points="394.06,40.0747,394.1183,40.1136,393.1451,41.1981,392.5136,42.5104,391.7709,43.7486,390.6621,44.7428,390.06,46.0747,390.0384,46.0603,390.7417,47.1958,391.5536,48.4038,392.4411,49.6621,393.0682,50.7469,394.06,52.0747,394.2136,52.1771,394.6852,50.7582,395.6051,49.6381,396.5798,48.5546,397.2362,47.2588,398.06,46.0747,398.0789,46.0873,397.2511,44.8688,396.5095,43.7077,395.7263,42.5189,395.0224,41.383,394.06,40.0747" style="stroke:#FF6F00;stroke-width:2;"/><text fill="#FFFFFF" font-family="'Roboto'" font-size="13" lengthAdjust="spacing" textLength="33.5981" x="397.06" y="74.8416">owns</text><text fill="#FFFFFF" font-family="'Roboto'" font-size="13" lengthAdjust="spacing" textLength="8.271" x="382.2639" y="61.7569">1</text><text fill="#FFFFFF" font-family="'Roboto'" font-size="13" lengthAdjust="spacing" textLength="23.0356" x="364.765" y="87.7105">0..*</text></g><!--reverse link Concept to Term--><g class="link" data-entity-1="ent0008" data-entity-2="ent0010" data-link-type="composition" data-source-line="80" id="lnk14"><path d="M458.06,434.0747 L458.3402,434.0747 L457.5076,443.7627 L458.3177,453.4507 L458.5929,463.1387 L457.1088,472.8267 L458.06,482.5147" fill="none" style="stroke:#FF6F00;stroke-width:2;"/><polygon fill="#FF6F00" points="458.06,422.0747,458.1183,422.1136,457.1451,423.1981,456.5136,424.5104,455.7709,425.7486,454.6621,426.7428,454.06,428.0747,454.0384,428.0603,454.7417,429.1958,455.5536,430.4038,456.4411,431.6621,457.0682,432.7469,458.06,434.0747,458.2136,434.1771,458.6852,432.7582,459.6051,431.6381,460.5798,430.5546,461.2362,429.2588,462.06,428.0747,462.0789,428.0873,461.2511,426.8688,460.5095,425.7077,459.7263,424.5189,459.0224,423.383,458.06,422.0747" style="stroke:#FF6F00;stroke-width:2;"/><text fill="#FFFFFF" font-family="'Roboto'" font-size="13" lengthAdjust="spacing" textLength="33.5981" x="461.06" y="456.8416">owns</text><text fill="#FFFFFF" font-family="'Roboto'" font-size="13" lengthAdjust="spacing" textLength="8.271" x="446.2663" y="443.7569">1</text><text fill="#FFFFFF" font-family="'Roboto'" font-size="13" lengthAdjust="spacing" textLength="23.0356" x="428.7646" y="469.7105">1..*</text></g><!--link UseCase to UseCaseStereotype--><g class="link" data-entity-1="ent0002" data-entity-2="ent0003" data-link-type="dependency" data-source-line="83" id="lnk15"><path d="M348.68,25.7547 L348.682,25.8481 L343.1042,25.6882 L337.538,26.0757 L331.968,26.285 L326.3856,25.9079 L320.8204,26.3425 L320.8192,26.3079 L317.7413,26.257 L314.6694,26.3801 L311.6015,26.6242 L308.5195,26.4514 L305.4572,26.8625 L305.468,27.1083 L302.2385,26.7236 L299.0405,27.0566 L295.8463,27.4772 L292.6298,27.3883 L289.425,27.5674 L289.4267,27.5976 L286.1269,27.7363 L282.8348,28.0128 L279.539,28.2227 L276.2503,28.5596 L272.9385,28.4828 L272.959,28.7803 L269.6141,29.0143 L266.256,29.0563 L262.9172,29.3793 L259.5793,29.7154 L256.2127,29.6344 L256.1858,29.315 L252.888,30.2175 L249.5015,30.0684 L246.1825,30.7188 L242.794,30.5458 L239.4624,31.0477 L239.4593,31.0174 L236.1841,31.7157 L232.8362,31.7065 L229.5313,32.1147 L226.2299,32.558 L222.9025,32.7485 L222.9254,32.932 L219.6713,33.1495 L216.4564,33.6806 L213.1782,33.7042 L209.9944,34.4849 L206.7478,34.7622 L206.7843,35.0031 L203.6705,35.428 L200.5748,35.9725 L197.3949,35.9613 L194.2767,36.3575 L191.2132,37.1146 L191.163,36.843 L188.2685,37.6322 L185.3175,38.1153 L182.4485,39.0423 L179.4394,39.2115 L176.5136,39.8312 L176.4797,39.6825 L173.8061,40.5514 L170.9879,40.7848 L168.2725,41.4701 L165.6577,42.5976 L162.8638,42.9377 L162.9167,43.1239 L160.476,43.9561 L157.8706,44.2089 L155.4715,45.1873 L153.0274,46.0077 L150.4786,46.4596 L150.4069,46.2623 L148.283,47.2122 L146.1355,48.0975 L144.0342,49.1098 L141.7535,49.6284 L139.573,50.4227 L139.6744,50.6016 L136.1491,52.079 L132.8195,53.9016 L129.7755,56.2287 L126.2056,57.627 L123.06,59.7747 L123.2234,59.9311 L121.6173,61.4143 L119.9559,62.8444 L118.4193,64.3941 L117.171,66.2199 L115.5147,67.6549 L115.3993,67.5888 L114.7609,69.4998 L113.3375,70.961 L112.8067,72.9337 L111.7734,74.6184 L110.6046,76.2255 L110.7106,76.2505 L109.7509,79.9344 L109.1707,83.7079 L108.2478,87.4005 L107.1815,91.0593 L106.2342,94.7462" fill="none" style="stroke:#FF6F00;stroke-width:2;"/><polygon fill="#FF6F00" points="105.62,100.7147,105.6808,100.7496,106.4803,98.9373,107.636,97.3295,108.6757,95.655,109.3339,93.7618,110.5203,92.1714,110.5039,92.1514,109.5529,92.7751,108.6842,93.5001,107.8729,94.2955,106.8641,94.8483,106.1318,95.741,106.275,95.8574,105.2549,94.7307,104.6529,93.944,104.1018,93.1988,103.254,92.2122,102.5623,91.3525,102.5839,91.3596,103.1637,93.2217,103.842,95.1159,104.4727,96.9946,105.194,98.9029,105.62,100.7147" style="stroke:#FF6F00;stroke-width:2;"/><text fill="#FFFFFF" font-family="'Roboto'" font-size="13" lengthAdjust="spacing" textLength="94.6626" x="126.06" y="74.8416">hasStereotype</text><text fill="#FFFFFF" font-family="'Roboto'" font-size="13" lengthAdjust="spacing" textLength="24.8066" x="314.3864" y="19.6328">0..1</text><text fill="#FFFFFF" font-family="'Roboto'" font-size="13" lengthAdjust="spacing" textLength="8.271" x="93.8654" y="87.6681">1</text></g><!--link UseCase to OutcomeRelationship--><g class="link" data-entity-1="ent0002" data-entity-2="ent0007" data-link-type="dependency" data-source-line="84" id="lnk16"><path d="M417.98,40.1447 L418.0317,40.2225 L419.5139,41.0797 L421.2994,42.3928 L422.9862,43.5575 L424.3481,44.2339 L426.1596,45.5861 L426.1398,45.5579 L427.81,46.6646 L429.5802,47.9138 L431.4199,49.2622 L433.0201,50.269 L434.9558,51.7542 L435.1027,51.9516 L436.626,52.8969 L438.5782,54.4184 L440.5828,56.0103 L442.2829,57.1931 L444.1431,58.591 L444.162,58.6147 L446.0049,60.0694 L447.9338,61.6321 L449.8212,63.1426 L451.7878,64.7526 L453.4963,66.0385 L453.6908,66.2645 L455.5519,67.8673 L457.2875,69.3243 L459.2068,70.9947 L461.1348,72.6751 L462.7899,74.0386 L462.57,73.8054 L464.7985,75.9569 L466.3029,77.3406 L468.3579,79.308 L469.8459,80.6743 L471.7986,82.5333 L471.7765,82.5123 L473.7371,84.5468 L475.1823,86.0909 L476.9316,87.9244 L478.7064,89.7822 L480.2971,91.4647 L480.4392,91.5832 L481.8483,93.3256 L483.5003,95.2704 L484.7594,96.8878 L486.6045,98.9936 L488.06,100.7747 L488.2596,100.9144 L489.8211,103.1727 L491.4818,105.5004 L492.682,107.5057 L494.2197,109.7474 L496.0564,112.1983 L495.817,112.0607 L497.3209,114.4248 L498.555,116.6338 L500.1805,119.0678 L501.1378,121.1177 L502.4923,123.396 L502.3547,123.3304 L503.6209,125.615 L504.2989,127.6192 L505.3952,129.8229 L506.9008,132.2217 L507.6775,134.273 L507.857,134.3458 L508.8289,136.4881 L509.2428,138.4039 L510.3557,140.6034 L511.3163,142.741 L511.9221,144.7347" fill="none" style="stroke:#FF6F00;stroke-width:2;"/><polygon fill="#FF6F00" points="514.05,150.3447,514.12,150.3486,514.0217,148.3703,514.3336,146.4149,514.5119,144.452,514.2511,142.4646,514.5981,140.5111,514.5745,140.5005,514.0042,141.4845,513.553,142.5221,513.1846,143.597,512.5308,144.5434,512.2767,145.6697,512.3525,145.838,511.1588,145.0139,510.1862,144.6811,509.2406,144.4082,508.1381,143.7865,507.1181,143.3483,507.1343,143.3644,508.4969,144.7401,509.9331,146.1888,511.3339,147.6023,512.8023,149.0828,514.05,150.3447" style="stroke:#FF6F00;stroke-width:2;"/><text fill="#FFFFFF" font-family="'Roboto'" font-size="13" lengthAdjust="spacing" textLength="83.6748" x="472.06" y="74.8416">outcomeLink</text><text fill="#FFFFFF" font-family="'Roboto'" font-size="13" lengthAdjust="spacing" textLength="23.0356" x="431.4452" y="61.8484">0..*</text><text fill="#FFFFFF" font-family="'Roboto'" font-size="13" lengthAdjust="spacing" textLength="23.0356" x="483.387" y="137.7971">0..*</text></g><!--link OutcomeRelationship to Outcome--><g class="link" data-entity-1="ent0007" data-entity-2="ent0006" data-link-type="dependency" data-source-line="85" id="lnk17"><path d="M517.1,180.9147 L517.1924,180.9286 L516.3252,184.8332 L515.9995,188.8191 L515.4975,192.7785 L514.4156,196.6509 L514.1364,200.6438 L514.1023,200.6382 L513.1288,205.6062 L512.3272,210.6025 L511.6449,215.6184 L510.5511,220.5667 L510.0338,225.6097 L510.276,225.6529 L509.2724,228.2862 L508.9761,231.0456 L508.7661,233.8203 L508.054,236.5056 L507.606,239.2379 L507.6358,239.2436 L507.0617,242.0263 L506.6232,244.8348 L506.1193,247.6309 L505.7403,250.4507 L504.9542,253.1931 L505.2464,253.2529 L504.6789,256.0446 L503.9229,258.7977 L503.4428,261.6073 L502.9757,264.4195 L502.0988,267.1479 L501.786,267.0781 L501.7854,269.9389 L500.7547,272.5699 L500.5071,275.3756 L499.453,278.0015 L499.06,280.7747 L499.0305,280.767 L498.6564,283.6182 L497.5941,286.2893 L496.9379,289.0667 L496.3158,291.853 L495.4477,294.5749" fill="none" style="stroke:#FF6F00;stroke-width:2;"/><polygon fill="#FF6F00" points="493.7,300.3147,493.753,300.3606,494.8852,298.7354,496.328,297.3791,497.6696,295.9352,498.6788,294.2034,500.1481,292.8701,500.1359,292.8473,499.0829,293.277,498.0913,293.8219,497.1424,294.4469,496.0464,294.7959,495.1564,295.5315,495.3193,295.6184,494.4388,294.4343,494.0337,293.5038,493.6867,292.6043,493.0021,291.5247,492.4951,290.5398,492.5176,290.5426,492.7255,292.4935,493.0361,294.4571,493.2971,296.4145,493.6528,298.3836,493.7,300.3147" style="stroke:#FF6F00;stroke-width:2;"/><text fill="#FFFFFF" font-family="'Roboto'" font-size="13" lengthAdjust="spacing" textLength="99.0869" x="516.06" y="220.3416">targetOutcome</text></g><!--link UseCase to ConceptVocabulary--><g class="link" data-entity-1="ent0002" data-entity-2="ent0009" data-link-type="dependency" data-source-line="86" id="lnk18"><path d="M439.37,30.6447 L439.3821,30.7373 L442.7657,30.9099 L446.2203,31.6255 L449.6519,32.1642 L453.0072,32.1215 L456.468,32.8836 L456.463,32.8495 L460.0659,33.2258 L463.694,33.7745 L467.3395,34.4429 L470.9248,34.6986 L474.5945,35.5324 L474.6347,35.7751 L478.2373,35.8668 L481.9573,36.6672 L485.6915,37.5541 L489.3425,37.9379 L493.0372,38.5863 L493.0429,38.6161 L496.6439,39.2633 L500.2708,40.0461 L503.8851,40.7635 L507.5234,41.6057 L511.0837,42.041 L511.1499,42.3318 L514.5383,43.1055 L517.884,43.6916 L521.2922,44.5523 L524.7033,45.4259 L528.0217,45.8917 L527.9351,45.5831 L531.1265,47.0305 L534.0328,47.4617 L537.1559,48.6655 L540.0558,49.0736 L543.1386,50.1339 L543.1281,50.1054 L545.7691,51.3691 L548.1645,51.9653 L550.7049,52.9554 L553.2574,53.9785 L555.7222,54.7631 L555.8096,54.9261 L557.5889,55.7639 L559.5177,56.8802 L561.2046,57.5459 L563.2522,58.8838 L565.06,59.7747 L565.21,59.9667 L567.5356,61.7702 L569.9357,63.669 L571.9897,65.125 L574.2974,66.9056 L576.8299,68.9738 L576.6378,68.7753 L578.9416,71.016 L581.0289,73.0331 L583.4302,75.3745 L585.2955,77.1622 L587.4794,79.279 L587.3634,79.1801 L589.4737,81.593 L591.088,83.5832 L593.055,85.874 L595.3671,88.4591 L597.0647,90.5202 L597.2223,90.6327 L599.0458,93.1114 L600.3793,95.2399 L602.3265,97.8069 L604.1401,100.2784 L605.642,102.5273 L605.4624,102.4186 L607.1306,105.0259 L608.7401,107.5975 L610.4651,110.2391 L611.7407,112.6088 L613.2674,115.1303 L613.45,115.2247 L614.3946,117.6232 L615.6917,120.2037 L617.5039,123.0504 L618.3679,125.4072 L619.9969,128.1592 L620.2037,128.2509 L621.2588,130.8533 L622.244,133.4248 L623.3871,136.0662 L624.8952,138.8695 L625.8868,141.4438 L625.7625,141.3963 L627.1538,144.2117 L627.6999,146.7042 L629.207,149.5638 L630.173,152.2168 L630.9932,154.8141 L631.0966,154.8481 L631.8889,157.4778 L633.0515,160.2295 L633.8796,162.871 L634.5678,165.4663 L635.3722,168.1 L635.4868,168.1326 L636.058,170.6904 L637.1615,173.3997 L637.663,175.9377 L638.4121,178.5461 L639.0799,181.1314 L638.8173,181.067 L639.5235,183.6099 L640.5461,186.2304 L641.121,188.7411 L641.5355,191.2125 L642.1726,193.7384 L642.0325,193.7088 L642.5841,196.1208 L642.8876,198.4804 L643.8731,200.9839 L644.5211,203.4162 L644.7062,205.7508 L644.9364,205.7924 L645.4163,208.0552 L645.4587,210.2391 L645.9629,212.5063 L646.1614,214.7184 L646.737,216.9986 L646.8618,217.0177 L647.1623,219.0778 L647.6134,221.1611 L647.5866,223.1709 L647.9453,225.2399 L648.3212,227.3116 L648.5169,227.3351 L648.9821,230.77 L648.9161,234.1413 L649.4672,237.5864 L650.0292,241.0329 L650.3739,244.4534" fill="none" style="stroke:#FF6F00;stroke-width:2;"/><polygon fill="#FF6F00" points="650.96,250.4247,651.0265,250.4468,651.4492,248.5117,652.2618,246.7059,652.9474,244.858,653.2156,242.8716,654.0616,241.077,654.0416,241.0605,653.2338,241.8611,652.5268,242.7445,651.89,243.6855,651.0115,244.428,650.4715,245.4486,650.5887,245.5912,649.4639,244.5682,648.6811,243.9616,647.9399,243.4058,646.9561,242.5544,646.0999,241.8585,646.1197,241.8697,647.0627,243.5665,648.0957,245.3144,649.0853,247.0376,650.1578,248.8078,650.96,250.4247" style="stroke:#FF6F00;stroke-width:2;"/><text fill="#FFFFFF" font-family="'Roboto'" font-size="13" lengthAdjust="spacing" textLength="107.396" x="622.06" y="120.3416">references/owns</text><text fill="#FFFFFF" font-family="'Roboto'" font-size="13" lengthAdjust="spacing" textLength="23.0356" x="449.2749" y="25.2327">0..*</text><text fill="#FFFFFF" font-family="'Roboto'" font-size="13" lengthAdjust="spacing" textLength="23.0356" x="621.3131" y="237.5918">0..*</text></g><!--reverse link ConceptVocabulary to Concept--><g class="link" data-entity-1="ent0009" data-entity-2="ent0008" data-link-type="aggregation" data-source-line="87" id="lnk19"><path d="M622.2755,288.1139 L622.4387,288.3418 L613.9534,293.3972 L606.425,299.788 L598.585,305.7439 L589.7203,310.2698 L582.2136,316.691 L573.9425,322.0453 L565.9755,327.8241 L558.2201,333.8982 L549.7358,338.955 L542.7024,346.0366 L533.7827,350.4857 L526.1182,356.6868 L518.607,363.1015 L510.2046,368.2727 L502.3239,374.1719 L494.2458,379.7956 L486.4089,385.7559 L478.27,391.2947" fill="none" style="stroke:#FF6F00;stroke-width:2;"/><polygon fill="none" points="632.03,281.1247,632.0324,281.1947,630.5839,281.0353,629.1494,281.2863,627.7103,281.4037,626.2564,281.0815,624.823,281.3678,624.7988,281.3587,624.1805,282.6668,623.6844,284.0211,623.2732,285.4075,622.5694,286.6833,622.2755,288.1139,622.2817,288.2984,623.7098,287.8554,625.1561,287.9508,626.6045,288.112,628.0401,287.8909,629.4825,287.8708,629.5038,287.8789,629.982,286.5178,630.5572,285.1934,631.0856,283.8513,631.7031,282.5429,632.03,281.1247" style="stroke:#FF6F00;stroke-width:2;"/><text fill="#FFFFFF" font-family="'Roboto'" font-size="13" lengthAdjust="spacing" textLength="55.0278" x="605.06" y="320.3416">contains</text><text fill="#FFFFFF" font-family="'Roboto'" font-size="13" lengthAdjust="spacing" textLength="8.271" x="614.101" y="302.8222">1</text><text fill="#FFFFFF" font-family="'Roboto'" font-size="13" lengthAdjust="spacing" textLength="23.0356" x="455.3327" y="378.7318">0..*</text></g><!--link Story to Persona--><g class="link" data-entity-1="ent0004" data-entity-2="ent0011" data-link-type="dependency" data-source-line="90" id="lnk20"><path d="M211.45,219.3847 L211.4591,219.4777 L207.8142,219.5565 L204.2228,220.1803 L200.614,220.6267 L196.9479,220.4894 L193.3611,221.1601 L193.3571,221.1257 L189.3549,221.4334 L185.3727,221.914 L181.4045,222.5148 L177.3882,222.7013 L173.4392,223.4681 L173.473,223.7119 L169.2485,223.767 L165.1227,224.5336 L161.0089,225.3871 L156.8251,225.7355 L152.6781,226.3495 L152.6829,226.3795 L150.5989,226.6692 L148.5367,227.0952 L146.464,227.4554 L144.4115,227.9412 L142.2933,228.0178 L142.3457,228.3114 L140.302,228.6804 L138.2244,228.86 L136.1963,229.3168 L134.1706,229.7866 L132.0713,229.8447 L132.0044,229.5312 L128.2424,230.9695 L124.2602,231.3757 L120.4454,232.5665 L116.4583,232.9492 L112.6124,233.9943 L112.6042,233.965 L109.2378,235.2806 L105.6797,235.9112 L102.2347,236.946 L98.7992,238.0148 L95.2952,238.8388 L95.3629,239.0109 L92.4581,239.9531 L89.6691,241.1895 L86.6928,241.95 L83.9958,243.4204 L81.1131,244.4187 L81.2433,244.6247 L79.2081,245.8569 L77.2375,247.1914 L74.9665,248.0508 L72.9157,249.2585 L71.06,250.7747 L70.8532,250.5917 L69.2665,252.7624 L67.4469,254.7268 L65.9652,256.9904 L63.9064,258.7433 L62.1907,260.7997 L62.0558,260.7286 L61.1267,263.0351 L59.621,265.0375 L58.5254,267.2562 L57.8308,269.6863 L56.422,271.7398 L56.6075,271.7951 L56.0584,274.1021 L54.9322,276.237 L54.5288,278.5874 L53.968,280.8908 L53.0401,283.0849 L52.8326,283.0533 L52.6563,285.3265 L52.412,287.5893 L52.3013,289.8724 L51.6713,292.0766 L51.3314,294.3249" fill="none" style="stroke:#FF6F00;stroke-width:2;"/><polygon fill="#FF6F00" points="50.73,300.2947,50.7908,300.3294,51.5865,298.5155,52.7388,296.9052,53.7749,295.2285,54.4291,293.3339,55.612,291.741,55.5956,291.7209,54.6459,292.3467,53.7788,293.0736,52.9692,293.8707,51.9616,294.4256,51.2312,295.3199,51.3741,295.4366,50.3527,294.3108,49.7486,293.5259,49.1954,292.7825,48.346,291.7971,47.6523,290.9391,47.6739,290.9462,48.2577,292.8069,48.9399,294.6999,49.5746,296.5774,50.2999,298.4846,50.73,300.2947" style="stroke:#FF6F00;stroke-width:2;"/><text fill="#FFFFFF" font-family="'Roboto'" font-size="13" lengthAdjust="spacing" textLength="97.627" x="74.06" y="270.3416">story:playedBy</text></g><!--link Story to Outcome--><g class="link" data-entity-1="ent0004" data-entity-2="ent0006" data-link-type="dependency" data-source-line="91" id="lnk21"><path d="M280.55,227.0647 L280.5824,227.1523 L283.0257,227.8304 L285.6588,229.022 L288.2301,230.0465 L290.5981,230.5208 L293.2475,231.7566 L293.2342,231.7247 L295.8189,232.6873 L298.4708,233.8106 L301.1693,235.0455 L303.707,235.8956 L306.47,237.2847 L306.577,237.5063 L308.9762,238.3016 L311.6878,239.7438 L314.4375,241.265 L316.9654,242.3269 L319.61,243.6303 L319.6251,243.6566 L322.0929,245.0469 L324.6295,246.5569 L327.1329,248.0091 L329.6996,249.5716 L332.06,250.7747 L332.2479,251.0063 L334.1604,252.5592 L335.9516,253.9627 L337.9202,255.5849 L339.8972,257.2173 L341.6106,258.525 L341.363,258.3215 L343.0915,260.2354 L344.0046,261.4792 L345.5376,263.2324 L346.4321,264.4611 L347.85,266.1197 L347.8269,266.0999 L349.3694,267.8183 L350.3713,269.0745 L351.6922,270.6034 L353.0399,272.1552 L354.1944,273.5419 L354.3038,273.6911 L356.1665,274.9871 L358.2161,276.538 L359.9633,277.6764 L362.1616,279.4301 L364.06,280.7747 L364.1736,280.9902 L365.9538,281.8995 L367.7903,282.9157 L369.3647,283.4348 L371.1312,284.3184 L373.068,285.5248 L372.9509,285.2747 L374.8556,286.3432 L376.6283,287.1299 L378.5924,288.3254 L380.2297,288.8229 L382.0613,289.7353 L382.006,289.5932 L385.6946,291.2295 L389.1468,292.2585 L392.7671,293.7194 L396.5519,295.6029 L400.0438,296.7338 L400.0996,296.9192 L403.7468,298.1322 L407.2204,298.7685 L410.9114,300.1271 L414.555,301.3284 L418.0883,302.163 L418.0405,301.9585 L421.716,302.972 L425.3758,303.9185 L429.0664,304.9965 L432.6374,305.5631 L436.2752,306.4154" fill="none" style="stroke:#FF6F00;stroke-width:2;"/><polygon fill="#FF6F00" points="442.15,307.6347,442.1909,307.6916,440.4696,306.3734,438.9879,305.3888,437.4281,304.2956,435.6118,302.8452,434.1507,301.8892,434.129,301.875,434.6525,302.7571,435.2853,303.7108,435.9939,304.7144,436.4409,305.5463,437.2543,306.6186,437.3556,306.7729,436.1932,307.0637,435.3264,307.805,434.4957,308.6012,433.4551,309.0777,432.5249,309.7223,432.5298,309.7445,434.4477,309.2944,436.3876,308.9454,438.3169,308.5476,440.2664,308.243,442.15,307.6347" style="stroke:#FF6F00;stroke-width:2;"/><text fill="#FFFFFF" font-family="'Roboto'" font-size="13" lengthAdjust="spacing" textLength="126.8896" x="367.06" y="270.3416">story:contributesTo</text></g><!--link Story to StoryConceptRelationship--><g class="link" data-entity-1="ent0004" data-entity-2="ent0022" data-link-type="dependency" data-source-line="92" id="lnk23"><path d="M211.51,228.5447 L211.5612,228.6229 L208.5439,230.2656 L205.8265,232.3666 L203.0115,234.3183 L199.8754,235.7794 L197.1838,237.9197 L197.1576,237.8971 L194.8157,240.3667 L192.6054,242.9502 L190.4866,245.6129 L188.0524,248.0026 L186.06,250.7747 L186.2919,250.857 L184.7145,253.7283 L183.8142,256.8398 L182.9964,259.9807 L181.6981,262.951 L180.6525,266.011 L180.681,266.0214 L181.7207,268.9588 L182.89,271.9437 L183.9968,274.9058 L185.2229,277.9115 L186.06,280.7747 L186.2925,280.9615 L187.8819,282.9391 L189.3214,284.7963 L190.9803,286.8298 L192.6496,288.8715 L193.9928,290.6514 L193.8121,290.3867 L196.2385,292.3178 L198.0697,293.3773 L200.3533,295.0994 L202.1711,296.1391 L204.3707,297.7382" fill="none" style="stroke:#FF6F00;stroke-width:2;"/><polygon fill="#FF6F00" points="209.7,300.4947,209.7547,300.5385,208.3609,298.8708,207.2878,297.4599,206.1102,295.9654,204.5894,294.1959,203.5437,292.807,203.519,292.7992,203.7513,293.842,204.108,294.9245,204.5512,296.0345,204.6963,297.0496,205.2589,298.1976,205.3149,298.3734,204.1171,298.3404,203.0827,298.8208,202.0682,299.3639,200.9378,299.5425,199.8683,299.9128,199.8697,299.9355,201.8341,300.0185,203.8045,300.2049,205.772,300.3415,207.7452,300.5732,209.7,300.4947" style="stroke:#FF6F00;stroke-width:2;"/><text fill="#FFFFFF" font-family="'Roboto'" font-size="13" lengthAdjust="spacing" textLength="137.2744" x="189.06" y="270.3416">story:relatedConcept</text></g><!--link StoryConceptRelationship to Concept--><g class="link" data-entity-1="ent0022" data-entity-2="ent0008" data-link-type="dependency" data-source-line="93" id="lnk24"><path d="M310.73,331.2747 L310.8565,331.5248 L319.1973,335.1896 L328.2795,340.3204 L337.1203,344.9738 L345.1672,348.0572 L354.2663,353.2214 L362.773,357.2143 L371.5155,361.6733 L380.4219,366.4563 L388.7635,370.1226 L398.2292,376.0118 L406.2335,379.011 L415.2103,383.9334 L424.0459,388.5766" fill="none" style="stroke:#FF6F00;stroke-width:2;"/><polygon fill="#FF6F00" points="429.4,391.2847,429.4543,391.329,428.0478,389.6711,426.9596,388.2728,425.7678,386.79,424.2352,385.0291,423.1743,383.6531,423.1497,383.6451,423.392,384.6838,423.7584,385.7632,424.2111,386.8709,424.3665,387.8811,424.9383,389.0279,424.9958,389.2033,423.7978,389.1811,422.7678,389.6709,421.7583,390.2231,420.6295,390.4119,419.5635,390.7919,419.5646,390.8146,421.5303,390.8798,423.5011,391.0485,425.4694,391.1672,427.4425,391.3811,429.4,391.2847" style="stroke:#FF6F00;stroke-width:2;"/><text fill="#FFFFFF" font-family="'Roboto'" font-size="13" lengthAdjust="spacing" textLength="89.0767" x="389.06" y="365.8416">story:concept</text></g><!--link WorkflowDefinition to Story--><g class="link" data-entity-1="ent0005" data-entity-2="ent0004" data-link-type="dependency" data-source-line="94" id="lnk25"><path d="M332.52,131.2347 L332.5541,131.3217 L330.4393,131.8516 L328.5242,132.8914 L326.5441,133.7652 L324.3502,134.093 L322.4522,135.1766 L322.4378,135.1452 L320.3907,135.9134 L318.4163,136.8399 L316.4922,137.8764 L314.3944,138.5338 L312.54,139.7222 L312.6576,139.9384 L310.4987,140.5135 L308.6831,141.7197 L306.9094,143.003 L304.892,143.8382 L303.0028,144.9091 L303.0194,144.9344 L301.2065,146.0703 L299.4692,147.3217 L297.6954,148.5173 L295.9913,149.8192 L294.06,150.7747 L294.2646,150.9917 L292.6674,152.5024 L290.9382,153.873 L289.4022,155.4486 L287.8753,157.0337 L286.0615,158.3146 L285.8139,158.1111 L284.4738,160.722 L282.3182,162.6629 L280.7826,165.1131 L278.6086,167.0388 L276.9579,169.3944 L276.9332,169.3765 L275.3482,172.1687 L273.1879,174.5426 L271.367,177.1633 L269.5747,179.8047 L267.5767,182.2967 L267.7297,182.4006 L265.8091,184.8972 L264.1499,187.5714 L262.0676,189.9582 L260.6165,192.7736 L258.7457,195.3041" fill="none" style="stroke:#FF6F00;stroke-width:2;"/><polygon fill="#FF6F00" points="255.43,200.3047,255.4676,200.3638,257.0173,199.1301,258.7875,198.2429,260.4859,197.2428,261.9481,195.8718,263.7373,195.0143,263.7322,194.9889,262.6002,195.0996,261.4942,195.3383,260.4063,195.666,259.2562,195.687,258.1931,196.1375,258.374,196.1742,257.7625,194.987,257.6792,193.9068,257.6603,192.8396,257.2665,191.6965,257.0698,190.5933,257.0923,190.5971,256.7314,192.5338,256.4726,194.4878,256.1645,196.4334,255.9505,198.3949,255.43,200.3047" style="stroke:#FF6F00;stroke-width:2;"/><text fill="#FFFFFF" font-family="'Roboto'" font-size="13" lengthAdjust="spacing" textLength="117.6157" x="297.06" y="170.3416">workflow:firstStep</text></g><!--SRC=[hLLRRzem67ttht3fmxPA5BfU7dYOnAtTjAvKeLqrLLLbaYyGaTYHROHOjV- -pvU0WRJJfkK5StpE-VnTuXo8KcU2qndZoL9cMWEdMYw072IGPXnex-hvM_VBpND_T3sAg7qEpzhd9vFpa38UzaStWsxqm_DgABVT_jVkrN1jj4SPHODX5CQXXsbwaRRRQyhbwEPkYs0fvbbJkb4qUjZcL2v4pJDUCiaAEc7nV2h5WYTzaGk96JEkS0ku9kGTxOkYPB6cELk9XQOAjCxuL0K6jon94A8V0onoVfA3f1S1FfwnH2mDEsMvWc3dywe4cMTyViyJkm1N-ng6EsULoeQ01vyhAEbP27AHW05Fjv8UGCeMkQOlv59mVSCAe8r8J8GM3Oku49iQMt2S_GHwSaf-XKvTASKIVPmYA7dWKpN6ckXL3dWgMR2StCsoUCv1AIpUbckSCmHVI6-dELiJI7f2OgtyJZ0oVYDqhqsggxNC9WiDzRici_sqBFpgmN5MvcmAlh1xdl-OprO8fPc6FzRc_oNy5rKUQoPtUZwiZbS1MxcCJIurgXt6dWdHegHQK9nOBGgQP19YStUHMPO0BQ2OW5I4k35gt2leCmKDoXJrQ_hus8e5Zw7KhOM2PenOwn2hWc6cgwUd7UbOWmIXyGqCJJPeHHzh8LUMObTX56M0kX0FGixJN2m7vjRAJ1RMO1yEtPP-jyvmjD2nADn9_JgK2WUzeOmWPoQWccLbw1BYbQJlN2tDhyDWrMzDCC_-Bc8sMUJCrsqFhUXt80lBC8im13QXgFE_nH4Gd5cDNuUoqa5RIhplHqkyiqs2j4Knvr8eL_ltE8wwAT8Ff9gWnac37ZMRjD4-FZvg-8Ptg5XozHgdfgTUK9LkBJYn0fkhf-3XmWO4GT0SPStc9olV6quqc34L36ieFF92jwnfj0dlq6lyzf0wXZ6e1gr3yMsUWlR_tuYrrsdKIaZnb8YhLbYMW6Co59kALdNhOBEuPfchqxt2EvYuZfY8LVixrBw5dHA_vf3qLW5bStv7CNRkhbHt8k3PbO-wKoOdb0Q4n5F8gtnZvl4WfjNKZCawDCQftlrEcac57rGeVmC0]--></g></svg>