<svg xmlns="http://www.w3.org/2000/svg" xmlns:xlink="http://www.w3.org/1999/xlink" version="1.1" data-diagram-type="CLASS" style="width:321px;height:255px;" width="321px" height="255px" viewBox="0 0 321 255" zoomAndPan="magnify" preserveAspectRatio="none" contentStyleType="text/css"><?plantuml 1.2026.7beta6?><defs/><g font-family="sans-serif" lengthAdjust="spacing"><polygon points="5.5,3,5.5,3.21,15.5,2.586,25.5,3.193,35.5,3.4,45.501,2.287,55.501,2.922,65.501,2.574,75.501,2.617,85.501,2.932,95.501,2.309,105.502,3.554,115.502,2.37,125.502,2.802,135.502,3.432,145.502,2.914,155.502,3.068,165.503,2.968,175.503,3.179,185.503,3.239,195.503,3.586,205.503,3.671,215.503,3.679,225.504,3.255,235.504,3.464,245.504,3.702,255.504,2.279,265.504,3.679,275.504,2.703,285.505,3.534,295.505,2.505,305.505,3,305.496,2.979,305.953,3.375,306.206,3.278,306.579,3.472,306.962,3.69,307.273,3.732,307.401,3.785,307.418,4.085,307.654,4.476,307.536,4.72,307.946,5.183,308.005,5.5,308.188,5.5,308.153,7.828,308.209,10.156,307.844,12.484,307.787,14.813,308.005,17.141,307.814,17.061,307.84,17.487,307.651,17.823,307.775,18.288,307.365,18.533,307.273,18.908,307.229,18.803,306.948,19.125,306.48,18.996,306.146,19.188,305.941,19.694,305.505,19.641,305.505,20.076,295.505,20.375,285.505,19.319,275.504,19.96,265.504,20.231,255.504,19.168,245.504,19.545,235.504,19.767,225.504,20.292,215.503,19.636,205.503,20.103,195.503,19.087,185.503,18.963,175.503,20.144,165.503,18.924,155.502,20.15,145.502,19.847,135.502,19.373,125.502,19.287,115.502,20.099,105.502,19.341,95.501,20.232,85.501,19.088,75.501,20.258,65.501,20.125,55.501,19.886,45.501,19.688,35.5,20.367,25.5,20.254,15.5,19.81,5.5,19.641,5.534,19.723,5.13,19.454,4.884,19.568,4.459,19.249,4.108,19.108,3.732,18.908,3.545,18.831,3.461,18.503,3.603,18.269,3.425,17.903,3.133,17.489,3,17.141,2.893,17.141,2.927,14.813,2.771,12.484,3.138,10.156,3.247,7.828,3,5.5,3.162,5.567,3.36,5.235,3.251,4.775,3.466,4.45,3.466,4.036,3.732,3.732,3.768,3.82,4.117,3.662,4.51,3.609,4.764,3.222,5.129,3.105,5.5,3" fill="#FFC" style="stroke:#FD8;stroke-width:3;stroke-linejoin:miter;stroke-miterlimit:10;"/><text x="10" y="13.641" fill="#000" font-size="10" textLength="295.005" font-family="monospace">Please use CSS style instead of skinparam padding</text><!--class UseCase--><g class="entity" data-qualified-name="UseCase" id="ent0001" data-source-line="74"><a target="_top" href="/concept/use-case/#ontology" xlink:href="/concept/use-case/#ontology" xlink:type="simple" xlink:actuate="onRequest" xlink:show="new" title="/concept/use-case/#ontology" xlink:title="/concept/use-case/#ontology"><polygon points="42.06,210.641,42.06,210.851,52.573,210.226,63.085,210.834,73.598,211.04,84.11,209.927,94.623,210.563,105.135,210.214,115.648,210.257,126.161,210.641,126.152,210.62,126.497,210.603,127.08,211.163,127.353,210.974,127.832,211.283,128.282,211.519,128.415,211.574,128.431,211.933,128.654,212.377,128.799,212.788,129.04,213.239,129.161,213.641,129.24,213.641,129.356,218.441,129.384,223.241,129.387,228.041,129.245,232.841,129.161,237.641,129.303,237.7,129.201,238.154,128.587,238.397,128.842,239,128.366,239.3,128.282,239.762,128.35,239.926,127.794,239.785,127.425,240.092,127.104,240.518,126.579,240.45,126.161,240.641,126.161,240.746,115.648,240.979,105.135,241.057,94.623,240.637,84.11,240.928,73.598,240.068,63.085,240.925,52.573,241.189,42.06,240.641,42.117,240.778,41.714,240.654,41.15,240.14,40.704,239.913,40.284,239.746,39.939,239.762,39.921,239.754,39.702,239.313,39.797,239,39.358,238.467,39.13,238.021,39.06,237.641,39.136,237.641,38.838,232.841,38.887,228.041,39.276,223.241,39.205,218.441,39.06,213.641,39.286,213.734,39.137,213.175,39.51,212.833,39.769,212.443,39.617,211.883,39.939,211.519,39.926,211.49,40.379,211.382,40.87,211.369,41.211,210.991,41.695,210.959,42.06,210.641" fill="#4051B5" style="stroke:#FF6F00;stroke-width:2;stroke-linejoin:miter;stroke-miterlimit:10;"/><polygon points="63.115,228.073,61.649,230.076,59.916,233.009,57.436,234.986,54.83,236.068,52.753,236.161,50.082,234.809,47.563,233.926,45.65,232.133,44.647,230.08,44.052,228.445,43.47,226.309,42.524,224.472,43.251,222.678,43.887,220.713,46.278,219.158,47.959,217.142,50.04,216.472,52.515,215.895,55.688,216.238,57.426,217.057,59.446,217.429,61.903,219.946,62.759,222.603,63.131,224.416,62.71,227.404" fill="#ADD1B2" style="stroke:#181818;stroke-width:1;stroke-linejoin:miter;stroke-miterlimit:10;"/><path d="M54.919,229.875 Q54.482,230.094 53.982,230.203 Q53.498,230.328 52.966,230.328 Q51.044,230.328 50.029,229.063 Q49.029,227.797 49.029,225.406 Q49.029,223.016 50.029,221.75 Q51.044,220.484 52.966,220.484 Q53.498,220.484 53.998,220.609 Q54.498,220.719 54.919,220.953 L54.919,223.031 Q54.435,222.594 53.982,222.391 Q53.529,222.172 53.044,222.172 Q52.029,222.172 51.498,223 Q50.966,223.813 50.966,225.406 Q50.966,227.016 51.498,227.828 Q52.029,228.641 53.044,228.641 Q53.529,228.641 53.982,228.438 Q54.435,228.234 54.919,227.781 L54.919,229.875 Z " fill="#FFF"/><text x="68.06" y="230.141" fill="#FFF" font-size="13" textLength="56.101" font-family="'Roboto'">UseCase</text></a></g><!--class Persona--><g class="entity" data-qualified-name="Persona" id="ent0002" data-source-line="75"><a target="_top" href="/concept/persona/#ontology" xlink:href="/concept/persona/#ontology" xlink:type="simple" xlink:actuate="onRequest" xlink:show="new" title="/concept/persona/#ontology" xlink:title="/concept/persona/#ontology"><polygon points="44.05,28.641,44.05,28.851,54.064,28.226,64.079,28.834,74.093,29.04,84.107,27.927,94.121,28.563,104.136,28.214,114.15,28.257,124.164,28.641,124.156,28.62,124.5,28.603,125.083,29.163,125.357,28.974,125.836,29.283,126.286,29.519,126.419,29.574,126.435,29.933,126.658,30.377,126.803,30.788,127.044,31.239,127.164,31.641,127.244,31.641,127.359,36.441,127.388,41.241,127.391,46.041,127.249,50.841,127.164,55.641,127.307,55.7,127.205,56.154,126.591,56.397,126.846,57,126.37,57.3,126.286,57.762,126.354,57.926,125.798,57.785,125.428,58.092,125.107,58.518,124.582,58.45,124.164,58.641,124.164,58.746,114.15,58.979,104.136,59.057,94.121,58.637,84.107,58.928,74.093,58.068,64.079,58.925,54.064,59.189,44.05,58.641,44.107,58.778,43.704,58.654,43.14,58.14,42.694,57.913,42.274,57.746,41.929,57.762,41.911,57.754,41.692,57.313,41.787,57,41.348,56.467,41.12,56.021,41.05,55.641,41.126,55.641,40.828,50.841,40.877,46.041,41.266,41.241,41.195,36.441,41.05,31.641,41.276,31.734,41.127,31.175,41.5,30.833,41.759,30.443,41.607,29.883,41.929,29.519,41.916,29.49,42.369,29.382,42.86,29.369,43.201,28.991,43.685,28.959,44.05,28.641" fill="#4051B5" style="stroke:#FF6F00;stroke-width:2;stroke-linejoin:miter;stroke-miterlimit:10;"/><polygon points="65.105,46.073,63.639,48.076,61.906,51.009,59.426,52.986,56.82,54.068,54.743,54.161,52.072,52.809,49.553,51.926,47.64,50.133,46.637,48.08,46.042,46.445,45.46,44.309,44.514,42.472,45.241,40.678,45.877,38.713,48.268,37.158,49.949,35.142,52.03,34.472,54.505,33.895,57.678,34.238,59.416,35.057,61.436,35.429,63.893,37.946,64.749,40.603,65.121,42.416,64.7,45.404" fill="#ADD1B2" style="stroke:#181818;stroke-width:1;stroke-linejoin:miter;stroke-miterlimit:10;"/><path d="M56.909,47.875 Q56.472,48.094 55.972,48.203 Q55.488,48.328 54.956,48.328 Q53.034,48.328 52.019,47.063 Q51.019,45.797 51.019,43.406 Q51.019,41.016 52.019,39.75 Q53.034,38.484 54.956,38.484 Q55.488,38.484 55.988,38.609 Q56.488,38.719 56.909,38.953 L56.909,41.031 Q56.425,40.594 55.972,40.391 Q55.519,40.172 55.034,40.172 Q54.019,40.172 53.488,41 Q52.956,41.813 52.956,43.406 Q52.956,45.016 53.488,45.828 Q54.019,46.641 55.034,46.641 Q55.519,46.641 55.972,46.438 Q56.425,46.234 56.909,45.781 L56.909,47.875 Z " fill="#FFF"/><text x="70.05" y="48.141" fill="#FFF" font-size="13" textLength="52.114" font-family="'Roboto'">Persona</text></a></g><!--class PersonaTaxonomy--><g class="entity" data-qualified-name="PersonaTaxonomy" id="ent0003" data-source-line="76"><a target="_top" href="/concept/persona/persona-taxonomy/#ontology" xlink:href="/concept/persona/persona-taxonomy/#ontology" xlink:type="simple" xlink:actuate="onRequest" xlink:show="new" title="/concept/persona/persona-taxonomy/#ontology" xlink:title="/concept/persona/persona-taxonomy/#ontology"><polygon points="10,119.641,10,119.851,19.881,119.226,29.762,119.834,39.644,120.04,49.525,118.927,59.406,119.563,69.287,119.214,79.169,119.257,89.05,119.572,98.931,118.949,108.812,120.194,118.693,119.01,128.575,119.443,138.456,120.073,148.337,119.555,158.218,119.641,158.227,119.662,158.638,119.807,159.09,120.047,159.522,120.241,159.99,120.524,160.34,120.519,160.546,120.605,160.725,121.03,160.769,121.4,161.01,121.851,161.259,122.306,161.218,122.641,160.978,122.641,161.444,127.441,161.119,132.241,161.396,137.041,161.053,141.841,161.218,146.641,161.197,146.632,161.271,147.159,160.852,147.483,160.723,147.927,160.62,148.381,160.34,148.762,160.393,148.89,159.915,148.936,159.528,149.202,158.994,149.113,158.679,149.552,158.218,149.641,158.218,150.189,148.337,150.085,138.456,150.254,128.575,149.158,118.693,148.988,108.812,149.019,98.931,149.582,89.05,149.444,79.169,150.322,69.287,149.466,59.406,149.298,49.525,149.869,39.644,148.974,29.762,149.121,19.881,150.29,10,149.641,10.056,149.775,9.669,149.691,9.11,149.19,8.768,149.212,8.378,149.12,7.879,148.762,7.733,148.702,7.673,148.325,7.566,147.929,7.552,147.572,7.174,147.064,7,146.641,7.154,146.641,6.815,141.841,6.774,137.041,7.168,132.241,6.761,127.441,7,122.641,7.157,122.706,7.239,122.243,7.269,121.758,7.418,121.323,7.844,121.002,7.879,120.519,7.84,120.427,8.378,120.526,8.657,119.998,9.23,120.182,9.638,119.966,10,119.641" fill="#4051B5" style="stroke:#FF6F00;stroke-width:2;stroke-linejoin:miter;stroke-miterlimit:10;"/><polygon points="31.055,137.073,29.589,139.076,27.856,142.009,25.376,143.986,22.77,145.068,20.693,145.161,18.022,143.809,15.503,142.926,13.59,141.133,12.587,139.08,11.992,137.445,11.41,135.309,10.464,133.472,11.191,131.678,11.827,129.713,14.218,128.158,15.899,126.142,17.98,125.472,20.455,124.895,23.628,125.238,25.366,126.057,27.386,126.429,29.843,128.946,30.699,131.603,31.071,133.416,30.65,136.404" fill="#ADD1B2" style="stroke:#181818;stroke-width:1;stroke-linejoin:miter;stroke-miterlimit:10;"/><path d="M22.859,138.875 Q22.422,139.094 21.922,139.203 Q21.438,139.328 20.906,139.328 Q18.984,139.328 17.969,138.063 Q16.969,136.797 16.969,134.406 Q16.969,132.016 17.969,130.75 Q18.984,129.484 20.906,129.484 Q21.438,129.484 21.938,129.609 Q22.438,129.719 22.859,129.953 L22.859,132.031 Q22.375,131.594 21.922,131.391 Q21.469,131.172 20.984,131.172 Q19.969,131.172 19.438,132 Q18.906,132.813 18.906,134.406 Q18.906,136.016 19.438,136.828 Q19.969,137.641 20.984,137.641 Q21.469,137.641 21.922,137.438 Q22.375,137.234 22.859,136.781 L22.859,138.875 Z " fill="#FFF"/><text x="36" y="139.141" fill="#FFF" font-size="13" textLength="120.218" font-family="'Roboto'">PersonaTaxonomy</text></a></g><!--link PersonaTaxonomy to UseCase--><g class="link" data-entity-1="ent0003" data-entity-2="ent0001" id="lnk4" data-source-line="79" data-link-type="dependency"><path d="M84.11,149.941 L84.39,149.941 L83.558,159.181 L84.368,168.421 L84.643,177.661 L83.159,186.901 L84.006,196.141 L84.11,205.381" style="stroke:#FF6F00;stroke-width:2;" fill="none"/><polygon points="84.11,210.381,84.174,210.409,84.784,208.525,85.769,206.807,86.632,205.035,87.093,203.084,88.11,201.381,88.092,201.362,87.209,202.08,86.42,202.89,85.694,203.765,84.747,204.418,84.11,205.381,84.24,205.511,83.161,204.432,82.463,203.734,81.812,203.082,80.89,202.16,80.11,201.381,80.131,201.39,80.9,203.176,81.764,205.005,82.583,206.813,83.488,208.66,84.11,210.381" fill="#FF6F00" style="stroke:#FF6F00;stroke-width:2;stroke-linejoin:miter;stroke-miterlimit:10;"/><text x="87.11" y="184.708" fill="#FFF" font-size="13" textLength="59.205" font-family="'Roboto'">:useCase</text><text x="53.946" y="171.623" fill="#FFF" font-size="13" textLength="24.807" font-family="'Roboto'">0..1</text><text x="72.241" y="197.576" fill="#FFF" font-size="13" font-family="'Roboto'">1</text></g><!--link Persona to PersonaTaxonomy--><g class="link" data-entity-1="ent0002" data-entity-2="ent0003" id="lnk5" data-source-line="82" data-link-type="dependency"><path d="M84.11,58.941 L84.39,58.941 L83.558,68.181 L84.368,77.421 L84.643,86.661 L83.159,95.901 L84.006,105.141 L84.11,114.381" style="stroke:#FF6F00;stroke-width:2;" fill="none"/><polygon points="84.11,119.381,84.174,119.409,84.784,117.525,85.769,115.807,86.632,114.035,87.093,112.084,88.11,110.381,88.092,110.362,87.209,111.08,86.42,111.89,85.694,112.765,84.747,113.418,84.11,114.381,84.24,114.511,83.161,113.432,82.463,112.734,81.812,112.082,80.89,111.16,80.11,110.381,80.131,110.39,80.9,112.176,81.764,114.005,82.583,115.813,83.488,117.66,84.11,119.381" fill="#FF6F00" style="stroke:#FF6F00;stroke-width:2;stroke-linejoin:miter;stroke-miterlimit:10;"/><text x="87.11" y="93.708" fill="#FFF" font-size="13" textLength="97.557" font-family="'Roboto'">skos:inScheme</text><text x="54.982" y="80.623" fill="#FFF" font-size="13" textLength="23.036" font-family="'Roboto'">0..*</text><text x="72.241" y="106.576" fill="#FFF" font-size="13" font-family="'Roboto'">1</text></g><?plantuml-src hPLTJzim58RlyolEoiMaQQLbV5pqOb8fXKs3jaf1quGGSfFJrefZH_RfIeRuxtE-YjC6sARb9jRhzpp7vzXEtgc4k9AmP39SQqw44aYlq7iNufnBXDEB-wl-rz7zO7mvzY5_zewwnmUpOzSo7Gx6exE-_wFqDLWc_S6t_iLm0zgnZFspeU_cWRtv_6JUxMuiv-FHTSsGMx9dO-dx_lXxtLDHF1DncJ3DOfYn85fejPBXG0cbRSLC6Zk5aZplFGnKdB20GB1KhGWC4d6vC0vWmiBGIl39qVo2foLgE77qwPA5QfsvvqmOT6Q-f0bgmMLq8yDyW4Nl6np5EgjIdWrsuP7118vSKQeGC_6mLlGPpjbA43nwvqhIYCK8BL_D5AbMhXGfddkSYrF-2-7Wq7joINsjrTfoYWYdvGwdsfWSGgb0koeTC-5TBtaGIJJ6Dgz63GIpugDtkhKvjHFedIfjUrNEE4Ucd73fZKNrYJIVhGYRPxFATilAvHSNRizAn1PODdQ7-O_rr58OOeHlzkR_5VmNNPuIqrjxFgoMLmbFsQqQFYI21vn4cjseh2HD7PHXMLoGHHYOsx2VtF0P5vnIu192fYE8xP6sZ94YxC54C4atLvSGizH-kNGOsDaNW1_1AA2blG-vMog2jTAHUpypTqCLMuwTefe8s_lpCkiFdGNLsOrNY6-xSjev5-8jrgx78vK0AR3V2r8nX5nZaFqvl2MtlOyndg4sdbTSujQDmG4ps09ce1p3xMqdK3B0X3ehW-t0QfqzUoPjcaLwTrU5JYn7IPQ7bcCtD2caLoAlsOEIAavTGgKraSftcqfF3MtFt2PMhUsdtInvucrJMztz_OCMjDkVeMNVLSKzwAsAOSOfWmpCK2ZxDx3Dh59Mm1pquHcqdQS79bAcn-KqM6AClm40?></g></svg>