<svg xmlns="http://www.w3.org/2000/svg" xmlns:xlink="http://www.w3.org/1999/xlink" contentStyleType="text/css" data-diagram-type="STATE" height="248px" preserveAspectRatio="none" style="width:673px;height:248px;" version="1.1" viewBox="0 0 673 248" width="673px" zoomAndPan="magnify"><defs/><g><g><polygon fill="#4051B5" points="59,57,59,57.0701,67.8,56.8619,76.6,57.0644,85.4,57.1332,94.2,56.7622,103,57,102.9901,56.9761,103.3699,57.0444,103.7996,57.2334,104.2641,57.5062,104.6089,57.49,105.1213,57.8787,105.2918,57.9493,105.103,58.2225,105.4119,58.702,105.7816,59.2066,105.7978,59.5648,106,60,106.0682,60,105.9681,70.4,106.1785,80.8,106.2391,91.2,106.5857,101.6,106,112,106.2067,112.0856,106.0334,112.5109,105.7269,112.881,105.6156,113.3319,105.5133,113.7866,105.1213,114.1213,105.0293,113.8992,104.7836,114.506,104.235,114.3815,103.9166,114.8129,103.3611,114.6718,103,115,103,114.9772,94.2,115.2472,85.4,114.9838,76.6,115.0351,67.8,115.1129,59,115,59.0531,115.1282,58.5752,114.8231,58.1881,114.737,57.6542,114.2965,57.3392,114.3846,56.8787,114.1213,57.0475,114.1912,56.8398,113.7538,56.716,113.351,56.2027,112.7869,55.9749,112.3411,56,112,55.3786,112,55.9411,101.6,55.8035,91.2,56.6814,80.8,55.8253,70.4,56,60,55.8944,59.9562,56.246,59.6049,56.1461,59.0664,56.3673,58.661,56.9028,58.3857,56.8787,57.8787,56.9343,58.0128,57.3966,57.9291,57.6862,57.4281,58.1922,57.4498,58.6511,57.3576,59,57" style="stroke:#FF6F00;stroke-width:2;"/><path d="M56,81 L56,81.2802 L66,80.4476 L76,81.2577 L86,81.5329 L96,80.0488 L106,81" fill="#4051B5" style="stroke:#FF6F00;stroke-width:2;"/><text fill="#FFFFFF" font-family="'Roboto'" font-size="13" lengthAdjust="spacing" textLength="0" x="81" y="64">Identified</text><text fill="#FFFFFF" font-family="'Roboto'" font-size="13" lengthAdjust="spacing" textLength="0" x="63" y="88">- name and description</text><text fill="#FFFFFF" font-family="'Roboto'" font-size="13" lengthAdjust="spacing" textLength="0" x="63" y="98">- added to use case tree</text></g><g><polygon fill="#4051B5" points="139,42,139,42.0701,147.8,41.8619,156.6,42.0644,165.4,42.1332,174.2,41.7622,183,42,182.9901,41.9761,183.3699,42.0444,183.7996,42.2334,184.2641,42.5062,184.6089,42.49,185.1213,42.8787,185.2918,42.9493,185.103,43.2225,185.4119,43.702,185.7816,44.2066,185.7978,44.5648,186,45,186.0682,45,185.9681,55.25,186.1785,65.5,186.2391,75.75,186.5857,86,186.6711,96.25,186.6793,106.5,186.2546,116.75,186,127,186.1428,127.0591,186.0405,127.5138,185.4264,127.7565,185.6817,128.3593,185.2057,128.6592,185.1213,129.1213,185.1894,129.2857,184.6339,129.1446,184.2641,129.4517,183.9431,129.8769,183.418,129.8093,183,130,183,130.0351,174.2,130.1129,165.4,130.1387,156.6,129.9987,147.8,130.0957,139,130,138.927,129.8237,138.612,129.9118,138.2214,129.8174,137.7839,129.6097,137.3811,129.4858,136.8787,129.1213,136.7299,129.0597,136.5021,128.6139,136.3358,128.1935,136.3333,127.841,136.1152,127.3992,136,127,136.6814,127,135.8253,116.75,135.6569,106.5,136.2283,96.25,135.3332,86,135.4809,75.75,136.649,65.5,136.4357,55.25,136,45,136.2262,45.0937,136.0766,44.5347,136.4498,44.1922,136.709,43.8025,136.5575,43.2427,136.8787,42.8787,136.8665,42.8492,137.319,42.7417,137.8103,42.7279,138.1509,42.3502,138.6347,42.3182,139,42" style="stroke:#FF6F00;stroke-width:2;"/><path d="M136,66 L136,66.2802 L146,65.4476 L156,66.2577 L166,66.5329 L176,65.0488 L186,66" fill="#4051B5" style="stroke:#FF6F00;stroke-width:2;"/><text fill="#FFFFFF" font-family="'Roboto'" font-size="13" lengthAdjust="spacing" textLength="0" x="161" y="49">Defined</text><text fill="#FFFFFF" font-family="'Roboto'" font-size="13" lengthAdjust="spacing" textLength="0" x="143" y="73">- outcomes</text><text fill="#FFFFFF" font-family="'Roboto'" font-size="13" lengthAdjust="spacing" textLength="0" x="143" y="83">- personas</text><text fill="#FFFFFF" font-family="'Roboto'" font-size="13" lengthAdjust="spacing" textLength="0" x="143" y="93">- concepts</text><text fill="#FFFFFF" font-family="'Roboto'" font-size="13" lengthAdjust="spacing" textLength="0" x="143" y="103">- stories</text><text fill="#FFFFFF" font-family="'Roboto'" font-size="13" lengthAdjust="spacing" textLength="0" x="143" y="113">- dependencies</text></g><g><polygon fill="#4051B5" points="219,61,219,61.0701,227.8,60.8619,236.6,61.0644,245.4,61.1332,254.2,60.7622,263,61,262.9901,60.9761,263.3699,61.0444,263.7996,61.2334,264.2641,61.5062,264.6089,61.49,265.1213,61.8787,265.2918,61.9493,265.103,62.2225,265.4119,62.702,265.7816,63.2066,265.7978,63.5648,266,64,266.0227,64,265.9894,72.8,266.0595,81.6,266.0797,90.4,266.1952,99.2,266,108,266.2067,108.0856,266.0334,108.5109,265.7269,108.881,265.6156,109.3319,265.5133,109.7866,265.1213,110.1213,265.0293,109.8992,264.7836,110.506,264.235,110.3815,263.9166,110.8129,263.3611,110.6718,263,111,263,110.9772,254.2,111.2472,245.4,110.9838,236.6,111.0351,227.8,111.1129,219,111,219.0531,111.1282,218.5752,110.8231,218.1881,110.737,217.6542,110.2965,217.3392,110.3846,216.8787,110.1213,217.0475,110.1912,216.8398,109.7538,216.716,109.351,216.2027,108.7869,215.9749,108.3411,216,108,215.7929,108,215.9804,99.2,215.9345,90.4,216.2271,81.6,215.9418,72.8,216,64,215.8944,63.9562,216.246,63.6049,216.1461,63.0664,216.3673,62.661,216.9028,62.3857,216.8787,61.8787,216.9343,62.0128,217.3966,61.9291,217.6862,61.4281,218.1922,61.4498,218.6511,61.3576,219,61" style="stroke:#FF6F00;stroke-width:2;"/><path d="M216,85 L216,85.2802 L226,84.4476 L236,85.2577 L246,85.5329 L256,84.0488 L266,85" fill="#4051B5" style="stroke:#FF6F00;stroke-width:2;"/><text fill="#FFFFFF" font-family="'Roboto'" font-size="13" lengthAdjust="spacing" textLength="0" x="241" y="68">Proposed</text><text fill="#FFFFFF" font-family="'Roboto'" font-size="13" lengthAdjust="spacing" textLength="0" x="223" y="92">- chart phase</text></g><g><polygon fill="#4051B5" points="299,61,299,61.0701,307.8,60.8619,316.6,61.0644,325.4,61.1332,334.2,60.7622,343,61,342.9901,60.9761,343.3699,61.0444,343.7996,61.2334,344.2641,61.5062,344.6089,61.49,345.1213,61.8787,345.2918,61.9493,345.103,62.2225,345.4119,62.702,345.7816,63.2066,345.7978,63.5648,346,64,346.0227,64,345.9894,72.8,346.0595,81.6,346.0797,90.4,346.1952,99.2,346,108,346.2067,108.0856,346.0334,108.5109,345.7269,108.881,345.6156,109.3319,345.5133,109.7866,345.1213,110.1213,345.0293,109.8992,344.7836,110.506,344.235,110.3815,343.9166,110.8129,343.3611,110.6718,343,111,343,110.9772,334.2,111.2472,325.4,110.9838,316.6,111.0351,307.8,111.1129,299,111,299.0531,111.1282,298.5752,110.8231,298.1881,110.737,297.6542,110.2965,297.3392,110.3846,296.8787,110.1213,297.0475,110.1912,296.8398,109.7538,296.716,109.351,296.2027,108.7869,295.9749,108.3411,296,108,295.7929,108,295.9804,99.2,295.9345,90.4,296.2271,81.6,295.9418,72.8,296,64,295.8944,63.9562,296.246,63.6049,296.1461,63.0664,296.3673,62.661,296.9028,62.3857,296.8787,61.8787,296.9343,62.0128,297.3966,61.9291,297.6862,61.4281,298.1922,61.4498,298.6511,61.3576,299,61" style="stroke:#FF6F00;stroke-width:2;"/><path d="M296,85 L296,85.2802 L306,84.4476 L316,85.2577 L326,85.5329 L336,84.0488 L346,85" fill="#4051B5" style="stroke:#FF6F00;stroke-width:2;"/><text fill="#FFFFFF" font-family="'Roboto'" font-size="13" lengthAdjust="spacing" textLength="0" x="321" y="68">Planned</text><text fill="#FFFFFF" font-family="'Roboto'" font-size="13" lengthAdjust="spacing" textLength="0" x="303" y="92">- on roadmap</text></g><g><polygon fill="#4051B5" points="379,61,379,61.0701,387.8,60.8619,396.6,61.0644,405.4,61.1332,414.2,60.7622,423,61,422.9901,60.9761,423.3699,61.0444,423.7996,61.2334,424.2641,61.5062,424.6089,61.49,425.1213,61.8787,425.2918,61.9493,425.103,62.2225,425.4119,62.702,425.7816,63.2066,425.7978,63.5648,426,64,426.0227,64,425.9894,72.8,426.0595,81.6,426.0797,90.4,426.1952,99.2,426,108,426.2067,108.0856,426.0334,108.5109,425.7269,108.881,425.6156,109.3319,425.5133,109.7866,425.1213,110.1213,425.0293,109.8992,424.7836,110.506,424.235,110.3815,423.9166,110.8129,423.3611,110.6718,423,111,423,110.9772,414.2,111.2472,405.4,110.9838,396.6,111.0351,387.8,111.1129,379,111,379.0531,111.1282,378.5752,110.8231,378.1881,110.737,377.6542,110.2965,377.3392,110.3846,376.8787,110.1213,377.0475,110.1912,376.8398,109.7538,376.716,109.351,376.2027,108.7869,375.9749,108.3411,376,108,375.7929,108,375.9804,99.2,375.9345,90.4,376.2271,81.6,375.9418,72.8,376,64,375.8944,63.9562,376.246,63.6049,376.1461,63.0664,376.3673,62.661,376.9028,62.3857,376.8787,61.8787,376.9343,62.0128,377.3966,61.9291,377.6862,61.4281,378.1922,61.4498,378.6511,61.3576,379,61" style="stroke:#FF6F00;stroke-width:2;"/><path d="M376,85 L376,85.2802 L386,84.4476 L396,85.2577 L406,85.5329 L416,84.0488 L426,85" fill="#4051B5" style="stroke:#FF6F00;stroke-width:2;"/><text fill="#FFFFFF" font-family="'Roboto'" font-size="13" lengthAdjust="spacing" textLength="0" x="401" y="68">InProgress</text><text fill="#FFFFFF" font-family="'Roboto'" font-size="13" lengthAdjust="spacing" textLength="0" x="383" y="92">- build phase</text></g><polygon fill="#222222" points="26.0552,88.4324,24.5894,90.4353,22.8556,93.3688,20.376,95.3458,17.7703,96.4269,15.6927,96.5207,13.0224,95.1687,10.5029,94.2854,8.5905,92.492,7.5873,90.4389,6.9924,88.8041,6.4096,86.6688,5.4636,84.8313,6.1906,83.0373,6.8275,81.072,9.2175,79.5177,10.8991,77.501,12.9804,76.8313,15.4547,76.2546,18.6276,76.5972,20.3655,77.4168,22.3861,77.7884,24.8429,80.3054,25.6993,82.9627,26.0714,84.7758,25.65,87.7635" style="stroke:#222222;stroke-width:1;"/><polygon fill="none" points="452.0608,233.6756,450.4484,235.8788,448.5412,239.1057,445.8136,241.2804,442.9474,242.4696,440.662,242.5728,437.7247,241.0855,434.9532,240.1139,432.8495,238.1412,431.7461,235.8828,431.0917,234.0845,430.4506,231.7357,429.41,229.7145,430.2096,227.741,430.9102,225.5792,433.5393,223.8695,435.389,221.6511,437.6784,220.9144,440.4001,220.2801,443.8904,220.657,445.8021,221.5585,448.0247,221.9672,450.7272,224.736,451.6693,227.659,452.0786,229.6534,451.615,232.9399" style="stroke:#222222;stroke-width:1;"/><polygon fill="#222222" points="447.0331,232.4594,446.1536,233.6612,445.1134,235.4213,443.6256,236.6075,442.0622,237.2562,440.8156,237.3124,439.2135,236.5012,437.7017,235.9712,436.5543,234.8952,435.9524,233.6633,435.5955,232.6825,435.2458,231.4013,434.6782,230.2988,435.1143,229.2224,435.4965,228.0432,436.9305,227.1106,437.9394,225.9006,439.1882,225.4988,440.6728,225.1528,442.5766,225.3583,443.6193,225.8501,444.8317,226.073,446.3057,227.5833,446.8196,229.1776,447.0429,230.2655,446.79,232.0581" style="stroke:#222222;stroke-width:1;"/><g><polygon fill="#4051B5" points="459,61,459,61.0701,467.8,60.8619,476.6,61.0644,485.4,61.1332,494.2,60.7622,503,61,502.9901,60.9761,503.3699,61.0444,503.7996,61.2334,504.2641,61.5062,504.6089,61.49,505.1213,61.8787,505.2918,61.9493,505.103,62.2225,505.4119,62.702,505.7816,63.2066,505.7978,63.5648,506,64,506.0227,64,505.9894,72.8,506.0595,81.6,506.0797,90.4,506.1952,99.2,506,108,506.2067,108.0856,506.0334,108.5109,505.7269,108.881,505.6156,109.3319,505.5133,109.7866,505.1213,110.1213,505.0293,109.8992,504.7836,110.506,504.235,110.3815,503.9166,110.8129,503.3611,110.6718,503,111,503,110.9772,494.2,111.2472,485.4,110.9838,476.6,111.0351,467.8,111.1129,459,111,459.0531,111.1282,458.5752,110.8231,458.1881,110.737,457.6542,110.2965,457.3392,110.3846,456.8787,110.1213,457.0475,110.1912,456.8398,109.7538,456.716,109.351,456.2027,108.7869,455.9749,108.3411,456,108,455.7929,108,455.9804,99.2,455.9345,90.4,456.2271,81.6,455.9418,72.8,456,64,455.8944,63.9562,456.246,63.6049,456.1461,63.0664,456.3673,62.661,456.9028,62.3857,456.8787,61.8787,456.9343,62.0128,457.3966,61.9291,457.6862,61.4281,458.1922,61.4498,458.6511,61.3576,459,61" style="stroke:#FF6F00;stroke-width:2;"/><path d="M456,85 L456,85.2802 L466,84.4476 L476,85.2577 L486,85.5329 L496,84.0488 L506,85" fill="#4051B5" style="stroke:#FF6F00;stroke-width:2;"/><text fill="#FFFFFF" font-family="'Roboto'" font-size="13" lengthAdjust="spacing" textLength="0" x="481" y="68">Delivered</text></g><g><polygon fill="#4051B5" points="539,61,539,61.0701,547.8,60.8619,556.6,61.0644,565.4,61.1332,574.2,60.7622,583,61,582.9901,60.9761,583.3699,61.0444,583.7996,61.2334,584.2641,61.5062,584.6089,61.49,585.1213,61.8787,585.2918,61.9493,585.103,62.2225,585.4119,62.702,585.7816,63.2066,585.7978,63.5648,586,64,586.0227,64,585.9894,72.8,586.0595,81.6,586.0797,90.4,586.1952,99.2,586,108,586.2067,108.0856,586.0334,108.5109,585.7269,108.881,585.6156,109.3319,585.5133,109.7866,585.1213,110.1213,585.0293,109.8992,584.7836,110.506,584.235,110.3815,583.9166,110.8129,583.3611,110.6718,583,111,583,110.9772,574.2,111.2472,565.4,110.9838,556.6,111.0351,547.8,111.1129,539,111,539.0531,111.1282,538.5752,110.8231,538.1881,110.737,537.6542,110.2965,537.3392,110.3846,536.8787,110.1213,537.0475,110.1912,536.8398,109.7538,536.716,109.351,536.2027,108.7869,535.9749,108.3411,536,108,535.7929,108,535.9804,99.2,535.9345,90.4,536.2271,81.6,535.9418,72.8,536,64,535.8944,63.9562,536.246,63.6049,536.1461,63.0664,536.3673,62.661,536.9028,62.3857,536.8787,61.8787,536.9343,62.0128,537.3966,61.9291,537.6862,61.4281,538.1922,61.4498,538.6511,61.3576,539,61" style="stroke:#FF6F00;stroke-width:2;"/><path d="M536,85 L536,85.2802 L546,84.4476 L556,85.2577 L566,85.5329 L576,84.0488 L586,85" fill="#4051B5" style="stroke:#FF6F00;stroke-width:2;"/><text fill="#FFFFFF" font-family="'Roboto'" font-size="13" lengthAdjust="spacing" textLength="0" x="561" y="68">Deployed</text></g><g><polygon fill="#4051B5" points="619,61,619,61.0701,627.8,60.8619,636.6,61.0644,645.4,61.1332,654.2,60.7622,663,61,662.9901,60.9761,663.3699,61.0444,663.7996,61.2334,664.2641,61.5062,664.6089,61.49,665.1213,61.8787,665.2918,61.9493,665.103,62.2225,665.4119,62.702,665.7816,63.2066,665.7978,63.5648,666,64,666.0227,64,665.9894,72.8,666.0595,81.6,666.0797,90.4,666.1952,99.2,666,108,666.2067,108.0856,666.0334,108.5109,665.7269,108.881,665.6156,109.3319,665.5133,109.7866,665.1213,110.1213,665.0293,109.8992,664.7836,110.506,664.235,110.3815,663.9166,110.8129,663.3611,110.6718,663,111,663,110.9772,654.2,111.2472,645.4,110.9838,636.6,111.0351,627.8,111.1129,619,111,619.0531,111.1282,618.5752,110.8231,618.1881,110.737,617.6542,110.2965,617.3392,110.3846,616.8787,110.1213,617.0475,110.1912,616.8398,109.7538,616.716,109.351,616.2027,108.7869,615.9749,108.3411,616,108,615.7929,108,615.9804,99.2,615.9345,90.4,616.2271,81.6,615.9418,72.8,616,64,615.8944,63.9562,616.246,63.6049,616.1461,63.0664,616.3673,62.661,616.9028,62.3857,616.8787,61.8787,616.9343,62.0128,617.3966,61.9291,617.6862,61.4281,618.1922,61.4498,618.6511,61.3576,619,61" style="stroke:#FF6F00;stroke-width:2;"/><path d="M616,85 L616,85.2802 L626,84.4476 L636,85.2577 L646,85.5329 L656,84.0488 L666,85" fill="#4051B5" style="stroke:#FF6F00;stroke-width:2;"/><text fill="#FFFFFF" font-family="'Roboto'" font-size="13" lengthAdjust="spacing" textLength="0" x="641" y="68">Deprecated</text></g><g><polygon fill="#4051B5" points="528,150,528,150.0701,536.8,149.8619,545.6,150.0644,554.4,150.1332,563.2,149.7622,572,150,571.9901,149.9761,572.3699,150.0444,572.7996,150.2334,573.2641,150.5062,573.6089,150.49,574.1213,150.8787,574.2918,150.9493,574.103,151.2225,574.4119,151.702,574.7816,152.2066,574.7978,152.5648,575,153,575.0227,153,574.9894,161.8,575.0595,170.6,575.0797,179.4,575.1952,188.2,575,197,575.2067,197.0856,575.0334,197.5109,574.7269,197.881,574.6156,198.3319,574.5133,198.7866,574.1213,199.1213,574.0293,198.8992,573.7836,199.506,573.235,199.3815,572.9166,199.8129,572.3611,199.6718,572,200,572,199.9772,563.2,200.2472,554.4,199.9838,545.6,200.0351,536.8,200.1129,528,200,528.0531,200.1282,527.5752,199.8231,527.1881,199.737,526.6542,199.2965,526.3392,199.3846,525.8787,199.1213,526.0475,199.1912,525.8398,198.7538,525.716,198.351,525.2027,197.7869,524.9749,197.3411,525,197,524.7929,197,524.9804,188.2,524.9345,179.4,525.2271,170.6,524.9418,161.8,525,153,524.8944,152.9562,525.246,152.6049,525.1461,152.0664,525.3673,151.661,525.9028,151.3857,525.8787,150.8787,525.9343,151.0128,526.3966,150.9291,526.6862,150.4281,527.1922,150.4498,527.6511,150.3576,528,150" style="stroke:#FF6F00;stroke-width:2;"/><path d="M525,174 L525,174.2802 L535,173.4476 L545,174.2577 L555,174.5329 L565,173.0488 L575,174" fill="#4051B5" style="stroke:#FF6F00;stroke-width:2;"/><text fill="#FFFFFF" font-family="'Roboto'" font-size="13" lengthAdjust="spacing" textLength="0" x="550" y="157">Decommissioned</text></g><!--link *start* to Identified--><g class="link" data-entity-1="ent0002" data-entity-2="ent0002" data-link-type="dependency" data-source-line="74" id="lnk3"><path d="M26.41,86 L26.41,86.0934 L31.096,85.8159 L35.782,86.0859 L40.468,86.1776 L45.154,85.6829 L49.84,86" fill="none" style="stroke:#FF6F00;stroke-width:2;"/><polygon fill="#FF6F00" points="55.84,86,55.8685,86.064,53.9839,85.0738,52.2662,84.4589,50.4941,83.7217,48.5434,82.5827,46.84,82,46.8217,81.9817,47.5395,82.6995,48.3496,83.5096,49.2239,84.3839,49.877,85.037,50.84,86,50.9705,86.1305,49.8914,86.6514,49.1934,87.5534,48.5418,88.5018,47.6198,89.1798,46.84,90,46.8492,90.0208,48.6357,89.1903,50.4642,88.4544,52.2724,87.6728,54.1193,86.9784,55.84,86" style="stroke:#FF6F00;stroke-width:2;"/></g><!--link Identified to Defined--><g class="link" data-entity-1="ent0002" data-entity-2="ent0003" data-link-type="dependency" data-source-line="76" id="lnk4"><path d="M106.31,86 L106.31,86.0934 L111.006,85.8159 L115.702,86.0859 L120.398,86.1776 L125.094,85.6829 L129.79,86" fill="none" style="stroke:#FF6F00;stroke-width:2;"/><polygon fill="#FF6F00" points="135.79,86,135.8185,86.064,133.9339,85.0738,132.2162,84.4589,130.4441,83.7217,128.4934,82.5827,126.79,82,126.7717,81.9817,127.4895,82.6995,128.2996,83.5096,129.1739,84.3839,129.827,85.037,130.79,86,130.9205,86.1305,129.8414,86.6514,129.1434,87.5534,128.4918,88.5018,127.5698,89.1798,126.79,90,126.7992,90.0208,128.5857,89.1903,130.4142,88.4544,132.2224,87.6728,134.0693,86.9784,135.79,86" style="stroke:#FF6F00;stroke-width:2;"/></g><!--link Defined to Proposed--><g class="link" data-entity-1="ent0003" data-entity-2="ent0004" data-link-type="dependency" data-source-line="78" id="lnk5"><path d="M186.31,86 L186.31,86.0934 L191.006,85.8159 L195.702,86.0859 L200.398,86.1776 L205.094,85.6829 L209.79,86" fill="none" style="stroke:#FF6F00;stroke-width:2;"/><polygon fill="#FF6F00" points="215.79,86,215.8185,86.064,213.9339,85.0738,212.2162,84.4589,210.4441,83.7217,208.4934,82.5827,206.79,82,206.7717,81.9817,207.4895,82.6995,208.2996,83.5096,209.1739,84.3839,209.827,85.037,210.79,86,210.9205,86.1305,209.8414,86.6514,209.1434,87.5534,208.4918,88.5018,207.5698,89.1798,206.79,90,206.7992,90.0208,208.5857,89.1903,210.4142,88.4544,212.2224,87.6728,214.0693,86.9784,215.79,86" style="stroke:#FF6F00;stroke-width:2;"/></g><!--link Proposed to *end*--><g class="link" data-entity-1="ent0004" data-entity-2="ent0006" data-link-type="dependency" data-source-line="80" id="lnk7"><path d="M261.54,111.32 L261.6068,111.3853 L263.2943,113.1216 L265.3734,115.2405 L267.3251,117.2349 L268.8572,118.8194 L270.97,120.9713 L270.9469,120.9456 L272.8492,122.6361 L274.868,124.4561 L276.9677,126.366 L278.7884,127.9659 L281,130 L281.1541,130.1918 L282.8172,131.3826 L284.9302,133.1334 L287.0981,134.9526 L288.9466,136.3742 L290.9631,138.0049 L290.9816,138.029 L292.9997,139.5565 L295.1017,141.1937 L297.1633,142.7779 L299.302,144.4632 L301.1892,145.8192 L301.3651,146.0601 L303.4487,147.5832 L305.4188,148.951 L307.5549,150.5462 L309.6989,152.1521 L311.5962,153.4202 L311.4122,153.1578 L313.8705,155.1401 L315.723,156.2583 L318.036,158.0334 L319.8748,159.1319 L322.1023,160.785 L322.0852,160.7598 L324.3914,162.4793 L326.2994,163.6094 L328.4424,165.0873 L330.605,166.5943 L332.6254,167.8908 L332.7265,168.0457 L334.7161,169.2541 L336.8785,170.7272 L338.7614,171.772 L341.0611,173.4556 L343.0837,174.7145 L343.2139,174.9205 L345.2516,176.1853 L347.3539,177.5524 L349.1559,178.4445 L351.1781,179.6847 L353.3952,181.2335 L353.2507,180.9982 L355.3981,182.4495 L357.3827,183.6356 L359.6034,185.2064 L361.4209,186.1205 L363.478,187.4249 L363.4005,187.2936 L367.36,189.7739 L370.988,191.693 L374.8517,194.0112 L378.946,196.7199 L382.6297,198.7332 L382.7248,198.9019 L386.2407,200.9623 L389.4609,202.498 L393.0514,204.6908 L396.5613,206.7405 L399.8832,208.4566 L399.7832,208.272 L402.8029,210.0103 L405.7897,211.6881 L408.8409,213.4847 L411.6421,214.8195 L414.583,216.4122 L414.6782,216.5945 L416.7671,217.3951 L419.0398,218.5475 L421.581,220.2136 L423.6279,220.9339 L426.0736,222.4173" fill="none" style="stroke:#FF6F00;stroke-width:2;"/><polygon fill="#FF6F00" points="431.41,225.16,431.4646,225.2039,430.0672,223.5391,428.9897,222.1317,427.8081,220.6405,426.2838,218.8735,425.2339,217.4883,425.2092,217.4804,425.4443,218.5221,425.8038,219.6037,426.2497,220.713,426.3977,221.7267,426.963,222.8744,427.0194,223.0501,425.8215,223.0202,424.7884,223.5033,423.7753,224.049,422.6454,224.2305,421.5769,224.6035,421.5782,224.6262,423.5429,224.7042,425.5135,224.8855,427.4813,225.017,429.4544,225.2436,431.41,225.16" style="stroke:#FF6F00;stroke-width:2;"/><text fill="#FFFFFF" font-family="'Roboto'" font-size="13" lengthAdjust="spacing" textLength="0" x="385" y="170">Rejected</text></g><!--link Proposed to Planned--><g class="link" data-entity-1="ent0004" data-entity-2="ent0005" data-link-type="dependency" data-source-line="82" id="lnk8"><path d="M266.31,86 L266.31,86.0934 L271.006,85.8159 L275.702,86.0859 L280.398,86.1776 L285.094,85.6829 L289.79,86" fill="none" style="stroke:#FF6F00;stroke-width:2;"/><polygon fill="#FF6F00" points="295.79,86,295.8185,86.064,293.9339,85.0738,292.2162,84.4589,290.4441,83.7217,288.4934,82.5827,286.79,82,286.7717,81.9817,287.4895,82.6995,288.2996,83.5096,289.1739,84.3839,289.827,85.037,290.79,86,290.9205,86.1305,289.8414,86.6514,289.1434,87.5534,288.4918,88.5018,287.5698,89.1798,286.79,90,286.7992,90.0208,288.5857,89.1903,290.4142,88.4544,292.2224,87.6728,294.0693,86.9784,295.79,86" style="stroke:#FF6F00;stroke-width:2;"/></g><!--link Planned to InProgress--><g class="link" data-entity-1="ent0005" data-entity-2="ent0006" data-link-type="dependency" data-source-line="84" id="lnk9"><path d="M346.31,86 L346.31,86.0934 L351.006,85.8159 L355.702,86.0859 L360.398,86.1776 L365.094,85.6829 L369.79,86" fill="none" style="stroke:#FF6F00;stroke-width:2;"/><polygon fill="#FF6F00" points="375.79,86,375.8185,86.064,373.9339,85.0738,372.2162,84.4589,370.4441,83.7217,368.4934,82.5827,366.79,82,366.7717,81.9817,367.4895,82.6995,368.2996,83.5096,369.1739,84.3839,369.827,85.037,370.79,86,370.9205,86.1305,369.8414,86.6514,369.1434,87.5534,368.4918,88.5018,367.5698,89.1798,366.79,90,366.7992,90.0208,368.5857,89.1903,370.4142,88.4544,372.2224,87.6728,374.0693,86.9784,375.79,86" style="stroke:#FF6F00;stroke-width:2;"/></g><!--link InProgress to Delivered--><g class="link" data-entity-1="ent0006" data-entity-2="ent0010" data-link-type="dependency" data-source-line="86" id="lnk11"><path d="M426.31,86 L426.31,86.0934 L431.006,85.8159 L435.702,86.0859 L440.398,86.1776 L445.094,85.6829 L449.79,86" fill="none" style="stroke:#FF6F00;stroke-width:2;"/><polygon fill="#FF6F00" points="455.79,86,455.8185,86.064,453.9339,85.0738,452.2162,84.4589,450.4441,83.7217,448.4934,82.5827,446.79,82,446.7717,81.9817,447.4895,82.6995,448.2996,83.5096,449.1739,84.3839,449.827,85.037,450.79,86,450.9205,86.1305,449.8414,86.6514,449.1434,87.5534,448.4918,88.5018,447.5698,89.1798,446.79,90,446.7992,90.0208,448.5857,89.1903,450.4142,88.4544,452.2224,87.6728,454.0693,86.9784,455.79,86" style="stroke:#FF6F00;stroke-width:2;"/></g><!--link Delivered to Deployed--><g class="link" data-entity-1="ent0010" data-entity-2="ent0012" data-link-type="dependency" data-source-line="88" id="lnk13"><path d="M506.31,86 L506.31,86.0934 L511.006,85.8159 L515.702,86.0859 L520.398,86.1776 L525.094,85.6829 L529.79,86" fill="none" style="stroke:#FF6F00;stroke-width:2;"/><polygon fill="#FF6F00" points="535.79,86,535.8185,86.064,533.9339,85.0738,532.2162,84.4589,530.4441,83.7217,528.4934,82.5827,526.79,82,526.7717,81.9817,527.4895,82.6995,528.2996,83.5096,529.1739,84.3839,529.827,85.037,530.79,86,530.9205,86.1305,529.8414,86.6514,529.1434,87.5534,528.4918,88.5018,527.5698,89.1798,526.79,90,526.7992,90.0208,528.5857,89.1903,530.4142,88.4544,532.2224,87.6728,534.0693,86.9784,535.79,86" style="stroke:#FF6F00;stroke-width:2;"/></g><!--link Deployed to Defined--><g class="link" data-entity-1="ent0012" data-entity-2="ent0003" data-link-type="dependency" data-source-line="90" id="lnk14"><path d="M543.49,60.95 L543.5563,61.0158 L541.2814,58.7287 L539.3949,56.8275 L537.382,54.8007 L534.9531,52.3605 L533.1,50.4925 L533.0802,50.4642 L530.5711,48.6388 L528.1621,46.956 L525.8226,45.3722 L523.2435,43.447 L521,42 L521.1114,42.2194 L518.6251,40.6083 L516.4642,39.6377 L514.3429,38.7452 L511.9907,37.398 L509.7599,36.29 L509.7723,36.3177 L507.6587,35.3405 L505.6014,34.4894 L503.517,33.5775 L501.4844,32.7815 L499.2828,31.6073 L499.3892,31.886 L497.4231,31.1383 L495.3884,30.211 L493.4542,29.5467 L491.5246,28.8947 L489.446,27.8521 L489.3499,27.5463 L487.6725,27.5542 L485.6788,26.5553 L483.9255,26.3218 L481.9246,25.3 L480.1267,24.9244 L480.1203,24.8946 L476.6806,24.4922 L473.0915,23.3944 L469.5906,22.7069 L466.097,22.0539 L462.5501,21.1523 L462.5681,21.3365 L459.1542,20.8186 L455.771,20.6155 L452.338,19.9032 L448.9793,19.9503 L445.5712,19.4925 L445.5761,19.7361 L442.1026,19.6207 L438.6316,19.6263 L435.1493,19.07 L431.6753,18.9256 L428.2085,19.1461 L428.206,18.8699 L424.4626,19.1536 L420.7164,19.1261 L416.9742,19.5499 L413.2251,19.2031 L409.4802,19.3144 L409.4797,19.1619 L407.4438,19.4213 L405.4061,19.029 L403.3697,19.1002 L401.3345,19.6248 L399.2971,19.3419 L399.2997,19.5355 L397.1229,19.6397 L394.9382,19.1416 L392.7634,19.3978 L390.5865,19.4896 L388.4046,19.1986 L388.3971,18.9888 L386.0581,19.0732 L383.7166,19.0889 L381.3799,19.2397 L379.0246,18.8655 L376.6797,18.7846 L376.6924,18.9898 L374.1286,18.382 L371.5893,18.1703 L369.0857,18.5372 L366.5163,17.8389 L364,18 L364.0177,18.2255 L358.9434,17.6952 L353.8631,17.0886 L348.7963,16.6542 L343.7607,16.6179 L338.681,16.0182 L338.6712,15.8856 L336.4392,16.1146 L334.141,15.4412 L331.918,15.7938 L329.6527,15.5688 L327.3759,15.1881 L327.3826,15.2967 L325.263,15.0797 L323.1671,15.2518 L321.0498,15.0724 L318.9235,14.7459 L316.8047,14.5416 L316.8078,14.6607 L312.9134,14.3812 L309.0336,14.6549 L305.1373,14.3029 L301.2478,14.2083 L297.3561,14.0291 L297.3424,13.7591 L293.7398,14.0314 L290.1535,14.629 L286.5441,14.7664 L282.9262,14.7388 L279.32,14.94 L279.2976,14.7986 L275.7771,15.4026 L272.2169,15.7561 L268.7657,16.7981 L265.2606,17.4994 L261.6814,17.7334 L261.7448,17.9586 L258.1138,19.0577 L254.3625,19.7289 L250.7383,20.8517 L247.0299,21.6756 L243.4253,22.8684 L243.4692,22.9868 L241.5281,23.6891 L239.6399,24.5343 L237.5837,24.9262 L235.663,25.6837 L233.7484,26.4576 L233.8256,26.6389 L231.8048,27.5589 L229.5745,27.9866 L227.5875,28.9863 L225.6049,29.996 L223.5365,30.8043 L223.4201,30.559 L221.4291,31.9785 L219.2362,32.9725 L216.993,33.8608 L214.8646,34.9907 L212.6627,35.9659 L212.8115,36.2536 L210.2662,37.0493 L208.0619,38.5039 L205.7234,39.6991 L203.3562,40.8389 L201,42 L201.0342,42.0525 L198.964,43.3886 L196.7213,44.4603 L194.7119,45.8897 L192.6336,47.2135 L190.6821,48.7316" fill="none" style="stroke:#FF6F00;stroke-width:2;"/><polygon fill="#FF6F00" points="186.3,52.83,186.323,52.8962,188.1158,52.0543,190.0433,51.6004,191.9269,51.0201,193.6665,50.0243,195.6054,49.6037,195.6046,49.5779,194.47,49.4238,193.3397,49.4003,192.2125,49.4676,191.0748,49.2221,189.9518,49.4146,190.1362,49.4208,189.7796,48.2769,189.9615,47.151,190.2091,46.0272,190.0745,44.8907,190.1409,43.7609,190.1618,43.7698,189.3629,45.5706,188.6593,47.4118,187.9097,49.2335,187.2479,51.0923,186.3,52.83" style="stroke:#FF6F00;stroke-width:2;"/><text fill="#FFFFFF" font-family="'Roboto'" font-size="13" lengthAdjust="spacing" textLength="0" x="361" y="9">new version</text></g><!--link Deployed to Deprecated--><g class="link" data-entity-1="ent0012" data-entity-2="ent0015" data-link-type="dependency" data-source-line="92" id="lnk16"><path d="M586.31,86 L586.31,86.0934 L591.006,85.8159 L595.702,86.0859 L600.398,86.1776 L605.094,85.6829 L609.79,86" fill="none" style="stroke:#FF6F00;stroke-width:2;"/><polygon fill="#FF6F00" points="615.79,86,615.8185,86.064,613.9339,85.0738,612.2162,84.4589,610.4441,83.7217,608.4934,82.5827,606.79,82,606.7717,81.9817,607.4895,82.6995,608.2996,83.5096,609.1739,84.3839,609.827,85.037,610.79,86,610.9205,86.1305,609.8414,86.6514,609.1434,87.5534,608.4918,88.5018,607.5698,89.1798,606.79,90,606.7992,90.0208,608.5857,89.1903,610.4142,88.4544,612.2224,87.6728,614.0693,86.9784,615.79,86" style="stroke:#FF6F00;stroke-width:2;"/></g><!--link Deprecated to Decommissioned--><g class="link" data-entity-1="ent0015" data-entity-2="ent0017" data-link-type="dependency" data-source-line="94" id="lnk18"><path d="M619.45,111.1 L619.5177,111.1643 L617.4955,112.8894 L615.8703,114.9917 L614.1158,116.9711 L611.9362,118.5466 L610.345,120.6813 L610.3206,120.6568 L608.3422,122.4108 L606.4866,124.2881 L604.7166,126.2511 L602.652,127.9187 L601,130 L601.1686,130.1792 L598.7208,131.7604 L596.7654,133.8647 L594.87,136.0328 L592.6252,137.8296 L590.5641,139.8217 L590.5841,139.8445 L588.4316,141.6764 L586.3701,143.612 L584.2647,145.4976 L582.2432,147.4786 L579.9482,149.1484" fill="none" style="stroke:#FF6F00;stroke-width:2;"/><polygon fill="#FF6F00" points="575.39,153.05,575.41,153.1171,577.2382,152.3549,579.1838,151.9863,581.0911,151.4895,582.8728,150.5713,584.8284,150.2364,584.8264,150.2106,583.6894,150.0071,582.5626,149.9339,581.4427,149.9511,580.2987,149.6565,579.1885,149.7987,579.3725,149.813,579.0666,148.6544,579.2979,147.5376,579.5947,146.4259,579.5102,145.2845,579.6263,144.1588,579.6468,144.1686,578.7694,145.9324,577.9855,147.7409,577.1565,149.5278,576.4135,151.3557,575.39,153.05" style="stroke:#FF6F00;stroke-width:2;"/></g><!--link Decommissioned to *end*--><g class="link" data-entity-1="ent0017" data-entity-2="ent0006" data-link-type="dependency" data-source-line="96" id="lnk19"><path d="M524.72,188.52 L524.8444,188.7711 L515.912,192.2674 L507.7088,197.2356 L499.2682,201.7246 L490.0465,204.6371 L481.86,209.6389 L473.0907,213.4646 L464.5534,217.7583 L456.2176,222.4589" fill="none" style="stroke:#FF6F00;stroke-width:2;"/><polygon fill="#FF6F00" points="450.84,225.12,450.8429,225.19,452.8024,224.9007,454.7788,225.0217,456.7498,225.0091,458.7025,224.5571,460.6805,224.7133,460.6722,224.6888,459.5631,224.2165,458.4959,223.8679,457.4577,223.6052,456.3194,223.0463,455.3213,222.9024,455.4962,222.9615,455.4845,221.7633,455.9832,220.7376,456.5443,219.733,456.743,218.6059,457.1323,217.5432,457.1498,217.5578,455.8656,219.0518,454.6611,220.612,453.4182,222.1402,452.2486,223.7294,450.84,225.12" style="stroke:#FF6F00;stroke-width:2;"/></g><!--SRC=[hLPDJnin4BtlhnZWKAagAfIFGmv88GaK5P9e0wgggaBExcpYhjTUsGvfYlZl7QytmPk4qbRTq-JDcpUUySTaHvMMAmbJ9jEvvjQYX8m9Wr6qiyLbzGoZdHGpBX7EB-zlsbVz-yxWUX13zUqT7vmSZaz2ogZN6VIxxVXBpTj26ROxdzgNlPNG1cKGTtjnc0VsikmqEpXOKIu6_Ti6eQAuRqLfn_7WSvEpL8bCpcN9D2jWp99yejLCfXqbbAQAcJJaGccZw0rqL56on89W2pMpOD1QBYSc41YoD2K8FWHOxFMqH0sd0JwQibJD7Tlt_DdpSL6Y5bpcTpAj3FIztyBmwroMyaoWXUS6IpWEGQbITE1He-WkPcmcB3n65qhQFYiGTcCrLbRjLeXFyTpZ2XpndmY7Hz5JgDJMMir9nqS4BGzqbXjJYTY5G5gLBfY8RgSyoIKQGyrhg2Q24VWOdQzjJkC4HkTAKwzgJt1aQaUelhMejhMQZsSMjtjTPPjbLV2B2wUpahC9retTqFp7UXefZ6KMN-tD_oluBxeyiaolxNblkRmbyEHkLUz7ANZ2hLYu6-LAqlOzohGkBd4H1Z8AU-26ZxdWTW5SGifq3WKTQTBeAuij60ecxTtDDHHiGI-NJXFolY3u3em2EwNxKB6biZ1NEW_lfsDlgMADiL7KDeNr_NbPwm-PNZNOZTyeliwgr2wu4AzfRNAYwElRRx1_1bSflP8yuvX6qRFjFDtg2IQuDXmsrAfKne5B2_RfDPJa8hqMnFWT4zlqdrKRN2dLHfLN4cEYwT1HtfNjymh-WDfdhasFbq8jFEojO9Kja3W7uXeQV-kCKcF2R1rPszwJgABWniLuR_WRV55XMrgm3zAzj3HUWHxbHFDgtgvHQ9fGk5KmesEQCEFc0EAgaOv2WuXoeGancWr6ITR04YKJB6q3CrPftWnDiQIRWZ9n-AhtbG1TA0lbbBc_1tN_gmL8q8gb1Il3_ZlFUCP5wYD-0G00]--></g></svg>