<svg xmlns="http://www.w3.org/2000/svg" xmlns:xlink="http://www.w3.org/1999/xlink" contentStyleType="text/css" data-diagram-type="CLASS" height="135px" preserveAspectRatio="none" style="width:372px;height:135px;" version="1.1" viewBox="0 0 372 135" width="372px" zoomAndPan="magnify"><defs/><g><!--class Outcome--><g class="entity" data-qualified-name="Outcome" data-source-line="66" id="ent0002"><a href="/concept/outcome/#ontology" target="_top" title="/concept/outcome/#ontology" xlink:actuate="onRequest" xlink:href="/concept/outcome/#ontology" xlink:show="new" xlink:title="/concept/outcome/#ontology" xlink:type="simple"><polygon fill="#4051B5" points="65.5,98,65.5,98.2102,75.2035,97.5857,84.907,98.1933,94.6105,98.3997,104.314,97.2866,114.0175,97.9223,123.721,97.5735,133.4245,97.6165,143.128,97.9318,152.8315,98,152.7434,97.7871,153.3264,98.3462,153.5997,98.1574,154.0791,98.4663,154.5837,98.836,154.9529,98.8787,154.9264,98.8677,155.1496,99.3116,155.2945,99.7231,155.535,100.1742,155.7295,100.6062,155.8315,101,156.0268,101,156.0552,105.8,156.058,110.6,155.9164,115.4,155.9861,120.2,155.8315,125,156.0478,125.0896,155.4337,125.3323,155.689,125.9351,155.213,126.235,155.293,126.7651,154.9529,127.1213,154.8897,126.9689,154.5199,127.276,154.1989,127.7012,153.6739,127.6335,153.2692,127.8567,152.8315,128,152.8315,128.3386,143.128,128.4162,133.4245,127.9961,123.721,128.2872,114.0175,127.4276,104.314,128.2844,94.6105,128.5482,84.907,128.4445,75.2035,128.613,65.5,128,65.4384,127.8512,64.9925,127.6234,64.5722,127.4572,64.2197,127.4547,63.7779,127.2365,63.3787,127.1213,63.5885,127.2082,63.1492,126.6748,62.9216,126.229,62.9218,125.8776,62.4704,125.3392,62.5,125,62.327,125,62.7163,120.2,62.6452,115.4,62.7448,110.6,62.3927,105.8,62.5,101,62.5983,101.0407,62.8576,100.6511,62.706,100.0912,62.9977,99.715,63.2417,99.319,63.3787,98.8787,63.4618,99.0794,63.8024,98.7017,64.2862,98.6697,64.5808,98.1809,64.9893,97.9672,65.5,98" style="stroke:#FF6F00;stroke-width:2;"/><polygon fill="#ADD1B2" points="86.5552,115.4324,85.0894,117.4353,83.3556,120.3688,80.876,122.3458,78.2703,123.4269,76.1927,123.5207,73.5224,122.1687,71.0029,121.2854,69.0905,119.492,68.0873,117.4389,67.4924,115.8041,66.9096,113.6688,65.9636,111.8313,66.6906,110.0373,67.3275,108.072,69.7175,106.5177,71.3991,104.501,73.4804,103.8313,75.9547,103.2546,79.1276,103.5972,80.8655,104.4168,82.8861,104.7884,85.3429,107.3054,86.1993,109.9627,86.5714,111.7758,86.15,114.7635" style="stroke:#181818;stroke-width:1;"/><path d="M78.3594,117.2344 Q77.9219,117.4531 77.4219,117.5625 Q76.9375,117.6875 76.4063,117.6875 Q74.4844,117.6875 73.4688,116.4219 Q72.4688,115.1563 72.4688,112.7656 Q72.4688,110.375 73.4688,109.1094 Q74.4844,107.8438 76.4063,107.8438 Q76.9375,107.8438 77.4375,107.9688 Q77.9375,108.0781 78.3594,108.3125 L78.3594,110.3906 Q77.875,109.9531 77.4219,109.75 Q76.9688,109.5313 76.4844,109.5313 Q75.4688,109.5313 74.9375,110.3594 Q74.4063,111.1719 74.4063,112.7656 Q74.4063,114.375 74.9375,115.1875 Q75.4688,116 76.4844,116 Q76.9688,116 77.4219,115.7969 Q77.875,115.5938 78.3594,115.1406 L78.3594,117.2344 Z " fill="#FFFFFF"/><text fill="#FFFFFF" font-family="'Roboto'" font-size="13" lengthAdjust="spacing" textLength="59.3315" x="91.5" y="117.5005">Outcome</text></a></g><!--class UseCase--><g class="entity" data-qualified-name="UseCase" data-source-line="67" id="ent0003"><a href="/concept/use-case/#ontology" target="_top" title="/concept/use-case/#ontology" xlink:actuate="onRequest" xlink:href="/concept/use-case/#ontology" xlink:show="new" xlink:title="/concept/use-case/#ontology" xlink:type="simple"><polygon fill="#4051B5" points="278.12,98,278.12,98.2102,288.6326,97.5857,299.1451,98.1933,309.6577,98.3997,320.1703,97.2866,330.6829,97.9223,341.1954,97.5735,351.708,97.6165,362.2206,98,362.2119,97.979,362.5567,97.9628,363.1397,98.522,363.413,98.3331,363.8924,98.642,364.3419,98.8787,364.4749,98.9338,364.4912,99.292,364.7144,99.7359,364.8593,100.1474,365.0998,100.5985,365.2206,101,365.3003,101,365.4158,105.8,365.4443,110.6,365.447,115.4,365.3055,120.2,365.2206,125,365.3634,125.0591,365.2611,125.5138,364.647,125.7565,364.9023,126.3593,364.4263,126.6592,364.3419,127.1213,364.41,127.2857,363.8545,127.1446,363.4846,127.4517,363.1637,127.8769,362.6386,127.8093,362.2206,128,362.2206,128.1053,351.708,128.3386,341.1954,128.4162,330.6829,127.9961,320.1703,128.2872,309.6577,127.4276,299.1451,128.2844,288.6326,128.5482,278.12,128,278.1767,128.1369,277.7739,128.0131,277.2098,127.4998,276.764,127.2719,276.3437,127.1057,275.9987,127.1213,275.9805,127.1138,275.7624,126.672,275.8571,126.3597,275.4177,125.8262,275.1901,125.3805,275.12,125,275.1961,125,274.8977,120.2,274.947,115.4,275.3363,110.6,275.2652,105.8,275.12,101,275.3462,101.0937,275.1966,100.5347,275.5698,100.1922,275.829,99.8025,275.6775,99.2427,275.9987,98.8787,275.9865,98.8492,276.439,98.7417,276.9303,98.7279,277.2709,98.3502,277.7547,98.3182,278.12,98" style="stroke:#FF6F00;stroke-width:2;"/><polygon fill="#ADD1B2" points="299.1752,115.4324,297.7094,117.4353,295.9756,120.3688,293.496,122.3458,290.8903,123.4269,288.8127,123.5207,286.1424,122.1687,283.6229,121.2854,281.7105,119.492,280.7073,117.4389,280.1124,115.8041,279.5296,113.6688,278.5836,111.8313,279.3106,110.0373,279.9475,108.072,282.3375,106.5177,284.0191,104.501,286.1004,103.8313,288.5747,103.2546,291.7476,103.5972,293.4855,104.4168,295.5061,104.7884,297.9629,107.3054,298.8193,109.9627,299.1914,111.7758,298.77,114.7635" style="stroke:#181818;stroke-width:1;"/><path d="M290.9794,117.2344 Q290.5419,117.4531 290.0419,117.5625 Q289.5575,117.6875 289.0263,117.6875 Q287.1044,117.6875 286.0888,116.4219 Q285.0888,115.1563 285.0888,112.7656 Q285.0888,110.375 286.0888,109.1094 Q287.1044,107.8438 289.0263,107.8438 Q289.5575,107.8438 290.0575,107.9688 Q290.5575,108.0781 290.9794,108.3125 L290.9794,110.3906 Q290.495,109.9531 290.0419,109.75 Q289.5888,109.5313 289.1044,109.5313 Q288.0888,109.5313 287.5575,110.3594 Q287.0263,111.1719 287.0263,112.7656 Q287.0263,114.375 287.5575,115.1875 Q288.0888,116 289.1044,116 Q289.5888,116 290.0419,115.7969 Q290.495,115.5938 290.9794,115.1406 L290.9794,117.2344 Z " fill="#FFFFFF"/><text fill="#FFFFFF" font-family="'Roboto'" font-size="13" lengthAdjust="spacing" textLength="56.1006" x="304.12" y="117.5005">UseCase</text></a></g><!--class Story--><g class="entity" data-qualified-name="Story" data-source-line="68" id="ent0004"><a href="/concept/story/#ontology" target="_top" title="/concept/story/#ontology" xlink:actuate="onRequest" xlink:href="/concept/story/#ontology" xlink:show="new" xlink:title="/concept/story/#ontology" xlink:type="simple"><polygon fill="#4051B5" points="10,7,10,7.2102,20.3901,6.5857,30.7803,7.1933,41.1704,7.3997,51.5605,6.2866,61.9507,6.9223,72.3408,7,72.2864,6.8687,72.7162,7.0576,73.1807,7.3305,73.5254,7.3143,74.1085,7.8734,74.4621,7.8787,74.268,7.7983,74.577,8.2777,74.9466,8.7823,74.9629,9.1405,75.1861,9.5844,75.3408,10,75.3302,10,75.4003,14.8,75.4205,19.6,75.5361,24.4,75.5645,29.2,75.3408,34,75.55,34.0866,75.2435,34.4567,75.1321,34.9077,75.0299,35.3624,74.4158,35.6051,74.4621,36.1213,74.5487,36.3303,74.0001,36.2057,73.6817,36.6372,73.1262,36.4961,72.7563,36.8032,72.3408,37,72.3408,37.7416,61.9507,36.9513,51.5605,37.1053,41.1704,37.3386,30.7803,37.4162,20.3901,36.9961,10,37,10.0366,37.0885,9.5027,36.648,9.1877,36.7361,8.7971,36.6416,8.3596,36.434,7.8787,36.1213,8.0675,36.1995,7.5542,35.6354,7.3264,35.1896,7.1601,34.7693,7.1576,34.4168,7,34,6.9345,34,7.2271,29.2,6.9418,24.4,6.8856,19.6,7.0761,14.8,7,10,6.7946,9.9149,7.0159,9.5095,7.5513,9.2343,7.6614,8.7828,7.9291,8.3966,7.8787,7.8787,7.8376,7.7796,8.3437,7.8012,8.8025,7.709,9.0912,7.206,9.5635,7.1462,10,7" style="stroke:#FF6F00;stroke-width:2;"/><polygon fill="#ADD1B2" points="31.0552,24.4324,29.5894,26.4353,27.8556,29.3688,25.376,31.3458,22.7703,32.4269,20.6927,32.5207,18.0224,31.1687,15.5029,30.2854,13.5905,28.492,12.5873,26.4389,11.9924,24.8041,11.4096,22.6688,10.4636,20.8313,11.1906,19.0373,11.8275,17.072,14.2175,15.5177,15.8991,13.501,17.9804,12.8313,20.4547,12.2546,23.6276,12.5972,25.3655,13.4168,27.3861,13.7884,29.8429,16.3054,30.6993,18.9627,31.0714,20.7758,30.65,23.7635" style="stroke:#181818;stroke-width:1;"/><path d="M22.8594,26.2344 Q22.4219,26.4531 21.9219,26.5625 Q21.4375,26.6875 20.9063,26.6875 Q18.9844,26.6875 17.9688,25.4219 Q16.9688,24.1563 16.9688,21.7656 Q16.9688,19.375 17.9688,18.1094 Q18.9844,16.8438 20.9063,16.8438 Q21.4375,16.8438 21.9375,16.9688 Q22.4375,17.0781 22.8594,17.3125 L22.8594,19.3906 Q22.375,18.9531 21.9219,18.75 Q21.4688,18.5313 20.9844,18.5313 Q19.9688,18.5313 19.4375,19.3594 Q18.9063,20.1719 18.9063,21.7656 Q18.9063,23.375 19.4375,24.1875 Q19.9688,25 20.9844,25 Q21.4688,25 21.9219,24.7969 Q22.375,24.5938 22.8594,24.1406 L22.8594,26.2344 Z " fill="#FFFFFF"/><text fill="#FFFFFF" font-family="'Roboto'" font-size="13" lengthAdjust="spacing" textLength="34.3408" x="36" y="26.5005">Story</text></a></g><!--class OutcomeRelationship--><g class="entity" data-qualified-name="OutcomeRelationship" data-source-line="69" id="ent0005"><polygon fill="#4051B5" points="172.31,7,172.31,7.2102,182.1758,6.5857,192.0416,7.1933,201.9073,7.3997,211.7731,6.2866,221.6389,6.9223,231.5047,6.5735,241.3705,6.6165,251.2362,6.9318,261.102,6.3086,270.9678,7.5536,280.8336,6.3697,290.6994,6.8022,300.5651,7.4319,310.4309,6.9142,320.2967,7.0682,330.1625,6.9681,340.0283,7,340.051,7.055,340.483,7.2494,340.9515,7.5318,341.3867,7.7339,341.812,7.9121,342.1496,7.8787,342.228,7.9112,342.4681,8.3621,342.7173,8.8168,342.4547,9.0595,343.0615,9.6623,343.0283,10,342.9294,10,343.2062,14.8,342.8633,19.6,343.0054,24.4,343.2755,29.2,343.0283,34,343.0133,33.9938,342.885,34.4377,342.7811,34.8917,342.6292,35.3259,342.3241,35.6966,342.1496,36.1213,342.1862,36.2098,341.6523,36.1208,341.3373,36.5604,340.9467,36.8174,340.5092,36.9612,340.0283,37,340.0283,37.613,330.1625,36.5169,320.2967,36.3478,310.4309,36.3786,300.5651,36.9411,290.6994,36.8035,280.8336,37.6814,270.9678,36.8253,261.102,36.6569,251.2362,37.2283,241.3705,36.3332,231.5047,36.4809,221.6389,37.649,211.7731,37.4357,201.9073,37.7345,192.0416,36.6782,182.1758,37.3192,172.31,37,172.3853,37.1818,171.8255,36.6788,171.4492,36.619,171.0533,36.5116,170.6961,36.4978,170.1887,36.1213,170.1874,36.1208,170.1554,35.7561,169.6667,35.2022,169.4529,34.7621,169.6408,34.4885,169.31,34,169.071,34,169.4797,29.2,169.3789,24.4,169.2207,19.6,169.1921,14.8,169.31,10,169.4513,10.0585,169.3936,9.5376,169.8437,9.227,169.667,8.6567,170.2031,8.3817,170.1887,7.8787,170.2505,8.0278,170.6442,7.7784,171.0432,7.5417,171.5542,7.5752,171.964,7.3647,172.31,7" style="stroke:#FF6F00;stroke-width:2;"/><polygon fill="#ADD1B2" points="193.3652,24.4324,191.8994,26.4353,190.1656,29.3688,187.686,31.3458,185.0803,32.4269,183.0027,32.5207,180.3324,31.1687,177.8129,30.2854,175.9005,28.492,174.8973,26.4389,174.3024,24.8041,173.7196,22.6688,172.7736,20.8313,173.5006,19.0373,174.1375,17.072,176.5275,15.5177,178.2091,13.501,180.2904,12.8313,182.7647,12.2546,185.9376,12.5972,187.6755,13.4168,189.6961,13.7884,192.1529,16.3054,193.0093,18.9627,193.3814,20.7758,192.96,23.7635" style="stroke:#181818;stroke-width:1;"/><path d="M185.1694,26.2344 Q184.7319,26.4531 184.2319,26.5625 Q183.7475,26.6875 183.2163,26.6875 Q181.2944,26.6875 180.2788,25.4219 Q179.2788,24.1563 179.2788,21.7656 Q179.2788,19.375 180.2788,18.1094 Q181.2944,16.8438 183.2163,16.8438 Q183.7475,16.8438 184.2475,16.9688 Q184.7475,17.0781 185.1694,17.3125 L185.1694,19.3906 Q184.685,18.9531 184.2319,18.75 Q183.7788,18.5313 183.2944,18.5313 Q182.2788,18.5313 181.7475,19.3594 Q181.2163,20.1719 181.2163,21.7656 Q181.2163,23.375 181.7475,24.1875 Q182.2788,25 183.2944,25 Q183.7788,25 184.2319,24.7969 Q184.685,24.5938 185.1694,24.1406 L185.1694,26.2344 Z " fill="#FFFFFF"/><text fill="#FFFFFF" font-family="'Roboto'" font-size="13" lengthAdjust="spacing" textLength="139.7183" x="198.31" y="26.5005">OutcomeRelationship</text></g><!--link OutcomeRelationship to UseCase--><g class="link" data-entity-1="ent0005" data-entity-2="ent0003" data-link-type="dependency" data-source-line="72" id="lnk6"><path d="M269.88,37.44 L269.9503,37.5015 L271.3966,39.2133 L273.2552,41.2855 L274.9795,43.2404 L276.2622,44.8094 L278.1563,46.9125 L278.1292,46.891 L279.6106,48.8121 L281.2283,50.8415 L282.9408,52.9462 L284.3267,54.7914 L286.17,57 L286.37,57.1434 L287.3015,58.7325 L288.8168,60.7403 L290.4034,62.7991 L291.5756,64.5608 L292.9657,66.4788 L292.9909,66.4956 L294.1366,68.2456 L295.3972,70.0722 L296.6024,71.8619 L297.9133,73.722 L298.8794,75.3524 L299.1347,75.5067 L301.1922,78.9076 L303.085,82.2089 L305.2189,85.6559 L307.364,89.1098 L309.1513,92.3473" fill="none" style="stroke:#FF6F00;stroke-width:2;"/><polygon fill="#FF6F00" points="312.14,97.55,312.2097,97.5572,311.7997,95.5765,311.7983,93.6381,311.6638,91.6858,311.0918,89.6883,311.1254,87.7535,311.1004,87.7468,310.693,88.8086,310.4116,89.9045,310.2179,91.0241,309.7222,92.0621,309.6494,93.2144,309.6976,93.3926,308.5024,92.7164,307.4479,92.5604,306.4105,92.4678,305.2733,92.006,304.1885,91.7384,304.202,91.7568,305.7725,92.8922,307.4042,94.1111,309.0065,95.2897,310.6649,96.5453,312.14,97.55" style="stroke:#FF6F00;stroke-width:2;"/><text fill="#FFFFFF" font-family="'Roboto'" font-size="13" lengthAdjust="spacing" textLength="59.2046" x="303.17" y="72.0669">:useCase</text><text fill="#FFFFFF" font-family="'Roboto'" font-size="13" lengthAdjust="spacing" textLength="23.0356" x="244.95" y="59.1651">0..*</text><text fill="#FFFFFF" font-family="'Roboto'" font-size="13" lengthAdjust="spacing" textLength="8.271" x="297.8847" y="84.9963">1</text></g><!--link OutcomeRelationship to Outcome--><g class="link" data-entity-1="ent0005" data-entity-2="ent0002" data-link-type="dependency" data-source-line="73" id="lnk7"><path d="M210.96,37.4 L210.995,37.4866 L208.8219,38.0642 L206.8537,39.1496 L204.8188,40.0696 L202.5645,40.4458 L200.6139,41.5748 L200.5998,41.5433 L198.448,42.3356 L196.3673,43.2868 L194.3359,44.3485 L192.1344,45.0295 L190.1713,46.2438 L190.2817,46.4636 L187.9963,47.0228 L186.0335,48.224 L184.11,49.5035 L181.9575,50.3273 L179.9255,51.3908 L179.9406,51.4171 L177.9673,52.5003 L176.0628,53.7033 L174.1252,54.8484 L172.2508,56.1038 L170.17,57 L170.3373,57.2469 L167.7389,59.012 L165.0326,60.6178 L162.4842,62.4568 L159.9433,64.3066 L157.1677,65.8103 L156.9682,65.5594 L155.0519,67.8779 L152.4786,69.3704 L150.4047,71.4908 L147.8166,72.9645 L145.65,74.9683 L145.6295,74.9457 L143.8225,77.0706 L141.5376,78.6687 L139.5346,80.5776 L137.5554,82.5126 L135.4053,84.2593 L135.5363,84.39 L133.5675,86.1001 L131.8226,88.0334 L129.7154,89.6055 L128.1485,91.7163 L126.2224,93.469" fill="none" style="stroke:#FF6F00;stroke-width:2;"/><polygon fill="#FF6F00" points="122.07,97.8,122.0965,97.8648,123.8409,96.9265,125.7408,96.3684,127.59,95.6864,129.2728,94.5974,131.186,94.0718,131.1854,94.046,130.0519,93.9535,128.921,93.9917,127.7921,94.1205,126.6566,93.9367,125.5304,94.1909,125.7149,94.1947,125.2965,93.0553,125.4169,91.9272,125.6029,90.8005,125.4066,89.6658,125.4114,88.5353,125.4327,88.543,124.7331,90.3846,124.1308,92.2613,123.4815,94.1211,122.9219,96.0133,122.07,97.8" style="stroke:#FF6F00;stroke-width:2;"/><text fill="#FFFFFF" font-family="'Roboto'" font-size="13" lengthAdjust="spacing" textLength="103.4668" x="173.17" y="72.0669">:targetOutcome</text></g><!--link Story to Outcome--><g class="link" data-entity-1="ent0004" data-entity-2="ent0002" data-link-type="dependency" data-source-line="76" id="lnk8"><path d="M36.51,37.23 L36.6017,37.248 L35.9498,39.125 L35.8352,41.1076 L35.5457,43.0558 L34.6808,44.8908 L34.6123,46.8825 L34.5779,46.8801 L34.2775,48.992 L34.1509,51.1158 L34.145,53.2479 L33.7229,55.3515 L33.8838,57.495 L34.1281,57.5236 L33.8554,59.5969 L34.2963,61.7538 L34.8241,63.9208 L34.8455,66.0286 L35.1333,68.1675 L35.1613,68.179 L35.9275,70.1286 L36.8214,72.1306 L37.6536,74.1074 L38.6035,76.1324 L39.17,78 L39.4098,78.1774 L40.9032,80.1945 L42.2419,82.0972 L43.8071,84.1674 L45.3828,86.2454 L46.6224,88.0747 L46.4373,87.8131 L48.8346,89.7628 L50.6223,90.851 L52.8734,92.5942 L54.6473,93.6629 L56.8123,95.2844" fill="none" style="stroke:#FF6F00;stroke-width:2;"/><polygon fill="#FF6F00" points="62.1,98.12,62.1553,98.163,60.7827,96.4796,59.7344,95.0481,58.5806,93.5346,57.0793,91.7513,56.0589,90.3415,56.0341,90.334,56.2497,91.3835,56.5904,92.4708,57.018,93.5842,57.146,94.6073,57.6936,95.757,57.7469,95.9337,56.5498,95.8828,55.5084,96.3478,54.4859,96.8757,53.3529,97.0374,52.2781,97.3917,52.2798,97.4144,54.2417,97.5268,56.2113,97.7424,58.1771,97.9082,60.1501,98.169,62.1,98.12" style="stroke:#FF6F00;stroke-width:2;"/><text fill="#FFFFFF" font-family="'Roboto'" font-size="13" lengthAdjust="spacing" textLength="94.0278" x="42.17" y="72.0669">:contributesTo</text></g><!--SRC=[hLJBRjim4BppApRAeG_0YTCy3ZaKK1mdBTfQWUoWA88WeAMLhLeY1N85mmtwxoNrS2XRHT6YF173sU7ESC43ML0g1IovYDSg9K81f4fa1p4cgK2ukdtwud-SF8s2pq48rJey6vwVpCzTodGy2YRNVlYjuVLGxlpH9_zsl1NQemJXzJXqxu739Bb8XiCjvIQOp3g4YcBNbkA7OV2rosbLc5wbek2Avp3dqMgXP2dYaSoaCewvqEO81J7s2aOoBtX4aF6DB0aq4gLYeHs1Enx71e9t3XRMUagWWWi7dovvBDUMdV1CetFoOLEWobAnkXTnjS4w-nv6tMThvOLW6bzfBE3C1OMCqOAd7TFNcF0o8tXcDrBGXES8NYZdagHN8VKLBnbNu3JzWN1oodwwIhvIScrqwWedSaUdVPXAX3OPcgvKpZCsMwRHIg3M9hoEQfHn0pwpgvt7wKmWkvBAPDMSE2FJ7BZglQPy8fNEIyB-K-jitrO5_xPnCoihli0cs3tDV_JJkK8J9_nZDl_Fy5-aF2MkTjvytBRN0XqlK-kbfsg7iIV2I1P04ip4aimXJXL6zkzYopH6o36VezACrMFa1IL5CaSFk8Pc3myFnv4K4HPqB6le-D24OcvPR1uVsyfxZIEkwyfcxrQM6WUHmVfAfoJLfYgiTcwPja1VJTDSY1ctRlGoBTocNTp-JQqN-odOeNkj7C90ph-RKDwmdcBmXaT7RpqO3Dw3T-9jhLt2PLblUwiilRtJKCspBP0QmFPZZQQeGM62vl-C49fejJNXhPSRZzLXx2YPO9h1r3Fv2m00]--></g></svg>