<svg xmlns="http://www.w3.org/2000/svg" xmlns:xlink="http://www.w3.org/1999/xlink" contentStyleType="text/css" data-diagram-type="STATE" height="270px" preserveAspectRatio="none" style="width:365px;height:270px;" version="1.1" viewBox="0 0 365 270" width="365px" zoomAndPan="magnify"><defs/><g><path d="M10,7 L10,7.5605 L19.8571,5.8951 L29.7143,7.5154 L39.5714,8.0658 L49.4286,5.0976 L59.2857,6.7928 L69.1429,5.8627 L79,5.9773 L88.8571,6.8182 L98.7143,5.1563 L108.5714,8.4764 L118.4286,5.3193 L128.2857,6.4726 L138.1429,8.1519 L148,6.7713 L157.8571,7.182 L167.7143,6.9148 L177.5714,7.4761 L187.4286,7.6377 L197.2857,8.5618 L207.1429,8.7895 L217,8.8114 L226.8571,7.679 L236.7143,8.2362 L246.5714,8.8726 L256.4286,5.0768 L266.2857,8.8094 L276.1429,6.2093 L286,8.4235 L295.8571,5.6799 L305.7143,6.8173 L315.5714,8.9776 L325.4286,6.87 L335.2857,7.2808 L345.1429,7.903 L355,7 L358,10 L358.37,10 L357.9965,14.2 L358.2553,18.4 L357.4912,22.6 L358.2528,26.8 L358,31 L358,32.4619 L347.9714,32.1854 L337.9429,32.6347 L327.9143,29.7118 L317.8857,29.2608 L307.8571,29.3429 L297.8286,30.843 L287.8,30.4759 L277.7714,32.8171 L267.7429,30.5342 L257.7143,30.0852 L247.6857,31.6087 L237.6571,29.2218 L227.6286,29.6157 L217.6,32.7305 L207.5714,32.1618 L197.5429,32.9586 L187.5143,30.1419 L177.4857,31.8512 L167.4571,32.5745 L157.4286,29.7403 L147.4,30.7444 L137.3714,31.336 L127.3429,32.738 L117.3143,30.9888 L107.2857,32.2335 L97.2571,29.5232 L87.2286,29.194 L77.2,32.343 L67.1714,29.0882 L57.1429,32.3572 L47.1143,31.551 L37.0857,30.2856 L27.0571,30.0566 L17.0286,32.2234 L7,31 L6.7339,31 L7.5261,26.8 L6.5087,22.6 L7.5488,18.4 L7.4305,14.2 L7,10 L10,7" fill="#4051B5"/><polygon fill="none" points="10,7,10,7.2102,19.8571,6.5857,29.7143,7.1933,39.5714,7.3997,49.4286,6.2866,59.2857,6.9223,69.1429,6.5735,79,6.6165,88.8571,6.9318,98.7143,6.3086,108.5714,7.5536,118.4286,6.3697,128.2857,6.8022,138.1429,7.4319,148,6.9142,157.8571,7.0682,167.7143,6.9681,177.5714,7.1785,187.4286,7.2391,197.2857,7.5857,207.1429,7.6711,217,7.6793,226.8571,7.2546,236.7143,7.4636,246.5714,7.7022,256.4286,6.2788,266.2857,7.6785,276.1429,6.7035,286,7.5338,295.8571,6.505,305.7143,6.9315,315.5714,7.7416,325.4286,6.9513,335.2857,7.1053,345.1429,7.3386,355,7,355.0531,7.1282,355.4238,7.1745,355.8852,7.4399,356.1998,7.3509,356.7333,7.7905,357.1213,7.8787,357.2901,7.9486,357.434,8.3596,357.6616,8.8054,357.4998,9.0898,357.6234,9.4925,358,10,357.3786,10,357.9411,20.04,357.8035,30.08,358.6814,40.12,357.8253,50.16,357.6569,60.2,358.2283,70.24,357.3332,80.28,357.4809,90.32,358.649,100.36,358.4357,110.4,358.7345,120.44,357.6782,130.48,358.3192,140.52,358.5904,150.56,357.5276,160.6,357.9041,170.64,358.126,180.68,358.6518,190.72,357.9958,200.76,358.4626,210.8,357.4462,220.84,357.3227,230.88,358.5036,240.92,357.2831,250.96,358,261,358.1567,261.0649,357.8879,261.4506,357.566,261.8144,357.3638,262.2277,357.4383,262.7556,357.1213,263.1213,357.0831,263.0291,356.7726,263.4793,356.2023,263.3026,355.9273,263.8387,355.486,263.9734,355,264,355,264.245,345.1429,264.0472,335.2857,264.7266,325.4286,264.6136,315.5714,264.1693,305.7143,264.2682,295.8571,263.8697,286,264.7165,276.1429,264.1549,266.2857,264.1726,256.4286,263.3916,246.5714,263.5948,236.7143,264.5307,226.8571,264.4298,217,263.9571,207.1429,263.6778,197.2857,263.7811,187.4286,263.3138,177.5714,264.4147,167.7143,264.7396,157.8571,264.5264,148,264.6949,138.1429,263.8633,128.2857,264.0872,118.4286,263.6124,108.5714,264.284,98.7143,264.2468,88.8571,264.5524,79,263.7703,69.1429,263.8656,59.2857,264.4435,49.4286,264.5673,39.5714,263.4875,29.7143,263.8061,19.8571,264.1493,10,264,9.9221,263.8119,9.6208,263.9331,9.1844,263.728,8.7144,263.4418,8.3211,263.3409,7.8787,263.1213,8.1031,263.2143,7.6066,262.6571,7.6242,262.313,7.4394,261.885,7.2114,261.439,7,261,7.1409,261,7.1135,250.96,6.3758,240.92,6.5992,230.88,6.5385,220.84,7.0638,210.8,7.0881,200.76,7.1617,190.72,6.709,180.68,6.9325,170.64,6.8798,160.6,7.5769,150.56,7.4266,140.52,6.5145,130.48,6.9271,120.44,6.4228,110.4,7.2884,100.36,7.6085,90.32,7.5446,80.28,6.5644,70.24,7.464,60.2,6.2572,50.16,7.2002,40.12,6.7007,30.08,7.0967,20.04,7,10,7.074,10.0307,7.3211,9.636,7.1298,9.0596,7.6736,8.7879,7.7578,8.3257,7.8787,7.8787,7.924,7.9881,8.3983,7.9332,8.7279,7.5289,9.1738,7.4054,9.603,7.2415,10,7" style="stroke:#FF6F00;stroke-width:2;"/><path d="M7,31 L7,31.2802 L17.0286,30.4476 L27.0571,31.2577 L37.0857,31.5329 L47.1143,30.0488 L57.1429,30.8964 L67.1714,30.4313 L77.2,30.4887 L87.2286,30.9091 L97.2571,30.0782 L107.2857,31.7382 L117.3143,30.1596 L127.3429,30.7363 L137.3714,31.5759 L147.4,30.8856 L157.4286,31.091 L167.4571,30.9574 L177.4857,31.238 L187.5143,31.3188 L197.5429,31.7809 L207.5714,31.8947 L217.6,31.9057 L227.6286,31.3395 L237.6571,31.6181 L247.6857,31.9363 L257.7143,30.0384 L267.7429,31.9047 L277.7714,30.6047 L287.8,31.7117 L297.8286,30.34 L307.8571,30.9087 L317.8857,31.9888 L327.9143,30.935 L337.9429,31.1404 L347.9714,31.4515 L358,31" fill="#4051B5" style="stroke:#FF6F00;stroke-width:2;"/><text fill="#FFFFFF" font-family="'Roboto'" font-size="13" lengthAdjust="spacing" textLength="0" x="182.5" y="14">Plan</text><g><polygon fill="#4051B5" points="59,58,59,58.0701,67.8,57.8619,76.6,58.0644,85.4,58.1332,94.2,57.7622,103,58,102.9901,57.9761,103.3699,58.0444,103.7996,58.2334,104.2641,58.5062,104.6089,58.49,105.1213,58.8787,105.2918,58.9493,105.103,59.2225,105.4119,59.702,105.7816,60.2066,105.7978,60.5648,106,61,106.0682,61,105.9681,71.4,106.1785,81.8,106.2391,92.2,106.5857,102.6,106,113,106.2067,113.0856,106.0334,113.5109,105.7269,113.881,105.6156,114.3319,105.5133,114.7866,105.1213,115.1213,105.0293,114.8992,104.7836,115.506,104.235,115.3815,103.9166,115.8129,103.3611,115.6718,103,116,103,115.9772,94.2,116.2472,85.4,115.9838,76.6,116.0351,67.8,116.1129,59,116,59.0531,116.1282,58.5752,115.8231,58.1881,115.737,57.6542,115.2965,57.3392,115.3846,56.8787,115.1213,57.0475,115.1912,56.8398,114.7538,56.716,114.351,56.2027,113.7869,55.9749,113.3411,56,113,55.3786,113,55.9411,102.6,55.8035,92.2,56.6814,81.8,55.8253,71.4,56,61,55.8944,60.9562,56.246,60.6049,56.1461,60.0664,56.3673,59.661,56.9028,59.3857,56.8787,58.8787,56.9343,59.0128,57.3966,58.9291,57.6862,58.4281,58.1922,58.4498,58.6511,58.3576,59,58" style="stroke:#FF6F00;stroke-width:2;"/><path d="M56,82 L56,82.2802 L66,81.4476 L76,82.2577 L86,82.5329 L96,81.0488 L106,82" fill="#4051B5" style="stroke:#FF6F00;stroke-width:2;"/><text fill="#FFFFFF" font-family="'Roboto'" font-size="13" lengthAdjust="spacing" textLength="0" x="81" y="65">Envision</text><text fill="#FFFFFF" font-family="'Roboto'" font-size="13" lengthAdjust="spacing" textLength="0" x="63" y="89">- a shared strategy</text><text fill="#FFFFFF" font-family="'Roboto'" font-size="13" lengthAdjust="spacing" textLength="0" x="63" y="99">- see also</text><a href="/process/plan/envision/" target="_top" title="/process/plan/envision/" xlink:actuate="onRequest" xlink:href="/process/plan/envision/" xlink:show="new" xlink:title="/process/plan/envision/" xlink:type="simple"><text fill="#FF6F00" font-family="'Roboto'" font-size="13" lengthAdjust="spacing" text-decoration="underline" textLength="0" x="63" y="99">"Envision"</text></a></g><g><polygon fill="#4051B5" points="127,43,127,43.0701,135.8,42.8619,144.6,43.0644,153.4,43.1332,162.2,42.7622,171,43,170.9901,42.9761,171.3699,43.0444,171.7996,43.2334,172.2641,43.5062,172.6089,43.49,173.1213,43.8787,173.2918,43.9493,173.103,44.2225,173.4119,44.702,173.7816,45.2066,173.7978,45.5648,174,46,174.0682,46,173.9681,56.25,174.1785,66.5,174.2391,76.75,174.5857,87,174.6711,97.25,174.6793,107.5,174.2546,117.75,174,128,174.1428,128.0591,174.0405,128.5138,173.4264,128.7565,173.6817,129.3593,173.2057,129.6592,173.1213,130.1213,173.1894,130.2857,172.6339,130.1446,172.2641,130.4517,171.9431,130.8769,171.418,130.8093,171,131,171,131.0351,162.2,131.1129,153.4,131.1387,144.6,130.9987,135.8,131.0957,127,131,126.927,130.8237,126.612,130.9118,126.2214,130.8174,125.7839,130.6097,125.3811,130.4858,124.8787,130.1213,124.7299,130.0597,124.5021,129.6139,124.3358,129.1935,124.3333,128.841,124.1152,128.3992,124,128,124.6814,128,123.8253,117.75,123.6569,107.5,124.2283,97.25,123.3332,87,123.4809,76.75,124.649,66.5,124.4357,56.25,124,46,124.2262,46.0937,124.0766,45.5347,124.4498,45.1922,124.709,44.8025,124.5575,44.2427,124.8787,43.8787,124.8665,43.8492,125.319,43.7417,125.8103,43.7279,126.1509,43.3502,126.6347,43.3182,127,43" style="stroke:#FF6F00;stroke-width:2;"/><path d="M124,67 L124,67.2802 L134,66.4476 L144,67.2577 L154,67.5329 L164,66.0488 L174,67" fill="#4051B5" style="stroke:#FF6F00;stroke-width:2;"/><text fill="#FFFFFF" font-family="'Roboto'" font-size="13" lengthAdjust="spacing" textLength="0" x="149" y="50">Discover</text><text fill="#FFFFFF" font-family="'Roboto'" font-size="13" lengthAdjust="spacing" textLength="0" x="131" y="74">- strategic use cases</text><text fill="#FFFFFF" font-family="'Roboto'" font-size="13" lengthAdjust="spacing" textLength="0" x="131" y="84">- initial use case tree</text><text fill="#FFFFFF" font-family="'Roboto'" font-size="13" lengthAdjust="spacing" textLength="0" x="131" y="94">- business knowledge</text><text fill="#FFFFFF" font-family="'Roboto'" font-size="13" lengthAdjust="spacing" textLength="0" x="131" y="104">- priorities &amp; outcomes</text><text fill="#FFFFFF" font-family="'Roboto'" font-size="13" lengthAdjust="spacing" textLength="0" x="131" y="114">- see also</text><a href="/process/plan/discover/" target="_top" title="/process/plan/discover/" xlink:actuate="onRequest" xlink:href="/process/plan/discover/" xlink:show="new" xlink:title="/process/plan/discover/" xlink:type="simple"><text fill="#FF6F00" font-family="'Roboto'" font-size="13" lengthAdjust="spacing" text-decoration="underline" textLength="0" x="131" y="114">"Discover"</text></a></g><g><polygon fill="#4051B5" points="195,48,195,48.0701,203.8,47.8619,212.6,48.0644,221.4,48.1332,230.2,47.7622,239,48,238.9901,47.9761,239.3699,48.0444,239.7996,48.2334,240.2641,48.5062,240.6089,48.49,241.1213,48.8787,241.2918,48.9493,241.103,49.2225,241.4119,49.702,241.7816,50.2066,241.7978,50.5648,242,51,242.0682,51,241.9681,61.2857,242.1785,71.5714,242.2391,81.8571,242.5857,92.1429,242.6711,102.4286,242.6793,112.7143,242,123,242.0784,123.0325,241.967,123.4834,241.8648,123.9381,241.2507,124.1808,241.506,124.7836,241.1213,125.1213,241.0835,125.03,240.7651,125.4614,240.2096,125.3203,239.8398,125.6274,239.5189,126.0526,239,126,239,125.9838,230.2,126.0351,221.4,126.1129,212.6,126.1387,203.8,125.9987,195,126,195.0366,126.0885,194.5027,125.648,194.1877,125.7361,193.7971,125.6416,193.3596,125.434,192.8787,125.1213,193.0675,125.1995,192.5542,124.6354,192.3264,124.1896,192.1601,123.7693,192.1576,123.4168,192,123,191.8035,123,192.6814,112.7143,191.8253,102.4286,191.6569,92.1429,192.2283,81.8571,191.3332,71.5714,191.4809,61.2857,192,51,192.1999,51.0828,192.3099,50.6313,192.5777,50.2452,192.4281,49.6862,192.8012,49.3437,192.8787,48.8787,192.954,49.0605,193.2427,48.5575,193.715,48.4977,194.1675,48.3903,194.6589,48.3765,195,48" style="stroke:#FF6F00;stroke-width:2;"/><path d="M192,72 L192,72.2802 L202,71.4476 L212,72.2577 L222,72.5329 L232,71.0488 L242,72" fill="#4051B5" style="stroke:#FF6F00;stroke-width:2;"/><text fill="#FFFFFF" font-family="'Roboto'" font-size="13" lengthAdjust="spacing" textLength="0" x="217" y="55">Assess</text><text fill="#FFFFFF" font-family="'Roboto'" font-size="13" lengthAdjust="spacing" textLength="0" x="199" y="79">- current state</text><text fill="#FFFFFF" font-family="'Roboto'" font-size="13" lengthAdjust="spacing" textLength="0" x="199" y="89">- required next state</text><text fill="#FFFFFF" font-family="'Roboto'" font-size="13" lengthAdjust="spacing" textLength="0" x="199" y="99">- maturity (buss/org/data/tech)</text><text fill="#FFFFFF" font-family="'Roboto'" font-size="13" lengthAdjust="spacing" textLength="0" x="199" y="109">- see also</text><a href="/process/plan/assess/" target="_top" title="/process/plan/assess/" xlink:actuate="onRequest" xlink:href="/process/plan/assess/" xlink:show="new" xlink:title="/process/plan/assess/" xlink:type="simple"><text fill="#FF6F00" font-family="'Roboto'" font-size="13" lengthAdjust="spacing" text-decoration="underline" textLength="0" x="199" y="109">"Assess"</text></a></g><g><polygon fill="#4051B5" points="263,43,263,43.0701,271.8,42.8619,280.6,43.0644,289.4,43.1332,298.2,42.7622,307,43,306.9901,42.9761,307.3699,43.0444,307.7996,43.2334,308.2641,43.5062,308.6089,43.49,309.1213,43.8787,309.2918,43.9493,309.103,44.2225,309.4119,44.702,309.7816,45.2066,309.7978,45.5648,310,46,310.0682,46,309.9681,56.25,310.1785,66.5,310.2391,76.75,310.5857,87,310.6711,97.25,310.6793,107.5,310.2546,117.75,310,128,310.1428,128.0591,310.0405,128.5138,309.4264,128.7565,309.6817,129.3593,309.2057,129.6592,309.1213,130.1213,309.1894,130.2857,308.6339,130.1446,308.2641,130.4517,307.9431,130.8769,307.418,130.8093,307,131,307,131.0351,298.2,131.1129,289.4,131.1387,280.6,130.9987,271.8,131.0957,263,131,262.927,130.8237,262.612,130.9118,262.2214,130.8174,261.7839,130.6097,261.3811,130.4858,260.8787,130.1213,260.7299,130.0597,260.5021,129.6139,260.3358,129.1935,260.3333,128.841,260.1152,128.3992,260,128,260.6814,128,259.8253,117.75,259.6569,107.5,260.2283,97.25,259.3332,87,259.4809,76.75,260.649,66.5,260.4357,56.25,260,46,260.2262,46.0937,260.0766,45.5347,260.4498,45.1922,260.709,44.8025,260.5575,44.2427,260.8787,43.8787,260.8665,43.8492,261.319,43.7417,261.8103,43.7279,262.1509,43.3502,262.6347,43.3182,263,43" style="stroke:#FF6F00;stroke-width:2;"/><path d="M260,67 L260,67.2802 L270,66.4476 L280,67.2577 L290,67.5329 L300,66.0488 L310,67" fill="#4051B5" style="stroke:#FF6F00;stroke-width:2;"/><text fill="#FFFFFF" font-family="'Roboto'" font-size="13" lengthAdjust="spacing" textLength="0" x="285" y="50">Chart</text><text fill="#FFFFFF" font-family="'Roboto'" font-size="13" lengthAdjust="spacing" textLength="0" x="267" y="74">- viable roadmap</text><text fill="#FFFFFF" font-family="'Roboto'" font-size="13" lengthAdjust="spacing" textLength="0" x="267" y="84">- business case</text><text fill="#FFFFFF" font-family="'Roboto'" font-size="13" lengthAdjust="spacing" textLength="0" x="267" y="94">- stakeholder agreement</text><text fill="#FFFFFF" font-family="'Roboto'" font-size="13" lengthAdjust="spacing" textLength="0" x="267" y="104">- mandate</text><text fill="#FFFFFF" font-family="'Roboto'" font-size="13" lengthAdjust="spacing" textLength="0" x="267" y="114">- see also</text><a href="/process/plan/chart/" target="_top" title="/process/plan/chart/" xlink:actuate="onRequest" xlink:href="/process/plan/chart/" xlink:show="new" xlink:title="/process/plan/chart/" xlink:type="simple"><text fill="#FF6F00" font-family="'Roboto'" font-size="13" lengthAdjust="spacing" text-decoration="underline" textLength="0" x="267" y="114">"Chart"</text></a></g><g><polygon fill="#4051B5" points="92,204,92,204.0701,100.8,203.8619,109.6,204.0644,118.4,204.1332,127.2,203.7622,136,204,135.9901,203.9761,136.3699,204.0444,136.7996,204.2334,137.2641,204.5062,137.6089,204.49,138.1213,204.8787,138.2918,204.9493,138.103,205.2225,138.4119,205.702,138.7816,206.2066,138.7978,206.5648,139,207,139.0227,207,138.9894,215.8,139.0595,224.6,139.0797,233.4,139.1952,242.2,139,251,139.2067,251.0856,139.0334,251.5109,138.7269,251.881,138.6156,252.3319,138.5133,252.7866,138.1213,253.1213,138.0293,252.8992,137.7836,253.506,137.235,253.3815,136.9166,253.8129,136.3611,253.6718,136,254,136,253.9772,127.2,254.2472,118.4,253.9838,109.6,254.0351,100.8,254.1129,92,254,92.0531,254.1282,91.5752,253.8231,91.1881,253.737,90.6542,253.2965,90.3392,253.3846,89.8787,253.1213,90.0475,253.1912,89.8398,252.7538,89.716,252.351,89.2027,251.7869,88.9749,251.3411,89,251,88.7929,251,88.9804,242.2,88.9345,233.4,89.2271,224.6,88.9418,215.8,89,207,88.8944,206.9562,89.246,206.6049,89.1461,206.0664,89.3673,205.661,89.9028,205.3857,89.8787,204.8787,89.9343,205.0128,90.3966,204.9291,90.6862,204.4281,91.1922,204.4498,91.6511,204.3576,92,204" style="stroke:#FF6F00;stroke-width:2;"/><path d="M89,228 L89,228.2802 L99,227.4476 L109,228.2577 L119,228.5329 L129,227.0488 L139,228" fill="#4051B5" style="stroke:#FF6F00;stroke-width:2;"/><text fill="#FFFFFF" font-family="'Roboto'" font-size="13" lengthAdjust="spacing" textLength="0" x="114" y="211">Train</text><text fill="#FFFFFF" font-family="'Roboto'" font-size="13" lengthAdjust="spacing" textLength="0" x="96" y="235">- see also</text><a href="/process/plan/train/" target="_top" title="/process/plan/train/" xlink:actuate="onRequest" xlink:href="/process/plan/train/" xlink:show="new" xlink:title="/process/plan/train/" xlink:type="simple"><text fill="#FF6F00" font-family="'Roboto'" font-size="13" lengthAdjust="spacing" text-decoration="underline" textLength="0" x="96" y="235">"Train"</text></a></g><polygon fill="#222222" points="38.0552,89.4324,36.5894,91.4353,34.8556,94.3688,32.376,96.3458,29.7703,97.4269,27.6927,97.5207,25.0224,96.1687,22.5029,95.2854,20.5905,93.492,19.5873,91.4389,18.9924,89.8041,18.4096,87.6688,17.4636,85.8313,18.1906,84.0373,18.8275,82.072,21.2175,80.5177,22.8991,78.501,24.9804,77.8313,27.4547,77.2546,30.6276,77.5972,32.3655,78.4168,34.3861,78.7884,36.8429,81.3054,37.6993,83.9627,38.0714,85.7758,37.65,88.7635" style="stroke:#222222;stroke-width:1;"/><polygon fill="none" points="350.0608,89.6756,348.4484,91.8788,346.5412,95.1057,343.8136,97.2804,340.9474,98.4696,338.662,98.5728,335.7247,97.0855,332.9532,96.1139,330.8495,94.1412,329.7461,91.8828,329.0917,90.0845,328.4506,87.7357,327.41,85.7145,328.2096,83.741,328.9102,81.5792,331.5393,79.8695,333.389,77.6511,335.6784,76.9144,338.4001,76.2801,341.8904,76.657,343.8021,77.5585,346.0247,77.9672,348.7272,80.736,349.6693,83.659,350.0786,85.6534,349.615,88.9399" style="stroke:#222222;stroke-width:1;"/><polygon fill="#222222" points="345.0331,88.4594,344.1536,89.6612,343.1134,91.4213,341.6256,92.6075,340.0622,93.2562,338.8156,93.3124,337.2135,92.5012,335.7017,91.9712,334.5543,90.8952,333.9524,89.6633,333.5955,88.6825,333.2458,87.4013,332.6782,86.2988,333.1143,85.2224,333.4965,84.0432,334.9305,83.1106,335.9394,81.9006,337.1882,81.4988,338.6728,81.1528,340.5766,81.3583,341.6193,81.8501,342.8317,82.073,344.3057,83.5833,344.8196,85.1776,345.0429,86.2655,344.79,88.0581" style="stroke:#222222;stroke-width:1;"/><!--link *start*Plan to Envision--><g class="link" data-entity-1="ent0002" data-entity-2="ent0003" data-link-type="dependency" data-source-line="66" id="lnk3"><path d="M38.35,87 L38.35,87.0934 L40.616,86.8159 L42.882,87.0859 L45.148,87.1776 L47.414,86.6829 L49.68,87" fill="none" style="stroke:#FF6F00;stroke-width:2;"/><polygon fill="#FF6F00" points="55.68,87,55.7085,87.064,53.8239,86.0738,52.1062,85.4589,50.3341,84.7217,48.3834,83.5827,46.68,83,46.6617,82.9817,47.3795,83.6995,48.1896,84.5096,49.0639,85.3839,49.717,86.037,50.68,87,50.8105,87.1305,49.7314,87.6514,49.0334,88.5534,48.3818,89.5018,47.4598,90.1798,46.68,91,46.6892,91.0208,48.4757,90.1903,50.3042,89.4544,52.1124,88.6728,53.9593,87.9784,55.68,87" style="stroke:#FF6F00;stroke-width:2;"/></g><!--link Envision to Discover--><g class="link" data-entity-1="ent0003" data-entity-2="ent0004" data-link-type="dependency" data-source-line="68" id="lnk4"><path d="M106.23,87 L106.23,87.0934 L108.506,86.8159 L110.782,87.0859 L113.058,87.1776 L115.334,86.6829 L117.61,87" fill="none" style="stroke:#FF6F00;stroke-width:2;"/><polygon fill="#FF6F00" points="123.61,87,123.6385,87.064,121.7539,86.0738,120.0362,85.4589,118.2641,84.7217,116.3134,83.5827,114.61,83,114.5917,82.9817,115.3095,83.6995,116.1196,84.5096,116.9939,85.3839,117.647,86.037,118.61,87,118.7405,87.1305,117.6614,87.6514,116.9634,88.5534,116.3118,89.5018,115.3898,90.1798,114.61,91,114.6192,91.0208,116.4057,90.1903,118.2342,89.4544,120.0424,88.6728,121.8893,87.9784,123.61,87" style="stroke:#FF6F00;stroke-width:2;"/></g><!--link Discover to Assess--><g class="link" data-entity-1="ent0004" data-entity-2="ent0005" data-link-type="dependency" data-source-line="69" id="lnk5"><path d="M174.23,87 L174.23,87.0934 L176.506,86.8159 L178.782,87.0859 L181.058,87.1776 L183.334,86.6829 L185.61,87" fill="none" style="stroke:#FF6F00;stroke-width:2;"/><polygon fill="#FF6F00" points="191.61,87,191.6385,87.064,189.7539,86.0738,188.0362,85.4589,186.2641,84.7217,184.3134,83.5827,182.61,83,182.5917,82.9817,183.3095,83.6995,184.1196,84.5096,184.9939,85.3839,185.647,86.037,186.61,87,186.7405,87.1305,185.6614,87.6514,184.9634,88.5534,184.3118,89.5018,183.3898,90.1798,182.61,91,182.6192,91.0208,184.4057,90.1903,186.2342,89.4544,188.0424,88.6728,189.8893,87.9784,191.61,87" style="stroke:#FF6F00;stroke-width:2;"/></g><!--link Assess to Chart--><g class="link" data-entity-1="ent0005" data-entity-2="ent0006" data-link-type="dependency" data-source-line="70" id="lnk6"><path d="M242.23,87 L242.23,87.0934 L244.506,86.8159 L246.782,87.0859 L249.058,87.1776 L251.334,86.6829 L253.61,87" fill="none" style="stroke:#FF6F00;stroke-width:2;"/><polygon fill="#FF6F00" points="259.61,87,259.6385,87.064,257.7539,86.0738,256.0362,85.4589,254.2641,84.7217,252.3134,83.5827,250.61,83,250.5917,82.9817,251.3095,83.6995,252.1196,84.5096,252.9939,85.3839,253.647,86.037,254.61,87,254.7405,87.1305,253.6614,87.6514,252.9634,88.5534,252.3118,89.5018,251.3898,90.1798,250.61,91,250.6192,91.0208,252.4057,90.1903,254.2342,89.4544,256.0424,88.6728,257.8893,87.9784,259.61,87" style="stroke:#FF6F00;stroke-width:2;"/></g><!--link Chart to *end*Plan--><g class="link" data-entity-1="ent0006" data-entity-2="ent0007" data-link-type="dependency" data-source-line="72" id="lnk8"><path d="M310.31,87 L310.31,87.0934 L312.606,86.8159 L314.902,87.0859 L317.198,87.1776 L319.494,86.6829 L321.79,87" fill="none" style="stroke:#FF6F00;stroke-width:2;"/><polygon fill="#FF6F00" points="327.79,87,327.8185,87.064,325.9339,86.0738,324.2162,85.4589,322.4441,84.7217,320.4934,83.5827,318.79,83,318.7717,82.9817,319.4895,83.6995,320.2996,84.5096,321.1739,85.3839,321.827,86.037,322.79,87,322.9205,87.1305,321.8414,87.6514,321.1434,88.5534,320.4918,89.5018,319.5698,90.1798,318.79,91,318.7992,91.0208,320.5857,90.1903,322.4142,89.4544,324.2224,88.6728,326.0693,87.9784,327.79,87" style="stroke:#FF6F00;stroke-width:2;"/></g><!--link *start*Plan to Train--><g class="link" data-entity-1="ent0002" data-entity-2="ent0007" data-link-type="dependency" data-source-line="74" id="lnk9"><path d="M31.32,96.8 L31.4062,96.836 L32.4998,99.9593 L34.0988,103.2936 L35.5332,106.5592 L36.4264,109.5988 L38.0688,112.9513 L38.0375,112.9366 L38.7526,114.7001 L39.6254,116.5374 L40.6079,118.4259 L41.2125,120.1377 L42.3464,122.097 L42.5645,122.211 L43.0289,123.7479 L44.1299,125.6175 L45.3087,127.5277 L46.0355,129.2017 L47,131 L47.0263,131.0151 L48.0872,132.9067 L49.2678,134.8671 L50.3907,136.7943 L51.6237,138.7849 L52.4976,140.569 L52.7529,140.7231 L53.876,142.5803 L54.8344,144.3381 L56.0339,146.2414 L57.2447,148.1515 L58.0975,149.8455 L57.8264,149.6744 L59.4854,151.8016 L60.2518,153.3655 L61.6967,155.3576 L62.4429,156.9087 L63.7618,158.8212 L63.7364,158.8045 L65.1756,160.7355 L66.0201,162.276 L67.2156,164.0469 L68.4405,165.8372 L69.4529,167.4879 L69.6051,167.593 L71.7135,170.7615 L74.082,174.1096 L76.0298,177.1671 L78.6052,180.6581 L80.7633,183.8609 L80.9601,184.0044 L83.1154,186.9847 L85.3684,190.0363 L87.1672,192.7568 L89.299,195.72 L91.7257,198.8983" fill="none" style="stroke:#FF6F00;stroke-width:2;"/><polygon fill="#FF6F00" points="95.31,203.71,95.3783,203.7254,94.7416,201.7582,94.5054,199.8813,94.1388,197.975,93.3432,195.9719,93.1414,194.1029,93.1158,194.0991,92.8371,195.2018,92.6876,196.3233,92.6279,197.458,92.2587,198.5474,92.3231,199.7002,92.3498,199.8828,91.1732,199.3287,90.0746,199.3077,88.9855,199.3517,87.8411,199.0173,86.7257,198.8819,86.7369,198.9017,88.4374,199.8382,90.1886,200.865,91.9154,201.8482,93.6889,202.9145,95.31,203.71" style="stroke:#FF6F00;stroke-width:2;"/></g><!--reverse link Envision to Train--><g class="link" data-entity-1="ent0003" data-entity-2="ent0007" data-link-type="dependency" data-source-line="75" id="lnk11"><path d="M89.0555,122.1702 L89.3283,122.2345 L90.9259,132.261 L94.1225,142.6643 L96.7984,152.9449 L97.7619,162.8219 L100.995,173.2338 L102.9504,183.3446 L105.4142,193.5752 L108.32,203.91" fill="none" style="stroke:#FF6F00;stroke-width:2;"/><polygon fill="#FF6F00" points="87.68,116.33,87.7488,116.343,87.1783,118.2398,87.0112,120.2129,86.7128,122.1611,85.9822,124.0277,85.8498,126.0073,85.8278,125.9937,86.3242,124.9704,86.9317,124.0159,87.6163,123.1091,88.035,122.0377,88.8263,121.1968,88.9234,121.3538,89.6778,121.6135,90.7158,122.3314,91.7883,123.1052,92.6596,123.5537,93.6367,124.1733,93.6548,124.1871,92.4369,122.5982,91.3014,121.072,90.1262,119.5155,89.0268,118.0167,87.68,116.33" style="stroke:#FF6F00;stroke-width:2;"/></g><!--reverse link Discover to Train--><g class="link" data-entity-1="ent0004" data-entity-2="ent0007" data-link-type="dependency" data-source-line="76" id="lnk13"><path d="M136.7559,136.9711 L137.0278,137.0391 L133.8434,146.3456 L132.2528,156.0505 L130.1433,165.6256 L126.3269,174.7741 L124.7726,184.4881 L121.9449,193.8837 L120.12,203.53" fill="none" style="stroke:#FF6F00;stroke-width:2;"/><polygon fill="#FF6F00" points="138.21,131.15,138.2652,131.1931,136.8888,132.6175,135.836,134.2946,134.6779,135.8894,133.1731,137.2135,132.1481,138.9123,132.1348,138.8901,133.045,138.2082,134.0224,137.6382,135.0465,137.146,135.9096,136.3856,136.9983,136.001,137.1565,136.0959,137.4004,136.8629,138.1063,137.9071,138.8686,138.9851,139.3029,139.8663,139.9097,140.8511,139.9321,140.855,139.5592,138.909,139.2884,136.9809,138.9684,135.0442,138.7422,133.1239,138.21,131.15" style="stroke:#FF6F00;stroke-width:2;"/></g><!--reverse link Assess to Train--><g class="link" data-entity-1="ent0005" data-entity-2="ent0007" data-link-type="dependency" data-source-line="77" id="lnk15"><path d="M187.9836,127.4424 L188.2093,127.6085 L181.2894,135.6081 L175.6926,144.5813 L169.665,153.2374 L162.2203,160.8509 L156.6537,169.8463 L150.0298,178.0638 L143.8267,186.5908 L137.9161,195.3331 L131.74,203.88" fill="none" style="stroke:#FF6F00;stroke-width:2;"/><polygon fill="#FF6F00" points="191.54,122.61,191.5747,122.6709,189.7604,123.4656,188.1494,124.617,186.4723,125.6523,184.5773,126.3056,182.9838,127.4877,182.9799,127.4621,184.0809,127.177,185.2016,127.021,186.3359,126.9548,187.4232,126.5793,188.5763,126.637,188.7588,126.6648,188.5388,127.7239,188.8514,128.8641,189.2291,130.0142,189.2286,131.1067,189.427,132.2295,189.4492,132.2344,189.8392,130.3033,190.3303,128.3945,190.7727,126.4749,191.3081,124.5758,191.54,122.61" style="stroke:#FF6F00;stroke-width:2;"/></g><!--SRC=[hLLTRzCm57tthxZh9BwageLzFF20rBNTG40xTKC8JTFa9hUDbSGEjhDIflrtRfmqSTOM1C8FRNJkkVUUU-mu1ogpGac8k0nNMbYB4XOyCSZOmOwGrJcoWn0NGYASNTnz7doOt0sddwOpSElmk7_oUdxYKwx6m-baD9XzgtWxA9U3uSV1nRWkj4MPpaRZcTy73XUBqqM_NrFEfvFh5i5HYbLJ1hFPz6kRiwd2J2nanZLFOSw3UAbLBiEXIfIcYRaq549f6NiEGvLcFB2GyBNABHYqLiYbyGfSyZ0a2DvusAoifoLgEFNmguY7QbMmIy-RoFjrXZeHCluYG_U0fVSx6ANEpIWDWOJ71ZCuza6fGYp0epPeyLn9MrNgk-MRCi85pnCB3woWJNYAq9cfkRAgmvh4PWySU2L-8hm-Oez-fO7MQaLroWnlIxmwXqTkbKNiEa4Ig5EUiEj81B54OyZSLjKWuGG-iBCdczSweUnCQVAoYdX7gWhurNSEDR1MYtdkU-L7YycsntBmNk5qbcA-nChOhPh_E4-hXR7SuX-z-Ny3_uNBf9D58aJ0DBDhe9CPQE4k7Hh0oRvCk2JjxERLBNIrM4Qs-mx6ybuOHzeyDR6HC86wHyqs3qreO0orPULV0myZhkdLTd_GhM7gMBMbDrGISAsvaCpz4YtFV24jj9RGGglkjUItq0KEXhfYI7kaQThbkXKrY42tWeAR6-XbMWMKtyl8a1vMh1vqDWaTk2MzczOklQmf0iWDGi2fVIikfB229tMKxXV45cEU6-5sAfPgbM2uR8SpBHHz5WGQU0Pq6GOgVT9Y_mHXnQ89DWdb1ALDHNAGw-BIBS-lXslydel2D8a_jgCfjpc9MiCBKczwIYzx8RUyPp68Ndgy_TAuuv2mabpASgUZoBiNV4uNabOyJ7dMuBLNXPKDJF9YZ5H21n_uaWnEY-z87KxfqrheR_XxPGK5XLGvQYdAdQ_VPzc2GbcEwh8UVm40]--></g></svg>