<svg xmlns="http://www.w3.org/2000/svg" xmlns:xlink="http://www.w3.org/1999/xlink" contentStyleType="text/css" data-diagram-type="CLASS" height="499px" preserveAspectRatio="none" style="width:1080px;height:499px;" version="1.1" viewBox="0 0 1080 499" width="1080px" zoomAndPan="magnify"><defs/><g><!--class UseCase--><g class="entity" data-qualified-name="UseCase" data-source-line="66" id="ent0002"><a href="/concept/use-case/#ontology" target="_top" title="/concept/use-case/#ontology" xlink:actuate="onRequest" xlink:href="/concept/use-case/#ontology" xlink:show="new" xlink:title="/concept/use-case/#ontology" xlink:type="simple"><polygon fill="#4051B5" points="579.2,371,579.2,371.2102,589.7126,370.5857,600.2251,371.1933,610.7377,371.3997,621.2503,370.2866,631.7629,370.9223,642.2754,370.5735,652.788,370.6165,663.3006,371,663.2919,370.979,663.6367,370.9628,664.2197,371.522,664.493,371.3331,664.9724,371.642,665.4219,371.8787,665.5549,371.9338,665.5712,372.292,665.7944,372.7359,665.9393,373.1474,666.1798,373.5985,666.3006,374,666.3803,374,666.4958,378.8,666.5243,383.6,666.527,388.4,666.3855,393.2,666.3006,398,666.4434,398.0591,666.3411,398.5138,665.727,398.7565,665.9823,399.3593,665.5063,399.6592,665.4219,400.1213,665.49,400.2857,664.9345,400.1446,664.5646,400.4517,664.2437,400.8769,663.7186,400.8093,663.3006,401,663.3006,401.1053,652.788,401.3386,642.2754,401.4162,631.7629,400.9961,621.2503,401.2872,610.7377,400.4276,600.2251,401.2844,589.7126,401.5482,579.2,401,579.2567,401.1369,578.8539,401.0131,578.2898,400.4998,577.844,400.2719,577.4237,400.1057,577.0787,400.1213,577.0605,400.1138,576.8424,399.672,576.9371,399.3597,576.4977,398.8262,576.2701,398.3805,576.2,398,576.2761,398,575.9777,393.2,576.027,388.4,576.4163,383.6,576.3452,378.8,576.2,374,576.4262,374.0937,576.2766,373.5347,576.6498,373.1922,576.909,372.8025,576.7575,372.2427,577.0787,371.8787,577.0665,371.8492,577.519,371.7417,578.0103,371.7279,578.3509,371.3502,578.8347,371.3182,579.2,371" style="stroke:#FF6F00;stroke-width:2;"/><polygon fill="#ADD1B2" points="600.2552,388.4324,598.7894,390.4353,597.0556,393.3688,594.576,395.3458,591.9703,396.4269,589.8927,396.5207,587.2224,395.1687,584.7029,394.2854,582.7905,392.492,581.7873,390.4389,581.1924,388.8041,580.6096,386.6688,579.6636,384.8313,580.3906,383.0373,581.0275,381.072,583.4175,379.5177,585.0991,377.501,587.1804,376.8313,589.6547,376.2546,592.8276,376.5972,594.5655,377.4168,596.5861,377.7884,599.0429,380.3054,599.8993,382.9627,600.2714,384.7758,599.85,387.7635" style="stroke:#181818;stroke-width:1;"/><path d="M592.0594,390.2344 Q591.6219,390.4531 591.1219,390.5625 Q590.6375,390.6875 590.1063,390.6875 Q588.1844,390.6875 587.1688,389.4219 Q586.1688,388.1563 586.1688,385.7656 Q586.1688,383.375 587.1688,382.1094 Q588.1844,380.8438 590.1063,380.8438 Q590.6375,380.8438 591.1375,380.9688 Q591.6375,381.0781 592.0594,381.3125 L592.0594,383.3906 Q591.575,382.9531 591.1219,382.75 Q590.6688,382.5313 590.1844,382.5313 Q589.1688,382.5313 588.6375,383.3594 Q588.1063,384.1719 588.1063,385.7656 Q588.1063,387.375 588.6375,388.1875 Q589.1688,389 590.1844,389 Q590.6688,389 591.1219,388.7969 Q591.575,388.5938 592.0594,388.1406 L592.0594,390.2344 Z " fill="#FFFFFF"/><text fill="#FFFFFF" font-family="'Roboto'" font-size="13" lengthAdjust="spacing" textLength="56.1006" x="605.2" y="390.5005">UseCase</text></a></g><!--class UseCaseStereotype--><g class="entity" data-qualified-name="UseCaseStereotype" data-source-line="67" id="ent0003"><polygon fill="#4051B5" points="543.35,462,543.35,462.2102,553.0865,461.5857,562.8231,462.1933,572.5596,462.3997,582.2962,461.2866,592.0327,461.9223,601.7693,461.5735,611.5058,461.6165,621.2423,461.9318,630.9789,461.3086,640.7154,462.5536,650.452,461.3697,660.1885,461.8022,669.925,462.4319,679.6616,461.9142,689.3981,462.0682,699.1347,462,699.1306,461.9902,699.5817,462.2307,700.0137,462.4251,700.4822,462.7076,700.9173,462.9096,701.256,462.8787,701.4652,462.9653,701.5101,463.3354,701.7502,463.7863,701.9995,464.241,701.7368,464.4837,702.1347,465,702.3608,465,702.0358,469.8,702.3126,474.6,701.9697,479.4,702.1118,484.2,702.1347,489,702.3631,489.0946,701.9439,489.418,701.8156,489.862,701.7117,490.316,701.5599,490.7502,701.256,491.1213,701.2555,491.1201,700.8684,491.3855,700.3344,491.2965,700.0195,491.7361,699.6289,491.9931,699.1347,492,699.1347,492.4445,689.3981,492.613,679.6616,491.5169,669.925,491.3478,660.1885,491.3786,650.452,491.9411,640.7154,491.8035,630.9789,492.6814,621.2423,491.8253,611.5058,491.6569,601.7693,492.2283,592.0327,491.3332,582.2962,491.4809,572.5596,492.649,562.8231,492.4357,553.0865,492.7345,543.35,492,543.309,491.9009,542.9665,491.9226,542.5768,491.8304,542.0169,491.3273,541.6407,491.2675,541.2287,491.1213,541.2675,491.1374,541.2537,490.7802,540.8759,490.2723,540.8439,489.9075,540.3552,489.3536,540.35,489,540.1242,489,540.5179,484.2,540.111,479.4,540.5197,474.6,540.4189,469.8,540.35,465,540.2675,464.9658,540.4168,464.5306,540.8428,464.21,540.785,463.689,541.2352,463.3784,541.2287,462.8787,541.1582,462.7085,541.7317,462.8931,542.139,462.6764,542.5327,462.4269,542.9318,462.1903,543.35,462" style="stroke:#FF6F00;stroke-width:2;"/><polygon fill="#ADD1B2" points="564.4052,479.4324,562.9394,481.4353,561.2056,484.3688,558.726,486.3458,556.1203,487.4269,554.0427,487.5207,551.3724,486.1687,548.8529,485.2854,546.9405,483.492,545.9373,481.4389,545.3424,479.8041,544.7596,477.6688,543.8136,475.8313,544.5406,474.0373,545.1775,472.072,547.5675,470.5177,549.2491,468.501,551.3304,467.8313,553.8047,467.2546,556.9776,467.5972,558.7155,468.4168,560.7361,468.7884,563.1929,471.3054,564.0493,473.9627,564.4214,475.7758,564,478.7635" style="stroke:#181818;stroke-width:1;"/><path d="M556.2094,481.2344 Q555.7719,481.4531 555.2719,481.5625 Q554.7875,481.6875 554.2563,481.6875 Q552.3344,481.6875 551.3188,480.4219 Q550.3188,479.1563 550.3188,476.7656 Q550.3188,474.375 551.3188,473.1094 Q552.3344,471.8438 554.2563,471.8438 Q554.7875,471.8438 555.2875,471.9688 Q555.7875,472.0781 556.2094,472.3125 L556.2094,474.3906 Q555.725,473.9531 555.2719,473.75 Q554.8188,473.5313 554.3344,473.5313 Q553.3188,473.5313 552.7875,474.3594 Q552.2563,475.1719 552.2563,476.7656 Q552.2563,478.375 552.7875,479.1875 Q553.3188,480 554.3344,480 Q554.8188,480 555.2719,479.7969 Q555.725,479.5938 556.2094,479.1406 L556.2094,481.2344 Z " fill="#FFFFFF"/><text fill="#FFFFFF" font-family="'Roboto'" font-size="13" lengthAdjust="spacing" textLength="127.7847" x="569.35" y="481.5005">UseCaseStereotype</text></g><!--class Story--><g class="entity" data-qualified-name="Story" data-source-line="68" id="ent0004"><a href="/concept/story/#ontology" target="_top" title="/concept/story/#ontology" xlink:actuate="onRequest" xlink:href="/concept/story/#ontology" xlink:show="new" xlink:title="/concept/story/#ontology" xlink:type="simple"><polygon fill="#4051B5" points="575.08,98,575.08,98.2102,585.4701,97.5857,595.8603,98.1933,606.2504,98.3997,616.6405,97.2866,627.0307,97.9223,637.4208,98,637.3664,97.8687,637.7962,98.0576,638.2607,98.3305,638.6054,98.3143,639.1885,98.8734,639.5421,98.8787,639.348,98.7983,639.657,99.2777,640.0266,99.7823,640.0429,100.1405,640.2661,100.5844,640.4208,101,640.4102,101,640.4803,105.8,640.5005,110.6,640.6161,115.4,640.6445,120.2,640.4208,125,640.63,125.0866,640.3235,125.4567,640.2121,125.9077,640.1099,126.3624,639.4958,126.6051,639.5421,127.1213,639.6287,127.3303,639.0801,127.2057,638.7617,127.6372,638.2062,127.4961,637.8363,127.8032,637.4208,128,637.4208,128.7416,627.0307,127.9513,616.6405,128.1053,606.2504,128.3386,595.8603,128.4162,585.4701,127.9961,575.08,128,575.1166,128.0885,574.5827,127.648,574.2677,127.7361,573.8771,127.6416,573.4396,127.434,572.9587,127.1213,573.1475,127.1995,572.6342,126.6354,572.4064,126.1896,572.2401,125.7693,572.2376,125.4168,572.08,125,572.0145,125,572.3071,120.2,572.0218,115.4,571.9656,110.6,572.1561,105.8,572.08,101,571.8746,100.9149,572.0959,100.5095,572.6313,100.2343,572.7414,99.7828,573.0091,99.3966,572.9587,98.8787,572.9176,98.7796,573.4237,98.8012,573.8825,98.709,574.1712,98.206,574.6435,98.1462,575.08,98" style="stroke:#FF6F00;stroke-width:2;"/><polygon fill="#ADD1B2" points="596.1352,115.4324,594.6694,117.4353,592.9356,120.3688,590.456,122.3458,587.8503,123.4269,585.7727,123.5207,583.1024,122.1687,580.5829,121.2854,578.6705,119.492,577.6673,117.4389,577.0724,115.8041,576.4896,113.6688,575.5436,111.8313,576.2706,110.0373,576.9075,108.072,579.2975,106.5177,580.9791,104.501,583.0604,103.8313,585.5347,103.2546,588.7076,103.5972,590.4455,104.4168,592.4661,104.7884,594.9229,107.3054,595.7793,109.9627,596.1514,111.7758,595.73,114.7635" style="stroke:#181818;stroke-width:1;"/><path d="M587.9394,117.2344 Q587.5019,117.4531 587.0019,117.5625 Q586.5175,117.6875 585.9863,117.6875 Q584.0644,117.6875 583.0488,116.4219 Q582.0488,115.1563 582.0488,112.7656 Q582.0488,110.375 583.0488,109.1094 Q584.0644,107.8438 585.9863,107.8438 Q586.5175,107.8438 587.0175,107.9688 Q587.5175,108.0781 587.9394,108.3125 L587.9394,110.3906 Q587.455,109.9531 587.0019,109.75 Q586.5488,109.5313 586.0644,109.5313 Q585.0488,109.5313 584.5175,110.3594 Q583.9863,111.1719 583.9863,112.7656 Q583.9863,114.375 584.5175,115.1875 Q585.0488,116 586.0644,116 Q586.5488,116 587.0019,115.7969 Q587.455,115.5938 587.9394,115.1406 L587.9394,117.2344 Z " fill="#FFFFFF"/><text fill="#FFFFFF" font-family="'Roboto'" font-size="13" lengthAdjust="spacing" textLength="34.3408" x="601.08" y="117.5005">Story</text></a></g><!--class WorkflowDefinition--><g class="entity" data-qualified-name="WorkflowDefinition" data-source-line="69" id="ent0005"><a href="/concept/workflow/#ontology" target="_top" title="/concept/workflow/#ontology" xlink:actuate="onRequest" xlink:href="/concept/workflow/#ontology" xlink:show="new" xlink:title="/concept/workflow/#ontology" xlink:type="simple"><polygon fill="#4051B5" points="731.54,7,731.54,7.2102,741.6337,6.5857,751.7273,7.1933,761.821,7.3997,771.9146,6.2866,782.0083,6.9223,792.1019,6.5735,802.1956,6.6165,812.2892,6.9318,822.3829,6.3086,832.4765,7.5536,842.5702,6.3697,852.6638,6.8022,862.7575,7.4319,872.8511,6.9142,882.9448,7,882.9535,7.021,883.365,7.1659,883.8161,7.4065,884.2481,7.6009,884.7166,7.8833,885.0661,7.8787,885.2728,7.9643,885.451,8.3896,885.496,8.7597,885.7361,9.2106,885.9853,9.6653,885.9448,10,885.7044,10,886.171,14.8,885.846,19.6,886.1227,24.4,885.7798,29.2,885.9448,34,885.9237,33.9913,885.9974,34.5189,885.5783,34.8423,885.45,35.2862,885.3461,35.7403,885.0661,36.1213,885.1192,36.2495,884.6413,36.2959,884.2542,36.5612,883.7203,36.4722,883.4053,36.9118,882.9448,37,882.9448,37.5482,872.8511,37.4445,862.7575,37.613,852.6638,36.5169,842.5702,36.3478,832.4765,36.3786,822.3829,36.9411,812.2892,36.8035,802.1956,37.6814,792.1019,36.8253,782.0083,36.6569,771.9146,37.2283,761.821,36.3332,751.7273,36.4809,741.6337,37.649,731.54,37,731.5956,37.1342,731.2094,37.0505,730.6504,36.5494,730.3079,36.5711,729.9183,36.4789,729.4187,36.1213,729.2732,36.0611,729.2134,35.6848,729.106,35.2889,729.0922,34.9317,728.7144,34.4237,728.54,34,728.6942,34,728.3554,29.2,728.3142,24.4,728.7079,19.6,728.301,14.8,728.54,10,728.6967,10.0649,728.7794,9.6021,728.809,9.1173,728.9583,8.6821,729.3842,8.3615,729.4187,7.8787,729.3805,7.7865,729.9184,7.8852,730.1967,7.357,730.7702,7.5416,731.1775,7.3249,731.54,7" style="stroke:#FF6F00;stroke-width:2;"/><polygon fill="#ADD1B2" points="752.5952,24.4324,751.1294,26.4353,749.3956,29.3688,746.916,31.3458,744.3103,32.4269,742.2327,32.5207,739.5624,31.1687,737.0429,30.2854,735.1305,28.492,734.1273,26.4389,733.5324,24.8041,732.9496,22.6688,732.0036,20.8313,732.7306,19.0373,733.3675,17.072,735.7575,15.5177,737.4391,13.501,739.5204,12.8313,741.9947,12.2546,745.1676,12.5972,746.9055,13.4168,748.9261,13.7884,751.3829,16.3054,752.2393,18.9627,752.6114,20.7758,752.19,23.7635" style="stroke:#181818;stroke-width:1;"/><path d="M744.3994,26.2344 Q743.9619,26.4531 743.4619,26.5625 Q742.9775,26.6875 742.4463,26.6875 Q740.5244,26.6875 739.5088,25.4219 Q738.5088,24.1563 738.5088,21.7656 Q738.5088,19.375 739.5088,18.1094 Q740.5244,16.8438 742.4463,16.8438 Q742.9775,16.8438 743.4775,16.9688 Q743.9775,17.0781 744.3994,17.3125 L744.3994,19.3906 Q743.915,18.9531 743.4619,18.75 Q743.0088,18.5313 742.5244,18.5313 Q741.5088,18.5313 740.9775,19.3594 Q740.4463,20.1719 740.4463,21.7656 Q740.4463,23.375 740.9775,24.1875 Q741.5088,25 742.5244,25 Q743.0088,25 743.4619,24.7969 Q743.915,24.5938 744.3994,24.1406 L744.3994,26.2344 Z " fill="#FFFFFF"/><text fill="#FFFFFF" font-family="'Roboto'" font-size="13" lengthAdjust="spacing" textLength="123.4048" x="757.54" y="26.5005">WorkflowDefinition</text></a></g><!--class Outcome--><g class="entity" data-qualified-name="Outcome" data-source-line="70" id="ent0006"><a href="/concept/outcome/#ontology" target="_top" title="/concept/outcome/#ontology" xlink:actuate="onRequest" xlink:href="/concept/outcome/#ontology" xlink:show="new" xlink:title="/concept/outcome/#ontology" xlink:type="simple"><polygon fill="#4051B5" points="705.58,189,705.58,189.2102,715.2835,188.5857,724.987,189.1933,734.6905,189.3997,744.394,188.2866,754.0975,188.9223,763.801,188.5735,773.5045,188.6165,783.208,188.9318,792.9115,189,792.8234,188.7871,793.4064,189.3462,793.6797,189.1574,794.1591,189.4663,794.6637,189.836,795.0329,189.8787,795.0064,189.8677,795.2296,190.3116,795.3745,190.7231,795.615,191.1742,795.8095,191.6062,795.9115,192,796.1068,192,796.1352,196.8,796.138,201.6,795.9964,206.4,796.0661,211.2,795.9115,216,796.1278,216.0896,795.5137,216.3323,795.769,216.9351,795.293,217.235,795.373,217.7651,795.0329,218.1213,794.9697,217.9689,794.5999,218.276,794.2789,218.7012,793.7539,218.6335,793.3492,218.8567,792.9115,219,792.9115,219.3386,783.208,219.4162,773.5045,218.9961,763.801,219.2872,754.0975,218.4276,744.394,219.2844,734.6905,219.5482,724.987,219.4445,715.2835,219.613,705.58,219,705.5184,218.8512,705.0725,218.6234,704.6522,218.4572,704.2997,218.4547,703.8579,218.2365,703.4587,218.1213,703.6685,218.2082,703.2292,217.6748,703.0016,217.229,703.0018,216.8776,702.5504,216.3392,702.58,216,702.407,216,702.7963,211.2,702.7252,206.4,702.8248,201.6,702.4727,196.8,702.58,192,702.6783,192.0407,702.9376,191.6511,702.786,191.0912,703.0777,190.715,703.3217,190.319,703.4587,189.8787,703.5418,190.0794,703.8824,189.7017,704.3662,189.6697,704.6608,189.1809,705.0693,188.9672,705.58,189" style="stroke:#FF6F00;stroke-width:2;"/><polygon fill="#ADD1B2" points="726.6352,206.4324,725.1694,208.4353,723.4356,211.3688,720.956,213.3458,718.3503,214.4269,716.2727,214.5207,713.6024,213.1687,711.0829,212.2854,709.1705,210.492,708.1673,208.4389,707.5724,206.8041,706.9896,204.6688,706.0436,202.8313,706.7706,201.0373,707.4075,199.072,709.7975,197.5177,711.4791,195.501,713.5604,194.8313,716.0347,194.2546,719.2076,194.5972,720.9455,195.4168,722.9661,195.7884,725.4229,198.3054,726.2793,200.9627,726.6514,202.7758,726.23,205.7635" style="stroke:#181818;stroke-width:1;"/><path d="M718.4394,208.2344 Q718.0019,208.4531 717.5019,208.5625 Q717.0175,208.6875 716.4863,208.6875 Q714.5644,208.6875 713.5488,207.4219 Q712.5488,206.1563 712.5488,203.7656 Q712.5488,201.375 713.5488,200.1094 Q714.5644,198.8438 716.4863,198.8438 Q717.0175,198.8438 717.5175,198.9688 Q718.0175,199.0781 718.4394,199.3125 L718.4394,201.3906 Q717.955,200.9531 717.5019,200.75 Q717.0488,200.5313 716.5644,200.5313 Q715.5488,200.5313 715.0175,201.3594 Q714.4863,202.1719 714.4863,203.7656 Q714.4863,205.375 715.0175,206.1875 Q715.5488,207 716.5644,207 Q717.0488,207 717.5019,206.7969 Q717.955,206.5938 718.4394,206.1406 L718.4394,208.2344 Z " fill="#FFFFFF"/><text fill="#FFFFFF" font-family="'Roboto'" font-size="13" lengthAdjust="spacing" textLength="59.3315" x="731.58" y="208.5005">Outcome</text></a></g><!--class OutcomeRelationship--><g class="entity" data-qualified-name="OutcomeRelationship" data-source-line="71" id="ent0007"><polygon fill="#4051B5" points="749.39,98,749.39,98.2102,759.2558,97.5857,769.1216,98.1933,778.9873,98.3997,788.8531,97.2866,798.7189,97.9223,808.5847,97.5735,818.4505,97.6165,828.3162,97.9318,838.182,97.3086,848.0478,98.5536,857.9136,97.3697,867.7794,97.8022,877.6451,98.4319,887.5109,97.9142,897.3767,98.0682,907.2425,97.9681,917.1083,98,917.131,98.055,917.563,98.2494,918.0315,98.5318,918.4667,98.7339,918.892,98.9121,919.2296,98.8787,919.308,98.9112,919.5481,99.3621,919.7973,99.8168,919.5347,100.0595,920.1415,100.6623,920.1083,101,920.0094,101,920.2862,105.8,919.9433,110.6,920.0854,115.4,920.3555,120.2,920.1083,125,920.0933,124.9938,919.965,125.4377,919.8611,125.8917,919.7092,126.3259,919.4041,126.6966,919.2296,127.1213,919.2662,127.2098,918.7323,127.1208,918.4173,127.5604,918.0267,127.8174,917.5892,127.9612,917.1083,128,917.1083,128.613,907.2425,127.5169,897.3767,127.3478,887.5109,127.3786,877.6451,127.9411,867.7794,127.8035,857.9136,128.6814,848.0478,127.8253,838.182,127.6569,828.3162,128.2283,818.4505,127.3332,808.5847,127.4809,798.7189,128.649,788.8531,128.4357,778.9873,128.7345,769.1216,127.6782,759.2558,128.3192,749.39,128,749.4653,128.1818,748.9055,127.6788,748.5292,127.619,748.1333,127.5116,747.7761,127.4978,747.2687,127.1213,747.2674,127.1208,747.2354,126.7561,746.7467,126.2022,746.5329,125.7621,746.7208,125.4885,746.39,125,746.151,125,746.5597,120.2,746.4589,115.4,746.3007,110.6,746.2721,105.8,746.39,101,746.5313,101.0585,746.4736,100.5376,746.9237,100.227,746.747,99.6567,747.2831,99.3817,747.2687,98.8787,747.3305,99.0278,747.7242,98.7784,748.1232,98.5417,748.6342,98.5752,749.044,98.3647,749.39,98" style="stroke:#FF6F00;stroke-width:2;"/><polygon fill="#ADD1B2" points="770.4452,115.4324,768.9794,117.4353,767.2456,120.3688,764.766,122.3458,762.1603,123.4269,760.0827,123.5207,757.4124,122.1687,754.8929,121.2854,752.9805,119.492,751.9773,117.4389,751.3824,115.8041,750.7996,113.6688,749.8536,111.8313,750.5806,110.0373,751.2175,108.072,753.6075,106.5177,755.2891,104.501,757.3704,103.8313,759.8447,103.2546,763.0176,103.5972,764.7555,104.4168,766.7761,104.7884,769.2329,107.3054,770.0893,109.9627,770.4614,111.7758,770.04,114.7635" style="stroke:#181818;stroke-width:1;"/><path d="M762.2494,117.2344 Q761.8119,117.4531 761.3119,117.5625 Q760.8275,117.6875 760.2963,117.6875 Q758.3744,117.6875 757.3588,116.4219 Q756.3588,115.1563 756.3588,112.7656 Q756.3588,110.375 757.3588,109.1094 Q758.3744,107.8438 760.2963,107.8438 Q760.8275,107.8438 761.3275,107.9688 Q761.8275,108.0781 762.2494,108.3125 L762.2494,110.3906 Q761.765,109.9531 761.3119,109.75 Q760.8588,109.5313 760.3744,109.5313 Q759.3588,109.5313 758.8275,110.3594 Q758.2963,111.1719 758.2963,112.7656 Q758.2963,114.375 758.8275,115.1875 Q759.3588,116 760.3744,116 Q760.8588,116 761.3119,115.7969 Q761.765,115.5938 762.2494,115.1406 L762.2494,117.2344 Z " fill="#FFFFFF"/><text fill="#FFFFFF" font-family="'Roboto'" font-size="13" lengthAdjust="spacing" textLength="139.7183" x="775.39" y="117.5005">OutcomeRelationship</text></g><!--class ConceptVocabulary--><g class="entity" data-qualified-name="ConceptVocabulary" data-source-line="72" id="ent0008"><polygon fill="#4051B5" points="244.83,189,244.83,189.2102,255.1522,188.5857,265.4743,189.1933,275.7965,189.3997,286.1187,188.2866,296.4408,188.9223,306.763,188.5735,317.0852,188.6165,327.4073,188.9318,337.7295,188.3086,348.0517,189.5536,358.3738,188.3697,368.696,188.8022,379.0182,189.4319,389.3404,188.9142,399.6625,189,399.6712,189.021,400.0827,189.1659,400.5338,189.4065,400.9658,189.6009,401.4343,189.8833,401.7838,189.8787,401.9905,189.9643,402.1688,190.3896,402.2137,190.7597,402.4538,191.2106,402.703,191.6653,402.6625,192,402.4221,192,402.8887,196.8,402.5637,201.6,402.8405,206.4,402.4975,211.2,402.6625,216,402.6414,215.9913,402.7152,216.5189,402.296,216.8423,402.1677,217.2862,402.0639,217.7403,401.7838,218.1213,401.8369,218.2495,401.3591,218.2959,400.9719,218.5612,400.438,218.4722,400.1231,218.9118,399.6625,219,399.6625,219.5482,389.3404,219.4445,379.0182,219.613,368.696,218.5169,358.3738,218.3478,348.0517,218.3786,337.7295,218.9411,327.4073,218.8035,317.0852,219.6814,306.763,218.8253,296.4408,218.6569,286.1187,219.2283,275.7965,218.3332,265.4743,218.4809,255.1522,219.649,244.83,219,244.8856,219.1342,244.4994,219.0505,243.9404,218.5494,243.5979,218.5711,243.2083,218.4789,242.7087,218.1213,242.5632,218.0611,242.5034,217.6848,242.396,217.2889,242.3822,216.9317,242.0044,216.4237,241.83,216,241.9842,216,241.6454,211.2,241.6042,206.4,241.9979,201.6,241.591,196.8,241.83,192,241.9867,192.0649,242.0694,191.6021,242.099,191.1173,242.2483,190.6821,242.6742,190.3615,242.7087,189.8787,242.6705,189.7865,243.2084,189.8852,243.4867,189.357,244.0602,189.5416,244.4675,189.3249,244.83,189" style="stroke:#FF6F00;stroke-width:2;"/><polygon fill="#ADD1B2" points="265.8852,206.4324,264.4194,208.4353,262.6856,211.3688,260.206,213.3458,257.6003,214.4269,255.5227,214.5207,252.8524,213.1687,250.3329,212.2854,248.4205,210.492,247.4173,208.4389,246.8224,206.8041,246.2396,204.6688,245.2936,202.8313,246.0206,201.0373,246.6575,199.072,249.0475,197.5177,250.7291,195.501,252.8104,194.8313,255.2847,194.2546,258.4576,194.5972,260.1955,195.4168,262.2161,195.7884,264.6729,198.3054,265.5293,200.9627,265.9014,202.7758,265.48,205.7635" style="stroke:#181818;stroke-width:1;"/><path d="M257.6894,208.2344 Q257.2519,208.4531 256.7519,208.5625 Q256.2675,208.6875 255.7363,208.6875 Q253.8144,208.6875 252.7988,207.4219 Q251.7988,206.1563 251.7988,203.7656 Q251.7988,201.375 252.7988,200.1094 Q253.8144,198.8438 255.7363,198.8438 Q256.2675,198.8438 256.7675,198.9688 Q257.2675,199.0781 257.6894,199.3125 L257.6894,201.3906 Q257.205,200.9531 256.7519,200.75 Q256.2988,200.5313 255.8144,200.5313 Q254.7988,200.5313 254.2675,201.3594 Q253.7363,202.1719 253.7363,203.7656 Q253.7363,205.375 254.2675,206.1875 Q254.7988,207 255.8144,207 Q256.2988,207 256.7519,206.7969 Q257.205,206.5938 257.6894,206.1406 L257.6894,208.2344 Z " fill="#FFFFFF"/><text fill="#FFFFFF" font-family="'Roboto'" font-size="13" lengthAdjust="spacing" textLength="126.8325" x="270.83" y="208.5005">ConceptVocabulary</text></g><!--class Concept--><g class="entity" data-qualified-name="Concept" data-source-line="73" id="ent0009"><a href="/concept/concept/#ontology" target="_top" title="/concept/concept/#ontology" xlink:actuate="onRequest" xlink:href="/concept/concept/#ontology" xlink:show="new" xlink:title="/concept/concept/#ontology" xlink:type="simple"><polygon fill="#4051B5" points="130.36,280,130.36,280.2102,140.5806,279.5857,150.8012,280.1933,161.0217,280.3997,171.2423,279.2866,181.4629,279.9223,191.6835,279.5735,201.9041,279.6165,212.1246,280,212.116,279.979,212.4607,279.9628,213.0438,280.522,213.317,280.3331,213.7965,280.642,214.246,280.8787,214.379,280.9338,214.3953,281.292,214.6185,281.7359,214.7633,282.1474,215.0039,282.5985,215.1246,283,215.2044,283,215.3199,287.8,215.3483,292.6,215.3511,297.4,215.2095,302.2,215.1246,307,215.2674,307.0591,215.1652,307.5138,214.5511,307.7565,214.8064,308.3593,214.3304,308.6592,214.246,309.1213,214.3141,309.2857,213.7586,309.1446,213.3887,309.4517,213.0678,309.8769,212.5427,309.8093,212.1246,310,212.1246,310.1053,201.9041,310.3386,191.6835,310.4162,181.4629,309.9961,171.2423,310.2872,161.0217,309.4276,150.8012,310.2844,140.5806,310.5482,130.36,310,130.4167,310.1369,130.0139,310.0131,129.4498,309.4998,129.004,309.2719,128.5837,309.1057,128.2387,309.1213,128.2205,309.1138,128.0024,308.672,128.0971,308.3597,127.6577,307.8262,127.4301,307.3805,127.36,307,127.4361,307,127.1377,302.2,127.187,297.4,127.5763,292.6,127.5052,287.8,127.36,283,127.5862,283.0937,127.4366,282.5347,127.8098,282.1922,128.069,281.8025,127.9175,281.2427,128.2387,280.8787,128.2265,280.8492,128.679,280.7417,129.1703,280.7279,129.5109,280.3502,129.9947,280.3182,130.36,280" style="stroke:#FF6F00;stroke-width:2;"/><polygon fill="#ADD1B2" points="151.4152,297.4324,149.9494,299.4353,148.2156,302.3688,145.736,304.3458,143.1303,305.4269,141.0527,305.5207,138.3824,304.1687,135.8629,303.2854,133.9505,301.492,132.9473,299.4389,132.3524,297.8041,131.7696,295.6688,130.8236,293.8313,131.5506,292.0373,132.1875,290.072,134.5775,288.5177,136.2591,286.501,138.3404,285.8313,140.8147,285.2546,143.9876,285.5972,145.7255,286.4168,147.7461,286.7884,150.2029,289.3054,151.0593,291.9627,151.4314,293.7758,151.01,296.7635" style="stroke:#181818;stroke-width:1;"/><path d="M143.2194,299.2344 Q142.7819,299.4531 142.2819,299.5625 Q141.7975,299.6875 141.2663,299.6875 Q139.3444,299.6875 138.3288,298.4219 Q137.3288,297.1563 137.3288,294.7656 Q137.3288,292.375 138.3288,291.1094 Q139.3444,289.8438 141.2663,289.8438 Q141.7975,289.8438 142.2975,289.9688 Q142.7975,290.0781 143.2194,290.3125 L143.2194,292.3906 Q142.735,291.9531 142.2819,291.75 Q141.8288,291.5313 141.3444,291.5313 Q140.3288,291.5313 139.7975,292.3594 Q139.2663,293.1719 139.2663,294.7656 Q139.2663,296.375 139.7975,297.1875 Q140.3288,298 141.3444,298 Q141.8288,298 142.2819,297.7969 Q142.735,297.5938 143.2194,297.1406 L143.2194,299.2344 Z " fill="#FFFFFF"/><text fill="#FFFFFF" font-family="'Roboto'" font-size="13" lengthAdjust="spacing" textLength="53.7646" x="156.36" y="299.5005">Concept</text></a></g><!--class Term--><g class="entity" data-qualified-name="Term" data-source-line="74" id="ent0010"><a href="/concept/term/#ontology" target="_top" title="/concept/term/#ontology" xlink:actuate="onRequest" xlink:href="/concept/term/#ontology" xlink:show="new" xlink:title="/concept/term/#ontology" xlink:type="simple"><polygon fill="#4051B5" points="241.27,371,241.27,371.2102,251.5945,370.5857,261.9191,371.1933,272.2436,371.3997,282.5682,370.2866,292.8927,370.9223,303.2173,371,303.1629,370.8687,303.5926,371.0576,304.0571,371.3305,304.4019,371.3143,304.9849,371.8734,305.3386,371.8787,305.1445,371.7983,305.4534,372.2777,305.8231,372.7823,305.8394,373.1405,306.0625,373.5844,306.2173,374,306.2066,374,306.2768,378.8,306.297,383.6,306.4125,388.4,306.441,393.2,306.2173,398,306.4264,398.0866,306.1199,398.4567,306.0086,398.9077,305.9063,399.3624,305.2922,399.6051,305.3386,400.1213,305.4251,400.3303,304.8765,400.2057,304.5582,400.6372,304.0026,400.4961,303.6328,400.8032,303.2173,401,303.2173,401.7416,292.8927,400.9513,282.5682,401.1053,272.2436,401.3386,261.9191,401.4162,251.5945,400.9961,241.27,401,241.3066,401.0885,240.7727,400.648,240.4577,400.7361,240.0671,400.6416,239.6296,400.434,239.1487,400.1213,239.3375,400.1995,238.8242,399.6354,238.5964,399.1896,238.4301,398.7693,238.4276,398.4168,238.27,398,238.2045,398,238.4971,393.2,238.2118,388.4,238.1556,383.6,238.3461,378.8,238.27,374,238.0646,373.9149,238.2859,373.5095,238.8213,373.2343,238.9314,372.7828,239.1991,372.3966,239.1487,371.8787,239.1076,371.7796,239.6137,371.8012,240.0725,371.709,240.3612,371.206,240.8335,371.1462,241.27,371" style="stroke:#FF6F00;stroke-width:2;"/><polygon fill="#ADD1B2" points="262.3252,388.4324,260.8594,390.4353,259.1256,393.3688,256.646,395.3458,254.0403,396.4269,251.9627,396.5207,249.2924,395.1687,246.7729,394.2854,244.8605,392.492,243.8573,390.4389,243.2624,388.8041,242.6796,386.6688,241.7336,384.8313,242.4606,383.0373,243.0975,381.072,245.4875,379.5177,247.1691,377.501,249.2504,376.8313,251.7247,376.2546,254.8976,376.5972,256.6355,377.4168,258.6561,377.7884,261.1129,380.3054,261.9693,382.9627,262.3414,384.7758,261.92,387.7635" style="stroke:#181818;stroke-width:1;"/><path d="M254.1294,390.2344 Q253.6919,390.4531 253.1919,390.5625 Q252.7075,390.6875 252.1763,390.6875 Q250.2544,390.6875 249.2388,389.4219 Q248.2388,388.1563 248.2388,385.7656 Q248.2388,383.375 249.2388,382.1094 Q250.2544,380.8438 252.1763,380.8438 Q252.7075,380.8438 253.2075,380.9688 Q253.7075,381.0781 254.1294,381.3125 L254.1294,383.3906 Q253.645,382.9531 253.1919,382.75 Q252.7388,382.5313 252.2544,382.5313 Q251.2388,382.5313 250.7075,383.3594 Q250.1763,384.1719 250.1763,385.7656 Q250.1763,387.375 250.7075,388.1875 Q251.2388,389 252.2544,389 Q252.7388,389 253.1919,388.7969 Q253.645,388.5938 254.1294,388.1406 L254.1294,390.2344 Z " fill="#FFFFFF"/><text fill="#FFFFFF" font-family="'Roboto'" font-size="13" lengthAdjust="spacing" textLength="33.9473" x="267.27" y="390.5005">Term</text></a></g><!--class BusinessTerm--><g class="entity" data-qualified-name="BusinessTerm" data-source-line="75" id="ent0011"><polygon fill="#4051B5" points="73.61,462,73.61,462.2102,83.5494,461.5857,93.4888,462.1933,103.4282,462.3997,113.3676,461.2866,123.3071,461.9223,133.2465,461.5735,143.1859,461.6165,153.1253,461.9318,163.0647,461.3086,173.0041,462.5536,182.9435,461.3697,192.8829,462,192.8577,461.9391,193.3623,462.3088,193.7205,462.3251,194.1644,462.5482,194.5759,462.6931,195.0043,462.8787,195.0592,462.9015,195.2536,463.3334,195.5361,463.8019,195.7381,464.2371,195.9164,464.6624,195.8829,465,195.9678,465,196.0375,469.8,196.117,474.6,195.6426,479.4,196.1091,484.2,195.8829,489,195.7916,488.9622,195.8716,489.4924,195.379,489.7854,195.3346,490.2641,195.4084,490.7917,195.0043,491.1213,194.9981,491.1063,194.5934,491.3295,194.1989,491.5771,193.7846,491.7767,193.3067,491.8231,192.8829,492,192.8829,492.2872,182.9435,491.4276,173.0041,492.2844,163.0647,492.5482,153.1253,492.4445,143.1859,492.613,133.2465,491.5169,123.3071,491.3478,113.3676,491.3786,103.4282,491.9411,93.4888,491.8035,83.5494,492.6814,73.61,492,73.5877,491.9462,73.142,491.7186,72.7906,491.7188,72.2521,491.2674,71.8467,491.1372,71.4887,491.1213,71.6885,491.2041,71.4471,490.7526,71.3634,490.3665,70.8624,489.8075,70.884,489.465,70.61,489,70.8068,489,70.4525,484.2,70.578,479.4,70.652,474.6,70.8273,469.8,70.61,465,70.6087,464.9995,70.9282,464.6347,70.7909,464.0808,70.9286,463.6408,71.468,463.3672,71.4887,462.8787,71.3972,462.6579,71.9779,462.8597,72.3636,462.5908,72.7273,462.269,73.1406,462.0668,73.61,462" style="stroke:#FF6F00;stroke-width:2;"/><polygon fill="#ADD1B2" points="94.6652,479.4324,93.1994,481.4353,91.4656,484.3688,88.986,486.3458,86.3803,487.4269,84.3027,487.5207,81.6324,486.1687,79.1129,485.2854,77.2005,483.492,76.1973,481.4389,75.6024,479.8041,75.0196,477.6688,74.0736,475.8313,74.8006,474.0373,75.4375,472.072,77.8275,470.5177,79.5091,468.501,81.5904,467.8313,84.0647,467.2546,87.2376,467.5972,88.9755,468.4168,90.9961,468.7884,93.4529,471.3054,94.3093,473.9627,94.6814,475.7758,94.26,478.7635" style="stroke:#181818;stroke-width:1;"/><path d="M86.4694,481.2344 Q86.0319,481.4531 85.5319,481.5625 Q85.0475,481.6875 84.5163,481.6875 Q82.5944,481.6875 81.5788,480.4219 Q80.5788,479.1563 80.5788,476.7656 Q80.5788,474.375 81.5788,473.1094 Q82.5944,471.8438 84.5163,471.8438 Q85.0475,471.8438 85.5475,471.9688 Q86.0475,472.0781 86.4694,472.3125 L86.4694,474.3906 Q85.985,473.9531 85.5319,473.75 Q85.0788,473.5313 84.5944,473.5313 Q83.5788,473.5313 83.0475,474.3594 Q82.5163,475.1719 82.5163,476.7656 Q82.5163,478.375 83.0475,479.1875 Q83.5788,480 84.5944,480 Q85.0788,480 85.5319,479.7969 Q85.985,479.5938 86.4694,479.1406 L86.4694,481.2344 Z " fill="#FFFFFF"/><text fill="#FFFFFF" font-family="'Roboto'" font-size="13" lengthAdjust="spacing" textLength="91.2729" x="99.61" y="481.5005">BusinessTerm</text></g><!--class TechnicalTerm--><g class="entity" data-qualified-name="TechnicalTerm" data-source-line="76" id="ent0012"><polygon fill="#4051B5" points="229.32,462,229.32,462.2102,239.6408,461.5857,249.9616,462.1933,260.2824,462.3997,270.6032,461.2866,280.924,461.9223,291.2448,461.5735,301.5656,461.6165,311.8864,461.9318,322.2072,461.3086,332.528,462.5536,342.8488,461.3697,353.1696,462,353.1444,461.9391,353.649,462.3088,354.0072,462.3251,354.4511,462.5482,354.8626,462.6931,355.2909,462.8787,355.3459,462.9015,355.5403,463.3334,355.8228,463.8019,356.0248,464.2371,356.2031,464.6624,356.1696,465,356.2545,465,356.3241,469.8,356.4037,474.6,355.9292,479.4,356.3958,484.2,356.1696,489,356.0783,488.9622,356.1583,489.4924,355.6657,489.7854,355.6213,490.2641,355.6951,490.7917,355.2909,491.1213,355.2847,491.1063,354.8801,491.3295,354.4856,491.5771,354.0712,491.7767,353.5934,491.8231,353.1696,492,353.1696,492.2872,342.8488,491.4276,332.528,492.2844,322.2072,492.5482,311.8864,492.4445,301.5656,492.613,291.2448,491.5169,280.924,491.3478,270.6032,491.3786,260.2824,491.9411,249.9616,491.8035,239.6408,492.6814,229.32,492,229.2977,491.9462,228.852,491.7186,228.5006,491.7188,227.9621,491.2674,227.5567,491.1372,227.1987,491.1213,227.3985,491.2041,227.1571,490.7526,227.0734,490.3665,226.5724,489.8075,226.594,489.465,226.32,489,226.5168,489,226.1625,484.2,226.288,479.4,226.362,474.6,226.5373,469.8,226.32,465,226.3187,464.9995,226.6382,464.6347,226.5009,464.0808,226.6386,463.6408,227.178,463.3672,227.1987,462.8787,227.1072,462.6579,227.6879,462.8597,228.0736,462.5908,228.4373,462.269,228.8506,462.0668,229.32,462" style="stroke:#FF6F00;stroke-width:2;"/><polygon fill="#ADD1B2" points="250.3752,479.4324,248.9094,481.4353,247.1756,484.3688,244.696,486.3458,242.0903,487.4269,240.0127,487.5207,237.3424,486.1687,234.8229,485.2854,232.9105,483.492,231.9073,481.4389,231.3124,479.8041,230.7296,477.6688,229.7836,475.8313,230.5106,474.0373,231.1475,472.072,233.5375,470.5177,235.2191,468.501,237.3004,467.8313,239.7747,467.2546,242.9476,467.5972,244.6855,468.4168,246.7061,468.7884,249.1629,471.3054,250.0193,473.9627,250.3914,475.7758,249.97,478.7635" style="stroke:#181818;stroke-width:1;"/><path d="M242.1794,481.2344 Q241.7419,481.4531 241.2419,481.5625 Q240.7575,481.6875 240.2263,481.6875 Q238.3044,481.6875 237.2888,480.4219 Q236.2888,479.1563 236.2888,476.7656 Q236.2888,474.375 237.2888,473.1094 Q238.3044,471.8438 240.2263,471.8438 Q240.7575,471.8438 241.2575,471.9688 Q241.7575,472.0781 242.1794,472.3125 L242.1794,474.3906 Q241.695,473.9531 241.2419,473.75 Q240.7888,473.5313 240.3044,473.5313 Q239.2888,473.5313 238.7575,474.3594 Q238.2263,475.1719 238.2263,476.7656 Q238.2263,478.375 238.7575,479.1875 Q239.2888,480 240.3044,480 Q240.7888,480 241.2419,479.7969 Q241.695,479.5938 242.1794,479.1406 L242.1794,481.2344 Z " fill="#FFFFFF"/><text fill="#FFFFFF" font-family="'Roboto'" font-size="13" lengthAdjust="spacing" textLength="95.8496" x="255.32" y="481.5005">TechnicalTerm</text></g><!--class Persona--><g class="entity" data-qualified-name="Persona" data-source-line="77" id="ent0013"><a href="/concept/persona/#ontology" target="_top" title="/concept/persona/#ontology" xlink:actuate="onRequest" xlink:href="/concept/persona/#ontology" xlink:show="new" xlink:title="/concept/persona/#ontology" xlink:type="simple"><polygon fill="#4051B5" points="466.19,189,466.19,189.2102,476.2043,188.5857,486.2186,189.1933,496.2328,189.3997,506.2471,188.2866,516.2614,188.9223,526.2757,188.5735,536.29,188.6165,546.3043,189,546.2956,188.979,546.6403,188.9628,547.2234,189.522,547.4967,189.3331,547.9761,189.642,548.4256,189.8787,548.5586,189.9338,548.5749,190.292,548.7981,190.7359,548.9429,191.1474,549.1835,191.5985,549.3043,192,549.384,192,549.4995,196.8,549.5279,201.6,549.5307,206.4,549.3891,211.2,549.3043,216,549.447,216.0591,549.3448,216.5138,548.7307,216.7565,548.986,217.3593,548.51,217.6592,548.4256,218.1213,548.4937,218.2857,547.9382,218.1446,547.5683,218.4517,547.2474,218.8769,546.7223,218.8093,546.3043,219,546.3043,219.1053,536.29,219.3386,526.2757,219.4162,516.2614,218.9961,506.2471,219.2872,496.2328,218.4276,486.2186,219.2844,476.2043,219.5482,466.19,219,466.2467,219.1369,465.8439,219.0131,465.2798,218.4998,464.834,218.2719,464.4137,218.1057,464.0687,218.1213,464.0505,218.1138,463.8324,217.672,463.9271,217.3597,463.4877,216.8262,463.2601,216.3805,463.19,216,463.2661,216,462.9677,211.2,463.017,206.4,463.4063,201.6,463.3352,196.8,463.19,192,463.4162,192.0937,463.2666,191.5347,463.6398,191.1922,463.899,190.8025,463.7475,190.2427,464.0687,189.8787,464.0565,189.8492,464.509,189.7417,465.0003,189.7279,465.3409,189.3502,465.8247,189.3182,466.19,189" style="stroke:#FF6F00;stroke-width:2;"/><polygon fill="#ADD1B2" points="487.2452,206.4324,485.7794,208.4353,484.0456,211.3688,481.566,213.3458,478.9603,214.4269,476.8827,214.5207,474.2124,213.1687,471.6929,212.2854,469.7805,210.492,468.7773,208.4389,468.1824,206.8041,467.5996,204.6688,466.6536,202.8313,467.3806,201.0373,468.0175,199.072,470.4075,197.5177,472.0891,195.501,474.1704,194.8313,476.6447,194.2546,479.8176,194.5972,481.5555,195.4168,483.5761,195.7884,486.0329,198.3054,486.8893,200.9627,487.2614,202.7758,486.84,205.7635" style="stroke:#181818;stroke-width:1;"/><path d="M479.0494,208.2344 Q478.6119,208.4531 478.1119,208.5625 Q477.6275,208.6875 477.0963,208.6875 Q475.1744,208.6875 474.1588,207.4219 Q473.1588,206.1563 473.1588,203.7656 Q473.1588,201.375 474.1588,200.1094 Q475.1744,198.8438 477.0963,198.8438 Q477.6275,198.8438 478.1275,198.9688 Q478.6275,199.0781 479.0494,199.3125 L479.0494,201.3906 Q478.565,200.9531 478.1119,200.75 Q477.6588,200.5313 477.1744,200.5313 Q476.1588,200.5313 475.6275,201.3594 Q475.0963,202.1719 475.0963,203.7656 Q475.0963,205.375 475.6275,206.1875 Q476.1588,207 477.1744,207 Q477.6588,207 478.1119,206.7969 Q478.565,206.5938 479.0494,206.1406 L479.0494,208.2344 Z " fill="#FFFFFF"/><text fill="#FFFFFF" font-family="'Roboto'" font-size="13" lengthAdjust="spacing" textLength="52.1143" x="492.19" y="208.5005">Persona</text></a></g><!--class StoryConceptRelationship--><g class="entity" data-qualified-name="StoryConceptRelationship" data-source-line="78" id="ent0014"><polygon fill="#4051B5" points="10,189,10,189.2102,19.8246,188.5857,29.6492,189.1933,39.4738,189.3997,49.2984,188.2866,59.123,188.9223,68.9477,188.5735,78.7723,188.6165,88.5969,188.9318,98.4215,188.3086,108.2461,189.5536,118.0707,188.3697,127.8953,188.8022,137.7199,189.4319,147.5445,188.9142,157.3691,189.0682,167.1938,188.9681,177.0184,189.1785,186.843,189.2391,196.6676,189.5857,206.4922,189,206.5778,189.2067,207.0031,189.3849,207.3732,189.4299,207.8241,189.67,208.2788,189.9192,208.6135,189.8787,208.3914,189.7867,208.9982,190.3895,208.8737,190.6894,209.3051,191.2196,209.164,191.5126,209.4922,192,209.4694,192,209.7394,196.8,209.4759,201.6,209.5273,206.4,209.6051,211.2,209.4922,216,209.6204,216.0531,209.3152,216.4238,209.2292,216.8852,208.7887,217.1998,208.8768,217.7333,208.6135,218.1213,208.6834,218.2901,208.2459,218.434,207.8432,218.6616,207.2791,218.4998,206.8333,218.6234,206.4922,219,206.4922,218.3786,196.6676,218.9411,186.843,218.8035,177.0184,219.6814,167.1938,218.8253,157.3691,218.6569,147.5445,219.2283,137.7199,218.3332,127.8953,218.4809,118.0707,219.649,108.2461,219.4357,98.4215,219.7345,88.5969,218.6782,78.7723,219.3192,68.9477,219.5904,59.123,218.5276,49.2984,218.9041,39.4738,219.126,29.6492,219.6518,19.8246,218.9958,10,219,10.059,219.1425,9.5051,218.6537,9.0651,218.44,8.7914,218.6279,8.2115,218.0763,7.8787,218.1213,8.0354,218.1862,7.7666,217.7234,7.4447,217.2386,7.2425,216.8034,7.317,216.4828,7,216,6.9002,216,7.1973,211.2,6.8158,206.4,7.2058,201.6,7.1614,196.8,7,192,7.0754,192.0312,7.1903,191.5818,7.5752,191.2442,7.7162,190.8055,7.7551,190.3245,7.8787,189.8787,7.9129,189.9613,8.2863,189.6628,8.8186,189.7478,9.1712,189.3992,9.5977,189.2289,10,189" style="stroke:#FF6F00;stroke-width:2;"/><polygon fill="#ADD1B2" points="31.0552,206.4324,29.5894,208.4353,27.8556,211.3688,25.376,213.3458,22.7703,214.4269,20.6927,214.5207,18.0224,213.1687,15.5029,212.2854,13.5905,210.492,12.5873,208.4389,11.9924,206.8041,11.4096,204.6688,10.4636,202.8313,11.1906,201.0373,11.8275,199.072,14.2175,197.5177,15.8991,195.501,17.9804,194.8313,20.4547,194.2546,23.6276,194.5972,25.3655,195.4168,27.3861,195.7884,29.8429,198.3054,30.6993,200.9627,31.0714,202.7758,30.65,205.7635" style="stroke:#181818;stroke-width:1;"/><path d="M22.8594,208.2344 Q22.4219,208.4531 21.9219,208.5625 Q21.4375,208.6875 20.9063,208.6875 Q18.9844,208.6875 17.9688,207.4219 Q16.9688,206.1563 16.9688,203.7656 Q16.9688,201.375 17.9688,200.1094 Q18.9844,198.8438 20.9063,198.8438 Q21.4375,198.8438 21.9375,198.9688 Q22.4375,199.0781 22.8594,199.3125 L22.8594,201.3906 Q22.375,200.9531 21.9219,200.75 Q21.4688,200.5313 20.9844,200.5313 Q19.9688,200.5313 19.4375,201.3594 Q18.9063,202.1719 18.9063,203.7656 Q18.9063,205.375 19.4375,206.1875 Q19.9688,207 20.9844,207 Q21.4688,207 21.9219,206.7969 Q22.375,206.5938 22.8594,206.1406 L22.8594,208.2344 Z " fill="#FFFFFF"/><text fill="#FFFFFF" font-family="'Roboto'" font-size="13" lengthAdjust="spacing" textLength="168.4922" x="36" y="208.5005">StoryConceptRelationship</text></g><!--class PersonaTaxonomy--><g class="entity" data-qualified-name="PersonaTaxonomy" data-source-line="79" id="ent0015"><polygon fill="#4051B5" points="424.14,280,424.14,280.2102,434.0212,279.5857,443.9024,280.1933,453.7837,280.3997,463.6649,279.2866,473.5461,279.9223,483.4273,279.5735,493.3085,279.6165,503.1897,279.9318,513.071,279.3086,522.9522,280.5536,532.8334,279.3697,542.7146,279.8022,552.5958,280.4319,562.477,279.9142,572.3583,280,572.367,280.021,572.7785,280.1659,573.2296,280.4065,573.6616,280.6009,574.13,280.8833,574.4796,280.8787,574.6862,280.9643,574.8645,281.3896,574.9095,281.7597,575.1496,282.2106,575.3988,282.6653,575.3583,283,575.1179,283,575.5844,287.8,575.2594,292.6,575.5362,297.4,575.1933,302.2,575.3583,307,575.3372,306.9913,575.4109,307.5189,574.9918,307.8423,574.8635,308.2862,574.7596,308.7403,574.4796,309.1213,574.5327,309.2495,574.0548,309.2959,573.6677,309.5612,573.1338,309.4722,572.8188,309.9118,572.3583,310,572.3583,310.5482,562.477,310.4445,552.5958,310.613,542.7146,309.5169,532.8334,309.3478,522.9522,309.3786,513.071,309.9411,503.1897,309.8035,493.3085,310.6814,483.4273,309.8253,473.5461,309.6569,463.6649,310.2283,453.7837,309.3332,443.9024,309.4809,434.0212,310.649,424.14,310,424.1956,310.1342,423.8094,310.0505,423.2504,309.5494,422.9079,309.5711,422.5183,309.4789,422.0187,309.1213,421.8732,309.0611,421.8134,308.6848,421.706,308.2889,421.6922,307.9317,421.3144,307.4237,421.14,307,421.2942,307,420.9554,302.2,420.9142,297.4,421.3079,292.6,420.901,287.8,421.14,283,421.2967,283.0649,421.3794,282.6021,421.409,282.1173,421.5583,281.6821,421.9842,281.3615,422.0187,280.8787,421.9805,280.7865,422.5184,280.8852,422.7967,280.357,423.3702,280.5416,423.7775,280.3249,424.14,280" style="stroke:#FF6F00;stroke-width:2;"/><polygon fill="#ADD1B2" points="445.1952,297.4324,443.7294,299.4353,441.9956,302.3688,439.516,304.3458,436.9103,305.4269,434.8327,305.5207,432.1624,304.1687,429.6429,303.2854,427.7305,301.492,426.7273,299.4389,426.1324,297.8041,425.5496,295.6688,424.6036,293.8313,425.3306,292.0373,425.9675,290.072,428.3575,288.5177,430.0391,286.501,432.1204,285.8313,434.5947,285.2546,437.7676,285.5972,439.5055,286.4168,441.5261,286.7884,443.9829,289.3054,444.8393,291.9627,445.2114,293.7758,444.79,296.7635" style="stroke:#181818;stroke-width:1;"/><path d="M436.9994,299.2344 Q436.5619,299.4531 436.0619,299.5625 Q435.5775,299.6875 435.0463,299.6875 Q433.1244,299.6875 432.1088,298.4219 Q431.1088,297.1563 431.1088,294.7656 Q431.1088,292.375 432.1088,291.1094 Q433.1244,289.8438 435.0463,289.8438 Q435.5775,289.8438 436.0775,289.9688 Q436.5775,290.0781 436.9994,290.3125 L436.9994,292.3906 Q436.515,291.9531 436.0619,291.75 Q435.6088,291.5313 435.1244,291.5313 Q434.1088,291.5313 433.5775,292.3594 Q433.0463,293.1719 433.0463,294.7656 Q433.0463,296.375 433.5775,297.1875 Q434.1088,298 435.1244,298 Q435.6088,298 436.0619,297.7969 Q436.515,297.5938 436.9994,297.1406 L436.9994,299.2344 Z " fill="#FFFFFF"/><text fill="#FFFFFF" font-family="'Roboto'" font-size="13" lengthAdjust="spacing" textLength="120.2183" x="450.14" y="299.5005">PersonaTaxonomy</text></g><!--reverse link Term to BusinessTerm--><g class="link" data-entity-1="ent0010" data-entity-2="ent0011" data-link-type="extension" data-source-line="82" id="lnk16"><path d="M234.4424,411.2081 L234.5935,411.4441 L225.4154,416.332 L217.1231,422.6034 L208.5423,428.4242 L199.0129,432.7635 L190.7408,439.0663 L181.7608,444.2638 L173.0626,449.9012 L164.5602,455.8444 L155.88,461.51" fill="none" style="stroke:#FF6F00;stroke-width:2;"/><polygon fill="none" points="249.6,401.5,249.6172,401.5679,245.8874,402.2972,242.2584,403.4247,238.5965,404.4225,234.8268,404.994,231.2064,406.1556,231.1846,406.1416,232.3811,408.0999,233.6876,410.1287,235.0705,412.2064,236.19,414.1153,237.6785,416.2607,237.822,416.3766,239.8993,413.1765,242.3958,410.315,244.9434,407.4947,247.1934,404.4342,249.6,401.5" style="stroke:#FF6F00;stroke-width:2;"/></g><!--reverse link Term to TechnicalTerm--><g class="link" data-entity-1="ent0010" data-entity-2="ent0012" data-link-type="extension" data-source-line="83" id="lnk17"><path d="M279.052,418.9046 L279.1433,418.9241 L280.7015,427.4332 L282.7952,436.0567 L284.7145,444.6429 L286.0603,453.1067 L288.2,461.74" fill="none" style="stroke:#FF6F00;stroke-width:2;"/><polygon fill="none" points="275.3,401.3,275.3696,401.3078,274.7395,405.0557,274.5175,408.8493,274.1627,412.628,273.3707,416.3577,273.1838,420.1553,273.1784,420.1299,275.5014,419.516,277.8517,419.0297,280.2209,418.6323,282.5249,417.9288,284.9202,417.654,285.0793,417.7475,282.8151,414.2766,281.0153,411.079,279.2722,407.9146,277.1994,404.5563,275.3,401.3" style="stroke:#FF6F00;stroke-width:2;"/></g><!--link Story to UseCase--><g class="link" data-entity-1="ent0004" data-entity-2="ent0002" data-link-type="dependency" data-source-line="86" id="lnk18"><path d="M607.03,128.19 L607.3098,128.2055 L607.0238,138.0111 L608.378,147.9075 L609.1982,157.7744 L608.2617,167.544 L609.6533,177.4424 L609.7343,187.2684 L610.3369,197.1232 L611.3021,206.998 L611.0178,216.8037 L613.2206,226.7471 L612.1898,236.5115 L613.311,246.395 L614.6947,256.293 L614.5508,266.1065 L615.3012,275.9695 L615.7131,285.8138 L616.5387,295.6809 L617.1647,305.537 L618.1715,315.4142 L618.8305,325.2721 L619.3867,335.1243 L619.3668,344.9447 L620.1903,354.8117 L620.1185,364.6292" fill="none" style="stroke:#FF6F00;stroke-width:2;"/><polygon fill="#FF6F00" points="620.45,370.62,620.5155,370.6449,621.0202,368.7295,621.9089,366.96,622.6726,365.143,623.025,363.1698,623.9467,361.4128,623.9274,361.3955,623.0862,362.1609,622.3423,363.0135,621.666,363.9265,620.7566,364.631,620.1738,365.6276,620.2969,365.7651,619.1907,364.7165,618.4438,364.0694,617.7409,363.4712,616.7828,362.588,615.9589,361.8547,615.9791,361.8651,616.8476,363.6029,617.8083,365.388,618.7245,367.1502,619.7255,368.956,620.45,370.62" style="stroke:#FF6F00;stroke-width:2;"/><text fill="#FFFFFF" font-family="'Roboto'" font-size="13" lengthAdjust="spacing" textLength="59.2046" x="618.25" y="254.0669">:useCase</text><text fill="#FFFFFF" font-family="'Roboto'" font-size="13" lengthAdjust="spacing" textLength="23.0356" x="577.9811" y="150.148">0..*</text><text fill="#FFFFFF" font-family="'Roboto'" font-size="13" lengthAdjust="spacing" textLength="8.271" x="608.4089" y="358.0877">1</text></g><!--link WorkflowDefinition to UseCase--><g class="link" data-entity-1="ent0005" data-entity-2="ent0002" data-link-type="dependency" data-source-line="87" id="lnk19"><path d="M886.4,27.27 L886.4141,27.3623 L888.4998,27.4137 L890.6683,28.0064 L892.8098,28.4228 L894.8625,28.2596 L897.0381,28.8988 L897.0319,28.8648 L899.1535,29.1065 L901.3064,29.5195 L903.4812,30.0515 L905.5807,30.1733 L907.7856,30.8697 L907.8381,31.1101 L909.8753,31.065 L912.0657,31.7217 L914.2748,32.4641 L916.3752,32.7082 L918.5327,33.2144 L918.5403,33.2437 L920.6565,33.7505 L922.8073,34.3911 L924.9414,34.9671 L927.1073,35.6661 L929.1695,35.9641 L929.2568,36.2493 L931.3412,36.89 L933.3694,37.3468 L935.4799,38.0728 L937.5943,38.8115 L939.5863,39.1503 L939.4772,38.8489 L941.7065,40.1647 L943.5763,40.4881 L945.7193,41.5659 L947.581,41.8668 L949.6733,42.8045 L949.6613,42.7765 L951.7332,43.9379 L953.5237,44.446 L955.4803,45.3396 L957.4508,46.2656 L959.3207,46.9581 L959.4054,47.1226 L961.1395,47.8934 L963.0184,48.9453 L964.6631,49.5425 L966.657,50.818 L968.4188,51.6425 L968.5569,51.8432 L971.7525,54.0227 L975.0167,56.3018 L977.9622,58.1179 L981.1414,60.2734 L984.5274,62.7296 L984.3249,62.5418 L987.027,65.4293 L989.5008,68.1052 L992.3057,71.088 L994.5454,73.5469 L997.1211,76.3172 L996.9848,76.2488 L998.8518,79.6306 L1000.1363,82.7201 L1001.8351,86.0175 L1003.9391,89.5183 L1005.3214,92.6568 L1005.5128,92.6858 L1006.2299,96.5743 L1006.3514,100.3727 L1007.2188,104.284 L1007.9237,108.1706 L1008.25,112 L1007.6201,112 L1008.1222,122.2222 L1008.418,132.4444 L1009.119,142.6667 L1008.2444,152.8889 L1008.8668,163.1111 L1007.5116,173.3333 L1007.347,183.5556 L1008.9215,193.7778 L1007.2941,204 L1008.9286,214.2222 L1008.5255,224.4444 L1007.8928,234.6667 L1007.7783,244.8889 L1008.8617,255.1111 L1007.8509,265.3333 L1009.0391,275.5556 L1007.513,285.7778 L1008.25,296 L1008.5184,296.0573 L1007.9318,298.5212 L1007.299,300.9753 L1006.6844,303.4332 L1006.4509,305.9726 L1005.6064,308.3814 L1005.8321,308.5345 L1004.1536,310.658 L1002.6749,312.9171 L1001.0133,315.0522 L999.8097,317.4978 L998.031,319.5535 L998.0752,319.6062 L995.6855,321.6173 L993.0679,323.3561 L990.7311,325.4303 L988.6034,327.7543 L986.0572,329.5784 L986.1511,329.7447 L982.8801,331.3498 L979.6513,333.0297 L976.506,334.8577 L973.2361,336.4649 L970.2182,338.5185 L970.293,338.687 L968.5111,339.6355 L966.6322,340.3654 L964.8221,341.2505 L962.8318,341.7291 L961.016,342.6012 L961.0299,342.6374 L958.9604,343.2074 L957.0738,344.253 L955.0742,345.0045 L953.1292,345.8982 L951.0473,346.4361 L951.0147,346.3393 L948.8946,347.0984 L946.843,348.0608 L944.7269,348.8319 L942.44,349.096 L940.3791,350.0309 L940.3545,349.9483 L938.1377,350.7669 L935.7811,351.1156 L933.6431,352.1989 L931.3708,352.8308 L929.0778,353.3934 L929.0664,353.3501 L926.7204,354.0821 L924.4135,354.9617 L921.9217,355.1417 L919.6195,356.0391 L917.2102,356.5314 L917.2394,356.6549 L914.7486,357.1657 L912.2777,357.7608 L909.8014,358.3332 L907.2526,358.5984 L904.8429,359.4526 L904.806,359.2784 L902.2403,359.7944 L899.7286,360.5653 L897.1708,361.1184 L894.6175,361.6929 L892.0426,362.165 L892.0183,362.038 L889.4036,362.6378 L886.7659,363.117 L884.1906,363.9236 L881.5447,364.3602 L878.8759,364.6762 L878.8393,364.4636 L876.1771,365.1079 L873.4458,365.3505 L870.8178,366.1933 L868.1486,366.797 L865.4095,366.9941 L865.4467,367.2332 L862.6398,367.2293 L859.9614,368.0508 L857.139,367.9472 L854.4636,368.7878 L851.71,369.1264 L851.6915,368.9946 L848.9429,369.5598 L846.1786,370.0139 L843.4198,370.5068 L840.5727,370.3731 L837.8442,371.0809 L837.871,371.2905 L835.0611,371.5163 L832.278,371.9513 L829.507,372.4812 L826.6721,372.5109 L823.8786,372.8653 L823.8876,372.9427 L821.0898,373.284 L818.2893,373.6013 L815.4794,373.8384 L812.7161,374.4769 L809.88,374.4876 L809.8517,374.2181 L807.1133,375.031 L804.265,374.7989 L801.4759,375.1295 L798.7098,375.6796 L795.915,375.9554 L795.9161,375.968 L790.3826,376.238 L784.9065,377.14 L779.3817,377.5057 L773.894,378.2799 L768.3523,378.4589 L768.3742,378.7546 L763.0118,378.6561 L757.6878,379.0742 L752.3709,379.5892 L747.0612,380.1999 L741.7238,380.4381 L741.7346,380.6169 L736.6997,380.8751 L731.6503,380.8933 L726.6443,381.6307 L721.612,381.933 L716.5629,381.9552 L716.5619,381.9342 L711.9258,382.0726 L707.2903,382.224 L702.6622,382.5304 L698.0378,382.9101 L693.4028,383.0726 L693.4016,383.0422 L689.2706,383.043 L685.1606,383.601 L681.0195,383.3367 L676.9104,383.9196 L672.7767,383.8525" fill="none" style="stroke:#FF6F00;stroke-width:2;"/><polygon fill="#FF6F00" points="666.78,384.05,666.8063,384.1149,668.5535,384.6623,670.4549,385.5903,672.3062,386.3944,673.9921,386.7908,675.9068,387.7515,675.8891,387.7326,674.9838,386.8745,674.1676,386.1117,673.4136,385.4152,672.4457,384.4904,671.7773,383.8854,671.912,384.0115,672.3971,382.9159,673.2756,382.1885,674.2021,381.5061,674.8493,380.5622,675.6434,379.7558,675.6533,379.7763,673.8661,380.6051,672.124,381.5271,670.3601,382.4041,668.6378,383.3669,666.78,384.05" style="stroke:#FF6F00;stroke-width:2;"/><text fill="#FFFFFF" font-family="'Roboto'" font-size="13" lengthAdjust="spacing" textLength="59.2046" x="1011.25" y="208.5669">:useCase</text><text fill="#FFFFFF" font-family="'Roboto'" font-size="13" lengthAdjust="spacing" textLength="23.0356" x="896.0747" y="21.9921">0..*</text><text fill="#FFFFFF" font-family="'Roboto'" font-size="13" lengthAdjust="spacing" textLength="8.271" x="676.3683" y="377.4449">1</text></g><!--link ConceptVocabulary to UseCase--><g class="link" data-entity-1="ent0008" data-entity-2="ent0002" data-link-type="dependency" data-source-line="88" id="lnk20"><path d="M320.43,219.29 L320.5232,219.2963 L320.1215,221.1354 L320.2662,223.0113 L320.233,224.8752 L319.6146,226.6998 L319.8062,228.5788 L319.7717,228.5781 L319.5748,230.7333 L319.5519,232.8918 L319.6501,235.0527 L319.3313,237.2055 L319.5966,239.3697 L319.8424,239.3792 L319.4083,241.7258 L319.6921,244.1002 L320.0634,246.478 L319.9251,248.8361 L320.0549,251.2045 L320.085,251.2078 L320.3168,253.687 L320.6858,256.1815 L320.9886,258.6685 L321.4177,261.1696 L321.435,263.625 L321.7272,263.6845 L322.242,266.1949 L322.5682,268.6668 L323.1703,271.1949 L323.7854,273.7257 L323.9907,276.173 L323.686,276.0736 L325.0745,278.71 L325.4595,281.0191 L326.6074,283.577 L326.9697,285.8786 L327.9759,288.3903 L327.9487,288.3768 L329.4049,290.8224 L330.2239,292.952 L331.419,295.2681 L332.6455,297.5999 L333.6444,299.8187 L333.7926,299.9294 L335.1641,301.8539 L336.7889,303.9676 L338.0039,305.7752 L339.8301,308.0394 L341.25,310 L341.4131,310.181 L342.7789,311.4048 L344.2258,312.7184 L345.2964,313.6145 L346.6429,314.8166 L348.2335,316.29 L348.0797,316.0606 L350.0158,317.4733 L351.7785,318.6275 L353.7927,320.1566 L355.3776,321.0456 L357.2176,322.3151 L357.1457,322.1806 L359.4184,323.5562 L361.3837,324.3572 L363.5676,325.5667 L365.9655,327.1762 L367.9824,328.0736 L368.0611,328.2505 L370.5803,329.4698 L372.8544,330.139 L375.4354,331.4973 L377.9495,332.7055 L380.3079,333.5638 L380.233,333.3677 L383.026,334.5681 L385.7944,335.7043 L388.6111,336.9666 L391.2404,337.7383 L393.9743,338.7841 L394.0396,338.9791 L396.8537,339.5405 L399.7938,340.4782 L402.9179,341.9656 L405.7033,342.4409 L408.7619,343.7328 L408.8265,343.9496 L411.9259,344.7559 L415.0034,345.4888 L418.1302,346.3873 L421.3711,347.6685 L424.4506,348.4082 L424.4161,348.2797 L427.7929,349.5423 L430.9349,349.9311 L434.3439,351.3134 L437.6026,352.1363 L440.8207,352.8085 L440.8466,352.9143 L444.192,353.6536 L447.6302,354.7717 L450.9846,355.5476 L454.3039,356.1805 L457.6523,356.9322 L457.6785,357.0485 L461.0542,357.6448 L464.5515,358.781 L467.9113,359.3065 L471.3277,360.0833 L474.7255,360.7775 L474.6703,360.5128 L478.1077,361.3143 L481.6116,362.4346 L485.0215,363.1037 L488.3976,363.6111 L491.8205,364.3428 L491.7931,364.2022 L495.1813,364.904 L498.521,365.3568 L501.9937,366.4939 L505.4006,367.2923 L508.7173,367.6263 L508.7592,367.8565 L512.0684,368.5302 L515.298,368.7666 L518.6116,369.4646 L521.8696,369.857 L525.1962,370.6265 L525.2175,370.7509 L528.3829,371.2776 L531.5741,371.9545 L534.6836,372.1549 L537.859,372.7396 L541.0373,373.3415 L541.068,373.5362 L546.8545,374.5042 L552.5574,374.9437 L558.3573,375.9972 L564.159,377.0615 L569.9264,377.9095" fill="none" style="stroke:#FF6F00;stroke-width:2;"/><polygon fill="#FF6F00" points="575.86,378.8,575.8976,378.8591,574.1245,377.6252,572.5719,376.7378,570.9476,375.7375,569.0869,374.3663,567.5533,373.5086,567.5325,373.4932,568.1114,374.334,568.7953,375.2524,569.5523,376.2247,570.0576,377.0111,570.9154,378.058,571.0251,378.2064,569.8806,378.5614,569.0565,379.3498,568.2713,380.191,567.2589,380.7246,566.366,381.42,566.3721,381.442,568.262,380.8858,570.1794,380.4294,572.0836,379.9248,574.0131,379.5122,575.86,378.8" style="stroke:#FF6F00;stroke-width:2;"/><text fill="#FFFFFF" font-family="'Roboto'" font-size="13" lengthAdjust="spacing" textLength="59.2046" x="344.25" y="299.5669">:useCase</text><text fill="#FFFFFF" font-family="'Roboto'" font-size="13" lengthAdjust="spacing" textLength="23.0356" x="290.7449" y="240.9692">0..*</text><text fill="#FFFFFF" font-family="'Roboto'" font-size="13" lengthAdjust="spacing" textLength="8.271" x="558.0116" y="393.2293">1</text></g><!--link OutcomeRelationship to UseCase--><g class="link" data-entity-1="ent0007" data-entity-2="ent0002" data-link-type="dependency" data-source-line="89" id="lnk21"><path d="M880.37,128.4 L880.4231,128.4768 L882.7135,129.9415 L885.3154,131.8567 L887.8158,133.6251 L889.9827,134.9112 L892.6112,136.865 L892.5851,136.8424 L894.3957,138.9679 L896.3379,141.2074 L898.3716,143.5262 L900.0899,145.5719 L902.25,148 L902.4838,148.0768 L902.6626,149.9796 L903.524,152.1066 L904.4686,154.2609 L904.9288,156.2561 L905.6438,158.335 L905.6727,158.3442 L904.9515,160.4637 L904.3619,162.6251 L903.7088,164.7662 L903.1768,166.9459 L902.25,169 L902.5146,169.1376 L901.5018,171.093 L900.3183,172.9596 L899.3846,174.9561 L898.4626,176.9587 L897.1696,178.7684 L896.8918,178.6085 L896.3339,180.8262 L894.8611,182.5175 L894.0838,184.6089 L892.5903,186.2884 L891.6838,188.3055 L891.6581,188.2893 L890.7894,190.3425 L889.319,192.0165 L888.2036,193.9142 L887.1181,195.8307 L885.8175,197.6117 L885.9701,197.7163 L884.5716,199.4259 L883.4339,201.3141 L881.8744,202.9132 L880.9441,204.9436 L879.5954,206.6873 L879.7912,206.8323 L878.4435,208.5739 L877.1931,210.3875 L875.4911,211.8666 L874.1201,213.5908 L873.0424,215.5324 L872.8264,215.3604 L871.6502,217.2391 L870.2305,218.924 L869.164,220.8901 L867.4945,222.3761 L866.1834,224.1475 L866.0673,224.0486 L864.8326,225.8903 L863.1017,227.3094 L861.7237,229.029 L860.6909,231.0426 L859.0433,232.5327 L859.1867,232.6627 L857.8058,234.3831 L855.9787,235.6988 L854.7104,237.5213 L853.3204,239.2334 L851.6467,240.6883 L851.4955,240.5427 L850.0905,242.244 L848.6359,243.8976 L847.2787,245.6449 L845.543,247.028 L844.0188,248.6146 L844.1628,248.7612 L842.2793,249.9785 L840.674,251.4788 L839.4749,253.3926 L837.5278,254.5451 L836.1841,256.3119 L836.3383,256.4774 L834.6435,257.8728 L832.8964,259.2122 L831.2671,260.678 L829.91,262.4359 L828.1677,263.7804 L828.0795,263.6808 L826.7075,265.4254 L824.7355,266.4926 L823.4457,268.3299 L821.7718,269.7336 L819.9944,271.0205 L820.0646,271.1037 L818.3468,272.4389 L816.8805,274.072 L815.187,275.436 L813.3986,276.6875 L811.689,278.0324 L811.7638,278.1251 L809.9701,279.3441 L808.5238,280.9938 L806.6846,282.1563 L805.007,283.5192 L803.2763,284.8163 L803.1111,284.6023 L801.4672,285.985 L800.0224,287.6255 L798.2959,288.9013 L796.4686,290.0462 L794.7812,291.3726 L794.696,291.2575 L793.0128,292.5601 L791.1788,293.659 L789.7593,295.3181 L788.1346,296.6999 L786.2286,297.7015 L786.3641,297.8922 L784.6905,299.1736 L782.7593,300.0926 L781.0999,301.3941 L779.2606,302.4425 L777.6433,303.8033 L777.7145,303.9075 L775.9866,305.0688 L774.3446,306.3559 L772.4298,307.244 L770.7351,308.4539 L769.0501,309.6782 L769.1585,309.8428 L767.4736,311.0185 L765.4944,311.7473 L763.8571,312.9953 L762.2257,314.2523 L760.474,315.3266 L760.3284,315.0974 L758.8514,316.5436 L757.1218,317.5922 L755.3294,318.542 L753.6805,319.7176 L751.9397,320.7487 L752.107,321.026 L748.4991,322.6629 L745.2746,324.9351 L741.8991,326.9572 L738.4913,328.9259 L735.096,330.9151 L735.1269,330.9696 L731.8452,332.8119 L728.4082,334.3795 L725.1815,336.3188 L721.8926,338.1482 L718.7179,340.1797 L718.7313,340.2047 L715.5936,341.8872 L712.4662,343.5891 L709.229,345.0844 L706.1329,346.8451 L703.0042,348.5445 L702.9802,348.4968 L700.1493,350.2671 L697.1492,351.7009 L693.997,352.8322 L691.1092,354.4895 L688.1537,356.0119 L688.0433,355.7803 L685.4511,357.442 L682.7546,358.8849 L679.9847,360.1736 L677.0395,361.0948 L674.3651,362.584 L674.4502,362.7718 L671.7232,363.4191 L669.3907,364.9366 L666.7934,365.8702 L664.3605,367.1663 L661.8372,368.2629" fill="none" style="stroke:#FF6F00;stroke-width:2;"/><polygon fill="#FF6F00" points="656.35,370.69,656.3501,370.7601,658.3195,370.5554,660.2897,370.7614,662.2595,370.8337,664.2287,370.4662,666.1988,370.7075,666.1895,370.6834,665.0923,370.1669,664.0423,369.7723,663.0249,369.4623,661.8948,368.8605,660.9227,368.6674,661.0948,368.734,661.1347,367.5364,661.6772,366.5332,662.281,365.5537,662.5281,364.4362,662.9628,363.3913,662.9796,363.4065,661.6323,364.8439,660.3618,366.3507,659.0542,367.824,657.8172,369.3613,656.35,370.69" style="stroke:#FF6F00;stroke-width:2;"/><text fill="#FFFFFF" font-family="'Roboto'" font-size="13" lengthAdjust="spacing" textLength="59.2046" x="854.25" y="254.0669">:useCase</text><text fill="#FFFFFF" font-family="'Roboto'" font-size="13" lengthAdjust="spacing" textLength="23.0356" x="865.6718" y="150.1129">0..*</text><text fill="#FFFFFF" font-family="'Roboto'" font-size="13" lengthAdjust="spacing" textLength="8.271" x="655.6687" y="357.8699">1</text></g><!--link PersonaTaxonomy to UseCase--><g class="link" data-entity-1="ent0015" data-entity-2="ent0002" data-link-type="dependency" data-source-line="90" id="lnk22"><path d="M504.29,310.46 L504.3732,310.5025 L505.146,312.3735 L506.4066,314.4936 L507.5083,316.5326 L508.0878,318.3049 L509.3902,320.4464 L509.3606,320.4285 L510.5409,322.509 L511.8699,324.6799 L513.3024,326.9136 L514.3784,328.9307 L515.9538,331.2513 L516.15,331.3996 L517.3246,333.1912 L519.0723,335.4159 L520.8899,337.6936 L522.3007,339.6636 L523.9255,341.7955 L523.9468,341.8171 L525.7804,343.6263 L527.711,345.5337 L529.5949,347.3938 L531.568,349.3443 L533.25,351 L533.4301,351.2378 L535.2102,352.5872 L536.8743,353.7833 L538.7083,355.2039 L540.5503,356.635 L542.1398,357.7327 L541.9708,357.4604 L544.0336,359.0659 L545.5398,359.7746 L547.4691,361.165 L548.9627,361.8535 L550.8134,363.1173 L550.8,363.0899 L552.7818,364.3078 L554.4503,364.8872 L556.3037,365.8433 L558.1726,366.831 L559.9295,367.5906 L559.997,367.7628 L561.9724,368.3887 L564.063,369.309 L565.9672,369.7531 L568.1495,370.9075 L570.1468,371.5896" fill="none" style="stroke:#FF6F00;stroke-width:2;"/><polygon fill="#FF6F00" points="575.8,373.6,575.8483,373.6508,574.277,372.143,572.9886,370.9329,571.6081,369.6259,569.9246,368.0001,568.6606,366.8156,568.6372,366.8045,569.0179,367.7764,569.5165,368.8043,570.0971,369.8713,570.3952,370.8039,571.089,371.9246,571.1683,372.0913,569.977,372.2206,569.0171,372.8365,568.0854,373.5118,566.9895,373.8416,565.98,374.3531,565.9817,374.3758,567.9432,374.1919,569.9125,374.1112,571.8781,373.9807,573.8509,373.9453,575.8,373.6" style="stroke:#FF6F00;stroke-width:2;"/><text fill="#FFFFFF" font-family="'Roboto'" font-size="13" lengthAdjust="spacing" textLength="59.2046" x="536.25" y="345.0669">:useCase</text><text fill="#FFFFFF" font-family="'Roboto'" font-size="13" lengthAdjust="spacing" textLength="24.8066" x="475.976" y="332.1912">0..1</text><text fill="#FFFFFF" font-family="'Roboto'" font-size="13" lengthAdjust="spacing" textLength="8.271" x="557.9424" y="365.3236">1</text></g><!--reverse link Concept to Term--><g class="link" data-entity-1="ent0009" data-entity-2="ent0010" data-link-type="composition" data-source-line="93" id="lnk23"><path d="M196.4733,318.2335 L196.6586,318.4437 L203.5565,324.3823 L211.5404,331.5534 L219.1707,338.3232 L225.6378,343.7731 L233.6465,350.9723 L240.7874,357.1867 L248.2736,363.793 L256.06,370.74" fill="none" style="stroke:#FF6F00;stroke-width:2;"/><polygon fill="#FF6F00" points="187.47,310.3,187.5377,310.318,187.708,311.658,188.2751,313.1037,188.713,314.515,188.726,315.813,189.3272,317.2678,189.3237,317.2422,190.7374,317.3201,192.1685,317.5274,193.6118,317.8247,195.0133,317.812,196.4733,318.2335,196.6517,318.281,195.8989,316.7858,195.6668,315.4293,195.4982,314.0898,194.96,312.6518,194.6162,311.2656,194.6192,311.2882,193.1855,311.0619,191.7657,310.9383,190.3391,310.7652,188.9254,310.6866,187.47,310.3" style="stroke:#FF6F00;stroke-width:2;"/><text fill="#FFFFFF" font-family="'Roboto'" font-size="13" lengthAdjust="spacing" textLength="35.4834" x="234.25" y="345.0669">:term</text><text fill="#FFFFFF" font-family="'Roboto'" font-size="13" lengthAdjust="spacing" textLength="8.271" x="180.6437" y="331.9822">1</text><text fill="#FFFFFF" font-family="'Roboto'" font-size="13" lengthAdjust="spacing" textLength="23.0356" x="221.604" y="357.9358">1..*</text></g><!--link Concept to BusinessTerm--><g class="link" data-entity-1="ent0009" data-entity-2="ent0011" data-link-type="dependency" data-source-line="94" id="lnk24"><path d="M166.07,310.48 L166.1585,310.5098 L165.036,312.9737 L164.4324,315.6124 L163.6598,318.1941 L162.3315,320.5887 L161.7725,323.2423 L161.7396,323.2319 L160.6392,326.2026 L159.705,329.2256 L158.8861,332.2851 L157.6695,335.219 L157.01,338.3288 L157.2465,338.3968 L155.8033,341.5097 L155.0505,344.8213 L154.382,348.1571 L153.2234,351.3518 L152.3225,354.6208 L152.3519,354.6281 L151.4942,357.8932 L150.7705,361.1916 L149.9821,364.474 L149.3171,367.787 L148.25,371 L148.5418,371.0616 L148.0394,373.4597 L147.3488,375.8181 L146.9337,378.2347 L146.5315,380.6539 L145.7201,382.9868 L145.4052,382.9275 L145.5687,385.4172 L144.6952,387.7113 L144.6101,390.1542 L143.713,392.4439 L143.4815,394.8591 L143.4514,394.854 L143.4135,397.2369 L142.6742,399.5011 L142.3487,401.8353 L142.058,404.1754 L141.5166,406.4731 L141.6995,406.5009 L141.1732,408.7152 L140.9594,410.9771 L140.2401,413.162 L140.2748,415.4617 L139.8082,417.6851 L140.0497,417.7169 L139.4607,421.8396 L138.9915,425.9781 L137.9651,430.0432 L137.3472,434.1621 L137.0912,438.3286 L136.8166,438.2985 L136.6852,441.7881 L136.2444,445.2437 L136.2523,448.7486 L135.4942,452.1694 L135.1914,455.6402" fill="none" style="stroke:#FF6F00;stroke-width:2;"/><polygon fill="#FF6F00" points="134.59,461.61,134.6508,461.6447,135.4464,459.8308,136.5987,458.2204,137.6349,456.5438,138.289,454.6491,139.4719,453.0562,139.4555,453.0362,138.5058,453.6619,137.6387,454.3888,136.8291,455.186,135.8215,455.7409,135.0911,456.6352,135.2341,456.7519,134.2127,455.6261,133.6085,454.8412,133.0553,454.0978,132.2059,453.1125,131.5122,452.2544,131.5338,452.2615,132.1177,454.1222,132.7999,456.0152,133.4346,457.8927,134.1599,459.7999,134.59,461.61" style="stroke:#FF6F00;stroke-width:2;"/><text fill="#FFFFFF" font-family="'Roboto'" font-size="13" lengthAdjust="spacing" textLength="69.7671" x="151.25" y="390.5669">:labelTerm</text><text fill="#FFFFFF" font-family="'Roboto'" font-size="13" lengthAdjust="spacing" textLength="24.8066" x="134.322" y="332.2174">0..1</text><text fill="#FFFFFF" font-family="'Roboto'" font-size="13" lengthAdjust="spacing" textLength="8.271" x="123.2055" y="449.0747">1</text></g><!--reverse link ConceptVocabulary to Concept--><g class="link" data-entity-1="ent0008" data-entity-2="ent0009" data-link-type="aggregation" data-source-line="95" id="lnk25"><path d="M230.2204,221.2686 L230.2582,221.354 L226.9359,222.5208 L223.8351,224.1884 L220.6622,225.6929 L217.2519,226.6612 L214.1702,228.3718 L214.1492,228.3443 L211.2711,230.3468 L208.4987,232.4876 L205.7997,234.7246 L202.8476,236.6301 L200.25,239 L200.4263,239.1717 L198.2941,240.6064 L196.6765,242.5424 L195.1217,244.5395 L193.2016,246.1808 L191.4736,248.0092 L191.4989,248.026 L190.0603,250.1173 L188.7368,252.2848 L187.3578,254.4156 L186.0847,256.6166 L184.4663,258.5888 L184.7341,258.7199 L183.6633,260.915 L182.4197,263.0256 L181.429,265.26 L180.4502,267.5001 L179.0958,269.5564 L178.7962,269.4426 L178.6045,271.6982 L177.4263,273.579 L176.9981,275.7448 L175.7975,277.6171 L175.23,279.73" fill="none" style="stroke:#FF6F00;stroke-width:2;"/><polygon fill="none" points="241.6,217.46,241.6184,217.5276,240.172,216.9489,238.8332,216.7666,237.4593,216.4552,235.9703,215.7194,234.6407,215.5711,234.6202,215.5552,233.6443,216.6234,232.7716,217.7717,231.9706,218.9756,230.9224,219.9878,230.2204,221.2686,230.2688,221.4467,231.5572,221.4436,232.9869,221.9605,234.4337,222.5409,235.7804,222.7521,237.1797,223.1575,237.1977,223.1714,238.0554,222.0114,238.9949,220.915,239.8949,219.7878,240.8702,218.7192,241.6,217.46" style="stroke:#FF6F00;stroke-width:2;"/><text fill="#FFFFFF" font-family="'Roboto'" font-size="13" lengthAdjust="spacing" textLength="97.5571" x="203.25" y="254.0669">skos:inScheme</text><text fill="#FFFFFF" font-family="'Roboto'" font-size="13" lengthAdjust="spacing" textLength="8.271" x="223.6248" y="212.8981">1</text><text fill="#FFFFFF" font-family="'Roboto'" font-size="13" lengthAdjust="spacing" textLength="23.0356" x="147.2036" y="266.9226">0..*</text></g><!--link UseCase to UseCaseStereotype--><g class="link" data-entity-1="ent0002" data-entity-2="ent0003" data-link-type="dependency" data-source-line="98" id="lnk26"><path d="M621.25,401.3 L621.5302,401.3 L620.6976,412.188 L621.5077,423.076 L621.7829,433.964 L620.2988,444.852 L621.25,455.74" fill="none" style="stroke:#FF6F00;stroke-width:2;"/><polygon fill="#FF6F00" points="621.25,461.74,621.314,461.7685,621.9238,459.8839,622.9089,458.1662,623.7717,456.3941,624.2327,454.4434,625.25,452.74,625.2317,452.7217,624.3495,453.4395,623.5596,454.2496,622.8339,455.1239,621.887,455.777,621.25,456.74,621.3805,456.8705,620.3014,455.7914,619.6034,455.0934,618.9518,454.4418,618.0298,453.5198,617.25,452.74,617.2708,452.7492,618.0403,454.5357,618.9044,456.3642,619.7228,458.1724,620.6284,460.0193,621.25,461.74" style="stroke:#FF6F00;stroke-width:2;"/><text fill="#FFFFFF" font-family="'Roboto'" font-size="13" lengthAdjust="spacing" textLength="127.48" x="624.25" y="436.0669">usecase:stereotype</text><text fill="#FFFFFF" font-family="'Roboto'" font-size="13" lengthAdjust="spacing" textLength="24.8066" x="591.0859" y="422.9822">0..1</text><text fill="#FFFFFF" font-family="'Roboto'" font-size="13" lengthAdjust="spacing" textLength="8.271" x="609.3831" y="448.9358">1</text></g><!--link OutcomeRelationship to Outcome--><g class="link" data-entity-1="ent0007" data-entity-2="ent0006" data-link-type="dependency" data-source-line="99" id="lnk27"><path d="M813.07,128.22 L813.1286,128.2928 L810.6238,129.9526 L808.4624,132.0389 L806.1891,133.9864 L803.5482,135.477 L801.4163,137.6 L801.3927,137.5747 L799.0538,139.5413 L796.8336,141.6353 L794.6959,143.8178 L792.2738,145.6951 L790.25,148 L790.431,148.1667 L788.3349,149.6649 L786.7672,151.6499 L785.2639,153.6943 L783.3856,155.3931 L781.7046,157.2736 L781.7279,157.293 L780.2138,159.054 L778.806,160.9031 L777.3469,162.7097 L775.9858,164.5974 L774.3053,166.2209 L774.5441,166.3996 L773.237,168.1519 L771.776,169.7889 L770.5403,171.5946 L769.3153,173.4083 L767.7554,174.9713 L767.4917,174.7891 L766.8041,176.8793 L765.2481,178.3696 L764.3523,180.316 L762.7766,181.7927 L761.7581,183.6543" fill="none" style="stroke:#FF6F00;stroke-width:2;"/><polygon fill="#FF6F00" points="758.42,188.64,758.4574,188.6993,760.0125,187.4726,761.7868,186.5933,763.4896,185.6008,764.9579,184.2364,766.751,183.3869,766.7459,183.3615,765.6135,183.4671,764.5065,183.7009,763.417,184.0236,762.2669,184.0395,761.2018,184.4853,761.3828,184.5211,760.776,183.3346,760.6978,182.2528,760.684,181.1837,760.295,180.0404,760.1034,178.9361,760.1258,178.94,759.7562,180.875,759.4887,182.8278,759.1719,184.7721,758.949,186.7326,758.42,188.64" style="stroke:#FF6F00;stroke-width:2;"/><text fill="#FFFFFF" font-family="'Roboto'" font-size="13" lengthAdjust="spacing" textLength="103.4668" x="793.25" y="163.0669">:targetOutcome</text></g><!--link Story to Persona--><g class="link" data-entity-1="ent0004" data-entity-2="ent0013" data-link-type="dependency" data-source-line="102" id="lnk28"><path d="M571.89,117.72 L571.9128,117.8106 L568.7053,118.3313 L565.6315,119.3831 L562.5141,120.2619 L559.2536,120.572 L556.1912,121.6694 L556.1789,121.6371 L552.945,122.7044 L549.773,123.9344 L546.6442,125.2774 L543.3668,126.2308 L540.2975,127.73 L540.4217,127.9424 L537.2046,129.2133 L534.3501,131.1044 L531.5399,133.0711 L528.4723,134.5976 L525.54,136.3556 L525.5609,136.3776 L523.0722,138.6742 L520.6786,141.071 L518.2391,143.4194 L515.887,145.8601 L513.25,148 L513.5174,148.1321 L511.825,151.5647 L509.9602,154.9119 L508.3478,158.384 L506.7472,161.8619 L504.7718,165.1545 L504.4517,165.1372 L504.8817,168.7052 L504.2579,172.2161 L504.4352,175.7705 L503.7875,179.2802 L503.816,182.8264" fill="none" style="stroke:#FF6F00;stroke-width:2;"/><polygon fill="#FF6F00" points="504.26,188.81,504.326,188.8336,504.7946,186.9091,505.6499,185.1232,506.3793,183.2922,506.6946,181.3127,507.5831,179.5387,507.5635,179.5218,506.7368,180.3029,506.009,181.1692,505.3501,182.0949,504.4541,182.8163,503.89,183.8237,504.0105,183.9635,502.8959,182.9259,502.133,182.2965,501.413,181.7169,500.4434,180.8476,499.605,180.1306,499.6251,180.1414,500.5266,181.8615,501.5195,183.6305,502.4683,185.3759,503.5011,187.1664,504.26,188.81" style="stroke:#FF6F00;stroke-width:2;"/><text fill="#FFFFFF" font-family="'Roboto'" font-size="13" lengthAdjust="spacing" textLength="64.7651" x="516.25" y="163.0669">:playedBy</text></g><!--link Story to Outcome--><g class="link" data-entity-1="ent0004" data-entity-2="ent0006" data-link-type="dependency" data-source-line="103" id="lnk29"><path d="M618.66,128.19 L618.7274,128.2547 L620.4232,130.0387 L622.5142,132.2018 L624.4765,134.2415 L626.0156,135.8752 L628.1405,138.0709 L628.1166,138.046 L630.2662,140.0897 L632.536,142.2593 L634.8895,144.5165 L636.9548,146.472 L639.4237,148.85 L639.583,149.0376 L641.7523,150.7667 L644.3864,153.0436 L647.0773,155.3873 L649.4382,157.3422 L651.9727,159.5016 L651.9903,159.5262 L654.6199,161.3897 L657.3298,163.3655 L660.0009,165.2871 L662.746,167.312 L665.25,169 L665.3993,169.2582 L668.7382,171.1917 L671.9808,172.9588 L675.3644,174.9696 L678.7546,176.9918 L681.9354,178.6521 L681.8056,178.359 L685.558,180.4773 L688.8832,181.6304 L692.5331,183.5173 L695.8486,184.6486 L699.4382,186.3992" fill="none" style="stroke:#FF6F00;stroke-width:2;"/><polygon fill="#FF6F00" points="705.02,188.6,705.07,188.6491,703.5404,187.0987,702.3037,185.8362,700.9717,184.48,699.326,182.8153,698.1145,181.5776,698.0907,181.5673,698.4349,182.5586,698.8989,183.602,699.4461,184.6816,699.7063,185.6365,700.3685,186.766,700.442,186.9353,699.2471,187.0241,698.2669,187.6071,697.3128,188.2505,696.2064,188.543,695.1801,189.02,695.1811,189.0427,697.1476,188.9254,699.1186,188.9115,701.0874,188.8476,703.0603,188.8791,705.02,188.6" style="stroke:#FF6F00;stroke-width:2;"/><text fill="#FFFFFF" font-family="'Roboto'" font-size="13" lengthAdjust="spacing" textLength="94.0278" x="668.25" y="163.0669">:contributesTo</text></g><!--link Story to StoryConceptRelationship--><g class="link" data-entity-1="ent0004" data-entity-2="ent0014" data-link-type="dependency" data-source-line="104" id="lnk30"><path d="M571.75,119.49 L571.7951,119.7666 L561.8996,120.5378 L552.2687,122.9303 L542.5516,124.7949 L532.5512,124.9231 L522.9263,127.3526 L513.09,128.4866 L503.3378,130.1361 L493.6588,132.2338 L493.6437,132.1441 L484.2564,132.8785 L475.2819,136.0694 L465.7707,136.0665 L456.6167,138.1891 L447.4108,140.003 L447.5091,140.5704 L438.1591,141.4897 L428.962,143.2914 L419.707,144.7592 L410.5228,146.6351 L401.25,148 L401.3064,148.3138 L392.0083,150.4535 L382.6487,152.2504 L373.2709,153.9461 L363.7911,155.0737 L354.4606,157.0328 L344.9716,158.1093 L345.1414,159.0301 L335.5138,158.8756 L326.5689,162.4228 L317.0497,162.8562 L307.9671,165.6568 L298.4349,166.0196 L289.2712,168.3806 L289.2543,168.2909 L278.8853,171.3395 L268.122,172.291 L257.5914,174.48 L247.0803,176.7729 L236.4283,178.3163 L236.5323,178.8614 L226.8861,180.1316 L217.4177,182.3334 L207.6617,183.028 L198.3346,185.9707 L188.7224,187.4187" fill="none" style="stroke:#FF6F00;stroke-width:2;"/><polygon fill="#FF6F00" points="182.83,188.55,182.8459,188.6182,184.7173,188.8618,186.6817,189.5053,188.6158,190.0186,190.4503,190.1035,192.4228,190.7813,192.4082,190.7599,191.4065,190.0289,190.4781,189.4059,189.6006,188.8581,188.5475,188.0513,187.7403,187.6073,187.8931,187.7108,188.2012,186.5529,188.9554,185.6973,189.7639,184.8786,190.2559,183.8453,190.9144,182.9248,190.9274,182.9435,189.2914,184.0411,187.7146,185.2237,186.1093,186.3654,184.5584,187.5852,182.83,188.55" style="stroke:#FF6F00;stroke-width:2;"/><text fill="#FFFFFF" font-family="'Roboto'" font-size="13" lengthAdjust="spacing" textLength="91.0063" x="404.25" y="163.0669">:storyConcept</text><text fill="#FFFFFF" font-family="'Roboto'" font-size="13" lengthAdjust="spacing" textLength="23.0356" x="539.1028" y="114.0878">0..*</text><text fill="#FFFFFF" font-family="'Roboto'" font-size="13" lengthAdjust="spacing" textLength="8.271" x="193.8753" y="175.9963">1</text></g><!--link StoryConceptRelationship to Concept--><g class="link" data-entity-1="ent0014" data-entity-2="ent0009" data-link-type="dependency" data-source-line="105" id="lnk31"><path d="M102.5,219.19 L102.5903,219.2139 L101.8122,221.0699 L101.5634,223.0659 L101.1423,225.0163 L100.1542,226.8168 L99.9509,228.8248 L99.9167,228.8205 L99.4957,230.9229 L99.2475,233.0471 L99.1193,235.1864 L98.5773,237.2736 L98.615,239.4338 L98.8604,239.452 L98.4945,241.5509 L98.845,243.7031 L99.2829,245.8617 L99.2122,247.9826 L99.4091,250.1233 L99.4373,250.1343 L100.164,252.0935 L101.0194,254.1027 L101.8127,256.0878 L102.7244,258.119 L103.25,260 L103.4895,260.1778 L105.0394,262.2639 L106.4348,264.2354 L108.0564,266.3748 L109.6885,268.522 L110.9849,270.4199 L110.8015,270.1571 L113.2775,272.1467 L115.1494,273.2708 L117.4806,275.0529 L119.3389,276.1575 L121.5848,277.8174" fill="none" style="stroke:#FF6F00;stroke-width:2;"/><polygon fill="#FF6F00" points="126.89,280.62,126.9451,280.6633,125.5636,278.9865,124.5049,277.5635,123.3411,276.0579,121.8316,274.2804,120.8006,272.8792,120.7759,272.8716,120.9985,273.9184,121.3458,275.0036,121.7799,276.1157,121.9151,277.1354,122.469,278.2845,122.5234,278.4608,121.326,278.4174,120.2875,278.8888,119.2683,279.4231,118.1364,279.5918,117.0638,279.9528,117.0653,279.9755,119.0283,280.0756,120.9983,280.2791,122.9649,280.4327,124.938,280.6813,126.89,280.62" style="stroke:#FF6F00;stroke-width:2;"/><text fill="#FFFFFF" font-family="'Roboto'" font-size="13" lengthAdjust="spacing" textLength="56.2148" x="106.25" y="254.0669">:concept</text></g><!--link WorkflowDefinition to Story--><g class="link" data-entity-1="ent0005" data-entity-2="ent0004" data-link-type="dependency" data-source-line="106" id="lnk32"><path d="M774.5,37.5 L774.6135,37.7562 L764.9875,41.1078 L756.0266,45.9614 L746.8492,50.3259 L736.9595,53.0818 L728.0138,57.9697 L718.5367,61.6573 L709.271,65.8226 L700.1524,70.32 L690.5271,73.6731 L681.9103,79.3038 L671.9824,81.9733 L662.927,86.6135 L653.9781,91.4941 L644.4561,95.0804" fill="none" style="stroke:#FF6F00;stroke-width:2;"/><polygon fill="#FF6F00" points="638.97,97.51,638.9701,97.5801,640.9396,97.3745,642.9096,97.5796,644.8795,97.651,646.8488,97.2826,648.8188,97.523,648.8095,97.4988,647.7122,96.9828,646.662,96.5887,645.6444,96.2792,644.5141,95.6779,643.5417,95.4853,643.7139,95.5518,643.7533,94.3542,644.2953,93.3507,644.8986,92.3709,645.1452,91.2533,645.5794,90.2082,645.5962,90.2235,644.2496,91.6614,642.9797,93.1689,641.6728,94.6428,640.4366,96.1807,638.97,97.51" style="stroke:#FF6F00;stroke-width:2;"/><text fill="#FFFFFF" font-family="'Roboto'" font-size="13" lengthAdjust="spacing" textLength="34.8931" x="727.25" y="72.0669">steps</text></g><!--link Persona to PersonaTaxonomy--><g class="link" data-entity-1="ent0013" data-entity-2="ent0015" data-link-type="dependency" data-source-line="109" id="lnk33"><path d="M492.52,219.4 L492.5967,219.4534 L491.0791,221.1468 L490.011,223.1531 L488.7965,225.0575 L487.1008,226.6268 L486.0712,228.66 L486.0399,228.6454 L484.9352,230.6479 L483.9883,232.724 L483.151,234.8512 L481.9358,236.8021 L481.25,239 L481.4952,239.0205 L480.6555,242.7492 L480.5317,246.5377 L480.4952,250.3336 L479.9505,254.0869 L479.6731,257.8626 L479.7015,257.8735 L480.948,261.2221 L482.3235,264.6201 L483.6368,267.9942 L485.0688,271.4138 L486.1138,274.6853" fill="none" style="stroke:#FF6F00;stroke-width:2;"/><polygon fill="#FF6F00" points="489.01,279.94,489.0798,279.946,488.7042,277.9656,488.7377,276.0204,488.638,274.0637,488.1001,272.0694,488.1688,270.1271,488.1439,270.1199,487.7178,271.1744,487.4171,272.2652,487.2036,273.3812,486.6896,274.4102,486.5965,275.5611,486.6478,275.7384,485.4513,275.0448,484.4046,274.8688,483.3761,274.756,482.2414,274.2758,481.1625,273.9888,481.1763,274.0069,482.7256,275.1705,484.3375,276.4167,485.9192,277.623,487.5585,278.9053,489.01,279.94" style="stroke:#FF6F00;stroke-width:2;"/><text fill="#FFFFFF" font-family="'Roboto'" font-size="13" lengthAdjust="spacing" textLength="97.5571" x="484.25" y="254.0669">skos:inScheme</text></g><!--SRC=[hLPTRzis57tNhs2TXwK5tCJhnuCn3B2TD1lIHO7bh1YAeg2bQukGn2kGL3stst_V9ILPbAsqtJ2_c3WyzznFadg2fH4eMSfbibF2693Cg0g29mbiX0Gsl_dus-pNku-By6suPEvtzlBorMJzogT4rulmxcgs_AFX3L3kPulRsStrGUY44YwlhfU-7tQssRpUN5uUA6_2krMFu2ZsTw3CbilmNP_JgWGw4xBaYXTipUDigx2IoG9pL9GnbvgsG9eW-84ji2XvR5ZEzrWPfi4O8RVQ4xZdIK8G-z73bhMUag3OQm-FKfxWph8tFDVWxVooBq7bGcOFCd4Bg6i_mAZZR5Ff21Hufg5aBtrGOW8MVD5B-WeslCeD-nAyGMdkU05ijCGr6Xmvf7RHrTY1aVWCRF8Y-DjNcYc5EzAfBRoIUpfjOvo8sUT0KQc2vy4g5N4cGMigNayrpZc1NuBvKNDw4nZCKL6jcXrlP9eDNtqmgPanIgmh0yExDhFJj1pyQE0qAndVGbFO4yt_c4_FXJRSm3Thy_yb_2-g71ckZdf-tORN0hrS8flBWDKHuqGaC5WoWumcrc314g4WjdTNa8e4M0756fGEWdgCHWyQ5bp3Y77DcZLx__uYHXb3QIug3UEOi8ipgWgvsUu_V3WoZGmeG4Cdq1Vfq9OU6LHxHt4htuksm92BTwYoJOwxAtjh2Pk54pY5VRLTipia65OcngAEj5dxfbX3Nx5SGiwjGvsAqbVnyTPaKQl-ZZ5VLpbliZz1Z-W-oO-j_H-8RGMgS6PsuTjG4ueXWtcbXPtBWw4FTAfnAaNCSq_UGrhQFOqJIku8pTeFeQoXeIZS73IPdjJriSqZjol-9qeizhxx5hDlbAk8BY4MF1UVQvN0WJ_zDHxty-xWVg8a4vgKdYi56YiLWsOb2cdiAMlFp3cDkZLWjpUie7Sbjm-PjXVwqw2Uzz7by-VFHcmy_fcD9gE3uPHDgteP38prjurEnkaxR0PczZkiZghhB2PVjQ32lKLR5DpHQ-_SN30Q3CE5BEn7H3lcrluPrNqqSK6uHf2E7T-EqtVdTyvoSxw6kbq35I4-MlawnrPnodI6UYfa5ATGGDVd3FRKwwuuEcYJ6ywvk-n8avAtD-PKTpVWKBsjH7i3sLIvse9f01l9WxPlvNagjkauXq-GjtDa3TjpHeObVNr1CjzxkvwiBNRzhEaL3W_YOmVDccjlBtYKQ9MwcawRapyqpfPP1q6rDq25fKoRP3IZ1YAT6ZfL_FWei_FeDenO8ysqQzZJTYJzcXmiZhhx3m00]--></g></svg>