<svg xmlns="http://www.w3.org/2000/svg" xmlns:xlink="http://www.w3.org/1999/xlink" contentStyleType="text/css" data-diagram-type="CLASS" height="479px" preserveAspectRatio="none" style="width:595px;height:479px;" version="1.1" viewBox="0 0 595 479" width="595px" zoomAndPan="magnify"><defs/><g><!--class Story--><g class="entity" data-qualified-name="Story" data-source-line="62" id="ent0002"><a href="/concept/story/#ontology" target="_top" title="/concept/story/#ontology" xlink:actuate="onRequest" xlink:href="/concept/story/#ontology" xlink:show="new" xlink:title="/concept/story/#ontology" xlink:type="simple"><polygon fill="#4051B5" points="198.88,98,198.88,98.2102,209.2701,97.5857,219.6603,98.1933,230.0504,98.3997,240.4405,97.2866,250.8307,97.9223,261.2208,98,261.1664,97.8687,261.5962,98.0576,262.0607,98.3305,262.4054,98.3143,262.9885,98.8734,263.3421,98.8787,263.148,98.7983,263.457,99.2777,263.8266,99.7823,263.8429,100.1405,264.0661,100.5844,264.2208,101,264.2102,101,264.2803,105.8,264.3005,110.6,264.4161,115.4,264.4445,120.2,264.2208,125,264.43,125.0866,264.1235,125.4567,264.0121,125.9077,263.9099,126.3624,263.2958,126.6051,263.3421,127.1213,263.4287,127.3303,262.8801,127.2057,262.5617,127.6372,262.0062,127.4961,261.6363,127.8032,261.2208,128,261.2208,128.7416,250.8307,127.9513,240.4405,128.1053,230.0504,128.3386,219.6603,128.4162,209.2701,127.9961,198.88,128,198.9166,128.0885,198.3827,127.648,198.0677,127.7361,197.6771,127.6416,197.2396,127.434,196.7587,127.1213,196.9475,127.1995,196.4342,126.6354,196.2064,126.1896,196.0401,125.7693,196.0376,125.4168,195.88,125,195.8145,125,196.1071,120.2,195.8218,115.4,195.7656,110.6,195.9561,105.8,195.88,101,195.6746,100.9149,195.8959,100.5095,196.4313,100.2343,196.5414,99.7828,196.8091,99.3966,196.7587,98.8787,196.7176,98.7796,197.2237,98.8012,197.6825,98.709,197.9712,98.206,198.4435,98.1462,198.88,98" style="stroke:#FF6F00;stroke-width:2;"/><polygon fill="#ADD1B2" points="219.9352,115.4324,218.4694,117.4353,216.7356,120.3688,214.256,122.3458,211.6503,123.4269,209.5727,123.5207,206.9024,122.1687,204.3829,121.2854,202.4705,119.492,201.4673,117.4389,200.8724,115.8041,200.2896,113.6688,199.3436,111.8313,200.0706,110.0373,200.7075,108.072,203.0975,106.5177,204.7791,104.501,206.8604,103.8313,209.3347,103.2546,212.5076,103.5972,214.2455,104.4168,216.2661,104.7884,218.7229,107.3054,219.5793,109.9627,219.9514,111.7758,219.53,114.7635" style="stroke:#181818;stroke-width:1;"/><path d="M211.7394,117.2344 Q211.3019,117.4531 210.8019,117.5625 Q210.3175,117.6875 209.7863,117.6875 Q207.8644,117.6875 206.8488,116.4219 Q205.8488,115.1563 205.8488,112.7656 Q205.8488,110.375 206.8488,109.1094 Q207.8644,107.8438 209.7863,107.8438 Q210.3175,107.8438 210.8175,107.9688 Q211.3175,108.0781 211.7394,108.3125 L211.7394,110.3906 Q211.255,109.9531 210.8019,109.75 Q210.3488,109.5313 209.8644,109.5313 Q208.8488,109.5313 208.3175,110.3594 Q207.7863,111.1719 207.7863,112.7656 Q207.7863,114.375 208.3175,115.1875 Q208.8488,116 209.8644,116 Q210.3488,116 210.8019,115.7969 Q211.255,115.5938 211.7394,115.1406 L211.7394,117.2344 Z " fill="#FFFFFF"/><text fill="#FFFFFF" font-family="'Roboto'" font-size="13" lengthAdjust="spacing" textLength="34.3408" x="224.88" y="117.5005">Story</text></a></g><!--class UseCase--><g class="entity" data-qualified-name="UseCase" data-source-line="63" id="ent0003"><a href="/concept/use-case/#ontology" target="_top" title="/concept/use-case/#ontology" xlink:actuate="onRequest" xlink:href="/concept/use-case/#ontology" xlink:show="new" xlink:title="/concept/use-case/#ontology" xlink:type="simple"><polygon fill="#4051B5" points="10,189,10,189.2102,20.5126,188.5857,31.0251,189.1933,41.5377,189.3997,52.0503,188.2866,62.5629,188.9223,73.0754,188.5735,83.588,188.6165,94.1006,189,94.0919,188.979,94.4367,188.9628,95.0197,189.522,95.293,189.3331,95.7724,189.642,96.2219,189.8787,96.3549,189.9338,96.3712,190.292,96.5944,190.7359,96.7393,191.1474,96.9798,191.5985,97.1006,192,97.1803,192,97.2958,196.8,97.3243,201.6,97.327,206.4,97.1855,211.2,97.1006,216,97.2434,216.0591,97.1411,216.5138,96.527,216.7565,96.7823,217.3593,96.3063,217.6592,96.2219,218.1213,96.29,218.2857,95.7345,218.1446,95.3646,218.4517,95.0437,218.8769,94.5186,218.8093,94.1006,219,94.1006,219.1053,83.588,219.3386,73.0754,219.4162,62.5629,218.9961,52.0503,219.2872,41.5377,218.4276,31.0251,219.2844,20.5126,219.5482,10,219,10.0567,219.1369,9.6539,219.0131,9.0898,218.4998,8.644,218.2719,8.2237,218.1057,7.8787,218.1213,7.8605,218.1138,7.6424,217.672,7.7371,217.3597,7.2977,216.8262,7.0701,216.3805,7,216,7.0761,216,6.7777,211.2,6.827,206.4,7.2163,201.6,7.1452,196.8,7,192,7.2262,192.0937,7.0766,191.5347,7.4498,191.1922,7.709,190.8025,7.5575,190.2427,7.8787,189.8787,7.8665,189.8492,8.319,189.7417,8.8103,189.7279,9.1509,189.3502,9.6347,189.3182,10,189" style="stroke:#FF6F00;stroke-width:2;"/><polygon fill="#ADD1B2" points="31.0552,206.4324,29.5894,208.4353,27.8556,211.3688,25.376,213.3458,22.7703,214.4269,20.6927,214.5207,18.0224,213.1687,15.5029,212.2854,13.5905,210.492,12.5873,208.4389,11.9924,206.8041,11.4096,204.6688,10.4636,202.8313,11.1906,201.0373,11.8275,199.072,14.2175,197.5177,15.8991,195.501,17.9804,194.8313,20.4547,194.2546,23.6276,194.5972,25.3655,195.4168,27.3861,195.7884,29.8429,198.3054,30.6993,200.9627,31.0714,202.7758,30.65,205.7635" style="stroke:#181818;stroke-width:1;"/><path d="M22.8594,208.2344 Q22.4219,208.4531 21.9219,208.5625 Q21.4375,208.6875 20.9063,208.6875 Q18.9844,208.6875 17.9688,207.4219 Q16.9688,206.1563 16.9688,203.7656 Q16.9688,201.375 17.9688,200.1094 Q18.9844,198.8438 20.9063,198.8438 Q21.4375,198.8438 21.9375,198.9688 Q22.4375,199.0781 22.8594,199.3125 L22.8594,201.3906 Q22.375,200.9531 21.9219,200.75 Q21.4688,200.5313 20.9844,200.5313 Q19.9688,200.5313 19.4375,201.3594 Q18.9063,202.1719 18.9063,203.7656 Q18.9063,205.375 19.4375,206.1875 Q19.9688,207 20.9844,207 Q21.4688,207 21.9219,206.7969 Q22.375,206.5938 22.8594,206.1406 L22.8594,208.2344 Z " fill="#FFFFFF"/><text fill="#FFFFFF" font-family="'Roboto'" font-size="13" lengthAdjust="spacing" textLength="56.1006" x="36" y="208.5005">UseCase</text></a></g><!--class Persona--><g class="entity" data-qualified-name="Persona" data-source-line="64" id="ent0004"><a href="/concept/persona/#ontology" target="_top" title="/concept/persona/#ontology" xlink:actuate="onRequest" xlink:href="/concept/persona/#ontology" xlink:show="new" xlink:title="/concept/persona/#ontology" xlink:type="simple"><polygon fill="#4051B5" points="129.99,189,129.99,189.2102,140.0043,188.5857,150.0186,189.1933,160.0328,189.3997,170.0471,188.2866,180.0614,188.9223,190.0757,188.5735,200.09,188.6165,210.1043,189,210.0956,188.979,210.4403,188.9628,211.0234,189.522,211.2967,189.3331,211.7761,189.642,212.2256,189.8787,212.3586,189.9338,212.3749,190.292,212.5981,190.7359,212.7429,191.1474,212.9835,191.5985,213.1043,192,213.184,192,213.2995,196.8,213.3279,201.6,213.3307,206.4,213.1891,211.2,213.1043,216,213.247,216.0591,213.1448,216.5138,212.5307,216.7565,212.786,217.3593,212.31,217.6592,212.2256,218.1213,212.2937,218.2857,211.7382,218.1446,211.3683,218.4517,211.0474,218.8769,210.5223,218.8093,210.1043,219,210.1043,219.1053,200.09,219.3386,190.0757,219.4162,180.0614,218.9961,170.0471,219.2872,160.0328,218.4276,150.0186,219.2844,140.0043,219.5482,129.99,219,130.0467,219.1369,129.6439,219.0131,129.0798,218.4998,128.634,218.2719,128.2137,218.1057,127.8687,218.1213,127.8505,218.1138,127.6324,217.672,127.7271,217.3597,127.2877,216.8262,127.0601,216.3805,126.99,216,127.0661,216,126.7677,211.2,126.817,206.4,127.2063,201.6,127.1352,196.8,126.99,192,127.2162,192.0937,127.0666,191.5347,127.4398,191.1922,127.699,190.8025,127.5475,190.2427,127.8687,189.8787,127.8565,189.8492,128.309,189.7417,128.8003,189.7279,129.1409,189.3502,129.6247,189.3182,129.99,189" style="stroke:#FF6F00;stroke-width:2;"/><polygon fill="#ADD1B2" points="151.0452,206.4324,149.5794,208.4353,147.8456,211.3688,145.366,213.3458,142.7603,214.4269,140.6827,214.5207,138.0124,213.1687,135.4929,212.2854,133.5805,210.492,132.5773,208.4389,131.9824,206.8041,131.3996,204.6688,130.4536,202.8313,131.1806,201.0373,131.8175,199.072,134.2075,197.5177,135.8891,195.501,137.9704,194.8313,140.4447,194.2546,143.6176,194.5972,145.3555,195.4168,147.3761,195.7884,149.8329,198.3054,150.6893,200.9627,151.0614,202.7758,150.64,205.7635" style="stroke:#181818;stroke-width:1;"/><path d="M142.8494,208.2344 Q142.4119,208.4531 141.9119,208.5625 Q141.4275,208.6875 140.8963,208.6875 Q138.9744,208.6875 137.9588,207.4219 Q136.9588,206.1563 136.9588,203.7656 Q136.9588,201.375 137.9588,200.1094 Q138.9744,198.8438 140.8963,198.8438 Q141.4275,198.8438 141.9275,198.9688 Q142.4275,199.0781 142.8494,199.3125 L142.8494,201.3906 Q142.365,200.9531 141.9119,200.75 Q141.4588,200.5313 140.9744,200.5313 Q139.9588,200.5313 139.4275,201.3594 Q138.8963,202.1719 138.8963,203.7656 Q138.8963,205.375 139.4275,206.1875 Q139.9588,207 140.9744,207 Q141.4588,207 141.9119,206.7969 Q142.365,206.5938 142.8494,206.1406 L142.8494,208.2344 Z " fill="#FFFFFF"/><text fill="#FFFFFF" font-family="'Roboto'" font-size="13" lengthAdjust="spacing" textLength="52.1143" x="155.99" y="208.5005">Persona</text></a></g><!--class Outcome--><g class="entity" data-qualified-name="Outcome" data-source-line="65" id="ent0005"><a href="/concept/outcome/#ontology" target="_top" title="/concept/outcome/#ontology" xlink:actuate="onRequest" xlink:href="/concept/outcome/#ontology" xlink:show="new" xlink:title="/concept/outcome/#ontology" xlink:type="simple"><polygon fill="#4051B5" points="246.38,189,246.38,189.2102,256.0835,188.5857,265.787,189.1933,275.4905,189.3997,285.194,188.2866,294.8975,188.9223,304.601,188.5735,314.3045,188.6165,324.008,188.9318,333.7115,189,333.6234,188.7871,334.2064,189.3462,334.4797,189.1574,334.9591,189.4663,335.4637,189.836,335.8329,189.8787,335.8064,189.8677,336.0296,190.3116,336.1745,190.7231,336.415,191.1742,336.6095,191.6062,336.7115,192,336.9068,192,336.9352,196.8,336.938,201.6,336.7964,206.4,336.8661,211.2,336.7115,216,336.9278,216.0896,336.3137,216.3323,336.569,216.9351,336.093,217.235,336.173,217.7651,335.8329,218.1213,335.7697,217.9689,335.3999,218.276,335.0789,218.7012,334.5539,218.6335,334.1492,218.8567,333.7115,219,333.7115,219.3386,324.008,219.4162,314.3045,218.9961,304.601,219.2872,294.8975,218.4276,285.194,219.2844,275.4905,219.5482,265.787,219.4445,256.0835,219.613,246.38,219,246.3184,218.8512,245.8725,218.6234,245.4522,218.4572,245.0997,218.4547,244.6579,218.2365,244.2587,218.1213,244.4685,218.2082,244.0292,217.6748,243.8016,217.229,243.8018,216.8776,243.3504,216.3392,243.38,216,243.207,216,243.5963,211.2,243.5252,206.4,243.6248,201.6,243.2727,196.8,243.38,192,243.4783,192.0407,243.7376,191.6511,243.586,191.0912,243.8777,190.715,244.1217,190.319,244.2587,189.8787,244.3418,190.0794,244.6824,189.7017,245.1662,189.6697,245.4608,189.1809,245.8693,188.9672,246.38,189" style="stroke:#FF6F00;stroke-width:2;"/><polygon fill="#ADD1B2" points="267.4352,206.4324,265.9694,208.4353,264.2356,211.3688,261.756,213.3458,259.1503,214.4269,257.0727,214.5207,254.4024,213.1687,251.8829,212.2854,249.9705,210.492,248.9673,208.4389,248.3724,206.8041,247.7896,204.6688,246.8436,202.8313,247.5706,201.0373,248.2075,199.072,250.5975,197.5177,252.2791,195.501,254.3604,194.8313,256.8347,194.2546,260.0076,194.5972,261.7455,195.4168,263.7661,195.7884,266.2229,198.3054,267.0793,200.9627,267.4514,202.7758,267.03,205.7635" style="stroke:#181818;stroke-width:1;"/><path d="M259.2394,208.2344 Q258.8019,208.4531 258.3019,208.5625 Q257.8175,208.6875 257.2863,208.6875 Q255.3644,208.6875 254.3488,207.4219 Q253.3488,206.1563 253.3488,203.7656 Q253.3488,201.375 254.3488,200.1094 Q255.3644,198.8438 257.2863,198.8438 Q257.8175,198.8438 258.3175,198.9688 Q258.8175,199.0781 259.2394,199.3125 L259.2394,201.3906 Q258.755,200.9531 258.3019,200.75 Q257.8488,200.5313 257.3644,200.5313 Q256.3488,200.5313 255.8175,201.3594 Q255.2863,202.1719 255.2863,203.7656 Q255.2863,205.375 255.8175,206.1875 Q256.3488,207 257.3644,207 Q257.8488,207 258.3019,206.7969 Q258.755,206.5938 259.2394,206.1406 L259.2394,208.2344 Z " fill="#FFFFFF"/><text fill="#FFFFFF" font-family="'Roboto'" font-size="13" lengthAdjust="spacing" textLength="59.3315" x="272.38" y="208.5005">Outcome</text></a></g><!--class Concept--><g class="entity" data-qualified-name="Concept" data-source-line="66" id="ent0006"><a href="/concept/concept/#ontology" target="_top" title="/concept/concept/#ontology" xlink:actuate="onRequest" xlink:href="/concept/concept/#ontology" xlink:show="new" xlink:title="/concept/concept/#ontology" xlink:type="simple"><polygon fill="#4051B5" points="427.17,280,427.17,280.2102,437.3906,279.5857,447.6112,280.1933,457.8317,280.3997,468.0523,279.2866,478.2729,279.9223,488.4935,279.5735,498.7141,279.6165,508.9346,280,508.926,279.979,509.2707,279.9628,509.8538,280.522,510.127,280.3331,510.6065,280.642,511.056,280.8787,511.189,280.9338,511.2053,281.292,511.4285,281.7359,511.5733,282.1474,511.8139,282.5985,511.9346,283,512.0144,283,512.1299,287.8,512.1583,292.6,512.1611,297.4,512.0195,302.2,511.9346,307,512.0774,307.0591,511.9752,307.5138,511.3611,307.7565,511.6164,308.3593,511.1404,308.6592,511.056,309.1213,511.1241,309.2857,510.5686,309.1446,510.1987,309.4517,509.8778,309.8769,509.3527,309.8093,508.9346,310,508.9346,310.1053,498.7141,310.3386,488.4935,310.4162,478.2729,309.9961,468.0523,310.2872,457.8317,309.4276,447.6112,310.2844,437.3906,310.5482,427.17,310,427.2267,310.1369,426.8239,310.0131,426.2598,309.4998,425.814,309.2719,425.3937,309.1057,425.0487,309.1213,425.0305,309.1138,424.8124,308.672,424.9071,308.3597,424.4677,307.8262,424.2401,307.3805,424.17,307,424.2461,307,423.9477,302.2,423.997,297.4,424.3863,292.6,424.3152,287.8,424.17,283,424.3962,283.0937,424.2466,282.5347,424.6198,282.1922,424.879,281.8025,424.7275,281.2427,425.0487,280.8787,425.0365,280.8492,425.489,280.7417,425.9803,280.7279,426.3209,280.3502,426.8047,280.3182,427.17,280" style="stroke:#FF6F00;stroke-width:2;"/><polygon fill="#ADD1B2" points="448.2252,297.4324,446.7594,299.4353,445.0256,302.3688,442.546,304.3458,439.9403,305.4269,437.8627,305.5207,435.1924,304.1687,432.6729,303.2854,430.7605,301.492,429.7573,299.4389,429.1624,297.8041,428.5796,295.6688,427.6336,293.8313,428.3606,292.0373,428.9975,290.072,431.3875,288.5177,433.0691,286.501,435.1504,285.8313,437.6247,285.2546,440.7976,285.5972,442.5355,286.4168,444.5561,286.7884,447.0129,289.3054,447.8693,291.9627,448.2414,293.7758,447.82,296.7635" style="stroke:#181818;stroke-width:1;"/><path d="M440.0294,299.2344 Q439.5919,299.4531 439.0919,299.5625 Q438.6075,299.6875 438.0763,299.6875 Q436.1544,299.6875 435.1388,298.4219 Q434.1388,297.1563 434.1388,294.7656 Q434.1388,292.375 435.1388,291.1094 Q436.1544,289.8438 438.0763,289.8438 Q438.6075,289.8438 439.1075,289.9688 Q439.6075,290.0781 440.0294,290.3125 L440.0294,292.3906 Q439.545,291.9531 439.0919,291.75 Q438.6388,291.5313 438.1544,291.5313 Q437.1388,291.5313 436.6075,292.3594 Q436.0763,293.1719 436.0763,294.7656 Q436.0763,296.375 436.6075,297.1875 Q437.1388,298 438.1544,298 Q438.6388,298 439.0919,297.7969 Q439.545,297.5938 440.0294,297.1406 L440.0294,299.2344 Z " fill="#FFFFFF"/><text fill="#FFFFFF" font-family="'Roboto'" font-size="13" lengthAdjust="spacing" textLength="53.7646" x="453.17" y="299.5005">Concept</text></a></g><!--class Term--><g class="entity" data-qualified-name="Term" data-source-line="67" id="ent0007"><a href="/concept/term/#ontology" target="_top" title="/concept/term/#ontology" xlink:actuate="onRequest" xlink:href="/concept/term/#ontology" xlink:show="new" xlink:title="/concept/term/#ontology" xlink:type="simple"><polygon fill="#4051B5" points="390.08,371,390.08,371.2102,400.4045,370.5857,410.7291,371.1933,421.0536,371.3997,431.3782,370.2866,441.7027,370.9223,452.0273,371,451.9729,370.8687,452.4026,371.0576,452.8671,371.3305,453.2119,371.3143,453.7949,371.8734,454.1486,371.8787,453.9545,371.7983,454.2634,372.2777,454.6331,372.7823,454.6494,373.1405,454.8725,373.5844,455.0273,374,455.0166,374,455.0868,378.8,455.107,383.6,455.2225,388.4,455.251,393.2,455.0273,398,455.2364,398.0866,454.9299,398.4567,454.8186,398.9077,454.7163,399.3624,454.1022,399.6051,454.1486,400.1213,454.2351,400.3303,453.6865,400.2057,453.3682,400.6372,452.8126,400.4961,452.4428,400.8032,452.0273,401,452.0273,401.7416,441.7027,400.9513,431.3782,401.1053,421.0536,401.3386,410.7291,401.4162,400.4045,400.9961,390.08,401,390.1166,401.0885,389.5827,400.648,389.2677,400.7361,388.8771,400.6416,388.4396,400.434,387.9587,400.1213,388.1475,400.1995,387.6342,399.6354,387.4064,399.1896,387.2401,398.7693,387.2376,398.4168,387.08,398,387.0145,398,387.3071,393.2,387.0218,388.4,386.9656,383.6,387.1561,378.8,387.08,374,386.8746,373.9149,387.0959,373.5095,387.6313,373.2343,387.7414,372.7828,388.0091,372.3966,387.9587,371.8787,387.9176,371.7796,388.4237,371.8012,388.8825,371.709,389.1712,371.206,389.6435,371.1462,390.08,371" style="stroke:#FF6F00;stroke-width:2;"/><polygon fill="#ADD1B2" points="411.1352,388.4324,409.6694,390.4353,407.9356,393.3688,405.456,395.3458,402.8503,396.4269,400.7727,396.5207,398.1024,395.1687,395.5829,394.2854,393.6705,392.492,392.6673,390.4389,392.0724,388.8041,391.4896,386.6688,390.5436,384.8313,391.2706,383.0373,391.9075,381.072,394.2975,379.5177,395.9791,377.501,398.0604,376.8313,400.5347,376.2546,403.7076,376.5972,405.4455,377.4168,407.4661,377.7884,409.9229,380.3054,410.7793,382.9627,411.1514,384.7758,410.73,387.7635" style="stroke:#181818;stroke-width:1;"/><path d="M402.9394,390.2344 Q402.5019,390.4531 402.0019,390.5625 Q401.5175,390.6875 400.9863,390.6875 Q399.0644,390.6875 398.0488,389.4219 Q397.0488,388.1563 397.0488,385.7656 Q397.0488,383.375 398.0488,382.1094 Q399.0644,380.8438 400.9863,380.8438 Q401.5175,380.8438 402.0175,380.9688 Q402.5175,381.0781 402.9394,381.3125 L402.9394,383.3906 Q402.455,382.9531 402.0019,382.75 Q401.5488,382.5313 401.0644,382.5313 Q400.0488,382.5313 399.5175,383.3594 Q398.9863,384.1719 398.9863,385.7656 Q398.9863,387.375 399.5175,388.1875 Q400.0488,389 401.0644,389 Q401.5488,389 402.0019,388.7969 Q402.455,388.5938 402.9394,388.1406 L402.9394,390.2344 Z " fill="#FFFFFF"/><text fill="#FFFFFF" font-family="'Roboto'" font-size="13" lengthAdjust="spacing" textLength="33.9473" x="416.08" y="390.5005">Term</text></a></g><!--class BusinessTerm--><g class="entity" data-qualified-name="BusinessTerm" data-source-line="68" id="ent0008"><polygon fill="#4051B5" points="455.41,442,455.41,442.2102,465.3494,441.5857,475.2888,442.1933,485.2282,442.3997,495.1676,441.2866,505.1071,441.9223,515.0465,441.5735,524.9859,441.6165,534.9253,441.9318,544.8647,441.3086,554.8041,442.5536,564.7435,441.3697,574.6829,442,574.6577,441.9391,575.1623,442.3088,575.5205,442.3251,575.9644,442.5482,576.3759,442.6931,576.8043,442.8787,576.8592,442.9015,577.0536,443.3334,577.3361,443.8019,577.5381,444.2371,577.7164,444.6624,577.6829,445,577.7678,445,577.8375,449.8,577.917,454.6,577.4426,459.4,577.9091,464.2,577.6829,469,577.5916,468.9622,577.6716,469.4924,577.179,469.7854,577.1346,470.2641,577.2084,470.7917,576.8043,471.1213,576.7981,471.1063,576.3934,471.3295,575.9989,471.5771,575.5846,471.7767,575.1067,471.8231,574.6829,472,574.6829,472.2872,564.7435,471.4276,554.8041,472.2844,544.8647,472.5482,534.9253,472.4445,524.9859,472.613,515.0465,471.5169,505.1071,471.3478,495.1676,471.3786,485.2282,471.9411,475.2888,471.8035,465.3494,472.6814,455.41,472,455.3877,471.9462,454.942,471.7186,454.5906,471.7188,454.0521,471.2674,453.6467,471.1372,453.2887,471.1213,453.4885,471.2041,453.2471,470.7526,453.1634,470.3665,452.6624,469.8075,452.684,469.465,452.41,469,452.6068,469,452.2525,464.2,452.378,459.4,452.452,454.6,452.6273,449.8,452.41,445,452.4087,444.9995,452.7282,444.6347,452.5909,444.0808,452.7286,443.6408,453.268,443.3672,453.2887,442.8787,453.1972,442.6579,453.7779,442.8597,454.1636,442.5908,454.5273,442.269,454.9406,442.0668,455.41,442" style="stroke:#FF6F00;stroke-width:2;"/><polygon fill="#ADD1B2" points="476.4652,459.4324,474.9994,461.4353,473.2656,464.3688,470.786,466.3458,468.1803,467.4269,466.1027,467.5207,463.4324,466.1687,460.9129,465.2854,459.0005,463.492,457.9973,461.4389,457.4024,459.8041,456.8196,457.6688,455.8736,455.8313,456.6006,454.0373,457.2375,452.072,459.6275,450.5177,461.3091,448.501,463.3904,447.8313,465.8647,447.2546,469.0376,447.5972,470.7755,448.4168,472.7961,448.7884,475.2529,451.3054,476.1093,453.9627,476.4814,455.7758,476.06,458.7635" style="stroke:#181818;stroke-width:1;"/><path d="M468.2694,461.2344 Q467.8319,461.4531 467.3319,461.5625 Q466.8475,461.6875 466.3163,461.6875 Q464.3944,461.6875 463.3788,460.4219 Q462.3788,459.1563 462.3788,456.7656 Q462.3788,454.375 463.3788,453.1094 Q464.3944,451.8438 466.3163,451.8438 Q466.8475,451.8438 467.3475,451.9688 Q467.8475,452.0781 468.2694,452.3125 L468.2694,454.3906 Q467.785,453.9531 467.3319,453.75 Q466.8788,453.5313 466.3944,453.5313 Q465.3788,453.5313 464.8475,454.3594 Q464.3163,455.1719 464.3163,456.7656 Q464.3163,458.375 464.8475,459.1875 Q465.3788,460 466.3944,460 Q466.8788,460 467.3319,459.7969 Q467.785,459.5938 468.2694,459.1406 L468.2694,461.2344 Z " fill="#FFFFFF"/><text fill="#FFFFFF" font-family="'Roboto'" font-size="13" lengthAdjust="spacing" textLength="91.2729" x="481.41" y="461.5005">BusinessTerm</text></g><!--class TechnicalTerm--><g class="entity" data-qualified-name="TechnicalTerm" data-source-line="69" id="ent0009"><polygon fill="#4051B5" points="295.13,442,295.13,442.2102,305.4508,441.5857,315.7716,442.1933,326.0924,442.3997,336.4132,441.2866,346.734,441.9223,357.0548,441.5735,367.3756,441.6165,377.6964,441.9318,388.0172,441.3086,398.338,442.5536,408.6588,441.3697,418.9796,442,418.9544,441.9391,419.459,442.3088,419.8172,442.3251,420.2611,442.5482,420.6726,442.6931,421.1009,442.8787,421.1559,442.9015,421.3503,443.3334,421.6328,443.8019,421.8348,444.2371,422.0131,444.6624,421.9796,445,422.0645,445,422.1341,449.8,422.2137,454.6,421.7392,459.4,422.2058,464.2,421.9796,469,421.8883,468.9622,421.9683,469.4924,421.4757,469.7854,421.4313,470.2641,421.5051,470.7917,421.1009,471.1213,421.0947,471.1063,420.6901,471.3295,420.2956,471.5771,419.8812,471.7767,419.4034,471.8231,418.9796,472,418.9796,472.2872,408.6588,471.4276,398.338,472.2844,388.0172,472.5482,377.6964,472.4445,367.3756,472.613,357.0548,471.5169,346.734,471.3478,336.4132,471.3786,326.0924,471.9411,315.7716,471.8035,305.4508,472.6814,295.13,472,295.1077,471.9462,294.662,471.7186,294.3106,471.7188,293.7721,471.2674,293.3667,471.1372,293.0087,471.1213,293.2085,471.2041,292.9671,470.7526,292.8834,470.3665,292.3824,469.8075,292.404,469.465,292.13,469,292.3268,469,291.9725,464.2,292.098,459.4,292.172,454.6,292.3473,449.8,292.13,445,292.1287,444.9995,292.4482,444.6347,292.3109,444.0808,292.4486,443.6408,292.988,443.3672,293.0087,442.8787,292.9172,442.6579,293.4979,442.8597,293.8836,442.5908,294.2473,442.269,294.6606,442.0668,295.13,442" style="stroke:#FF6F00;stroke-width:2;"/><polygon fill="#ADD1B2" points="316.1852,459.4324,314.7194,461.4353,312.9856,464.3688,310.506,466.3458,307.9003,467.4269,305.8227,467.5207,303.1524,466.1687,300.6329,465.2854,298.7205,463.492,297.7173,461.4389,297.1224,459.8041,296.5396,457.6688,295.5936,455.8313,296.3206,454.0373,296.9575,452.072,299.3475,450.5177,301.0291,448.501,303.1104,447.8313,305.5847,447.2546,308.7576,447.5972,310.4955,448.4168,312.5161,448.7884,314.9729,451.3054,315.8293,453.9627,316.2014,455.7758,315.78,458.7635" style="stroke:#181818;stroke-width:1;"/><path d="M307.9894,461.2344 Q307.5519,461.4531 307.0519,461.5625 Q306.5675,461.6875 306.0363,461.6875 Q304.1144,461.6875 303.0988,460.4219 Q302.0988,459.1563 302.0988,456.7656 Q302.0988,454.375 303.0988,453.1094 Q304.1144,451.8438 306.0363,451.8438 Q306.5675,451.8438 307.0675,451.9688 Q307.5675,452.0781 307.9894,452.3125 L307.9894,454.3906 Q307.505,453.9531 307.0519,453.75 Q306.5988,453.5313 306.1144,453.5313 Q305.0988,453.5313 304.5675,454.3594 Q304.0363,455.1719 304.0363,456.7656 Q304.0363,458.375 304.5675,459.1875 Q305.0988,460 306.1144,460 Q306.5988,460 307.0519,459.7969 Q307.505,459.5938 307.9894,459.1406 L307.9894,461.2344 Z " fill="#FFFFFF"/><text fill="#FFFFFF" font-family="'Roboto'" font-size="13" lengthAdjust="spacing" textLength="95.8496" x="321.13" y="461.5005">TechnicalTerm</text></g><!--class WorkflowDefinition--><g class="entity" data-qualified-name="WorkflowDefinition" data-source-line="70" id="ent0010"><a href="/concept/workflow/#ontology" target="_top" title="/concept/workflow/#ontology" xlink:actuate="onRequest" xlink:href="/concept/workflow/#ontology" xlink:show="new" xlink:title="/concept/workflow/#ontology" xlink:type="simple"><polygon fill="#4051B5" points="154.35,7,154.35,7.2102,164.4437,6.5857,174.5373,7.1933,184.631,7.3997,194.7246,6.2866,204.8183,6.9223,214.9119,6.5735,225.0056,6.6165,235.0992,6.9318,245.1929,6.3086,255.2865,7.5536,265.3802,6.3697,275.4738,6.8022,285.5675,7.4319,295.6611,6.9142,305.7548,7,305.7635,7.021,306.175,7.1659,306.6261,7.4065,307.0581,7.6009,307.5266,7.8833,307.8761,7.8787,308.0828,7.9643,308.261,8.3896,308.306,8.7597,308.5461,9.2106,308.7953,9.6653,308.7548,10,308.5144,10,308.981,14.8,308.656,19.6,308.9327,24.4,308.5898,29.2,308.7548,34,308.7337,33.9913,308.8074,34.5189,308.3883,34.8423,308.26,35.2862,308.1561,35.7403,307.8761,36.1213,307.9292,36.2495,307.4513,36.2959,307.0642,36.5612,306.5303,36.4722,306.2153,36.9118,305.7548,37,305.7548,37.5482,295.6611,37.4445,285.5675,37.613,275.4738,36.5169,265.3802,36.3478,255.2865,36.3786,245.1929,36.9411,235.0992,36.8035,225.0056,37.6814,214.9119,36.8253,204.8183,36.6569,194.7246,37.2283,184.631,36.3332,174.5373,36.4809,164.4437,37.649,154.35,37,154.4056,37.1342,154.0194,37.0505,153.4604,36.5494,153.1179,36.5711,152.7283,36.4789,152.2287,36.1213,152.0832,36.0611,152.0234,35.6848,151.916,35.2889,151.9022,34.9317,151.5244,34.4237,151.35,34,151.5042,34,151.1654,29.2,151.1242,24.4,151.5179,19.6,151.111,14.8,151.35,10,151.5067,10.0649,151.5894,9.6021,151.619,9.1173,151.7683,8.6821,152.1942,8.3615,152.2287,7.8787,152.1905,7.7865,152.7284,7.8852,153.0067,7.357,153.5802,7.5416,153.9875,7.3249,154.35,7" style="stroke:#FF6F00;stroke-width:2;"/><polygon fill="#ADD1B2" points="175.4052,24.4324,173.9394,26.4353,172.2056,29.3688,169.726,31.3458,167.1203,32.4269,165.0427,32.5207,162.3724,31.1687,159.8529,30.2854,157.9405,28.492,156.9373,26.4389,156.3424,24.8041,155.7596,22.6688,154.8136,20.8313,155.5406,19.0373,156.1775,17.072,158.5675,15.5177,160.2491,13.501,162.3304,12.8313,164.8047,12.2546,167.9776,12.5972,169.7155,13.4168,171.7361,13.7884,174.1929,16.3054,175.0493,18.9627,175.4214,20.7758,175,23.7635" style="stroke:#181818;stroke-width:1;"/><path d="M167.2094,26.2344 Q166.7719,26.4531 166.2719,26.5625 Q165.7875,26.6875 165.2563,26.6875 Q163.3344,26.6875 162.3188,25.4219 Q161.3188,24.1563 161.3188,21.7656 Q161.3188,19.375 162.3188,18.1094 Q163.3344,16.8438 165.2563,16.8438 Q165.7875,16.8438 166.2875,16.9688 Q166.7875,17.0781 167.2094,17.3125 L167.2094,19.3906 Q166.725,18.9531 166.2719,18.75 Q165.8188,18.5313 165.3344,18.5313 Q164.3188,18.5313 163.7875,19.3594 Q163.2563,20.1719 163.2563,21.7656 Q163.2563,23.375 163.7875,24.1875 Q164.3188,25 165.3344,25 Q165.8188,25 166.2719,24.7969 Q166.725,24.5938 167.2094,24.1406 L167.2094,26.2344 Z " fill="#FFFFFF"/><text fill="#FFFFFF" font-family="'Roboto'" font-size="13" lengthAdjust="spacing" textLength="123.4048" x="180.35" y="26.5005">WorkflowDefinition</text></a></g><!--class StoryConceptRelationship--><g class="entity" data-qualified-name="StoryConceptRelationship" data-source-line="71" id="ent0011"><polygon fill="#4051B5" points="369.8,189,369.8,189.2102,379.6246,188.5857,389.4492,189.1933,399.2738,189.3997,409.0984,188.2866,418.923,188.9223,428.7477,188.5735,438.5723,188.6165,448.3969,188.9318,458.2215,188.3086,468.0461,189.5536,477.8707,188.3697,487.6953,188.8022,497.5199,189.4319,507.3445,188.9142,517.1691,189.0682,526.9938,188.9681,536.8184,189.1785,546.643,189.2391,556.4676,189.5857,566.2922,189,566.3778,189.2067,566.8031,189.3849,567.1732,189.4299,567.6241,189.67,568.0788,189.9192,568.4135,189.8787,568.1914,189.7867,568.7982,190.3895,568.6737,190.6894,569.1051,191.2196,568.964,191.5126,569.2922,192,569.2694,192,569.5394,196.8,569.2759,201.6,569.3273,206.4,569.4051,211.2,569.2922,216,569.4204,216.0531,569.1152,216.4238,569.0292,216.8852,568.5887,217.1998,568.6768,217.7333,568.4135,218.1213,568.4834,218.2901,568.0459,218.434,567.6432,218.6616,567.0791,218.4998,566.6333,218.6234,566.2922,219,566.2922,218.3786,556.4676,218.9411,546.643,218.8035,536.8184,219.6814,526.9938,218.8253,517.1691,218.6569,507.3445,219.2283,497.5199,218.3332,487.6953,218.4809,477.8707,219.649,468.0461,219.4357,458.2215,219.7345,448.3969,218.6782,438.5723,219.3192,428.7477,219.5904,418.923,218.5276,409.0984,218.9041,399.2738,219.126,389.4492,219.6518,379.6246,218.9958,369.8,219,369.859,219.1425,369.3051,218.6537,368.8651,218.44,368.5914,218.6279,368.0115,218.0763,367.6787,218.1213,367.8354,218.1862,367.5666,217.7234,367.2447,217.2386,367.0425,216.8034,367.117,216.4828,366.8,216,366.7002,216,366.9973,211.2,366.6158,206.4,367.0058,201.6,366.9614,196.8,366.8,192,366.8754,192.0312,366.9903,191.5818,367.3752,191.2442,367.5162,190.8055,367.5551,190.3245,367.6787,189.8787,367.7129,189.9613,368.0863,189.6628,368.6186,189.7478,368.9712,189.3992,369.3977,189.2289,369.8,189" style="stroke:#FF6F00;stroke-width:2;"/><polygon fill="#ADD1B2" points="390.8552,206.4324,389.3894,208.4353,387.6556,211.3688,385.176,213.3458,382.5703,214.4269,380.4927,214.5207,377.8224,213.1687,375.3029,212.2854,373.3905,210.492,372.3873,208.4389,371.7924,206.8041,371.2096,204.6688,370.2636,202.8313,370.9906,201.0373,371.6275,199.072,374.0175,197.5177,375.6991,195.501,377.7804,194.8313,380.2547,194.2546,383.4276,194.5972,385.1655,195.4168,387.1861,195.7884,389.6429,198.3054,390.4993,200.9627,390.8714,202.7758,390.45,205.7635" style="stroke:#181818;stroke-width:1;"/><path d="M382.6594,208.2344 Q382.2219,208.4531 381.7219,208.5625 Q381.2375,208.6875 380.7063,208.6875 Q378.7844,208.6875 377.7688,207.4219 Q376.7688,206.1563 376.7688,203.7656 Q376.7688,201.375 377.7688,200.1094 Q378.7844,198.8438 380.7063,198.8438 Q381.2375,198.8438 381.7375,198.9688 Q382.2375,199.0781 382.6594,199.3125 L382.6594,201.3906 Q382.175,200.9531 381.7219,200.75 Q381.2688,200.5313 380.7844,200.5313 Q379.7688,200.5313 379.2375,201.3594 Q378.7063,202.1719 378.7063,203.7656 Q378.7063,205.375 379.2375,206.1875 Q379.7688,207 380.7844,207 Q381.2688,207 381.7219,206.7969 Q382.175,206.5938 382.6594,206.1406 L382.6594,208.2344 Z " fill="#FFFFFF"/><text fill="#FFFFFF" font-family="'Roboto'" font-size="13" lengthAdjust="spacing" textLength="168.4922" x="395.8" y="208.5005">StoryConceptRelationship</text></g><!--reverse link Term to BusinessTerm--><g class="link" data-entity-1="ent0007" data-entity-2="ent0008" data-link-type="extension" data-source-line="74" id="lnk12"><path d="M455.0404,411.9512 L455.2062,412.1771 L462.8255,417.4596 L471.4167,424.0665 L479.6915,430.2421 L486.9253,434.9994 L495.6,441.72" fill="none" style="stroke:#FF6F00;stroke-width:2;"/><polygon fill="none" points="440.53,401.3,440.5872,401.3405,442.6093,404.3178,444.9666,407.5324,447.2148,410.6697,449.1039,413.553,451.49,416.788,451.4692,416.7727,452.7956,414.7691,454.2273,412.8429,455.7322,410.9704,456.9849,408.9127,458.5908,407.1144,458.6474,407.29,454.9143,405.7515,451.3463,404.7259,447.7984,403.7628,444.1334,402.4357,440.53,401.3" style="stroke:#FF6F00;stroke-width:2;"/></g><!--reverse link Term to TechnicalTerm--><g class="link" data-entity-1="ent0007" data-entity-2="ent0009" data-link-type="extension" data-source-line="75" id="lnk13"><path d="M395.5504,414.4982 L395.6189,414.5618 L390.3634,419.8173 L385.5092,425.4454 L380.5244,430.9521 L375.1097,436.06 L370.29,441.72" fill="none" style="stroke:#FF6F00;stroke-width:2;"/><polygon fill="none" points="407.79,401.3,407.8237,401.3614,404.3958,403.0026,401.1654,405.0038,397.8706,406.8879,394.3645,408.3862,391.151,410.4184,391.1334,410.3994,392.8141,411.9461,394.5836,413.5885,396.4149,415.2975,398.0334,416.7772,399.9498,418.5781,400.1179,418.6543,401.3266,415.0356,403.0259,411.6396,404.7851,408.2707,406.1959,404.7438,407.79,401.3" style="stroke:#FF6F00;stroke-width:2;"/></g><!--link Story to UseCase--><g class="link" data-entity-1="ent0002" data-entity-2="ent0003" data-link-type="dependency" data-source-line="78" id="lnk14"><path d="M195.39,117.95 L195.4059,118.042 L193.2618,118.1314 L191.2111,118.7603 L189.13,119.2135 L186.9488,119.0889 L184.9061,119.7642 L184.8993,119.7303 L182.622,120.0328 L180.3792,120.506 L178.1604,121.0978 L175.8589,121.2808 L173.6733,122.0364 L173.7299,122.2759 L171.2572,122.3195 L168.9497,123.0624 L166.6623,123.8905 L164.2577,124.2223 L161.9147,124.8151 L161.9228,124.8444 L159.4988,125.4682 L157.1115,126.2251 L154.7065,126.9177 L152.3353,127.7329 L149.8538,128.1488 L149.9458,128.4325 L147.5188,129.2233 L145.0326,129.8312 L142.6332,130.7069 L140.2379,131.5951 L137.7135,132.0856 L137.599,131.7863 L135.422,133.285 L132.868,133.798 L130.6006,135.0604 L128.038,135.551 L125.7173,136.6742 L125.7047,136.6465 L123.528,138.032 L121.0568,138.77 L118.7594,139.89 L116.4765,141.0421 L114.0884,141.9629 L114.1772,142.1252 L111.8799,143.1688 L109.7343,144.4897 L107.3433,145.3619 L105.3183,146.9035 L103.05,148 L103.1886,148.2004 L100.7906,149.8035 L98.4615,151.506 L95.8125,152.7464 L93.398,154.3255 L91.1911,156.2049 L91.0078,155.9983 L89.1679,157.9653 L87.1215,159.6996 L85.3747,161.7714 L83.1164,163.2668 L81.1621,165.1049 L81.0497,165.0019 L79.5303,167.0356 L77.5305,168.6289 L75.8723,170.5354 L74.5485,172.7483 L72.6293,174.4155 L72.7819,174.5347 L71.4126,176.5038 L69.5685,178.1022 L68.319,180.1649 L66.94,182.1265 L65.2592,183.8523" fill="none" style="stroke:#FF6F00;stroke-width:2;"/><polygon fill="#FF6F00" points="61.71,188.69,61.7448,188.7508,63.3512,187.592,65.1616,186.7898,66.9055,185.8714,68.431,184.5713,70.2589,183.7996,70.255,183.774,69.1191,183.8309,68.003,184.0168,66.9007,184.2925,65.7509,184.259,64.6677,184.6586,64.8501,184.6866,64.2882,183.5084,64.2589,182.4121,64.2946,181.3257,63.9522,180.1812,63.8086,179.0673,63.8309,179.0722,63.3785,180.9896,63.0273,182.9291,62.6273,184.8579,62.3205,186.8071,61.71,188.69" style="stroke:#FF6F00;stroke-width:2;"/><text fill="#333333" font-family="'Roboto'" font-size="13" lengthAdjust="spacing" textLength="59.2046" x="106.05" y="163.0669">:useCase</text><text fill="#333333" font-family="'Roboto'" font-size="13" lengthAdjust="spacing" textLength="23.0356" x="162.7173" y="112.3023">0..*</text><text fill="#333333" font-family="'Roboto'" font-size="13" lengthAdjust="spacing" textLength="8.271" x="52.9197" y="175.8699">1</text></g><!--link Story to Persona--><g class="link" data-entity-1="ent0002" data-entity-2="ent0004" data-link-type="dependency" data-source-line="81" id="lnk15"><path d="M203.23,128.49 L203.2885,128.5628 L200.9181,130.1122 L198.8908,132.0885 L196.7518,133.9257 L194.2453,135.3059 L192.2475,137.3188 L192.2213,137.2962 L190.2644,139.3313 L188.4393,141.48 L186.706,143.7077 L184.6567,145.6632 L183.05,148 L183.2714,148.1074 L181.0912,151.3954 L179.5573,154.9971 L178.1023,158.637 L176.1885,162.0543 L174.516,165.5887 L174.5458,165.5943 L173.8512,169.0378 L173.2923,172.5068 L172.668,175.9636 L172.1686,179.4438 L171.262,182.8473" fill="none" style="stroke:#FF6F00;stroke-width:2;"/><polygon fill="#FF6F00" points="170.69,188.82,170.751,188.8544,171.5377,187.0366,172.682,185.4206,173.7099,183.7388,174.3547,181.841,175.5297,180.2423,175.5132,180.2223,174.5666,180.8527,173.7031,181.5839,172.8974,182.3851,171.8926,182.9449,171.1666,183.8428,171.309,183.9602,170.2845,182.8364,169.6756,182.0556,169.1174,181.3166,168.2642,180.3341,167.5662,179.4797,167.5877,179.4869,168.1808,181.3444,168.8721,183.2347,169.5161,185.1092,170.2504,187.0139,170.69,188.82" style="stroke:#FF6F00;stroke-width:2;"/><text fill="#333333" font-family="'Roboto'" font-size="13" lengthAdjust="spacing" textLength="64.7651" x="186.05" y="163.0669">:playedBy</text></g><!--link Story to Outcome--><g class="link" data-entity-1="ent0002" data-entity-2="ent0005" data-link-type="dependency" data-source-line="82" id="lnk16"><path d="M241.51,128.33 L241.5843,128.3866 L242.825,130.1382 L244.5014,132.2215 L246.0358,134.1969 L247.1037,135.8169 L248.8175,137.9287 L248.7894,137.9086 L250.11,139.8324 L251.5721,141.8578 L253.1324,143.9538 L254.3539,145.8065 L256.05,148 L256.254,148.1376 L257.1231,149.7777 L258.5877,151.8197 L260.125,153.9107 L261.2396,155.7164 L262.5765,157.6722 L262.6019,157.6886 L263.7226,159.4565 L264.9592,161.2993 L266.1399,163.1059 L267.4273,164.9815 L268.3667,166.6322 L268.6213,166.7875 L270.6918,170.1784 L272.598,173.469 L274.7447,176.9063 L276.9025,180.3505 L278.7035,183.5769" fill="none" style="stroke:#FF6F00;stroke-width:2;"/><polygon fill="#FF6F00" points="281.76,188.74,281.8296,188.7481,281.3943,186.7675,281.3669,184.8345,281.2067,182.8861,280.6096,180.8865,280.6172,178.9577,280.5921,178.9512,280.1986,180.0183,279.9317,181.1178,279.7526,182.2399,279.2705,183.2843,279.2129,184.4374,279.2587,184.6162,278.0648,183.953,277.0046,183.8118,275.9608,183.7343,274.822,183.2862,273.7331,183.0331,273.7463,183.0516,275.3323,184.1658,276.9784,185.3643,278.5954,186.5222,280.2677,187.7577,281.76,188.74" style="stroke:#FF6F00;stroke-width:2;"/><text fill="#333333" font-family="'Roboto'" font-size="13" lengthAdjust="spacing" textLength="94.0278" x="273.05" y="163.0669">:contributesTo</text></g><!--link Story to StoryConceptRelationship--><g class="link" data-entity-1="ent0002" data-entity-2="ent0011" data-link-type="dependency" data-source-line="85" id="lnk17"><path d="M264.55,118.81 L264.5658,118.9021 L266.9282,119.0421 L269.3832,119.7219 L271.808,120.2259 L274.1336,120.1519 L276.5966,120.878 L276.5902,120.8441 L279.1924,121.1881 L281.8269,121.7032 L284.4839,122.3372 L287.0635,122.5614 L289.7514,123.3597 L289.8016,123.6006 L292.4937,123.6683 L295.3323,124.4394 L298.1887,125.2962 L300.9412,125.6538 L303.7483,126.274 L303.7552,126.3036 L306.6597,126.9334 L309.5954,127.6977 L312.516,128.3972 L315.4652,129.2204 L318.3212,129.64 L318.3957,129.9288 L321.3732,130.6997 L324.3026,131.2842 L327.3023,132.1415 L330.3054,133.0115 L333.204,133.4766 L333.1148,133.1687 L336.2732,134.6315 L339.1379,135.0805 L342.2259,136.3002 L345.0839,136.7263 L348.1305,137.8028 L348.121,137.7739 L351.1742,139.0829 L354.0053,139.7162 L356.9675,140.7482 L359.9407,141.8136 L362.8345,142.6376 L362.8998,142.8107 L365.677,143.7085 L368.5658,144.902 L371.274,145.617 L374.2515,147.0458 L377.05,148 L377.1461,148.2239 L379.0556,149.009 L381.0128,149.9052 L382.7483,150.285 L384.6464,151.0434 L386.6884,152.1372 L386.5699,151.8877 L388.5332,152.9947 L390.363,153.8205 L392.3863,155.0541 L394.0792,155.5915 L395.9685,156.5428 L395.8964,156.4085 L399.5047,158.5064 L402.8045,160.0302 L406.3238,161.9623 L410.0576,164.2938 L413.4093,165.914 L413.5103,166.0792 L416.7542,168.1342 L419.6839,169.6754 L423.0072,171.8602 L426.2448,173.9048 L429.2825,175.6226 L429.1654,175.4484 L432.1019,177.4983 L435.0001,179.4912 L437.9737,181.5962 L440.6543,183.2653 L443.4985,185.1779" fill="none" style="stroke:#FF6F00;stroke-width:2;"/><polygon fill="#FF6F00" points="448.42,188.61,448.48,188.6462,447.283,186.8528,446.4375,185.2717,445.4775,183.6215,444.1411,181.7437,443.3258,180.1809,443.3003,180.1764,443.3844,181.2698,443.5971,182.3861,443.8992,183.5184,443.8933,184.5957,444.3188,185.75,444.3512,185.9316,443.1681,185.7417,442.0796,186.0822,441.0026,186.4875,439.8585,186.5162,438.7497,186.7429,438.754,186.7652,440.6818,187.1059,442.6291,187.5482,444.567,187.9414,446.523,188.4283,448.42,188.61" style="stroke:#FF6F00;stroke-width:2;"/><text fill="#333333" font-family="'Roboto'" font-size="13" lengthAdjust="spacing" textLength="91.0063" x="419.05" y="163.0669">:storyConcept</text><text fill="#333333" font-family="'Roboto'" font-size="13" lengthAdjust="spacing" textLength="23.0356" x="274.2028" y="113.2994">0..*</text><text fill="#333333" font-family="'Roboto'" font-size="13" lengthAdjust="spacing" textLength="8.271" x="430.6135" y="176.0747">1</text></g><!--link StoryConceptRelationship to Concept--><g class="link" data-entity-1="ent0011" data-entity-2="ent0006" data-link-type="dependency" data-source-line="86" id="lnk18"><path d="M468.05,219.3 L468.3302,219.3 L467.4976,230.188 L468.3077,241.076 L468.5829,251.964 L467.0988,262.852 L468.05,273.74" fill="none" style="stroke:#FF6F00;stroke-width:2;"/><polygon fill="#FF6F00" points="468.05,279.74,468.114,279.7685,468.7238,277.8839,469.7089,276.1662,470.5717,274.3941,471.0327,272.4434,472.05,270.74,472.0317,270.7217,471.1495,271.4395,470.3596,272.2496,469.6339,273.1239,468.687,273.777,468.05,274.74,468.1805,274.8705,467.1014,273.7914,466.4034,273.0934,465.7518,272.4418,464.8298,271.5198,464.05,270.74,464.0708,270.7492,464.8403,272.5357,465.7044,274.3642,466.5228,276.1724,467.4284,278.0193,468.05,279.74" style="stroke:#FF6F00;stroke-width:2;"/><text fill="#333333" font-family="'Roboto'" font-size="13" lengthAdjust="spacing" textLength="56.2148" x="471.05" y="254.0669">:concept</text></g><!--reverse link Concept to Term--><g class="link" data-entity-1="ent0006" data-entity-2="ent0007" data-link-type="composition" data-source-line="87" id="lnk19"><path d="M454.8971,320.9117 L455.1449,321.0425 L450.0224,328.9584 L446.3526,337.6415 L442.2098,346.0747 L436.5113,353.6863 L432.8746,362.3869 L428.58,370.74" fill="none" style="stroke:#FF6F00;stroke-width:2;"/><polygon fill="#FF6F00" points="460.5,310.3,460.5334,310.3616,459.1664,310.8662,457.9952,311.7319,456.7603,312.48,455.3157,312.8415,454.1613,313.7382,454.1356,313.7356,454.1671,315.1584,454.3285,316.5945,454.5802,318.04,454.5207,319.4535,454.8971,320.9117,454.9851,321.0739,456.0647,320.0393,457.4011,319.4784,458.7689,318.9753,459.9544,318.136,461.2358,317.4735,461.2584,317.4758,461.078,316.0377,461.0007,314.6102,460.8736,313.1775,460.8414,311.7546,460.5,310.3" style="stroke:#FF6F00;stroke-width:2;"/><text fill="#333333" font-family="'Roboto'" font-size="13" lengthAdjust="spacing" textLength="35.4834" x="452.05" y="345.0669">:term</text><text fill="#333333" font-family="'Roboto'" font-size="13" lengthAdjust="spacing" textLength="8.271" x="446.3911" y="331.9822">1</text><text fill="#333333" font-family="'Roboto'" font-size="13" lengthAdjust="spacing" textLength="23.0356" x="401.6816" y="357.9358">1..*</text></g><!--link Concept to BusinessTerm--><g class="link" data-entity-1="ent0006" data-entity-2="ent0008" data-link-type="dependency" data-source-line="88" id="lnk20"><path d="M482.25,310.47 L482.3243,310.5266 L483.511,312.208 L485.1334,314.221 L486.6139,316.1261 L487.6277,317.676 L489.2875,319.7175 L489.2574,319.7006 L490.2746,321.6813 L491.4438,323.7472 L492.7186,325.8722 L493.6294,327.7933 L495.05,330 L495.2793,330.0893 L495.9145,332.7864 L497.2191,335.7443 L498.6053,338.7341 L499.5164,341.5387 L500.6774,344.4406 L500.7064,344.4494 L501.5574,347.3745 L502.5404,350.3396 L503.4598,353.2854 L504.5007,356.2682 L505.1452,359.1304 L505.4355,359.1987 L506.1272,362.1275 L506.6316,365.0122 L507.4101,367.9614 L508.2015,370.9136 L508.5858,373.7701 L508.2702,373.7139 L509.3918,376.6811 L509.4743,379.4631 L510.3467,382.3859 L510.4057,385.1638 L511.1314,388.0604 L511.1012,388.0565 L511.8148,390.8314 L511.8231,393.5142 L512.2476,396.2514 L512.707,398.9931 L512.9144,401.7019 L513.0986,401.7187 L513.1432,404.2405 L513.5025,406.7909 L513.3526,409.295 L513.9623,411.8681 L514.067,414.3954 L514.3102,414.4093 L514.3951,416.6959 L514.6008,418.9894 L514.2454,421.2508 L514.3012,423.5357 L514.7215,425.8415 L514.4455,425.8334 L514.7531,427.8206 L514.7497,429.7987 L515.1975,431.7899 L514.8749,433.7587 L515.0103,435.7408" fill="none" style="stroke:#FF6F00;stroke-width:2;"/><polygon fill="#FF6F00" points="515.11,441.74,515.1745,441.7674,515.7529,439.873,516.7093,438.1391,517.5426,436.3529,517.971,434.3949,518.9599,432.6748,518.9413,432.6568,518.0711,433.3891,517.2948,434.2123,516.5838,435.0985,515.6479,435.7673,515.0269,436.7407,515.1552,436.8733,514.0677,435.8031,513.3547,435.1201,512.6875,434.4844,511.7543,433.5738,510.961,432.8077,510.9816,432.8173,511.7811,434.5897,512.6746,436.4057,513.5227,438.2007,514.4573,440.0358,515.11,441.74" style="stroke:#FF6F00;stroke-width:2;"/><text fill="#333333" font-family="'Roboto'" font-size="13" lengthAdjust="spacing" textLength="69.7671" x="516.05" y="390.5669">:labelTerm</text><text fill="#333333" font-family="'Roboto'" font-size="13" lengthAdjust="spacing" textLength="24.8066" x="493.0091" y="332.2043">0..1</text><text fill="#333333" font-family="'Roboto'" font-size="13" lengthAdjust="spacing" textLength="8.271" x="503.2609" y="428.9358">1</text></g><!--link WorkflowDefinition to Story--><g class="link" data-entity-1="ent0010" data-entity-2="ent0002" data-link-type="dependency" data-source-line="91" id="lnk21"><path d="M230.05,37.3 L230.3302,37.3 L229.4976,48.188 L230.3077,59.076 L230.5829,69.964 L229.0988,80.852 L230.05,91.74" fill="none" style="stroke:#FF6F00;stroke-width:2;"/><polygon fill="#FF6F00" points="230.05,97.74,230.114,97.7685,230.7238,95.8839,231.7089,94.1662,232.5717,92.3941,233.0327,90.4434,234.05,88.74,234.0317,88.7217,233.1495,89.4395,232.3596,90.2496,231.6339,91.1239,230.687,91.777,230.05,92.74,230.1805,92.8705,229.1014,91.7914,228.4034,91.0934,227.7518,90.4418,226.8298,89.5198,226.05,88.74,226.0708,88.7492,226.8403,90.5357,227.7044,92.3642,228.5228,94.1724,229.4284,96.0193,230.05,97.74" style="stroke:#FF6F00;stroke-width:2;"/><text fill="#333333" font-family="'Roboto'" font-size="13" lengthAdjust="spacing" textLength="39.2729" x="233.05" y="72.0669">:steps</text></g><!--SRC=[hLLRQzim57xNhr2TXss5jCbwUIXZa4lRZNPnSLBAAAKezaaYOaj6aWbfj_y-NUnONbp6nlGIvJlVTtHkEJdWkQASuHLXoKPGfO1X9Gf01maiA0Cyl7x-DlWwUHw5js64xUcSzixwypEVChqSXPFn8FfUybeeTuFHpU3wSkTeZn96uyl8VmTt5elpHQ-tero5arc3O2dcx2Y3A0eVcfpA2v9hod8YI8Rd95ul1IzOCk8f5pfZmgGs0LC8lSCZdkKaLZWbMrueB44fofRISt17aaH3-AE7HSwVO23mkOTFLoJX6yDUa5I2P_copK6abAtlMM8lu6hVmd1nLgdK11tuMaAEJtsGyGGCUD845LnnfafFFNlyeenXGOfKuLTaQ1EI0GuYFkUA1wWMrZsmu9I-0EwVe9- -fu4GVAFzE8NN4izFvyGUvqHjKz01YeoaQBQYyPg1bBgu3QznIZJuYeQ_DQyneMZ8XQvbQV56gZJutbkJ6YWbwBpmQ-LRJMRxQLdupS3rBAt94ih2xldyntmQJqX55FonDlyluR-eievJyHmhZlKeAPxXX0g8pT91Ave0pY2RWv08kVu6KyN5Di14Odl3Zu_7CMSnvEfO6k2ue-FK3o-tJq-Lvbx2Y4YmglBkwme9tLXZRT8x_JPdn4hBko_D7TIc30iLyymzMjvz9NTGctBaA5PPtdrbzTcYd878hCnSV8tItzi4mq9IquYTq0Tgh_6AqPYaddiFgMWFNAmNAT-CpQgbfeEMkm_xWMrAQrjmji5b0I98YT7A5SthxhSOpOAssSiSOafI-k9Co8AVVdIxpHnhk9cKTXEgbTxL0YGlH0mIvvmoPIQrcg7tQfiR0RwvnfbUggdPuj9igm_8JMVGEpew372t-na7_M0dlC0NXRkQTnnLwjqUgq90AJMQQk8qFzV_Df0CjvwrcYfjrUKiVwPonjr_b9kRGkhLqXxCMnKq_gHdGsyIZQVg8HU4vLUGUUHG5pRestTjfJNDp6BDqJ7rwvZyrXXkIkQmwqSrINfZ2aLZcjj8KCk06NSkPviBvF8N]--></g></svg>