<svg xmlns="http://www.w3.org/2000/svg" xmlns:xlink="http://www.w3.org/1999/xlink" contentStyleType="text/css" data-diagram-type="CLASS" height="459px" preserveAspectRatio="none" style="width:272px;height:459px;" version="1.1" viewBox="0 0 272 459" width="272px" zoomAndPan="magnify"><defs/><g><!--class Story--><g class="entity" data-qualified-name="Story" data-source-line="62" id="ent0002"><a href="/concept/story/#ontology" target="_top" title="/concept/story/#ontology" xlink:actuate="onRequest" xlink:href="/concept/story/#ontology" xlink:show="new" xlink:title="/concept/story/#ontology" xlink:type="simple"><polygon fill="#4051B5" points="106,93,106,93.0701,111.6,92.8619,117.2,93.0644,122.8,93.1332,128.4,92.7622,134,93,133.9901,92.9761,134.3699,93.0444,134.7996,93.2334,135.2641,93.5062,135.6089,93.49,136.1213,93.8787,136.2918,93.9493,136.103,94.2225,136.4119,94.702,136.7816,95.2066,136.7978,95.5648,137,96,137.0227,96,136.9894,100.8,137.0595,105.6,137.0797,110.4,137.1952,115.2,137,120,137.2067,120.0856,137.0334,120.5109,136.7269,120.881,136.6156,121.3319,136.5133,121.7866,136.1213,122.1213,136.0293,121.8992,135.7836,122.506,135.235,122.3815,134.9166,122.8129,134.3611,122.6718,134,123,134,122.9772,128.4,123.2472,122.8,122.9838,117.2,123.0351,111.6,123.1129,106,123,106.0531,123.1282,105.5752,122.8231,105.1881,122.737,104.6542,122.2965,104.3392,122.3846,103.8787,122.1213,104.0475,122.1912,103.8398,121.7538,103.716,121.351,103.2027,120.7869,102.9749,120.3411,103,120,102.7929,120,102.9804,115.2,102.9345,110.4,103.2271,105.6,102.9418,100.8,103,96,102.8944,95.9562,103.246,95.6049,103.1461,95.0664,103.3673,94.661,103.9028,94.3857,103.8787,93.8787,103.9343,94.0128,104.3966,93.9291,104.6862,93.4281,105.1922,93.4498,105.6511,93.3576,106,93" style="stroke:#FF6F00;stroke-width:2;"/><polygon fill="#ADD1B2" points="127.0552,110.4324,125.5894,112.4353,123.8556,115.3688,121.376,117.3458,118.7703,118.4269,116.6927,118.5207,114.0224,117.1687,111.5029,116.2854,109.5905,114.492,108.5873,112.4389,107.9924,110.8041,107.4096,108.6688,106.4636,106.8313,107.1906,105.0373,107.8275,103.072,110.2175,101.5177,111.8991,99.501,113.9804,98.8313,116.4547,98.2546,119.6276,98.5972,121.3655,99.4168,123.3861,99.7884,125.8429,102.3054,126.6993,104.9627,127.0714,106.7758,126.65,109.7635" style="stroke:#181818;stroke-width:1;"/><path d="M118.8594,112.2344 Q118.4219,112.4531 117.9219,112.5625 Q117.4375,112.6875 116.9063,112.6875 Q114.9844,112.6875 113.9688,111.4219 Q112.9688,110.1563 112.9688,107.7656 Q112.9688,105.375 113.9688,104.1094 Q114.9844,102.8438 116.9063,102.8438 Q117.4375,102.8438 117.9375,102.9688 Q118.4375,103.0781 118.8594,103.3125 L118.8594,105.3906 Q118.375,104.9531 117.9219,104.75 Q117.4688,104.5313 116.9844,104.5313 Q115.9688,104.5313 115.4375,105.3594 Q114.9063,106.1719 114.9063,107.7656 Q114.9063,109.375 115.4375,110.1875 Q115.9688,111 116.9844,111 Q117.4688,111 117.9219,110.7969 Q118.375,110.5938 118.8594,110.1406 L118.8594,112.2344 Z " fill="#FFFFFF"/><text fill="#FFFFFF" font-family="'Roboto'" font-size="13" lengthAdjust="spacing" textLength="0" x="132" y="103">Story</text></a></g><!--class UseCase--><g class="entity" data-qualified-name="UseCase" data-source-line="63" id="ent0003"><a href="/concept/use-case/#ontology" target="_top" title="/concept/use-case/#ontology" xlink:actuate="onRequest" xlink:href="/concept/use-case/#ontology" xlink:show="new" xlink:title="/concept/use-case/#ontology" xlink:type="simple"><polygon fill="#4051B5" points="10,179,10,179.0701,15.6,178.8619,21.2,179.0644,26.8,179.1332,32.4,178.7622,38,179,37.9901,178.9761,38.3699,179.0444,38.7996,179.2334,39.2641,179.5062,39.6089,179.49,40.1213,179.8787,40.2918,179.9493,40.103,180.2225,40.4119,180.702,40.7816,181.2066,40.7978,181.5648,41,182,41.0227,182,40.9894,186.8,41.0595,191.6,41.0797,196.4,41.1952,201.2,41,206,41.2067,206.0856,41.0334,206.5109,40.7269,206.881,40.6156,207.3319,40.5133,207.7866,40.1213,208.1213,40.0293,207.8992,39.7836,208.506,39.235,208.3815,38.9166,208.8129,38.3611,208.6718,38,209,38,208.9772,32.4,209.2472,26.8,208.9838,21.2,209.0351,15.6,209.1129,10,209,10.0531,209.1282,9.5752,208.8231,9.1881,208.737,8.6542,208.2965,8.3392,208.3846,7.8787,208.1213,8.0475,208.1912,7.8398,207.7538,7.716,207.351,7.2027,206.7869,6.9749,206.3411,7,206,6.7929,206,6.9804,201.2,6.9345,196.4,7.2271,191.6,6.9418,186.8,7,182,6.8944,181.9562,7.246,181.6049,7.1461,181.0664,7.3673,180.661,7.9028,180.3857,7.8787,179.8787,7.9343,180.0128,8.3966,179.9291,8.6862,179.4281,9.1922,179.4498,9.6511,179.3576,10,179" style="stroke:#FF6F00;stroke-width:2;"/><polygon fill="#ADD1B2" points="31.0552,196.4324,29.5894,198.4353,27.8556,201.3688,25.376,203.3458,22.7703,204.4269,20.6927,204.5207,18.0224,203.1687,15.5029,202.2854,13.5905,200.492,12.5873,198.4389,11.9924,196.8041,11.4096,194.6688,10.4636,192.8313,11.1906,191.0373,11.8275,189.072,14.2175,187.5177,15.8991,185.501,17.9804,184.8313,20.4547,184.2546,23.6276,184.5972,25.3655,185.4168,27.3861,185.7884,29.8429,188.3054,30.6993,190.9627,31.0714,192.7758,30.65,195.7635" style="stroke:#181818;stroke-width:1;"/><path d="M22.8594,198.2344 Q22.4219,198.4531 21.9219,198.5625 Q21.4375,198.6875 20.9063,198.6875 Q18.9844,198.6875 17.9688,197.4219 Q16.9688,196.1563 16.9688,193.7656 Q16.9688,191.375 17.9688,190.1094 Q18.9844,188.8438 20.9063,188.8438 Q21.4375,188.8438 21.9375,188.9688 Q22.4375,189.0781 22.8594,189.3125 L22.8594,191.3906 Q22.375,190.9531 21.9219,190.75 Q21.4688,190.5313 20.9844,190.5313 Q19.9688,190.5313 19.4375,191.3594 Q18.9063,192.1719 18.9063,193.7656 Q18.9063,195.375 19.4375,196.1875 Q19.9688,197 20.9844,197 Q21.4688,197 21.9219,196.7969 Q22.375,196.5938 22.8594,196.1406 L22.8594,198.2344 Z " fill="#FFFFFF"/><text fill="#FFFFFF" font-family="'Roboto'" font-size="13" lengthAdjust="spacing" textLength="0" x="36" y="189">UseCase</text></a></g><!--class Persona--><g class="entity" data-qualified-name="Persona" data-source-line="64" id="ent0004"><a href="/concept/persona/#ontology" target="_top" title="/concept/persona/#ontology" xlink:actuate="onRequest" xlink:href="/concept/persona/#ontology" xlink:show="new" xlink:title="/concept/persona/#ontology" xlink:type="simple"><polygon fill="#4051B5" points="74,179,74,179.0701,79.6,178.8619,85.2,179.0644,90.8,179.1332,96.4,178.7622,102,179,101.9901,178.9761,102.3699,179.0444,102.7996,179.2334,103.2641,179.5062,103.6089,179.49,104.1213,179.8787,104.2918,179.9493,104.103,180.2225,104.4119,180.702,104.7816,181.2066,104.7978,181.5648,105,182,105.0227,182,104.9894,186.8,105.0595,191.6,105.0797,196.4,105.1952,201.2,105,206,105.2067,206.0856,105.0334,206.5109,104.7269,206.881,104.6156,207.3319,104.5133,207.7866,104.1213,208.1213,104.0293,207.8992,103.7836,208.506,103.235,208.3815,102.9166,208.8129,102.3611,208.6718,102,209,102,208.9772,96.4,209.2472,90.8,208.9838,85.2,209.0351,79.6,209.1129,74,209,74.0531,209.1282,73.5752,208.8231,73.1881,208.737,72.6542,208.2965,72.3392,208.3846,71.8787,208.1213,72.0475,208.1912,71.8398,207.7538,71.716,207.351,71.2027,206.7869,70.9749,206.3411,71,206,70.7929,206,70.9804,201.2,70.9345,196.4,71.2271,191.6,70.9418,186.8,71,182,70.8944,181.9562,71.246,181.6049,71.1461,181.0664,71.3673,180.661,71.9028,180.3857,71.8787,179.8787,71.9343,180.0128,72.3966,179.9291,72.6862,179.4281,73.1922,179.4498,73.6511,179.3576,74,179" style="stroke:#FF6F00;stroke-width:2;"/><polygon fill="#ADD1B2" points="95.0552,196.4324,93.5894,198.4353,91.8556,201.3688,89.376,203.3458,86.7703,204.4269,84.6927,204.5207,82.0224,203.1687,79.5029,202.2854,77.5905,200.492,76.5873,198.4389,75.9924,196.8041,75.4096,194.6688,74.4636,192.8313,75.1906,191.0373,75.8275,189.072,78.2175,187.5177,79.8991,185.501,81.9804,184.8313,84.4547,184.2546,87.6276,184.5972,89.3655,185.4168,91.3861,185.7884,93.8429,188.3054,94.6993,190.9627,95.0714,192.7758,94.65,195.7635" style="stroke:#181818;stroke-width:1;"/><path d="M86.8594,198.2344 Q86.4219,198.4531 85.9219,198.5625 Q85.4375,198.6875 84.9063,198.6875 Q82.9844,198.6875 81.9688,197.4219 Q80.9688,196.1563 80.9688,193.7656 Q80.9688,191.375 81.9688,190.1094 Q82.9844,188.8438 84.9063,188.8438 Q85.4375,188.8438 85.9375,188.9688 Q86.4375,189.0781 86.8594,189.3125 L86.8594,191.3906 Q86.375,190.9531 85.9219,190.75 Q85.4688,190.5313 84.9844,190.5313 Q83.9688,190.5313 83.4375,191.3594 Q82.9063,192.1719 82.9063,193.7656 Q82.9063,195.375 83.4375,196.1875 Q83.9688,197 84.9844,197 Q85.4688,197 85.9219,196.7969 Q86.375,196.5938 86.8594,196.1406 L86.8594,198.2344 Z " fill="#FFFFFF"/><text fill="#FFFFFF" font-family="'Roboto'" font-size="13" lengthAdjust="spacing" textLength="0" x="100" y="189">Persona</text></a></g><!--class Outcome--><g class="entity" data-qualified-name="Outcome" data-source-line="65" id="ent0005"><a href="/concept/outcome/#ontology" target="_top" title="/concept/outcome/#ontology" xlink:actuate="onRequest" xlink:href="/concept/outcome/#ontology" xlink:show="new" xlink:title="/concept/outcome/#ontology" xlink:type="simple"><polygon fill="#4051B5" points="138,179,138,179.0701,143.6,178.8619,149.2,179.0644,154.8,179.1332,160.4,178.7622,166,179,165.9901,178.9761,166.3699,179.0444,166.7996,179.2334,167.2641,179.5062,167.6089,179.49,168.1213,179.8787,168.2918,179.9493,168.103,180.2225,168.4119,180.702,168.7816,181.2066,168.7978,181.5648,169,182,169.0227,182,168.9894,186.8,169.0595,191.6,169.0797,196.4,169.1952,201.2,169,206,169.2067,206.0856,169.0334,206.5109,168.7269,206.881,168.6156,207.3319,168.5133,207.7866,168.1213,208.1213,168.0293,207.8992,167.7836,208.506,167.235,208.3815,166.9166,208.8129,166.3611,208.6718,166,209,166,208.9772,160.4,209.2472,154.8,208.9838,149.2,209.0351,143.6,209.1129,138,209,138.0531,209.1282,137.5752,208.8231,137.1881,208.737,136.6542,208.2965,136.3392,208.3846,135.8787,208.1213,136.0475,208.1912,135.8398,207.7538,135.716,207.351,135.2027,206.7869,134.9749,206.3411,135,206,134.7929,206,134.9804,201.2,134.9345,196.4,135.2271,191.6,134.9418,186.8,135,182,134.8944,181.9562,135.246,181.6049,135.1461,181.0664,135.3673,180.661,135.9028,180.3857,135.8787,179.8787,135.9343,180.0128,136.3966,179.9291,136.6862,179.4281,137.1922,179.4498,137.6511,179.3576,138,179" style="stroke:#FF6F00;stroke-width:2;"/><polygon fill="#ADD1B2" points="159.0552,196.4324,157.5894,198.4353,155.8556,201.3688,153.376,203.3458,150.7703,204.4269,148.6927,204.5207,146.0224,203.1687,143.5029,202.2854,141.5905,200.492,140.5873,198.4389,139.9924,196.8041,139.4096,194.6688,138.4636,192.8313,139.1906,191.0373,139.8275,189.072,142.2175,187.5177,143.8991,185.501,145.9804,184.8313,148.4547,184.2546,151.6276,184.5972,153.3655,185.4168,155.3861,185.7884,157.8429,188.3054,158.6993,190.9627,159.0714,192.7758,158.65,195.7635" style="stroke:#181818;stroke-width:1;"/><path d="M150.8594,198.2344 Q150.4219,198.4531 149.9219,198.5625 Q149.4375,198.6875 148.9063,198.6875 Q146.9844,198.6875 145.9688,197.4219 Q144.9688,196.1563 144.9688,193.7656 Q144.9688,191.375 145.9688,190.1094 Q146.9844,188.8438 148.9063,188.8438 Q149.4375,188.8438 149.9375,188.9688 Q150.4375,189.0781 150.8594,189.3125 L150.8594,191.3906 Q150.375,190.9531 149.9219,190.75 Q149.4688,190.5313 148.9844,190.5313 Q147.9688,190.5313 147.4375,191.3594 Q146.9063,192.1719 146.9063,193.7656 Q146.9063,195.375 147.4375,196.1875 Q147.9688,197 148.9844,197 Q149.4688,197 149.9219,196.7969 Q150.375,196.5938 150.8594,196.1406 L150.8594,198.2344 Z " fill="#FFFFFF"/><text fill="#FFFFFF" font-family="'Roboto'" font-size="13" lengthAdjust="spacing" textLength="0" x="164" y="189">Outcome</text></a></g><!--class Concept--><g class="entity" data-qualified-name="Concept" data-source-line="66" id="ent0006"><a href="/concept/concept/#ontology" target="_top" title="/concept/concept/#ontology" xlink:actuate="onRequest" xlink:href="/concept/concept/#ontology" xlink:show="new" xlink:title="/concept/concept/#ontology" xlink:type="simple"><polygon fill="#4051B5" points="202,265,202,265.0701,207.6,264.8619,213.2,265.0644,218.8,265.1332,224.4,264.7622,230,265,229.9901,264.9761,230.3699,265.0444,230.7996,265.2334,231.2641,265.5062,231.6089,265.49,232.1213,265.8787,232.2918,265.9493,232.103,266.2225,232.4119,266.702,232.7816,267.2066,232.7978,267.5648,233,268,233.0227,268,232.9894,272.8,233.0595,277.6,233.0797,282.4,233.1952,287.2,233,292,233.2067,292.0856,233.0334,292.5109,232.7269,292.881,232.6156,293.3319,232.5133,293.7866,232.1213,294.1213,232.0293,293.8992,231.7836,294.506,231.235,294.3815,230.9166,294.8129,230.3611,294.6718,230,295,230,294.9772,224.4,295.2472,218.8,294.9838,213.2,295.0351,207.6,295.1129,202,295,202.0531,295.1282,201.5752,294.8231,201.1881,294.737,200.6542,294.2965,200.3392,294.3846,199.8787,294.1213,200.0475,294.1912,199.8398,293.7538,199.716,293.351,199.2027,292.7869,198.9749,292.3411,199,292,198.7929,292,198.9804,287.2,198.9345,282.4,199.2271,277.6,198.9418,272.8,199,268,198.8944,267.9562,199.246,267.6049,199.1461,267.0664,199.3673,266.661,199.9028,266.3857,199.8787,265.8787,199.9343,266.0128,200.3966,265.9291,200.6862,265.4281,201.1922,265.4498,201.6511,265.3576,202,265" style="stroke:#FF6F00;stroke-width:2;"/><polygon fill="#ADD1B2" points="223.0552,282.4324,221.5894,284.4353,219.8556,287.3688,217.376,289.3458,214.7703,290.4269,212.6927,290.5207,210.0224,289.1687,207.5029,288.2854,205.5905,286.492,204.5873,284.4389,203.9924,282.8041,203.4096,280.6688,202.4636,278.8313,203.1906,277.0373,203.8275,275.072,206.2175,273.5177,207.8991,271.501,209.9804,270.8313,212.4547,270.2546,215.6276,270.5972,217.3655,271.4168,219.3861,271.7884,221.8429,274.3054,222.6993,276.9627,223.0714,278.7758,222.65,281.7635" style="stroke:#181818;stroke-width:1;"/><path d="M214.8594,284.2344 Q214.4219,284.4531 213.9219,284.5625 Q213.4375,284.6875 212.9063,284.6875 Q210.9844,284.6875 209.9688,283.4219 Q208.9688,282.1563 208.9688,279.7656 Q208.9688,277.375 209.9688,276.1094 Q210.9844,274.8438 212.9063,274.8438 Q213.4375,274.8438 213.9375,274.9688 Q214.4375,275.0781 214.8594,275.3125 L214.8594,277.3906 Q214.375,276.9531 213.9219,276.75 Q213.4688,276.5313 212.9844,276.5313 Q211.9688,276.5313 211.4375,277.3594 Q210.9063,278.1719 210.9063,279.7656 Q210.9063,281.375 211.4375,282.1875 Q211.9688,283 212.9844,283 Q213.4688,283 213.9219,282.7969 Q214.375,282.5938 214.8594,282.1406 L214.8594,284.2344 Z " fill="#FFFFFF"/><text fill="#FFFFFF" font-family="'Roboto'" font-size="13" lengthAdjust="spacing" textLength="0" x="228" y="275">Concept</text></a></g><!--class Term--><g class="entity" data-qualified-name="Term" data-source-line="67" id="ent0007"><a href="/concept/term/#ontology" target="_top" title="/concept/term/#ontology" xlink:actuate="onRequest" xlink:href="/concept/term/#ontology" xlink:show="new" xlink:title="/concept/term/#ontology" xlink:type="simple"><polygon fill="#4051B5" points="164,351,164,351.0701,169.6,350.8619,175.2,351.0644,180.8,351.1332,186.4,350.7622,192,351,191.9901,350.9761,192.3699,351.0444,192.7996,351.2334,193.2641,351.5062,193.6089,351.49,194.1213,351.8787,194.2918,351.9493,194.103,352.2225,194.4119,352.702,194.7816,353.2066,194.7978,353.5648,195,354,195.0227,354,194.9894,358.8,195.0595,363.6,195.0797,368.4,195.1952,373.2,195,378,195.2067,378.0856,195.0334,378.5109,194.7269,378.881,194.6156,379.3319,194.5133,379.7866,194.1213,380.1213,194.0293,379.8992,193.7836,380.506,193.235,380.3815,192.9166,380.8129,192.3611,380.6718,192,381,192,380.9772,186.4,381.2472,180.8,380.9838,175.2,381.0351,169.6,381.1129,164,381,164.0531,381.1282,163.5752,380.8231,163.1881,380.737,162.6542,380.2965,162.3392,380.3846,161.8787,380.1213,162.0475,380.1912,161.8398,379.7538,161.716,379.351,161.2027,378.7869,160.9749,378.3411,161,378,160.7929,378,160.9804,373.2,160.9345,368.4,161.2271,363.6,160.9418,358.8,161,354,160.8944,353.9562,161.246,353.6049,161.1461,353.0664,161.3673,352.661,161.9028,352.3857,161.8787,351.8787,161.9343,352.0128,162.3966,351.9291,162.6862,351.4281,163.1922,351.4498,163.6511,351.3576,164,351" style="stroke:#FF6F00;stroke-width:2;"/><polygon fill="#ADD1B2" points="185.0552,368.4324,183.5894,370.4353,181.8556,373.3688,179.376,375.3458,176.7703,376.4269,174.6927,376.5207,172.0224,375.1687,169.5029,374.2854,167.5905,372.492,166.5873,370.4389,165.9924,368.8041,165.4096,366.6688,164.4636,364.8313,165.1906,363.0373,165.8275,361.072,168.2175,359.5177,169.8991,357.501,171.9804,356.8313,174.4547,356.2546,177.6276,356.5972,179.3655,357.4168,181.3861,357.7884,183.8429,360.3054,184.6993,362.9627,185.0714,364.7758,184.65,367.7635" style="stroke:#181818;stroke-width:1;"/><path d="M176.8594,370.2344 Q176.4219,370.4531 175.9219,370.5625 Q175.4375,370.6875 174.9063,370.6875 Q172.9844,370.6875 171.9688,369.4219 Q170.9688,368.1563 170.9688,365.7656 Q170.9688,363.375 171.9688,362.1094 Q172.9844,360.8438 174.9063,360.8438 Q175.4375,360.8438 175.9375,360.9688 Q176.4375,361.0781 176.8594,361.3125 L176.8594,363.3906 Q176.375,362.9531 175.9219,362.75 Q175.4688,362.5313 174.9844,362.5313 Q173.9688,362.5313 173.4375,363.3594 Q172.9063,364.1719 172.9063,365.7656 Q172.9063,367.375 173.4375,368.1875 Q173.9688,369 174.9844,369 Q175.4688,369 175.9219,368.7969 Q176.375,368.5938 176.8594,368.1406 L176.8594,370.2344 Z " fill="#FFFFFF"/><text fill="#FFFFFF" font-family="'Roboto'" font-size="13" lengthAdjust="spacing" textLength="0" x="190" y="361">Term</text></a></g><!--class BusinessTerm--><g class="entity" data-qualified-name="BusinessTerm" data-source-line="68" id="ent0008"><polygon fill="#4051B5" points="234,422,234,422.0701,239.6,421.8619,245.2,422.0644,250.8,422.1332,256.4,421.7622,262,422,261.9901,421.9761,262.3699,422.0444,262.7996,422.2334,263.2641,422.5062,263.6089,422.49,264.1213,422.8787,264.2918,422.9493,264.103,423.2225,264.4119,423.702,264.7816,424.2066,264.7978,424.5648,265,425,265.0227,425,264.9894,429.8,265.0595,434.6,265.0797,439.4,265.1952,444.2,265,449,265.2067,449.0856,265.0334,449.5109,264.7269,449.881,264.6156,450.3319,264.5133,450.7866,264.1213,451.1213,264.0293,450.8992,263.7836,451.506,263.235,451.3815,262.9166,451.8129,262.3611,451.6718,262,452,262,451.9772,256.4,452.2472,250.8,451.9838,245.2,452.0351,239.6,452.1129,234,452,234.0531,452.1282,233.5752,451.8231,233.1881,451.737,232.6542,451.2965,232.3392,451.3846,231.8787,451.1213,232.0475,451.1912,231.8398,450.7538,231.716,450.351,231.2027,449.7869,230.9749,449.3411,231,449,230.7929,449,230.9804,444.2,230.9345,439.4,231.2271,434.6,230.9418,429.8,231,425,230.8944,424.9562,231.246,424.6049,231.1461,424.0664,231.3673,423.661,231.9028,423.3857,231.8787,422.8787,231.9343,423.0128,232.3966,422.9291,232.6862,422.4281,233.1922,422.4498,233.6511,422.3576,234,422" style="stroke:#FF6F00;stroke-width:2;"/><polygon fill="#ADD1B2" points="255.0552,439.4324,253.5894,441.4353,251.8556,444.3688,249.376,446.3458,246.7703,447.4269,244.6927,447.5207,242.0224,446.1687,239.5029,445.2854,237.5905,443.492,236.5873,441.4389,235.9924,439.8041,235.4096,437.6688,234.4636,435.8313,235.1906,434.0373,235.8275,432.072,238.2175,430.5177,239.8991,428.501,241.9804,427.8313,244.4547,427.2546,247.6276,427.5972,249.3655,428.4168,251.3861,428.7884,253.8429,431.3054,254.6993,433.9627,255.0714,435.7758,254.65,438.7635" style="stroke:#181818;stroke-width:1;"/><path d="M246.8594,441.2344 Q246.4219,441.4531 245.9219,441.5625 Q245.4375,441.6875 244.9063,441.6875 Q242.9844,441.6875 241.9688,440.4219 Q240.9688,439.1563 240.9688,436.7656 Q240.9688,434.375 241.9688,433.1094 Q242.9844,431.8438 244.9063,431.8438 Q245.4375,431.8438 245.9375,431.9688 Q246.4375,432.0781 246.8594,432.3125 L246.8594,434.3906 Q246.375,433.9531 245.9219,433.75 Q245.4688,433.5313 244.9844,433.5313 Q243.9688,433.5313 243.4375,434.3594 Q242.9063,435.1719 242.9063,436.7656 Q242.9063,438.375 243.4375,439.1875 Q243.9688,440 244.9844,440 Q245.4688,440 245.9219,439.7969 Q246.375,439.5938 246.8594,439.1406 L246.8594,441.2344 Z " fill="#FFFFFF"/><text fill="#FFFFFF" font-family="'Roboto'" font-size="13" lengthAdjust="spacing" textLength="0" x="260" y="432">BusinessTerm</text></g><!--class TechnicalTerm--><g class="entity" data-qualified-name="TechnicalTerm" data-source-line="69" id="ent0009"><polygon fill="#4051B5" points="164,422,164,422.0701,169.6,421.8619,175.2,422.0644,180.8,422.1332,186.4,421.7622,192,422,191.9901,421.9761,192.3699,422.0444,192.7996,422.2334,193.2641,422.5062,193.6089,422.49,194.1213,422.8787,194.2918,422.9493,194.103,423.2225,194.4119,423.702,194.7816,424.2066,194.7978,424.5648,195,425,195.0227,425,194.9894,429.8,195.0595,434.6,195.0797,439.4,195.1952,444.2,195,449,195.2067,449.0856,195.0334,449.5109,194.7269,449.881,194.6156,450.3319,194.5133,450.7866,194.1213,451.1213,194.0293,450.8992,193.7836,451.506,193.235,451.3815,192.9166,451.8129,192.3611,451.6718,192,452,192,451.9772,186.4,452.2472,180.8,451.9838,175.2,452.0351,169.6,452.1129,164,452,164.0531,452.1282,163.5752,451.8231,163.1881,451.737,162.6542,451.2965,162.3392,451.3846,161.8787,451.1213,162.0475,451.1912,161.8398,450.7538,161.716,450.351,161.2027,449.7869,160.9749,449.3411,161,449,160.7929,449,160.9804,444.2,160.9345,439.4,161.2271,434.6,160.9418,429.8,161,425,160.8944,424.9562,161.246,424.6049,161.1461,424.0664,161.3673,423.661,161.9028,423.3857,161.8787,422.8787,161.9343,423.0128,162.3966,422.9291,162.6862,422.4281,163.1922,422.4498,163.6511,422.3576,164,422" style="stroke:#FF6F00;stroke-width:2;"/><polygon fill="#ADD1B2" points="185.0552,439.4324,183.5894,441.4353,181.8556,444.3688,179.376,446.3458,176.7703,447.4269,174.6927,447.5207,172.0224,446.1687,169.5029,445.2854,167.5905,443.492,166.5873,441.4389,165.9924,439.8041,165.4096,437.6688,164.4636,435.8313,165.1906,434.0373,165.8275,432.072,168.2175,430.5177,169.8991,428.501,171.9804,427.8313,174.4547,427.2546,177.6276,427.5972,179.3655,428.4168,181.3861,428.7884,183.8429,431.3054,184.6993,433.9627,185.0714,435.7758,184.65,438.7635" style="stroke:#181818;stroke-width:1;"/><path d="M176.8594,441.2344 Q176.4219,441.4531 175.9219,441.5625 Q175.4375,441.6875 174.9063,441.6875 Q172.9844,441.6875 171.9688,440.4219 Q170.9688,439.1563 170.9688,436.7656 Q170.9688,434.375 171.9688,433.1094 Q172.9844,431.8438 174.9063,431.8438 Q175.4375,431.8438 175.9375,431.9688 Q176.4375,432.0781 176.8594,432.3125 L176.8594,434.3906 Q176.375,433.9531 175.9219,433.75 Q175.4688,433.5313 174.9844,433.5313 Q173.9688,433.5313 173.4375,434.3594 Q172.9063,435.1719 172.9063,436.7656 Q172.9063,438.375 173.4375,439.1875 Q173.9688,440 174.9844,440 Q175.4688,440 175.9219,439.7969 Q176.375,439.5938 176.8594,439.1406 L176.8594,441.2344 Z " fill="#FFFFFF"/><text fill="#FFFFFF" font-family="'Roboto'" font-size="13" lengthAdjust="spacing" textLength="0" x="190" y="432">TechnicalTerm</text></g><!--class WorkflowDefinition--><g class="entity" data-qualified-name="WorkflowDefinition" data-source-line="70" id="ent0010"><a href="/concept/workflow/#ontology" target="_top" title="/concept/workflow/#ontology" xlink:actuate="onRequest" xlink:href="/concept/workflow/#ontology" xlink:show="new" xlink:title="/concept/workflow/#ontology" xlink:type="simple"><polygon fill="#4051B5" points="106,7,106,7.0701,111.6,6.8619,117.2,7.0644,122.8,7.1332,128.4,6.7622,134,7,133.9901,6.9761,134.3699,7.0444,134.7996,7.2334,135.2641,7.5062,135.6089,7.49,136.1213,7.8787,136.2918,7.9493,136.103,8.2225,136.4119,8.702,136.7816,9.2066,136.7978,9.5648,137,10,137.0227,10,136.9894,14.8,137.0595,19.6,137.0797,24.4,137.1952,29.2,137,34,137.2067,34.0856,137.0334,34.5109,136.7269,34.881,136.6156,35.3319,136.5133,35.7866,136.1213,36.1213,136.0293,35.8992,135.7836,36.506,135.235,36.3815,134.9166,36.8129,134.3611,36.6718,134,37,134,36.9772,128.4,37.2472,122.8,36.9838,117.2,37.0351,111.6,37.1129,106,37,106.0531,37.1282,105.5752,36.8231,105.1881,36.737,104.6542,36.2965,104.3392,36.3846,103.8787,36.1213,104.0475,36.1912,103.8398,35.7538,103.716,35.351,103.2027,34.7869,102.9749,34.3411,103,34,102.7929,34,102.9804,29.2,102.9345,24.4,103.2271,19.6,102.9418,14.8,103,10,102.8944,9.9562,103.246,9.6049,103.1461,9.0664,103.3673,8.661,103.9028,8.3857,103.8787,7.8787,103.9343,8.0128,104.3966,7.9291,104.6862,7.4281,105.1922,7.4498,105.6511,7.3576,106,7" style="stroke:#FF6F00;stroke-width:2;"/><polygon fill="#ADD1B2" points="127.0552,24.4324,125.5894,26.4353,123.8556,29.3688,121.376,31.3458,118.7703,32.4269,116.6927,32.5207,114.0224,31.1687,111.5029,30.2854,109.5905,28.492,108.5873,26.4389,107.9924,24.8041,107.4096,22.6688,106.4636,20.8313,107.1906,19.0373,107.8275,17.072,110.2175,15.5177,111.8991,13.501,113.9804,12.8313,116.4547,12.2546,119.6276,12.5972,121.3655,13.4168,123.3861,13.7884,125.8429,16.3054,126.6993,18.9627,127.0714,20.7758,126.65,23.7635" style="stroke:#181818;stroke-width:1;"/><path d="M118.8594,26.2344 Q118.4219,26.4531 117.9219,26.5625 Q117.4375,26.6875 116.9063,26.6875 Q114.9844,26.6875 113.9688,25.4219 Q112.9688,24.1563 112.9688,21.7656 Q112.9688,19.375 113.9688,18.1094 Q114.9844,16.8438 116.9063,16.8438 Q117.4375,16.8438 117.9375,16.9688 Q118.4375,17.0781 118.8594,17.3125 L118.8594,19.3906 Q118.375,18.9531 117.9219,18.75 Q117.4688,18.5313 116.9844,18.5313 Q115.9688,18.5313 115.4375,19.3594 Q114.9063,20.1719 114.9063,21.7656 Q114.9063,23.375 115.4375,24.1875 Q115.9688,25 116.9844,25 Q117.4688,25 117.9219,24.7969 Q118.375,24.5938 118.8594,24.1406 L118.8594,26.2344 Z " fill="#FFFFFF"/><text fill="#FFFFFF" font-family="'Roboto'" font-size="13" lengthAdjust="spacing" textLength="0" x="132" y="17">WorkflowDefinition</text></a></g><!--class StoryConceptRelationship--><g class="entity" data-qualified-name="StoryConceptRelationship" data-source-line="71" id="ent0011"><polygon fill="#4051B5" points="202,179,202,179.0701,207.6,178.8619,213.2,179.0644,218.8,179.1332,224.4,178.7622,230,179,229.9901,178.9761,230.3699,179.0444,230.7996,179.2334,231.2641,179.5062,231.6089,179.49,232.1213,179.8787,232.2918,179.9493,232.103,180.2225,232.4119,180.702,232.7816,181.2066,232.7978,181.5648,233,182,233.0227,182,232.9894,186.8,233.0595,191.6,233.0797,196.4,233.1952,201.2,233,206,233.2067,206.0856,233.0334,206.5109,232.7269,206.881,232.6156,207.3319,232.5133,207.7866,232.1213,208.1213,232.0293,207.8992,231.7836,208.506,231.235,208.3815,230.9166,208.8129,230.3611,208.6718,230,209,230,208.9772,224.4,209.2472,218.8,208.9838,213.2,209.0351,207.6,209.1129,202,209,202.0531,209.1282,201.5752,208.8231,201.1881,208.737,200.6542,208.2965,200.3392,208.3846,199.8787,208.1213,200.0475,208.1912,199.8398,207.7538,199.716,207.351,199.2027,206.7869,198.9749,206.3411,199,206,198.7929,206,198.9804,201.2,198.9345,196.4,199.2271,191.6,198.9418,186.8,199,182,198.8944,181.9562,199.246,181.6049,199.1461,181.0664,199.3673,180.661,199.9028,180.3857,199.8787,179.8787,199.9343,180.0128,200.3966,179.9291,200.6862,179.4281,201.1922,179.4498,201.6511,179.3576,202,179" style="stroke:#FF6F00;stroke-width:2;"/><polygon fill="#ADD1B2" points="223.0552,196.4324,221.5894,198.4353,219.8556,201.3688,217.376,203.3458,214.7703,204.4269,212.6927,204.5207,210.0224,203.1687,207.5029,202.2854,205.5905,200.492,204.5873,198.4389,203.9924,196.8041,203.4096,194.6688,202.4636,192.8313,203.1906,191.0373,203.8275,189.072,206.2175,187.5177,207.8991,185.501,209.9804,184.8313,212.4547,184.2546,215.6276,184.5972,217.3655,185.4168,219.3861,185.7884,221.8429,188.3054,222.6993,190.9627,223.0714,192.7758,222.65,195.7635" style="stroke:#181818;stroke-width:1;"/><path d="M214.8594,198.2344 Q214.4219,198.4531 213.9219,198.5625 Q213.4375,198.6875 212.9063,198.6875 Q210.9844,198.6875 209.9688,197.4219 Q208.9688,196.1563 208.9688,193.7656 Q208.9688,191.375 209.9688,190.1094 Q210.9844,188.8438 212.9063,188.8438 Q213.4375,188.8438 213.9375,188.9688 Q214.4375,189.0781 214.8594,189.3125 L214.8594,191.3906 Q214.375,190.9531 213.9219,190.75 Q213.4688,190.5313 212.9844,190.5313 Q211.9688,190.5313 211.4375,191.3594 Q210.9063,192.1719 210.9063,193.7656 Q210.9063,195.375 211.4375,196.1875 Q211.9688,197 212.9844,197 Q213.4688,197 213.9219,196.7969 Q214.375,196.5938 214.8594,196.1406 L214.8594,198.2344 Z " fill="#FFFFFF"/><text fill="#FFFFFF" font-family="'Roboto'" font-size="13" lengthAdjust="spacing" textLength="0" x="228" y="189">StoryConceptRelationship</text></g><!--reverse link Term to BusinessTerm--><g class="link" data-entity-1="ent0007" data-entity-2="ent0008" data-link-type="extension" data-source-line="74" id="lnk12"><path d="M205.3236,393.9315 L205.3892,393.9981 L210.8316,399.3581 L216.6585,405.1081 L222.3601,410.7311 L227.6501,415.9365 L233.51,421.72" fill="none" style="stroke:#FF6F00;stroke-width:2;"/><polygon fill="none" points="192.5,381.3,192.5624,381.3318,194.0996,384.6185,196.0026,388.0917,197.7865,391.5041,199.1786,394.7169,201.1131,398.2061,201.0946,398.1879,202.696,396.3965,204.3904,394.6967,206.1495,393.0607,207.6857,391.2051,209.5341,389.657,209.6154,389.8227,206.0347,387.797,202.6914,386.255,199.3771,384.7721,195.8942,382.9457,192.5,381.3" style="stroke:#FF6F00;stroke-width:2;"/></g><!--reverse link Term to TechnicalTerm--><g class="link" data-entity-1="ent0007" data-entity-2="ent0009" data-link-type="extension" data-source-line="75" id="lnk13"><path d="M178,399.3 L178.0934,399.3 L177.8159,403.784 L178.0859,408.268 L178.1776,412.752 L177.6829,417.236 L178,421.72" fill="none" style="stroke:#FF6F00;stroke-width:2;"/><polygon fill="none" points="178,381.3,178.0665,381.3222,176.669,384.8563,175.6611,388.5204,174.5264,392.1421,172.9744,395.6248,172,399.3,172,399.2741,174.4,399.1578,176.8,399.1722,179.2,399.2773,181.6,399.0695,184,399.3,184.1751,399.3584,182.6007,395.6336,181.5375,392.0792,180.5366,388.5455,179.1729,384.891,178,381.3" style="stroke:#FF6F00;stroke-width:2;"/></g><!--link Story to UseCase--><g class="link" data-entity-1="ent0002" data-entity-2="ent0003" data-link-type="dependency" data-source-line="78" id="lnk14"><path d="M103.71,123.25 L103.8945,123.4609 L95.992,129.2693 L89.1714,136.314 L81.9984,142.9561 L73.6669,148.2743 L66.8709,155.3472 L59.2105,161.4322 L51.894,167.9104 L44.8766,174.7302" fill="none" style="stroke:#FF6F00;stroke-width:2;"/><polygon fill="#FF6F00" points="40.36,178.68,40.3807,178.7469,42.2007,177.9654,44.1423,177.5761,46.0442,177.0591,47.8161,176.122,49.768,175.7664,49.7663,175.7406,48.6297,175.549,47.5018,175.4877,46.38,175.517,45.2373,175.2342,44.1238,175.3885,44.3079,175.4009,43.9898,174.2457,44.2092,173.1264,44.4942,172.0116,44.3976,170.8712,44.5017,169.7443,44.5223,169.7539,43.6637,171.527,42.899,173.3436,42.089,175.1392,41.3655,176.975,40.36,178.68" style="stroke:#FF6F00;stroke-width:2;"/><text fill="#333333" font-family="'Roboto'" font-size="13" lengthAdjust="spacing" textLength="0" x="84" y="146">:useCase</text><text fill="#333333" font-family="'Roboto'" font-size="13" lengthAdjust="spacing" textLength="0" x="92.7936" y="115.2719">0..*</text><text fill="#333333" font-family="'Roboto'" font-size="13" lengthAdjust="spacing" textLength="0" x="43.2963" y="159.0075">1</text></g><!--link Story to Persona--><g class="link" data-entity-1="ent0002" data-entity-2="ent0004" data-link-type="dependency" data-source-line="81" id="lnk15"><path d="M114.57,123.25 L114.8319,123.3498 L110.2574,133.0181 L107.2181,143.2713 L103.6788,153.3341 L98.4956,162.7705 L95.5881,173.0739" fill="none" style="stroke:#FF6F00;stroke-width:2;"/><polygon fill="#FF6F00" points="93.45,178.68,93.4997,178.7294,94.741,177.1859,96.2735,175.9319,97.7112,174.5837,98.837,172.9253,100.3945,171.6962,100.3839,171.6726,99.3039,172.0289,98.2772,172.5043,97.2876,173.0627,96.1701,173.3355,95.2317,174.0082,95.4002,174.0837,94.5776,172.8898,94.2468,171.9162,93.9759,170.9694,93.356,169.8663,92.9197,168.8454,92.9424,168.8467,93.0151,170.8118,93.1912,172.7825,93.3175,174.7505,93.5389,176.7236,93.45,178.68" style="stroke:#FF6F00;stroke-width:2;"/><text fill="#333333" font-family="'Roboto'" font-size="13" lengthAdjust="spacing" textLength="0" x="110" y="146">:playedBy</text></g><!--link Story to Outcome--><g class="link" data-entity-1="ent0002" data-entity-2="ent0005" data-link-type="dependency" data-source-line="82" id="lnk16"><path d="M125.43,123.25 L125.6919,123.3497 L128.7088,133.0179 L133.2609,143.2708 L137.3131,153.3333 L139.7212,162.7696 L144.4051,173.0727" fill="none" style="stroke:#FF6F00;stroke-width:2;"/><polygon fill="#FF6F00" points="146.54,178.68,146.61,178.6838,146.5093,176.7056,146.8187,174.7498,146.9945,172.7867,146.7312,170.7996,147.0758,168.8457,147.0522,168.8351,146.4831,169.8199,146.0332,170.858,145.6661,171.9333,145.0136,172.8806,144.7609,174.0072,144.8364,174.1756,143.6426,173.3525,142.6693,173.0211,141.7229,172.7496,140.62,172.1292,139.5994,171.6923,139.6155,171.7083,140.98,173.0823,142.4179,174.5293,143.8203,175.9411,145.2904,177.42,146.54,178.68" style="stroke:#FF6F00;stroke-width:2;"/><text fill="#333333" font-family="'Roboto'" font-size="13" lengthAdjust="spacing" textLength="0" x="142" y="146">:contributesTo</text></g><!--link Story to StoryConceptRelationship--><g class="link" data-entity-1="ent0002" data-entity-2="ent0011" data-link-type="dependency" data-source-line="85" id="lnk17"><path d="M136.29,123.25 L136.4745,123.4609 L143.2804,129.2693 L151.1681,136.314 L158.7035,142.9561 L165.0803,148.2743 L172.9927,155.3472 L180.0406,161.4322 L187.4325,167.9104 L195.1234,174.7302" fill="none" style="stroke:#FF6F00;stroke-width:2;"/><polygon fill="#FF6F00" points="199.64,178.68,199.7036,178.7095,198.6864,176.8348,198.0418,175.1328,197.2759,173.3746,196.1109,171.4314,195.4983,169.7443,195.4725,169.7426,195.4321,170.8637,195.5219,171.9935,195.7024,173.1293,195.5707,174.2443,195.8762,175.3885,195.8885,175.5727,194.7333,175.2545,193.6141,175.4739,192.4993,175.7589,191.3589,175.6623,190.232,175.7664,190.2387,175.7881,192.1104,176.3389,194.0128,176.9887,195.9004,177.5907,197.8162,178.2838,199.64,178.68" style="stroke:#FF6F00;stroke-width:2;"/><text fill="#333333" font-family="'Roboto'" font-size="13" lengthAdjust="spacing" textLength="0" x="180" y="146">:storyConcept</text><text fill="#333333" font-family="'Roboto'" font-size="13" lengthAdjust="spacing" textLength="0" x="139.2022" y="132.8984">0..*</text><text fill="#333333" font-family="'Roboto'" font-size="13" lengthAdjust="spacing" textLength="0" x="191.3287" y="159.0075">1</text></g><!--link StoryConceptRelationship to Concept--><g class="link" data-entity-1="ent0011" data-entity-2="ent0006" data-link-type="dependency" data-source-line="86" id="lnk18"><path d="M216,209.25 L216.2802,209.25 L215.4476,219.136 L216.2577,229.022 L216.5329,238.908 L215.0488,248.794 L216,258.68" fill="none" style="stroke:#FF6F00;stroke-width:2;"/><polygon fill="#FF6F00" points="216,264.68,216.064,264.7085,216.6738,262.8239,217.6589,261.1062,218.5217,259.3341,218.9827,257.3834,220,255.68,219.9817,255.6617,219.0995,256.3795,218.3096,257.1896,217.5839,258.0639,216.637,258.717,216,259.68,216.1305,259.8105,215.0514,258.7314,214.3534,258.0334,213.7018,257.3818,212.7798,256.4598,212,255.68,212.0208,255.6892,212.7903,257.4757,213.6544,259.3042,214.4728,261.1124,215.3784,262.9593,216,264.68" style="stroke:#FF6F00;stroke-width:2;"/><text fill="#333333" font-family="'Roboto'" font-size="13" lengthAdjust="spacing" textLength="0" x="219" y="232">:concept</text></g><!--reverse link Concept to Term--><g class="link" data-entity-1="ent0006" data-entity-2="ent0007" data-link-type="composition" data-source-line="87" id="lnk19"><path d="M204.6094,306.1858 L204.8648,306.3013 L200.0802,314.8569 L196.7925,324.0897 L193.0173,333.102 L187.6393,341.3891 L184.48,350.68" fill="none" style="stroke:#FF6F00;stroke-width:2;"/><polygon fill="#FF6F00" points="209.55,295.25,209.5871,295.3094,208.2537,295.8971,207.1379,296.8331,205.9513,297.6556,204.5316,298.1052,203.4345,299.071,203.4089,299.0668,203.5292,300.4708,203.7783,301.8961,204.117,303.3362,204.1471,304.7253,204.6094,306.1858,204.7072,306.3423,205.7212,305.2434,207.0207,304.6014,208.3551,304.0153,209.4867,303.1047,210.725,302.3647,210.7474,302.3684,210.4795,300.9401,210.3137,299.5285,210.0986,298.1089,209.9776,296.7048,209.55,295.25" style="stroke:#FF6F00;stroke-width:2;"/><text fill="#333333" font-family="'Roboto'" font-size="13" lengthAdjust="spacing" textLength="0" x="204" y="318">:term</text><text fill="#333333" font-family="'Roboto'" font-size="13" lengthAdjust="spacing" textLength="0" x="204.6453" y="304.8984">1</text><text fill="#333333" font-family="'Roboto'" font-size="13" lengthAdjust="spacing" textLength="0" x="184.02" y="331.0075">1..*</text></g><!--link Concept to BusinessTerm--><g class="link" data-entity-1="ent0006" data-entity-2="ent0008" data-link-type="dependency" data-source-line="88" id="lnk20"><path d="M218.95,295.3 L219.2245,295.3567 L220.4829,305.2345 L223.3502,315.4444 L225.6936,325.5462 L226.3141,335.2923 L229.2181,345.5098 L230.8366,355.462 L232.9666,365.5197 L235.4523,375.6509 L236.7124,385.5291 L240.4121,395.9108 L240.94,405.6378 L243.8369,415.8539" fill="none" style="stroke:#FF6F00;stroke-width:2;"/><polygon fill="#FF6F00" points="245.05,421.73,245.1185,421.7449,245.3346,419.776,245.9521,417.8946,246.4388,415.9847,246.4959,413.9811,247.1478,412.1072,247.1262,412.0929,246.4073,412.9742,245.7975,413.9273,245.2636,414.9303,244.4683,415.7614,244.0391,416.8333,244.1405,416.9874,242.9784,416.036,242.1124,415.5347,241.2826,415.0883,240.2425,414.3224,239.313,413.7246,239.3315,413.7378,240.4517,415.3195,241.6562,416.9614,242.82,418.5743,244.0613,420.2426,245.05,421.73" style="stroke:#FF6F00;stroke-width:2;"/><text fill="#333333" font-family="'Roboto'" font-size="13" lengthAdjust="spacing" textLength="0" x="240" y="361">:labelTerm</text><text fill="#333333" font-family="'Roboto'" font-size="13" lengthAdjust="spacing" textLength="0" x="217.2766" y="304.9656">0..1</text><text fill="#333333" font-family="'Roboto'" font-size="13" lengthAdjust="spacing" textLength="0" x="241.3484" y="402.0747">1</text></g><!--link WorkflowDefinition to Story--><g class="link" data-entity-1="ent0010" data-entity-2="ent0002" data-link-type="dependency" data-source-line="91" id="lnk21"><path d="M120,37.25 L120.2802,37.25 L119.4476,47.136 L120.2577,57.022 L120.5329,66.908 L119.0488,76.794 L120,86.68" fill="none" style="stroke:#FF6F00;stroke-width:2;"/><polygon fill="#FF6F00" points="120,92.68,120.064,92.7085,120.6738,90.8239,121.6589,89.1062,122.5217,87.3341,122.9827,85.3834,124,83.68,123.9817,83.6617,123.0995,84.3795,122.3096,85.1896,121.5839,86.0639,120.637,86.717,120,87.68,120.1305,87.8105,119.0514,86.7314,118.3534,86.0334,117.7018,85.3818,116.7798,84.4598,116,83.68,116.0208,83.6892,116.7903,85.4757,117.6544,87.3042,118.4728,89.1124,119.3784,90.9593,120,92.68" style="stroke:#FF6F00;stroke-width:2;"/><text fill="#333333" font-family="'Roboto'" font-size="13" lengthAdjust="spacing" textLength="0" x="123" y="60">:steps</text></g><!--SRC=[hLLRQzim57xNhr2TXss5jCbwUIXZa4lRZNPnSLBAAAKezaaYOaj6aWbfj_y-NUnONbp6nlGIvJlVTtHkEJdWkQASuHLXoKPGfO1X9Gf01maiA0Cyl7x-DlWwUHw5js64xUcSzixwypEVChqSXPFn8FfUybeeTuFHpU3wSkTeZn96uyl8VmTt5elpHQ-tero5arc3O2dcx2Y3A0eVcfpA2v9hod8YI8Rd95ul1IzOCk8f5pfZmgGs0LC8lSCZdkKaLZWbMrueB44fofRISt17aaH3-AE7HSwVO23mkOTFLoJX6yDUa5I2P_copK6abAtlMM8lu6hVmd1nLgdK11tuMaAEJtsGyGGCUD845LnnfafFFNlyeenXGOfKuLTaQ1EI0GuYFkUA1wWMrZsmu9I-0EwVe9- -fu4GVAFzE8NN4izFvyGUvqHjKz01YeoaQBQYyPg1bBgu3QznIZJuYeQ_DQyneMZ8XQvbQV56gZJutbkJ6YWbwBpmQ-LRJMRxQLdupS3rBAt94ih2xldyntmQJqX55FonDlyluR-eievJyHmhZlKeAPxXX0g8pT91Ave0pY2RWv08kVu6KyN5Di14Odl3Zu_7CMSnvEfO6k2ue-FK3o-tJq-Lvbx2Y4YmglBkwme9tLXZRT8x_JPdn4hBko_D7TIc30iLyymzMjvz9NTGctBaA5PPtdrbzTcYd878hCnSV8tItzi4mq9IquYTq0Tgh_6AqPYaddiFgMWFNAmNAT-CpQgbfeEMkm_xWMrAQrjmji5b0I98YT7A5SthxhSOpOAssSiSOafI-k9Co8AVVdIxpHnhk9cKTXEgbTxL0YGlH0mIvvmoPIQrcg7tQfiR0RwvnfbUggdPuj9igm_8JMVGEpew372t-na7_M0dlC0NXRkQTnnLwjqUgq90AJMQQk8qFzV_Df0CjvwrcYfjrUKiVwPonjr_b9kRGkhLqXxCMnKq_gHdGsyIZQVg8HU4vLUGUUHG5pRestTjfJNDp6BDqJ7rwvZyrXXkIkQmwqSrINfZ2aLZcjj8KCk06NSkPviBvF8N]--></g></svg>