<svg xmlns="http://www.w3.org/2000/svg" xmlns:xlink="http://www.w3.org/1999/xlink" contentStyleType="text/css" data-diagram-type="STATE" height="616px" preserveAspectRatio="none" style="width:352px;height:616px;" version="1.1" viewBox="0 0 352 616" width="352px" zoomAndPan="magnify"><defs/><g><!--cluster Plan--><g class="cluster" data-qualified-name="Plan" data-source-line="77" id="ent0002"><path d="M10,23 L10,23.5605 L20,21.8951 L30,23.5154 L40,24.0658 L50,21.0976 L60,22.7928 L70,21.8627 L80,21.9773 L90,22.8182 L100,21.1563 L110,23 L113,26 L113.4921,26 L112.4398,29.2 L112.8242,32.4 L113.384,35.6 L112.9238,38.8 L113,42 L113,42.182 L103.3636,41.9148 L93.7273,42.4761 L84.0909,42.6377 L74.4545,43.5618 L64.8182,43.7895 L55.1818,43.8114 L45.5455,42.679 L35.9091,43.2362 L26.2727,43.8726 L16.6364,40.0768 L7,42 L7.6031,42 L6.7364,38.8 L7.4745,35.6 L6.56,32.4 L6.9391,29.2 L7,26 L10,23" fill="#4051B5"/><polygon fill="none" points="10,23,10,23.2102,20,22.5857,30,23.1933,40,23.3997,50,22.2866,60,22.9223,70,22.5735,80,22.6165,90,22.9318,100,22.3086,110,23,110.0706,23.1705,110.3439,22.9816,110.8233,23.2906,111.3279,23.6602,111.6861,23.6765,112.1213,23.8787,112.1423,23.8874,112.2872,24.2989,112.5278,24.75,112.7222,25.182,113.0046,25.6504,113,26,113.6711,26,113.6793,36.0172,113.2546,46.0345,113.4636,56.0517,113.7022,66.069,112.2788,76.0862,113.6785,86.1034,112.7035,96.1207,113.5338,106.1379,112.505,116.1552,112.9315,126.1724,113.7416,136.1897,112.9513,146.2069,113.1053,156.2241,113.3386,166.2414,113.4162,176.2586,112.9961,186.2759,113.2872,196.2931,112.4276,206.3103,113.2844,216.3276,113.5482,226.3448,113.4445,236.3621,113.613,246.3793,112.5169,256.3966,112.3478,266.4138,112.3786,276.431,112.9411,286.4483,112.8035,296.4655,113.6814,306.4828,112.8253,316.5,112.6569,326.5172,113.2283,336.5345,112.3332,346.5517,112.4809,356.569,113.649,366.5862,113.4357,376.6034,113.7345,386.6207,112.6782,396.6379,113.3192,406.6552,113.5904,416.6724,112.5276,426.6897,112.9041,436.7069,113.126,446.7241,113.6518,456.7414,112.9958,466.7586,113.4626,476.7759,112.4462,486.7931,112.3227,496.8103,113.5036,506.8276,112.2831,516.8448,113.509,526.8621,113.2066,536.8793,112.7321,546.8966,112.6462,556.9138,113.4588,566.931,112.7007,576.9483,113.5919,586.9655,112.4473,596.9828,113,607,113.1901,607.0788,112.9734,607.486,112.724,607.8798,112.4873,608.2788,112.5208,608.7897,112.1213,609.1213,112.1996,609.3103,111.7186,609.3492,111.307,609.5554,110.8319,609.6084,110.5157,610.0449,110,610,110,610.1549,100,610.1726,90,609.3916,80,609.5948,70,610.5307,60,610.4298,50,609.9571,40,609.6778,30,609.7811,20,609.3138,10,610,10.0529,610.1277,9.6701,610.052,9.2186,609.8106,8.8159,609.6868,8.2855,609.2549,7.8787,609.1213,7.9055,609.1324,7.5836,608.6476,7.6147,608.309,7.4275,607.88,7.3458,607.4947,7,607,6.7703,607,6.8656,596.9828,7.4435,586.9655,7.5673,576.9483,6.4875,566.931,6.8061,556.9138,7.1493,546.8966,6.3892,536.8793,7.3534,526.8621,7.258,516.8448,6.8992,506.8276,7.1422,496.8103,7.7287,486.7931,6.6871,476.7759,7.315,466.7586,7.2856,456.7414,7.1158,446.7241,7.1409,436.7069,7.1135,426.6897,6.3758,416.6724,6.5992,406.6552,6.5385,396.6379,7.0638,386.6207,7.0881,376.6034,7.1617,366.5862,6.709,356.569,6.9325,346.5517,6.8798,336.5345,7.5769,326.5172,7.4266,316.5,6.5145,306.4828,6.9271,296.4655,6.4228,286.4483,7.2884,276.431,7.6085,266.4138,7.5446,256.3966,6.5644,246.3793,7.464,236.3621,6.2572,226.3448,7.2002,216.3276,6.7007,206.3103,7.0967,196.2931,7.2403,186.2759,7.4721,176.2586,6.2801,166.2414,7.4755,156.2241,7.1782,146.2069,7.3553,136.1897,7.7478,126.1724,7.0055,116.1552,7.1753,106.1379,7.2134,96.1207,7.1972,86.1034,6.9992,76.0862,7.7107,66.069,6.3903,56.0517,7.5653,46.0345,6.376,36.0172,7,26,6.8336,25.9311,7.1881,25.5808,7.3602,25.1551,7.3754,24.6643,7.8304,24.3557,7.8787,23.8787,7.8926,23.9122,8.3956,23.9267,8.8123,23.7326,9.0943,23.2134,9.525,23.0532,10,23" style="stroke:#FF6F00;stroke-width:2;"/><path d="M7,42 L7,42.2802 L16.6364,41.4476 L26.2727,42.2577 L35.9091,42.5329 L45.5455,41.0488 L55.1818,41.8964 L64.8182,41.4313 L74.4545,41.4887 L84.0909,41.9091 L93.7273,41.0782 L103.3636,42.7382 L113,42" fill="#4051B5" style="stroke:#FF6F00;stroke-width:2;"/><text fill="#FFFFFF" font-family="'Roboto'" font-size="13" lengthAdjust="spacing" textLength="0" x="60" y="29">Plan</text></g><!--cluster Build--><g class="cluster" data-qualified-name="Build" data-source-line="105" id="ent0007"><path d="M266,7 L266,7.5605 L275.5,5.8951 L285,7.5154 L294.5,8.0658 L304,5.0976 L313.5,6.7928 L323,5.8627 L332.5,5.9773 L342,7 L345,10 L344.9394,10 L344.3854,13.2 L345.4921,16.4 L344.4398,19.6 L344.8242,22.8 L345,26 L345,27.1519 L334.75,25.7713 L324.5,26.182 L314.25,25.9148 L304,26.4761 L293.75,26.6377 L283.5,27.5618 L273.25,27.7895 L263,26 L263.6038,26 L263.2263,22.8 L263.4121,19.6 L263.6242,16.4 L262.3589,13.2 L263,10 L266,7" fill="#4051B5"/><polygon fill="none" points="266,7,266,7.2102,275.5,6.5857,285,7.1933,294.5,7.3997,304,6.2866,313.5,6.9223,323,6.5735,332.5,6.6165,342,7,341.9913,6.979,342.3361,6.9628,342.9192,7.522,343.1924,7.3331,343.6718,7.642,344.1213,7.8787,344.2543,7.9338,344.2706,8.292,344.4938,8.7359,344.6387,9.1474,344.8792,9.5985,345,10,345.2391,10,345.5857,19.9138,345.6711,29.8276,345.6793,39.7414,345.2546,49.6552,345.4636,59.569,345.7022,69.4828,344.2788,79.3966,345.6785,89.3103,344.7035,99.2241,345.5338,109.1379,344.505,119.0517,344.9315,128.9655,345.7416,138.8793,344.9513,148.7931,345.1053,158.7069,345.3386,168.6207,345.4162,178.5345,344.9961,188.4483,345.2872,198.3621,344.4276,208.2759,345.2844,218.1897,345.5482,228.1034,345.4445,238.0172,345.613,247.931,344.5169,257.8448,344.3478,267.7586,344.3786,277.6724,344.9411,287.5862,344.8035,297.5,345.6814,307.4138,344.8253,317.3276,344.6569,327.2414,345.2283,337.1552,344.3332,347.069,344.4809,356.9828,345.649,366.8966,345.4357,376.8103,345.7345,386.7241,344.6782,396.6379,345.3192,406.5517,345.5904,416.4655,344.5276,426.3793,344.9041,436.2931,345.126,446.2069,345.6518,456.1207,344.9958,466.0345,345.4626,475.9483,344.4462,485.8621,344.3227,495.7759,345.5036,505.6897,344.2831,515.6034,345.509,525.5172,345.2066,535.431,344.7321,545.3448,344.6462,555.2586,345.4588,565.1724,344.7007,575.0862,345,585,345.1823,585.0755,344.654,585.3538,344.8387,585.9273,344.6219,586.3346,344.3725,586.7283,344.1213,587.1213,344.1273,587.1359,343.7897,587.5208,343.3511,587.6617,342.8701,587.7007,342.4585,587.9069,342,588,342,587.8697,332.5,588.7165,323,588.1549,313.5,588.1726,304,587.3916,294.5,587.5948,285,588.5307,275.5,588.4298,266,588,265.9945,587.9868,265.5346,587.725,265.1235,587.5811,264.6397,587.2615,264.3558,587.4248,263.8787,587.1213,264.1064,587.2157,263.8651,586.7642,263.7412,586.3614,263.3094,585.8311,263.2026,585.4354,263,585,262.6124,585,263.284,575.0862,263.2468,565.1724,263.5524,555.2586,262.7703,545.3448,262.8656,535.431,263.4435,525.5172,263.5673,515.6034,262.4875,505.6897,262.8061,495.7759,263.1493,485.8621,262.3892,475.9483,263.3534,466.0345,263.258,456.1207,262.8992,446.2069,263.1422,436.2931,263.7287,426.3793,262.6871,416.4655,263.315,406.5517,263.2856,396.6379,263.1158,386.7241,263.1409,376.8103,263.1135,366.8966,262.3758,356.9828,262.5992,347.069,262.5385,337.1552,263.0638,327.2414,263.0881,317.3276,263.1617,307.4138,262.709,297.5,262.9325,287.5862,262.8798,277.6724,263.5769,267.7586,263.4266,257.8448,262.5145,247.931,262.9271,238.0172,262.4228,228.1034,263.2884,218.1897,263.6085,208.2759,263.5446,198.3621,262.5644,188.4483,263.464,178.5345,262.2572,168.6207,263.2002,158.7069,262.7007,148.7931,263.0967,138.8793,263.2403,128.9655,263.4721,119.0517,262.2801,109.1379,263.4755,99.2241,263.1782,89.3103,263.3553,79.3966,263.7478,69.4828,263.0055,59.569,263.1753,49.6552,263.2134,39.7414,263.1972,29.8276,262.9992,19.9138,263,10,263.2189,10.0907,262.988,9.498,263.5256,9.2236,263.335,8.6476,263.5365,8.234,263.8787,7.8787,263.8838,7.891,264.3066,7.7117,264.6643,7.3754,265.2042,7.4789,265.5896,7.2093,266,7" style="stroke:#FF6F00;stroke-width:2;"/><path d="M263,26 L263,26.2802 L273.25,25.4476 L283.5,26.2577 L293.75,26.5329 L304,25.0488 L314.25,25.8964 L324.5,25.4313 L334.75,25.4887 L345,26" fill="#4051B5" style="stroke:#FF6F00;stroke-width:2;"/><text fill="#FFFFFF" font-family="'Roboto'" font-size="13" lengthAdjust="spacing" textLength="0" x="304" y="13">Build</text></g><!--cluster Run--><g class="cluster" data-qualified-name="Run" data-source-line="129" id="ent0013"><path d="M160,7 L160,7.5605 L169.5,5.8951 L179,7.5154 L188.5,8.0658 L198,5.0976 L207.5,6.7928 L217,5.8627 L226.5,5.9773 L236,7 L239,10 L238.9394,10 L238.3854,13.2 L239.4921,16.4 L238.4398,19.6 L238.8242,22.8 L239,26 L239,27.1519 L228.75,25.7713 L218.5,26.182 L208.25,25.9148 L198,26.4761 L187.75,26.6377 L177.5,27.5618 L167.25,27.7895 L157,26 L157.6038,26 L157.2263,22.8 L157.4121,19.6 L157.6242,16.4 L156.3589,13.2 L157,10 L160,7" fill="#4051B5"/><polygon fill="none" points="160,7,160,7.2102,169.5,6.5857,179,7.1933,188.5,7.3997,198,6.2866,207.5,6.9223,217,6.5735,226.5,6.6165,236,7,235.9913,6.979,236.3361,6.9628,236.9192,7.522,237.1924,7.3331,237.6718,7.642,238.1213,7.8787,238.2543,7.9338,238.2706,8.292,238.4938,8.7359,238.6387,9.1474,238.8792,9.5985,239,10,239.2391,10,239.5857,19.9565,239.6711,29.913,239.6793,39.8696,239.2546,49.8261,239.4636,59.7826,239.7022,69.7391,238.2788,79.6957,239.6785,89.6522,238.7035,99.6087,239.5338,109.5652,238.505,119.5217,238.9315,129.4783,239.7416,139.4348,238.9513,149.3913,239.1053,159.3478,239.3386,169.3043,239.4162,179.2609,238.9961,189.2174,239.2872,199.1739,238.4276,209.1304,239.2844,219.087,239.5482,229.0435,239.4445,239,239.613,248.9565,238.5169,258.913,238.3478,268.8696,238.3786,278.8261,238.9411,288.7826,238.8035,298.7391,239.6814,308.6957,238.8253,318.6522,238.6569,328.6087,239.2283,338.5652,238.3332,348.5217,238.4809,358.4783,239.649,368.4348,239.4357,378.3913,239.7345,388.3478,238.6782,398.3043,239.3192,408.2609,239.5904,418.2174,238.5276,428.1739,238.9041,438.1304,239.126,448.087,239.6518,458.0435,239,468,238.9987,467.9995,238.9667,468.4833,238.478,468.7779,238.2642,469.1864,238.4521,469.7613,238.1213,470.1213,238.0299,469.9005,237.762,470.4538,237.2992,470.5364,236.8144,470.566,236.3791,470.7153,236,471,236,471.4588,226.5,470.7007,217,471.5919,207.5,470.4473,198,471.6174,188.5,471.4843,179,471.245,169.5,471.0472,160,471,160.0927,471.2238,159.654,471.0132,159.1731,470.7007,158.7614,470.5554,158.2863,470.2569,157.8787,470.1213,158.0993,470.2127,157.7506,469.7168,157.5804,469.2948,157.1641,468.7709,157.0509,468.3726,157,468,157.5307,468,157.4298,458.0435,156.9571,448.087,156.6778,438.1304,156.7811,428.1739,156.3138,418.2174,157.4147,408.2609,157.7396,398.3043,157.5264,388.3478,157.6949,378.3913,156.8633,368.4348,157.0872,358.4783,156.6124,348.5217,157.284,338.5652,157.2468,328.6087,157.5524,318.6522,156.7703,308.6957,156.8656,298.7391,157.4435,288.7826,157.5673,278.8261,156.4875,268.8696,156.8061,258.913,157.1493,248.9565,156.3892,239,157.3534,229.0435,157.258,219.087,156.8992,209.1304,157.1422,199.1739,157.7287,189.2174,156.6871,179.2609,157.315,169.3043,157.2856,159.3478,157.1158,149.3913,157.1409,139.4348,157.1135,129.4783,156.3758,119.5217,156.5992,109.5652,156.5385,99.6087,157.0638,89.6522,157.0881,79.6957,157.1617,69.7391,156.709,59.7826,156.9325,49.8261,156.8798,39.8696,157.5769,29.913,157.4266,19.9565,157,10,156.8505,9.9381,157.1533,9.5664,157.1737,9.0778,157.616,8.764,157.8903,8.3806,157.8787,7.8787,157.9481,8.0464,158.2474,7.5688,158.7864,7.6701,159.0567,7.1227,159.6013,7.2374,160,7" style="stroke:#FF6F00;stroke-width:2;"/><path d="M157,26 L157,26.2802 L167.25,25.4476 L177.5,26.2577 L187.75,26.5329 L198,25.0488 L208.25,25.8964 L218.5,25.4313 L228.75,25.4887 L239,26" fill="#4051B5" style="stroke:#FF6F00;stroke-width:2;"/><text fill="#FFFFFF" font-family="'Roboto'" font-size="13" lengthAdjust="spacing" textLength="0" x="198" y="13">Run</text></g><g><polygon fill="#4051B5" points="34,149,34,149.0701,42.8,148.8619,51.6,149.0644,60.4,149.1332,69.2,148.7622,78,149,77.9901,148.9761,78.3699,149.0444,78.7996,149.2334,79.2641,149.5062,79.6089,149.49,80.1213,149.8787,80.2918,149.9493,80.103,150.2225,80.4119,150.702,80.7816,151.2066,80.7978,151.5648,81,152,81.0682,152,80.9681,162.3333,81.1785,172.6667,81.2391,183,81.5857,193.3333,81.6711,203.6667,81,214,81.2092,214.0866,80.9027,214.4567,80.7913,214.9077,80.6891,215.3624,80.075,215.6051,80.1213,216.1213,80.2079,216.3303,79.6592,216.2057,79.3409,216.6372,78.7854,216.4961,78.4155,216.8032,78,217,78,217.2472,69.2,216.9838,60.4,217.0351,51.6,217.1129,42.8,217.1387,34,217,33.9995,216.9988,33.6124,216.9127,33.0785,216.4722,32.7635,216.5604,32.3729,216.4659,31.8787,216.1213,32.0156,216.178,31.8917,215.7753,31.3784,215.2112,31.1506,214.7653,30.9844,214.345,31,214,30.9411,214,30.8035,203.6667,31.6814,193.3333,30.8253,183,30.6569,172.6667,31.2283,162.3333,31,152,30.7946,151.9149,31.0159,151.5095,31.5513,151.2343,31.6614,150.7828,31.9291,150.3966,31.8787,149.8787,31.8376,149.7796,32.3437,149.8012,32.8025,149.709,33.0912,149.206,33.5635,149.1462,34,149" style="stroke:#FF6F00;stroke-width:2;"/><path d="M31,173 L31,173.2802 L41,172.4476 L51,173.2577 L61,173.5329 L71,172.0488 L81,173" fill="#4051B5" style="stroke:#FF6F00;stroke-width:2;"/><text fill="#FFFFFF" font-family="'Roboto'" font-size="13" lengthAdjust="spacing" textLength="0" x="56" y="156">Envision</text><text fill="#FFFFFF" font-family="'Roboto'" font-size="13" lengthAdjust="spacing" textLength="0" x="38" y="180">- a shared strategy</text><text fill="#FFFFFF" font-family="'Roboto'" font-size="13" lengthAdjust="spacing" textLength="0" x="38" y="190">- EKG envisioning</text><text fill="#FFFFFF" font-family="'Roboto'" font-size="13" lengthAdjust="spacing" textLength="0" x="38" y="200">- EKG as a business enabler</text></g><g><polygon fill="#4051B5" points="34,258,34,258.0701,42.8,257.8619,51.6,258.0644,60.4,258.1332,69.2,257.7622,78,258,77.9901,257.9761,78.3699,258.0444,78.7996,258.2334,79.2641,258.5062,79.6089,258.49,80.1213,258.8787,80.2918,258.9493,80.103,259.2225,80.4119,259.702,80.7816,260.2066,80.7978,260.5648,81,261,81.0682,261,80.9681,271.2857,81.1785,281.5714,81.2391,291.8571,81.5857,302.1429,81.6711,312.4286,81.6793,322.7143,81,333,81.0784,333.0325,80.967,333.4834,80.8648,333.9381,80.2507,334.1808,80.506,334.7836,80.1213,335.1213,80.0835,335.03,79.7651,335.4614,79.2096,335.3203,78.8398,335.6274,78.5189,336.0526,78,336,78,335.9838,69.2,336.0351,60.4,336.1129,51.6,336.1387,42.8,335.9987,34,336,34.0366,336.0885,33.5027,335.648,33.1877,335.7361,32.7971,335.6416,32.3596,335.434,31.8787,335.1213,32.0675,335.1995,31.5542,334.6354,31.3264,334.1896,31.1601,333.7693,31.1576,333.4168,31,333,30.8035,333,31.6814,322.7143,30.8253,312.4286,30.6569,302.1429,31.2283,291.8571,30.3332,281.5714,30.4809,271.2857,31,261,31.1999,261.0828,31.3099,260.6313,31.5777,260.2452,31.4281,259.6862,31.8012,259.3437,31.8787,258.8787,31.954,259.0605,32.2427,258.5575,32.715,258.4977,33.1675,258.3903,33.6589,258.3765,34,258" style="stroke:#FF6F00;stroke-width:2;"/><path d="M31,282 L31,282.2802 L41,281.4476 L51,282.2577 L61,282.5329 L71,281.0488 L81,282" fill="#4051B5" style="stroke:#FF6F00;stroke-width:2;"/><text fill="#FFFFFF" font-family="'Roboto'" font-size="13" lengthAdjust="spacing" textLength="0" x="56" y="265">Discover</text><text fill="#FFFFFF" font-family="'Roboto'" font-size="13" lengthAdjust="spacing" textLength="0" x="38" y="289">- strategic use cases</text><text fill="#FFFFFF" font-family="'Roboto'" font-size="13" lengthAdjust="spacing" textLength="0" x="38" y="299">- initial use case tree</text><text fill="#FFFFFF" font-family="'Roboto'" font-size="13" lengthAdjust="spacing" textLength="0" x="38" y="309">- business knowledge</text><text fill="#FFFFFF" font-family="'Roboto'" font-size="13" lengthAdjust="spacing" textLength="0" x="38" y="319">- priorities &amp; outcomes</text></g><g><polygon fill="#4051B5" points="34,377,34,377.0701,42.8,376.8619,51.6,377.0644,60.4,377.1332,69.2,376.7622,78,377,77.9901,376.9761,78.3699,377.0444,78.7996,377.2334,79.2641,377.5062,79.6089,377.49,80.1213,377.8787,80.2918,377.9493,80.103,378.2225,80.4119,378.702,80.7816,379.2066,80.7978,379.5648,81,380,81.0682,380,80.9681,390.2857,81.1785,400.5714,81.2391,410.8571,81.5857,421.1429,81.6711,431.4286,81.6793,441.7143,81,452,81.0784,452.0325,80.967,452.4834,80.8648,452.9381,80.2507,453.1808,80.506,453.7836,80.1213,454.1213,80.0835,454.03,79.7651,454.4614,79.2096,454.3203,78.8398,454.6274,78.5189,455.0526,78,455,78,454.9838,69.2,455.0351,60.4,455.1129,51.6,455.1387,42.8,454.9987,34,455,34.0366,455.0885,33.5027,454.648,33.1877,454.7361,32.7971,454.6416,32.3596,454.434,31.8787,454.1213,32.0675,454.1995,31.5542,453.6354,31.3264,453.1896,31.1601,452.7693,31.1576,452.4168,31,452,30.8035,452,31.6814,441.7143,30.8253,431.4286,30.6569,421.1429,31.2283,410.8571,30.3332,400.5714,30.4809,390.2857,31,380,31.1999,380.0828,31.3099,379.6313,31.5777,379.2452,31.4281,378.6862,31.8012,378.3437,31.8787,377.8787,31.954,378.0605,32.2427,377.5575,32.715,377.4977,33.1675,377.3903,33.6589,377.3765,34,377" style="stroke:#FF6F00;stroke-width:2;"/><path d="M31,401 L31,401.2802 L41,400.4476 L51,401.2577 L61,401.5329 L71,400.0488 L81,401" fill="#4051B5" style="stroke:#FF6F00;stroke-width:2;"/><text fill="#FFFFFF" font-family="'Roboto'" font-size="13" lengthAdjust="spacing" textLength="0" x="56" y="384">Assess</text><text fill="#FFFFFF" font-family="'Roboto'" font-size="13" lengthAdjust="spacing" textLength="0" x="38" y="408">- current state</text><text fill="#FFFFFF" font-family="'Roboto'" font-size="13" lengthAdjust="spacing" textLength="0" x="38" y="418">- required next state</text><text fill="#FFFFFF" font-family="'Roboto'" font-size="13" lengthAdjust="spacing" textLength="0" x="38" y="428">- maturity (buss/org/data/tech)</text><text fill="#FFFFFF" font-family="'Roboto'" font-size="13" lengthAdjust="spacing" textLength="0" x="38" y="438">- scalability assessment</text></g><g><polygon fill="#4051B5" points="34,508,34,508.0701,42.8,507.8619,51.6,508.0644,60.4,508.1332,69.2,507.7622,78,508,77.9901,507.9761,78.3699,508.0444,78.7996,508.2334,79.2641,508.5062,79.6089,508.49,80.1213,508.8787,80.2918,508.9493,80.103,509.2225,80.4119,509.702,80.7816,510.2066,80.7978,510.5648,81,511,81.0682,511,80.9681,521.2857,81.1785,531.5714,81.2391,541.8571,81.5857,552.1429,81.6711,562.4286,81.6793,572.7143,81,583,81.0784,583.0325,80.967,583.4834,80.8648,583.9381,80.2507,584.1808,80.506,584.7836,80.1213,585.1213,80.0835,585.03,79.7651,585.4614,79.2096,585.3203,78.8398,585.6274,78.5189,586.0526,78,586,78,585.9838,69.2,586.0351,60.4,586.1129,51.6,586.1387,42.8,585.9987,34,586,34.0366,586.0885,33.5027,585.648,33.1877,585.7361,32.7971,585.6416,32.3596,585.434,31.8787,585.1213,32.0675,585.1995,31.5542,584.6354,31.3264,584.1896,31.1601,583.7693,31.1576,583.4168,31,583,30.8035,583,31.6814,572.7143,30.8253,562.4286,30.6569,552.1429,31.2283,541.8571,30.3332,531.5714,30.4809,521.2857,31,511,31.1999,511.0828,31.3099,510.6313,31.5777,510.2452,31.4281,509.6862,31.8012,509.3437,31.8787,508.8787,31.954,509.0605,32.2427,508.5575,32.715,508.4977,33.1675,508.3903,33.6589,508.3765,34,508" style="stroke:#FF6F00;stroke-width:2;"/><path d="M31,532 L31,532.2802 L41,531.4476 L51,532.2577 L61,532.5329 L71,531.0488 L81,532" fill="#4051B5" style="stroke:#FF6F00;stroke-width:2;"/><text fill="#FFFFFF" font-family="'Roboto'" font-size="13" lengthAdjust="spacing" textLength="0" x="56" y="515">Chart</text><text fill="#FFFFFF" font-family="'Roboto'" font-size="13" lengthAdjust="spacing" textLength="0" x="38" y="539">- viable roadmap</text><text fill="#FFFFFF" font-family="'Roboto'" font-size="13" lengthAdjust="spacing" textLength="0" x="38" y="549">- business case</text><text fill="#FFFFFF" font-family="'Roboto'" font-size="13" lengthAdjust="spacing" textLength="0" x="38" y="559">- stakeholder agreement</text><text fill="#FFFFFF" font-family="'Roboto'" font-size="13" lengthAdjust="spacing" textLength="0" x="38" y="569">- mandate</text></g><polygon fill="#222222" points="66.0552,76.4324,64.5894,78.4353,62.8556,81.3688,60.376,83.3458,57.7703,84.4269,55.6927,84.5207,53.0224,83.1687,50.5029,82.2854,48.5905,80.492,47.5873,78.4389,46.9924,76.8041,46.4096,74.6688,45.4636,72.8313,46.1906,71.0373,46.8275,69.072,49.2175,67.5177,50.8991,65.501,52.9804,64.8313,55.4547,64.2546,58.6276,64.5972,60.3655,65.4168,62.3861,65.7884,64.8429,68.3054,65.6993,70.9627,66.0714,72.7758,65.65,75.7635" style="stroke:#222222;stroke-width:1;"/><g><polygon fill="#4051B5" points="282,522,282,522.0701,290.8,521.8619,299.6,522.0644,308.4,522.1332,317.2,521.7622,326,522,325.9901,521.9761,326.3699,522.0444,326.7996,522.2334,327.2641,522.5062,327.6089,522.49,328.1213,522.8787,328.2918,522.9493,328.103,523.2225,328.4119,523.702,328.7816,524.2066,328.7978,524.5648,329,525,329.0227,525,328.9894,533.8,329.0595,542.6,329.0797,551.4,329.1952,560.2,329,569,329.2067,569.0856,329.0334,569.5109,328.7269,569.881,328.6156,570.3319,328.5133,570.7866,328.1213,571.1213,328.0293,570.8992,327.7836,571.506,327.235,571.3815,326.9166,571.8129,326.3611,571.6718,326,572,326,571.9772,317.2,572.2472,308.4,571.9838,299.6,572.0351,290.8,572.1129,282,572,282.0531,572.1282,281.5752,571.8231,281.1881,571.737,280.6542,571.2965,280.3392,571.3846,279.8787,571.1213,280.0475,571.1912,279.8398,570.7538,279.716,570.351,279.2027,569.7869,278.9749,569.3411,279,569,278.7929,569,278.9804,560.2,278.9345,551.4,279.2271,542.6,278.9418,533.8,279,525,278.8944,524.9562,279.246,524.6049,279.1461,524.0664,279.3673,523.661,279.9028,523.3857,279.8787,522.8787,279.9343,523.0128,280.3966,522.9291,280.6862,522.4281,281.1922,522.4498,281.6511,522.3576,282,522" style="stroke:#FF6F00;stroke-width:2;"/><path d="M279,546 L279,546.2802 L289,545.4476 L299,546.2577 L309,546.5329 L319,545.0488 L329,546" fill="#4051B5" style="stroke:#FF6F00;stroke-width:2;"/><text fill="#FFFFFF" font-family="'Roboto'" font-size="13" lengthAdjust="spacing" textLength="0" x="304" y="529">Allocate</text><text fill="#FFFFFF" font-family="'Roboto'" font-size="13" lengthAdjust="spacing" textLength="0" x="286" y="553">- budget &amp; team</text></g><g><polygon fill="#4051B5" points="282,391,282,391.0701,290.8,390.8619,299.6,391.0644,308.4,391.1332,317.2,390.7622,326,391,325.9901,390.9761,326.3699,391.0444,326.7996,391.2334,327.2641,391.5062,327.6089,391.49,328.1213,391.8787,328.2918,391.9493,328.103,392.2225,328.4119,392.702,328.7816,393.2066,328.7978,393.5648,329,394,329.0227,394,328.9894,402.8,329.0595,411.6,329.0797,420.4,329.1952,429.2,329,438,329.2067,438.0856,329.0334,438.5109,328.7269,438.881,328.6156,439.3319,328.5133,439.7866,328.1213,440.1213,328.0293,439.8992,327.7836,440.506,327.235,440.3815,326.9166,440.8129,326.3611,440.6718,326,441,326,440.9772,317.2,441.2472,308.4,440.9838,299.6,441.0351,290.8,441.1129,282,441,282.0531,441.1282,281.5752,440.8231,281.1881,440.737,280.6542,440.2965,280.3392,440.3846,279.8787,440.1213,280.0475,440.1912,279.8398,439.7538,279.716,439.351,279.2027,438.7869,278.9749,438.3411,279,438,278.7929,438,278.9804,429.2,278.9345,420.4,279.2271,411.6,278.9418,402.8,279,394,278.8944,393.9562,279.246,393.6049,279.1461,393.0664,279.3673,392.661,279.9028,392.3857,279.8787,391.8787,279.9343,392.0128,280.3966,391.9291,280.6862,391.4281,281.1922,391.4498,281.6511,391.3576,282,391" style="stroke:#FF6F00;stroke-width:2;"/><path d="M279,415 L279,415.2802 L289,414.4476 L299,415.2577 L309,415.5329 L319,414.0488 L329,415" fill="#4051B5" style="stroke:#FF6F00;stroke-width:2;"/><text fill="#FFFFFF" font-family="'Roboto'" font-size="13" lengthAdjust="spacing" textLength="0" x="304" y="398">Implement</text><text fill="#FFFFFF" font-family="'Roboto'" font-size="13" lengthAdjust="spacing" textLength="0" x="286" y="422">- detail the use case</text></g><g><polygon fill="#4051B5" points="282,268,282,268.0701,290.8,267.8619,299.6,268.0644,308.4,268.1332,317.2,267.7622,326,268,325.9901,267.9761,326.3699,268.0444,326.7996,268.2334,327.2641,268.5062,327.6089,268.49,328.1213,268.8787,328.2918,268.9493,328.103,269.2225,328.4119,269.702,328.7816,270.2066,328.7978,270.5648,329,271,329.0682,271,328.9681,281.4,329.1785,291.8,329.2391,302.2,329.5857,312.6,329,323,329.2067,323.0856,329.0334,323.5109,328.7269,323.881,328.6156,324.3319,328.5133,324.7866,328.1213,325.1213,328.0293,324.8992,327.7836,325.506,327.235,325.3815,326.9166,325.8129,326.3611,325.6718,326,326,326,325.9772,317.2,326.2472,308.4,325.9838,299.6,326.0351,290.8,326.1129,282,326,282.0531,326.1282,281.5752,325.8231,281.1881,325.737,280.6542,325.2965,280.3392,325.3846,279.8787,325.1213,280.0475,325.1912,279.8398,324.7538,279.716,324.351,279.2027,323.7869,278.9749,323.3411,279,323,278.3786,323,278.9411,312.6,278.8035,302.2,279.6814,291.8,278.8253,281.4,279,271,278.8944,270.9562,279.246,270.6049,279.1461,270.0664,279.3673,269.661,279.9028,269.3857,279.8787,268.8787,279.9343,269.0128,280.3966,268.9291,280.6862,268.4281,281.1922,268.4498,281.6511,268.3576,282,268" style="stroke:#FF6F00;stroke-width:2;"/><path d="M279,292 L279,292.2802 L289,291.4476 L299,292.2577 L309,292.5329 L319,291.0488 L329,292" fill="#4051B5" style="stroke:#FF6F00;stroke-width:2;"/><text fill="#FFFFFF" font-family="'Roboto'" font-size="13" lengthAdjust="spacing" textLength="0" x="304" y="275">Test</text><text fill="#FFFFFF" font-family="'Roboto'" font-size="13" lengthAdjust="spacing" textLength="0" x="286" y="299">- add test scenarios</text><text fill="#FFFFFF" font-family="'Roboto'" font-size="13" lengthAdjust="spacing" textLength="0" x="286" y="309">- full coverage</text></g><g><polygon fill="#4051B5" points="282,158,282,158.0701,290.8,157.8619,299.6,158.0644,308.4,158.1332,317.2,157.7622,326,158,325.9901,157.9761,326.3699,158.0444,326.7996,158.2334,327.2641,158.5062,327.6089,158.49,328.1213,158.8787,328.2918,158.9493,328.103,159.2225,328.4119,159.702,328.7816,160.2066,328.7978,160.5648,329,161,329.0227,161,328.9894,169.8,329.0595,178.6,329.0797,187.4,329.1952,196.2,329,205,329.2067,205.0856,329.0334,205.5109,328.7269,205.881,328.6156,206.3319,328.5133,206.7866,328.1213,207.1213,328.0293,206.8992,327.7836,207.506,327.235,207.3815,326.9166,207.8129,326.3611,207.6718,326,208,326,207.9772,317.2,208.2472,308.4,207.9838,299.6,208.0351,290.8,208.1129,282,208,282.0531,208.1282,281.5752,207.8231,281.1881,207.737,280.6542,207.2965,280.3392,207.3846,279.8787,207.1213,280.0475,207.1912,279.8398,206.7538,279.716,206.351,279.2027,205.7869,278.9749,205.3411,279,205,278.7929,205,278.9804,196.2,278.9345,187.4,279.2271,178.6,278.9418,169.8,279,161,278.8944,160.9562,279.246,160.6049,279.1461,160.0664,279.3673,159.661,279.9028,159.3857,279.8787,158.8787,279.9343,159.0128,280.3966,158.9291,280.6862,158.4281,281.1922,158.4498,281.6511,158.3576,282,158" style="stroke:#FF6F00;stroke-width:2;"/><path d="M279,182 L279,182.2802 L289,181.4476 L299,182.2577 L309,182.5329 L319,181.0488 L329,182" fill="#4051B5" style="stroke:#FF6F00;stroke-width:2;"/><text fill="#FFFFFF" font-family="'Roboto'" font-size="13" lengthAdjust="spacing" textLength="0" x="304" y="165">Verify</text><text fill="#FFFFFF" font-family="'Roboto'" font-size="13" lengthAdjust="spacing" textLength="0" x="286" y="189">- verify with business</text></g><g><polygon fill="#4051B5" points="282,40,282,40.0701,290.8,39.8619,299.6,40.0644,308.4,40.1332,317.2,39.7622,326,40,325.9901,39.9761,326.3699,40.0444,326.7996,40.2334,327.2641,40.5062,327.6089,40.49,328.1213,40.8787,328.2918,40.9493,328.103,41.2225,328.4119,41.702,328.7816,42.2066,328.7978,42.5648,329,43,329.0682,43,328.9681,53.3333,329.1785,63.6667,329.2391,74,329.5857,84.3333,329.6711,94.6667,329,105,329.2092,105.0866,328.9027,105.4567,328.7913,105.9077,328.6891,106.3624,328.075,106.6051,328.1213,107.1213,328.2079,107.3303,327.6592,107.2057,327.3409,107.6372,326.7854,107.4961,326.4155,107.8032,326,108,326,108.2472,317.2,107.9838,308.4,108.0351,299.6,108.1129,290.8,108.1387,282,108,281.9995,107.9988,281.6124,107.9127,281.0785,107.4722,280.7635,107.5604,280.3729,107.4659,279.8787,107.1213,280.0156,107.178,279.8917,106.7753,279.3784,106.2112,279.1506,105.7653,278.9844,105.345,279,105,278.9411,105,278.8035,94.6667,279.6814,84.3333,278.8253,74,278.6569,63.6667,279.2283,53.3333,279,43,278.7946,42.9149,279.0159,42.5095,279.5513,42.2343,279.6614,41.7828,279.9291,41.3966,279.8787,40.8787,279.8376,40.7796,280.3437,40.8012,280.8025,40.709,281.0912,40.206,281.5635,40.1462,282,40" style="stroke:#FF6F00;stroke-width:2;"/><path d="M279,64 L279,64.2802 L289,63.4476 L299,64.2577 L309,64.5329 L319,63.0488 L329,64" fill="#4051B5" style="stroke:#FF6F00;stroke-width:2;"/><text fill="#FFFFFF" font-family="'Roboto'" font-size="13" lengthAdjust="spacing" textLength="0" x="304" y="47">Deliver</text><text fill="#FFFFFF" font-family="'Roboto'" font-size="13" lengthAdjust="spacing" textLength="0" x="286" y="71">- continuously improve</text><text fill="#FFFFFF" font-family="'Roboto'" font-size="13" lengthAdjust="spacing" textLength="0" x="286" y="81">- deliver small increments</text><text fill="#FFFFFF" font-family="'Roboto'" font-size="13" lengthAdjust="spacing" textLength="0" x="286" y="91">- frequently</text></g><g><polygon fill="#4051B5" points="176,40,176,40.0701,184.8,39.8619,193.6,40.0644,202.4,40.1332,211.2,39.7622,220,40,219.9901,39.9761,220.3699,40.0444,220.7996,40.2334,221.2641,40.5062,221.6089,40.49,222.1213,40.8787,222.2918,40.9493,222.103,41.2225,222.4119,41.702,222.7816,42.2066,222.7978,42.5648,223,43,223.0682,43,222.9681,53.3333,223.1785,63.6667,223.2391,74,223.5857,84.3333,223.6711,94.6667,223,105,223.2092,105.0866,222.9027,105.4567,222.7913,105.9077,222.6891,106.3624,222.075,106.6051,222.1213,107.1213,222.2079,107.3303,221.6592,107.2057,221.3409,107.6372,220.7854,107.4961,220.4155,107.8032,220,108,220,108.2472,211.2,107.9838,202.4,108.0351,193.6,108.1129,184.8,108.1387,176,108,175.9995,107.9988,175.6124,107.9127,175.0785,107.4722,174.7635,107.5604,174.3729,107.4659,173.8787,107.1213,174.0156,107.178,173.8917,106.7753,173.3784,106.2112,173.1506,105.7653,172.9844,105.345,173,105,172.9411,105,172.8035,94.6667,173.6814,84.3333,172.8253,74,172.6569,63.6667,173.2283,53.3333,173,43,172.7946,42.9149,173.0159,42.5095,173.5513,42.2343,173.6614,41.7828,173.9291,41.3966,173.8787,40.8787,173.8376,40.7796,174.3437,40.8012,174.8025,40.709,175.0912,40.206,175.5635,40.1462,176,40" style="stroke:#FF6F00;stroke-width:2;"/><path d="M173,64 L173,64.2802 L183,63.4476 L193,64.2577 L203,64.5329 L213,63.0488 L223,64" fill="#4051B5" style="stroke:#FF6F00;stroke-width:2;"/><text fill="#FFFFFF" font-family="'Roboto'" font-size="13" lengthAdjust="spacing" textLength="0" x="198" y="47">Deploy</text><text fill="#FFFFFF" font-family="'Roboto'" font-size="13" lengthAdjust="spacing" textLength="0" x="180" y="71">- as "Infrastructure as Code"</text><text fill="#FFFFFF" font-family="'Roboto'" font-size="13" lengthAdjust="spacing" textLength="0" x="180" y="81">- "continuous deployment"</text><text fill="#FFFFFF" font-family="'Roboto'" font-size="13" lengthAdjust="spacing" textLength="0" x="180" y="91">- fully automated</text></g><g><polygon fill="#4051B5" points="176,258,176,258.0701,184.8,257.8619,193.6,258.0644,202.4,258.1332,211.2,257.7622,220,258,219.9901,257.9761,220.3699,258.0444,220.7996,258.2334,221.2641,258.5062,221.6089,258.49,222.1213,258.8787,222.2918,258.9493,222.103,259.2225,222.4119,259.702,222.7816,260.2066,222.7978,260.5648,223,261,223.0682,261,222.9681,271.2857,223.1785,281.5714,223.2391,291.8571,223.5857,302.1429,223.6711,312.4286,223.6793,322.7143,223,333,223.0784,333.0325,222.967,333.4834,222.8648,333.9381,222.2507,334.1808,222.506,334.7836,222.1213,335.1213,222.0835,335.03,221.7651,335.4614,221.2096,335.3203,220.8398,335.6274,220.5189,336.0526,220,336,220,335.9838,211.2,336.0351,202.4,336.1129,193.6,336.1387,184.8,335.9987,176,336,176.0366,336.0885,175.5027,335.648,175.1877,335.7361,174.7971,335.6416,174.3596,335.434,173.8787,335.1213,174.0675,335.1995,173.5542,334.6354,173.3264,334.1896,173.1601,333.7693,173.1576,333.4168,173,333,172.8035,333,173.6814,322.7143,172.8253,312.4286,172.6569,302.1429,173.2283,291.8571,172.3332,281.5714,172.4809,271.2857,173,261,173.1999,261.0828,173.3099,260.6313,173.5777,260.2452,173.4281,259.6862,173.8012,259.3437,173.8787,258.8787,173.954,259.0605,174.2427,258.5575,174.715,258.4977,175.1675,258.3903,175.6589,258.3765,176,258" style="stroke:#FF6F00;stroke-width:2;"/><path d="M173,282 L173,282.2802 L183,281.4476 L193,282.2577 L203,282.5329 L213,281.0488 L223,282" fill="#4051B5" style="stroke:#FF6F00;stroke-width:2;"/><text fill="#FFFFFF" font-family="'Roboto'" font-size="13" lengthAdjust="spacing" textLength="0" x="198" y="265">Measure</text><text fill="#FFFFFF" font-family="'Roboto'" font-size="13" lengthAdjust="spacing" textLength="0" x="180" y="289">- performance</text><text fill="#FFFFFF" font-family="'Roboto'" font-size="13" lengthAdjust="spacing" textLength="0" x="180" y="299">- availability</text><text fill="#FFFFFF" font-family="'Roboto'" font-size="13" lengthAdjust="spacing" textLength="0" x="180" y="309">- vulnerability</text><text fill="#FFFFFF" font-family="'Roboto'" font-size="13" lengthAdjust="spacing" textLength="0" x="180" y="319">- business outcome(s)</text></g><g><polygon fill="#4051B5" points="176,377,176,377.0701,184.8,376.8619,193.6,377.0644,202.4,377.1332,211.2,376.7622,220,377,219.9901,376.9761,220.3699,377.0444,220.7996,377.2334,221.2641,377.5062,221.6089,377.49,222.1213,377.8787,222.2918,377.9493,222.103,378.2225,222.4119,378.702,222.7816,379.2066,222.7978,379.5648,223,380,223.0682,380,222.9681,390.2857,223.1785,400.5714,223.2391,410.8571,223.5857,421.1429,223.6711,431.4286,223.6793,441.7143,223,452,223.0784,452.0325,222.967,452.4834,222.8648,452.9381,222.2507,453.1808,222.506,453.7836,222.1213,454.1213,222.0835,454.03,221.7651,454.4614,221.2096,454.3203,220.8398,454.6274,220.5189,455.0526,220,455,220,454.9838,211.2,455.0351,202.4,455.1129,193.6,455.1387,184.8,454.9987,176,455,176.0366,455.0885,175.5027,454.648,175.1877,454.7361,174.7971,454.6416,174.3596,454.434,173.8787,454.1213,174.0675,454.1995,173.5542,453.6354,173.3264,453.1896,173.1601,452.7693,173.1576,452.4168,173,452,172.8035,452,173.6814,441.7143,172.8253,431.4286,172.6569,421.1429,173.2283,410.8571,172.3332,400.5714,172.4809,390.2857,173,380,173.1999,380.0828,173.3099,379.6313,173.5777,379.2452,173.4281,378.6862,173.8012,378.3437,173.8787,377.8787,173.954,378.0605,174.2427,377.5575,174.715,377.4977,175.1675,377.3903,175.6589,377.3765,176,377" style="stroke:#FF6F00;stroke-width:2;"/><path d="M173,401 L173,401.2802 L183,400.4476 L193,401.2577 L203,401.5329 L213,400.0488 L223,401" fill="#4051B5" style="stroke:#FF6F00;stroke-width:2;"/><text fill="#FFFFFF" font-family="'Roboto'" font-size="13" lengthAdjust="spacing" textLength="0" x="198" y="384">Optimize</text><text fill="#FFFFFF" font-family="'Roboto'" font-size="13" lengthAdjust="spacing" textLength="0" x="180" y="408">- structural feedback loop</text><text fill="#FFFFFF" font-family="'Roboto'" font-size="13" lengthAdjust="spacing" textLength="0" x="180" y="418">- continuously improve</text><text fill="#FFFFFF" font-family="'Roboto'" font-size="13" lengthAdjust="spacing" textLength="0" x="180" y="428">- continuously update</text><text fill="#FFFFFF" font-family="'Roboto'" font-size="13" lengthAdjust="spacing" textLength="0" x="180" y="438">use case tree</text></g><g><polygon fill="#4051B5" points="176,158,176,158.0701,184.8,157.8619,193.6,158.0644,202.4,158.1332,211.2,157.7622,220,158,219.9901,157.9761,220.3699,158.0444,220.7996,158.2334,221.2641,158.5062,221.6089,158.49,222.1213,158.8787,222.2918,158.9493,222.103,159.2225,222.4119,159.702,222.7816,160.2066,222.7978,160.5648,223,161,223.0227,161,222.9894,169.8,223.0595,178.6,223.0797,187.4,223.1952,196.2,223,205,223.2067,205.0856,223.0334,205.5109,222.7269,205.881,222.6156,206.3319,222.5133,206.7866,222.1213,207.1213,222.0293,206.8992,221.7836,207.506,221.235,207.3815,220.9166,207.8129,220.3611,207.6718,220,208,220,207.9772,211.2,208.2472,202.4,207.9838,193.6,208.0351,184.8,208.1129,176,208,176.0531,208.1282,175.5752,207.8231,175.1881,207.737,174.6542,207.2965,174.3392,207.3846,173.8787,207.1213,174.0475,207.1912,173.8398,206.7538,173.716,206.351,173.2027,205.7869,172.9749,205.3411,173,205,172.7929,205,172.9804,196.2,172.9345,187.4,173.2271,178.6,172.9418,169.8,173,161,172.8944,160.9562,173.246,160.6049,173.1461,160.0664,173.3673,159.661,173.9028,159.3857,173.8787,158.8787,173.9343,159.0128,174.3966,158.9291,174.6862,158.4281,175.1922,158.4498,175.6511,158.3576,176,158" style="stroke:#FF6F00;stroke-width:2;"/><path d="M173,182 L173,182.2802 L183,181.4476 L193,182.2577 L203,182.5329 L213,181.0488 L223,182" fill="#4051B5" style="stroke:#FF6F00;stroke-width:2;"/><text fill="#FFFFFF" font-family="'Roboto'" font-size="13" lengthAdjust="spacing" textLength="0" x="198" y="165">Operate</text></g><!--link *start*Plan to Envision--><g class="link" data-entity-1="ent0002" data-entity-2="ent0003" data-link-type="dependency" data-source-line="79" id="lnk3"><path d="M56,84.5 L56.2802,84.5 L55.4476,94.2333 L56.2577,103.9667 L56.5329,113.7 L55.0488,123.4333 L55.8964,133.1667 L56,142.9" fill="none" style="stroke:#FF6F00;stroke-width:2;"/><polygon fill="#FF6F00" points="56,148.9,56.064,148.9285,56.6738,147.0439,57.6589,145.3262,58.5217,143.5541,58.9827,141.6034,60,139.9,59.9817,139.8817,59.0995,140.5995,58.3096,141.4096,57.5839,142.2839,56.637,142.937,56,143.9,56.1305,144.0305,55.0514,142.9514,54.3534,142.2534,53.7018,141.6018,52.7798,140.6798,52,139.9,52.0208,139.9092,52.7903,141.6957,53.6544,143.5242,54.4728,145.3324,55.3784,147.1793,56,148.9" style="stroke:#FF6F00;stroke-width:2;"/></g><!--link Envision to Discover--><g class="link" data-entity-1="ent0003" data-entity-2="ent0004" data-link-type="dependency" data-source-line="81" id="lnk4"><path d="M56,217.3 L56.0934,217.3 L55.8159,224.142 L56.0859,230.984 L56.1776,237.826 L55.6829,244.668 L56,251.51" fill="none" style="stroke:#FF6F00;stroke-width:2;"/><polygon fill="#FF6F00" points="56,257.51,56.064,257.5385,56.6738,255.6539,57.6589,253.9362,58.5217,252.1641,58.9827,250.2134,60,248.51,59.9817,248.4917,59.0995,249.2095,58.3096,250.0196,57.5839,250.8939,56.637,251.547,56,252.51,56.1305,252.6405,55.0514,251.5614,54.3534,250.8634,53.7018,250.2118,52.7798,249.2898,52,248.51,52.0208,248.5192,52.7903,250.3057,53.6544,252.1342,54.4728,253.9424,55.3784,255.7893,56,257.51" style="stroke:#FF6F00;stroke-width:2;"/></g><!--link Discover to Assess--><g class="link" data-entity-1="ent0004" data-entity-2="ent0005" data-link-type="dependency" data-source-line="82" id="lnk5"><path d="M56,336.31 L56.0934,336.31 L55.8159,343.168 L56.0859,350.026 L56.1776,356.884 L55.6829,363.742 L56,370.6" fill="none" style="stroke:#FF6F00;stroke-width:2;"/><polygon fill="#FF6F00" points="56,376.6,56.064,376.6285,56.6738,374.7439,57.6589,373.0262,58.5217,371.2541,58.9827,369.3034,60,367.6,59.9817,367.5817,59.0995,368.2995,58.3096,369.1096,57.5839,369.9839,56.637,370.637,56,371.6,56.1305,371.7305,55.0514,370.6514,54.3534,369.9534,53.7018,369.3018,52.7798,368.3798,52,367.6,52.0208,367.6092,52.7903,369.3957,53.6544,371.2242,54.4728,373.0324,55.3784,374.8793,56,376.6" style="stroke:#FF6F00;stroke-width:2;"/></g><!--link Assess to Chart--><g class="link" data-entity-1="ent0005" data-entity-2="ent0006" data-link-type="dependency" data-source-line="83" id="lnk6"><path d="M56,455.36 L56.2802,455.36 L55.4476,464.602 L56.2577,473.844 L56.5329,483.086 L55.0488,492.328 L56,501.57" fill="none" style="stroke:#FF6F00;stroke-width:2;"/><polygon fill="#FF6F00" points="56,507.57,56.064,507.5985,56.6738,505.7139,57.6589,503.9962,58.5217,502.2241,58.9827,500.2734,60,498.57,59.9817,498.5517,59.0995,499.2695,58.3096,500.0796,57.5839,500.9539,56.637,501.607,56,502.57,56.1305,502.7005,55.0514,501.6214,54.3534,500.9234,53.7018,500.2718,52.7798,499.3498,52,498.57,52.0208,498.5792,52.7903,500.3657,53.6544,502.1942,54.4728,504.0024,55.3784,505.8493,56,507.57" style="stroke:#FF6F00;stroke-width:2;"/></g><!--link Chart to Allocate--><g class="link" data-entity-1="ent0006" data-entity-2="ent0008" data-link-type="dependency" data-source-line="106" id="lnk7"><path d="M81.14,547 L81.14,547.2802 L91.2268,546.4476 L101.3137,547.2577 L111.4005,547.5329 L121.4874,546.0488 L131.5742,546.8964 L141.6611,546.4313 L151.7479,546.4887 L161.8347,546.9091 L171.9216,546.0782 L182.0084,547.7382 L192.0953,546.1596 L202.1821,546.7363 L212.2689,547.5759 L222.3558,546.8856 L232.4426,547.091 L242.5295,546.9574 L252.6163,547.238 L262.7032,547.3188 L272.79,547" fill="none" style="stroke:#FF6F00;stroke-width:2;"/><polygon fill="#FF6F00" points="278.79,547,278.8185,547.064,276.9339,546.0738,275.2162,545.4589,273.4441,544.7217,271.4934,543.5827,269.79,543,269.7717,542.9817,270.4895,543.6995,271.2996,544.5096,272.1739,545.3839,272.827,546.037,273.79,547,273.9205,547.1305,272.8414,547.6514,272.1434,548.5534,271.4918,549.5018,270.5698,550.1798,269.79,551,269.7992,551.0208,271.5857,550.1903,273.4142,549.4544,275.2224,548.6728,277.0693,547.9784,278.79,547" style="stroke:#FF6F00;stroke-width:2;"/><text fill="#FFFFFF" font-family="'Roboto'" font-size="13" lengthAdjust="spacing" textLength="0" x="180" y="521">handover to</text><text fill="#FFFFFF" font-family="'Roboto'" font-size="13" lengthAdjust="spacing" textLength="0" x="180" y="531">delivery manager</text></g><!--reverse link Implement to Allocate--><g class="link" data-entity-1="ent0009" data-entity-2="ent0008" data-link-type="dependency" data-source-line="108" id="lnk9"><path d="M304,447.26 L304.2802,447.26 L303.4476,457.9143 L304.2577,468.5686 L304.5329,479.2229 L303.0488,489.8771 L303.8964,500.5314 L303.4313,511.1857 L304,521.84" fill="none" style="stroke:#FF6F00;stroke-width:2;"/><polygon fill="#FF6F00" points="304,441.26,304.064,441.2885,303.0738,443.0039,302.4589,444.8862,301.7217,446.7141,300.5827,448.3634,300,450.26,299.9817,450.2417,300.6995,449.3595,301.5096,448.5696,302.3839,447.8439,303.037,446.897,304,446.26,304.1305,446.3905,304.6514,446.9114,305.5534,447.8134,306.5018,448.7618,307.1798,449.4398,308,450.26,308.0208,450.2692,307.1903,448.4557,306.4544,446.6842,305.6728,444.8924,304.9784,443.1393,304,441.26" style="stroke:#FF6F00;stroke-width:2;"/></g><!--reverse link Test to Implement--><g class="link" data-entity-1="ent0010" data-entity-2="ent0009" data-link-type="dependency" data-source-line="110" id="lnk11"><path d="M304,332.32 L304.2802,332.32 L303.4476,342.0167 L304.2577,351.7133 L304.5329,361.41 L303.0488,371.1067 L303.8964,380.8033 L304,390.5" fill="none" style="stroke:#FF6F00;stroke-width:2;"/><polygon fill="#FF6F00" points="304,326.32,304.064,326.3485,303.0738,328.0639,302.4589,329.9462,301.7217,331.7741,300.5827,333.4234,300,335.32,299.9817,335.3017,300.6995,334.4195,301.5096,333.6296,302.3839,332.9039,303.037,331.957,304,331.32,304.1305,331.4505,304.6514,331.9714,305.5534,332.8734,306.5018,333.8218,307.1798,334.4998,308,335.32,308.0208,335.3292,307.1903,333.5157,306.4544,331.7442,305.6728,329.9524,304.9784,328.1993,304,326.32" style="stroke:#FF6F00;stroke-width:2;"/></g><!--reverse link Verify to Test--><g class="link" data-entity-1="ent0011" data-entity-2="ent0010" data-link-type="dependency" data-source-line="111" id="lnk13"><path d="M304,214.3 L304.2802,214.3 L303.4476,224.998 L304.2577,235.696 L304.5329,246.394 L303.0488,257.092 L304,267.79" fill="none" style="stroke:#FF6F00;stroke-width:2;"/><polygon fill="#FF6F00" points="304,208.3,304.064,208.3285,303.0738,210.0439,302.4589,211.9262,301.7217,213.7541,300.5827,215.4034,300,217.3,299.9817,217.2817,300.6995,216.3995,301.5096,215.6096,302.3839,214.8839,303.037,213.937,304,213.3,304.1305,213.4305,304.6514,213.9514,305.5534,214.8534,306.5018,215.8018,307.1798,216.4798,308,217.3,308.0208,217.3092,307.1903,215.4957,306.4544,213.7242,305.6728,211.9324,304.9784,210.1793,304,208.3" style="stroke:#FF6F00;stroke-width:2;"/></g><!--reverse link Deliver to Verify--><g class="link" data-entity-1="ent0012" data-entity-2="ent0011" data-link-type="dependency" data-source-line="112" id="lnk15"><path d="M304,114.27 L304.0934,114.27 L303.8159,122.934 L304.0859,131.598 L304.1776,140.262 L303.6829,148.926 L304,157.59" fill="none" style="stroke:#FF6F00;stroke-width:2;"/><polygon fill="#FF6F00" points="304,108.27,304.064,108.2985,303.0738,110.0139,302.4589,111.8962,301.7217,113.7241,300.5827,115.3734,300,117.27,299.9817,117.2517,300.6995,116.3695,301.5096,115.5796,302.3839,114.8539,303.037,113.907,304,113.27,304.1305,113.4005,304.6514,113.9214,305.5534,114.8234,306.5018,115.7718,307.1798,116.4498,308,117.27,308.0208,117.2792,307.1903,115.4657,306.4544,113.6942,305.6728,111.9024,304.9784,110.1493,304,108.27" style="stroke:#FF6F00;stroke-width:2;"/></g><!--link Deliver to Deploy--><g class="link" data-entity-1="ent0012" data-entity-2="ent0014" data-link-type="dependency" data-source-line="130" id="lnk16"><path d="M278.77,74 L278.77,74.2802 L268.868,73.4476 L258.966,74.2577 L249.064,74.5329 L239.162,73.0488 L229.26,74" fill="none" style="stroke:#FF6F00;stroke-width:2;"/><polygon fill="#FF6F00" points="223.26,74,223.2885,74.064,225.0039,74.6738,226.8862,75.6589,228.7141,76.5217,230.3634,76.9827,232.26,78,232.2417,77.9817,231.3595,77.0995,230.5696,76.3096,229.8439,75.5839,228.897,74.637,228.26,74,228.3905,74.1305,228.9114,73.0514,229.8134,72.3534,230.7618,71.7018,231.4398,70.7798,232.26,70,232.2692,70.0208,230.4557,70.7903,228.6842,71.6544,226.8924,72.4728,225.1393,73.3784,223.26,74" style="stroke:#FF6F00;stroke-width:2;"/></g><!--link Deploy to Operate--><g class="link" data-entity-1="ent0014" data-entity-2="ent0017" data-link-type="dependency" data-source-line="131" id="lnk18"><path d="M198,108.27 L198.0934,108.27 L197.8159,116.934 L198.0859,125.598 L198.1776,134.262 L197.6829,142.926 L198,151.59" fill="none" style="stroke:#FF6F00;stroke-width:2;"/><polygon fill="#FF6F00" points="198,157.59,198.064,157.6185,198.6738,155.7339,199.6589,154.0162,200.5217,152.2441,200.9827,150.2934,202,148.59,201.9817,148.5717,201.0995,149.2895,200.3096,150.0996,199.5839,150.9739,198.637,151.627,198,152.59,198.1305,152.7205,197.0514,151.6414,196.3534,150.9434,195.7018,150.2918,194.7798,149.3698,194,148.59,194.0208,148.5992,194.7903,150.3857,195.6544,152.2142,196.4728,154.0224,197.3784,155.8693,198,157.59" style="stroke:#FF6F00;stroke-width:2;"/></g><!--link Operate to Measure--><g class="link" data-entity-1="ent0017" data-entity-2="ent0015" data-link-type="dependency" data-source-line="132" id="lnk19"><path d="M198,208.3 L198.0934,208.3 L197.8159,216.97 L198.0859,225.64 L198.1776,234.31 L197.6829,242.98 L198,251.65" fill="none" style="stroke:#FF6F00;stroke-width:2;"/><polygon fill="#FF6F00" points="198,257.65,198.064,257.6785,198.6738,255.7939,199.6589,254.0762,200.5217,252.3041,200.9827,250.3534,202,248.65,201.9817,248.6317,201.0995,249.3495,200.3096,250.1596,199.5839,251.0339,198.637,251.687,198,252.65,198.1305,252.7805,197.0514,251.7014,196.3534,251.0034,195.7018,250.3518,194.7798,249.4298,194,248.65,194.0208,248.6592,194.7903,250.4457,195.6544,252.2742,196.4728,254.0824,197.3784,255.9293,198,257.65" style="stroke:#FF6F00;stroke-width:2;"/></g><!--link Measure to Optimize--><g class="link" data-entity-1="ent0015" data-entity-2="ent0016" data-link-type="dependency" data-source-line="133" id="lnk20"><path d="M198,336.31 L198.0934,336.31 L197.8159,343.168 L198.0859,350.026 L198.1776,356.884 L197.6829,363.742 L198,370.6" fill="none" style="stroke:#FF6F00;stroke-width:2;"/><polygon fill="#FF6F00" points="198,376.6,198.064,376.6285,198.6738,374.7439,199.6589,373.0262,200.5217,371.2541,200.9827,369.3034,202,367.6,201.9817,367.5817,201.0995,368.2995,200.3096,369.1096,199.5839,369.9839,198.637,370.637,198,371.6,198.1305,371.7305,197.0514,370.6514,196.3534,369.9534,195.7018,369.3018,194.7798,368.3798,194,367.6,194.0208,367.6092,194.7903,369.3957,195.6544,371.2242,196.4728,373.0324,197.3784,374.8793,198,376.6" style="stroke:#FF6F00;stroke-width:2;"/></g><!--reverse link Plan to Optimize--><g class="link" data-entity-1="ent0002" data-entity-2="ent0016" data-link-type="dependency" data-source-line="149" id="lnk22"><path d="M113.9633,144.8283 L114.0556,144.8428 L113.8669,145.3462 L114.2193,145.9344 L114.3955,146.4949 L113.9923,146.9647 L114.3911,147.5602 L114.357,147.5547 L114.7909,151.2153 L115.3968,154.9033 L116.1223,158.6103 L116.4358,162.2517 L117.3263,165.985 L117.5688,166.0267 L117.7258,169.8698 L118.5909,173.8347 L119.5424,177.8143 L119.9913,181.7077 L120.7045,185.6464 L120.7343,185.6519 L121.4577,189.7712 L122.3169,193.9158 L123.1106,198.0482 L124.0293,202.2038 L124.5406,206.2836 L124.8329,206.3426 L125.6982,210.6138 L126.375,214.847 L127.3278,219.1358 L128.2935,223.4273 L128.8493,227.636 L128.5363,227.5672 L130.1031,232.0621 L130.6391,236.3304 L131.9587,240.7711 L132.4714,245.0342 L133.6455,249.4428 L133.6159,249.4357 L135.0256,253.9201 L135.7438,258.2379 L136.87,262.6541 L138.0305,267.0785 L138.9438,271.4433 L139.1227,271.4907 L140.1052,275.8296 L141.3934,280.2494 L142.1871,284.5382 L143.7183,289.0225 L144.7592,293.3768 L144.9934,293.4438 L145.5704,295.6032 L146.2636,297.7958 L146.4165,299.8339 L146.9654,301.9853 L147.8654,304.237 L147.601,304.1572 L148.4885,306.3786 L149.0781,308.51 L150.0999,310.7718 L150.3838,312.8111 L151.1063,314.9826 L150.9611,314.9363 L151.8785,317.1331 L152.175,319.1321 L152.9131,321.2717 L154.0832,323.549 L154.4839,325.5812 L154.6674,325.6431 L155.4964,327.7693 L155.7548,329.703 L156.728,331.8778 L157.5454,334.0001 L158,336 L157.8035,335.9261 L158.7367,338.0489 L159.6055,340.1475 L160.6008,342.2937 L161.1045,344.255 L161.8828,346.3195 L162.0719,346.4002 L162.5384,348.2908 L163.3698,350.3371 L164.7345,352.6109 L165.1175,354.4659 L166.2925,356.6588 L166.4974,356.7546 L167.3244,358.7261 L168.082,360.6652 L168.9961,362.6775 L170.2719,364.859 L171.0359,366.8011 L170.917,366.7414 L172.2478,368.8649 L172.77,370.5824 L174.2116,372.7616 L175.1356,374.6808 L175.92,376.53" fill="none" style="stroke:#FF6F00;stroke-width:2;"/><polygon fill="#FF6F00" points="113.0851,138.8929,113.1526,138.9117,112.4241,140.7536,112.0913,142.7056,111.6297,144.6218,110.7443,146.42,110.4455,148.3815,110.4247,148.366,111.0056,147.3883,111.6914,146.4883,112.4501,145.6425,112.9576,144.6102,113.8169,143.8391,113.9269,143.9873,114.6002,144.3447,115.5946,145.1347,116.6282,145.9776,117.4338,146.5133,118.3593,147.2105,118.3785,147.2227,117.2955,145.5413,116.2999,143.9154,115.2621,142.2627,114.3048,140.661,113.0851,138.8929" style="stroke:#FF6F00;stroke-width:2;"/></g><!--SRC=[hLPTRzis57tdhxX9WAqTPYHTFnxwKC1nd2ne4mTEkc5OXuAMhcp25AcIb5slo7_V9KN9LEmisp0_HCgzHuVturoI1xfoGYjOS9MlZN0E5HHSMcJiO8_BcHhPGOw5K0Yd5v-lXfVNdqUJ3vCfXD_HgvFNBsQlKyZjU3IvFXjEVukuFP2RuUZzy6BS4Ur09jEpyJHT1uwAuarnSj91pYVNTpr0WFXV1nbEfvDV-vYMXTcbK1Ktl8GPpvPpeskLZxJKXZBcof8BbMFiUnZfikAP0yatkdPWqJcXvZOXkE5vJYRuAR5D6pwZqC2Rn7wxuBbUUtHJywtdvqs5HWgr_AZoy89DxVSWcZZRLBO02dnfiO9NgL7f7BtnPI_fConuBHryO-TQkMjU8XnEzKmxVHWipHBR6WVZhVWJuSLBTfyo3OtHQ-9flaXAdl2qZGaaRYEHeZ8bb-nk8RAbGckfU3tMJ78oVcEd3vhJKo0xrOPg5Js9PA8ZPT-RrD0v8sQrm_rUdzbkMi7yQE2abIMVOopi3kT_pAUtX7NSuPEr-VyI_XTLldNSFEZvk0slDTpxgHf_hQJ8X9CRFr4-9UEEKUKnkSn_OQ6WprR2YfcGmcr0ACYvMK99aYQEQ-tmBTn8hjp7gmzGyWtjN2RFoFi8uOzWDRW5pKD0A-rWhSqodK-FtfF50yHEKliO7lRdSQv_Y6nOasxy3UFJgC1sBgHyYciNmthxIwgcevFmyuXGTzyTaYhx_OS_O40xdngyWx7oFTMAiVQjSvq9c-aL6jQ-T9wXjIGnrZmwwuWQxhOyRs4072mPqJVUK0JpJSyxVdy16F-dNNZ7noqHp6ehWg1HyPcaQBfmF2poYWngqb76AQ2UNoZX19UTbxPnn1wYuryglPQOp_lkoWXDfwz02zy1dJcPBcc9cBe7PBNnfrCZxSHky4ijVEeAl-vwI-vguyVe6QrlZxMP7-VSyME7sU9vWhCPbpnE70_MCXo5eTOUi1A-Ac0qpqjURUrTMZxhhPdYME92Iz8Zy3dL8j1rxf8k6pxG-rOofxMGkJzGF09ywwNK6VUpxYycGHLEVw9JKWfwttW6sd6fIoqG1dL5trsMbMmMOzrhTDsXTSp_YV__WaOK6zOyeksiuQUDfZM_2tBUhjCaJUrpr2Y7l4mMyhuS7HVIRpYT65XODUWqp-aRYi1c93DgkUrSHIqb13bGNYn65IhV1B8MRj5LcyJP11gKGOCeLArhInkhA2j39Aa_rWmi7RwIb9gP4AnDCOMN4HdbPjkJQUsdE89WOCHyuKA9Agath7bqGpcXQuhlQ7nszYlajZR8uZF1Er7IrO95eb0T2uUNgZ2SfgtEd8UJQKHR-s62EjpcIwbvgyycHVXIaenhfqd-cBDsyJ1dQ0f_3L4PfcQ-egR50KZjgrhIRMwFezDzdDLdzZbZRL9nnmWvqAPG8ER-mWbIwwe7sjkwHm5rvOVcaw8hRN-VkTyk3GClvAZQlm00]--></g></svg>