<svg xmlns="http://www.w3.org/2000/svg" xmlns:xlink="http://www.w3.org/1999/xlink" contentStyleType="text/css" data-diagram-type="CLASS" height="297px" preserveAspectRatio="none" style="width:373px;height:297px;" version="1.1" viewBox="0 0 373 297" width="373px" zoomAndPan="magnify"><defs/><g><!--class Term--><g class="entity" data-qualified-name="Term" data-source-line="62" id="ent0002"><a href="/concept/term/#ontology" target="_top" title="/concept/term/#ontology" xlink:actuate="onRequest" xlink:href="/concept/term/#ontology" xlink:show="new" xlink:title="/concept/term/#ontology" xlink:type="simple"><polygon fill="#4051B5" points="104.95,189,104.95,189.2102,115.2745,188.5857,125.5991,189.1933,135.9236,189.3997,146.2482,188.2866,156.5727,188.9223,166.8973,189,166.8429,188.8687,167.2726,189.0576,167.7371,189.3305,168.0819,189.3143,168.6649,189.8734,169.0186,189.8787,168.8245,189.7983,169.1334,190.2777,169.5031,190.7823,169.5194,191.1405,169.7425,191.5844,169.8973,192,169.8866,192,169.9568,196.8,169.977,201.6,170.0925,206.4,170.121,211.2,169.8973,216,170.1064,216.0866,169.7999,216.4567,169.6886,216.9077,169.5863,217.3624,168.9722,217.6051,169.0186,218.1213,169.1051,218.3303,168.5565,218.2057,168.2382,218.6372,167.6826,218.4961,167.3128,218.8032,166.8973,219,166.8973,219.7416,156.5727,218.9513,146.2482,219.1053,135.9236,219.3386,125.5991,219.4162,115.2745,218.9961,104.95,219,104.9866,219.0885,104.4527,218.648,104.1377,218.7361,103.7471,218.6416,103.3096,218.434,102.8287,218.1213,103.0175,218.1995,102.5042,217.6354,102.2764,217.1896,102.1101,216.7693,102.1076,216.4168,101.95,216,101.8845,216,102.1771,211.2,101.8918,206.4,101.8356,201.6,102.0261,196.8,101.95,192,101.7446,191.9149,101.9659,191.5095,102.5013,191.2343,102.6114,190.7828,102.8791,190.3966,102.8287,189.8787,102.7876,189.7796,103.2937,189.8012,103.7525,189.709,104.0412,189.206,104.5135,189.1462,104.95,189" style="stroke:#FF6F00;stroke-width:2;"/><polygon fill="#ADD1B2" points="126.0052,206.4324,124.5394,208.4353,122.8056,211.3688,120.326,213.3458,117.7203,214.4269,115.6427,214.5207,112.9724,213.1687,110.4529,212.2854,108.5405,210.492,107.5373,208.4389,106.9424,206.8041,106.3596,204.6688,105.4136,202.8313,106.1406,201.0373,106.7775,199.072,109.1675,197.5177,110.8491,195.501,112.9304,194.8313,115.4047,194.2546,118.5776,194.5972,120.3155,195.4168,122.3361,195.7884,124.7929,198.3054,125.6493,200.9627,126.0214,202.7758,125.6,205.7635" style="stroke:#181818;stroke-width:1;"/><path d="M117.8094,208.2344 Q117.3719,208.4531 116.8719,208.5625 Q116.3875,208.6875 115.8563,208.6875 Q113.9344,208.6875 112.9188,207.4219 Q111.9188,206.1563 111.9188,203.7656 Q111.9188,201.375 112.9188,200.1094 Q113.9344,198.8438 115.8563,198.8438 Q116.3875,198.8438 116.8875,198.9688 Q117.3875,199.0781 117.8094,199.3125 L117.8094,201.3906 Q117.325,200.9531 116.8719,200.75 Q116.4188,200.5313 115.9344,200.5313 Q114.9188,200.5313 114.3875,201.3594 Q113.8563,202.1719 113.8563,203.7656 Q113.8563,205.375 114.3875,206.1875 Q114.9188,207 115.9344,207 Q116.4188,207 116.8719,206.7969 Q117.325,206.5938 117.8094,206.1406 L117.8094,208.2344 Z " fill="#FFFFFF"/><text fill="#FFFFFF" font-family="'Roboto'" font-size="13" lengthAdjust="spacing" textLength="33.9473" x="130.95" y="208.5005">Term</text></a></g><!--class BusinessTerm--><g class="entity" data-qualified-name="BusinessTerm" data-source-line="63" id="ent0003"><polygon fill="#4051B5" points="170.29,260,170.29,260.2102,180.2294,259.5857,190.1688,260.1933,200.1082,260.3997,210.0476,259.2866,219.9871,259.9223,229.9265,259.5735,239.8659,259.6165,249.8053,259.9318,259.7447,259.3086,269.6841,260.5536,279.6235,259.3697,289.5629,260,289.5377,259.9391,290.0423,260.3088,290.4005,260.3251,290.8444,260.5482,291.2559,260.6931,291.6843,260.8787,291.7392,260.9015,291.9336,261.3334,292.2161,261.8019,292.4181,262.2371,292.5964,262.6624,292.5629,263,292.6478,263,292.7175,267.8,292.797,272.6,292.3226,277.4,292.7891,282.2,292.5629,287,292.4716,286.9622,292.5516,287.4924,292.059,287.7854,292.0146,288.2641,292.0884,288.7917,291.6843,289.1213,291.6781,289.1063,291.2734,289.3295,290.8789,289.5771,290.4646,289.7767,289.9867,289.8231,289.5629,290,289.5629,290.2872,279.6235,289.4276,269.6841,290.2844,259.7447,290.5482,249.8053,290.4445,239.8659,290.613,229.9265,289.5169,219.9871,289.3478,210.0476,289.3786,200.1082,289.9411,190.1688,289.8035,180.2294,290.6814,170.29,290,170.2677,289.9462,169.822,289.7186,169.4706,289.7188,168.9321,289.2674,168.5267,289.1372,168.1687,289.1213,168.3685,289.2041,168.1271,288.7526,168.0434,288.3665,167.5424,287.8075,167.564,287.465,167.29,287,167.4868,287,167.1325,282.2,167.258,277.4,167.332,272.6,167.5073,267.8,167.29,263,167.2887,262.9995,167.6082,262.6347,167.4709,262.0808,167.6086,261.6408,168.148,261.3672,168.1687,260.8787,168.0772,260.6579,168.6579,260.8597,169.0436,260.5908,169.4073,260.269,169.8206,260.0668,170.29,260" style="stroke:#FF6F00;stroke-width:2;"/><polygon fill="#ADD1B2" points="191.3452,277.4324,189.8794,279.4353,188.1456,282.3688,185.666,284.3458,183.0603,285.4269,180.9827,285.5207,178.3124,284.1687,175.7929,283.2854,173.8805,281.492,172.8773,279.4389,172.2824,277.8041,171.6996,275.6688,170.7536,273.8313,171.4806,272.0373,172.1175,270.072,174.5075,268.5177,176.1891,266.501,178.2704,265.8313,180.7447,265.2546,183.9176,265.5972,185.6555,266.4168,187.6761,266.7884,190.1329,269.3054,190.9893,271.9627,191.3614,273.7758,190.94,276.7635" style="stroke:#181818;stroke-width:1;"/><path d="M183.1494,279.2344 Q182.7119,279.4531 182.2119,279.5625 Q181.7275,279.6875 181.1963,279.6875 Q179.2744,279.6875 178.2588,278.4219 Q177.2588,277.1563 177.2588,274.7656 Q177.2588,272.375 178.2588,271.1094 Q179.2744,269.8438 181.1963,269.8438 Q181.7275,269.8438 182.2275,269.9688 Q182.7275,270.0781 183.1494,270.3125 L183.1494,272.3906 Q182.665,271.9531 182.2119,271.75 Q181.7588,271.5313 181.2744,271.5313 Q180.2588,271.5313 179.7275,272.3594 Q179.1963,273.1719 179.1963,274.7656 Q179.1963,276.375 179.7275,277.1875 Q180.2588,278 181.2744,278 Q181.7588,278 182.2119,277.7969 Q182.665,277.5938 183.1494,277.1406 L183.1494,279.2344 Z " fill="#FFFFFF"/><text fill="#FFFFFF" font-family="'Roboto'" font-size="13" lengthAdjust="spacing" textLength="91.2729" x="196.29" y="279.5005">BusinessTerm</text></g><!--class TechnicalTerm--><g class="entity" data-qualified-name="TechnicalTerm" data-source-line="64" id="ent0004"><polygon fill="#4051B5" points="10,260,10,260.2102,20.3208,259.5857,30.6416,260.1933,40.9624,260.3997,51.2832,259.2866,61.604,259.9223,71.9248,259.5735,82.2456,259.6165,92.5664,259.9318,102.8872,259.3086,113.208,260.5536,123.5288,259.3697,133.8496,260,133.8244,259.9391,134.329,260.3088,134.6872,260.3251,135.1311,260.5482,135.5426,260.6931,135.9709,260.8787,136.0259,260.9015,136.2203,261.3334,136.5028,261.8019,136.7048,262.2371,136.8831,262.6624,136.8496,263,136.9345,263,137.0041,267.8,137.0837,272.6,136.6092,277.4,137.0758,282.2,136.8496,287,136.7583,286.9622,136.8383,287.4924,136.3457,287.7854,136.3013,288.2641,136.3751,288.7917,135.9709,289.1213,135.9647,289.1063,135.5601,289.3295,135.1656,289.5771,134.7512,289.7767,134.2734,289.8231,133.8496,290,133.8496,290.2872,123.5288,289.4276,113.208,290.2844,102.8872,290.5482,92.5664,290.4445,82.2456,290.613,71.9248,289.5169,61.604,289.3478,51.2832,289.3786,40.9624,289.9411,30.6416,289.8035,20.3208,290.6814,10,290,9.9777,289.9462,9.532,289.7186,9.1806,289.7188,8.6421,289.2674,8.2367,289.1372,7.8787,289.1213,8.0785,289.2041,7.8371,288.7526,7.7534,288.3665,7.2524,287.8075,7.274,287.465,7,287,7.1968,287,6.8425,282.2,6.968,277.4,7.042,272.6,7.2173,267.8,7,263,6.9987,262.9995,7.3182,262.6347,7.1809,262.0808,7.3186,261.6408,7.858,261.3672,7.8787,260.8787,7.7872,260.6579,8.3679,260.8597,8.7536,260.5908,9.1173,260.269,9.5306,260.0668,10,260" style="stroke:#FF6F00;stroke-width:2;"/><polygon fill="#ADD1B2" points="31.0552,277.4324,29.5894,279.4353,27.8556,282.3688,25.376,284.3458,22.7703,285.4269,20.6927,285.5207,18.0224,284.1687,15.5029,283.2854,13.5905,281.492,12.5873,279.4389,11.9924,277.8041,11.4096,275.6688,10.4636,273.8313,11.1906,272.0373,11.8275,270.072,14.2175,268.5177,15.8991,266.501,17.9804,265.8313,20.4547,265.2546,23.6276,265.5972,25.3655,266.4168,27.3861,266.7884,29.8429,269.3054,30.6993,271.9627,31.0714,273.7758,30.65,276.7635" style="stroke:#181818;stroke-width:1;"/><path d="M22.8594,279.2344 Q22.4219,279.4531 21.9219,279.5625 Q21.4375,279.6875 20.9063,279.6875 Q18.9844,279.6875 17.9688,278.4219 Q16.9688,277.1563 16.9688,274.7656 Q16.9688,272.375 17.9688,271.1094 Q18.9844,269.8438 20.9063,269.8438 Q21.4375,269.8438 21.9375,269.9688 Q22.4375,270.0781 22.8594,270.3125 L22.8594,272.3906 Q22.375,271.9531 21.9219,271.75 Q21.4688,271.5313 20.9844,271.5313 Q19.9688,271.5313 19.4375,272.3594 Q18.9063,273.1719 18.9063,274.7656 Q18.9063,276.375 19.4375,277.1875 Q19.9688,278 20.9844,278 Q21.4688,278 21.9219,277.7969 Q22.375,277.5938 22.8594,277.1406 L22.8594,279.2344 Z " fill="#FFFFFF"/><text fill="#FFFFFF" font-family="'Roboto'" font-size="13" lengthAdjust="spacing" textLength="95.8496" x="36" y="279.5005">TechnicalTerm</text></g><!--class Concept--><g class="entity" data-qualified-name="Concept" data-source-line="65" id="ent0005"><a href="/concept/concept/#ontology" target="_top" title="/concept/concept/#ontology" xlink:actuate="onRequest" xlink:href="/concept/concept/#ontology" xlink:show="new" xlink:title="/concept/concept/#ontology" xlink:type="simple"><polygon fill="#4051B5" points="142.04,98,142.04,98.2102,152.2606,97.5857,162.4812,98.1933,172.7017,98.3997,182.9223,97.2866,193.1429,97.9223,203.3635,97.5735,213.5841,97.6165,223.8046,98,223.796,97.979,224.1407,97.9628,224.7238,98.522,224.997,98.3331,225.4765,98.642,225.926,98.8787,226.059,98.9338,226.0753,99.292,226.2985,99.7359,226.4433,100.1474,226.6839,100.5985,226.8046,101,226.8844,101,226.9999,105.8,227.0283,110.6,227.0311,115.4,226.8895,120.2,226.8046,125,226.9474,125.0591,226.8452,125.5138,226.2311,125.7565,226.4864,126.3593,226.0104,126.6592,225.926,127.1213,225.9941,127.2857,225.4386,127.1446,225.0687,127.4517,224.7478,127.8769,224.2227,127.8093,223.8046,128,223.8046,128.1053,213.5841,128.3386,203.3635,128.4162,193.1429,127.9961,182.9223,128.2872,172.7017,127.4276,162.4812,128.2844,152.2606,128.5482,142.04,128,142.0967,128.1369,141.6939,128.0131,141.1298,127.4998,140.684,127.2719,140.2637,127.1057,139.9187,127.1213,139.9005,127.1138,139.6824,126.672,139.7771,126.3597,139.3377,125.8262,139.1101,125.3805,139.04,125,139.1161,125,138.8177,120.2,138.867,115.4,139.2563,110.6,139.1852,105.8,139.04,101,139.2662,101.0937,139.1166,100.5347,139.4898,100.1922,139.749,99.8025,139.5975,99.2427,139.9187,98.8787,139.9065,98.8492,140.359,98.7417,140.8503,98.7279,141.1909,98.3502,141.6747,98.3182,142.04,98" style="stroke:#FF6F00;stroke-width:2;"/><polygon fill="#ADD1B2" points="163.0952,115.4324,161.6294,117.4353,159.8956,120.3688,157.416,122.3458,154.8103,123.4269,152.7327,123.5207,150.0624,122.1687,147.5429,121.2854,145.6305,119.492,144.6273,117.4389,144.0324,115.8041,143.4496,113.6688,142.5036,111.8313,143.2306,110.0373,143.8675,108.072,146.2575,106.5177,147.9391,104.501,150.0204,103.8313,152.4947,103.2546,155.6676,103.5972,157.4055,104.4168,159.4261,104.7884,161.8829,107.3054,162.7393,109.9627,163.1114,111.7758,162.69,114.7635" style="stroke:#181818;stroke-width:1;"/><path d="M154.8994,117.2344 Q154.4619,117.4531 153.9619,117.5625 Q153.4775,117.6875 152.9463,117.6875 Q151.0244,117.6875 150.0088,116.4219 Q149.0088,115.1563 149.0088,112.7656 Q149.0088,110.375 150.0088,109.1094 Q151.0244,107.8438 152.9463,107.8438 Q153.4775,107.8438 153.9775,107.9688 Q154.4775,108.0781 154.8994,108.3125 L154.8994,110.3906 Q154.415,109.9531 153.9619,109.75 Q153.5088,109.5313 153.0244,109.5313 Q152.0088,109.5313 151.4775,110.3594 Q150.9463,111.1719 150.9463,112.7656 Q150.9463,114.375 151.4775,115.1875 Q152.0088,116 153.0244,116 Q153.5088,116 153.9619,115.7969 Q154.415,115.5938 154.8994,115.1406 L154.8994,117.2344 Z " fill="#FFFFFF"/><text fill="#FFFFFF" font-family="'Roboto'" font-size="13" lengthAdjust="spacing" textLength="53.7646" x="168.04" y="117.5005">Concept</text></a></g><!--class ConceptVocabulary--><g class="entity" data-qualified-name="ConceptVocabulary" data-source-line="66" id="ent0006"><polygon fill="#4051B5" points="174.51,7,174.51,7.2102,184.8322,6.5857,195.1543,7.1933,205.4765,7.3997,215.7987,6.2866,226.1208,6.9223,236.443,6.5735,246.7652,6.6165,257.0873,6.9318,267.4095,6.3086,277.7317,7.5536,288.0538,6.3697,298.376,6.8022,308.6982,7.4319,319.0204,6.9142,329.3425,7,329.3512,7.021,329.7627,7.1659,330.2138,7.4065,330.6458,7.6009,331.1143,7.8833,331.4638,7.8787,331.6705,7.9643,331.8488,8.3896,331.8937,8.7597,332.1338,9.2106,332.383,9.6653,332.3425,10,332.1021,10,332.5687,14.8,332.2437,19.6,332.5205,24.4,332.1775,29.2,332.3425,34,332.3214,33.9913,332.3952,34.5189,331.976,34.8423,331.8477,35.2862,331.7439,35.7403,331.4638,36.1213,331.5169,36.2495,331.0391,36.2959,330.6519,36.5612,330.118,36.4722,329.8031,36.9118,329.3425,37,329.3425,37.5482,319.0204,37.4445,308.6982,37.613,298.376,36.5169,288.0538,36.3478,277.7317,36.3786,267.4095,36.9411,257.0873,36.8035,246.7652,37.6814,236.443,36.8253,226.1208,36.6569,215.7987,37.2283,205.4765,36.3332,195.1543,36.4809,184.8322,37.649,174.51,37,174.5656,37.1342,174.1794,37.0505,173.6204,36.5494,173.2779,36.5711,172.8883,36.4789,172.3887,36.1213,172.2432,36.0611,172.1834,35.6848,172.076,35.2889,172.0622,34.9317,171.6844,34.4237,171.51,34,171.6642,34,171.3254,29.2,171.2842,24.4,171.6779,19.6,171.271,14.8,171.51,10,171.6667,10.0649,171.7494,9.6021,171.779,9.1173,171.9283,8.6821,172.3542,8.3615,172.3887,7.8787,172.3505,7.7865,172.8884,7.8852,173.1667,7.357,173.7402,7.5416,174.1475,7.3249,174.51,7" style="stroke:#FF6F00;stroke-width:2;"/><polygon fill="#ADD1B2" points="195.5652,24.4324,194.0994,26.4353,192.3656,29.3688,189.886,31.3458,187.2803,32.4269,185.2027,32.5207,182.5324,31.1687,180.0129,30.2854,178.1005,28.492,177.0973,26.4389,176.5024,24.8041,175.9196,22.6688,174.9736,20.8313,175.7006,19.0373,176.3375,17.072,178.7275,15.5177,180.4091,13.501,182.4904,12.8313,184.9647,12.2546,188.1376,12.5972,189.8755,13.4168,191.8961,13.7884,194.3529,16.3054,195.2093,18.9627,195.5814,20.7758,195.16,23.7635" style="stroke:#181818;stroke-width:1;"/><path d="M187.3694,26.2344 Q186.9319,26.4531 186.4319,26.5625 Q185.9475,26.6875 185.4163,26.6875 Q183.4944,26.6875 182.4788,25.4219 Q181.4788,24.1563 181.4788,21.7656 Q181.4788,19.375 182.4788,18.1094 Q183.4944,16.8438 185.4163,16.8438 Q185.9475,16.8438 186.4475,16.9688 Q186.9475,17.0781 187.3694,17.3125 L187.3694,19.3906 Q186.885,18.9531 186.4319,18.75 Q185.9788,18.5313 185.4944,18.5313 Q184.4788,18.5313 183.9475,19.3594 Q183.4163,20.1719 183.4163,21.7656 Q183.4163,23.375 183.9475,24.1875 Q184.4788,25 185.4944,25 Q185.9788,25 186.4319,24.7969 Q186.885,24.5938 187.3694,24.1406 L187.3694,26.2344 Z " fill="#FFFFFF"/><text fill="#FFFFFF" font-family="'Roboto'" font-size="13" lengthAdjust="spacing" textLength="126.8325" x="200.51" y="26.5005">ConceptVocabulary</text></g><!--class UseCase--><g class="entity" data-qualified-name="UseCase" data-source-line="67" id="ent0007"><a href="/concept/use-case/#ontology" target="_top" title="/concept/use-case/#ontology" xlink:actuate="onRequest" xlink:href="/concept/use-case/#ontology" xlink:show="new" xlink:title="/concept/use-case/#ontology" xlink:type="simple"><polygon fill="#4051B5" points="278.87,98,278.87,98.2102,289.3826,97.5857,299.8951,98.1933,310.4077,98.3997,320.9203,97.2866,331.4329,97.9223,341.9454,97.5735,352.458,97.6165,362.9706,98,362.9619,97.979,363.3067,97.9628,363.8897,98.522,364.163,98.3331,364.6424,98.642,365.0919,98.8787,365.2249,98.9338,365.2412,99.292,365.4644,99.7359,365.6093,100.1474,365.8498,100.5985,365.9706,101,366.0503,101,366.1658,105.8,366.1943,110.6,366.197,115.4,366.0555,120.2,365.9706,125,366.1134,125.0591,366.0111,125.5138,365.397,125.7565,365.6523,126.3593,365.1763,126.6592,365.0919,127.1213,365.16,127.2857,364.6045,127.1446,364.2346,127.4517,363.9137,127.8769,363.3886,127.8093,362.9706,128,362.9706,128.1053,352.458,128.3386,341.9454,128.4162,331.4329,127.9961,320.9203,128.2872,310.4077,127.4276,299.8951,128.2844,289.3826,128.5482,278.87,128,278.9267,128.1369,278.5239,128.0131,277.9598,127.4998,277.514,127.2719,277.0937,127.1057,276.7487,127.1213,276.7305,127.1138,276.5124,126.672,276.6071,126.3597,276.1677,125.8262,275.9401,125.3805,275.87,125,275.9461,125,275.6477,120.2,275.697,115.4,276.0863,110.6,276.0152,105.8,275.87,101,276.0962,101.0937,275.9466,100.5347,276.3198,100.1922,276.579,99.8025,276.4275,99.2427,276.7487,98.8787,276.7365,98.8492,277.189,98.7417,277.6803,98.7279,278.0209,98.3502,278.5047,98.3182,278.87,98" style="stroke:#FF6F00;stroke-width:2;"/><polygon fill="#ADD1B2" points="299.9252,115.4324,298.4594,117.4353,296.7256,120.3688,294.246,122.3458,291.6403,123.4269,289.5627,123.5207,286.8924,122.1687,284.3729,121.2854,282.4605,119.492,281.4573,117.4389,280.8624,115.8041,280.2796,113.6688,279.3336,111.8313,280.0606,110.0373,280.6975,108.072,283.0875,106.5177,284.7691,104.501,286.8504,103.8313,289.3247,103.2546,292.4976,103.5972,294.2355,104.4168,296.2561,104.7884,298.7129,107.3054,299.5693,109.9627,299.9414,111.7758,299.52,114.7635" style="stroke:#181818;stroke-width:1;"/><path d="M291.7294,117.2344 Q291.2919,117.4531 290.7919,117.5625 Q290.3075,117.6875 289.7763,117.6875 Q287.8544,117.6875 286.8388,116.4219 Q285.8388,115.1563 285.8388,112.7656 Q285.8388,110.375 286.8388,109.1094 Q287.8544,107.8438 289.7763,107.8438 Q290.3075,107.8438 290.8075,107.9688 Q291.3075,108.0781 291.7294,108.3125 L291.7294,110.3906 Q291.245,109.9531 290.7919,109.75 Q290.3388,109.5313 289.8544,109.5313 Q288.8388,109.5313 288.3075,110.3594 Q287.7763,111.1719 287.7763,112.7656 Q287.7763,114.375 288.3075,115.1875 Q288.8388,116 289.8544,116 Q290.3388,116 290.7919,115.7969 Q291.245,115.5938 291.7294,115.1406 L291.7294,117.2344 Z " fill="#FFFFFF"/><text fill="#FFFFFF" font-family="'Roboto'" font-size="13" lengthAdjust="spacing" textLength="56.1006" x="304.87" y="117.5005">UseCase</text></a></g><!--reverse link Term to BusinessTerm--><g class="link" data-entity-1="ent0002" data-entity-2="ent0003" data-link-type="extension" data-source-line="70" id="lnk8"><path d="M169.9104,229.9512 L170.0762,230.1771 L177.6955,235.4596 L186.2867,242.0665 L194.5615,248.2421 L201.7953,252.9994 L210.47,259.72" fill="none" style="stroke:#FF6F00;stroke-width:2;"/><polygon fill="none" points="155.4,219.3,155.4572,219.3405,157.4793,222.3178,159.8366,225.5324,162.0848,228.6697,163.9739,231.553,166.36,234.788,166.3392,234.7727,167.6656,232.7691,169.0973,230.8429,170.6022,228.9704,171.8549,226.9127,173.4608,225.1144,173.5174,225.29,169.7843,223.7515,166.2163,222.7259,162.6684,221.7628,159.0034,220.4357,155.4,219.3" style="stroke:#FF6F00;stroke-width:2;"/></g><!--reverse link Term to TechnicalTerm--><g class="link" data-entity-1="ent0002" data-entity-2="ent0004" data-link-type="extension" data-source-line="71" id="lnk9"><path d="M110.4204,232.4982 L110.4889,232.5617 L105.2353,237.8173 L100.3832,243.4454 L95.4004,248.9521 L89.9876,254.06 L85.17,259.72" fill="none" style="stroke:#FF6F00;stroke-width:2;"/><polygon fill="none" points="122.66,219.3,122.6937,219.3614,119.2658,221.0026,116.0354,223.0038,112.7406,224.8879,109.2345,226.3862,106.021,228.4184,106.0034,228.3994,107.6841,229.9461,109.4536,231.5885,111.2849,233.2975,112.9034,234.7772,114.8198,236.5781,114.9879,236.6543,116.1966,233.0356,117.8959,229.6396,119.6551,226.2707,121.0659,222.7438,122.66,219.3" style="stroke:#FF6F00;stroke-width:2;"/></g><!--reverse link Concept to Term--><g class="link" data-entity-1="ent0005" data-entity-2="ent0002" data-link-type="composition" data-source-line="74" id="lnk10"><path d="M169.7671,138.9117 L170.0149,139.0425 L164.8941,146.9585 L161.226,155.6414 L157.0848,164.0746 L151.3879,171.6865 L147.7529,180.3869 L143.46,188.74" fill="none" style="stroke:#FF6F00;stroke-width:2;"/><polygon fill="#FF6F00" points="175.37,128.3,175.4034,128.3616,174.0364,128.8662,172.8652,129.7319,171.6303,130.48,170.1857,130.8415,169.0313,131.7382,169.0056,131.7356,169.0371,133.1584,169.1985,134.5945,169.4502,136.04,169.3907,137.4535,169.7671,138.9117,169.8551,139.0739,170.9347,138.0393,172.2711,137.4784,173.6389,136.9753,174.8244,136.136,176.1058,135.4735,176.1284,135.4758,175.948,134.0377,175.8707,132.6102,175.7436,131.1775,175.7114,129.7546,175.37,128.3" style="stroke:#FF6F00;stroke-width:2;"/><text fill="#333333" font-family="'Roboto'" font-size="13" lengthAdjust="spacing" textLength="35.4834" x="166.92" y="163.0669">:term</text><text fill="#333333" font-family="'Roboto'" font-size="13" lengthAdjust="spacing" textLength="8.271" x="161.2611" y="149.9822">1</text><text fill="#333333" font-family="'Roboto'" font-size="13" lengthAdjust="spacing" textLength="23.0356" x="116.5648" y="175.9358">1..*</text></g><!--link Concept to BusinessTerm--><g class="link" data-entity-1="ent0005" data-entity-2="ent0003" data-link-type="dependency" data-source-line="75" id="lnk11"><path d="M197.12,128.47 L197.1943,128.5266 L198.3817,130.2079 L200.0048,132.221 L201.4861,134.1261 L202.5007,135.6759 L204.1613,137.7175 L204.1311,137.7006 L205.1476,139.6814 L206.316,141.7472 L207.5901,143.8722 L208.5002,145.7934 L209.92,148 L210.1493,148.0894 L210.7851,150.7864 L212.0902,153.7443 L213.477,156.7341 L214.3887,159.5386 L215.5502,162.4406 L215.5793,162.4494 L216.4305,165.3745 L217.4138,168.3396 L218.3334,171.2854 L219.3746,174.2682 L220.0194,177.1304 L220.3098,177.1987 L221.0015,180.1275 L221.5059,183.0122 L222.2844,185.9614 L223.0758,188.9136 L223.4602,191.7701 L223.1446,191.7139 L224.2661,194.6811 L224.3484,197.4631 L225.2207,200.3859 L225.2796,203.1638 L226.0052,206.0604 L225.975,206.0565 L226.6883,208.8314 L226.6964,211.5142 L227.1207,214.2514 L227.5799,216.9931 L227.787,219.7019 L227.9712,219.7186 L228.0156,222.2405 L228.3747,224.7908 L228.2245,227.295 L228.834,229.8681 L228.9384,232.3954 L229.1816,232.4093 L229.2663,234.6959 L229.4718,236.9893 L229.1162,239.2508 L229.1718,241.5357 L229.5919,243.8415 L229.3159,243.8334 L229.6234,245.8206 L229.62,247.7987 L230.0677,249.7899 L229.745,251.7587 L229.8803,253.7408" fill="none" style="stroke:#FF6F00;stroke-width:2;"/><polygon fill="#FF6F00" points="229.98,259.74,230.0445,259.7674,230.6229,257.873,231.5793,256.1391,232.4126,254.3529,232.841,252.3949,233.8299,250.6748,233.8113,250.6568,232.9411,251.3891,232.1648,252.2123,231.4538,253.0985,230.5179,253.7673,229.8969,254.7407,230.0252,254.8733,228.9377,253.8031,228.2247,253.1201,227.5575,252.4844,226.6243,251.5738,225.831,250.8077,225.8516,250.8173,226.6511,252.5897,227.5446,254.4057,228.3927,256.2007,229.3273,258.0358,229.98,259.74" style="stroke:#FF6F00;stroke-width:2;"/><text fill="#333333" font-family="'Roboto'" font-size="13" lengthAdjust="spacing" textLength="69.7671" x="229.92" y="208.5669">:labelTerm</text><text fill="#333333" font-family="'Roboto'" font-size="13" lengthAdjust="spacing" textLength="24.8066" x="207.8791" y="150.2043">0..1</text><text fill="#333333" font-family="'Roboto'" font-size="13" lengthAdjust="spacing" textLength="8.271" x="218.1278" y="246.9358">1</text></g><!--reverse link ConceptVocabulary to Concept--><g class="link" data-entity-1="ent0006" data-entity-2="ent0005" data-link-type="aggregation" data-source-line="78" id="lnk12"><path d="M192.5804,43.1138 L192.6519,43.1739 L190.1073,45.7727 L187.982,48.7235 L185.7202,51.5598 L183.0093,54.0189 L180.92,57 L180.8881,56.9868 L179.9343,58.8922 L179.1415,60.864 L178.4606,62.8819 L177.3941,64.7408 L176.8677,66.8225 L177.112,66.8512 L176.3387,68.9238 L176.2788,71.0802 L176.306,73.2469 L175.8267,75.3541 L175.6137,77.4925 L175.644,77.4946 L175.7459,79.6143 L175.9856,81.7435 L176.1588,83.8681 L176.4588,86.0014 L176.3455,88.1062 L176.6381,88.164 L177.0226,90.0954 L177.2183,91.9897 L177.6903,93.9384 L178.1753,95.8897 L178.25,97.76" fill="none" style="stroke:#FF6F00;stroke-width:2;"/><polygon fill="none" points="203.1,37.34,203.106,37.4098,201.6512,37.0785,200.2318,37.1563,198.8008,37.101,197.332,36.6074,195.9156,36.7204,195.8926,36.7084,195.1225,37.9333,194.4681,39.2186,193.8943,40.546,193.0431,41.7286,192.5804,43.1138,192.5962,43.2977,193.9992,43.0285,195.4485,43.296,196.9034,43.6291,198.3255,43.5811,199.7648,43.7335,199.785,43.744,200.4224,42.4498,201.1516,41.2036,201.8366,39.9343,202.6061,38.709,203.1,37.34" style="stroke:#FF6F00;stroke-width:2;"/><text fill="#333333" font-family="'Roboto'" font-size="13" lengthAdjust="spacing" textLength="97.5571" x="183.92" y="72.0669">skos:inScheme</text><text fill="#333333" font-family="'Roboto'" font-size="13" lengthAdjust="spacing" textLength="8.271" x="176.351" y="59.0345">1</text><text fill="#333333" font-family="'Roboto'" font-size="13" lengthAdjust="spacing" textLength="23.0356" x="147.4633" y="84.9622">0..*</text></g><!--link ConceptVocabulary to UseCase--><g class="link" data-entity-1="ent0006" data-entity-2="ent0007" data-link-type="dependency" data-source-line="79" id="lnk13"><path d="M268.45,37.46 L268.5156,37.5265 L270.2156,39.2005 L272.3004,41.2641 L274.2598,43.2009 L275.8072,44.7204 L277.925,46.8175 L277.8991,46.7946 L279.5819,48.7285 L281.3953,50.7777 L283.2993,52.9069 L284.8907,54.7601 L286.92,57 L287.1155,57.1494 L288.1346,58.7104 L289.7245,60.7075 L291.384,62.7579 L292.6384,64.4987 L294.1058,66.4023 L294.1308,66.4194 L295.3213,68.1785 L296.6256,70.0157 L297.875,71.8152 L299.2291,73.6868 L300.2419,75.3235 L300.4952,75.4809 L301.5736,77.2127 L302.4886,78.843 L303.6429,80.6219 L304.8083,82.4077 L305.6185,83.9728 L305.3403,83.8138 L306.8619,85.8398 L307.4672,87.3421 L308.7691,89.2425 L309.3537,90.733 L310.5262,92.5595" fill="none" style="stroke:#FF6F00;stroke-width:2;"/><polygon fill="#FF6F00" points="313.43,97.81,313.4998,97.8161,313.1214,95.8357,313.1521,93.8909,313.0495,91.9346,312.5089,89.94,312.5747,87.9984,312.5498,87.9912,312.1252,89.0463,311.826,90.1375,311.6142,91.2538,311.1016,92.2836,311.0102,93.4346,311.0612,93.6119,309.8648,92.9198,308.8175,92.7454,307.7883,92.6342,306.6533,92.1555,305.574,91.87,305.5877,91.8882,307.1388,93.0495,308.7523,94.2935,310.3357,95.4976,311.9765,96.7777,313.43,97.81" style="stroke:#FF6F00;stroke-width:2;"/><text fill="#333333" font-family="'Roboto'" font-size="13" lengthAdjust="spacing" textLength="59.2046" x="303.92" y="72.0669">:useCase</text><text fill="#333333" font-family="'Roboto'" font-size="13" lengthAdjust="spacing" textLength="23.0356" x="244.3815" y="59.1912">0..*</text><text fill="#333333" font-family="'Roboto'" font-size="13" lengthAdjust="spacing" textLength="8.271" x="299.1732" y="85.0281">1</text></g><!--SRC=[hLHTRzCm57tthxXB7u19xLhsyL0Xf3Jx007jb6uWD4sJazosLXCxifsLRl3ViVFHEhG8WV1BtUDpppttsCg1o3KJ71QK9ol9j4OEMXP83XASCOumkdhuvByVFmIJZvCGojKvwPyEebENChq89kDpF_nQy_PGhltWWtzriH7QeKp2yulGxGETsUnirkzlA9UJyKsBK5Bisb3yC9nyQNCQ5QAMZETKqWmY6Y_dKXGy2KGgf9cOScMEa6j2Na0Wifp66bAw5eK6XLepFbUEm3LD4WF1QmSBApt9KSAPWqyND14hovxHLA5pycwTeqmPNzxofDnWbVqUHkMp6MLBCCQN2dCuSK4k4hJWSHlKU2cuhfNwvN93ESSPBL8DpyJInZH3y48H2IqyiYtSta49JjaJmk2O_72LV2d5okXK5SwLE3gTut9L8dgTeZ4eCvgIcmMBbnoLCk6sLEEK6l2PZ7wvlDOB9ICXJPRrYVEawWDNVUzGljQIHOMRbNjg9ziTguH_QzoyfIMTOntiZkO_pjDgeJJL-CTi_j_0Vv6oyQb53bg0UKfQP90mYR7zw905In0op2AKYf3gVhqRb9a7L87TmDtTKInuZBa-qkR_KSUOD5tdw_lxfc1KA6PxRGfTOAiQBpYBQUh8EqX32wfU9Q7UknQQtpqkQlPd4TEeIAbSknfRjA7VAWoemf9Kxzr6XS9kRB1M9_DbAZDHESQCfko9sXGLAS4ttxlTzkHRk3sgaPcip4TABLXEcY6zWGU7XkeDUhr3h-epXA7DVClfztg6rks-BUbkCyjDQOIR3gP6upSDBws2WfGz8Z2kx8K_Dc4mL606JI1Qsr-m0wjNP2UpifkmvlgbkSRF4DHIg27ZqtY16Uuhh0eQnqtGncnHRNy2]--></g></svg>