<svg xmlns="http://www.w3.org/2000/svg" xmlns:xlink="http://www.w3.org/1999/xlink" contentStyleType="text/css" data-diagram-type="CLASS" height="318px" preserveAspectRatio="none" style="width:347px;height:318px;" version="1.1" viewBox="0 0 347 318" width="347px" zoomAndPan="magnify"><defs/><g><!--class Persona--><g class="entity" data-qualified-name="Persona" data-source-line="61" id="ent0002"><a href="/concept/persona/#ontology" target="_top" title="/concept/persona/#ontology" xlink:actuate="onRequest" xlink:href="/concept/persona/#ontology" xlink:show="new" xlink:title="/concept/persona/#ontology" xlink:type="simple"><polygon fill="#4051B5" points="10,98.5,10,98.7102,20.0143,98.0857,30.0286,98.6933,40.0428,98.8997,50.0571,97.7866,60.0714,98.4223,70.0857,98.0735,80.1,98.1165,90.1143,98.5,90.1056,98.479,90.4503,98.4628,91.0334,99.022,91.3067,98.8331,91.7861,99.142,92.2356,99.3787,92.3686,99.4338,92.3849,99.792,92.6081,100.2359,92.7529,100.6474,92.9935,101.0985,93.1143,101.5,93.194,101.5,93.3095,106.3,93.3379,111.1,93.3407,115.9,93.1991,120.7,93.1143,125.5,93.257,125.5591,93.1548,126.0138,92.5407,126.2565,92.796,126.8593,92.32,127.1592,92.2356,127.6213,92.3037,127.7857,91.7482,127.6446,91.3783,127.9517,91.0574,128.3769,90.5323,128.3093,90.1143,128.5,90.1143,128.6053,80.1,128.8386,70.0857,128.9162,60.0714,128.4961,50.0571,128.7872,40.0428,127.9276,30.0286,128.7844,20.0143,129.0482,10,128.5,10.0567,128.6369,9.6539,128.5131,9.0898,127.9998,8.644,127.7719,8.2237,127.6057,7.8787,127.6213,7.8605,127.6138,7.6424,127.172,7.7371,126.8597,7.2977,126.3262,7.0701,125.8805,7,125.5,7.0761,125.5,6.7777,120.7,6.827,115.9,7.2163,111.1,7.1452,106.3,7,101.5,7.2262,101.5937,7.0766,101.0347,7.4498,100.6922,7.709,100.3025,7.5575,99.7427,7.8787,99.3787,7.8665,99.3492,8.319,99.2417,8.8103,99.2279,9.1509,98.8502,9.6347,98.8182,10,98.5" style="stroke:#FF6F00;stroke-width:2;"/><polygon fill="#ADD1B2" points="31.0552,115.9324,29.5894,117.9353,27.8556,120.8688,25.376,122.8458,22.7703,123.9269,20.6927,124.0207,18.0224,122.6687,15.5029,121.7854,13.5905,119.992,12.5873,117.9389,11.9924,116.3041,11.4096,114.1688,10.4636,112.3313,11.1906,110.5373,11.8275,108.572,14.2175,107.0177,15.8991,105.001,17.9804,104.3313,20.4547,103.7546,23.6276,104.0972,25.3655,104.9168,27.3861,105.2884,29.8429,107.8054,30.6993,110.4627,31.0714,112.2758,30.65,115.2635" style="stroke:#181818;stroke-width:1;"/><path d="M22.8594,117.7344 Q22.4219,117.9531 21.9219,118.0625 Q21.4375,118.1875 20.9063,118.1875 Q18.9844,118.1875 17.9688,116.9219 Q16.9688,115.6563 16.9688,113.2656 Q16.9688,110.875 17.9688,109.6094 Q18.9844,108.3438 20.9063,108.3438 Q21.4375,108.3438 21.9375,108.4688 Q22.4375,108.5781 22.8594,108.8125 L22.8594,110.8906 Q22.375,110.4531 21.9219,110.25 Q21.4688,110.0313 20.9844,110.0313 Q19.9688,110.0313 19.4375,110.8594 Q18.9063,111.6719 18.9063,113.2656 Q18.9063,114.875 19.4375,115.6875 Q19.9688,116.5 20.9844,116.5 Q21.4688,116.5 21.9219,116.2969 Q22.375,116.0938 22.8594,115.6406 L22.8594,117.7344 Z " fill="#FFFFFF"/><text fill="#FFFFFF" font-family="'Roboto'" font-size="13" lengthAdjust="spacing" textLength="52.1143" x="36" y="118.0005">Persona</text></a></g><!--class Story--><g class="entity" data-qualified-name="Story" data-source-line="62" id="ent0003"><a href="/concept/story/#ontology" target="_top" title="/concept/story/#ontology" xlink:actuate="onRequest" xlink:href="/concept/story/#ontology" xlink:show="new" xlink:title="/concept/story/#ontology" xlink:type="simple"><polygon fill="#4051B5" points="132.89,7,132.89,7.2102,143.2801,6.5857,153.6703,7.1933,164.0604,7.3997,174.4505,6.2866,184.8407,6.9223,195.2308,7,195.1764,6.8687,195.6062,7.0576,196.0707,7.3305,196.4154,7.3143,196.9985,7.8734,197.3521,7.8787,197.158,7.7983,197.467,8.2777,197.8366,8.7823,197.8529,9.1405,198.0761,9.5844,198.2308,10,198.2202,10,198.2903,14.8,198.3105,19.6,198.4261,24.4,198.4545,29.2,198.2308,34,198.44,34.0866,198.1335,34.4567,198.0221,34.9077,197.9199,35.3624,197.3058,35.6051,197.3521,36.1213,197.4387,36.3303,196.8901,36.2057,196.5717,36.6372,196.0162,36.4961,195.6463,36.8032,195.2308,37,195.2308,37.7416,184.8407,36.9513,174.4505,37.1053,164.0604,37.3386,153.6703,37.4162,143.2801,36.9961,132.89,37,132.9266,37.0885,132.3927,36.648,132.0777,36.7361,131.6871,36.6416,131.2496,36.434,130.7687,36.1213,130.9575,36.1995,130.4442,35.6354,130.2164,35.1896,130.0501,34.7693,130.0476,34.4168,129.89,34,129.8245,34,130.1171,29.2,129.8318,24.4,129.7756,19.6,129.9661,14.8,129.89,10,129.6846,9.9149,129.9059,9.5095,130.4413,9.2343,130.5514,8.7828,130.8191,8.3966,130.7687,7.8787,130.7276,7.7796,131.2337,7.8012,131.6925,7.709,131.9812,7.206,132.4535,7.1462,132.89,7" style="stroke:#FF6F00;stroke-width:2;"/><polygon fill="#ADD1B2" points="153.9452,24.4324,152.4794,26.4353,150.7456,29.3688,148.266,31.3458,145.6603,32.4269,143.5827,32.5207,140.9124,31.1687,138.3929,30.2854,136.4805,28.492,135.4773,26.4389,134.8824,24.8041,134.2996,22.6688,133.3536,20.8313,134.0806,19.0373,134.7175,17.072,137.1075,15.5177,138.7891,13.501,140.8704,12.8313,143.3447,12.2546,146.5176,12.5972,148.2555,13.4168,150.2761,13.7884,152.7329,16.3054,153.5893,18.9627,153.9614,20.7758,153.54,23.7635" style="stroke:#181818;stroke-width:1;"/><path d="M145.7494,26.2344 Q145.3119,26.4531 144.8119,26.5625 Q144.3275,26.6875 143.7963,26.6875 Q141.8744,26.6875 140.8588,25.4219 Q139.8588,24.1563 139.8588,21.7656 Q139.8588,19.375 140.8588,18.1094 Q141.8744,16.8438 143.7963,16.8438 Q144.3275,16.8438 144.8275,16.9688 Q145.3275,17.0781 145.7494,17.3125 L145.7494,19.3906 Q145.265,18.9531 144.8119,18.75 Q144.3588,18.5313 143.8744,18.5313 Q142.8588,18.5313 142.3275,19.3594 Q141.7963,20.1719 141.7963,21.7656 Q141.7963,23.375 142.3275,24.1875 Q142.8588,25 143.8744,25 Q144.3588,25 144.8119,24.7969 Q145.265,24.5938 145.7494,24.1406 L145.7494,26.2344 Z " fill="#FFFFFF"/><text fill="#FFFFFF" font-family="'Roboto'" font-size="13" lengthAdjust="spacing" textLength="34.3408" x="158.89" y="26.5005">Story</text></a></g><!--class UseCase--><g class="entity" data-qualified-name="UseCase" data-source-line="63" id="ent0004"><a href="/concept/use-case/#ontology" target="_top" title="/concept/use-case/#ontology" xlink:actuate="onRequest" xlink:href="/concept/use-case/#ontology" xlink:show="new" xlink:title="/concept/use-case/#ontology" xlink:type="simple"><polygon fill="#4051B5" points="176.01,281,176.01,281.2102,186.5226,280.5857,197.0351,281.1933,207.5477,281.3997,218.0603,280.2866,228.5729,280.9223,239.0854,280.5735,249.598,280.6165,260.1106,281,260.1019,280.979,260.4467,280.9628,261.0297,281.522,261.303,281.3331,261.7824,281.642,262.2319,281.8787,262.3649,281.9338,262.3812,282.292,262.6044,282.7359,262.7493,283.1474,262.9898,283.5985,263.1106,284,263.1903,284,263.3058,288.8,263.3343,293.6,263.337,298.4,263.1955,303.2,263.1106,308,263.2534,308.0591,263.1511,308.5138,262.537,308.7565,262.7923,309.3593,262.3163,309.6592,262.2319,310.1213,262.3,310.2857,261.7445,310.1446,261.3746,310.4517,261.0537,310.8769,260.5286,310.8093,260.1106,311,260.1106,311.1053,249.598,311.3386,239.0854,311.4162,228.5729,310.9961,218.0603,311.2872,207.5477,310.4276,197.0351,311.2844,186.5226,311.5482,176.01,311,176.0667,311.1369,175.6639,311.0131,175.0998,310.4998,174.654,310.2719,174.2337,310.1057,173.8887,310.1213,173.8705,310.1138,173.6524,309.672,173.7471,309.3597,173.3077,308.8262,173.0801,308.3805,173.01,308,173.0861,308,172.7877,303.2,172.837,298.4,173.2263,293.6,173.1552,288.8,173.01,284,173.2362,284.0937,173.0866,283.5347,173.4598,283.1922,173.719,282.8025,173.5675,282.2427,173.8887,281.8787,173.8765,281.8492,174.329,281.7417,174.8203,281.7279,175.1609,281.3502,175.6447,281.3182,176.01,281" style="stroke:#FF6F00;stroke-width:2;"/><polygon fill="#ADD1B2" points="197.0652,298.4324,195.5994,300.4353,193.8656,303.3688,191.386,305.3458,188.7803,306.4269,186.7027,306.5207,184.0324,305.1687,181.5129,304.2854,179.6005,302.492,178.5973,300.4389,178.0024,298.8041,177.4196,296.6688,176.4736,294.8313,177.2006,293.0373,177.8375,291.072,180.2275,289.5177,181.9091,287.501,183.9904,286.8313,186.4647,286.2546,189.6376,286.5972,191.3755,287.4168,193.3961,287.7884,195.8529,290.3054,196.7093,292.9627,197.0814,294.7758,196.66,297.7635" style="stroke:#181818;stroke-width:1;"/><path d="M188.8694,300.2344 Q188.4319,300.4531 187.9319,300.5625 Q187.4475,300.6875 186.9163,300.6875 Q184.9944,300.6875 183.9788,299.4219 Q182.9788,298.1563 182.9788,295.7656 Q182.9788,293.375 183.9788,292.1094 Q184.9944,290.8438 186.9163,290.8438 Q187.4475,290.8438 187.9475,290.9688 Q188.4475,291.0781 188.8694,291.3125 L188.8694,293.3906 Q188.385,292.9531 187.9319,292.75 Q187.4788,292.5313 186.9944,292.5313 Q185.9788,292.5313 185.4475,293.3594 Q184.9163,294.1719 184.9163,295.7656 Q184.9163,297.375 185.4475,298.1875 Q185.9788,299 186.9944,299 Q187.4788,299 187.9319,298.7969 Q188.385,298.5938 188.8694,298.1406 L188.8694,300.2344 Z " fill="#FFFFFF"/><text fill="#FFFFFF" font-family="'Roboto'" font-size="13" lengthAdjust="spacing" textLength="56.1006" x="202.01" y="300.5005">UseCase</text></a></g><!--class PersonaTaxonomy--><g class="entity" data-qualified-name="PersonaTaxonomy" data-source-line="64" id="ent0005"><polygon fill="#4051B5" points="74.95,190,74.95,190.2102,84.8312,189.5857,94.7124,190.1933,104.5937,190.3997,114.4749,189.2866,124.3561,189.9223,134.2373,189.5735,144.1185,189.6165,153.9997,189.9318,163.881,189.3086,173.7622,190.5536,183.6434,189.3697,193.5246,189.8022,203.4058,190.4319,213.287,189.9142,223.1683,190,223.177,190.021,223.5885,190.1659,224.0396,190.4065,224.4716,190.6009,224.94,190.8833,225.2896,190.8787,225.4962,190.9643,225.6745,191.3896,225.7195,191.7597,225.9596,192.2106,226.2088,192.6653,226.1683,193,225.9279,193,226.3944,197.8,226.0694,202.6,226.3462,207.4,226.0033,212.2,226.1683,217,226.1472,216.9913,226.2209,217.5189,225.8018,217.8423,225.6735,218.2862,225.5696,218.7403,225.2896,219.1213,225.3427,219.2495,224.8648,219.2959,224.4777,219.5612,223.9438,219.4722,223.6288,219.9118,223.1683,220,223.1683,220.5482,213.287,220.4445,203.4058,220.613,193.5246,219.5169,183.6434,219.3478,173.7622,219.3786,163.881,219.9411,153.9997,219.8035,144.1185,220.6814,134.2373,219.8253,124.3561,219.6569,114.4749,220.2283,104.5937,219.3332,94.7124,219.4809,84.8312,220.649,74.95,220,75.0056,220.1342,74.6194,220.0505,74.0604,219.5494,73.7179,219.5711,73.3283,219.4789,72.8287,219.1213,72.6832,219.0611,72.6234,218.6848,72.516,218.2889,72.5022,217.9317,72.1244,217.4237,71.95,217,72.1042,217,71.7654,212.2,71.7242,207.4,72.1179,202.6,71.711,197.8,71.95,193,72.1067,193.0649,72.1894,192.6021,72.219,192.1173,72.3683,191.6821,72.7942,191.3615,72.8287,190.8787,72.7905,190.7865,73.3284,190.8852,73.6067,190.357,74.1802,190.5416,74.5875,190.3249,74.95,190" style="stroke:#FF6F00;stroke-width:2;"/><polygon fill="#ADD1B2" points="96.0052,207.4324,94.5394,209.4353,92.8056,212.3688,90.326,214.3458,87.7203,215.4269,85.6427,215.5207,82.9724,214.1687,80.4529,213.2854,78.5405,211.492,77.5373,209.4389,76.9424,207.8041,76.3596,205.6688,75.4136,203.8313,76.1406,202.0373,76.7775,200.072,79.1675,198.5177,80.8491,196.501,82.9304,195.8313,85.4047,195.2546,88.5776,195.5972,90.3155,196.4168,92.3361,196.7884,94.7929,199.3054,95.6493,201.9627,96.0214,203.7758,95.6,206.7635" style="stroke:#181818;stroke-width:1;"/><path d="M87.8094,209.2344 Q87.3719,209.4531 86.8719,209.5625 Q86.3875,209.6875 85.8563,209.6875 Q83.9344,209.6875 82.9188,208.4219 Q81.9188,207.1563 81.9188,204.7656 Q81.9188,202.375 82.9188,201.1094 Q83.9344,199.8438 85.8563,199.8438 Q86.3875,199.8438 86.8875,199.9688 Q87.3875,200.0781 87.8094,200.3125 L87.8094,202.3906 Q87.325,201.9531 86.8719,201.75 Q86.4188,201.5313 85.9344,201.5313 Q84.9188,201.5313 84.3875,202.3594 Q83.8563,203.1719 83.8563,204.7656 Q83.8563,206.375 84.3875,207.1875 Q84.9188,208 85.9344,208 Q86.4188,208 86.8719,207.7969 Q87.325,207.5938 87.8094,207.1406 L87.8094,209.2344 Z " fill="#FFFFFF"/><text fill="#FFFFFF" font-family="'Roboto'" font-size="13" lengthAdjust="spacing" textLength="120.2183" x="100.95" y="209.5005">PersonaTaxonomy</text></g><!--link Story to Persona--><g class="link" data-entity-1="ent0003" data-entity-2="ent0002" data-link-type="dependency" data-source-line="67" id="lnk6"><path d="M145.74,37.38 L145.9131,37.6004 L137.322,43.287 L129.7455,50.2658 L121.8386,56.8238 L112.8453,61.9981 L105.2919,69.0063 L96.9279,74.982 L88.8865,81.3687 L81.0693,88.0409 L73.0486,94.454" fill="none" style="stroke:#FF6F00;stroke-width:2;"/><polygon fill="#FF6F00" points="68.33,98.16,68.3472,98.2279,70.2059,97.5434,72.1652,97.2571,74.0918,96.8412,75.9106,95.9988,77.8786,95.7467,77.8755,95.7209,76.7384,95.4705,75.6168,95.3497,74.506,95.3191,73.358,94.9778,72.2622,95.0716,72.4454,95.0937,72.1886,93.9233,72.4667,92.8172,72.8101,91.7189,72.7738,90.5751,72.9372,89.4552,72.9573,89.4658,72.0064,91.1912,71.1469,92.965,70.2433,94.7154,69.424,96.5104,68.33,98.16" style="stroke:#FF6F00;stroke-width:2;"/><text fill="#333333" font-family="'Roboto'" font-size="13" lengthAdjust="spacing" textLength="64.7651" x="123.06" y="72.0669">:playedBy</text></g><!--link Story to UseCase--><g class="link" data-entity-1="ent0003" data-entity-2="ent0004" data-link-type="dependency" data-source-line="68" id="lnk7"><path d="M188.64,37.41 L188.6943,37.486 L191.6946,39.5181 L195.0131,41.9958 L198.228,44.3284 L201.1021,46.1837 L204.448,48.6997 L204.4262,48.6729 L205.9813,49.8925 L207.6461,51.2473 L209.3871,52.6962 L210.8654,53.8211 L212.7117,55.3998 L212.8761,55.5828 L214.1613,56.6625 L215.9267,58.2765 L217.7507,59.9557 L219.2339,61.2556 L220.8963,62.755 L220.9178,62.7763 L222.4594,64.3398 L224.0993,66.0003 L225.6917,67.614 L227.3746,69.317 L228.7626,70.7289 L228.9893,70.9227 L230.4539,72.6363 L231.7721,74.225 L233.3045,75.9966 L234.8469,77.7768 L236.0714,79.2853 L235.8107,79.0988 L237.6191,81.2813 L238.5691,82.8496 L240.1717,84.8848 L241.1022,86.4393 L242.5836,88.3878 L242.5572,88.3727 L243.9653,90.4734 L244.7553,92.2219 L245.9101,94.1783 L247.0955,96.1521 L248.06,98 L248.2263,98.0811 L249.2126,100.3656 L250.483,102.7887 L251.2938,104.9875 L252.7902,107.5208 L253.8307,109.8318 L254.0514,109.9349 L255.0529,112.1472 L256.1639,114.4106 L256.7657,116.4361 L257.7408,118.6361 L259.0466,120.9906 L258.7936,120.8798 L259.9496,123.0967 L260.8205,125.1888 L262.1048,127.4619 L262.6832,129.4259 L263.6813,131.5737 L263.5397,131.5172 L264.581,133.6322 L265.0168,135.5058 L265.8832,137.551 L267.1709,139.7641 L267.7084,141.6783 L267.8913,141.7421 L268.6953,143.7305 L268.9307,145.5205 L269.8784,147.559 L270.6708,149.5434 L271.1017,151.4016 L270.9,151.3432 L271.6074,153.2776 L272.2487,155.1929 L273.0198,157.1458 L273.2864,158.9525 L273.8348,160.8409 L274.037,160.878 L274.2688,164.4795 L274.8908,168.1527 L276.0831,171.9305 L276.2256,175.5157 L277.215,179.2563 L277.4411,179.2614 L277.3915,182.9475 L277.2653,186.6318 L277.3118,190.3201 L277.7575,194.0176 L277.6383,197.7021 L277.5066,197.6833 L277.3499,201.59 L276.2974,205.369 L276.2634,209.2932 L275.656,213.1357 L274.8941,216.9561 L274.9995,216.9833 L274.3892,218.996 L274.1564,221.1061 L273.5826,223.1281 L272.8662,225.1134 L272.2682,227.1293 L272.3815,227.1664 L271.5139,229.2446 L271.1721,231.4952 L270.2356,233.5508 L269.5438,235.6867 L268.7715,237.7962 L268.5197,237.6978 L267.725,239.9822 L267.2337,242.3851 L266.3131,244.6203 L265.2386,246.7955 L264.3776,249.054 L264.2467,248.9958 L263.2252,251.4036 L261.9719,253.7084 L261.3554,256.2966 L260.4238,258.7445 L259.06,261 L259.2649,261.1129 L258.3352,262.9556 L257.0161,264.5838 L256.108,266.4384 L254.9278,268.1431 L254.0834,270.0328 L254.1716,270.123 L252.7057,271.5322 L251.3463,273.0505 L249.6491,274.2229 L248.2244,275.6742 L246.8118,277.138" fill="none" style="stroke:#FF6F00;stroke-width:2;"/><polygon fill="#FF6F00" points="242.09,280.84,242.1071,280.9079,243.9664,280.225,245.926,279.9404,247.8529,279.5261,249.6725,278.6853,251.6407,278.4349,251.6376,278.4092,250.5004,278.1578,249.379,278.036,248.2684,278.0044,247.1203,277.6622,246.0248,277.755,246.208,277.7772,245.9522,276.6066,246.2313,275.5007,246.5757,274.4028,246.5403,273.2589,246.7047,272.1392,246.7248,272.1498,245.7723,273.8743,244.9114,275.6474,244.0063,277.397,243.1854,279.1913,242.09,280.84" style="stroke:#FF6F00;stroke-width:2;"/><text fill="#333333" font-family="'Roboto'" font-size="13" lengthAdjust="spacing" textLength="59.2046" x="278.06" y="164.0669">:useCase</text><text fill="#333333" font-family="'Roboto'" font-size="13" lengthAdjust="spacing" textLength="23.0356" x="167.0386" y="59.1259">0..*</text><text fill="#333333" font-family="'Roboto'" font-size="13" lengthAdjust="spacing" textLength="8.271" x="237.8802" y="268.0677">1</text></g><!--link Persona to PersonaTaxonomy--><g class="link" data-entity-1="ent0002" data-entity-2="ent0005" data-link-type="dependency" data-source-line="71" id="lnk8"><path d="M65.96,128.88 L66.1479,129.0879 L73.4369,135.5647 L81.8277,143.2602 L89.8596,150.5588 L96.7118,156.5525 L105.1276,164.2757 L112.6632,171.0252 L120.549,178.1623 L128.7394,185.6361" fill="none" style="stroke:#FF6F00;stroke-width:2;"/><polygon fill="#FF6F00" points="133.19,189.66,133.254,189.6884,132.2651,187.8034,131.6516,186.0849,130.9158,184.3123,129.7779,182.3612,129.1966,180.6571,129.1708,180.6558,129.1116,181.7798,129.1828,182.9105,129.3446,184.0457,129.1941,185.1652,129.4811,186.3067,129.4904,186.4911,128.3406,186.1538,127.2179,186.3547,126.0986,186.6212,124.9599,186.5058,123.8314,186.5912,123.8385,186.6129,125.6998,187.1949,127.5934,187.8753,129.4714,188.5082,131.3791,189.2318,133.19,189.66" style="stroke:#FF6F00;stroke-width:2;"/><text fill="#333333" font-family="'Roboto'" font-size="13" lengthAdjust="spacing" textLength="97.5571" x="114.06" y="164.0669">skos:inScheme</text></g><!--link PersonaTaxonomy to UseCase--><g class="link" data-entity-1="ent0005" data-entity-2="ent0004" data-link-type="dependency" data-source-line="72" id="lnk9"><path d="M159.69,220.07 L159.7643,220.1266 L162.505,223.8497 L165.6814,227.9045 L168.7159,231.8513 L171.2837,235.443 L174.4975,239.5263 L174.4702,239.5052 L177.6599,243.7052 L180.9875,248.0117 L184.411,252.392 L187.5042,256.5176 L191.06,261 L191.2534,261.1521 L193.2195,263.8527 L195.7503,266.9975 L198.35,270.1964 L200.5488,273.0801 L202.9584,276.1295" fill="none" style="stroke:#FF6F00;stroke-width:2;"/><polygon fill="#FF6F00" points="206.7,280.82,206.7678,280.8377,206.0693,278.8791,205.7682,277.0242,205.3377,275.1356,204.4816,273.1359,204.2146,271.2899,204.1889,271.287,203.9468,272.3983,203.8345,273.5242,203.8125,274.6602,203.4795,275.7612,203.582,276.9113,203.6027,277.0947,202.4342,276.576,201.3261,276.5927,200.2253,276.6748,199.0817,276.3768,197.9606,276.2787,197.9711,276.2989,199.7036,277.1775,201.4838,278.148,203.241,279.0742,205.0421,280.085,206.7,280.82" style="stroke:#FF6F00;stroke-width:2;"/><text fill="#333333" font-family="'Roboto'" font-size="13" lengthAdjust="spacing" textLength="59.2046" x="194.06" y="255.0669">:useCase</text><text fill="#333333" font-family="'Roboto'" font-size="13" lengthAdjust="spacing" textLength="24.8066" x="132.7446" y="241.9897">0..1</text><text fill="#333333" font-family="'Roboto'" font-size="13" lengthAdjust="spacing" textLength="8.271" x="191.2096" y="268.0413">1</text></g><!--link Persona to Persona--><g class="link" data-entity-1="ent0002" data-entity-2="ent0002" data-link-type="dependency" data-source-line="75" id="lnk10"><path d="M93.56,104.89 L93.5631,104.9834 L95.845,104.7821 L98.1452,105.1281 L100.4394,105.2959 L102.7141,104.8776 L105.0158,105.2706 L105.0101,105.2366 L106.8643,105.396 L108.747,105.7272 L110.6496,106.1779 L112.4838,106.217 L114.4138,106.8325 L114.5635,107.0278 L115.9826,107.9437 L117.8388,109.4297 L119.7483,110.9854 L121.3476,112.1362 L123.11,113.5 L123.1331,113.5196 L121.9598,114.8347 L120.8918,116.239 L119.773,117.6003 L118.7512,119.0438 L117.4133,120.2193 L117.4464,120.5157 L113.876,120.9182 L110.2842,121.1295 L106.7237,121.6207 L103.1646,122.1249 L99.5591,122.2136" fill="none" style="stroke:#FF6F00;stroke-width:2;"/><polygon fill="#FF6F00" points="93.56,122.11,93.5896,122.1735,95.2877,122.8158,97.159,123.8304,98.9739,124.7237,100.6033,125.2183,102.4896,126.2648,102.4709,126.2468,101.6013,125.3524,100.8255,124.5486,100.115,123.808,99.1796,122.8499,98.5593,122.1964,98.6875,122.3291,99.227,121.2592,100.1408,120.5768,101.1004,119.9417,101.7942,119.0315,102.6277,118.266,102.6366,118.287,100.81,119.025,99.0239,119.8584,97.2182,120.6458,95.4497,121.521,93.56,122.11" style="stroke:#FF6F00;stroke-width:2;"/><text fill="#333333" font-family="'Roboto'" font-size="13" lengthAdjust="spacing" textLength="106.4312" x="131.11" y="118.0669">:isSubPersonaOf</text></g><!--SRC=[hLLTRvim57tthxWb3sidjKsMjWzvc4JIZqtTGWMjfgcgAWENO0LiP1jbhDf_d_b8QbgcVMWycNFFFVVSQsFsHA6Pu91I7cyaqnevQ5aYsOinOHnXVlNusVsuV5nudpmVccTqCZwTXASs9RXOUCjpr__QyGOeD-xYshsws0czedZ- -OLlru5Hafmbu_6ESkajRtk4Xb8_Euhh-zwNFcUhGjIQyO9AcaD8e_LAYfB72v49QJgcN9aGSat86rY8lA2HXenMejIWK6l6LyeIkA5nR21uPs5-goSvIZYpy22biTZKx8Hc2gt8Xwf0cJ6-lkDniy1szWECrkUsbMU2CRvMMC293N8HOmrEUqsVOqBBJCCJkHHSBscEuFWY55eu3TAMU9vn0mRiEy9aIdxOIgwKOcDqsWnhv9REQDeyhOYkCZIkP4upSfkoQCrHAJEydcgKKGC-aVcBpUcTG38NqiogYrX7fWlOweDDkLfB5fOQXwDrPw_RQk1V6ZTdPKrNs0tsbUO_zjCheJJL-DlP_B-6_sBAngSM1MW1vYXfaKFC94RrfK9I5YFac8Se5I7j_ZetvaLmwW1LqAtX_luu4Zp2GXyNBNGyCcvD-LNryB3D3BIGLPFNhEmiLGD3ENSA5rHXazMjxRnIuM5aiA7Kpjmj_IQuo2lRy1QhBuiEKg1Iyr6K1J0EjHs62lQTmjmX6Cyhvm0sPcWfc4i6n8PZ364558m1g0sGjgN3m_UxeSnWjitkeixuwEYjqv2SYRFhnn3BTjdp4s8cpALZDeQ-z0txmRKNG3S5K56AEHwGRMNBnIvZ1cejr8pne26Jb_7Qs-GFlPaHfMX-DjIKX_ts3qIpmVgr05D16NRlNl8J]--></g></svg>