<svg xmlns="http://www.w3.org/2000/svg" xmlns:xlink="http://www.w3.org/1999/xlink" version="1.1" data-diagram-type="CLASS" style="width:556px;height:256px;" width="556px" height="256px" viewBox="0 0 556 256" zoomAndPan="magnify" preserveAspectRatio="none" contentStyleType="text/css"><?plantuml 1.2026.7beta6?><defs/><g font-family="sans-serif" lengthAdjust="spacing"><polygon points="5.5,3,5.5,3.21,15.418,2.586,25.337,3.193,35.255,3.4,45.174,2.287,55.092,2.922,65.011,2.574,74.929,2.617,84.848,2.932,94.766,2.309,104.684,3.554,114.603,2.37,124.521,2.802,134.44,3.432,144.358,2.914,154.277,3.068,164.195,2.968,174.114,3.179,184.032,3.239,193.95,3.586,203.869,3.671,213.787,3.679,223.706,3.255,233.624,3.464,243.543,3.702,253.461,2.279,263.38,3.679,273.298,2.703,283.216,3.534,293.135,2.505,303.053,2.932,312.972,3.742,322.89,2.951,332.809,3.105,342.727,3.339,352.646,3.416,362.564,2.996,372.482,3.287,382.401,2.428,392.319,3.284,402.238,3.548,412.156,3.445,422.075,3.613,431.993,2.517,441.912,2.348,451.83,2.379,461.748,2.941,471.667,2.803,481.585,3.681,491.504,2.825,501.422,2.657,511.341,3.228,521.259,2.333,531.178,2.481,541.096,3,541.179,3.2,541.505,3.281,541.897,3.519,542.116,3.34,542.551,3.684,542.864,3.732,543.046,3.808,542.865,4.026,543.127,4.427,543.342,4.809,543.65,5.23,543.596,5.5,543.595,5.5,543.75,7.828,543.411,10.156,543.37,12.484,543.764,14.813,543.596,17.141,543.375,17.049,543.606,17.559,543.367,17.874,543.074,18.167,542.901,18.51,542.864,18.908,542.922,19.05,542.472,18.963,542.232,19.384,541.733,19.178,541.528,19.684,541.096,19.641,541.096,20.125,531.178,19.886,521.259,19.688,511.341,20.367,501.422,20.254,491.504,19.81,481.585,19.909,471.667,19.51,461.748,20.357,451.83,19.795,441.912,19.813,431.993,19.032,422.075,19.235,412.156,20.171,402.238,20.07,392.319,19.598,382.401,19.318,372.482,19.422,362.564,18.954,352.646,20.055,342.727,20.38,332.809,20.167,322.89,20.336,312.972,19.504,303.053,19.728,293.135,19.253,283.216,19.925,273.298,19.887,263.38,20.193,253.461,19.411,243.543,19.506,233.624,20.084,223.706,20.208,213.787,19.128,203.869,19.447,193.95,19.79,184.032,19.03,174.114,19.994,164.195,19.899,154.277,19.54,144.358,19.783,134.44,20.369,124.521,19.328,114.603,19.956,104.684,19.926,94.766,19.756,84.848,19.782,74.929,19.754,65.011,19.016,55.092,19.24,45.174,19.179,35.255,19.704,25.337,19.729,15.418,19.802,5.5,19.641,5.463,19.551,5.138,19.473,4.778,19.311,4.513,19.379,4.14,19.186,3.732,18.908,3.583,18.846,3.563,18.546,3.262,18.128,3.382,17.885,3.334,17.572,3,17.141,3.182,17.141,2.855,14.813,3.155,12.484,2.752,10.156,3.067,7.828,3,5.5,2.908,5.462,3.176,5.159,3.367,4.824,3.585,4.5,3.364,3.994,3.732,3.732,3.793,3.879,4.109,3.641,4.485,3.549,4.888,3.523,5.147,3.148,5.5,3" fill="#FFC" style="stroke:#FD8;stroke-width:3;stroke-linejoin:miter;stroke-miterlimit:10;"/><text x="10" y="13.641" fill="#000" font-size="10" textLength="295.005" font-family="monospace">Please use CSS style instead of skinparam padding</text><!--class Outcome--><g class="entity" data-qualified-name="Outcome" id="ent0001" data-source-line="74"><a target="_top" href="/concept/outcome/#ontology" xlink:href="/concept/outcome/#ontology" xlink:type="simple" xlink:actuate="onRequest" xlink:show="new" title="/concept/outcome/#ontology" xlink:title="/concept/outcome/#ontology"><polygon points="65.5,120.141,65.5,120.351,75.204,119.726,84.907,120.334,94.611,120.54,104.314,119.427,114.018,120.063,123.721,119.714,133.425,119.757,143.128,120.072,152.832,120.141,152.743,119.928,153.326,120.487,153.6,120.298,154.079,120.607,154.584,120.977,154.953,121.019,154.926,121.008,155.15,121.452,155.294,121.864,155.535,122.315,155.729,122.747,155.832,123.141,156.027,123.141,156.055,127.941,156.058,132.741,155.916,137.541,155.986,142.341,155.832,147.141,156.048,147.23,155.434,147.473,155.689,148.076,155.213,148.376,155.293,148.906,154.953,149.262,154.89,149.109,154.52,149.417,154.199,149.842,153.674,149.774,153.269,149.997,152.832,150.141,152.832,150.479,143.128,150.557,133.425,150.137,123.721,150.428,114.018,149.568,104.314,150.425,94.611,150.689,84.907,150.585,75.204,150.754,65.5,150.141,65.438,149.992,64.993,149.764,64.572,149.598,64.22,149.595,63.778,149.377,63.379,149.262,63.589,149.349,63.149,148.815,62.922,148.37,62.922,148.018,62.47,147.48,62.5,147.141,62.327,147.141,62.716,142.341,62.645,137.541,62.745,132.741,62.393,127.941,62.5,123.141,62.598,123.181,62.858,122.792,62.706,122.232,62.998,121.856,63.242,121.46,63.379,121.019,63.462,121.22,63.802,120.842,64.286,120.81,64.581,120.322,64.989,120.108,65.5,120.141" fill="#4051B5" style="stroke:#FF6F00;stroke-width:2;stroke-linejoin:miter;stroke-miterlimit:10;"/><polygon points="86.555,137.573,85.089,139.576,83.356,142.509,80.876,144.486,78.27,145.568,76.193,145.661,73.522,144.309,71.003,143.426,69.09,141.633,68.087,139.58,67.492,137.945,66.91,135.809,65.964,133.972,66.691,132.178,67.327,130.213,69.718,128.658,71.399,126.642,73.48,125.972,75.955,125.395,79.128,125.738,80.866,126.557,82.886,126.929,85.343,129.446,86.199,132.103,86.571,133.916,86.15,136.904" fill="#ADD1B2" style="stroke:#181818;stroke-width:1;stroke-linejoin:miter;stroke-miterlimit:10;"/><path d="M78.359,139.375 Q77.922,139.594 77.422,139.703 Q76.938,139.828 76.406,139.828 Q74.484,139.828 73.469,138.563 Q72.469,137.297 72.469,134.906 Q72.469,132.516 73.469,131.25 Q74.484,129.984 76.406,129.984 Q76.938,129.984 77.438,130.109 Q77.938,130.219 78.359,130.453 L78.359,132.531 Q77.875,132.094 77.422,131.891 Q76.969,131.672 76.484,131.672 Q75.469,131.672 74.938,132.5 Q74.406,133.313 74.406,134.906 Q74.406,136.516 74.938,137.328 Q75.469,138.141 76.484,138.141 Q76.969,138.141 77.422,137.938 Q77.875,137.734 78.359,137.281 L78.359,139.375 Z " fill="#FFF"/><text x="91.5" y="139.641" fill="#FFF" font-size="13" textLength="59.332" font-family="'Roboto'">Outcome</text></a></g><!--class OutcomeStereotype--><g class="entity" data-qualified-name="OutcomeStereotype" id="ent0002" data-source-line="75"><a target="_top" href="/concept/outcome/outcome-stereotype/#ontology" xlink:href="/concept/outcome/outcome-stereotype/#ontology" xlink:type="simple" xlink:actuate="onRequest" xlink:show="new" title="/concept/outcome/outcome-stereotype/#ontology" xlink:title="/concept/outcome/outcome-stereotype/#ontology"><polygon points="29.66,211.641,29.66,211.851,39.598,211.226,49.537,211.834,59.475,212.04,69.414,210.927,79.352,211.563,89.291,211.214,99.229,211.257,109.168,211.572,119.106,210.949,129.045,212.194,138.983,211.01,148.922,211.443,158.86,212.073,168.799,211.555,178.737,211.709,188.676,211.641,188.672,211.631,189.123,211.871,189.555,212.066,190.023,212.348,190.458,212.55,190.797,212.519,191.006,212.606,191.051,212.976,191.291,213.427,191.54,213.882,191.278,214.124,191.676,214.641,191.902,214.641,191.577,219.441,191.854,224.241,191.511,229.041,191.653,233.841,191.676,238.641,191.904,238.735,191.485,239.059,191.357,239.503,191.253,239.957,191.101,240.391,190.797,240.762,190.796,240.761,190.409,241.026,189.875,240.937,189.56,241.377,189.17,241.634,188.676,241.641,188.676,242.085,178.737,242.254,168.799,241.158,158.86,240.988,148.922,241.019,138.983,241.582,129.045,241.444,119.106,242.322,109.168,241.466,99.229,241.298,89.291,241.869,79.352,240.974,69.414,241.121,59.475,242.29,49.537,242.076,39.598,242.375,29.66,241.641,29.619,241.542,29.276,241.563,28.887,241.471,28.327,240.968,27.951,240.908,27.539,240.762,27.577,240.778,27.564,240.421,27.186,239.913,27.154,239.548,26.665,238.994,26.66,238.641,26.434,238.641,26.828,233.841,26.421,229.041,26.83,224.241,26.729,219.441,26.66,214.641,26.577,214.606,26.727,214.171,27.153,213.851,27.095,213.33,27.545,213.019,27.539,212.519,27.468,212.349,28.042,212.534,28.449,212.317,28.843,212.068,29.242,211.831,29.66,211.641" fill="#4051B5" style="stroke:#FF6F00;stroke-width:2;stroke-linejoin:miter;stroke-miterlimit:10;"/><polygon points="50.715,229.073,49.249,231.076,47.516,234.009,45.036,235.986,42.43,237.068,40.353,237.161,37.682,235.809,35.163,234.926,33.25,233.133,32.247,231.08,31.652,229.445,31.07,227.309,30.124,225.472,30.851,223.678,31.487,221.713,33.878,220.158,35.559,218.142,37.64,217.472,40.115,216.895,43.288,217.238,45.026,218.057,47.046,218.429,49.503,220.946,50.359,223.603,50.731,225.416,50.31,228.404" fill="#ADD1B2" style="stroke:#181818;stroke-width:1;stroke-linejoin:miter;stroke-miterlimit:10;"/><path d="M42.519,230.875 Q42.082,231.094 41.582,231.203 Q41.098,231.328 40.566,231.328 Q38.644,231.328 37.629,230.063 Q36.629,228.797 36.629,226.406 Q36.629,224.016 37.629,222.75 Q38.644,221.484 40.566,221.484 Q41.098,221.484 41.598,221.609 Q42.098,221.719 42.519,221.953 L42.519,224.031 Q42.035,223.594 41.582,223.391 Q41.129,223.172 40.644,223.172 Q39.629,223.172 39.098,224 Q38.566,224.813 38.566,226.406 Q38.566,228.016 39.098,228.828 Q39.629,229.641 40.644,229.641 Q41.129,229.641 41.582,229.438 Q42.035,229.234 42.519,228.781 L42.519,230.875 Z " fill="#FFF"/><text x="55.66" y="231.141" fill="#FFF" font-size="13" textLength="131.016" font-family="'Roboto'">OutcomeStereotype</text></a></g><!--class UseCase--><g class="entity" data-qualified-name="UseCase" id="ent0003" data-source-line="76"><a target="_top" href="/concept/use-case/#ontology" xlink:href="/concept/use-case/#ontology" xlink:type="simple" xlink:actuate="onRequest" xlink:show="new" title="/concept/use-case/#ontology" xlink:title="/concept/use-case/#ontology"><polygon points="278.12,120.141,278.12,120.351,288.633,119.726,299.145,120.334,309.658,120.54,320.17,119.427,330.683,120.063,341.195,119.714,351.708,119.757,362.221,120.141,362.212,120.12,362.557,120.103,363.14,120.663,363.413,120.474,363.892,120.783,364.342,121.019,364.475,121.074,364.491,121.433,364.714,121.877,364.859,122.288,365.1,122.739,365.221,123.141,365.3,123.141,365.416,127.941,365.444,132.741,365.447,137.541,365.305,142.341,365.221,147.141,365.363,147.2,365.261,147.654,364.647,147.897,364.902,148.5,364.426,148.8,364.342,149.262,364.41,149.426,363.854,149.285,363.485,149.592,363.164,150.018,362.639,149.95,362.221,150.141,362.221,150.246,351.708,150.479,341.195,150.557,330.683,150.137,320.17,150.428,309.658,149.568,299.145,150.425,288.633,150.689,278.12,150.141,278.177,150.278,277.774,150.154,277.21,149.64,276.764,149.413,276.344,149.246,275.999,149.262,275.981,149.254,275.762,148.813,275.857,148.5,275.418,147.967,275.19,147.521,275.12,147.141,275.196,147.141,274.898,142.341,274.947,137.541,275.336,132.741,275.265,127.941,275.12,123.141,275.346,123.234,275.197,122.675,275.57,122.333,275.829,121.943,275.677,121.383,275.999,121.019,275.986,120.99,276.439,120.882,276.93,120.869,277.271,120.491,277.755,120.459,278.12,120.141" fill="#4051B5" style="stroke:#FF6F00;stroke-width:2;stroke-linejoin:miter;stroke-miterlimit:10;"/><polygon points="299.175,137.573,297.709,139.576,295.976,142.509,293.496,144.486,290.89,145.568,288.813,145.661,286.142,144.309,283.623,143.426,281.71,141.633,280.707,139.58,280.112,137.945,279.53,135.809,278.584,133.972,279.311,132.178,279.947,130.213,282.338,128.658,284.019,126.642,286.1,125.972,288.575,125.395,291.748,125.738,293.486,126.557,295.506,126.929,297.963,129.446,298.819,132.103,299.191,133.916,298.77,136.904" fill="#ADD1B2" style="stroke:#181818;stroke-width:1;stroke-linejoin:miter;stroke-miterlimit:10;"/><path d="M290.979,139.375 Q290.542,139.594 290.042,139.703 Q289.558,139.828 289.026,139.828 Q287.104,139.828 286.089,138.563 Q285.089,137.297 285.089,134.906 Q285.089,132.516 286.089,131.25 Q287.104,129.984 289.026,129.984 Q289.558,129.984 290.058,130.109 Q290.558,130.219 290.979,130.453 L290.979,132.531 Q290.495,132.094 290.042,131.891 Q289.589,131.672 289.104,131.672 Q288.089,131.672 287.558,132.5 Q287.026,133.313 287.026,134.906 Q287.026,136.516 287.558,137.328 Q288.089,138.141 289.104,138.141 Q289.589,138.141 290.042,137.938 Q290.495,137.734 290.979,137.281 L290.979,139.375 Z " fill="#FFF"/><text x="304.12" y="139.641" fill="#FFF" font-size="13" textLength="56.101" font-family="'Roboto'">UseCase</text></a></g><!--class Story--><g class="entity" data-qualified-name="Story" id="ent0004" data-source-line="77"><a target="_top" href="/concept/story/#ontology" xlink:href="/concept/story/#ontology" xlink:type="simple" xlink:actuate="onRequest" xlink:show="new" title="/concept/story/#ontology" xlink:title="/concept/story/#ontology"><polygon points="10,28.641,10,28.851,20.39,28.226,30.78,28.834,41.17,29.04,51.561,27.927,61.951,28.563,72.341,28.641,72.286,28.509,72.716,28.698,73.181,28.971,73.525,28.955,74.108,29.514,74.462,29.519,74.268,29.439,74.577,29.918,74.947,30.423,74.963,30.781,75.186,31.225,75.341,31.641,75.33,31.641,75.4,36.441,75.421,41.241,75.536,46.041,75.565,50.841,75.341,55.641,75.55,55.727,75.243,56.097,75.132,56.548,75.03,57.003,74.416,57.246,74.462,57.762,74.549,57.971,74,57.846,73.682,58.278,73.126,58.137,72.756,58.444,72.341,58.641,72.341,59.382,61.951,58.592,51.561,58.746,41.17,58.979,30.78,59.057,20.39,58.637,10,58.641,10.037,58.729,9.503,58.289,9.188,58.377,8.797,58.282,8.36,58.075,7.879,57.762,8.067,57.84,7.554,57.276,7.326,56.83,7.16,56.41,7.158,56.057,7,55.641,6.934,55.641,7.227,50.841,6.942,46.041,6.886,41.241,7.076,36.441,7,31.641,6.795,31.556,7.016,31.15,7.551,30.875,7.661,30.423,7.929,30.037,7.879,29.519,7.838,29.42,8.344,29.442,8.803,29.35,9.091,28.847,9.564,28.787,10,28.641" fill="#4051B5" style="stroke:#FF6F00;stroke-width:2;stroke-linejoin:miter;stroke-miterlimit:10;"/><polygon points="31.055,46.073,29.589,48.076,27.856,51.009,25.376,52.986,22.77,54.068,20.693,54.161,18.022,52.809,15.503,51.926,13.59,50.133,12.587,48.08,11.992,46.445,11.41,44.309,10.464,42.472,11.191,40.678,11.827,38.713,14.218,37.158,15.899,35.142,17.98,34.472,20.455,33.895,23.628,34.238,25.366,35.057,27.386,35.429,29.843,37.946,30.699,40.603,31.071,42.416,30.65,45.404" fill="#ADD1B2" style="stroke:#181818;stroke-width:1;stroke-linejoin:miter;stroke-miterlimit:10;"/><path d="M22.859,47.875 Q22.422,48.094 21.922,48.203 Q21.438,48.328 20.906,48.328 Q18.984,48.328 17.969,47.063 Q16.969,45.797 16.969,43.406 Q16.969,41.016 17.969,39.75 Q18.984,38.484 20.906,38.484 Q21.438,38.484 21.938,38.609 Q22.438,38.719 22.859,38.953 L22.859,41.031 Q22.375,40.594 21.922,40.391 Q21.469,40.172 20.984,40.172 Q19.969,40.172 19.438,41 Q18.906,41.813 18.906,43.406 Q18.906,45.016 19.438,45.828 Q19.969,46.641 20.984,46.641 Q21.469,46.641 21.922,46.438 Q22.375,46.234 22.859,45.781 L22.859,47.875 Z " fill="#FFF"/><text x="36" y="48.141" fill="#FFF" font-size="13" textLength="34.341" font-family="'Roboto'">Story</text></a></g><!--class OutcomeRelationship--><g class="entity" data-qualified-name="OutcomeRelationship" id="ent0005" data-source-line="78"><a target="_top" href="/concept/outcome/outcome-relationship/#ontology" xlink:href="/concept/outcome/outcome-relationship/#ontology" xlink:type="simple" xlink:actuate="onRequest" xlink:show="new" title="/concept/outcome/outcome-relationship/#ontology" xlink:title="/concept/outcome/outcome-relationship/#ontology"><polygon points="172.31,28.641,172.31,28.851,182.176,28.226,192.042,28.834,201.907,29.04,211.773,27.927,221.639,28.563,231.505,28.214,241.37,28.257,251.236,28.572,261.102,27.949,270.968,29.194,280.834,28.01,290.699,28.443,300.565,29.073,310.431,28.555,320.297,28.709,330.162,28.609,340.028,28.641,340.051,28.696,340.483,28.89,340.952,29.172,341.387,29.374,341.812,29.553,342.15,29.519,342.228,29.552,342.468,30.003,342.717,30.457,342.455,30.7,343.061,31.303,343.028,31.641,342.929,31.641,343.206,36.441,342.863,41.241,343.005,46.041,343.275,50.841,343.028,55.641,343.013,55.634,342.885,56.078,342.781,56.532,342.629,56.967,342.324,57.337,342.15,57.762,342.186,57.85,341.652,57.761,341.337,58.201,340.947,58.458,340.509,58.602,340.028,58.641,340.028,59.254,330.162,58.158,320.297,57.988,310.431,58.019,300.565,58.582,290.699,58.444,280.834,59.322,270.968,58.466,261.102,58.298,251.236,58.869,241.37,57.974,231.505,58.121,221.639,59.29,211.773,59.076,201.907,59.375,192.042,58.319,182.176,58.96,172.31,58.641,172.385,58.822,171.825,58.319,171.449,58.26,171.053,58.152,170.696,58.138,170.189,57.762,170.187,57.761,170.155,57.397,169.667,56.843,169.453,56.403,169.641,56.129,169.31,55.641,169.071,55.641,169.48,50.841,169.379,46.041,169.221,41.241,169.192,36.441,169.31,31.641,169.451,31.699,169.394,31.178,169.844,30.868,169.667,30.297,170.203,30.022,170.189,29.519,170.25,29.668,170.644,29.419,171.043,29.182,171.554,29.216,171.964,29.005,172.31,28.641" fill="#4051B5" style="stroke:#FF6F00;stroke-width:2;stroke-linejoin:miter;stroke-miterlimit:10;"/><polygon points="193.365,46.073,191.899,48.076,190.166,51.009,187.686,52.986,185.08,54.068,183.003,54.161,180.332,52.809,177.813,51.926,175.9,50.133,174.897,48.08,174.302,46.445,173.72,44.309,172.774,42.472,173.501,40.678,174.137,38.713,176.528,37.158,178.209,35.142,180.29,34.472,182.765,33.895,185.938,34.238,187.676,35.057,189.696,35.429,192.153,37.946,193.009,40.603,193.381,42.416,192.96,45.404" fill="#ADD1B2" style="stroke:#181818;stroke-width:1;stroke-linejoin:miter;stroke-miterlimit:10;"/><path d="M185.169,47.875 Q184.732,48.094 184.232,48.203 Q183.748,48.328 183.216,48.328 Q181.294,48.328 180.279,47.063 Q179.279,45.797 179.279,43.406 Q179.279,41.016 180.279,39.75 Q181.294,38.484 183.216,38.484 Q183.748,38.484 184.248,38.609 Q184.748,38.719 185.169,38.953 L185.169,41.031 Q184.685,40.594 184.232,40.391 Q183.779,40.172 183.294,40.172 Q182.279,40.172 181.748,41 Q181.216,41.813 181.216,43.406 Q181.216,45.016 181.748,45.828 Q182.279,46.641 183.294,46.641 Q183.779,46.641 184.232,46.438 Q184.685,46.234 185.169,45.781 L185.169,47.875 Z " fill="#FFF"/><text x="198.31" y="48.141" fill="#FFF" font-size="13" textLength="139.718" font-family="'Roboto'">OutcomeRelationship</text></a></g><!--link Outcome to OutcomeStereotype--><g class="link" data-entity-1="ent0001" data-entity-2="ent0002" id="lnk6" data-source-line="81" data-link-type="dependency"><path d="M109.17,150.521 L109.45,150.521 L108.618,159.817 L109.428,169.114 L109.703,178.411 L108.219,187.707 L109.066,197.004 L109.17,206.301" style="stroke:#FF6F00;stroke-width:2;" fill="none"/><polygon points="109.17,211.301,109.234,211.329,109.844,209.445,110.829,207.727,111.692,205.955,112.153,204.004,113.17,202.301,113.152,202.282,112.269,203,111.48,203.81,110.754,204.685,109.807,205.338,109.17,206.301,109.3,206.431,108.221,205.352,107.523,204.654,106.872,204.002,105.95,203.08,105.17,202.301,105.191,202.31,105.96,204.096,106.824,205.925,107.643,207.733,108.548,209.58,109.17,211.301" fill="#FF6F00" style="stroke:#FF6F00;stroke-width:2;stroke-linejoin:miter;stroke-miterlimit:10;"/><text x="112.17" y="185.708" fill="#FFF" font-size="13" textLength="131.638" font-family="'Roboto'">outcome:stereotype</text><text x="79.007" y="172.227" fill="#FFF" font-size="13" textLength="24.807" font-family="'Roboto'">0..1</text><text x="97.301" y="198.471" fill="#FFF" font-size="13" font-family="'Roboto'">1</text></g><!--link OutcomeRelationship to UseCase--><g class="link" data-entity-1="ent0005" data-entity-2="ent0003" id="lnk7" data-source-line="84" data-link-type="dependency"><path d="M269.89,59.071 L269.96,59.132 L271.407,60.844 L273.266,62.917 L274.991,64.872 L276.274,66.441 L278.169,68.544 L278.142,68.523 L279.62,70.446 L281.236,72.477 L282.946,74.583 L284.329,76.431 L286.17,78.641 L286.371,78.783 L287.341,80.448 L288.897,82.528 L290.524,84.659 L291.735,86.495 L293.166,88.487 L293.191,88.503 L294.391,90.36 L295.707,92.293 L296.967,94.19 L298.333,96.156 L299.353,97.895 L299.607,98.051 L300.719,99.86 L301.667,101.569 L302.855,103.426 L304.054,105.289 L304.897,106.934 L304.62,106.773 L306.171,108.832 L306.81,110.363 L308.142,112.295 L308.76,113.813 L309.964,115.671" style="stroke:#FF6F00;stroke-width:2;" fill="none"/><polygon points="312.43,120.021,312.5,120.027,312.101,118.047,312.11,116.106,311.987,114.152,311.425,112.156,311.47,110.219,311.445,110.212,311.032,111.271,310.744,112.366,310.544,113.484,310.043,114.519,309.964,115.671,310.013,115.849,308.817,115.167,307.765,115.005,306.73,114.906,305.594,114.439,304.511,114.165,304.525,114.183,306.088,115.327,307.714,116.555,309.31,117.742,310.962,119.006,312.43,120.021" fill="#FF6F00" style="stroke:#FF6F00;stroke-width:2;stroke-linejoin:miter;stroke-miterlimit:10;"/><text x="303.17" y="93.708" fill="#FFF" font-size="13" textLength="59.205" font-family="'Roboto'">:useCase</text><text x="244.963" y="80.793" fill="#FFF" font-size="13" textLength="23.036" font-family="'Roboto'">0..*</text><text x="297.923" y="106.954" fill="#FFF" font-size="13" font-family="'Roboto'">1</text></g><!--link OutcomeRelationship to Outcome--><g class="link" data-entity-1="ent0005" data-entity-2="ent0001" id="lnk8" data-source-line="85" data-link-type="dependency"><path d="M210.94,59.001 L210.975,59.087 L208.802,59.666 L206.834,60.753 L204.8,61.674 L202.546,62.052 L200.596,63.182 L200.582,63.15 L198.431,63.944 L196.351,64.896 L194.32,65.959 L192.12,66.641 L190.158,67.857 L190.268,68.077 L187.984,68.638 L186.022,69.841 L184.1,71.123 L181.949,71.948 L179.918,73.014 L179.933,73.04 L177.961,74.127 L176.059,75.333 L174.122,76.482 L172.25,77.741 L170.17,78.641 L170.339,78.887 L167.712,80.689 L164.978,82.334 L162.402,84.21 L159.834,86.097 L157.03,87.64 L156.828,87.39 L154.865,89.773 L152.238,91.334 L150.116,93.52 L147.474,95.063 L145.258,97.133 L145.237,97.111 L143.384,99.302 L141.049,100.969 L138.998,102.946 L136.972,104.948 L134.773,106.763 L134.904,106.893 L132.915,108.644 L131.151,110.617 L129.023,112.23 L127.437,114.38 L125.491,116.173" style="stroke:#FF6F00;stroke-width:2;" fill="none"/><polygon points="122.05,119.801,122.077,119.865,123.816,118.918,125.713,118.349,127.559,117.657,129.235,116.559,131.146,116.024,131.145,115.998,130.011,115.911,128.88,115.956,127.752,116.091,126.616,115.913,125.491,116.173,125.675,116.178,125.251,115.036,125.365,113.909,125.545,112.784,125.343,111.648,125.342,110.518,125.363,110.526,124.673,112.371,124.081,114.251,123.442,116.114,122.892,118.009,122.05,119.801" fill="#FF6F00" style="stroke:#FF6F00;stroke-width:2;stroke-linejoin:miter;stroke-miterlimit:10;"/><text x="173.17" y="93.708" fill="#FFF" font-size="13" textLength="103.467" font-family="'Roboto'">:targetOutcome</text></g><!--link UseCase to UseCase--><g class="link" data-entity-1="ent0003" data-entity-2="ent0003" id="lnk9" data-source-line="88" data-link-type="dependency"><path d="M365.6,130.831 L365.602,130.924 L367.899,130.69 L370.207,131.004 L372.511,131.14 L374.804,130.689 L377.113,131.05 L377.11,131.015 L378.981,131.019 L380.866,131.197 L382.761,131.495 L384.621,131.377 L386.53,131.842 L386.617,132.072 L388.169,132.24 L389.975,133.079 L391.812,134.001 L393.468,134.445 L395.22,135.141 L395.234,135.167 L393.975,135.791 L392.781,136.536 L391.556,137.222 L390.391,138.02 L389.03,138.453 L389.047,138.751 L385.361,138.96 L381.664,138.976 L377.983,139.274 L374.303,139.585 L370.6,139.478" style="stroke:#FF6F00;stroke-width:2;" fill="none"/><polygon points="365.6,139.451,365.629,139.514,367.339,140.135,369.218,141.129,371.041,142.002,372.684,142.474,374.578,143.5,374.559,143.482,373.681,142.596,372.896,141.802,372.175,141.071,371.232,140.121,370.6,139.478,370.73,139.609,371.257,138.533,372.162,137.84,373.114,137.194,373.797,136.276,374.622,135.5,374.631,135.521,372.813,136.281,371.037,137.135,369.241,137.944,367.483,138.839,365.6,139.451" fill="#FF6F00" style="stroke:#FF6F00;stroke-width:2;stroke-linejoin:miter;stroke-miterlimit:10;"/><text x="403.22" y="139.708" fill="#FFF" font-size="13" textLength="55.821" font-family="'Roboto'">:isPartOf</text><text x="375.153" y="124.137" fill="#FFF" font-size="13" textLength="23.036" font-family="'Roboto'">0..*</text><text x="375.266" y="155.295" fill="#FFF" font-size="13" textLength="24.807" font-family="'Roboto'">0..1</text></g><!--link UseCase to UseCase--><g class="link" data-entity-1="ent0003" data-entity-2="ent0003" id="lnk10" data-source-line="89" data-link-type="dependency"><path d="M365.45,128.021 L365.455,128.114 L368.887,127.635 L372.35,127.703 L375.803,127.594 L379.222,126.898 L382.688,127.013 L382.687,126.979 L386.178,126.731 L389.674,126.657 L393.172,126.704 L396.66,126.334 L400.163,126.548 L400.164,126.794 L403.547,126.284 L406.934,126.492 L410.321,126.787 L413.706,126.572 L417.092,126.626 L417.093,126.656 L420.212,126.736 L423.336,126.953 L426.458,127.104 L429.585,127.382 L432.695,127.246 L432.721,127.543 L435.42,127.779 L438.103,127.823 L440.81,128.148 L443.518,128.486 L446.19,128.407 L446.14,128.091 L448.36,129.046 L450.412,128.958 L452.592,129.663 L454.641,129.552 L456.797,130.11 L456.783,130.083 L458.837,131.407 L460.556,132.103 L462.473,133.17 L464.406,134.267 L466.22,135.141 L466.314,135.3 L464.49,136.157 L462.827,137.286 L460.905,137.975 L459.369,139.321 L457.576,140.23 L457.619,140.47 L455.65,140.777 L453.701,141.204 L451.653,141.077 L449.678,141.356 L447.768,141.994 L447.741,141.719 L445.249,142.214 L442.727,142.399 L440.249,143.034 L437.696,142.901 L435.188,143.225 L435.181,143.072 L432.255,143.464 L429.299,143.204 L426.364,143.408 L423.451,144.064 L420.5,143.914 L420.502,144.107 L417.277,144.268 L414.047,143.826 L410.823,144.138 L407.598,144.287 L404.369,144.052 L404.364,143.842 L400.986,143.925 L397.607,143.939 L394.231,144.088 L390.842,143.712 L387.46,143.63 L387.472,143.835 L384.041,143.186 L380.633,142.933 L377.258,143.259 L373.822,142.519 L370.436,142.639" style="stroke:#FF6F00;stroke-width:2;" fill="none"/><polygon points="365.45,142.261,365.483,142.322,367.119,143.073,368.949,144.185,370.716,145.179,372.275,145.787,374.122,146.93,374.102,146.913,373.277,145.979,372.55,145.13,371.893,144.34,370.998,143.347,370.436,142.639,370.556,142.779,371.157,141.742,372.109,141.114,373.104,140.536,373.85,139.668,374.727,138.953,374.734,138.974,372.868,139.604,371.036,140.332,369.187,141.013,367.371,141.783,365.45,142.261" fill="#FF6F00" style="stroke:#FF6F00;stroke-width:2;stroke-linejoin:miter;stroke-miterlimit:10;"/><text x="474.22" y="139.708" fill="#FFF" font-size="13" textLength="59.376" font-family="'Roboto'">:isUsedIn</text><text x="371.453" y="106.948" fill="#FFF" font-size="13" textLength="23.036" font-family="'Roboto'">0..*</text><text x="371.453" y="172.597" fill="#FFF" font-size="13" textLength="23.036" font-family="'Roboto'">0..*</text></g><!--link Story to Outcome--><g class="link" data-entity-1="ent0004" data-entity-2="ent0001" id="lnk11" data-source-line="92" data-link-type="dependency"><path d="M36.53,58.861 L36.622,58.879 L35.971,60.755 L35.857,62.736 L35.569,64.683 L34.705,66.517 L34.638,68.508 L34.603,68.505 L34.303,70.617 L34.176,72.741 L34.17,74.873 L33.748,76.976 L33.909,79.119 L34.153,79.148 L33.879,81.222 L34.318,83.38 L34.844,85.548 L34.864,87.657 L35.15,89.797 L35.179,89.808 L35.941,91.76 L36.832,93.764 L37.661,95.743 L38.607,97.77 L39.17,99.641 L39.407,99.821 L40.988,101.898 L42.416,103.858 L44.068,105.988 L45.73,108.127 L47.06,110.012 L46.875,109.75 L49.359,111.762 L51.234,112.913 L53.573,114.718 L55.434,115.849 L57.687,117.533" style="stroke:#FF6F00;stroke-width:2;" fill="none"/><polygon points="62.08,119.921,62.136,119.963,60.771,118.274,59.732,116.835,58.587,115.315,57.093,113.526,56.082,112.109,56.057,112.101,56.267,113.153,56.602,114.242,57.023,115.357,57.145,116.383,57.687,117.533,57.739,117.71,56.542,117.653,55.498,118.112,54.473,118.634,53.339,118.789,52.262,119.138,52.264,119.16,54.225,119.284,56.194,119.51,58.159,119.687,60.132,119.959,62.08,119.921" fill="#FF6F00" style="stroke:#FF6F00;stroke-width:2;stroke-linejoin:miter;stroke-miterlimit:10;"/><text x="42.17" y="93.708" fill="#FFF" font-size="13" textLength="94.028" font-family="'Roboto'">:contributesTo</text></g><?plantuml-src hLNRRjiu47tNLqoLXrvGDydsyk271Hp7QOkcTY0dM2oAeg2baSrQ8WLojAvQzDyxr2McRINfBbOleePdpl3CXNga2v9QmKgeP6Ca4IeWKsBmAC5KAeIpjry-ZjvFlundbxC8wkVerSdhqyLh7pAVZ6VJyr7qTulhWLoDnXz6RoUtH0UGMNG-YVmuS9IcRzAJarl8nMnwlGEe8UwvXOoYQFRNBgPZ2UnQga8OaSD2nEkbqQLAnZhJXXKBPNaB5GN1OnZhl10nGIOgNH9O999gQJs2Av4aR88_F5lKy1c51jvuzlbA97hZqAd8B7exxwe2JIRL-aObzGARtFSWcdDsKhO0FlZQOW6lVAFI2JhZontHvvYACYFu4LneHLEH8uIHNcZIOMrfGcnpN1ldyZl2wSlWfyyqCaPlcAVny5BkyNI5gKceof1FPNAH1TSh6QyLMil9ss6DCy767y7PNd5sEZ0uquPprUvuBTDk-EozeaP4HYvAmlvTf-nGLcs-y-3SAsknn3Qn1vp_KSzE24k2yC7S_7-2_qMMvoJCNiqdtV4wmqytLPDlHIPZILdb9if9CdICAcd5nSx3Gifk_qWh5pAJL85Ka0YpXfnRcZcccd08LvbGTFFn4d9HySrbafXtxo1y3bO3hNWUQhJI11jjrlvyEdIFYZt4WQW-XltwtCtrcyY6rQl6FOmFesgs2vbb3t4TOWBI1P06lYz8vv18Wx7xSmGhoRdFCL-WiK7G374uAodMEOOWBBHh-FJfEDOgneAETMCwFkAMv2ZBwlFdFSyveK5DVFtv75jh7rlx7jXRL5-06ujZOHlQTksJbHO7CTlwNEUaJLKxrYlVpJh3FNeYp8HBbrt9mbVas-_JP3pSJXWUYYx1AwPjVkSYWsqIWcu_F7dnuZI4mU1F2FbzcDCXjE66dhSNmFs8t4Ntn3_DG2--SYiy3VeKkP3FjY6xV0zXM3RBNYy7xs8ob9jsYTGQt7cO1cgUQuDkxaqPKsamwEZzg8rcBx2qLpm4i_GkzBCzD7yaxvKBwuekqOB1bBF3TUhIPLr1mysg2eEcCVO4S57REzXUwry0?></g></svg>