<svg xmlns="http://www.w3.org/2000/svg" xmlns:xlink="http://www.w3.org/1999/xlink" contentStyleType="text/css" data-diagram-type="CLASS" height="302px" preserveAspectRatio="none" style="width:150px;height:302px;" version="1.1" viewBox="0 0 150 302" width="150px" zoomAndPan="magnify"><defs/><g><!--class WorkflowDefinition--><g class="entity" data-qualified-name="WorkflowDefinition" data-source-line="62" id="ent0002"><a href="/concept/workflow/#ontology" target="_top" title="/concept/workflow/#ontology" xlink:actuate="onRequest" xlink:href="/concept/workflow/#ontology" xlink:show="new" xlink:title="/concept/workflow/#ontology" xlink:type="simple"><polygon fill="#4051B5" points="30,7,30,7.0701,35.6,6.8619,41.2,7.0644,46.8,7.1332,52.4,6.7622,58,7,57.9901,6.9761,58.3699,7.0444,58.7996,7.2334,59.2641,7.5062,59.6089,7.49,60.1213,7.8787,60.2918,7.9493,60.103,8.2225,60.4119,8.702,60.7816,9.2066,60.7978,9.5648,61,10,61.0227,10,60.9894,14.8,61.0595,19.6,61.0797,24.4,61.1952,29.2,61,34,61.2067,34.0856,61.0334,34.5109,60.7269,34.881,60.6156,35.3319,60.5133,35.7866,60.1213,36.1213,60.0293,35.8992,59.7836,36.506,59.235,36.3815,58.9166,36.8129,58.3611,36.6718,58,37,58,36.9772,52.4,37.2472,46.8,36.9838,41.2,37.0351,35.6,37.1129,30,37,30.0531,37.1282,29.5752,36.8231,29.1881,36.737,28.6542,36.2965,28.3392,36.3846,27.8787,36.1213,28.0475,36.1912,27.8398,35.7538,27.716,35.351,27.2027,34.7869,26.9749,34.3411,27,34,26.7929,34,26.9804,29.2,26.9345,24.4,27.2271,19.6,26.9418,14.8,27,10,26.8944,9.9562,27.246,9.6049,27.1461,9.0664,27.3673,8.661,27.9028,8.3857,27.8787,7.8787,27.9343,8.0128,28.3966,7.9291,28.6862,7.4281,29.1922,7.4498,29.6511,7.3576,30,7" style="stroke:#FF6F00;stroke-width:2;"/><polygon fill="#ADD1B2" points="51.0552,24.4324,49.5894,26.4353,47.8556,29.3688,45.376,31.3458,42.7703,32.4269,40.6927,32.5207,38.0224,31.1687,35.5029,30.2854,33.5905,28.492,32.5873,26.4389,31.9924,24.8041,31.4096,22.6688,30.4636,20.8313,31.1906,19.0373,31.8275,17.072,34.2175,15.5177,35.8991,13.501,37.9804,12.8313,40.4547,12.2546,43.6276,12.5972,45.3655,13.4168,47.3861,13.7884,49.8429,16.3054,50.6993,18.9627,51.0714,20.7758,50.65,23.7635" style="stroke:#181818;stroke-width:1;"/><path d="M42.8594,26.2344 Q42.4219,26.4531 41.9219,26.5625 Q41.4375,26.6875 40.9063,26.6875 Q38.9844,26.6875 37.9688,25.4219 Q36.9688,24.1563 36.9688,21.7656 Q36.9688,19.375 37.9688,18.1094 Q38.9844,16.8438 40.9063,16.8438 Q41.4375,16.8438 41.9375,16.9688 Q42.4375,17.0781 42.8594,17.3125 L42.8594,19.3906 Q42.375,18.9531 41.9219,18.75 Q41.4688,18.5313 40.9844,18.5313 Q39.9688,18.5313 39.4375,19.3594 Q38.9063,20.1719 38.9063,21.7656 Q38.9063,23.375 39.4375,24.1875 Q39.9688,25 40.9844,25 Q41.4688,25 41.9219,24.7969 Q42.375,24.5938 42.8594,24.1406 L42.8594,26.2344 Z " fill="#FFFFFF"/><text fill="#FFFFFF" font-family="'Roboto'" font-size="13" lengthAdjust="spacing" textLength="0" x="56" y="17">WorkflowDefinition</text></a></g><!--class UseCase--><g class="entity" data-qualified-name="UseCase" data-source-line="63" id="ent0003"><a href="/concept/use-case/#ontology" target="_top" title="/concept/use-case/#ontology" xlink:actuate="onRequest" xlink:href="/concept/use-case/#ontology" xlink:show="new" xlink:title="/concept/use-case/#ontology" xlink:type="simple"><polygon fill="#4051B5" points="10,93,10,93.0701,15.6,92.8619,21.2,93.0644,26.8,93.1332,32.4,92.7622,38,93,37.9901,92.9761,38.3699,93.0444,38.7996,93.2334,39.2641,93.5062,39.6089,93.49,40.1213,93.8787,40.2918,93.9493,40.103,94.2225,40.4119,94.702,40.7816,95.2066,40.7978,95.5648,41,96,41.0227,96,40.9894,100.8,41.0595,105.6,41.0797,110.4,41.1952,115.2,41,120,41.2067,120.0856,41.0334,120.5109,40.7269,120.881,40.6156,121.3319,40.5133,121.7866,40.1213,122.1213,40.0293,121.8992,39.7836,122.506,39.235,122.3815,38.9166,122.8129,38.3611,122.6718,38,123,38,122.9772,32.4,123.2472,26.8,122.9838,21.2,123.0351,15.6,123.1129,10,123,10.0531,123.1282,9.5752,122.8231,9.1881,122.737,8.6542,122.2965,8.3392,122.3846,7.8787,122.1213,8.0475,122.1912,7.8398,121.7538,7.716,121.351,7.2027,120.7869,6.9749,120.3411,7,120,6.7929,120,6.9804,115.2,6.9345,110.4,7.2271,105.6,6.9418,100.8,7,96,6.8944,95.9562,7.246,95.6049,7.1461,95.0664,7.3673,94.661,7.9028,94.3857,7.8787,93.8787,7.9343,94.0128,8.3966,93.9291,8.6862,93.4281,9.1922,93.4498,9.6511,93.3576,10,93" style="stroke:#FF6F00;stroke-width:2;"/><polygon fill="#ADD1B2" points="31.0552,110.4324,29.5894,112.4353,27.8556,115.3688,25.376,117.3458,22.7703,118.4269,20.6927,118.5207,18.0224,117.1687,15.5029,116.2854,13.5905,114.492,12.5873,112.4389,11.9924,110.8041,11.4096,108.6688,10.4636,106.8313,11.1906,105.0373,11.8275,103.072,14.2175,101.5177,15.8991,99.501,17.9804,98.8313,20.4547,98.2546,23.6276,98.5972,25.3655,99.4168,27.3861,99.7884,29.8429,102.3054,30.6993,104.9627,31.0714,106.7758,30.65,109.7635" style="stroke:#181818;stroke-width:1;"/><path d="M22.8594,112.2344 Q22.4219,112.4531 21.9219,112.5625 Q21.4375,112.6875 20.9063,112.6875 Q18.9844,112.6875 17.9688,111.4219 Q16.9688,110.1563 16.9688,107.7656 Q16.9688,105.375 17.9688,104.1094 Q18.9844,102.8438 20.9063,102.8438 Q21.4375,102.8438 21.9375,102.9688 Q22.4375,103.0781 22.8594,103.3125 L22.8594,105.3906 Q22.375,104.9531 21.9219,104.75 Q21.4688,104.5313 20.9844,104.5313 Q19.9688,104.5313 19.4375,105.3594 Q18.9063,106.1719 18.9063,107.7656 Q18.9063,109.375 19.4375,110.1875 Q19.9688,111 20.9844,111 Q21.4688,111 21.9219,110.7969 Q22.375,110.5938 22.8594,110.1406 L22.8594,112.2344 Z " fill="#FFFFFF"/><text fill="#FFFFFF" font-family="'Roboto'" font-size="13" lengthAdjust="spacing" textLength="0" x="36" y="103">UseCase</text></a></g><!--class Story--><g class="entity" data-qualified-name="Story" data-source-line="64" id="ent0004"><a href="/concept/story/#ontology" target="_top" title="/concept/story/#ontology" xlink:actuate="onRequest" xlink:href="/concept/story/#ontology" xlink:show="new" xlink:title="/concept/story/#ontology" xlink:type="simple"><polygon fill="#4051B5" points="74,93,74,93.0701,79.6,92.8619,85.2,93.0644,90.8,93.1332,96.4,92.7622,102,93,101.9901,92.9761,102.3699,93.0444,102.7996,93.2334,103.2641,93.5062,103.6089,93.49,104.1213,93.8787,104.2918,93.9493,104.103,94.2225,104.4119,94.702,104.7816,95.2066,104.7978,95.5648,105,96,105.0227,96,104.9894,100.8,105.0595,105.6,105.0797,110.4,105.1952,115.2,105,120,105.2067,120.0856,105.0334,120.5109,104.7269,120.881,104.6156,121.3319,104.5133,121.7866,104.1213,122.1213,104.0293,121.8992,103.7836,122.506,103.235,122.3815,102.9166,122.8129,102.3611,122.6718,102,123,102,122.9772,96.4,123.2472,90.8,122.9838,85.2,123.0351,79.6,123.1129,74,123,74.0531,123.1282,73.5752,122.8231,73.1881,122.737,72.6542,122.2965,72.3392,122.3846,71.8787,122.1213,72.0475,122.1912,71.8398,121.7538,71.716,121.351,71.2027,120.7869,70.9749,120.3411,71,120,70.7929,120,70.9804,115.2,70.9345,110.4,71.2271,105.6,70.9418,100.8,71,96,70.8944,95.9562,71.246,95.6049,71.1461,95.0664,71.3673,94.661,71.9028,94.3857,71.8787,93.8787,71.9343,94.0128,72.3966,93.9291,72.6862,93.4281,73.1922,93.4498,73.6511,93.3576,74,93" style="stroke:#FF6F00;stroke-width:2;"/><polygon fill="#ADD1B2" points="95.0552,110.4324,93.5894,112.4353,91.8556,115.3688,89.376,117.3458,86.7703,118.4269,84.6927,118.5207,82.0224,117.1687,79.5029,116.2854,77.5905,114.492,76.5873,112.4389,75.9924,110.8041,75.4096,108.6688,74.4636,106.8313,75.1906,105.0373,75.8275,103.072,78.2175,101.5177,79.8991,99.501,81.9804,98.8313,84.4547,98.2546,87.6276,98.5972,89.3655,99.4168,91.3861,99.7884,93.8429,102.3054,94.6993,104.9627,95.0714,106.7758,94.65,109.7635" style="stroke:#181818;stroke-width:1;"/><path d="M86.8594,112.2344 Q86.4219,112.4531 85.9219,112.5625 Q85.4375,112.6875 84.9063,112.6875 Q82.9844,112.6875 81.9688,111.4219 Q80.9688,110.1563 80.9688,107.7656 Q80.9688,105.375 81.9688,104.1094 Q82.9844,102.8438 84.9063,102.8438 Q85.4375,102.8438 85.9375,102.9688 Q86.4375,103.0781 86.8594,103.3125 L86.8594,105.3906 Q86.375,104.9531 85.9219,104.75 Q85.4688,104.5313 84.9844,104.5313 Q83.9688,104.5313 83.4375,105.3594 Q82.9063,106.1719 82.9063,107.7656 Q82.9063,109.375 83.4375,110.1875 Q83.9688,111 84.9844,111 Q85.4688,111 85.9219,110.7969 Q86.375,110.5938 86.8594,110.1406 L86.8594,112.2344 Z " fill="#FFFFFF"/><text fill="#FFFFFF" font-family="'Roboto'" font-size="13" lengthAdjust="spacing" textLength="0" x="100" y="103">Story</text></a></g><!--class Outcome--><g class="entity" data-qualified-name="Outcome" data-source-line="65" id="ent0005"><a href="/concept/outcome/#ontology" target="_top" title="/concept/outcome/#ontology" xlink:actuate="onRequest" xlink:href="/concept/outcome/#ontology" xlink:show="new" xlink:title="/concept/outcome/#ontology" xlink:type="simple"><polygon fill="#4051B5" points="48,179,48,179.0701,53.6,178.8619,59.2,179.0644,64.8,179.1332,70.4,178.7622,76,179,75.9901,178.9761,76.3699,179.0444,76.7996,179.2334,77.2641,179.5062,77.6089,179.49,78.1213,179.8787,78.2918,179.9493,78.103,180.2225,78.4119,180.702,78.7816,181.2066,78.7978,181.5648,79,182,79.0227,182,78.9894,186.8,79.0595,191.6,79.0797,196.4,79.1952,201.2,79,206,79.2067,206.0856,79.0334,206.5109,78.7269,206.881,78.6156,207.3319,78.5133,207.7866,78.1213,208.1213,78.0293,207.8992,77.7836,208.506,77.235,208.3815,76.9166,208.8129,76.3611,208.6718,76,209,76,208.9772,70.4,209.2472,64.8,208.9838,59.2,209.0351,53.6,209.1129,48,209,48.0531,209.1282,47.5752,208.8231,47.1881,208.737,46.6542,208.2965,46.3392,208.3846,45.8787,208.1213,46.0475,208.1912,45.8398,207.7538,45.716,207.351,45.2027,206.7869,44.9749,206.3411,45,206,44.7929,206,44.9804,201.2,44.9345,196.4,45.2271,191.6,44.9418,186.8,45,182,44.8944,181.9562,45.246,181.6049,45.1461,181.0664,45.3673,180.661,45.9028,180.3857,45.8787,179.8787,45.9343,180.0128,46.3966,179.9291,46.6862,179.4281,47.1922,179.4498,47.6511,179.3576,48,179" style="stroke:#FF6F00;stroke-width:2;"/><polygon fill="#ADD1B2" points="69.0552,196.4324,67.5894,198.4353,65.8556,201.3688,63.376,203.3458,60.7703,204.4269,58.6927,204.5207,56.0224,203.1687,53.5029,202.2854,51.5905,200.492,50.5873,198.4389,49.9924,196.8041,49.4096,194.6688,48.4636,192.8313,49.1906,191.0373,49.8275,189.072,52.2175,187.5177,53.8991,185.501,55.9804,184.8313,58.4547,184.2546,61.6276,184.5972,63.3655,185.4168,65.3861,185.7884,67.8429,188.3054,68.6993,190.9627,69.0714,192.7758,68.65,195.7635" style="stroke:#181818;stroke-width:1;"/><path d="M60.8594,198.2344 Q60.4219,198.4531 59.9219,198.5625 Q59.4375,198.6875 58.9063,198.6875 Q56.9844,198.6875 55.9688,197.4219 Q54.9688,196.1563 54.9688,193.7656 Q54.9688,191.375 55.9688,190.1094 Q56.9844,188.8438 58.9063,188.8438 Q59.4375,188.8438 59.9375,188.9688 Q60.4375,189.0781 60.8594,189.3125 L60.8594,191.3906 Q60.375,190.9531 59.9219,190.75 Q59.4688,190.5313 58.9844,190.5313 Q57.9688,190.5313 57.4375,191.3594 Q56.9063,192.1719 56.9063,193.7656 Q56.9063,195.375 57.4375,196.1875 Q57.9688,197 58.9844,197 Q59.4688,197 59.9219,196.7969 Q60.375,196.5938 60.8594,196.1406 L60.8594,198.2344 Z " fill="#FFFFFF"/><text fill="#FFFFFF" font-family="'Roboto'" font-size="13" lengthAdjust="spacing" textLength="0" x="74" y="189">Outcome</text></a></g><!--class Concept--><g class="entity" data-qualified-name="Concept" data-source-line="66" id="ent0006"><a href="/concept/concept/#ontology" target="_top" title="/concept/concept/#ontology" xlink:actuate="onRequest" xlink:href="/concept/concept/#ontology" xlink:show="new" xlink:title="/concept/concept/#ontology" xlink:type="simple"><polygon fill="#4051B5" points="112,265,112,265.0701,117.6,264.8619,123.2,265.0644,128.8,265.1332,134.4,264.7622,140,265,139.9901,264.9761,140.3699,265.0444,140.7996,265.2334,141.2641,265.5062,141.6089,265.49,142.1213,265.8787,142.2918,265.9493,142.103,266.2225,142.4119,266.702,142.7816,267.2066,142.7978,267.5648,143,268,143.0227,268,142.9894,272.8,143.0595,277.6,143.0797,282.4,143.1952,287.2,143,292,143.2067,292.0856,143.0334,292.5109,142.7269,292.881,142.6156,293.3319,142.5133,293.7866,142.1213,294.1213,142.0293,293.8992,141.7836,294.506,141.235,294.3815,140.9166,294.8129,140.3611,294.6718,140,295,140,294.9772,134.4,295.2472,128.8,294.9838,123.2,295.0351,117.6,295.1129,112,295,112.0531,295.1282,111.5752,294.8231,111.1881,294.737,110.6542,294.2965,110.3392,294.3846,109.8787,294.1213,110.0475,294.1912,109.8398,293.7538,109.716,293.351,109.2027,292.7869,108.9749,292.3411,109,292,108.7929,292,108.9804,287.2,108.9345,282.4,109.2271,277.6,108.9418,272.8,109,268,108.8944,267.9562,109.246,267.6049,109.1461,267.0664,109.3673,266.661,109.9028,266.3857,109.8787,265.8787,109.9343,266.0128,110.3966,265.9291,110.6862,265.4281,111.1922,265.4498,111.6511,265.3576,112,265" style="stroke:#FF6F00;stroke-width:2;"/><polygon fill="#ADD1B2" points="133.0552,282.4324,131.5894,284.4353,129.8556,287.3688,127.376,289.3458,124.7703,290.4269,122.6927,290.5207,120.0224,289.1687,117.5029,288.2854,115.5905,286.492,114.5873,284.4389,113.9924,282.8041,113.4096,280.6688,112.4636,278.8313,113.1906,277.0373,113.8275,275.072,116.2175,273.5177,117.8991,271.501,119.9804,270.8313,122.4547,270.2546,125.6276,270.5972,127.3655,271.4168,129.3861,271.7884,131.8429,274.3054,132.6993,276.9627,133.0714,278.7758,132.65,281.7635" style="stroke:#181818;stroke-width:1;"/><path d="M124.8594,284.2344 Q124.4219,284.4531 123.9219,284.5625 Q123.4375,284.6875 122.9063,284.6875 Q120.9844,284.6875 119.9688,283.4219 Q118.9688,282.1563 118.9688,279.7656 Q118.9688,277.375 119.9688,276.1094 Q120.9844,274.8438 122.9063,274.8438 Q123.4375,274.8438 123.9375,274.9688 Q124.4375,275.0781 124.8594,275.3125 L124.8594,277.3906 Q124.375,276.9531 123.9219,276.75 Q123.4688,276.5313 122.9844,276.5313 Q121.9688,276.5313 121.4375,277.3594 Q120.9063,278.1719 120.9063,279.7656 Q120.9063,281.375 121.4375,282.1875 Q121.9688,283 122.9844,283 Q123.4688,283 123.9219,282.7969 Q124.375,282.5938 124.8594,282.1406 L124.8594,284.2344 Z " fill="#FFFFFF"/><text fill="#FFFFFF" font-family="'Roboto'" font-size="13" lengthAdjust="spacing" textLength="0" x="138" y="275">Concept</text></a></g><!--class StoryConceptRelationship--><g class="entity" data-qualified-name="StoryConceptRelationship" data-source-line="67" id="ent0007"><polygon fill="#4051B5" points="112,179,112,179.0701,117.6,178.8619,123.2,179.0644,128.8,179.1332,134.4,178.7622,140,179,139.9901,178.9761,140.3699,179.0444,140.7996,179.2334,141.2641,179.5062,141.6089,179.49,142.1213,179.8787,142.2918,179.9493,142.103,180.2225,142.4119,180.702,142.7816,181.2066,142.7978,181.5648,143,182,143.0227,182,142.9894,186.8,143.0595,191.6,143.0797,196.4,143.1952,201.2,143,206,143.2067,206.0856,143.0334,206.5109,142.7269,206.881,142.6156,207.3319,142.5133,207.7866,142.1213,208.1213,142.0293,207.8992,141.7836,208.506,141.235,208.3815,140.9166,208.8129,140.3611,208.6718,140,209,140,208.9772,134.4,209.2472,128.8,208.9838,123.2,209.0351,117.6,209.1129,112,209,112.0531,209.1282,111.5752,208.8231,111.1881,208.737,110.6542,208.2965,110.3392,208.3846,109.8787,208.1213,110.0475,208.1912,109.8398,207.7538,109.716,207.351,109.2027,206.7869,108.9749,206.3411,109,206,108.7929,206,108.9804,201.2,108.9345,196.4,109.2271,191.6,108.9418,186.8,109,182,108.8944,181.9562,109.246,181.6049,109.1461,181.0664,109.3673,180.661,109.9028,180.3857,109.8787,179.8787,109.9343,180.0128,110.3966,179.9291,110.6862,179.4281,111.1922,179.4498,111.6511,179.3576,112,179" style="stroke:#FF6F00;stroke-width:2;"/><polygon fill="#ADD1B2" points="133.0552,196.4324,131.5894,198.4353,129.8556,201.3688,127.376,203.3458,124.7703,204.4269,122.6927,204.5207,120.0224,203.1687,117.5029,202.2854,115.5905,200.492,114.5873,198.4389,113.9924,196.8041,113.4096,194.6688,112.4636,192.8313,113.1906,191.0373,113.8275,189.072,116.2175,187.5177,117.8991,185.501,119.9804,184.8313,122.4547,184.2546,125.6276,184.5972,127.3655,185.4168,129.3861,185.7884,131.8429,188.3054,132.6993,190.9627,133.0714,192.7758,132.65,195.7635" style="stroke:#181818;stroke-width:1;"/><path d="M124.8594,198.2344 Q124.4219,198.4531 123.9219,198.5625 Q123.4375,198.6875 122.9063,198.6875 Q120.9844,198.6875 119.9688,197.4219 Q118.9688,196.1563 118.9688,193.7656 Q118.9688,191.375 119.9688,190.1094 Q120.9844,188.8438 122.9063,188.8438 Q123.4375,188.8438 123.9375,188.9688 Q124.4375,189.0781 124.8594,189.3125 L124.8594,191.3906 Q124.375,190.9531 123.9219,190.75 Q123.4688,190.5313 122.9844,190.5313 Q121.9688,190.5313 121.4375,191.3594 Q120.9063,192.1719 120.9063,193.7656 Q120.9063,195.375 121.4375,196.1875 Q121.9688,197 122.9844,197 Q123.4688,197 123.9219,196.7969 Q124.375,196.5938 124.8594,196.1406 L124.8594,198.2344 Z " fill="#FFFFFF"/><text fill="#FFFFFF" font-family="'Roboto'" font-size="13" lengthAdjust="spacing" textLength="0" x="138" y="189">StoryConceptRelationship</text></g><!--link WorkflowDefinition to UseCase--><g class="link" data-entity-1="ent0002" data-entity-2="ent0003" data-link-type="dependency" data-source-line="70" id="lnk8"><path d="M38.85,37.43 L38.939,37.4584 L38.0611,39.2934 L37.7048,41.2952 L37.1787,43.2426 L36.094,45.0115 L35.7825,47.0275 L35.7492,47.0182 L35.0434,48.9711 L34.5053,50.9707 L34.0838,53.0029 L33.2605,54.9229 L33,57 L33.24,57.0545 L32.014,60.0764 L31.4886,63.2574 L31.0487,66.4578 L30.1115,69.5452 L29.4359,72.6921 L29.4658,72.6973 L28.9236,75.5415 L28.5174,78.4095 L28.0456,81.2661 L27.699,84.1445 L26.9443,86.9516" fill="none" style="stroke:#FF6F00;stroke-width:2;"/><polygon fill="#FF6F00" points="26.02,92.88,26.0789,92.918,26.9717,91.1499,28.2096,89.6044,29.3352,87.9864,30.0911,86.13,31.3587,84.6036,31.3434,84.5827,30.3612,85.156,29.4559,85.8348,28.6042,86.5869,27.568,87.0864,26.7902,87.9397,26.9393,88.0485,25.9534,86.9021,25.4026,86.0734,24.9049,85.2835,24.0983,84.2681,23.4542,83.3712,23.4761,83.3772,23.9571,85.2702,24.538,87.1902,25.0706,89.0973,25.6953,91.0291,26.02,92.88" style="stroke:#FF6F00;stroke-width:2;"/><text fill="#333333" font-family="'Roboto'" font-size="13" lengthAdjust="spacing" textLength="0" x="36" y="60">:useCase</text><text fill="#333333" font-family="'Roboto'" font-size="13" lengthAdjust="spacing" textLength="0" x="34.4816" y="46.8599">0..*</text><text fill="#333333" font-family="'Roboto'" font-size="13" lengthAdjust="spacing" textLength="0" x="24.0271" y="72.9997">1</text></g><!--link WorkflowDefinition to Story--><g class="link" data-entity-1="ent0002" data-entity-2="ent0004" data-link-type="dependency" data-source-line="73" id="lnk9"><path d="M51.46,37.25 L51.7082,37.38 L55.3463,45.3463 L60.4397,54.0749 L65.0591,62.5553 L68.1202,70.2192 L73.2467,78.9652 L77.7142,87.366" fill="none" style="stroke:#FF6F00;stroke-width:2;"/><polygon fill="#FF6F00" points="80.5,92.68,80.5699,92.6845,80.235,90.7054,80.3099,88.7528,80.2513,86.7916,79.7539,84.802,79.8639,82.8517,79.8392,82.844,79.3911,83.8893,79.0677,84.9736,78.831,86.0849,78.2956,87.103,78.1785,88.2516,78.2335,88.4278,77.0359,87.714,75.9989,87.5145,74.9814,87.3778,73.85,86.876,72.7785,86.5662,72.7927,86.584,74.3162,87.7806,75.9041,89.0583,77.4609,90.297,79.0769,91.6103,80.5,92.68" style="stroke:#FF6F00;stroke-width:2;"/><text fill="#333333" font-family="'Roboto'" font-size="13" lengthAdjust="spacing" textLength="0" x="73" y="60">:steps</text></g><!--link Story to Outcome--><g class="link" data-entity-1="ent0004" data-entity-2="ent0005" data-link-type="dependency" data-source-line="76" id="lnk10"><path d="M79.78,123.17 L79.8638,123.2112 L78.6685,125.0117 L77.9646,127.0539 L77.1006,129.0174 L75.7105,130.722 L75.0488,132.785 L75.0166,132.7723 L74.0628,134.7582 L73.2708,136.8082 L72.5913,138.9028 L71.5241,140.8438 L71,143 L71.2369,143.0666 L69.8606,146.0189 L69.176,149.1656 L68.5757,152.336 L67.4845,155.3684 L66.6515,158.4734 L66.6814,158.4785 L66.1548,161.3303 L65.7643,164.205 L65.3082,167.0687 L64.9774,169.9535 L64.238,172.7694" fill="none" style="stroke:#FF6F00;stroke-width:2;"/><polygon fill="#FF6F00" points="63.47,178.72,63.5299,178.7564,64.3758,176.9654,65.5727,175.3879,66.6553,173.7409,67.3621,171.8652,68.5891,170.306,68.5733,170.2855,67.6065,170.8845,66.7194,171.5869,65.8878,172.3611,64.8651,172.8876,64.11,173.7611,64.2561,173.8738,63.2526,172.737,62.6758,171.9292,62.151,171.1616,61.3233,170.1604,60.6549,169.282,60.6767,169.2885,61.2077,171.1666,61.838,173.0742,62.4204,174.9676,63.0941,176.8882,63.47,178.72" style="stroke:#FF6F00;stroke-width:2;"/><text fill="#333333" font-family="'Roboto'" font-size="13" lengthAdjust="spacing" textLength="0" x="74" y="146">:contributesTo</text></g><!--link Story to StoryConceptRelationship--><g class="link" data-entity-1="ent0004" data-entity-2="ent0007" data-link-type="dependency" data-source-line="77" id="lnk11"><path d="M94.45,123.25 L94.7053,123.3655 L98.466,133.0151 L103.7234,143.3416 L108.4935,153.4477 L111.6605,162.8289 L117.0465,173.2136" fill="none" style="stroke:#FF6F00;stroke-width:2;"/><polygon fill="#FF6F00" points="119.52,178.68,119.5901,178.6805,119.3687,176.7093,119.558,174.741,119.6136,172.7717,119.2294,170.7995,119.454,168.8314,119.4298,168.8222,118.922,169.8399,118.5363,170.9036,118.2356,171.9993,117.6422,172.9847,117.4588,174.1246,117.5238,174.2973,116.326,173.529,115.3182,173.2648,114.3336,173.0622,113.214,172.5017,112.1655,172.1294,112.1806,172.1463,113.6293,173.4315,115.1469,174.7941,116.6312,176.1193,118.1789,177.5157,119.52,178.68" style="stroke:#FF6F00;stroke-width:2;"/><text fill="#333333" font-family="'Roboto'" font-size="13" lengthAdjust="spacing" textLength="0" x="113" y="146">:storyConcept</text><text fill="#333333" font-family="'Roboto'" font-size="13" lengthAdjust="spacing" textLength="0" x="93.9797" y="132.8984">0..*</text><text fill="#333333" font-family="'Roboto'" font-size="13" lengthAdjust="spacing" textLength="0" x="114.605" y="159.0075">1</text></g><!--link StoryConceptRelationship to Concept--><g class="link" data-entity-1="ent0007" data-entity-2="ent0006" data-link-type="dependency" data-source-line="78" id="lnk12"><path d="M126,209.25 L126.2802,209.25 L125.4476,219.136 L126.2577,229.022 L126.5329,238.908 L125.0488,248.794 L126,258.68" fill="none" style="stroke:#FF6F00;stroke-width:2;"/><polygon fill="#FF6F00" points="126,264.68,126.064,264.7085,126.6738,262.8239,127.6589,261.1062,128.5217,259.3341,128.9827,257.3834,130,255.68,129.9817,255.6617,129.0995,256.3795,128.3096,257.1896,127.5839,258.0639,126.637,258.717,126,259.68,126.1305,259.8105,125.0514,258.7314,124.3534,258.0334,123.7018,257.3818,122.7798,256.4598,122,255.68,122.0208,255.6892,122.7903,257.4757,123.6544,259.3042,124.4728,261.1124,125.3784,262.9593,126,264.68" style="stroke:#FF6F00;stroke-width:2;"/><text fill="#333333" font-family="'Roboto'" font-size="13" lengthAdjust="spacing" textLength="0" x="129" y="232">:concept</text></g><!--SRC=[hLNVJzim47xtNt6a3sEJ2cK57dYOL59W4rk3KX2Q449kScsz9dPaEwewjFzzTfoqBaqrRPfVUhhxli_tmxaUY48pmM5EURgKJ6lae6M9v235AUC8bpSltmPVHYzXz3MAeJgTqzxPoUJCXuolmcWq7CJVQrmBv6uGtWvkhjP2Ev0e7bx5_ZtGcKxFfxtU6d8TZUwt01N4dZLa4CVHupQcKI5gmNX19SrXGfF5J8gIfw78X3GLKwvC2Bacv1s48YzeeY6ZAr5gKAWrupFb2TpHD3Kk-EZvOgSdEKeuz_pZEKt5qgAdD5FeHJwl2fGPuui7dbO6kjwt85oUJIaRW4byeR20Kz_9HOhMsTzsQhmMNDTAlUhuJHdYb9QPXbTYOIEQ8mInc0Wj0h8XRcPGESVi9y99d_pobGPIYgNHSGnl99vEfryT9w9N6Pe4PKupSZzdoOAZKgQvMwf9HetpbLo-6TxM2oMNGffUrX7lITK1Nxsrg87MaarAlrT-r5QsMrRbtfkuUKiBEiEwiJkQ_rZFrXLAKur_xCt_A_WlkcporA80BS0y9IroI9d4n2uTCcSfGexv1AKYnCqtU1HoCSt4ScW_Q6Pn0L05ksvuUZfE14-mqCVBEdhSCKMOh6Qhv-T6y45XI1LMAhNjKqk5tSJusgXZBUIg8bQMJrFMqSQ9Ifs8t5rNspvFE5SRCtIGYbdRFhFvtPTdJOanexOzQiwAJUejGRlf8ZqtsqgY4gLCK44X6DTsLasZ3lMgO0dDuFO6ShDMChl7bFrUtvEMaGIzewCF0NIxdo0u2TOg5t1HEjDUEjPOA3YKNYvTCVbX7WMmlCWOfgtQLjIDmSWfg-74X6GcSxiaRU9rVnMOFpIeMwQ8urc5PYH6mqJhfw_kHGrvKy2-thaKDZ6o5sYLcc6wEwtv6m00]--></g></svg>