<svg xmlns="http://www.w3.org/2000/svg" xmlns:xlink="http://www.w3.org/1999/xlink" contentStyleType="text/css" data-diagram-type="CLASS" height="317px" preserveAspectRatio="none" style="width:369px;height:317px;" version="1.1" viewBox="0 0 369 317" width="369px" zoomAndPan="magnify"><defs/><g><!--class WorkflowDefinition--><g class="entity" data-qualified-name="WorkflowDefinition" data-source-line="66" id="ent0002"><a href="/concept/workflow/#ontology" target="_top" title="/concept/workflow/#ontology" xlink:actuate="onRequest" xlink:href="/concept/workflow/#ontology" xlink:show="new" xlink:title="/concept/workflow/#ontology" xlink:type="simple"><polygon fill="#4051B5" points="26.35,7,26.35,7.2102,36.4437,6.5857,46.5373,7.1933,56.631,7.3997,66.7246,6.2866,76.8183,6.9223,86.9119,6.5735,97.0056,6.6165,107.0992,6.9318,117.1929,6.3086,127.2865,7.5536,137.3802,6.3697,147.4738,6.8022,157.5675,7.4319,167.6611,6.9142,177.7548,7,177.7635,7.021,178.175,7.1659,178.6261,7.4065,179.0581,7.6009,179.5266,7.8833,179.8761,7.8787,180.0828,7.9643,180.261,8.3896,180.306,8.7597,180.5461,9.2106,180.7953,9.6653,180.7548,10,180.5144,10,180.981,14.8,180.656,19.6,180.9327,24.4,180.5898,29.2,180.7548,34,180.7337,33.9913,180.8074,34.5189,180.3883,34.8423,180.26,35.2862,180.1561,35.7403,179.8761,36.1213,179.9292,36.2495,179.4513,36.2959,179.0642,36.5612,178.5303,36.4722,178.2153,36.9118,177.7548,37,177.7548,37.5482,167.6611,37.4445,157.5675,37.613,147.4738,36.5169,137.3802,36.3478,127.2865,36.3786,117.1929,36.9411,107.0992,36.8035,97.0056,37.6814,86.9119,36.8253,76.8183,36.6569,66.7246,37.2283,56.631,36.3332,46.5373,36.4809,36.4437,37.649,26.35,37,26.4056,37.1342,26.0194,37.0505,25.4604,36.5494,25.1179,36.5711,24.7283,36.4789,24.2287,36.1213,24.0832,36.0611,24.0234,35.6848,23.916,35.2889,23.9022,34.9317,23.5244,34.4237,23.35,34,23.5042,34,23.1654,29.2,23.1242,24.4,23.5179,19.6,23.111,14.8,23.35,10,23.5067,10.0649,23.5894,9.6021,23.619,9.1173,23.7683,8.6821,24.1942,8.3615,24.2287,7.8787,24.1905,7.7865,24.7284,7.8852,25.0067,7.357,25.5802,7.5416,25.9875,7.3249,26.35,7" style="stroke:#FF6F00;stroke-width:2;"/><polygon fill="#ADD1B2" points="47.4052,24.4324,45.9394,26.4353,44.2056,29.3688,41.726,31.3458,39.1203,32.4269,37.0427,32.5207,34.3724,31.1687,31.8529,30.2854,29.9405,28.492,28.9373,26.4389,28.3424,24.8041,27.7596,22.6688,26.8136,20.8313,27.5406,19.0373,28.1775,17.072,30.5675,15.5177,32.2491,13.501,34.3304,12.8313,36.8047,12.2546,39.9776,12.5972,41.7155,13.4168,43.7361,13.7884,46.1929,16.3054,47.0493,18.9627,47.4214,20.7758,47,23.7635" style="stroke:#181818;stroke-width:1;"/><path d="M39.2094,26.2344 Q38.7719,26.4531 38.2719,26.5625 Q37.7875,26.6875 37.2563,26.6875 Q35.3344,26.6875 34.3188,25.4219 Q33.3188,24.1563 33.3188,21.7656 Q33.3188,19.375 34.3188,18.1094 Q35.3344,16.8438 37.2563,16.8438 Q37.7875,16.8438 38.2875,16.9688 Q38.7875,17.0781 39.2094,17.3125 L39.2094,19.3906 Q38.725,18.9531 38.2719,18.75 Q37.8188,18.5313 37.3344,18.5313 Q36.3188,18.5313 35.7875,19.3594 Q35.2563,20.1719 35.2563,21.7656 Q35.2563,23.375 35.7875,24.1875 Q36.3188,25 37.3344,25 Q37.8188,25 38.2719,24.7969 Q38.725,24.5938 39.2094,24.1406 L39.2094,26.2344 Z " fill="#FFFFFF"/><text fill="#FFFFFF" font-family="'Roboto'" font-size="13" lengthAdjust="spacing" textLength="123.4048" x="52.35" y="26.5005">WorkflowDefinition</text></a></g><!--class UseCase--><g class="entity" data-qualified-name="UseCase" data-source-line="67" id="ent0003"><a href="/concept/use-case/#ontology" target="_top" title="/concept/use-case/#ontology" xlink:actuate="onRequest" xlink:href="/concept/use-case/#ontology" xlink:show="new" xlink:title="/concept/use-case/#ontology" xlink:type="simple"><polygon fill="#4051B5" points="10,98,10,98.2102,20.5126,97.5857,31.0251,98.1933,41.5377,98.3997,52.0503,97.2866,62.5629,97.9223,73.0754,97.5735,83.588,97.6165,94.1006,98,94.0919,97.979,94.4367,97.9628,95.0197,98.522,95.293,98.3331,95.7724,98.642,96.2219,98.8787,96.3549,98.9338,96.3712,99.292,96.5944,99.7359,96.7393,100.1474,96.9798,100.5985,97.1006,101,97.1803,101,97.2958,105.8,97.3243,110.6,97.327,115.4,97.1855,120.2,97.1006,125,97.2434,125.0591,97.1411,125.5138,96.527,125.7565,96.7823,126.3593,96.3063,126.6592,96.2219,127.1213,96.29,127.2857,95.7345,127.1446,95.3646,127.4517,95.0437,127.8769,94.5186,127.8093,94.1006,128,94.1006,128.1053,83.588,128.3386,73.0754,128.4162,62.5629,127.9961,52.0503,128.2872,41.5377,127.4276,31.0251,128.2844,20.5126,128.5482,10,128,10.0567,128.1369,9.6539,128.0131,9.0898,127.4998,8.644,127.2719,8.2237,127.1057,7.8787,127.1213,7.8605,127.1138,7.6424,126.672,7.7371,126.3597,7.2977,125.8262,7.0701,125.3805,7,125,7.0761,125,6.7777,120.2,6.827,115.4,7.2163,110.6,7.1452,105.8,7,101,7.2262,101.0937,7.0766,100.5347,7.4498,100.1922,7.709,99.8025,7.5575,99.2427,7.8787,98.8787,7.8665,98.8492,8.319,98.7417,8.8103,98.7279,9.1509,98.3502,9.6347,98.3182,10,98" style="stroke:#FF6F00;stroke-width:2;"/><polygon fill="#ADD1B2" points="31.0552,115.4324,29.5894,117.4353,27.8556,120.3688,25.376,122.3458,22.7703,123.4269,20.6927,123.5207,18.0224,122.1687,15.5029,121.2854,13.5905,119.492,12.5873,117.4389,11.9924,115.8041,11.4096,113.6688,10.4636,111.8313,11.1906,110.0373,11.8275,108.072,14.2175,106.5177,15.8991,104.501,17.9804,103.8313,20.4547,103.2546,23.6276,103.5972,25.3655,104.4168,27.3861,104.7884,29.8429,107.3054,30.6993,109.9627,31.0714,111.7758,30.65,114.7635" style="stroke:#181818;stroke-width:1;"/><path d="M22.8594,117.2344 Q22.4219,117.4531 21.9219,117.5625 Q21.4375,117.6875 20.9063,117.6875 Q18.9844,117.6875 17.9688,116.4219 Q16.9688,115.1563 16.9688,112.7656 Q16.9688,110.375 17.9688,109.1094 Q18.9844,107.8438 20.9063,107.8438 Q21.4375,107.8438 21.9375,107.9688 Q22.4375,108.0781 22.8594,108.3125 L22.8594,110.3906 Q22.375,109.9531 21.9219,109.75 Q21.4688,109.5313 20.9844,109.5313 Q19.9688,109.5313 19.4375,110.3594 Q18.9063,111.1719 18.9063,112.7656 Q18.9063,114.375 19.4375,115.1875 Q19.9688,116 20.9844,116 Q21.4688,116 21.9219,115.7969 Q22.375,115.5938 22.8594,115.1406 L22.8594,117.2344 Z " fill="#FFFFFF"/><text fill="#FFFFFF" font-family="'Roboto'" font-size="13" lengthAdjust="spacing" textLength="56.1006" x="36" y="117.5005">UseCase</text></a></g><!--class Story--><g class="entity" data-qualified-name="Story" data-source-line="68" id="ent0004"><a href="/concept/story/#ontology" target="_top" title="/concept/story/#ontology" xlink:actuate="onRequest" xlink:href="/concept/story/#ontology" xlink:show="new" xlink:title="/concept/story/#ontology" xlink:type="simple"><polygon fill="#4051B5" points="129.88,98,129.88,98.2102,140.2701,97.5857,150.6603,98.1933,161.0504,98.3997,171.4405,97.2866,181.8307,97.9223,192.2208,98,192.1664,97.8687,192.5962,98.0576,193.0607,98.3305,193.4054,98.3143,193.9885,98.8734,194.3421,98.8787,194.148,98.7983,194.457,99.2777,194.8266,99.7823,194.8429,100.1405,195.0661,100.5844,195.2208,101,195.2102,101,195.2803,105.8,195.3005,110.6,195.4161,115.4,195.4445,120.2,195.2208,125,195.43,125.0866,195.1235,125.4567,195.0121,125.9077,194.9099,126.3624,194.2958,126.6051,194.3421,127.1213,194.4287,127.3303,193.8801,127.2057,193.5617,127.6372,193.0062,127.4961,192.6363,127.8032,192.2208,128,192.2208,128.7416,181.8307,127.9513,171.4405,128.1053,161.0504,128.3386,150.6603,128.4162,140.2701,127.9961,129.88,128,129.9166,128.0885,129.3827,127.648,129.0677,127.7361,128.6771,127.6416,128.2396,127.434,127.7587,127.1213,127.9475,127.1995,127.4342,126.6354,127.2064,126.1896,127.0401,125.7693,127.0376,125.4168,126.88,125,126.8145,125,127.1071,120.2,126.8218,115.4,126.7656,110.6,126.9561,105.8,126.88,101,126.6746,100.9149,126.8959,100.5095,127.4313,100.2343,127.5414,99.7828,127.8091,99.3966,127.7587,98.8787,127.7176,98.7796,128.2237,98.8012,128.6825,98.709,128.9712,98.206,129.4435,98.1462,129.88,98" style="stroke:#FF6F00;stroke-width:2;"/><polygon fill="#ADD1B2" points="150.9352,115.4324,149.4694,117.4353,147.7356,120.3688,145.256,122.3458,142.6503,123.4269,140.5727,123.5207,137.9024,122.1687,135.3829,121.2854,133.4705,119.492,132.4673,117.4389,131.8724,115.8041,131.2896,113.6688,130.3436,111.8313,131.0706,110.0373,131.7075,108.072,134.0975,106.5177,135.7791,104.501,137.8604,103.8313,140.3347,103.2546,143.5076,103.5972,145.2455,104.4168,147.2661,104.7884,149.7229,107.3054,150.5793,109.9627,150.9514,111.7758,150.53,114.7635" style="stroke:#181818;stroke-width:1;"/><path d="M142.7394,117.2344 Q142.3019,117.4531 141.8019,117.5625 Q141.3175,117.6875 140.7863,117.6875 Q138.8644,117.6875 137.8488,116.4219 Q136.8488,115.1563 136.8488,112.7656 Q136.8488,110.375 137.8488,109.1094 Q138.8644,107.8438 140.7863,107.8438 Q141.3175,107.8438 141.8175,107.9688 Q142.3175,108.0781 142.7394,108.3125 L142.7394,110.3906 Q142.255,109.9531 141.8019,109.75 Q141.3488,109.5313 140.8644,109.5313 Q139.8488,109.5313 139.3175,110.3594 Q138.7863,111.1719 138.7863,112.7656 Q138.7863,114.375 139.3175,115.1875 Q139.8488,116 140.8644,116 Q141.3488,116 141.8019,115.7969 Q142.255,115.5938 142.7394,115.1406 L142.7394,117.2344 Z " fill="#FFFFFF"/><text fill="#FFFFFF" font-family="'Roboto'" font-size="13" lengthAdjust="spacing" textLength="34.3408" x="155.88" y="117.5005">Story</text></a></g><!--class Outcome--><g class="entity" data-qualified-name="Outcome" data-source-line="69" id="ent0005"><a href="/concept/outcome/#ontology" target="_top" title="/concept/outcome/#ontology" xlink:actuate="onRequest" xlink:href="/concept/outcome/#ontology" xlink:show="new" xlink:title="/concept/outcome/#ontology" xlink:type="simple"><polygon fill="#4051B5" points="39.38,189,39.38,189.2102,49.0835,188.5857,58.787,189.1933,68.4905,189.3997,78.194,188.2866,87.8975,188.9223,97.601,188.5735,107.3045,188.6165,117.008,188.9318,126.7115,189,126.6234,188.7871,127.2064,189.3462,127.4797,189.1574,127.9591,189.4663,128.4637,189.836,128.8329,189.8787,128.8064,189.8677,129.0296,190.3116,129.1745,190.7231,129.415,191.1742,129.6095,191.6062,129.7115,192,129.9068,192,129.9352,196.8,129.938,201.6,129.7964,206.4,129.8661,211.2,129.7115,216,129.9278,216.0896,129.3137,216.3323,129.569,216.9351,129.093,217.235,129.173,217.7651,128.8329,218.1213,128.7697,217.9689,128.3999,218.276,128.0789,218.7012,127.5539,218.6335,127.1492,218.8567,126.7115,219,126.7115,219.3386,117.008,219.4162,107.3045,218.9961,97.601,219.2872,87.8975,218.4276,78.194,219.2844,68.4905,219.5482,58.787,219.4445,49.0835,219.613,39.38,219,39.3184,218.8512,38.8725,218.6234,38.4522,218.4572,38.0997,218.4547,37.6579,218.2365,37.2587,218.1213,37.4685,218.2082,37.0292,217.6748,36.8016,217.229,36.8018,216.8776,36.3504,216.3392,36.38,216,36.207,216,36.5963,211.2,36.5252,206.4,36.6248,201.6,36.2727,196.8,36.38,192,36.4783,192.0407,36.7376,191.6511,36.586,191.0912,36.8777,190.715,37.1217,190.319,37.2587,189.8787,37.3418,190.0794,37.6824,189.7017,38.1662,189.6697,38.4608,189.1809,38.8693,188.9672,39.38,189" style="stroke:#FF6F00;stroke-width:2;"/><polygon fill="#ADD1B2" points="60.4352,206.4324,58.9694,208.4353,57.2356,211.3688,54.756,213.3458,52.1503,214.4269,50.0727,214.5207,47.4024,213.1687,44.8829,212.2854,42.9705,210.492,41.9673,208.4389,41.3724,206.8041,40.7896,204.6688,39.8436,202.8313,40.5706,201.0373,41.2075,199.072,43.5975,197.5177,45.2791,195.501,47.3604,194.8313,49.8347,194.2546,53.0076,194.5972,54.7455,195.4168,56.7661,195.7884,59.2229,198.3054,60.0793,200.9627,60.4514,202.7758,60.03,205.7635" style="stroke:#181818;stroke-width:1;"/><path d="M52.2394,208.2344 Q51.8019,208.4531 51.3019,208.5625 Q50.8175,208.6875 50.2862,208.6875 Q48.3644,208.6875 47.3487,207.4219 Q46.3487,206.1563 46.3487,203.7656 Q46.3487,201.375 47.3487,200.1094 Q48.3644,198.8438 50.2862,198.8438 Q50.8175,198.8438 51.3175,198.9688 Q51.8175,199.0781 52.2394,199.3125 L52.2394,201.3906 Q51.755,200.9531 51.3019,200.75 Q50.8487,200.5313 50.3644,200.5313 Q49.3487,200.5313 48.8175,201.3594 Q48.2862,202.1719 48.2862,203.7656 Q48.2862,205.375 48.8175,206.1875 Q49.3487,207 50.3644,207 Q50.8487,207 51.3019,206.7969 Q51.755,206.5938 52.2394,206.1406 L52.2394,208.2344 Z " fill="#FFFFFF"/><text fill="#FFFFFF" font-family="'Roboto'" font-size="13" lengthAdjust="spacing" textLength="59.3315" x="65.38" y="208.5005">Outcome</text></a></g><!--class Concept--><g class="entity" data-qualified-name="Concept" data-source-line="70" id="ent0006"><a href="/concept/concept/#ontology" target="_top" title="/concept/concept/#ontology" xlink:actuate="onRequest" xlink:href="/concept/concept/#ontology" xlink:show="new" xlink:title="/concept/concept/#ontology" xlink:type="simple"><polygon fill="#4051B5" points="220.17,280,220.17,280.2102,230.3906,279.5857,240.6112,280.1933,250.8317,280.3997,261.0523,279.2866,271.2729,279.9223,281.4935,279.5735,291.7141,279.6165,301.9346,280,301.926,279.979,302.2707,279.9628,302.8538,280.522,303.127,280.3331,303.6065,280.642,304.056,280.8787,304.189,280.9338,304.2053,281.292,304.4285,281.7359,304.5733,282.1474,304.8139,282.5985,304.9346,283,305.0144,283,305.1299,287.8,305.1583,292.6,305.1611,297.4,305.0195,302.2,304.9346,307,305.0774,307.0591,304.9752,307.5138,304.3611,307.7565,304.6164,308.3593,304.1404,308.6592,304.056,309.1213,304.1241,309.2857,303.5686,309.1446,303.1987,309.4517,302.8778,309.8769,302.3527,309.8093,301.9346,310,301.9346,310.1053,291.7141,310.3386,281.4935,310.4162,271.2729,309.9961,261.0523,310.2872,250.8317,309.4276,240.6112,310.2844,230.3906,310.5482,220.17,310,220.2267,310.1369,219.8239,310.0131,219.2598,309.4998,218.814,309.2719,218.3937,309.1057,218.0487,309.1213,218.0305,309.1138,217.8124,308.672,217.9071,308.3597,217.4677,307.8262,217.2401,307.3805,217.17,307,217.2461,307,216.9477,302.2,216.997,297.4,217.3863,292.6,217.3152,287.8,217.17,283,217.3962,283.0937,217.2466,282.5347,217.6198,282.1922,217.879,281.8025,217.7275,281.2427,218.0487,280.8787,218.0365,280.8492,218.489,280.7417,218.9803,280.7279,219.3209,280.3502,219.8047,280.3182,220.17,280" style="stroke:#FF6F00;stroke-width:2;"/><polygon fill="#ADD1B2" points="241.2252,297.4324,239.7594,299.4353,238.0256,302.3688,235.546,304.3458,232.9403,305.4269,230.8627,305.5207,228.1924,304.1687,225.6729,303.2854,223.7605,301.492,222.7573,299.4389,222.1624,297.8041,221.5796,295.6688,220.6336,293.8313,221.3606,292.0373,221.9975,290.072,224.3875,288.5177,226.0691,286.501,228.1504,285.8313,230.6247,285.2546,233.7976,285.5972,235.5355,286.4168,237.5561,286.7884,240.0129,289.3054,240.8693,291.9627,241.2414,293.7758,240.82,296.7635" style="stroke:#181818;stroke-width:1;"/><path d="M233.0294,299.2344 Q232.5919,299.4531 232.0919,299.5625 Q231.6075,299.6875 231.0763,299.6875 Q229.1544,299.6875 228.1388,298.4219 Q227.1388,297.1563 227.1388,294.7656 Q227.1388,292.375 228.1388,291.1094 Q229.1544,289.8438 231.0763,289.8438 Q231.6075,289.8438 232.1075,289.9688 Q232.6075,290.0781 233.0294,290.3125 L233.0294,292.3906 Q232.545,291.9531 232.0919,291.75 Q231.6388,291.5313 231.1544,291.5313 Q230.1388,291.5313 229.6075,292.3594 Q229.0763,293.1719 229.0763,294.7656 Q229.0763,296.375 229.6075,297.1875 Q230.1388,298 231.1544,298 Q231.6388,298 232.0919,297.7969 Q232.545,297.5938 233.0294,297.1406 L233.0294,299.2344 Z " fill="#FFFFFF"/><text fill="#FFFFFF" font-family="'Roboto'" font-size="13" lengthAdjust="spacing" textLength="53.7646" x="246.17" y="299.5005">Concept</text></a></g><!--class StoryConceptRelationship--><g class="entity" data-qualified-name="StoryConceptRelationship" data-source-line="71" id="ent0007"><polygon fill="#4051B5" points="162.8,189,162.8,189.2102,172.6246,188.5857,182.4492,189.1933,192.2738,189.3997,202.0984,188.2866,211.923,188.9223,221.7477,188.5735,231.5723,188.6165,241.3969,188.9318,251.2215,188.3086,261.0461,189.5536,270.8707,188.3697,280.6953,188.8022,290.5199,189.4319,300.3445,188.9142,310.1691,189.0682,319.9938,188.9681,329.8184,189.1785,339.643,189.2391,349.4676,189.5857,359.2922,189,359.3778,189.2067,359.8031,189.3849,360.1732,189.4299,360.6241,189.67,361.0788,189.9192,361.4135,189.8787,361.1914,189.7867,361.7982,190.3895,361.6737,190.6894,362.1051,191.2196,361.964,191.5126,362.2922,192,362.2694,192,362.5394,196.8,362.2759,201.6,362.3273,206.4,362.4051,211.2,362.2922,216,362.4204,216.0531,362.1152,216.4238,362.0292,216.8852,361.5887,217.1998,361.6768,217.7333,361.4135,218.1213,361.4834,218.2901,361.0459,218.434,360.6432,218.6616,360.0791,218.4998,359.6333,218.6234,359.2922,219,359.2922,218.3786,349.4676,218.9411,339.643,218.8035,329.8184,219.6814,319.9938,218.8253,310.1691,218.6569,300.3445,219.2283,290.5199,218.3332,280.6953,218.4809,270.8707,219.649,261.0461,219.4357,251.2215,219.7345,241.3969,218.6782,231.5723,219.3192,221.7477,219.5904,211.923,218.5276,202.0984,218.9041,192.2738,219.126,182.4492,219.6518,172.6246,218.9958,162.8,219,162.859,219.1425,162.3051,218.6537,161.8651,218.44,161.5914,218.6279,161.0115,218.0763,160.6787,218.1213,160.8354,218.1862,160.5666,217.7234,160.2447,217.2386,160.0425,216.8034,160.117,216.4828,159.8,216,159.7002,216,159.9973,211.2,159.6158,206.4,160.0058,201.6,159.9614,196.8,159.8,192,159.8754,192.0312,159.9903,191.5818,160.3752,191.2442,160.5162,190.8055,160.5551,190.3245,160.6787,189.8787,160.7129,189.9613,161.0863,189.6628,161.6186,189.7478,161.9712,189.3992,162.3977,189.2289,162.8,189" style="stroke:#FF6F00;stroke-width:2;"/><polygon fill="#ADD1B2" points="183.8552,206.4324,182.3894,208.4353,180.6556,211.3688,178.176,213.3458,175.5703,214.4269,173.4927,214.5207,170.8224,213.1687,168.3029,212.2854,166.3905,210.492,165.3873,208.4389,164.7924,206.8041,164.2096,204.6688,163.2636,202.8313,163.9906,201.0373,164.6275,199.072,167.0175,197.5177,168.6991,195.501,170.7804,194.8313,173.2547,194.2546,176.4276,194.5972,178.1655,195.4168,180.1861,195.7884,182.6429,198.3054,183.4993,200.9627,183.8714,202.7758,183.45,205.7635" style="stroke:#181818;stroke-width:1;"/><path d="M175.6594,208.2344 Q175.2219,208.4531 174.7219,208.5625 Q174.2375,208.6875 173.7063,208.6875 Q171.7844,208.6875 170.7688,207.4219 Q169.7688,206.1563 169.7688,203.7656 Q169.7688,201.375 170.7688,200.1094 Q171.7844,198.8438 173.7063,198.8438 Q174.2375,198.8438 174.7375,198.9688 Q175.2375,199.0781 175.6594,199.3125 L175.6594,201.3906 Q175.175,200.9531 174.7219,200.75 Q174.2688,200.5313 173.7844,200.5313 Q172.7688,200.5313 172.2375,201.3594 Q171.7063,202.1719 171.7063,203.7656 Q171.7063,205.375 172.2375,206.1875 Q172.7688,207 173.7844,207 Q174.2688,207 174.7219,206.7969 Q175.175,206.5938 175.6594,206.1406 L175.6594,208.2344 Z " fill="#FFFFFF"/><text fill="#FFFFFF" font-family="'Roboto'" font-size="13" lengthAdjust="spacing" textLength="168.4922" x="188.8" y="208.5005">StoryConceptRelationship</text></g><!--link WorkflowDefinition to UseCase--><g class="link" data-entity-1="ent0002" data-entity-2="ent0003" data-link-type="dependency" data-source-line="74" id="lnk8"><path d="M72.69,37.49 L72.7497,37.5618 L70.4766,39.0901 L68.5534,41.0396 L66.5163,42.8519 L64.1043,44.2132 L62.2113,46.1988 L62.1837,46.1779 L60.4278,48.2447 L58.8108,50.4165 L57.2903,52.6612 L55.4371,54.6545 L54.05,57 L54.2833,57.0781 L52.6068,60.4286 L51.6115,64.0072 L50.6994,67.6135 L49.3036,71.058 L48.1622,74.5877 L48.1925,74.5882 L48.2064,77.988 L48.3584,81.3901 L48.4438,84.7911 L48.6562,88.1943 L48.4544,91.5903" fill="none" style="stroke:#FF6F00;stroke-width:2;"/><polygon fill="#FF6F00" points="49.23,97.54,49.2972,97.5599,49.6582,95.6124,50.413,93.7817,51.0395,91.913,51.2445,89.9191,52.033,88.0984,52.0125,88.0826,51.2305,88.9085,50.552,89.8139,49.9454,90.7747,49.0909,91.5447,48.5837,92.582,48.6962,92.7282,47.5589,91.7256,46.7501,91.15,45.9814,90.6264,44.9794,89.7998,44.1002,89.1326,44.1196,89.1444,45.117,90.8085,46.2029,92.5265,47.2461,94.2185,48.3707,95.9602,49.23,97.54" style="stroke:#FF6F00;stroke-width:2;"/><text fill="#FFFFFF" font-family="'Roboto'" font-size="13" lengthAdjust="spacing" textLength="59.2046" x="57.05" y="72.0669">:useCase</text><text fill="#FFFFFF" font-family="'Roboto'" font-size="13" lengthAdjust="spacing" textLength="23.0356" x="35.1044" y="58.9172">0..*</text><text fill="#FFFFFF" font-family="'Roboto'" font-size="13" lengthAdjust="spacing" textLength="8.271" x="36.5703" y="84.9832">1</text></g><!--link WorkflowDefinition to Story--><g class="link" data-entity-1="ent0002" data-entity-2="ent0004" data-link-type="dependency" data-source-line="77" id="lnk9"><path d="M111.53,37.3 L111.7636,37.4548 L116.3189,44.9146 L122.2436,53.2819 L127.7224,61.3538 L131.7347,68.4536 L137.6906,76.8416 L142.5523,84.5045 L148.2757,92.7384" fill="none" style="stroke:#FF6F00;stroke-width:2;"/><polygon fill="#FF6F00" points="151.59,97.74,151.6591,97.7516,151.1264,95.7747,150.9987,93.866,150.7391,91.935,150.0459,89.931,149.9529,88.0281,149.9276,88.023,149.5887,89.1087,149.3777,90.2203,149.2558,91.35,148.8272,92.4174,148.8281,93.572,148.8648,93.7529,147.6775,93.1412,146.5974,93.0575,145.5304,93.0382,144.3873,92.6441,143.2842,92.4472,143.2964,92.4664,144.9396,93.4968,146.6385,94.6145,148.3105,95.6901,150.0338,96.8461,151.59,97.74" style="stroke:#FF6F00;stroke-width:2;"/><text fill="#FFFFFF" font-family="'Roboto'" font-size="13" lengthAdjust="spacing" textLength="39.2729" x="140.05" y="72.0669">:steps</text></g><!--link Story to Outcome--><g class="link" data-entity-1="ent0004" data-entity-2="ent0005" data-link-type="dependency" data-source-line="80" id="lnk10"><path d="M126.73,128.35 L126.7814,128.428 L123.9821,129.9423 L121.4843,131.9137 L118.8883,133.7363 L115.9694,135.0693 L113.4975,137.08 L113.4737,137.055 L111.0772,139.1268 L108.8009,141.3247 L106.6081,143.6101 L104.1274,145.5937 L102.05,148 L102.2501,148.1432 L100.5836,149.5685 L99.5015,151.4119 L98.4906,153.3062 L97.0649,154.9038 L95.8574,156.6575 L95.8843,156.6714 L94.966,158.3623 L94.1705,160.1163 L93.3158,161.8399 L92.5741,163.6215 L91.4638,165.2138 L91.7499,165.2981 L90.7266,168.7854 L89.5189,172.2184 L88.5812,175.7309 L87.6562,179.2471 L86.3301,182.6452" fill="none" style="stroke:#FF6F00;stroke-width:2;"/><polygon fill="#FF6F00" points="85.16,188.53,85.2172,188.5704,86.1828,186.8409,87.484,185.3483,88.6758,183.7785,89.5084,181.9552,90.8383,180.4828,90.8239,180.4613,89.8187,180.9933,88.886,181.6338,88.0037,182.3498,86.9477,182.8058,86.1351,183.626,86.2885,183.7285,85.3318,182.5686,84.823,181.7081,84.3689,180.884,83.5968,179.8475,82.9919,178.9227,83.0141,178.9277,83.4151,180.8418,83.9172,182.7787,84.3705,184.7046,84.9168,186.6515,85.16,188.53" style="stroke:#FF6F00;stroke-width:2;"/><text fill="#FFFFFF" font-family="'Roboto'" font-size="13" lengthAdjust="spacing" textLength="94.0278" x="105.05" y="163.0669">:contributesTo</text></g><!--link Story to StoryConceptRelationship--><g class="link" data-entity-1="ent0004" data-entity-2="ent0007" data-link-type="dependency" data-source-line="81" id="lnk11"><path d="M180.72,128.41 L180.7774,128.4837 L183.0429,130.1599 L185.6448,132.2683 L188.1371,134.236 L190.2693,135.7408 L192.9,137.8863 L192.8779,137.8597 L195.2087,139.7633 L197.651,141.8008 L200.1706,143.9312 L202.4234,145.7411 L205.05,148 L205.214,148.1834 L207.0046,149.7063 L209.2741,151.7647 L211.602,153.8884 L213.59,155.632 L215.7568,157.5755 L215.7775,157.5976 L217.6991,159.3985 L219.7152,161.3 L221.6856,163.1529 L223.7431,165.0985 L225.5169,166.7421 L225.7257,166.955 L227.5329,168.7272 L229.2055,170.362 L231.0751,172.1979 L232.9541,174.0432 L234.5402,175.5899 L234.3119,175.3649 L236.4542,177.5255 L237.8448,178.9451 L239.8068,180.928 L241.1804,182.3309 L243.0363,184.2092" fill="none" style="stroke:#FF6F00;stroke-width:2;"/><polygon fill="#FF6F00" points="247.22,188.51,247.2857,188.5342,246.4088,186.6141,245.9171,184.8362,245.3,183.0119,244.2703,181.0354,243.8117,179.2697,243.7858,179.2693,243.654,180.399,243.6527,181.5304,243.7421,182.6631,243.5188,183.7915,243.7336,184.926,243.7362,185.1105,242.5995,184.7003,241.4702,184.8288,240.3418,185.0231,239.2082,184.8349,238.0773,184.8479,238.0858,184.869,239.9019,185.5704,241.7565,186.368,243.5926,187.1191,245.4641,187.9588,247.22,188.51" style="stroke:#FF6F00;stroke-width:2;"/><text fill="#FFFFFF" font-family="'Roboto'" font-size="13" lengthAdjust="spacing" textLength="91.0063" x="230.05" y="163.0669">:storyConcept</text><text fill="#FFFFFF" font-family="'Roboto'" font-size="13" lengthAdjust="spacing" textLength="23.0356" x="157.6149" y="150.1259">0..*</text><text fill="#FFFFFF" font-family="'Roboto'" font-size="13" lengthAdjust="spacing" textLength="8.271" x="231.1898" y="175.944">1</text></g><!--link StoryConceptRelationship to Concept--><g class="link" data-entity-1="ent0007" data-entity-2="ent0006" data-link-type="dependency" data-source-line="82" id="lnk12"><path d="M261.05,219.3 L261.3302,219.3 L260.4976,230.188 L261.3077,241.076 L261.5829,251.964 L260.0988,262.852 L261.05,273.74" fill="none" style="stroke:#FF6F00;stroke-width:2;"/><polygon fill="#FF6F00" points="261.05,279.74,261.114,279.7685,261.7238,277.8839,262.7089,276.1662,263.5717,274.3941,264.0327,272.4434,265.05,270.74,265.0317,270.7217,264.1495,271.4395,263.3596,272.2496,262.6339,273.1239,261.687,273.777,261.05,274.74,261.1805,274.8705,260.1014,273.7914,259.4034,273.0934,258.7518,272.4418,257.8298,271.5198,257.05,270.74,257.0708,270.7492,257.8403,272.5357,258.7044,274.3642,259.5228,276.1724,260.4284,278.0193,261.05,279.74" style="stroke:#FF6F00;stroke-width:2;"/><text fill="#FFFFFF" font-family="'Roboto'" font-size="13" lengthAdjust="spacing" textLength="56.2148" x="264.05" y="254.0669">:concept</text></g><!--SRC=[hLNVRzem47xtNt5D7zPDegNhZuS-JA90kwaRgP9MrLHLbKaEy4Zio7Q4MBN_VNQSW86WQTDuuNJttNTttvdZG1IQ2GupojE5P5eZ1orB90SfJXX7kBvz_TRxCdhjXr_32AhFuNdtudHyuKFYOJyS3NhHznhN0hdlzUzwjyCLqGuaZ0R3oAy3XvF9vQJRNK5kmj731g22sCyAqekYy6aJqx0GDMUye9BcCAR9V2f5oTE-o8Gq4rEkJ0Yv9kGTz4LUq4H3HfUYrA1GQyQdoYEufsbgNF3HyqMEJtAKSEdvunbDnSAY9pHJw4K-BmkK6UFpHvvM1ZhjMn2kpsQKDS0qFbTOmBdlv295wppR67g04rfc6jx8ZU1wH7E4819ZeKLGULo9jSQLCsO_4KxFo2-VgIUbM1WUb-59xl4qYwb8z393qvNCQKOUPYoPSrJAYBV1ccJKED_8zTPoDbuWkHRIQ5L7l2TJ1tpsrg5wMaisBZMsH-raksDLxhsDcxSofrEiXTtX_CTvDaeeJJN-KPl_D_1Vg1nhAhTsFcpQQnmRiyHsbfQiBSGE2T6Y02t0l5WjSaYPnCJUBZ9ZAKAE-HYb8iGze-19oFaa4uk1lGlCuWAW2dRTyFnyaWYUOA5F5dNqvD1ePOfFboyl3U6ZmZvLMB7KjfzQAkmanjUM6ciXbrLYPVbfoZhQSi9I9o9tvMhRpnFErPRPTv0gixRzpEPxNvzrIeGPjVAe6IlMhRS4xS4CzSmSFObAb3911OLWNDjTDK8TwMN14fh1tItavZfbzXmgUnRUavQL1DtZumy1T3gV83WDLYnNS5KwqnQDDHOAZgJNIqUCVvX70ImlCePfAxSbTMimTCfoE38XcUdStbhRUAsl0lE_2BLaYhWyoz2in72OQFqBKm-YXcmDi4yxry8wHlO2BLEpJ5VJchy1]--></g></svg>