<svg xmlns="http://www.w3.org/2000/svg" xmlns:xlink="http://www.w3.org/1999/xlink" version="1.1" data-diagram-type="CLASS" style="width:894px;height:643px;" width="894px" height="643px" viewBox="0 0 894 643" zoomAndPan="magnify" preserveAspectRatio="none" contentStyleType="text/css"><?plantuml 1.2026.7beta6?><defs/><g font-family="sans-serif" lengthAdjust="spacing"><polygon points="5.5,3,5.5,3.21,15.535,2.586,25.569,3.193,35.604,3.4,45.639,2.287,55.674,2.922,65.708,2.574,75.743,2.617,85.778,2.932,95.812,2.309,105.847,3.554,115.882,2.37,125.916,2.802,135.951,3.432,145.986,2.914,156.021,3.068,166.055,2.968,176.09,3.179,186.125,3.239,196.159,3.586,206.194,3.671,216.229,3.679,226.263,3.255,236.298,3.464,246.333,3.702,256.368,2.279,266.402,3.679,276.437,2.703,286.472,3.534,296.506,2.505,306.541,2.932,316.576,3.742,326.61,2.951,336.645,3.105,346.68,3.339,356.715,3.416,366.749,2.996,376.784,3.287,386.819,2.428,396.853,3.284,406.888,3.548,416.923,3.445,426.957,3.613,436.992,2.517,447.027,2.348,457.062,2.379,467.096,2.941,477.131,2.803,487.166,3.681,497.2,2.825,507.235,2.657,517.27,3.228,527.304,2.333,537.339,2.481,547.374,3.649,557.409,3.436,567.443,3.734,577.478,2.678,587.513,3.319,597.547,3.59,607.582,2.528,617.617,2.904,627.651,3.126,637.686,3.652,647.721,2.996,657.756,3.463,667.79,2.446,677.825,2.323,687.86,3.504,697.894,2.283,707.929,3.509,717.964,3.207,727.999,2.732,738.033,2.646,748.068,3.459,758.103,2.701,768.137,3.592,778.172,2.447,788.207,3.617,798.241,3.484,808.276,3.245,818.311,3.047,828.346,3.727,838.38,3.614,848.415,3.169,858.45,3.268,868.484,2.87,878.519,3,878.61,3.221,878.892,3.194,879.248,3.346,879.502,3.252,879.882,3.461,880.287,3.732,880.45,3.8,880.566,4.141,880.566,4.434,880.627,4.752,880.805,5.119,881.019,5.5,880.79,5.5,881.157,7.828,881.266,10.156,881.194,12.484,881.251,14.813,881.019,17.141,880.977,17.123,880.899,17.505,880.607,17.798,880.667,18.238,880.509,18.586,880.287,18.908,880.357,19.079,879.904,18.984,879.563,19.16,879.283,19.484,878.945,19.669,878.519,19.641,878.519,19.128,868.484,19.447,858.45,19.79,848.415,19.03,838.38,19.994,828.346,19.899,818.311,19.54,808.276,19.783,798.241,20.369,788.207,19.328,778.172,19.956,768.137,19.926,758.103,19.756,748.068,19.782,738.033,19.754,727.999,19.016,717.964,19.24,707.929,19.179,697.894,19.704,687.86,19.729,677.825,19.802,667.79,19.35,657.756,19.573,647.721,19.52,637.686,20.217,627.651,20.067,617.617,19.155,607.582,19.568,597.547,19.063,587.513,19.929,577.478,20.249,567.443,20.185,557.409,19.205,547.374,20.105,537.339,18.898,527.304,19.841,517.27,19.341,507.235,19.737,497.2,19.881,487.166,20.113,477.131,18.921,467.096,20.116,457.062,19.819,447.027,19.996,436.992,20.388,426.957,19.646,416.923,19.816,406.888,19.854,396.853,19.838,386.819,19.64,376.784,20.351,366.749,19.031,356.715,20.206,346.68,19.017,336.645,19.1,326.61,19.681,316.576,19.669,306.541,19.148,296.506,20.054,286.472,19.749,276.437,20.367,266.402,20.308,256.368,19.192,246.333,19.243,236.298,19.511,226.263,19.996,216.229,20.044,206.194,19.942,196.159,19.299,186.125,20.277,176.09,20.274,166.055,19.593,156.021,19.402,145.986,19.239,135.951,19.426,125.916,19.778,115.882,19.572,105.847,19.223,95.812,20.128,85.778,19.182,75.743,20.143,65.708,20.068,55.674,20.012,45.639,20.333,35.604,19.395,25.569,19.34,15.535,20.16,5.5,19.641,5.424,19.457,5.117,19.422,4.808,19.383,4.448,19.222,4.04,18.944,3.732,18.908,3.719,18.903,3.815,18.65,3.639,18.284,3.109,17.772,3.171,17.504,3,17.141,2.829,17.141,2.991,14.813,3.098,12.484,3.14,10.156,2.778,7.828,3,5.5,3.123,5.551,3.149,5.148,3.122,4.722,3.294,4.379,3.686,4.127,3.732,3.732,3.764,3.809,4.084,3.581,4.354,3.232,4.877,3.496,5.107,3.05,5.5,3" fill="#FFC" style="stroke:#FD8;stroke-width:3;stroke-linejoin:miter;stroke-miterlimit:10;"/><text x="10" y="13.641" fill="#000" font-size="10" textLength="295.005" font-family="monospace">Please use CSS style instead of skinparam padding</text><!--class UseCase--><g class="entity" data-qualified-name="UseCase" id="ent0001" data-source-line="62"><a target="_top" href="/concept/use-case/#ontology" xlink:href="/concept/use-case/#ontology" xlink:type="simple" xlink:actuate="onRequest" xlink:show="new" title="/concept/use-case/#ontology" xlink:title="/concept/use-case/#ontology"><polygon points="290.84,54.407,290.84,54.617,301.353,53.993,311.865,54.6,322.378,54.807,332.89,53.694,343.403,54.329,353.915,53.981,364.428,54.024,374.941,54.407,374.932,54.386,375.277,54.37,375.86,54.929,376.133,54.74,376.612,55.049,377.062,55.286,377.195,55.341,377.211,55.699,377.434,56.143,377.579,56.554,377.82,57.006,377.941,57.407,378.02,57.407,378.136,62.207,378.164,67.007,378.167,71.807,378.025,76.607,377.941,81.407,378.083,81.466,377.981,81.921,377.367,82.164,377.622,82.766,377.146,83.066,377.062,83.528,377.13,83.693,376.574,83.552,376.205,83.859,375.884,84.284,375.359,84.216,374.941,84.407,374.941,84.512,364.428,84.746,353.915,84.823,343.403,84.403,332.89,84.694,322.378,83.835,311.865,84.691,301.353,84.955,290.84,84.407,290.897,84.544,290.494,84.42,289.93,83.907,289.484,83.679,289.064,83.513,288.719,83.528,288.701,83.521,288.482,83.079,288.577,82.767,288.138,82.233,287.91,81.788,287.84,81.407,287.916,81.407,287.618,76.607,287.667,71.807,288.056,67.007,287.985,62.207,287.84,57.407,288.066,57.501,287.917,56.942,288.29,56.599,288.549,56.21,288.397,55.65,288.719,55.286,288.706,55.256,289.159,55.149,289.65,55.135,289.991,54.757,290.475,54.725,290.84,54.407" fill="#4051B5" style="stroke:#FF6F00;stroke-width:2;stroke-linejoin:miter;stroke-miterlimit:10;"/><polygon points="311.895,71.839,310.429,73.842,308.696,76.776,306.216,78.753,303.61,79.834,301.533,79.928,298.862,78.576,296.343,77.692,294.43,75.899,293.427,73.846,292.832,72.211,292.25,70.076,291.304,68.238,292.031,66.444,292.667,64.479,295.058,62.925,296.739,60.908,298.82,60.238,301.295,59.662,304.468,60.004,306.206,60.824,308.226,61.195,310.683,63.712,311.539,66.37,311.911,68.183,311.49,71.171" fill="#ADD1B2" style="stroke:#181818;stroke-width:1;stroke-linejoin:miter;stroke-miterlimit:10;"/><path d="M303.699,73.641 Q303.262,73.86 302.762,73.97 Q302.278,74.095 301.746,74.095 Q299.824,74.095 298.809,72.829 Q297.809,71.563 297.809,69.173 Q297.809,66.782 298.809,65.516 Q299.824,64.251 301.746,64.251 Q302.278,64.251 302.778,64.376 Q303.278,64.485 303.699,64.72 L303.699,66.798 Q303.215,66.36 302.762,66.157 Q302.309,65.938 301.824,65.938 Q300.809,65.938 300.278,66.766 Q299.746,67.579 299.746,69.173 Q299.746,70.782 300.278,71.595 Q300.809,72.407 301.824,72.407 Q302.309,72.407 302.762,72.204 Q303.215,72.001 303.699,71.548 L303.699,73.641 Z " fill="#FFF"/><text x="316.84" y="73.908" fill="#FFF" font-size="13" textLength="56.101" font-family="'Roboto'">UseCase</text></a></g><!--class UseCaseStereotype--><g class="entity" data-qualified-name="UseCaseStereotype" id="ent0002" data-source-line="63"><a target="_top" href="/concept/use-case/use-case-stereotype/#ontology" xlink:href="/concept/use-case/use-case-stereotype/#ontology" xlink:type="simple" xlink:actuate="onRequest" xlink:show="new" title="/concept/use-case/use-case-stereotype/#ontology" xlink:title="/concept/use-case/use-case-stereotype/#ontology"><polygon points="10,145.907,10,146.117,19.737,145.493,29.473,146.1,39.21,146.307,48.946,145.194,58.683,145.829,68.419,145.481,78.156,145.524,87.892,145.839,97.629,145.216,107.365,146.461,117.102,145.277,126.839,145.709,136.575,146.339,146.312,145.821,156.048,145.975,165.785,145.907,165.781,145.897,166.232,146.138,166.664,146.332,167.132,146.615,167.567,146.817,167.906,146.786,168.115,146.872,168.16,147.242,168.4,147.693,168.649,148.148,168.387,148.391,168.785,148.907,169.011,148.907,168.686,153.707,168.963,158.507,168.62,163.307,168.762,168.107,168.785,172.907,169.013,173.002,168.594,173.325,168.466,173.769,168.362,174.223,168.21,174.657,167.906,175.028,167.905,175.027,167.518,175.293,166.984,175.204,166.669,175.643,166.279,175.9,165.785,175.907,165.785,176.352,156.048,176.52,146.312,175.424,136.575,175.255,126.839,175.286,117.102,175.848,107.365,175.711,97.629,176.588,87.892,175.732,78.156,175.564,68.419,176.135,58.683,175.24,48.946,175.388,39.21,176.556,29.473,176.343,19.737,176.642,10,175.907,9.959,175.808,9.616,175.83,9.227,175.737,8.667,175.234,8.291,175.175,7.879,175.028,7.917,175.044,7.904,174.687,7.526,174.179,7.494,173.815,7.005,173.261,7,172.907,6.774,172.907,7.168,168.107,6.761,163.307,7.17,158.507,7.069,153.707,7,148.907,6.917,148.873,7.067,148.438,7.493,148.117,7.435,147.596,7.885,147.285,7.879,146.786,7.808,146.616,8.382,146.8,8.789,146.583,9.183,146.334,9.582,146.097,10,145.907" fill="#4051B5" style="stroke:#FF6F00;stroke-width:2;stroke-linejoin:miter;stroke-miterlimit:10;"/><polygon points="31.055,163.339,29.589,165.342,27.856,168.276,25.376,170.253,22.77,171.334,20.693,171.428,18.022,170.076,15.503,169.192,13.59,167.399,12.587,165.346,11.992,163.711,11.41,161.576,10.464,159.738,11.191,157.944,11.827,155.979,14.218,154.425,15.899,152.408,17.98,151.738,20.455,151.162,23.628,151.504,25.366,152.324,27.386,152.695,29.843,155.212,30.699,157.87,31.071,159.683,30.65,162.671" fill="#ADD1B2" style="stroke:#181818;stroke-width:1;stroke-linejoin:miter;stroke-miterlimit:10;"/><path d="M22.859,165.141 Q22.422,165.36 21.922,165.47 Q21.438,165.595 20.906,165.595 Q18.984,165.595 17.969,164.329 Q16.969,163.063 16.969,160.673 Q16.969,158.282 17.969,157.016 Q18.984,155.751 20.906,155.751 Q21.438,155.751 21.938,155.876 Q22.438,155.985 22.859,156.22 L22.859,158.298 Q22.375,157.86 21.922,157.657 Q21.469,157.438 20.984,157.438 Q19.969,157.438 19.438,158.266 Q18.906,159.079 18.906,160.673 Q18.906,162.282 19.438,163.095 Q19.969,163.907 20.984,163.907 Q21.469,163.907 21.922,163.704 Q22.375,163.501 22.859,163.048 L22.859,165.141 Z " fill="#FFF"/><text x="36" y="165.408" fill="#FFF" font-size="13" textLength="127.785" font-family="'Roboto'">UseCaseStereotype</text></a></g><!--class Story--><g class="entity" data-qualified-name="Story" id="ent0003" data-source-line="64"><a target="_top" href="/concept/story/#ontology" xlink:href="/concept/story/#ontology" xlink:type="simple" xlink:actuate="onRequest" xlink:show="new" title="/concept/story/#ontology" xlink:title="/concept/story/#ontology"><polygon points="367.72,245.907,367.72,246.117,378.11,245.493,388.5,246.1,398.89,246.307,409.281,245.194,419.671,245.829,430.061,245.907,430.006,245.776,430.436,245.965,430.901,246.238,431.245,246.221,431.828,246.78,432.182,246.786,431.988,246.705,432.297,247.185,432.667,247.689,432.683,248.048,432.906,248.491,433.061,248.907,433.05,248.907,433.12,253.707,433.141,258.507,433.256,263.307,433.285,268.107,433.061,272.907,433.27,272.994,432.963,273.364,432.852,273.815,432.75,274.269,432.136,274.512,432.182,275.028,432.269,275.237,431.72,275.113,431.402,275.544,430.846,275.403,430.476,275.71,430.061,275.907,430.061,276.649,419.671,275.858,409.281,276.012,398.89,276.246,388.5,276.323,378.11,275.903,367.72,275.907,367.757,275.995,367.223,275.555,366.908,275.643,366.517,275.549,366.08,275.341,365.599,275.028,365.787,275.107,365.274,274.542,365.046,274.097,364.88,273.676,364.878,273.324,364.72,272.907,364.654,272.907,364.947,268.107,364.662,263.307,364.606,258.507,364.796,253.707,364.72,248.907,364.515,248.822,364.736,248.417,365.271,248.141,365.381,247.69,365.649,247.304,365.599,246.786,365.558,246.687,366.064,246.708,366.523,246.616,366.811,246.113,367.284,246.053,367.72,245.907" fill="#4051B5" style="stroke:#FF6F00;stroke-width:2;stroke-linejoin:miter;stroke-miterlimit:10;"/><polygon points="388.775,263.339,387.309,265.342,385.576,268.276,383.096,270.253,380.49,271.334,378.413,271.428,375.742,270.076,373.223,269.192,371.31,267.399,370.307,265.346,369.712,263.711,369.13,261.576,368.184,259.738,368.911,257.944,369.547,255.979,371.938,254.425,373.619,252.408,375.7,251.738,378.175,251.162,381.348,251.504,383.086,252.324,385.106,252.695,387.563,255.212,388.419,257.87,388.791,259.683,388.37,262.671" fill="#ADD1B2" style="stroke:#181818;stroke-width:1;stroke-linejoin:miter;stroke-miterlimit:10;"/><path d="M380.579,265.141 Q380.142,265.36 379.642,265.47 Q379.158,265.595 378.626,265.595 Q376.704,265.595 375.689,264.329 Q374.689,263.063 374.689,260.673 Q374.689,258.282 375.689,257.016 Q376.704,255.751 378.626,255.751 Q379.158,255.751 379.658,255.876 Q380.158,255.985 380.579,256.22 L380.579,258.298 Q380.095,257.86 379.642,257.657 Q379.189,257.438 378.704,257.438 Q377.689,257.438 377.158,258.266 Q376.626,259.079 376.626,260.673 Q376.626,262.282 377.158,263.095 Q377.689,263.907 378.704,263.907 Q379.189,263.907 379.642,263.704 Q380.095,263.501 380.579,263.048 L380.579,265.141 Z " fill="#FFF"/><text x="393.72" y="265.408" fill="#FFF" font-size="13" textLength="34.341" font-family="'Roboto'">Story</text></a></g><!--class WorkflowDefinition--><g class="entity" data-qualified-name="WorkflowDefinition" id="ent0004" data-source-line="65"><a target="_top" href="/concept/workflow/#ontology" xlink:href="/concept/workflow/#ontology" xlink:type="simple" xlink:actuate="onRequest" xlink:show="new" title="/concept/workflow/#ontology" xlink:title="/concept/workflow/#ontology"><polygon points="405.19,145.907,405.19,146.117,415.284,145.493,425.377,146.1,435.471,146.307,445.565,145.194,455.658,145.829,465.752,145.481,475.846,145.524,485.939,145.839,496.033,145.216,506.127,146.461,516.22,145.277,526.314,145.709,536.407,146.339,546.501,145.821,556.595,145.907,556.603,145.928,557.015,146.073,557.466,146.313,557.898,146.508,558.367,146.79,558.716,146.786,558.923,146.871,559.101,147.297,559.146,147.667,559.386,148.118,559.635,148.572,559.595,148.907,559.354,148.907,559.821,153.707,559.496,158.507,559.773,163.307,559.43,168.107,559.595,172.907,559.574,172.898,559.647,173.426,559.228,173.749,559.1,174.193,558.996,174.647,558.716,175.028,558.769,175.157,558.291,175.203,557.904,175.468,557.37,175.379,557.055,175.819,556.595,175.907,556.595,176.455,546.501,176.352,536.407,176.52,526.314,175.424,516.22,175.255,506.127,175.286,496.033,175.848,485.939,175.711,475.846,176.588,465.752,175.732,455.658,175.564,445.565,176.135,435.471,175.24,425.377,175.388,415.284,176.556,405.19,175.907,405.246,176.041,404.859,175.958,404.3,175.456,403.958,175.478,403.568,175.386,403.069,175.028,402.923,174.968,402.863,174.592,402.756,174.196,402.742,173.839,402.364,173.331,402.19,172.907,402.344,172.907,402.005,168.107,401.964,163.307,402.358,158.507,401.951,153.707,402.19,148.907,402.347,148.972,402.429,148.509,402.459,148.024,402.608,147.589,403.034,147.269,403.069,146.786,403.03,146.694,403.568,146.792,403.847,146.264,404.42,146.449,404.828,146.232,405.19,145.907" fill="#4051B5" style="stroke:#FF6F00;stroke-width:2;stroke-linejoin:miter;stroke-miterlimit:10;"/><polygon points="426.245,163.339,424.779,165.342,423.046,168.276,420.566,170.253,417.96,171.334,415.883,171.428,413.212,170.076,410.693,169.192,408.78,167.399,407.777,165.346,407.182,163.711,406.6,161.576,405.654,159.738,406.381,157.944,407.017,155.979,409.408,154.425,411.089,152.408,413.17,151.738,415.645,151.162,418.818,151.504,420.556,152.324,422.576,152.695,425.033,155.212,425.889,157.87,426.261,159.683,425.84,162.671" fill="#ADD1B2" style="stroke:#181818;stroke-width:1;stroke-linejoin:miter;stroke-miterlimit:10;"/><path d="M418.049,165.141 Q417.612,165.36 417.112,165.47 Q416.628,165.595 416.096,165.595 Q414.174,165.595 413.159,164.329 Q412.159,163.063 412.159,160.673 Q412.159,158.282 413.159,157.016 Q414.174,155.751 416.096,155.751 Q416.628,155.751 417.128,155.876 Q417.628,155.985 418.049,156.22 L418.049,158.298 Q417.565,157.86 417.112,157.657 Q416.659,157.438 416.174,157.438 Q415.159,157.438 414.628,158.266 Q414.096,159.079 414.096,160.673 Q414.096,162.282 414.628,163.095 Q415.159,163.907 416.174,163.907 Q416.659,163.907 417.112,163.704 Q417.565,163.501 418.049,163.048 L418.049,165.141 Z " fill="#FFF"/><text x="431.19" y="165.408" fill="#FFF" font-size="13" textLength="123.405" font-family="'Roboto'">WorkflowDefinition</text></a></g><!--class Outcome--><g class="entity" data-qualified-name="Outcome" id="ent0005" data-source-line="66"><a target="_top" href="/concept/outcome/#ontology" xlink:href="/concept/outcome/#ontology" xlink:type="simple" xlink:actuate="onRequest" xlink:show="new" title="/concept/outcome/#ontology" xlink:title="/concept/outcome/#ontology"><polygon points="163.23,345.907,163.23,346.117,172.934,345.493,182.637,346.1,192.341,346.307,202.044,345.194,211.748,345.829,221.451,345.481,231.155,345.524,240.858,345.839,250.562,345.907,250.473,345.694,251.056,346.253,251.33,346.064,251.809,346.373,252.314,346.743,252.683,346.786,252.656,346.775,252.88,347.219,253.024,347.63,253.265,348.081,253.459,348.513,253.562,348.907,253.757,348.907,253.785,353.707,253.788,358.507,253.646,363.307,253.716,368.107,253.562,372.907,253.778,372.997,253.164,373.239,253.419,373.842,252.943,374.142,253.023,374.672,252.683,375.028,252.62,374.876,252.25,375.183,251.929,375.608,251.404,375.541,250.999,375.764,250.562,375.907,250.562,376.246,240.858,376.323,231.155,375.903,221.451,376.194,211.748,375.335,202.044,376.191,192.341,376.455,182.637,376.352,172.934,376.52,163.23,375.907,163.168,375.758,162.723,375.53,162.302,375.364,161.95,375.362,161.508,375.144,161.109,375.028,161.319,375.115,160.879,374.582,160.652,374.136,160.652,373.785,160.2,373.246,160.23,372.907,160.057,372.907,160.446,368.107,160.375,363.307,160.475,358.507,160.123,353.707,160.23,348.907,160.328,348.948,160.588,348.558,160.436,347.998,160.728,347.622,160.972,347.226,161.109,346.786,161.192,346.986,161.532,346.609,162.016,346.577,162.311,346.088,162.719,345.874,163.23,345.907" fill="#4051B5" style="stroke:#FF6F00;stroke-width:2;stroke-linejoin:miter;stroke-miterlimit:10;"/><polygon points="184.285,363.339,182.819,365.342,181.086,368.276,178.606,370.253,176,371.334,173.923,371.428,171.252,370.076,168.733,369.192,166.82,367.399,165.817,365.346,165.222,363.711,164.64,361.576,163.694,359.738,164.421,357.944,165.057,355.979,167.448,354.425,169.129,352.408,171.21,351.738,173.685,351.162,176.858,351.504,178.596,352.324,180.616,352.695,183.073,355.212,183.929,357.87,184.301,359.683,183.88,362.671" fill="#ADD1B2" style="stroke:#181818;stroke-width:1;stroke-linejoin:miter;stroke-miterlimit:10;"/><path d="M176.089,365.141 Q175.652,365.36 175.152,365.47 Q174.668,365.595 174.136,365.595 Q172.214,365.595 171.199,364.329 Q170.199,363.063 170.199,360.673 Q170.199,358.282 171.199,357.016 Q172.214,355.751 174.136,355.751 Q174.668,355.751 175.168,355.876 Q175.668,355.985 176.089,356.22 L176.089,358.298 Q175.605,357.86 175.152,357.657 Q174.699,357.438 174.214,357.438 Q173.199,357.438 172.668,358.266 Q172.136,359.079 172.136,360.673 Q172.136,362.282 172.668,363.095 Q173.199,363.907 174.214,363.907 Q174.699,363.907 175.152,363.704 Q175.605,363.501 176.089,363.048 L176.089,365.141 Z " fill="#FFF"/><text x="189.23" y="365.408" fill="#FFF" font-size="13" textLength="59.332" font-family="'Roboto'">Outcome</text></a></g><!--class OutcomeStereotype--><g class="entity" data-qualified-name="OutcomeStereotype" id="ent0006" data-source-line="67"><a target="_top" href="/concept/outcome/outcome-stereotype/#ontology" xlink:href="/concept/outcome/outcome-stereotype/#ontology" xlink:type="simple" xlink:actuate="onRequest" xlink:show="new" title="/concept/outcome/outcome-stereotype/#ontology" xlink:title="/concept/outcome/outcome-stereotype/#ontology"><polygon points="127.38,436.907,127.38,437.117,137.318,436.493,147.257,437.1,157.195,437.307,167.134,436.194,177.072,436.829,187.011,436.481,196.949,436.524,206.888,436.839,216.826,436.216,226.765,437.461,236.703,436.277,246.642,436.709,256.58,437.339,266.519,436.821,276.457,436.975,286.396,436.907,286.392,436.897,286.843,437.138,287.275,437.332,287.743,437.615,288.178,437.817,288.517,437.786,288.726,437.872,288.771,438.242,289.011,438.693,289.26,439.148,288.998,439.391,289.396,439.907,289.622,439.907,289.297,444.707,289.574,449.507,289.231,454.307,289.373,459.107,289.396,463.907,289.624,464.002,289.205,464.325,289.077,464.769,288.973,465.223,288.821,465.657,288.517,466.028,288.516,466.027,288.129,466.293,287.595,466.204,287.28,466.643,286.89,466.9,286.396,466.907,286.396,467.352,276.457,467.52,266.519,466.424,256.58,466.255,246.642,466.286,236.703,466.848,226.765,466.711,216.826,467.588,206.888,466.732,196.949,466.564,187.011,467.135,177.072,466.24,167.134,466.388,157.195,467.556,147.257,467.343,137.318,467.642,127.38,466.907,127.339,466.808,126.996,466.83,126.607,466.737,126.047,466.234,125.671,466.175,125.259,466.028,125.297,466.044,125.284,465.687,124.906,465.179,124.874,464.815,124.385,464.261,124.38,463.907,124.154,463.907,124.548,459.107,124.141,454.307,124.55,449.507,124.449,444.707,124.38,439.907,124.297,439.873,124.447,439.438,124.873,439.117,124.815,438.596,125.265,438.285,125.259,437.786,125.188,437.616,125.762,437.8,126.169,437.583,126.563,437.334,126.962,437.097,127.38,436.907" fill="#4051B5" style="stroke:#FF6F00;stroke-width:2;stroke-linejoin:miter;stroke-miterlimit:10;"/><polygon points="148.435,454.339,146.969,456.342,145.236,459.276,142.756,461.253,140.15,462.334,138.073,462.428,135.402,461.076,132.883,460.192,130.97,458.399,129.967,456.346,129.372,454.711,128.79,452.576,127.844,450.738,128.571,448.944,129.207,446.979,131.598,445.425,133.279,443.408,135.36,442.738,137.835,442.162,141.008,442.504,142.746,443.324,144.766,443.695,147.223,446.212,148.079,448.87,148.451,450.683,148.03,453.671" fill="#ADD1B2" style="stroke:#181818;stroke-width:1;stroke-linejoin:miter;stroke-miterlimit:10;"/><path d="M140.239,456.141 Q139.802,456.36 139.302,456.47 Q138.818,456.595 138.286,456.595 Q136.364,456.595 135.349,455.329 Q134.349,454.063 134.349,451.673 Q134.349,449.282 135.349,448.016 Q136.364,446.751 138.286,446.751 Q138.818,446.751 139.318,446.876 Q139.818,446.985 140.239,447.22 L140.239,449.298 Q139.755,448.86 139.302,448.657 Q138.849,448.438 138.364,448.438 Q137.349,448.438 136.818,449.266 Q136.286,450.079 136.286,451.673 Q136.286,453.282 136.818,454.095 Q137.349,454.907 138.364,454.907 Q138.849,454.907 139.302,454.704 Q139.755,454.501 140.239,454.048 L140.239,456.141 Z " fill="#FFF"/><text x="153.38" y="456.408" fill="#FFF" font-size="13" textLength="131.016" font-family="'Roboto'">OutcomeStereotype</text></a></g><!--class OutcomeRelationship--><g class="entity" data-qualified-name="OutcomeRelationship" id="ent0007" data-source-line="68"><a target="_top" href="/concept/outcome/outcome-relationship/#ontology" xlink:href="/concept/outcome/outcome-relationship/#ontology" xlink:type="simple" xlink:actuate="onRequest" xlink:show="new" title="/concept/outcome/outcome-relationship/#ontology" xlink:title="/concept/outcome/outcome-relationship/#ontology"><polygon points="125.03,195.907,125.03,196.117,134.896,195.493,144.762,196.1,154.627,196.307,164.493,195.194,174.359,195.829,184.225,195.481,194.09,195.524,203.956,195.839,213.822,195.216,223.688,196.461,233.554,195.277,243.419,195.709,253.285,196.339,263.151,195.821,273.017,195.975,282.882,195.875,292.748,195.907,292.771,195.962,293.203,196.156,293.672,196.439,294.107,196.641,294.532,196.819,294.87,196.786,294.948,196.818,295.188,197.269,295.437,197.724,295.175,197.967,295.781,198.569,295.748,198.907,295.649,198.907,295.926,203.707,295.583,208.507,295.725,213.307,295.995,218.107,295.748,222.907,295.733,222.901,295.605,223.345,295.501,223.799,295.349,224.233,295.044,224.604,294.87,225.028,294.906,225.117,294.372,225.028,294.057,225.467,293.667,225.724,293.229,225.868,292.748,225.907,292.748,226.52,282.882,225.424,273.017,225.255,263.151,225.286,253.285,225.848,243.419,225.711,233.554,226.588,223.688,225.732,213.822,225.564,203.956,226.135,194.09,225.24,184.225,225.388,174.359,226.556,164.493,226.343,154.627,226.642,144.762,225.585,134.896,226.226,125.03,225.907,125.105,226.089,124.545,225.586,124.169,225.526,123.773,225.419,123.416,225.405,122.909,225.028,122.907,225.028,122.875,224.663,122.387,224.109,122.173,223.669,122.361,223.396,122.03,222.907,121.791,222.907,122.2,218.107,122.099,213.307,121.941,208.507,121.912,203.707,122.03,198.907,122.171,198.966,122.114,198.445,122.564,198.134,122.387,197.564,122.923,197.289,122.909,196.786,122.97,196.935,123.364,196.685,123.763,196.449,124.274,196.482,124.684,196.272,125.03,195.907" fill="#4051B5" style="stroke:#FF6F00;stroke-width:2;stroke-linejoin:miter;stroke-miterlimit:10;"/><polygon points="146.085,213.339,144.619,215.342,142.886,218.276,140.406,220.253,137.8,221.334,135.723,221.428,133.052,220.076,130.533,219.192,128.62,217.399,127.617,215.346,127.022,213.711,126.44,211.576,125.494,209.738,126.221,207.944,126.857,205.979,129.248,204.425,130.929,202.408,133.01,201.738,135.485,201.162,138.658,201.504,140.396,202.324,142.416,202.695,144.873,205.212,145.729,207.87,146.101,209.683,145.68,212.671" fill="#ADD1B2" style="stroke:#181818;stroke-width:1;stroke-linejoin:miter;stroke-miterlimit:10;"/><path d="M137.889,215.141 Q137.452,215.36 136.952,215.47 Q136.468,215.595 135.936,215.595 Q134.014,215.595 132.999,214.329 Q131.999,213.063 131.999,210.673 Q131.999,208.282 132.999,207.016 Q134.014,205.751 135.936,205.751 Q136.468,205.751 136.968,205.876 Q137.468,205.985 137.889,206.22 L137.889,208.298 Q137.405,207.86 136.952,207.657 Q136.499,207.438 136.014,207.438 Q134.999,207.438 134.468,208.266 Q133.936,209.079 133.936,210.673 Q133.936,212.282 134.468,213.095 Q134.999,213.907 136.014,213.907 Q136.499,213.907 136.952,213.704 Q137.405,213.501 137.889,213.048 L137.889,215.141 Z " fill="#FFF"/><text x="151.03" y="215.408" fill="#FFF" font-size="13" textLength="139.718" font-family="'Roboto'">OutcomeRelationship</text></a></g><!--class Concept--><g class="entity" data-qualified-name="Concept" id="ent0008" data-source-line="69"><a target="_top" href="/concept/concept/#ontology" xlink:href="/concept/concept/#ontology" xlink:type="simple" xlink:actuate="onRequest" xlink:show="new" title="/concept/concept/#ontology" xlink:title="/concept/concept/#ontology"><polygon points="653.01,436.907,653.01,437.117,663.231,436.493,673.451,437.1,683.672,437.307,693.892,436.194,704.113,436.829,714.333,436.481,724.554,436.524,734.775,436.907,734.766,436.886,735.111,436.87,735.694,437.429,735.967,437.24,736.446,437.549,736.896,437.786,737.029,437.841,737.045,438.199,737.268,438.643,737.413,439.054,737.654,439.506,737.775,439.907,737.854,439.907,737.97,444.707,737.998,449.507,738.001,454.307,737.86,459.107,737.775,463.907,737.917,463.966,737.815,464.421,737.201,464.664,737.456,465.266,736.98,465.566,736.896,466.028,736.964,466.193,736.409,466.052,736.039,466.359,735.718,466.784,735.193,466.716,734.775,466.907,734.775,467.012,724.554,467.246,714.333,467.323,704.113,466.903,693.892,467.194,683.672,466.335,673.451,467.191,663.231,467.455,653.01,466.907,653.067,467.044,652.664,466.92,652.1,466.407,651.654,466.179,651.234,466.013,650.889,466.028,650.871,466.021,650.652,465.579,650.747,465.267,650.308,464.733,650.08,464.288,650.01,463.907,650.086,463.907,649.788,459.107,649.837,454.307,650.226,449.507,650.155,444.707,650.01,439.907,650.236,440.001,650.087,439.442,650.46,439.099,650.719,438.71,650.567,438.15,650.889,437.786,650.876,437.756,651.329,437.649,651.82,437.635,652.161,437.257,652.645,437.225,653.01,436.907" fill="#4051B5" style="stroke:#FF6F00;stroke-width:2;stroke-linejoin:miter;stroke-miterlimit:10;"/><polygon points="674.065,454.339,672.599,456.342,670.866,459.276,668.386,461.253,665.78,462.334,663.703,462.428,661.032,461.076,658.513,460.192,656.6,458.399,655.597,456.346,655.002,454.711,654.42,452.576,653.474,450.738,654.201,448.944,654.837,446.979,657.228,445.425,658.909,443.408,660.99,442.738,663.465,442.162,666.638,442.504,668.376,443.324,670.396,443.695,672.853,446.212,673.709,448.87,674.081,450.683,673.66,453.671" fill="#ADD1B2" style="stroke:#181818;stroke-width:1;stroke-linejoin:miter;stroke-miterlimit:10;"/><path d="M665.869,456.141 Q665.432,456.36 664.932,456.47 Q664.448,456.595 663.916,456.595 Q661.994,456.595 660.979,455.329 Q659.979,454.063 659.979,451.673 Q659.979,449.282 660.979,448.016 Q661.994,446.751 663.916,446.751 Q664.448,446.751 664.948,446.876 Q665.448,446.985 665.869,447.22 L665.869,449.298 Q665.385,448.86 664.932,448.657 Q664.479,448.438 663.994,448.438 Q662.979,448.438 662.448,449.266 Q661.916,450.079 661.916,451.673 Q661.916,453.282 662.448,454.095 Q662.979,454.907 663.994,454.907 Q664.479,454.907 664.932,454.704 Q665.385,454.501 665.869,454.048 L665.869,456.141 Z " fill="#FFF"/><text x="679.01" y="456.408" fill="#FFF" font-size="13" textLength="53.765" font-family="'Roboto'">Concept</text></a></g><!--class ConceptVocabulary--><g class="entity" data-qualified-name="ConceptVocabulary" id="ent0009" data-source-line="70"><a target="_top" href="/concept/concept/concept-vocabulary/#ontology" xlink:href="/concept/concept/concept-vocabulary/#ontology" xlink:type="simple" xlink:actuate="onRequest" xlink:show="new" title="/concept/concept/concept-vocabulary/#ontology" xlink:title="/concept/concept/concept-vocabulary/#ontology"><polygon points="687.48,295.907,687.48,296.117,697.802,295.493,708.124,296.1,718.447,296.307,728.769,295.194,739.091,295.829,749.413,295.481,759.735,295.524,770.057,295.839,780.38,295.216,790.702,296.461,801.024,295.277,811.346,295.709,821.668,296.339,831.99,295.821,842.313,295.907,842.321,295.928,842.733,296.073,843.184,296.313,843.616,296.508,844.084,296.79,844.434,296.786,844.64,296.871,844.819,297.297,844.864,297.667,845.104,298.118,845.353,298.572,845.313,298.907,845.072,298.907,845.539,303.707,845.214,308.507,845.49,313.307,845.148,318.107,845.313,322.907,845.291,322.898,845.365,323.426,844.946,323.749,844.818,324.193,844.714,324.647,844.434,325.028,844.487,325.157,844.009,325.203,843.622,325.468,843.088,325.379,842.773,325.819,842.313,325.907,842.313,326.455,831.99,326.352,821.668,326.52,811.346,325.424,801.024,325.255,790.702,325.286,780.38,325.848,770.057,325.711,759.735,326.588,749.413,325.732,739.091,325.564,728.769,326.135,718.447,325.24,708.124,325.388,697.802,326.556,687.48,325.907,687.536,326.041,687.149,325.958,686.59,325.456,686.248,325.478,685.858,325.386,685.359,325.028,685.213,324.968,685.153,324.592,685.046,324.196,685.032,323.839,684.654,323.331,684.48,322.907,684.634,322.907,684.295,318.107,684.254,313.307,684.648,308.507,684.241,303.707,684.48,298.907,684.637,298.972,684.719,298.509,684.749,298.024,684.898,297.589,685.324,297.269,685.359,296.786,685.32,296.694,685.858,296.792,686.137,296.264,686.71,296.449,687.118,296.232,687.48,295.907" fill="#4051B5" style="stroke:#FF6F00;stroke-width:2;stroke-linejoin:miter;stroke-miterlimit:10;"/><polygon points="708.535,313.339,707.069,315.342,705.336,318.276,702.856,320.253,700.25,321.334,698.173,321.428,695.502,320.076,692.983,319.192,691.07,317.399,690.067,315.346,689.472,313.711,688.89,311.576,687.944,309.738,688.671,307.944,689.307,305.979,691.698,304.425,693.379,302.408,695.46,301.738,697.935,301.162,701.108,301.504,702.846,302.324,704.866,302.695,707.323,305.212,708.179,307.87,708.551,309.683,708.13,312.671" fill="#ADD1B2" style="stroke:#181818;stroke-width:1;stroke-linejoin:miter;stroke-miterlimit:10;"/><path d="M700.339,315.141 Q699.902,315.36 699.402,315.47 Q698.918,315.595 698.386,315.595 Q696.464,315.595 695.449,314.329 Q694.449,313.063 694.449,310.673 Q694.449,308.282 695.449,307.016 Q696.464,305.751 698.386,305.751 Q698.918,305.751 699.418,305.876 Q699.918,305.985 700.339,306.22 L700.339,308.298 Q699.855,307.86 699.402,307.657 Q698.949,307.438 698.464,307.438 Q697.449,307.438 696.918,308.266 Q696.386,309.079 696.386,310.673 Q696.386,312.282 696.918,313.095 Q697.449,313.907 698.464,313.907 Q698.949,313.907 699.402,313.704 Q699.855,313.501 700.339,313.048 L700.339,315.141 Z " fill="#FFF"/><text x="713.48" y="315.408" fill="#FFF" font-size="13" textLength="126.833" font-family="'Roboto'">ConceptVocabulary</text></a></g><!--class ConceptManifestation--><g class="entity" data-qualified-name="ConceptManifestation" id="ent0010" data-source-line="71"><a target="_top" href="/concept/term/#ontology" xlink:href="/concept/term/#ontology" xlink:type="simple" xlink:actuate="onRequest" xlink:show="new" title="/concept/term/#ontology" xlink:title="/concept/term/#ontology"><polygon points="608.84,527.907,608.84,528.117,618.847,527.493,628.853,528.1,638.86,528.307,648.866,527.194,658.873,527.829,668.879,527.481,678.886,527.524,688.892,527.839,698.899,527.216,708.905,528.461,718.912,527.277,728.919,527.709,738.925,528.339,748.932,527.821,758.938,527.975,768.945,527.875,778.951,527.907,778.974,527.962,779.406,528.156,779.875,528.439,780.31,528.641,780.735,528.819,781.073,528.786,781.151,528.818,781.391,529.269,781.64,529.724,781.378,529.967,781.985,530.569,781.951,530.907,781.852,530.907,782.129,535.707,781.786,540.507,781.928,545.307,782.199,550.107,781.951,554.907,781.936,554.901,781.808,555.345,781.704,555.799,781.552,556.233,781.247,556.604,781.073,557.028,781.109,557.117,780.575,557.028,780.26,557.467,779.87,557.724,779.432,557.868,778.951,557.907,778.951,558.52,768.945,557.424,758.938,557.255,748.932,557.286,738.925,557.848,728.919,557.711,718.912,558.588,708.905,557.732,698.899,557.564,688.892,558.135,678.886,557.24,668.879,557.388,658.873,558.556,648.866,558.343,638.86,558.642,628.853,557.585,618.847,558.226,608.84,557.907,608.915,558.089,608.355,557.586,607.979,557.526,607.583,557.419,607.226,557.405,606.719,557.028,606.717,557.028,606.685,556.663,606.197,556.109,605.983,555.669,606.171,555.396,605.84,554.907,605.601,554.907,606.01,550.107,605.909,545.307,605.751,540.507,605.722,535.707,605.84,530.907,605.981,530.966,605.924,530.445,606.374,530.134,606.197,529.564,606.733,529.289,606.719,528.786,606.78,528.935,607.174,528.685,607.573,528.449,608.084,528.482,608.494,528.272,608.84,527.907" fill="#4051B5" style="stroke:#FF6F00;stroke-width:2;stroke-linejoin:miter;stroke-miterlimit:10;"/><polygon points="629.895,545.339,628.429,547.342,626.696,550.276,624.216,552.253,621.61,553.334,619.533,553.428,616.862,552.076,614.343,551.192,612.43,549.399,611.427,547.346,610.832,545.711,610.25,543.576,609.304,541.738,610.031,539.944,610.667,537.979,613.058,536.425,614.739,534.408,616.82,533.738,619.295,533.162,622.468,533.504,624.206,534.324,626.226,534.695,628.683,537.212,629.539,539.87,629.911,541.683,629.49,544.671" fill="#ADD1B2" style="stroke:#181818;stroke-width:1;stroke-linejoin:miter;stroke-miterlimit:10;"/><path d="M621.699,547.141 Q621.262,547.36 620.762,547.47 Q620.278,547.595 619.746,547.595 Q617.824,547.595 616.809,546.329 Q615.809,545.063 615.809,542.673 Q615.809,540.282 616.809,539.016 Q617.824,537.751 619.746,537.751 Q620.278,537.751 620.778,537.876 Q621.278,537.985 621.699,538.22 L621.699,540.298 Q621.215,539.86 620.762,539.657 Q620.309,539.438 619.824,539.438 Q618.809,539.438 618.278,540.266 Q617.746,541.079 617.746,542.673 Q617.746,544.282 618.278,545.095 Q618.809,545.907 619.824,545.907 Q620.309,545.907 620.762,545.704 Q621.215,545.501 621.699,545.048 L621.699,547.141 Z " fill="#FFF"/><text x="634.84" y="547.408" fill="#FFF" font-size="13" textLength="142.111" font-family="'Roboto'">ConceptManifestation</text></a></g><!--class BusinessTerm--><g class="entity" data-qualified-name="BusinessTerm" id="ent0011" data-source-line="72"><a target="_top" href="/concept/term/business-term/#ontology" xlink:href="/concept/term/business-term/#ontology" xlink:type="simple" xlink:actuate="onRequest" xlink:show="new" title="/concept/term/business-term/#ontology" xlink:title="/concept/term/business-term/#ontology"><polygon points="542.26,598.907,542.26,599.117,552.199,598.493,562.139,599.1,572.078,599.307,582.018,598.194,591.957,598.829,601.896,598.481,611.836,598.524,621.775,598.839,631.715,598.216,641.654,599.461,651.594,598.277,661.533,598.907,661.508,598.846,662.012,599.216,662.371,599.232,662.814,599.455,663.226,599.6,663.654,599.786,663.709,599.808,663.904,600.24,664.186,600.709,664.388,601.144,664.566,601.569,664.533,601.907,664.618,601.907,664.687,606.707,664.767,611.507,664.293,616.307,664.759,621.107,664.533,625.907,664.442,625.869,664.522,626.399,664.029,626.692,663.985,627.171,664.058,627.699,663.654,628.028,663.648,628.013,663.243,628.237,662.849,628.484,662.435,628.684,661.957,628.73,661.533,628.907,661.533,629.194,651.594,628.335,641.654,629.191,631.715,629.455,621.775,629.352,611.836,629.52,601.896,628.424,591.957,628.255,582.018,628.286,572.078,628.848,562.139,628.711,552.199,629.588,542.26,628.907,542.238,628.853,541.792,628.626,541.441,628.626,540.902,628.174,540.497,628.044,540.139,628.028,540.339,628.111,540.097,627.66,540.013,627.274,539.512,626.715,539.534,626.372,539.26,625.907,539.457,625.907,539.103,621.107,539.228,616.307,539.302,611.507,539.477,606.707,539.26,601.907,539.259,601.907,539.578,601.542,539.441,600.988,539.579,600.548,540.118,600.274,540.139,599.786,540.047,599.565,540.628,599.767,541.014,599.498,541.377,599.176,541.791,598.974,542.26,598.907" fill="#4051B5" style="stroke:#FF6F00;stroke-width:2;stroke-linejoin:miter;stroke-miterlimit:10;"/><polygon points="563.315,616.339,561.849,618.342,560.116,621.276,557.636,623.253,555.03,624.334,552.953,624.428,550.282,623.076,547.763,622.192,545.85,620.399,544.847,618.346,544.252,616.711,543.67,614.576,542.724,612.738,543.451,610.944,544.087,608.979,546.478,607.425,548.159,605.408,550.24,604.738,552.715,604.162,555.888,604.504,557.626,605.324,559.646,605.695,562.103,608.212,562.959,610.87,563.331,612.683,562.91,615.671" fill="#ADD1B2" style="stroke:#181818;stroke-width:1;stroke-linejoin:miter;stroke-miterlimit:10;"/><path d="M555.119,618.141 Q554.682,618.36 554.182,618.47 Q553.698,618.595 553.166,618.595 Q551.244,618.595 550.229,617.329 Q549.229,616.063 549.229,613.673 Q549.229,611.282 550.229,610.016 Q551.244,608.751 553.166,608.751 Q553.698,608.751 554.198,608.876 Q554.698,608.985 555.119,609.22 L555.119,611.298 Q554.635,610.86 554.182,610.657 Q553.729,610.438 553.244,610.438 Q552.229,610.438 551.698,611.266 Q551.166,612.079 551.166,613.673 Q551.166,615.282 551.698,616.095 Q552.229,616.907 553.244,616.907 Q553.729,616.907 554.182,616.704 Q554.635,616.501 555.119,616.048 L555.119,618.141 Z " fill="#FFF"/><text x="568.26" y="618.408" fill="#FFF" font-size="13" textLength="91.273" font-family="'Roboto'">BusinessTerm</text></a></g><!--class TechnicalManifestation--><g class="entity" data-qualified-name="TechnicalManifestation" id="ent0012" data-source-line="73"><a target="_top" href="/concept/term/technical-term/#ontology" xlink:href="/concept/term/technical-term/#ontology" xlink:type="simple" xlink:actuate="onRequest" xlink:show="new" title="/concept/term/technical-term/#ontology" xlink:title="/concept/term/technical-term/#ontology"><polygon points="697.77,598.907,697.77,599.117,707.673,598.493,717.575,599.1,727.478,599.307,737.381,598.194,747.284,598.829,757.186,598.481,767.089,598.524,776.992,598.839,786.895,598.216,796.797,599.461,806.7,598.277,816.603,598.709,826.505,599.339,836.408,598.821,846.311,598.975,856.214,598.875,866.116,599.086,876.019,598.907,876.05,598.981,876.518,599.263,876.953,599.465,877.378,599.643,877.749,599.688,878.14,599.786,878.283,599.845,878.532,600.3,878.27,600.542,878.877,601.145,878.752,601.445,879.019,601.907,879.197,601.907,878.854,606.707,878.996,611.507,879.266,616.307,879.003,621.107,879.019,625.907,879.051,625.92,878.948,626.375,878.796,626.809,878.491,627.179,878.405,627.641,878.14,628.028,878.067,627.852,877.752,628.292,877.362,628.549,876.924,628.692,876.521,628.92,876.019,628.907,876.019,628.424,866.116,628.255,856.214,628.286,846.311,628.848,836.408,628.711,826.505,629.588,816.603,628.732,806.7,628.564,796.797,629.135,786.895,628.24,776.992,628.388,767.089,629.556,757.186,629.343,747.284,629.642,737.381,628.585,727.478,629.226,717.575,629.497,707.673,628.435,697.77,628.907,697.758,628.878,697.362,628.77,697.005,628.756,696.497,628.379,696.132,628.347,695.649,628.028,695.478,627.958,695.264,627.518,695.452,627.244,694.901,626.664,695.102,626.396,694.77,625.907,694.839,625.907,694.681,621.107,694.652,616.307,694.923,611.507,694.67,606.707,694.77,601.907,694.952,601.983,694.776,601.412,695.312,601.137,695.446,600.696,695.548,600.241,695.649,599.786,695.655,599.8,696.166,599.834,696.575,599.623,696.943,599.311,697.38,599.165,697.77,598.907" fill="#4051B5" style="stroke:#FF6F00;stroke-width:2;stroke-linejoin:miter;stroke-miterlimit:10;"/><polygon points="718.825,616.339,717.359,618.342,715.626,621.276,713.146,623.253,710.54,624.334,708.463,624.428,705.792,623.076,703.273,622.192,701.36,620.399,700.357,618.346,699.762,616.711,699.18,614.576,698.234,612.738,698.961,610.944,699.597,608.979,701.988,607.425,703.669,605.408,705.75,604.738,708.225,604.162,711.398,604.504,713.136,605.324,715.156,605.695,717.613,608.212,718.469,610.87,718.841,612.683,718.42,615.671" fill="#ADD1B2" style="stroke:#181818;stroke-width:1;stroke-linejoin:miter;stroke-miterlimit:10;"/><path d="M710.629,618.141 Q710.192,618.36 709.692,618.47 Q709.208,618.595 708.676,618.595 Q706.754,618.595 705.739,617.329 Q704.739,616.063 704.739,613.673 Q704.739,611.282 705.739,610.016 Q706.754,608.751 708.676,608.751 Q709.208,608.751 709.708,608.876 Q710.208,608.985 710.629,609.22 L710.629,611.298 Q710.145,610.86 709.692,610.657 Q709.239,610.438 708.754,610.438 Q707.739,610.438 707.208,611.266 Q706.676,612.079 706.676,613.673 Q706.676,615.282 707.208,616.095 Q707.739,616.907 708.754,616.907 Q709.239,616.907 709.692,616.704 Q710.145,616.501 710.629,616.048 L710.629,618.141 Z " fill="#FFF"/><text x="723.77" y="618.408" fill="#FFF" font-size="13" textLength="150.249" font-family="'Roboto'">TechnicalManifestation</text></a></g><!--class Persona--><g class="entity" data-qualified-name="Persona" id="ent0013" data-source-line="74"><a target="_top" href="/concept/persona/#ontology" xlink:href="/concept/persona/#ontology" xlink:type="simple" xlink:actuate="onRequest" xlink:show="new" title="/concept/persona/#ontology" xlink:title="/concept/persona/#ontology"><polygon points="358.84,345.907,358.84,346.117,368.854,345.493,378.869,346.1,388.883,346.307,398.897,345.194,408.911,345.829,418.926,345.481,428.94,345.524,438.954,345.907,438.946,345.886,439.29,345.87,439.873,346.429,440.147,346.24,440.626,346.549,441.076,346.786,441.209,346.841,441.225,347.199,441.448,347.643,441.593,348.054,441.834,348.506,441.954,348.907,442.034,348.907,442.149,353.707,442.178,358.507,442.181,363.307,442.039,368.107,441.954,372.907,442.097,372.966,441.995,373.421,441.381,373.664,441.636,374.266,441.16,374.566,441.076,375.028,441.144,375.193,440.588,375.052,440.218,375.359,439.897,375.784,439.372,375.716,438.954,375.907,438.954,376.012,428.94,376.246,418.926,376.323,408.911,375.903,398.897,376.194,388.883,375.335,378.869,376.191,368.854,376.455,358.84,375.907,358.897,376.044,358.494,375.92,357.93,375.407,357.484,375.179,357.064,375.013,356.719,375.028,356.701,375.021,356.482,374.579,356.577,374.267,356.138,373.733,355.91,373.288,355.84,372.907,355.916,372.907,355.618,368.107,355.667,363.307,356.056,358.507,355.985,353.707,355.84,348.907,356.066,349.001,355.917,348.442,356.29,348.099,356.549,347.71,356.397,347.15,356.719,346.786,356.706,346.756,357.159,346.649,357.65,346.635,357.991,346.257,358.475,346.225,358.84,345.907" fill="#4051B5" style="stroke:#FF6F00;stroke-width:2;stroke-linejoin:miter;stroke-miterlimit:10;"/><polygon points="379.895,363.339,378.429,365.342,376.696,368.276,374.216,370.253,371.61,371.334,369.533,371.428,366.862,370.076,364.343,369.192,362.43,367.399,361.427,365.346,360.832,363.711,360.25,361.576,359.304,359.738,360.031,357.944,360.667,355.979,363.058,354.425,364.739,352.408,366.82,351.738,369.295,351.162,372.468,351.504,374.206,352.324,376.226,352.695,378.683,355.212,379.539,357.87,379.911,359.683,379.49,362.671" fill="#ADD1B2" style="stroke:#181818;stroke-width:1;stroke-linejoin:miter;stroke-miterlimit:10;"/><path d="M371.699,365.141 Q371.262,365.36 370.762,365.47 Q370.278,365.595 369.746,365.595 Q367.824,365.595 366.809,364.329 Q365.809,363.063 365.809,360.673 Q365.809,358.282 366.809,357.016 Q367.824,355.751 369.746,355.751 Q370.278,355.751 370.778,355.876 Q371.278,355.985 371.699,356.22 L371.699,358.298 Q371.215,357.86 370.762,357.657 Q370.309,357.438 369.824,357.438 Q368.809,357.438 368.278,358.266 Q367.746,359.079 367.746,360.673 Q367.746,362.282 368.278,363.095 Q368.809,363.907 369.824,363.907 Q370.309,363.907 370.762,363.704 Q371.215,363.501 371.699,363.048 L371.699,365.141 Z " fill="#FFF"/><text x="384.84" y="365.408" fill="#FFF" font-size="13" textLength="52.114" font-family="'Roboto'">Persona</text></a></g><!--class StoryConceptRelationship--><g class="entity" data-qualified-name="StoryConceptRelationship" id="ent0014" data-source-line="75"><a target="_top" href="/concept/concept/story-concept-relationship/#ontology" xlink:href="/concept/concept/story-concept-relationship/#ontology" xlink:type="simple" xlink:actuate="onRequest" xlink:show="new" title="/concept/concept/story-concept-relationship/#ontology" xlink:title="/concept/concept/story-concept-relationship/#ontology"><polygon points="489.65,345.907,489.65,346.117,499.475,345.493,509.299,346.1,519.124,346.307,528.948,345.194,538.773,345.829,548.598,345.481,558.422,345.524,568.247,345.839,578.071,345.216,587.896,346.461,597.721,345.277,607.545,345.709,617.37,346.339,627.195,345.821,637.019,345.975,646.844,345.875,656.668,346.086,666.493,346.146,676.318,346.493,686.142,345.907,686.228,346.114,686.653,346.292,687.023,346.337,687.474,346.577,687.929,346.826,688.264,346.786,688.041,346.694,688.648,347.297,688.524,347.596,688.955,348.127,688.814,348.42,689.142,348.907,689.119,348.907,689.389,353.707,689.126,358.507,689.177,363.307,689.255,368.107,689.142,372.907,689.27,372.96,688.965,373.331,688.879,373.792,688.439,374.107,688.527,374.64,688.264,375.028,688.333,375.197,687.896,375.341,687.493,375.569,686.929,375.407,686.483,375.53,686.142,375.907,686.142,375.286,676.318,375.848,666.493,375.711,656.668,376.588,646.844,375.732,637.019,375.564,627.195,376.135,617.37,375.24,607.545,375.388,597.721,376.556,587.896,376.343,578.071,376.642,568.247,375.585,558.422,376.226,548.598,376.497,538.773,375.435,528.948,375.811,519.124,376.033,509.299,376.559,499.475,375.903,489.65,375.907,489.709,376.049,489.155,375.561,488.715,375.347,488.441,375.535,487.861,374.983,487.529,375.028,487.685,375.093,487.417,374.63,487.095,374.146,486.893,373.71,486.967,373.39,486.65,372.907,486.55,372.907,486.847,368.107,486.466,363.307,486.856,358.507,486.811,353.707,486.65,348.907,486.725,348.938,486.84,348.489,487.225,348.151,487.366,347.713,487.405,347.232,487.529,346.786,487.563,346.868,487.936,346.57,488.469,346.655,488.821,346.306,489.248,346.136,489.65,345.907" fill="#4051B5" style="stroke:#FF6F00;stroke-width:2;stroke-linejoin:miter;stroke-miterlimit:10;"/><polygon points="510.705,363.339,509.239,365.342,507.506,368.276,505.026,370.253,502.42,371.334,500.343,371.428,497.672,370.076,495.153,369.192,493.24,367.399,492.237,365.346,491.642,363.711,491.06,361.576,490.114,359.738,490.841,357.944,491.477,355.979,493.868,354.425,495.549,352.408,497.63,351.738,500.105,351.162,503.278,351.504,505.016,352.324,507.036,352.695,509.493,355.212,510.349,357.87,510.721,359.683,510.3,362.671" fill="#ADD1B2" style="stroke:#181818;stroke-width:1;stroke-linejoin:miter;stroke-miterlimit:10;"/><path d="M502.509,365.141 Q502.072,365.36 501.572,365.47 Q501.088,365.595 500.556,365.595 Q498.634,365.595 497.619,364.329 Q496.619,363.063 496.619,360.673 Q496.619,358.282 497.619,357.016 Q498.634,355.751 500.556,355.751 Q501.088,355.751 501.588,355.876 Q502.088,355.985 502.509,356.22 L502.509,358.298 Q502.025,357.86 501.572,357.657 Q501.119,357.438 500.634,357.438 Q499.619,357.438 499.088,358.266 Q498.556,359.079 498.556,360.673 Q498.556,362.282 499.088,363.095 Q499.619,363.907 500.634,363.907 Q501.119,363.907 501.572,363.704 Q502.025,363.501 502.509,363.048 L502.509,365.141 Z " fill="#FFF"/><text x="515.65" y="365.408" fill="#FFF" font-size="13" textLength="168.492" font-family="'Roboto'">StoryConceptRelationship</text></a></g><!--reverse link UseCase to Story--><g class="link" data-entity-1="ent0001" data-entity-2="ent0003" id="lnk15" data-source-line="78" data-link-type="composition"><path d="M333.542,96.83 L333.636,96.835 L333.555,100.162 L334.021,103.521 L334.309,106.87 L334.011,110.184 L334.524,113.546 L334.49,113.542 L334.793,117.304 L335.269,121.087 L335.865,124.885 L336.047,128.632 L336.809,132.45 L337.051,132.493 L336.9,134.44 L337.456,136.514 L338.098,138.604 L338.239,140.603 L338.643,142.65 L338.672,142.657 L339.11,144.78 L339.682,146.933 L340.189,149.071 L340.82,151.237 L341.047,153.312 L341.334,153.391 L341.949,155.611 L342.378,157.78 L343.079,160.024 L343.792,162.271 L344.102,164.407 L343.798,164.307 L345.146,166.802 L345.492,168.966 L346.6,171.381 L346.923,173.538 L347.89,175.907 L347.862,175.896 L348.985,178.019 L349.448,179.88 L350.301,181.895 L351.186,183.924 L351.835,185.859 L352.003,185.937 L352.754,187.834 L353.793,189.864 L354.367,191.679 L355.633,193.816 L356.44,195.738 L356.655,195.851 L357.631,197.763 L358.713,199.732 L359.299,201.438 L360.248,203.337 L361.521,205.405 L361.282,205.267 L362.574,207.255 L363.597,209.087 L365.01,211.145 L365.756,212.818 L366.899,214.72 L366.769,214.639 L368.083,216.538 L368.844,218.092 L369.998,219.891 L371.537,221.93 L372.39,223.542 L372.552,223.649 L373.747,225.36 L374.44,226.739 L375.762,228.535 L376.948,230.239 L377.814,231.732 L377.643,231.611 L379.762,234.493 L381.826,237.335 L383.999,240.255 L385.745,242.871 L387.73,245.657" style="stroke:#FF6F00;stroke-width:2;" fill="none"/><polygon points="333.12,84.837,333.18,84.874,332.245,85.992,331.66,87.326,330.962,88.589,329.889,89.622,329.334,90.974,329.313,90.959,330.06,92.062,330.913,93.242,331.84,94.474,332.513,95.524,333.542,96.83,333.699,96.927,334.121,95.492,335.001,94.34,335.937,93.223,336.547,91.905,337.329,90.693,337.347,90.706,336.478,89.515,335.694,88.385,334.868,87.226,334.12,86.122,333.12,84.837" fill="#FF6F00" style="stroke:#FF6F00;stroke-width:2;stroke-linejoin:miter;stroke-miterlimit:10;"/><text x="350.89" y="165.474" fill="#333" font-size="13" textLength="33.598" font-family="'Roboto'">owns</text><text x="321.394" y="106.559" fill="#333" font-size="13" font-family="'Roboto'">1</text><text x="354.875" y="232.856" fill="#333" font-size="13" textLength="23.036" font-family="'Roboto'">0..*</text></g><!--reverse link UseCase to WorkflowDefinition--><g class="link" data-entity-1="ent0001" data-entity-2="ent0004" id="lnk16" data-source-line="79" data-link-type="composition"><path d="M366.939,90.996 L367.084,91.236 L374.856,95.484 L383.478,101.138 L391.823,106.335 L399.258,110.026 L407.899,115.712 L415.862,120.275 L424.094,125.285 L432.514,130.606 L440.287,134.856 L449.349,141.238 L457.17,145.567" style="stroke:#FF6F00;stroke-width:2;" fill="none"/><polygon points="356.67,84.787,356.733,84.817,357.158,86.034,357.954,87.425,358.629,88.76,358.907,89.908,359.735,91.314,359.734,91.289,361.169,91.109,362.611,91.059,364.056,91.101,365.488,90.829,366.939,90.996,367.106,91.074,366.136,89.601,365.653,88.357,365.23,87.141,364.461,85.762,363.874,84.469,363.875,84.491,362.433,84.522,360.995,84.655,359.555,84.739,358.119,84.918,356.67,84.787" fill="#FF6F00" style="stroke:#FF6F00;stroke-width:2;stroke-linejoin:miter;stroke-miterlimit:10;"/><text x="426.89" y="119.974" fill="#333" font-size="13" textLength="33.598" font-family="'Roboto'">owns</text><text x="352.157" y="106.494" fill="#333" font-size="13" font-family="'Roboto'">1</text><text x="420.311" y="132.737" fill="#333" font-size="13" textLength="23.036" font-family="'Roboto'">0..*</text></g><!--reverse link UseCase to UseCase--><g class="link" data-entity-1="ent0001" data-entity-2="ent0001" id="lnk17" data-source-line="80" data-link-type="composition"><path d="M390.32,65.031 L390.342,65.122 L393.799,65.727 L397.389,66.865 L400.935,67.829 L404.34,68.224 L407.94,69.407 L407.928,69.375 L406.135,69.89 L404.404,70.567 L402.715,71.358 L400.879,71.759 L399.25,72.706 L399.271,72.951 L397.343,72.585 L395.476,72.935 L393.616,73.372 L391.713,73.301 L389.833,73.498 L389.834,73.528 L387.53,73.527 L385.229,73.665 L382.927,73.736 L380.628,73.933 L378.32,73.717" style="stroke:#FF6F00;stroke-width:2;" fill="none"/><polygon points="378.32,65.097,378.359,65.156,379.448,65.775,380.764,66.738,382.006,67.588,383.007,68.072,384.342,69.064,384.327,69.042,385.458,68.139,386.662,67.345,387.916,66.625,388.995,65.646,390.32,65.031,390.421,65.185,389,64.062,387.875,63.389,386.786,62.771,385.487,61.834,384.298,61.064,384.311,61.083,383.096,61.862,381.94,62.727,380.756,63.55,379.625,64.452,378.32,65.097" fill="#FF6F00" style="stroke:#FF6F00;stroke-width:2;stroke-linejoin:miter;stroke-miterlimit:10;"/><text x="415.94" y="73.974" fill="#333" font-size="13" textLength="58.957" font-family="'Roboto'">is-part-of</text><text x="387.986" y="58.403" fill="#333" font-size="13" textLength="24.807" font-family="'Roboto'">0..1</text><text x="387.873" y="89.562" fill="#333" font-size="13" textLength="23.036" font-family="'Roboto'">0..*</text></g><!--reverse link UseCase to UseCase--><g class="link" data-entity-1="ent0001" data-entity-2="ent0001" id="lnk18" data-source-line="81" data-link-type="aggregation"><path d="M390.366,61.418 L390.372,61.511 L393.779,61.037 L397.218,61.11 L400.646,61.006 L404.041,60.315 L407.482,60.435 L407.481,60.401 L410.79,60.171 L414.103,60.115 L417.418,60.18 L420.724,59.828 L424.043,60.06 L424.046,60.306 L427.134,59.823 L430.231,60.057 L433.329,60.38 L436.421,60.192 L439.516,60.273 L439.518,60.303 L442.286,60.414 L445.062,60.663 L447.834,60.846 L450.613,61.155 L453.369,61.051 L453.403,61.348 L455.744,61.616 L458.063,61.693 L460.413,62.05 L462.765,62.42 L465.071,62.375 L465.006,62.061 L466.935,63.04 L468.651,62.985 L470.529,63.716 L472.24,63.638 L474.088,64.223 L474.071,64.197 L475.84,65.535 L477.217,66.278 L478.825,67.372 L480.452,68.496 L481.94,69.407 L482.025,69.571 L479.995,70.414 L478.11,71.538 L475.99,72.208 L474.221,73.554 L472.218,74.451 L472.255,74.692 L470.062,74.987 L467.887,75.402 L465.625,75.261 L463.427,75.528 L461.284,76.155 L461.262,75.88 L458.503,76.36 L455.718,76.531 L452.971,77.152 L450.159,77.004 L447.386,77.313 L447.38,77.161 L444.18,77.537 L440.955,77.262 L437.747,77.451 L434.557,78.092 L431.336,77.927 L431.337,78.12 L427.859,78.267 L424.38,77.811 L420.903,78.11 L417.425,78.244 L413.946,77.995 L413.941,77.785 L410.362,77.857 L406.781,77.86 L403.204,77.999 L399.613,77.612 L396.03,77.518 L396.042,77.724 L392.49,77.068 L388.961,76.809 L385.465,77.129 L381.908,76.383 L378.4,76.497" style="stroke:#FF6F00;stroke-width:2;" fill="none"/><polygon points="378.4,62.317,378.434,62.378,379.589,62.905,380.945,63.789,382.235,64.557,383.31,64.941,384.683,65.856,384.667,65.836,385.732,64.856,386.878,63.98,388.079,63.175,389.088,62.124,390.366,61.418,390.457,61.579,389.007,60.527,387.821,59.945,386.667,59.42,385.326,58.562,384.083,57.879,384.097,57.897,382.94,58.758,381.847,59.701,380.722,60.605,379.657,61.583,378.4,62.317" fill="none" style="stroke:#FF6F00;stroke-width:2;stroke-linejoin:miter;stroke-miterlimit:10;"/><text x="489.94" y="73.974" fill="#333" font-size="13" textLength="62.88" font-family="'Roboto'">is-used-in</text><text x="384.627" y="41.273" fill="#333" font-size="13" textLength="23.036" font-family="'Roboto'">0..*</text><text x="384.627" y="106.804" fill="#333" font-size="13" textLength="23.036" font-family="'Roboto'">0..*</text></g><!--reverse link Concept to ConceptManifestation--><g class="link" data-entity-1="ent0008" data-entity-2="ent0010" id="lnk19" data-source-line="82" data-link-type="composition"><path d="M693.89,479.207 L694.17,479.207 L693.338,488.895 L694.148,498.583 L694.423,508.271 L692.939,517.959 L693.89,527.647" style="stroke:#FF6F00;stroke-width:2;" fill="none"/><polygon points="693.89,467.207,693.948,467.246,692.975,468.33,692.344,469.643,691.601,470.881,690.492,471.875,689.89,473.207,689.868,473.193,690.572,474.328,691.384,475.536,692.271,476.794,692.898,477.879,693.89,479.207,694.044,479.309,694.515,477.891,695.435,476.77,696.41,475.687,697.066,474.391,697.89,473.207,697.909,473.22,697.081,472.001,696.34,470.84,695.556,469.651,694.852,468.515,693.89,467.207" fill="#FF6F00" style="stroke:#FF6F00;stroke-width:2;stroke-linejoin:miter;stroke-miterlimit:10;"/><text x="696.89" y="501.974" fill="#333" font-size="13" textLength="33.598" font-family="'Roboto'">owns</text><text x="682.093" y="488.889" fill="#333" font-size="13" font-family="'Roboto'">1</text><text x="664.591" y="514.843" fill="#333" font-size="13" textLength="23.036" font-family="'Roboto'">0..*</text></g><!--reverse link ConceptManifestation to BusinessTerm--><g class="link" data-entity-1="ent0010" data-entity-2="ent0011" id="lnk20" data-source-line="85" data-link-type="extension"><path d="M660.429,569.006 L660.597,569.23 L652.198,574.488 L644.784,581.06 L637.049,587.205 L628.259,591.942 L620.93,598.627" style="stroke:#FF6F00;stroke-width:2;" fill="none"/><polygon points="674.83,558.207,674.852,558.274,671.186,559.276,667.65,560.667,664.072,561.932,660.354,562.78,656.829,564.205,656.809,564.19,658.155,566.04,659.607,567.969,661.131,569.952,662.404,571.748,664.028,573.806,664.18,573.911,666.016,570.567,668.295,567.529,670.628,564.529,672.646,561.311,674.83,558.207" fill="none" style="stroke:#FF6F00;stroke-width:2;stroke-linejoin:miter;stroke-miterlimit:10;"/></g><!--reverse link ConceptManifestation to TechnicalManifestation--><g class="link" data-entity-1="ent0010" data-entity-2="ent0012" id="lnk21" data-source-line="86" data-link-type="extension"><path d="M727.616,568.932 L727.783,569.157 L735.294,574.427 L743.783,581.017 L751.954,587.177 L759.077,591.924 L767.65,598.627" style="stroke:#FF6F00;stroke-width:2;" fill="none"/><polygon points="713.16,558.207,713.217,558.247,715.223,561.236,717.565,564.461,719.798,567.609,721.67,570.505,724.041,573.75,724.021,573.735,725.357,571.738,726.799,569.819,728.313,567.954,729.576,565.903,731.191,564.113,731.249,564.288,727.52,562.732,723.958,561.688,720.417,560.706,716.757,559.361,713.16,558.207" fill="none" style="stroke:#FF6F00;stroke-width:2;stroke-linejoin:miter;stroke-miterlimit:10;"/></g><!--link UseCase to UseCaseStereotype--><g class="link" data-entity-1="ent0001" data-entity-2="ent0002" id="lnk22" data-source-line="89" data-link-type="dependency"><path d="M287.54,69.947 L287.542,70.04 L282.337,69.847 L277.141,70.2 L271.943,70.376 L266.735,69.965 L261.54,70.365 L261.539,70.331 L258.695,70.265 L255.857,70.373 L253.022,70.602 L250.175,70.414 L247.346,70.81 L247.356,71.056 L244.388,70.658 L241.451,70.979 L238.517,71.386 L235.562,71.285 L232.618,71.451 L232.62,71.481 L229.604,71.61 L226.597,71.876 L223.586,72.076 L220.582,72.403 L217.554,72.316 L217.576,72.614 L214.535,72.841 L211.48,72.877 L208.446,73.193 L205.413,73.523 L202.349,73.435 L202.32,73.116 L199.348,74.016 L196.278,73.864 L193.283,74.512 L190.211,74.337 L187.202,74.836 L187.198,74.806 L184.261,75.506 L181.242,75.499 L178.271,75.91 L175.304,76.355 L172.308,76.548 L172.334,76.731 L169.418,76.957 L166.548,77.496 L163.605,77.528 L160.77,78.315 L157.864,78.6 L157.906,78.84 L155.138,79.279 L152.392,79.837 L149.548,79.842 L146.776,80.252 L144.067,81.021 L144.008,80.752 L141.47,81.56 L138.867,82.063 L136.359,83.008 L133.687,83.2 L131.113,83.84 L131.073,83.693 L128.757,84.587 L126.27,84.852 L123.905,85.564 L121.659,86.714 L119.201,87.085 L119.264,87.268 L117.172,88.134 L114.884,88.43 L112.842,89.439 L110.746,90.293 L108.525,90.785 L108.439,90.594 L106.659,91.584 L104.852,92.51 L103.1,93.56 L101.131,94.131 L99.284,94.97 L99.406,95.135 L96.458,96.76 L93.747,98.703 L91.381,101.112 L88.379,102.664 L85.89,104.907 L86.098,104.995 L84.505,108.421 L82.841,111.817 L81.337,115.28 L80.2,118.899 L78.543,122.298 L78.411,122.28 L79.304,126.01 L79.3,129.617 L80.315,133.364 L80.757,137.032 L81.043,140.679" style="stroke:#FF6F00;stroke-width:2;" fill="none"/><polygon points="82.45,145.477,82.519,145.486,82.574,143.506,83.036,141.581,83.366,139.638,83.26,137.636,83.757,135.715,83.734,135.703,83.089,136.64,82.559,137.639,82.109,138.683,81.384,139.576,81.043,140.679,81.132,140.841,79.95,139.952,79.026,139.536,78.134,139.177,77.059,138.483,76.08,137.966,76.097,137.981,77.346,139.461,78.673,141.009,79.963,142.524,81.325,144.101,82.45,145.477" fill="#FF6F00" style="stroke:#FF6F00;stroke-width:2;stroke-linejoin:miter;stroke-miterlimit:10;"/><text x="88.89" y="119.974" fill="#333" font-size="13" textLength="94.663" font-family="'Roboto'">hasStereotype</text><text x="252.882" y="63.708" fill="#333" font-size="13" textLength="24.807" font-family="'Roboto'">0..1</text><text x="68.987" y="132.929" fill="#333" font-size="13" font-family="'Roboto'">1</text></g><!--link Outcome to OutcomeStereotype--><g class="link" data-entity-1="ent0005" data-entity-2="ent0006" id="lnk23" data-source-line="90" data-link-type="dependency"><path d="M206.89,376.207 L207.17,376.207 L206.338,385.447 L207.148,394.687 L207.423,403.927 L205.939,413.167 L206.786,422.407 L206.89,431.647" style="stroke:#FF6F00;stroke-width:2;" fill="none"/><polygon points="206.89,436.647,206.954,436.676,207.564,434.791,208.549,433.073,209.412,431.301,209.873,429.35,210.89,427.647,210.872,427.629,209.989,428.347,209.2,429.157,208.474,430.031,207.527,430.684,206.89,431.647,207.02,431.778,205.941,430.698,205.243,430,204.592,429.349,203.67,428.427,202.89,427.647,202.911,427.656,203.68,429.443,204.544,431.271,205.363,433.079,206.268,434.926,206.89,436.647" fill="#FF6F00" style="stroke:#FF6F00;stroke-width:2;stroke-linejoin:miter;stroke-miterlimit:10;"/><text x="209.89" y="410.974" fill="#333" font-size="13" textLength="94.663" font-family="'Roboto'">hasStereotype</text><text x="176.724" y="397.889" fill="#333" font-size="13" textLength="24.807" font-family="'Roboto'">0..1</text><text x="195.021" y="423.843" fill="#333" font-size="13" font-family="'Roboto'">1</text></g><!--link UseCase to OutcomeRelationship--><g class="link" data-entity-1="ent0001" data-entity-2="ent0007" id="lnk24" data-source-line="91" data-link-type="dependency"><path d="M287.4,72.937 L287.42,73.028 L283.764,73.528 L280.222,74.562 L276.644,75.423 L272.943,75.71 L269.411,76.79 L269.4,76.758 L265.754,77.86 L262.166,79.127 L258.617,80.508 L254.931,81.495 L251.438,83.035 L251.557,83.25 L247.978,84.627 L244.747,86.633 L241.558,88.715 L238.123,90.351 L234.818,92.222 L234.838,92.245 L232.022,94.749 L229.3,97.355 L226.533,99.912 L223.851,102.563 L220.89,104.907 L221.136,105.076 L219.744,107.115 L218.194,109.045 L216.876,111.135 L215.568,113.232 L213.916,115.093 L213.624,114.96 L213.188,117.412 L211.792,119.427 L211.125,121.775 L209.707,123.779 L208.905,126.065 L208.876,126.056 L208.559,128.444 L207.559,130.634 L206.962,132.941 L206.399,135.258 L205.592,137.504 L205.775,137.533 L205.215,139.821 L204.967,142.159 L204.214,144.415 L204.214,146.793 L203.714,149.09 L203.957,149.105 L203.769,151.385 L203.702,153.673 L203.074,155.926 L202.857,158.204 L203.005,160.505 L202.729,160.5 L203.018,162.689 L202.996,164.873 L203.425,167.065 L203.084,169.243 L203.201,171.429 L203.049,171.413 L203.712,175.26 L203.726,179.037 L204.201,182.864 L205.127,186.739 L205.25,190.528" style="stroke:#FF6F00;stroke-width:2;" fill="none"/><polygon points="206.03,195.467,206.098,195.485,206.406,193.529,207.111,191.678,207.687,189.793,207.838,187.795,208.578,185.953,208.557,185.938,207.797,186.785,207.143,187.708,206.563,188.685,205.729,189.478,205.25,190.528,205.359,190.677,204.212,189.693,203.382,189.144,202.59,188.648,201.574,187.843,200.675,187.201,200.695,187.213,201.737,188.848,202.867,190.54,203.955,192.204,205.123,193.92,206.03,195.467" fill="#FF6F00" style="stroke:#FF6F00;stroke-width:2;stroke-linejoin:miter;stroke-miterlimit:10;"/><text x="223.89" y="119.974" fill="#333" font-size="13" textLength="83.675" font-family="'Roboto'">outcomeLink</text><text x="254.844" y="88.682" fill="#333" font-size="13" textLength="23.036" font-family="'Roboto'">0..*</text><text x="176.025" y="182.916" fill="#333" font-size="13" textLength="23.036" font-family="'Roboto'">0..*</text></g><!--link OutcomeRelationship to Outcome--><g class="link" data-entity-1="ent0007" data-entity-2="ent0005" id="lnk25" data-source-line="92" data-link-type="dependency"><path d="M208.7,226.367 L208.98,226.371 L208.007,236.745 L208.677,247.142 L208.812,257.531 L207.188,267.896 L207.895,278.293 L207.29,288.672 L207.207,299.059 L207.487,309.45 L206.516,319.824 L208.036,330.232 L207.157,340.607" style="stroke:#FF6F00;stroke-width:2;" fill="none"/><polygon points="207.09,345.607,207.154,345.636,207.789,343.76,208.797,342.056,209.683,340.296,210.171,338.351,211.211,336.662,211.193,336.643,210.301,337.349,209.5,338.148,208.763,339.013,207.807,339.653,207.157,340.607,207.29,340.736,206.218,339.65,205.532,338.94,204.893,338.276,203.98,337.345,203.211,336.554,203.232,336.563,203.977,338.36,204.818,340.199,205.612,342.017,206.494,343.873,207.09,345.607" fill="#FF6F00" style="stroke:#FF6F00;stroke-width:2;stroke-linejoin:miter;stroke-miterlimit:10;"/><text x="211.89" y="265.474" fill="#333" font-size="13" textLength="99.087" font-family="'Roboto'">targetOutcome</text></g><!--link UseCase to ConceptVocabulary--><g class="link" data-entity-1="ent0001" data-entity-2="ent0009" id="lnk26" data-source-line="93" data-link-type="dependency"><path d="M378.34,80.337 L378.362,80.428 L382.577,81.182 L386.92,82.469 L391.221,83.582 L395.386,84.125 L399.739,85.457 L399.731,85.424 L404.322,86.452 L408.957,87.649 L413.621,88.964 L418.183,89.874 L422.889,91.351 L422.954,91.588 L427.567,92.387 L432.371,93.878 L437.197,95.453 L441.889,96.537 L446.651,97.88 L446.66,97.909 L448.999,98.558 L451.376,99.34 L453.735,100.058 L456.13,100.898 L458.407,101.34 L458.496,101.625 L460.793,102.342 L463.034,102.875 L465.358,103.677 L467.686,104.492 L469.89,104.907 L469.795,104.601 L473.27,106.212 L476.432,106.814 L479.832,108.183 L482.987,108.763 L486.343,109.99 L486.334,109.961 L489.246,111.131 L491.957,111.619 L494.787,112.51 L497.626,113.435 L500.394,114.116 L500.446,114.293 L502.868,114.845 L505.38,115.7 L507.747,116.064 L510.33,117.16 L512.769,117.77 L512.844,118.002 L515.114,118.691 L517.422,119.496 L519.558,119.765 L521.82,120.427 L524.194,121.436 L524.098,121.177 L526.424,122.244 L528.643,123.019 L531.019,124.217 L533.126,124.693 L535.393,125.598 L535.331,125.459 L537.773,126.72 L539.953,127.384 L542.319,128.473 L544.868,129.977 L547.092,130.741 L547.18,130.914 L549.825,132.354 L552.196,133.257 L554.911,134.832 L557.55,136.261 L560.016,137.349 L559.911,137.167 L562.969,139.024 L565.993,140.821 L569.085,142.735 L571.914,144.194 L574.89,145.907 L574.999,146.081 L577.534,147.434 L580.279,149.122 L583.331,151.303 L585.817,152.578 L588.76,154.583 L588.886,154.771 L591.556,156.497 L594.182,158.159 L596.905,159.965 L599.85,162.102 L602.481,163.77 L602.404,163.662 L605.336,165.905 L607.745,167.411 L610.749,169.755 L613.418,171.627 L615.996,173.372 L616.062,173.459 L618.66,175.373 L621.493,177.599 L624.114,179.543 L626.647,181.369 L629.253,183.292 L629.327,183.386 L631.807,185.275 L634.628,187.6 L637.062,189.432 L639.656,191.467 L642.198,193.435 L642.027,193.225 L644.599,195.349 L647.378,197.725 L649.865,199.744 L652.248,201.635 L654.775,203.703 L654.683,203.594 L657.143,205.689 L659.44,207.59 L662.188,210.023 L664.713,212.193 L666.931,214.001 L667.086,214.177 L669.471,216.28 L671.564,218.048 L673.966,220.17 L676.163,222.057 L678.612,224.233 L678.697,224.327 L680.916,226.328 L683.238,228.443 L685.235,230.199 L687.494,232.244 L689.764,234.302 L689.898,234.447 L692.049,236.449 L693.836,238.059 L696.046,240.125 L698.263,242.199 L700.332,244.112 L700.145,243.916 L702.426,246.117 L704.383,247.978 L706.259,249.753 L708.319,251.722 L710.262,253.568 L710.488,253.8 L712.012,255.269 L714.055,257.269 L715.893,259.061 L717.688,260.808 L719.5,262.571 L719.544,262.616 L722.773,265.861 L725.777,268.883 L729.084,272.207 L732.302,275.442 L735.684,278.84 L735.704,278.86 L738.265,281.529 L740.842,284.214 L743.25,286.736 L745.875,289.467 L748.45,292.149" style="stroke:#FF6F00;stroke-width:2;" fill="none"/><polygon points="751.88,295.787,751.946,295.81,751.097,293.883,750.635,292.092,750.047,290.256,749.044,288.274,748.616,286.495,748.59,286.494,748.44,287.622,748.422,288.753,748.493,289.887,748.253,291.012,748.45,292.149,748.455,292.334,747.313,291.906,746.186,292.017,745.061,292.194,743.925,291.988,742.795,291.983,742.804,292.004,744.608,292.734,746.452,293.56,748.277,294.339,750.138,295.206,751.88,295.787" fill="#FF6F00" style="stroke:#FF6F00;stroke-width:2;stroke-linejoin:miter;stroke-miterlimit:10;"/><text x="620.89" y="165.474" fill="#333" font-size="13" textLength="107.396" font-family="'Roboto'">references/owns</text><text x="387.895" y="97.03" fill="#333" font-size="13" textLength="23.036" font-family="'Roboto'">0..*</text><text x="718.102" y="282.721" fill="#333" font-size="13" textLength="23.036" font-family="'Roboto'">0..*</text></g><!--reverse link ConceptVocabulary to Concept--><g class="link" data-entity-1="ent0009" data-entity-2="ent0008" id="lnk27" data-source-line="94" data-link-type="aggregation"><path d="M762.775,338.262 L762.867,338.274 L762.138,341.697 L761.951,345.191 L761.587,348.662 L760.642,352.057 L760.502,355.557 L760.468,355.549 L759.436,359.383 L758.573,363.256 L757.828,367.156 L756.677,370.963 L756.095,374.9 L756.329,374.976 L755.165,376.857 L754.685,378.96 L754.288,381.09 L753.406,383.063 L752.779,385.119 L752.807,385.13 L751.922,387.207 L751.164,389.335 L750.344,391.438 L749.642,393.589 L748.556,395.585 L748.824,395.717 L747.776,397.844 L746.556,399.885 L745.588,402.052 L744.632,404.224 L743.301,406.211 L743.027,406.046 L742.278,408.505 L740.624,410.421 L739.658,412.75 L737.984,414.655 L736.89,416.907 L736.867,416.888 L735.357,419.259 L733.301,421.174 L731.568,423.359 L729.862,425.565 L727.96,427.61 L728.08,427.75 L725.849,429.41 L723.823,431.31 L721.465,432.821 L719.602,434.912 L717.41,436.617" style="stroke:#FF6F00;stroke-width:2;" fill="none"/><polygon points="763.92,326.317,763.974,326.361,762.902,327.348,762.148,328.594,761.291,329.756,760.092,330.64,759.366,331.908,759.343,331.896,759.922,333.112,760.617,334.389,761.391,335.71,761.89,336.882,762.775,338.262,762.918,338.379,763.523,337.011,764.545,335.984,765.619,334.999,766.396,333.772,767.329,332.671,767.349,332.682,766.638,331.396,766.018,330.158,765.354,328.896,764.774,327.68,763.92,326.317" fill="none" style="stroke:#FF6F00;stroke-width:2;stroke-linejoin:miter;stroke-miterlimit:10;"/><text x="763.89" y="365.474" fill="#333" font-size="13" textLength="55.028" font-family="'Roboto'">contains</text><text x="751.825" y="348.033" fill="#333" font-size="13" font-family="'Roboto'">1</text><text x="695.609" y="423.803" fill="#333" font-size="13" textLength="23.036" font-family="'Roboto'">0..*</text></g><!--link Story to Persona--><g class="link" data-entity-1="ent0003" data-entity-2="ent0013" id="lnk28" data-source-line="97" data-link-type="dependency"><path d="M397.87,276.127 L397.963,276.132 L397.49,280.074 L397.564,284.043 L397.459,288.004 L396.769,291.935 L396.89,295.907 L396.855,295.906 L396.642,298.903 L396.603,301.904 L396.684,304.906 L396.349,307.901 L396.597,310.907 L396.844,310.912 L396.376,313.902 L396.627,316.905 L396.965,319.911 L396.793,322.906 L396.89,325.907 L396.92,325.908 L397.008,328.864 L397.233,331.827 L397.392,334.786 L397.678,337.751 L397.55,340.697" style="stroke:#FF6F00;stroke-width:2;" fill="none"/><polygon points="397.87,345.687,397.936,345.711,398.424,343.792,399.297,342.015,400.045,340.191,400.38,338.215,401.287,336.45,401.267,336.433,400.433,337.205,399.696,338.064,399.028,338.983,398.125,339.696,397.55,340.697,397.672,340.836,396.562,339.792,395.808,339.153,395.097,338.564,394.134,337.687,393.303,336.961,393.323,336.972,394.207,338.701,395.183,340.479,396.114,342.234,397.13,344.032,397.87,345.687" fill="#FF6F00" style="stroke:#FF6F00;stroke-width:2;stroke-linejoin:miter;stroke-miterlimit:10;"/><text x="399.89" y="315.474" fill="#333" font-size="13" textLength="97.627" font-family="'Roboto'">story:playedBy</text></g><!--link Story to Outcome--><g class="link" data-entity-1="ent0003" data-entity-2="ent0005" id="lnk29" data-source-line="98" data-link-type="dependency"><path d="M364.27,263.967 L364.281,264.06 L361.868,264.073 L359.52,264.629 L357.15,265.009 L354.71,264.806 L352.368,265.409 L352.363,265.375 L349.761,265.621 L347.187,266.038 L344.63,266.575 L342.01,266.7 L339.479,267.402 L339.526,267.644 L336.709,267.654 L334.03,268.369 L331.367,269.171 L328.606,269.471 L325.897,270.035 L325.904,270.065 L323.098,270.694 L320.323,271.457 L317.533,272.156 L314.773,272.978 L311.916,273.397 L312.001,273.683 L309.185,274.522 L306.314,275.177 L303.524,276.102 L300.737,277.04 L297.831,277.576 L297.721,277.275 L295.155,278.877 L292.227,279.487 L289.575,280.85 L286.639,281.438 L283.935,282.662 L283.923,282.634 L281.389,284.178 L278.562,285.074 L275.907,286.353 L273.268,287.663 L270.523,288.742 L270.615,288.903 L267.996,290.174 L265.533,291.719 L262.818,292.82 L260.479,294.584 L257.89,295.907 L258.038,296.101 L255.325,298.118 L252.685,300.232 L249.703,301.899 L246.972,303.893 L244.463,306.177 L244.264,305.986 L242.216,308.473 L239.944,310.745 L237.997,313.329 L235.494,315.38 L233.322,317.747 L233.201,317.655 L231.586,320.209 L229.452,322.368 L227.687,324.808 L226.284,327.521 L224.237,329.747 L224.401,329.85 L223.061,332.232 L221.211,334.294 L219.999,336.757 L218.649,339.133 L216.974,341.305" style="stroke:#FF6F00;stroke-width:2;" fill="none"/><polygon points="214.46,345.627,214.501,345.684,215.976,344.362,217.691,343.372,219.328,342.274,220.707,340.82,222.443,339.859,222.437,339.834,221.313,340.011,220.223,340.314,219.156,340.705,218.009,340.793,216.974,341.305,217.153,341.352,216.482,340.158,216.332,339.101,216.246,338.061,215.79,336.923,215.529,335.836,215.551,335.839,215.304,337.793,215.16,339.759,214.967,341.719,214.868,343.69,214.46,345.627" fill="#FF6F00" style="stroke:#FF6F00;stroke-width:2;stroke-linejoin:miter;stroke-miterlimit:10;"/><text x="260.89" y="315.474" fill="#333" font-size="13" textLength="126.89" font-family="'Roboto'">story:contributesTo</text></g><!--link Story to StoryConceptRelationship--><g class="link" data-entity-1="ent0003" data-entity-2="ent0014" id="lnk30" data-source-line="99" data-link-type="dependency"><path d="M433.47,267.947 L433.494,268.037 L436.815,268.656 L440.274,269.804 L443.688,270.779 L446.954,271.187 L450.426,272.38 L450.415,272.348 L453.964,273.402 L457.569,274.621 L461.213,275.956 L464.724,276.894 L468.42,278.387 L468.518,278.613 L471.883,279.685 L475.535,281.417 L479.221,283.229 L482.704,284.573 L486.294,286.164 L486.31,286.19 L489.606,288.1 L492.973,290.129 L496.306,292.101 L499.703,294.183 L502.89,295.907 L503.117,296.101 L505.595,299.005 L507.928,301.785 L510.474,304.748 L513.03,307.72 L515.269,310.42 L515.012,310.227 L517.834,313.698 L519.812,316.535 L522.431,319.854 L524.39,322.677 L526.89,325.907 L526.871,325.883 L529.537,328.048 L531.769,329.65 L534.257,331.584 L536.766,333.547 L539.12,335.307 L539.215,335.466 L541.737,336.866 L544.42,338.538 L546.841,339.771 L549.653,341.658 L552.206,343.11" style="stroke:#FF6F00;stroke-width:2;" fill="none"/><polygon points="556.61,345.477,556.665,345.52,555.294,343.836,554.247,342.403,553.095,340.888,551.595,339.104,550.576,337.693,550.551,337.686,550.766,338.736,551.105,339.823,551.532,340.937,551.659,341.96,552.206,343.11,552.259,343.287,551.062,343.235,550.02,343.699,548.997,344.226,547.864,344.387,546.789,344.74,546.79,344.763,548.752,344.877,550.722,345.094,552.687,345.262,554.66,345.524,556.61,345.477" fill="#FF6F00" style="stroke:#FF6F00;stroke-width:2;stroke-linejoin:miter;stroke-miterlimit:10;"/><text x="529.89" y="315.474" fill="#333" font-size="13" textLength="137.274" font-family="'Roboto'">story:relatedConcept</text></g><!--link StoryConceptRelationship to Concept--><g class="link" data-entity-1="ent0014" data-entity-2="ent0008" id="lnk31" data-source-line="100" data-link-type="dependency"><path d="M599.12,376.007 L599.191,376.068 L600.623,377.807 L602.471,379.902 L604.184,381.882 L605.451,383.48 L607.335,385.605 L607.31,385.582 L609.131,387.598 L611.081,389.731 L613.12,391.945 L614.851,393.879 L617.014,396.206 L617.188,396.379 L618.95,398.153 L621.221,400.434 L623.554,402.777 L625.526,404.76 L627.688,406.932 L627.708,406.955 L629.919,408.916 L632.222,410.981 L634.48,412.996 L636.823,415.106 L638.89,416.907 L639.071,417.144 L641.453,418.971 L643.718,420.646 L646.154,422.545 L648.598,424.454 L650.788,426.031 L650.615,425.761 L653.424,427.871 L655.665,429.093 L658.338,430.99 L660.565,432.191 L663.158,433.963" style="stroke:#FF6F00;stroke-width:2;" fill="none"/><polygon points="667.45,436.527,667.507,436.567,666.202,434.838,665.233,433.344,664.154,431.774,662.716,429.95,661.775,428.477,661.75,428.471,661.914,429.54,662.204,430.64,662.583,431.763,662.658,432.809,663.158,433.963,663.203,434.142,662.009,434.035,660.947,434.452,659.902,434.932,658.762,435.041,657.672,435.345,657.675,435.368,659.627,435.571,661.591,435.877,663.549,436.133,665.518,436.484,667.45,436.527" fill="#FF6F00" style="stroke:#FF6F00;stroke-width:2;stroke-linejoin:miter;stroke-miterlimit:10;"/><text x="641.89" y="410.974" fill="#333" font-size="13" textLength="89.077" font-family="'Roboto'">story:concept</text></g><!--link WorkflowDefinition to Story--><g class="link" data-entity-1="ent0004" data-entity-2="ent0003" id="lnk32" data-source-line="101" data-link-type="dependency"><path d="M468.79,176.367 L469.005,176.547 L462.276,183.291 L456.807,191.089 L450.928,198.544 L443.7,204.87 L438.26,212.693 L431.813,219.672 L425.767,226.988 L419.999,234.536 L413.979,241.873" style="stroke:#FF6F00;stroke-width:2;" fill="none"/><polygon points="410.77,245.707,410.801,245.77,412.478,244.716,414.336,244.031,416.135,243.226,417.74,242.026,419.614,241.372,419.611,241.346,418.474,241.331,417.348,241.445,416.231,241.65,415.085,241.543,413.979,241.873,414.163,241.889,413.669,240.727,413.713,239.613,413.822,238.505,413.55,237.362,413.478,236.238,413.5,236.244,412.926,238.129,412.452,240.042,411.93,241.941,411.499,243.867,410.77,245.707" fill="#FF6F00" style="stroke:#FF6F00;stroke-width:2;stroke-linejoin:miter;stroke-miterlimit:10;"/><text x="454.89" y="215.474" fill="#333" font-size="13" textLength="117.616" font-family="'Roboto'">workflow:firstStep</text></g><?plantuml-src hLRRZjis47tdLp3UXxG157kxIHwC8e3jtLpGPBsGlGsA80XeQMGJbaY1f6guQV-z8ugoQOjoaA9w4JLpvinmBXIVoD9mAUY6YNIdk34Wg54La2SfP5m0dRxz-d7o_lxhRFvX7bFxNBqOlRnUlVGXYxlP_Fvs4l_XS078msJss-JjtO6e0vd7jtUnxuTUPTchR3GwGDxCxvSd00kfdmDa4iVpJwUObeNeBHSbKwoWAvPirqfM8ft9N2hSCHCQLI0C8K_fJ1ObImpDsLvMXcemXekrzWWUM9gYYFxYoUA6JmbGz9KdNsnOAdSrEcEv1a_pRb-2ohdOFehKBg39VG3HnDbkvGZ0mBSQIlh25mgPGYsyEHKQU2E5SKmZ-_X9kOMCLRcXtqWDksS5q44iLzB80JaQ7cjWXGl-5z3h6_AFppHHIkwGfx7mIkBnNDtOfo4n-nmmG5Mmd2mtFDaAq1gJUyAQv0o5tyZqh7Wd7KgcKc4kdSPhAQVmsOERcXYZ-AhoS-LhwvrrjsN5lO5ZBstP6bnYEvp_SJydBhHX1hwRc_zlmp-GPOpJo98QIR6LZ2neoXKazQ53DZm5Ma2n0gK9QUexUDGmOne6b6dgrlJpvs4YHGAb6LOQeWHbmoiC5_slzr--d9ak32YG1aV79pbAWtJj8j87NCZ5maYrjxHsvLFfMX2o-IJLDilbxhO-edYzSqlG5VjiEwSD4SuhayYYsPrR-wQo4LsmFCjGHnfYS-_lvCTHnP2pUaTwmqlVXI-_v4Hvk92RMMDdgTtQfslV_PQ_ouIjgfovOdQa8JRtZluye2uu-CW4pw2UoxRU8ONl1lDQX0YdbURrB2rHRubyGOTWvPHH7zqIaetW2Skx4OPL7HUcXVNwUC21be9PKhVsMSf6r3jVBbET9kfJXefbfp5gIzRRJ_Ytd-_mZsrfXXIRhvIw6SQVy6WraSn-9kqnDBWUq6THH0UZvy-V3Tm9CAPo9tGV9Z3avmO8FBLfDMFATUI2E84ZHlR0yHXB8ov8EnHduGHxq0M4gNWlDe2NG8OW4eJ--ZTo-Vrt0HRkfjgDNxjE8gBejOswUsoFyPQgZz-aFVhE3BkdsRdXMIwjORCC7LEOdaRw0UzX98Ie2TfWnjGmjGRZlY_uwfuvOweWmoXHheUs9brClKFPAIYQOgiRnfiwFcgyRv2cFskFxGoEgHsBSOatMqYdUmzoZB-1r7JDlK0lfOVhdS7Mq8uQf0v2Ul4rcPDxFgrDO6WEhj5F-siSPrnfl3n2-Iy0?></g></svg>