<svg xmlns="http://www.w3.org/2000/svg" xmlns:xlink="http://www.w3.org/1999/xlink" contentStyleType="text/css" data-diagram-type="CLASS" height="287px" preserveAspectRatio="none" style="width:150px;height:287px;" version="1.1" viewBox="0 0 150 287" width="150px" zoomAndPan="magnify"><defs/><g><!--class Term--><g class="entity" data-qualified-name="Term" data-source-line="62" id="ent0002"><a href="/concept/term/#ontology" target="_top" title="/concept/term/#ontology" xlink:actuate="onRequest" xlink:href="/concept/term/#ontology" xlink:show="new" xlink:title="/concept/term/#ontology" xlink:type="simple"><polygon fill="#4051B5" points="10,179,10,179.0701,15.6,178.8619,21.2,179.0644,26.8,179.1332,32.4,178.7622,38,179,37.9901,178.9761,38.3699,179.0444,38.7996,179.2334,39.2641,179.5062,39.6089,179.49,40.1213,179.8787,40.2918,179.9493,40.103,180.2225,40.4119,180.702,40.7816,181.2066,40.7978,181.5648,41,182,41.0227,182,40.9894,186.8,41.0595,191.6,41.0797,196.4,41.1952,201.2,41,206,41.2067,206.0856,41.0334,206.5109,40.7269,206.881,40.6156,207.3319,40.5133,207.7866,40.1213,208.1213,40.0293,207.8992,39.7836,208.506,39.235,208.3815,38.9166,208.8129,38.3611,208.6718,38,209,38,208.9772,32.4,209.2472,26.8,208.9838,21.2,209.0351,15.6,209.1129,10,209,10.0531,209.1282,9.5752,208.8231,9.1881,208.737,8.6542,208.2965,8.3392,208.3846,7.8787,208.1213,8.0475,208.1912,7.8398,207.7538,7.716,207.351,7.2027,206.7869,6.9749,206.3411,7,206,6.7929,206,6.9804,201.2,6.9345,196.4,7.2271,191.6,6.9418,186.8,7,182,6.8944,181.9562,7.246,181.6049,7.1461,181.0664,7.3673,180.661,7.9028,180.3857,7.8787,179.8787,7.9343,180.0128,8.3966,179.9291,8.6862,179.4281,9.1922,179.4498,9.6511,179.3576,10,179" style="stroke:#FF6F00;stroke-width:2;"/><polygon fill="#ADD1B2" points="31.0552,196.4324,29.5894,198.4353,27.8556,201.3688,25.376,203.3458,22.7703,204.4269,20.6927,204.5207,18.0224,203.1687,15.5029,202.2854,13.5905,200.492,12.5873,198.4389,11.9924,196.8041,11.4096,194.6688,10.4636,192.8313,11.1906,191.0373,11.8275,189.072,14.2175,187.5177,15.8991,185.501,17.9804,184.8313,20.4547,184.2546,23.6276,184.5972,25.3655,185.4168,27.3861,185.7884,29.8429,188.3054,30.6993,190.9627,31.0714,192.7758,30.65,195.7635" style="stroke:#181818;stroke-width:1;"/><path d="M22.8594,198.2344 Q22.4219,198.4531 21.9219,198.5625 Q21.4375,198.6875 20.9063,198.6875 Q18.9844,198.6875 17.9688,197.4219 Q16.9688,196.1563 16.9688,193.7656 Q16.9688,191.375 17.9688,190.1094 Q18.9844,188.8438 20.9063,188.8438 Q21.4375,188.8438 21.9375,188.9688 Q22.4375,189.0781 22.8594,189.3125 L22.8594,191.3906 Q22.375,190.9531 21.9219,190.75 Q21.4688,190.5313 20.9844,190.5313 Q19.9688,190.5313 19.4375,191.3594 Q18.9063,192.1719 18.9063,193.7656 Q18.9063,195.375 19.4375,196.1875 Q19.9688,197 20.9844,197 Q21.4688,197 21.9219,196.7969 Q22.375,196.5938 22.8594,196.1406 L22.8594,198.2344 Z " fill="#FFFFFF"/><text fill="#FFFFFF" font-family="'Roboto'" font-size="13" lengthAdjust="spacing" textLength="0" x="36" y="189">Term</text></a></g><!--class BusinessTerm--><g class="entity" data-qualified-name="BusinessTerm" data-source-line="63" id="ent0003"><polygon fill="#4051B5" points="80,250,80,250.0701,85.6,249.8619,91.2,250.0644,96.8,250.1332,102.4,249.7622,108,250,107.9901,249.9761,108.3699,250.0444,108.7996,250.2334,109.2641,250.5062,109.6089,250.49,110.1213,250.8787,110.2918,250.9493,110.103,251.2225,110.4119,251.702,110.7816,252.2066,110.7978,252.5648,111,253,111.0227,253,110.9894,257.8,111.0595,262.6,111.0797,267.4,111.1952,272.2,111,277,111.2067,277.0856,111.0334,277.5109,110.7269,277.881,110.6156,278.3319,110.5133,278.7866,110.1213,279.1213,110.0293,278.8992,109.7836,279.506,109.235,279.3815,108.9166,279.8129,108.3611,279.6718,108,280,108,279.9772,102.4,280.2472,96.8,279.9838,91.2,280.0351,85.6,280.1129,80,280,80.0531,280.1282,79.5752,279.8231,79.1881,279.737,78.6542,279.2965,78.3392,279.3846,77.8787,279.1213,78.0475,279.1912,77.8398,278.7538,77.716,278.351,77.2027,277.7869,76.9749,277.3411,77,277,76.7929,277,76.9804,272.2,76.9345,267.4,77.2271,262.6,76.9418,257.8,77,253,76.8944,252.9562,77.246,252.6049,77.1461,252.0664,77.3673,251.661,77.9028,251.3857,77.8787,250.8787,77.9343,251.0128,78.3966,250.9291,78.6862,250.4281,79.1922,250.4498,79.6511,250.3576,80,250" style="stroke:#FF6F00;stroke-width:2;"/><polygon fill="#ADD1B2" points="101.0552,267.4324,99.5894,269.4353,97.8556,272.3688,95.376,274.3458,92.7703,275.4269,90.6927,275.5207,88.0224,274.1687,85.5029,273.2854,83.5905,271.492,82.5873,269.4389,81.9924,267.8041,81.4096,265.6688,80.4636,263.8313,81.1906,262.0373,81.8275,260.072,84.2175,258.5177,85.8991,256.501,87.9804,255.8313,90.4547,255.2546,93.6276,255.5972,95.3655,256.4168,97.3861,256.7884,99.8429,259.3054,100.6993,261.9627,101.0714,263.7758,100.65,266.7635" style="stroke:#181818;stroke-width:1;"/><path d="M92.8594,269.2344 Q92.4219,269.4531 91.9219,269.5625 Q91.4375,269.6875 90.9063,269.6875 Q88.9844,269.6875 87.9688,268.4219 Q86.9688,267.1563 86.9688,264.7656 Q86.9688,262.375 87.9688,261.1094 Q88.9844,259.8438 90.9063,259.8438 Q91.4375,259.8438 91.9375,259.9688 Q92.4375,260.0781 92.8594,260.3125 L92.8594,262.3906 Q92.375,261.9531 91.9219,261.75 Q91.4688,261.5313 90.9844,261.5313 Q89.9688,261.5313 89.4375,262.3594 Q88.9063,263.1719 88.9063,264.7656 Q88.9063,266.375 89.4375,267.1875 Q89.9688,268 90.9844,268 Q91.4688,268 91.9219,267.7969 Q92.375,267.5938 92.8594,267.1406 L92.8594,269.2344 Z " fill="#FFFFFF"/><text fill="#FFFFFF" font-family="'Roboto'" font-size="13" lengthAdjust="spacing" textLength="0" x="106" y="260">BusinessTerm</text></g><!--class TechnicalTerm--><g class="entity" data-qualified-name="TechnicalTerm" data-source-line="64" id="ent0004"><polygon fill="#4051B5" points="10,250,10,250.0701,15.6,249.8619,21.2,250.0644,26.8,250.1332,32.4,249.7622,38,250,37.9901,249.9761,38.3699,250.0444,38.7996,250.2334,39.2641,250.5062,39.6089,250.49,40.1213,250.8787,40.2918,250.9493,40.103,251.2225,40.4119,251.702,40.7816,252.2066,40.7978,252.5648,41,253,41.0227,253,40.9894,257.8,41.0595,262.6,41.0797,267.4,41.1952,272.2,41,277,41.2067,277.0856,41.0334,277.5109,40.7269,277.881,40.6156,278.3319,40.5133,278.7866,40.1213,279.1213,40.0293,278.8992,39.7836,279.506,39.235,279.3815,38.9166,279.8129,38.3611,279.6718,38,280,38,279.9772,32.4,280.2472,26.8,279.9838,21.2,280.0351,15.6,280.1129,10,280,10.0531,280.1282,9.5752,279.8231,9.1881,279.737,8.6542,279.2965,8.3392,279.3846,7.8787,279.1213,8.0475,279.1912,7.8398,278.7538,7.716,278.351,7.2027,277.7869,6.9749,277.3411,7,277,6.7929,277,6.9804,272.2,6.9345,267.4,7.2271,262.6,6.9418,257.8,7,253,6.8944,252.9562,7.246,252.6049,7.1461,252.0664,7.3673,251.661,7.9028,251.3857,7.8787,250.8787,7.9343,251.0128,8.3966,250.9291,8.6862,250.4281,9.1922,250.4498,9.6511,250.3576,10,250" style="stroke:#FF6F00;stroke-width:2;"/><polygon fill="#ADD1B2" points="31.0552,267.4324,29.5894,269.4353,27.8556,272.3688,25.376,274.3458,22.7703,275.4269,20.6927,275.5207,18.0224,274.1687,15.5029,273.2854,13.5905,271.492,12.5873,269.4389,11.9924,267.8041,11.4096,265.6688,10.4636,263.8313,11.1906,262.0373,11.8275,260.072,14.2175,258.5177,15.8991,256.501,17.9804,255.8313,20.4547,255.2546,23.6276,255.5972,25.3655,256.4168,27.3861,256.7884,29.8429,259.3054,30.6993,261.9627,31.0714,263.7758,30.65,266.7635" style="stroke:#181818;stroke-width:1;"/><path d="M22.8594,269.2344 Q22.4219,269.4531 21.9219,269.5625 Q21.4375,269.6875 20.9063,269.6875 Q18.9844,269.6875 17.9688,268.4219 Q16.9688,267.1563 16.9688,264.7656 Q16.9688,262.375 17.9688,261.1094 Q18.9844,259.8438 20.9063,259.8438 Q21.4375,259.8438 21.9375,259.9688 Q22.4375,260.0781 22.8594,260.3125 L22.8594,262.3906 Q22.375,261.9531 21.9219,261.75 Q21.4688,261.5313 20.9844,261.5313 Q19.9688,261.5313 19.4375,262.3594 Q18.9063,263.1719 18.9063,264.7656 Q18.9063,266.375 19.4375,267.1875 Q19.9688,268 20.9844,268 Q21.4688,268 21.9219,267.7969 Q22.375,267.5938 22.8594,267.1406 L22.8594,269.2344 Z " fill="#FFFFFF"/><text fill="#FFFFFF" font-family="'Roboto'" font-size="13" lengthAdjust="spacing" textLength="0" x="36" y="260">TechnicalTerm</text></g><!--class Concept--><g class="entity" data-qualified-name="Concept" data-source-line="65" id="ent0005"><a href="/concept/concept/#ontology" target="_top" title="/concept/concept/#ontology" xlink:actuate="onRequest" xlink:href="/concept/concept/#ontology" xlink:show="new" xlink:title="/concept/concept/#ontology" xlink:type="simple"><polygon fill="#4051B5" points="48,93,48,93.0701,53.6,92.8619,59.2,93.0644,64.8,93.1332,70.4,92.7622,76,93,75.9901,92.9761,76.3699,93.0444,76.7996,93.2334,77.2641,93.5062,77.6089,93.49,78.1213,93.8787,78.2918,93.9493,78.103,94.2225,78.4119,94.702,78.7816,95.2066,78.7978,95.5648,79,96,79.0227,96,78.9894,100.8,79.0595,105.6,79.0797,110.4,79.1952,115.2,79,120,79.2067,120.0856,79.0334,120.5109,78.7269,120.881,78.6156,121.3319,78.5133,121.7866,78.1213,122.1213,78.0293,121.8992,77.7836,122.506,77.235,122.3815,76.9166,122.8129,76.3611,122.6718,76,123,76,122.9772,70.4,123.2472,64.8,122.9838,59.2,123.0351,53.6,123.1129,48,123,48.0531,123.1282,47.5752,122.8231,47.1881,122.737,46.6542,122.2965,46.3392,122.3846,45.8787,122.1213,46.0475,122.1912,45.8398,121.7538,45.716,121.351,45.2027,120.7869,44.9749,120.3411,45,120,44.7929,120,44.9804,115.2,44.9345,110.4,45.2271,105.6,44.9418,100.8,45,96,44.8944,95.9562,45.246,95.6049,45.1461,95.0664,45.3673,94.661,45.9028,94.3857,45.8787,93.8787,45.9343,94.0128,46.3966,93.9291,46.6862,93.4281,47.1922,93.4498,47.6511,93.3576,48,93" style="stroke:#FF6F00;stroke-width:2;"/><polygon fill="#ADD1B2" points="69.0552,110.4324,67.5894,112.4353,65.8556,115.3688,63.376,117.3458,60.7703,118.4269,58.6927,118.5207,56.0224,117.1687,53.5029,116.2854,51.5905,114.492,50.5873,112.4389,49.9924,110.8041,49.4096,108.6688,48.4636,106.8313,49.1906,105.0373,49.8275,103.072,52.2175,101.5177,53.8991,99.501,55.9804,98.8313,58.4547,98.2546,61.6276,98.5972,63.3655,99.4168,65.3861,99.7884,67.8429,102.3054,68.6993,104.9627,69.0714,106.7758,68.65,109.7635" style="stroke:#181818;stroke-width:1;"/><path d="M60.8594,112.2344 Q60.4219,112.4531 59.9219,112.5625 Q59.4375,112.6875 58.9063,112.6875 Q56.9844,112.6875 55.9688,111.4219 Q54.9688,110.1563 54.9688,107.7656 Q54.9688,105.375 55.9688,104.1094 Q56.9844,102.8438 58.9063,102.8438 Q59.4375,102.8438 59.9375,102.9688 Q60.4375,103.0781 60.8594,103.3125 L60.8594,105.3906 Q60.375,104.9531 59.9219,104.75 Q59.4688,104.5313 58.9844,104.5313 Q57.9688,104.5313 57.4375,105.3594 Q56.9063,106.1719 56.9063,107.7656 Q56.9063,109.375 57.4375,110.1875 Q57.9688,111 58.9844,111 Q59.4688,111 59.9219,110.7969 Q60.375,110.5938 60.8594,110.1406 L60.8594,112.2344 Z " fill="#FFFFFF"/><text fill="#FFFFFF" font-family="'Roboto'" font-size="13" lengthAdjust="spacing" textLength="0" x="74" y="103">Concept</text></a></g><!--class ConceptVocabulary--><g class="entity" data-qualified-name="ConceptVocabulary" data-source-line="66" id="ent0006"><polygon fill="#4051B5" points="80,7,80,7.0701,85.6,6.8619,91.2,7.0644,96.8,7.1332,102.4,6.7622,108,7,107.9901,6.9761,108.3699,7.0444,108.7996,7.2334,109.2641,7.5062,109.6089,7.49,110.1213,7.8787,110.2918,7.9493,110.103,8.2225,110.4119,8.702,110.7816,9.2066,110.7978,9.5648,111,10,111.0227,10,110.9894,14.8,111.0595,19.6,111.0797,24.4,111.1952,29.2,111,34,111.2067,34.0856,111.0334,34.5109,110.7269,34.881,110.6156,35.3319,110.5133,35.7866,110.1213,36.1213,110.0293,35.8992,109.7836,36.506,109.235,36.3815,108.9166,36.8129,108.3611,36.6718,108,37,108,36.9772,102.4,37.2472,96.8,36.9838,91.2,37.0351,85.6,37.1129,80,37,80.0531,37.1282,79.5752,36.8231,79.1881,36.737,78.6542,36.2965,78.3392,36.3846,77.8787,36.1213,78.0475,36.1912,77.8398,35.7538,77.716,35.351,77.2027,34.7869,76.9749,34.3411,77,34,76.7929,34,76.9804,29.2,76.9345,24.4,77.2271,19.6,76.9418,14.8,77,10,76.8944,9.9562,77.246,9.6049,77.1461,9.0664,77.3673,8.661,77.9028,8.3857,77.8787,7.8787,77.9343,8.0128,78.3966,7.9291,78.6862,7.4281,79.1922,7.4498,79.6511,7.3576,80,7" style="stroke:#FF6F00;stroke-width:2;"/><polygon fill="#ADD1B2" points="101.0552,24.4324,99.5894,26.4353,97.8556,29.3688,95.376,31.3458,92.7703,32.4269,90.6927,32.5207,88.0224,31.1687,85.5029,30.2854,83.5905,28.492,82.5873,26.4389,81.9924,24.8041,81.4096,22.6688,80.4636,20.8313,81.1906,19.0373,81.8275,17.072,84.2175,15.5177,85.8991,13.501,87.9804,12.8313,90.4547,12.2546,93.6276,12.5972,95.3655,13.4168,97.3861,13.7884,99.8429,16.3054,100.6993,18.9627,101.0714,20.7758,100.65,23.7635" style="stroke:#181818;stroke-width:1;"/><path d="M92.8594,26.2344 Q92.4219,26.4531 91.9219,26.5625 Q91.4375,26.6875 90.9063,26.6875 Q88.9844,26.6875 87.9688,25.4219 Q86.9688,24.1563 86.9688,21.7656 Q86.9688,19.375 87.9688,18.1094 Q88.9844,16.8438 90.9063,16.8438 Q91.4375,16.8438 91.9375,16.9688 Q92.4375,17.0781 92.8594,17.3125 L92.8594,19.3906 Q92.375,18.9531 91.9219,18.75 Q91.4688,18.5313 90.9844,18.5313 Q89.9688,18.5313 89.4375,19.3594 Q88.9063,20.1719 88.9063,21.7656 Q88.9063,23.375 89.4375,24.1875 Q89.9688,25 90.9844,25 Q91.4688,25 91.9219,24.7969 Q92.375,24.5938 92.8594,24.1406 L92.8594,26.2344 Z " fill="#FFFFFF"/><text fill="#FFFFFF" font-family="'Roboto'" font-size="13" lengthAdjust="spacing" textLength="0" x="106" y="17">ConceptVocabulary</text></g><!--class UseCase--><g class="entity" data-qualified-name="UseCase" data-source-line="67" id="ent0007"><a href="/concept/use-case/#ontology" target="_top" title="/concept/use-case/#ontology" xlink:actuate="onRequest" xlink:href="/concept/use-case/#ontology" xlink:show="new" xlink:title="/concept/use-case/#ontology" xlink:type="simple"><polygon fill="#4051B5" points="112,93,112,93.0701,117.6,92.8619,123.2,93.0644,128.8,93.1332,134.4,92.7622,140,93,139.9901,92.9761,140.3699,93.0444,140.7996,93.2334,141.2641,93.5062,141.6089,93.49,142.1213,93.8787,142.2918,93.9493,142.103,94.2225,142.4119,94.702,142.7816,95.2066,142.7978,95.5648,143,96,143.0227,96,142.9894,100.8,143.0595,105.6,143.0797,110.4,143.1952,115.2,143,120,143.2067,120.0856,143.0334,120.5109,142.7269,120.881,142.6156,121.3319,142.5133,121.7866,142.1213,122.1213,142.0293,121.8992,141.7836,122.506,141.235,122.3815,140.9166,122.8129,140.3611,122.6718,140,123,140,122.9772,134.4,123.2472,128.8,122.9838,123.2,123.0351,117.6,123.1129,112,123,112.0531,123.1282,111.5752,122.8231,111.1881,122.737,110.6542,122.2965,110.3392,122.3846,109.8787,122.1213,110.0475,122.1912,109.8398,121.7538,109.716,121.351,109.2027,120.7869,108.9749,120.3411,109,120,108.7929,120,108.9804,115.2,108.9345,110.4,109.2271,105.6,108.9418,100.8,109,96,108.8944,95.9562,109.246,95.6049,109.1461,95.0664,109.3673,94.661,109.9028,94.3857,109.8787,93.8787,109.9343,94.0128,110.3966,93.9291,110.6862,93.4281,111.1922,93.4498,111.6511,93.3576,112,93" style="stroke:#FF6F00;stroke-width:2;"/><polygon fill="#ADD1B2" points="133.0552,110.4324,131.5894,112.4353,129.8556,115.3688,127.376,117.3458,124.7703,118.4269,122.6927,118.5207,120.0224,117.1687,117.5029,116.2854,115.5905,114.492,114.5873,112.4389,113.9924,110.8041,113.4096,108.6688,112.4636,106.8313,113.1906,105.0373,113.8275,103.072,116.2175,101.5177,117.8991,99.501,119.9804,98.8313,122.4547,98.2546,125.6276,98.5972,127.3655,99.4168,129.3861,99.7884,131.8429,102.3054,132.6993,104.9627,133.0714,106.7758,132.65,109.7635" style="stroke:#181818;stroke-width:1;"/><path d="M124.8594,112.2344 Q124.4219,112.4531 123.9219,112.5625 Q123.4375,112.6875 122.9063,112.6875 Q120.9844,112.6875 119.9688,111.4219 Q118.9688,110.1563 118.9688,107.7656 Q118.9688,105.375 119.9688,104.1094 Q120.9844,102.8438 122.9063,102.8438 Q123.4375,102.8438 123.9375,102.9688 Q124.4375,103.0781 124.8594,103.3125 L124.8594,105.3906 Q124.375,104.9531 123.9219,104.75 Q123.4688,104.5313 122.9844,104.5313 Q121.9688,104.5313 121.4375,105.3594 Q120.9063,106.1719 120.9063,107.7656 Q120.9063,109.375 121.4375,110.1875 Q121.9688,111 122.9844,111 Q123.4688,111 123.9219,110.7969 Q124.375,110.5938 124.8594,110.1406 L124.8594,112.2344 Z " fill="#FFFFFF"/><text fill="#FFFFFF" font-family="'Roboto'" font-size="13" lengthAdjust="spacing" textLength="0" x="138" y="103">UseCase</text></a></g><!--reverse link Term to BusinessTerm--><g class="link" data-entity-1="ent0002" data-entity-2="ent0003" data-link-type="extension" data-source-line="70" id="lnk8"><path d="M51.3236,221.9315 L51.3892,221.9981 L56.8316,227.3581 L62.6585,233.1081 L68.3601,238.7311 L73.6501,243.9365 L79.51,249.72" fill="none" style="stroke:#FF6F00;stroke-width:2;"/><polygon fill="none" points="38.5,209.3,38.5624,209.3318,40.0996,212.6185,42.0026,216.0917,43.7865,219.5041,45.1786,222.7169,47.1131,226.2061,47.0946,226.1879,48.696,224.3965,50.3904,222.6967,52.1495,221.0607,53.6857,219.2051,55.5341,217.657,55.6154,217.8227,52.0347,215.797,48.6914,214.255,45.3771,212.7721,41.8942,210.9457,38.5,209.3" style="stroke:#FF6F00;stroke-width:2;"/></g><!--reverse link Term to TechnicalTerm--><g class="link" data-entity-1="ent0002" data-entity-2="ent0004" data-link-type="extension" data-source-line="71" id="lnk9"><path d="M24,227.3 L24.0934,227.3 L23.8159,231.784 L24.0859,236.268 L24.1776,240.752 L23.6829,245.236 L24,249.72" fill="none" style="stroke:#FF6F00;stroke-width:2;"/><polygon fill="none" points="24,209.3,24.0665,209.3222,22.669,212.8563,21.6611,216.5204,20.5264,220.1421,18.9744,223.6248,18,227.3,18,227.2741,20.4,227.1578,22.8,227.1722,25.2,227.2773,27.6,227.0695,30,227.3,30.1751,227.3584,28.6007,223.6336,27.5375,220.0792,26.5366,216.5455,25.1729,212.891,24,209.3" style="stroke:#FF6F00;stroke-width:2;"/></g><!--reverse link Concept to Term--><g class="link" data-entity-1="ent0005" data-entity-2="ent0002" data-link-type="composition" data-source-line="74" id="lnk10"><path d="M50.6094,134.1858 L50.8648,134.3013 L46.0802,142.8569 L42.7925,152.0897 L39.0173,161.102 L33.6393,169.3891 L30.48,178.68" fill="none" style="stroke:#FF6F00;stroke-width:2;"/><polygon fill="#FF6F00" points="55.55,123.25,55.5871,123.3094,54.2537,123.8971,53.1379,124.8331,51.9513,125.6556,50.5316,126.1052,49.4345,127.071,49.4089,127.0668,49.5292,128.4708,49.7783,129.8961,50.117,131.3362,50.1471,132.7253,50.6094,134.1858,50.7072,134.3423,51.7212,133.2434,53.0207,132.6014,54.3551,132.0153,55.4867,131.1047,56.725,130.3647,56.7474,130.3684,56.4795,128.9401,56.3137,127.5285,56.0986,126.1089,55.9776,124.7048,55.55,123.25" style="stroke:#FF6F00;stroke-width:2;"/><text fill="#333333" font-family="'Roboto'" font-size="13" lengthAdjust="spacing" textLength="0" x="50" y="146">:term</text><text fill="#333333" font-family="'Roboto'" font-size="13" lengthAdjust="spacing" textLength="0" x="50.6453" y="132.8984">1</text><text fill="#333333" font-family="'Roboto'" font-size="13" lengthAdjust="spacing" textLength="0" x="30.02" y="159.0075">1..*</text></g><!--link Concept to BusinessTerm--><g class="link" data-entity-1="ent0005" data-entity-2="ent0003" data-link-type="dependency" data-source-line="75" id="lnk11"><path d="M64.95,123.3 L65.2245,123.3567 L66.4829,133.2345 L69.3502,143.4444 L71.6936,153.5462 L72.3141,163.2923 L75.2181,173.5098 L76.8366,183.462 L78.9666,193.5197 L81.4523,203.6509 L82.7124,213.5291 L86.4121,223.9108 L86.94,233.6378 L89.8369,243.8539" fill="none" style="stroke:#FF6F00;stroke-width:2;"/><polygon fill="#FF6F00" points="91.05,249.73,91.1185,249.7449,91.3346,247.776,91.9521,245.8946,92.4388,243.9847,92.4959,241.9811,93.1478,240.1072,93.1262,240.0929,92.4073,240.9742,91.7975,241.9273,91.2636,242.9303,90.4683,243.7614,90.0391,244.8333,90.1405,244.9874,88.9784,244.036,88.1124,243.5347,87.2826,243.0883,86.2425,242.3224,85.313,241.7246,85.3315,241.7378,86.4517,243.3195,87.6562,244.9614,88.82,246.5743,90.0613,248.2426,91.05,249.73" style="stroke:#FF6F00;stroke-width:2;"/><text fill="#333333" font-family="'Roboto'" font-size="13" lengthAdjust="spacing" textLength="0" x="85" y="189">:labelTerm</text><text fill="#333333" font-family="'Roboto'" font-size="13" lengthAdjust="spacing" textLength="0" x="63.2766" y="132.9656">0..1</text><text fill="#333333" font-family="'Roboto'" font-size="13" lengthAdjust="spacing" textLength="0" x="87.3484" y="230.0747">1</text></g><!--reverse link ConceptVocabulary to Concept--><g class="link" data-entity-1="ent0006" data-entity-2="ent0005" data-link-type="aggregation" data-source-line="78" id="lnk12"><path d="M84.3017,48.4652 L84.5635,48.565 L80.4151,57.1114 L77.8018,66.2429 L74.6886,75.1839 L69.9315,83.4983 L67.45,92.68" fill="none" style="stroke:#FF6F00;stroke-width:2;"/><polygon fill="none" points="88.57,37.25,88.6107,37.3071,87.3153,37.9745,86.2584,38.9764,85.1238,39.8694,83.7339,40.4042,82.6974,41.4348,82.6722,41.4291,82.8797,42.8093,83.2145,44.2186,83.6378,45.648,83.7561,47.0079,84.3017,48.4652,84.4088,48.6155,85.3543,47.4572,86.6125,46.7376,87.9088,46.0716,88.9831,45.0941,90.1743,44.2804,90.1964,44.2855,89.843,42.8719,89.5906,41.4815,89.2894,40.0799,89.0812,38.6995,88.57,37.25" style="stroke:#FF6F00;stroke-width:2;"/><text fill="#333333" font-family="'Roboto'" font-size="13" lengthAdjust="spacing" textLength="0" x="83" y="60">skos:inScheme</text><text fill="#333333" font-family="'Roboto'" font-size="13" lengthAdjust="spacing" textLength="0" x="84.0159" y="46.8984">1</text><text fill="#333333" font-family="'Roboto'" font-size="13" lengthAdjust="spacing" textLength="0" x="66.6359" y="73.0075">0..*</text></g><!--link ConceptVocabulary to UseCase--><g class="link" data-entity-1="ent0006" data-entity-2="ent0007" data-link-type="dependency" data-source-line="79" id="lnk13"><path d="M99.43,37.25 L99.6919,37.3497 L102.7088,47.0179 L107.2609,57.2708 L111.3131,67.3333 L113.7212,76.7696 L118.4051,87.0727" fill="none" style="stroke:#FF6F00;stroke-width:2;"/><polygon fill="#FF6F00" points="120.54,92.68,120.61,92.6838,120.5093,90.7056,120.8187,88.7498,120.9945,86.7867,120.7312,84.7996,121.0758,82.8457,121.0522,82.8351,120.4831,83.8199,120.0332,84.858,119.6661,85.9333,119.0136,86.8806,118.7609,88.0072,118.8364,88.1756,117.6426,87.3525,116.6693,87.0211,115.7229,86.7496,114.62,86.1292,113.5994,85.6923,113.6155,85.7083,114.98,87.0823,116.4179,88.5293,117.8203,89.9411,119.2904,91.42,120.54,92.68" style="stroke:#FF6F00;stroke-width:2;"/><text fill="#333333" font-family="'Roboto'" font-size="13" lengthAdjust="spacing" textLength="0" x="115" y="60">:useCase</text><text fill="#333333" font-family="'Roboto'" font-size="13" lengthAdjust="spacing" textLength="0" x="98.6091" y="46.8984">0..*</text><text fill="#333333" font-family="'Roboto'" font-size="13" lengthAdjust="spacing" textLength="0" x="115.9756" y="73.0075">1</text></g><!--SRC=[hLHTRzCm57tthxXB7u19xLhsyL0Xf3Jx007jb6uWD4sJazosLXCxifsLRl3ViVFHEhG8WV1BtUDpppttsCg1o3KJ71QK9ol9j4OEMXP83XASCOumkdhuvByVFmIJZvCGojKvwPyEebENChq89kDpF_nQy_PGhltWWtzriH7QeKp2yulGxGETsUnirkzlA9UJyKsBK5Bisb3yC9nyQNCQ5QAMZETKqWmY6Y_dKXGy2KGgf9cOScMEa6j2Na0Wifp66bAw5eK6XLepFbUEm3LD4WF1QmSBApt9KSAPWqyND14hovxHLA5pycwTeqmPNzxofDnWbVqUHkMp6MLBCCQN2dCuSK4k4hJWSHlKU2cuhfNwvN93ESSPBL8DpyJInZH3y48H2IqyiYtSta49JjaJmk2O_72LV2d5okXK5SwLE3gTut9L8dgTeZ4eCvgIcmMBbnoLCk6sLEEK6l2PZ7wvlDOB9ICXJPRrYVEawWDNVUzGljQIHOMRbNjg9ziTguH_QzoyfIMTOntiZkO_pjDgeJJL-CTi_j_0Vv6oyQb53bg0UKfQP90mYR7zw905In0op2AKYf3gVhqRb9a7L87TmDtTKInuZBa-qkR_KSUOD5tdw_lxfc1KA6PxRGfTOAiQBpYBQUh8EqX32wfU9Q7UknQQtpqkQlPd4TEeIAbSknfRjA7VAWoemf9Kxzr6XS9kRB1M9_DbAZDHESQCfko9sXGLAS4ttxlTzkHRk3sgaPcip4TABLXEcY6zWGU7XkeDUhr3h-epXA7DVClfztg6rks-BUbkCyjDQOIR3gP6upSDBws2WfGz8Z2kx8K_Dc4mL606JI1Qsr-m0wjNP2UpifkmvlgbkSRF4DHIg27ZqtY16Uuhh0eQnqtGncnHRNy2]--></g></svg>