<svg xmlns="http://www.w3.org/2000/svg" xmlns:xlink="http://www.w3.org/1999/xlink" contentStyleType="text/css" data-diagram-type="STATE" height="314px" preserveAspectRatio="none" style="width:909px;height:314px;" version="1.1" viewBox="0 0 909 314" width="909px" zoomAndPan="magnify"><defs/><g><path d="M10,7 L10,7.5605 L19.9888,5.8951 L29.9775,7.5154 L39.9663,8.0658 L49.9551,5.0976 L59.9438,6.7928 L69.9326,5.8627 L79.9213,5.9773 L89.9101,6.8182 L99.8989,5.1563 L109.8876,8.4764 L119.8764,5.3193 L129.8652,6.4726 L139.8539,8.1519 L149.8427,6.7713 L159.8315,7.182 L169.8202,6.9148 L179.809,7.4761 L189.7978,7.6377 L199.7865,8.5618 L209.7753,8.7895 L219.764,8.8114 L229.7528,7.679 L239.7416,8.2362 L249.7303,8.8726 L259.7191,5.0768 L269.7079,8.8094 L279.6966,6.2093 L289.6854,8.4235 L299.6742,5.6799 L309.6629,6.8173 L319.6517,8.9776 L329.6404,6.87 L339.6292,7.2808 L349.618,7.903 L359.6067,8.11 L369.5955,6.9896 L379.5843,7.7659 L389.573,5.4736 L399.5618,7.7584 L409.5506,8.4619 L419.5393,8.1854 L429.5281,8.6347 L439.5169,5.7118 L449.5056,5.2608 L459.4944,5.3429 L469.4831,6.843 L479.4719,6.4759 L489.4607,8.8171 L499.4494,6.5342 L509.4382,6.0852 L519.427,7.6087 L529.4157,5.2218 L539.4045,5.6157 L549.3933,8.7305 L559.382,8.1618 L569.3708,8.9586 L579.3596,6.1419 L589.3483,7.8512 L599.3371,8.5745 L609.3258,5.7403 L619.3146,6.7444 L629.3034,7.336 L639.2921,8.738 L649.2809,6.9888 L659.2697,8.2335 L669.2584,5.5232 L679.2472,5.194 L689.236,8.343 L699.2247,5.0882 L709.2135,8.3572 L719.2022,7.551 L729.191,6.2856 L739.1798,6.0566 L749.1685,8.2234 L759.1573,6.2018 L769.1461,8.5783 L779.1348,5.526 L789.1236,8.6465 L799.1124,8.2915 L809.1011,7.6532 L819.0899,7.1259 L829.0787,8.9376 L839.0674,8.6362 L849.0562,7.4513 L859.0449,7.7152 L869.0337,6.6526 L879.0225,8.9105 L889.0112,7.413 L899,7 L902,10 L902.1534,10 L901.4592,15.2266 L901.6398,20.4531 L902.4718,25.6797 L902.382,30.9063 L902,36.1328 L902,36.0183 L892.0556,35.2737 L882.1111,35.549 L872.1667,34.303 L862.2222,37.2388 L852.2778,38.105 L842.3333,37.5365 L832.3889,37.986 L822.4444,35.7682 L812.5,36.3654 L802.5556,35.0992 L792.6111,36.8903 L782.6667,36.7909 L772.7222,37.6058 L762.7778,35.5204 L752.8333,35.7744 L742.8889,37.3154 L732.9444,37.6457 L723,34.7661 L713.0556,35.6158 L703.1111,36.5308 L693.1667,34.5039 L683.2222,37.0752 L673.2778,36.8208 L663.3333,35.8641 L653.3889,36.5121 L643.4444,38.0759 L633.5,35.2985 L623.5556,36.9728 L613.6111,36.8945 L603.6667,36.4415 L593.7222,36.5086 L583.7778,36.4354 L573.8333,34.4684 L563.8889,35.064 L553.9444,34.9021 L544,36.303 L534.0556,36.3678 L524.1111,36.5641 L514.1667,35.3569 L504.2222,35.9528 L494.2778,35.8122 L484.3333,37.6711 L474.3889,37.2703 L464.4444,34.8381 L454.5,35.9383 L444.5556,34.5935 L434.6111,36.9018 L424.6667,37.7554 L414.7222,37.585 L404.7778,34.9713 L394.8333,37.3701 L384.8889,34.152 L374.9444,36.6666 L365,35.3346 L355.0556,36.3907 L345.1111,36.7737 L335.1667,37.3918 L325.2222,34.213 L315.2778,37.4007 L305.3333,36.6079 L295.3889,37.0804 L285.4444,38.1269 L275.5,36.1474 L265.5556,36.6002 L255.6111,36.702 L245.6667,36.6588 L235.7222,36.1306 L225.7778,38.028 L215.8333,34.5068 L205.8889,37.6402 L195.9444,34.4688 L186,34.692 L176.0556,36.2395 L166.1111,36.2082 L156.1667,34.8186 L146.2222,37.2361 L136.2778,36.4231 L126.3333,38.0706 L116.3889,37.9118 L106.4444,34.9375 L96.5,35.0717 L86.5556,35.7883 L76.6111,37.0809 L66.6667,37.2074 L56.7222,36.9359 L46.7778,35.2209 L36.8333,37.8298 L26.8889,37.8229 L16.9444,36.0067 L7,36.1328 L6.7875,36.1328 L6.6432,30.9063 L6.8093,25.6797 L7.1221,20.4531 L6.9392,15.2266 L7,10 L10,7" fill="#4051B5"/><polygon fill="none" points="10,7,10,7.2102,19.9888,6.5857,29.9775,7.1933,39.9663,7.3997,49.9551,6.2866,59.9438,6.9223,69.9326,6.5735,79.9213,6.6165,89.9101,6.9318,99.8989,6.3086,109.8876,7.5536,119.8764,6.3697,129.8652,6.8022,139.8539,7.4319,149.8427,6.9142,159.8315,7.0682,169.8202,6.9681,179.809,7.1785,189.7978,7.2391,199.7865,7.5857,209.7753,7.6711,219.764,7.6793,229.7528,7.2546,239.7416,7.4636,249.7303,7.7022,259.7191,6.2788,269.7079,7.6785,279.6966,6.7035,289.6854,7.5338,299.6742,6.505,309.6629,6.9315,319.6517,7.7416,329.6404,6.9513,339.6292,7.1053,349.618,7.3386,359.6067,7.4162,369.5955,6.9961,379.5843,7.2872,389.573,6.4276,399.5618,7.2844,409.5506,7.5482,419.5393,7.4445,429.5281,7.613,439.5169,6.5169,449.5056,6.3478,459.4944,6.3786,469.4831,6.9411,479.4719,6.8035,489.4607,7.6814,499.4494,6.8253,509.4382,6.6569,519.427,7.2283,529.4157,6.3332,539.4045,6.4809,549.3933,7.649,559.382,7.4357,569.3708,7.7345,579.3596,6.6782,589.3483,7.3192,599.3371,7.5904,609.3258,6.5276,619.3146,6.9041,629.3034,7.126,639.2921,7.6518,649.2809,6.9958,659.2697,7.4626,669.2584,6.4462,679.2472,6.3227,689.236,7.5036,699.2247,6.2831,709.2135,7.509,719.2022,7.2066,729.191,6.7321,739.1798,6.6462,749.1685,7.4588,759.1573,6.7007,769.1461,7.5919,779.1348,6.4473,789.1236,7.6174,799.1124,7.4843,809.1011,7.245,819.0899,7.0472,829.0787,7.7266,839.0674,7.6136,849.0562,7.1693,859.0449,7.2682,869.0337,6.8697,879.0225,7.7165,889.0112,7.1549,899,7,899.022,7.0531,899.3467,6.9884,899.7968,7.2267,900.3405,7.6907,900.7519,7.8353,901.1213,7.8787,901.1081,7.8732,901.1978,8.2618,901.4054,8.6993,901.4372,9.0639,901.952,9.6286,902,10,902.7396,10,902.5264,19.8396,902.6949,29.6792,901.8633,39.5188,902.0872,49.3585,901.6124,59.1981,902.284,69.0377,902.2468,78.8773,902.5524,88.7169,901.7703,98.5565,901.8656,108.3961,902.4435,118.2358,902.5673,128.0754,901.4875,137.915,901.8061,147.7546,902.1493,157.5942,901.3892,167.4338,902.3534,177.2734,902.258,187.1131,901.8992,196.9527,902.1422,206.7923,902.7287,216.6319,901.6871,226.4715,902.315,236.3111,902.2856,246.1508,902.1158,255.9904,902.1409,265.83,902.1135,275.6696,901.3758,285.5092,901.5992,295.3488,902,305.1884,901.8579,305.1296,901.8439,305.6208,901.6757,306.0482,901.5226,306.4819,901.2074,306.8484,901.1213,307.3098,901.1127,307.289,900.6817,307.4485,900.3464,307.8389,899.9029,307.9683,899.3623,307.8632,899,308.1884,899,308.1155,889.0112,307.6112,879.0225,308.4768,869.0337,308.7969,859.0449,308.733,849.0562,307.7529,839.0674,308.6524,829.0787,307.4456,819.0899,308.3886,809.1011,307.8891,799.1124,308.2852,789.1236,308.4288,779.1348,308.6605,769.1461,307.4685,759.1573,308.6639,749.1685,308.3666,739.1798,308.5438,729.191,308.9362,719.2022,308.1939,709.2135,308.3637,699.2247,308.4019,689.236,308.3857,679.2472,308.1876,669.2584,308.8991,659.2697,307.5787,649.2809,308.7537,639.2921,307.5644,629.3034,307.6481,619.3146,308.2284,609.3258,308.2167,599.3371,307.6956,589.3483,308.6022,579.3596,308.2973,569.3708,308.9151,559.382,308.8555,549.3933,307.7402,539.4045,307.7905,529.4157,308.0593,519.427,308.544,509.4382,308.5914,499.4494,308.4896,489.4607,307.8465,479.4719,308.8248,469.4831,308.8222,459.4944,308.1412,449.5056,307.9494,439.5169,307.7871,429.5281,307.9739,419.5393,308.3259,409.5506,308.12,399.5618,307.7706,389.573,308.6758,379.5843,307.7295,369.5955,308.6908,359.6067,308.6157,349.618,308.5603,339.6292,308.8809,329.6404,307.9426,319.6517,307.8878,309.6629,308.7073,299.6742,307.5915,289.6854,307.9544,279.6966,308.3039,269.7079,308.2571,259.7191,307.83,249.7303,308.1455,239.7416,308.933,229.7528,308.8369,219.764,307.5922,209.7753,308.267,199.7865,307.6745,189.7978,308.1621,179.809,308.4814,169.8202,308.6083,159.8315,307.5237,149.8427,308.589,139.8539,308.1968,129.8652,307.6331,119.8764,307.7174,109.8876,308.515,99.8989,308.4383,89.9101,308.172,79.9213,307.5163,69.9326,308.8466,59.9438,307.8766,49.9551,307.6604,39.9663,308.1211,29.9775,308.7781,19.9888,308.8039,10,308.1884,10.0045,308.1993,9.5565,307.9661,9.1731,307.8893,8.751,307.7186,8.2382,307.3291,7.8787,307.3098,8.0062,307.3626,7.875,306.9568,7.4608,306.4337,7.2193,305.9822,7.3835,305.6988,7,305.1884,7.021,305.1884,6.9998,295.3488,7.299,285.5092,6.3543,275.6696,7.53,265.83,6.9846,255.9904,7.6688,246.1508,6.7841,236.3111,7.409,226.4715,6.556,216.6319,7.245,206.7923,7.3793,196.9527,6.6727,187.1131,7.363,177.2734,6.4286,167.4338,6.5295,157.5942,7.6828,147.7546,7.6844,137.915,7.5685,128.0754,6.6396,118.2358,7.3842,108.3961,6.5279,98.5565,7.0582,88.7169,6.9987,78.8773,6.7376,69.0377,7.6159,59.1981,7.4433,49.3585,6.6792,39.5188,7.5266,29.6792,7.0919,19.8396,7,10,6.8203,9.9256,7.1039,9.546,7.1897,9.0845,7.4844,8.7095,7.5092,8.2227,7.8787,7.8787,7.8021,7.6939,8.3119,7.7246,8.7119,7.4901,9.144,7.3334,9.5575,7.1316,10,7" style="stroke:#FF6F00;stroke-width:2;"/><path d="M7,36.1328 L7,36.4131 L16.9444,35.5804 L26.8889,36.3905 L36.8333,36.6657 L46.7778,35.1816 L56.7222,36.0292 L66.6667,35.5642 L76.6111,35.6215 L86.5556,36.0419 L96.5,35.211 L106.4444,36.871 L116.3889,35.2924 L126.3333,35.8691 L136.2778,36.7087 L146.2222,36.0184 L156.1667,36.2238 L166.1111,36.0902 L176.0556,36.3708 L186,36.4517 L195.9444,36.9137 L205.8889,37.0276 L215.8333,37.0385 L225.7778,36.4723 L235.7222,36.7509 L245.6667,37.0691 L255.6111,35.1712 L265.5556,37.0375 L275.5,35.7375 L285.4444,36.8446 L295.3889,35.4728 L305.3333,36.0415 L315.2778,37.1216 L325.2222,36.0678 L335.1667,36.2732 L345.1111,36.5843 L355.0556,36.6878 L365,36.1276 L374.9444,36.5158 L384.8889,35.3696 L394.8333,36.512 L404.7778,36.8637 L414.7222,36.7255 L424.6667,36.9502 L434.6111,35.4887 L444.5556,35.2632 L454.5,35.3043 L464.4444,36.0543 L474.3889,35.8708 L484.3333,37.0414 L494.2778,35.8999 L504.2222,35.6754 L514.1667,36.4372 L524.1111,35.2437 L534.0556,35.4406 L544,36.9981 L553.9444,36.7137 L563.8889,37.1121 L573.8333,35.7038 L583.7778,36.5584 L593.7222,36.92 L603.6667,35.5029 L613.6111,36.005 L623.5556,36.3008 L633.5,37.0018 L643.4444,36.1272 L653.3889,36.7496 L663.3333,35.3944 L673.2778,35.2298 L683.2222,36.8043 L693.1667,35.1769 L703.1111,36.8114 L713.0556,36.4083 L723,35.7756 L732.9444,35.6611 L742.8889,36.7445 L752.8333,35.7337 L762.7778,36.922 L772.7222,35.3958 L782.6667,36.956 L792.6111,36.7786 L802.5556,36.4594 L812.5,36.1958 L822.4444,37.1016 L832.3889,36.9509 L842.3333,36.3585 L852.2778,36.4904 L862.2222,35.9591 L872.1667,37.0881 L882.1111,36.3393 L892.0556,36.3629 L902,36.1328" fill="#4051B5" style="stroke:#FF6F00;stroke-width:2;"/><text fill="#FFFFFF" font-family="'Roboto'" font-size="13" lengthAdjust="spacing" textLength="27.6567" x="440.6716" y="26.0669">Plan</text><g><polygon fill="#4051B5" points="58.71,70.8328,58.71,71.043,69.0159,70.4185,79.3218,71.0261,89.6278,71.2325,99.9337,70.1194,110.2396,70.7551,120.5455,70.4063,130.8515,70.4493,141.1574,70.7647,151.4633,70.1414,161.7692,71.3865,172.0752,70.2025,182.3811,70.635,192.687,71.2648,202.9929,70.747,213.2989,70.8328,213.3076,70.8538,213.7191,70.9987,214.1702,71.2393,214.6022,71.4337,215.0706,71.7161,215.4202,71.7115,215.6268,71.7971,215.8051,72.2224,215.8501,72.5925,216.0902,73.0434,216.3394,73.4981,216.2989,73.8328,215.5777,73.8328,216.9774,83.4612,216.0024,93.0895,216.8327,102.7179,215.8038,112.3462,216.2304,121.9746,217.0405,131.6029,216.2989,141.2313,216.2839,141.225,216.1556,141.6689,216.0517,142.123,215.8998,142.5571,215.5947,142.9278,215.4202,143.3526,215.4568,143.441,214.9229,143.352,214.6079,143.7916,214.2173,144.0486,213.7798,144.1924,213.2989,144.2313,213.2989,144.8443,202.9929,143.7482,192.687,143.5791,182.3811,143.6098,172.0752,144.1724,161.7692,144.0347,151.4633,144.9127,141.1574,144.0566,130.8515,143.8882,120.5455,144.4595,110.2396,143.5644,99.9337,143.7121,89.6278,144.8802,79.3218,144.6669,69.0159,144.9657,58.71,144.2313,58.669,144.1322,58.3265,144.1538,57.9368,144.0616,57.3769,143.5586,57.0007,143.4988,56.5887,143.3526,56.6275,143.3686,56.6137,143.0114,56.2359,142.5035,56.2039,142.1388,55.7152,141.5849,55.71,141.2313,55.0327,141.2313,56.2136,131.6029,54.9931,121.9746,56.219,112.3462,55.9166,102.7179,55.4421,93.0895,55.3562,83.4612,55.71,73.8328,55.8513,73.8913,55.7936,73.3704,56.2437,73.0598,56.067,72.4895,56.6031,72.2145,56.5887,71.7115,56.6505,71.8606,57.0442,71.6112,57.4432,71.3746,57.9542,71.4081,58.364,71.1975,58.71,70.8328" style="stroke:#FF6F00;stroke-width:2;"/><path d="M55.71,99.9656 L55.71,100.2459 L65.7468,99.4132 L75.7836,100.2233 L85.8204,100.4985 L95.8572,99.0144 L105.894,99.862 L115.9308,99.397 L125.9676,99.4543 L136.0044,99.8747 L146.0412,99.0438 L156.078,100.7038 L166.1148,99.1253 L176.1517,99.7019 L186.1885,100.5416 L196.2253,99.8513 L206.2621,100.0566 L216.2989,99.9656" fill="#4051B5" style="stroke:#FF6F00;stroke-width:2;"/><text fill="#FFFFFF" font-family="'Roboto'" font-size="13" lengthAdjust="spacing" textLength="54.3359" x="108.8365" y="89.8997">Envision</text><text fill="#FFFFFF" font-family="'Roboto'" font-size="13" lengthAdjust="spacing" textLength="123.8491" x="62.71" y="119.0325">- a shared strategy</text><text fill="#FFFFFF" font-family="'Roboto'" font-size="13" lengthAdjust="spacing" textLength="62.0293" x="62.71" y="134.1653">- see also</text><a href="/process/plan/envision/" target="_top" title="/process/plan/envision/" xlink:actuate="onRequest" xlink:href="/process/plan/envision/" xlink:show="new" xlink:title="/process/plan/envision/" xlink:type="simple"><text fill="#FF6F00" font-family="'Roboto'" font-size="13" lengthAdjust="spacing" text-decoration="underline" textLength="66.2949" x="128.8716" y="134.1653">"Envision"</text></a></g><g><polygon fill="#4051B5" points="237.68,48.1328,237.68,48.343,247.4829,47.7185,257.2858,48.3261,267.0887,48.5325,276.8916,47.4194,286.6945,48.0551,296.4974,47.7063,306.3003,47.7493,316.1033,48.0647,325.9062,47.4414,335.7091,48.6865,345.512,47.5025,355.3149,47.935,365.1178,48.5648,374.9207,48.047,384.7236,48.2011,394.5265,48.1009,404.3294,48.1328,404.3522,48.1878,404.7842,48.3822,405.2527,48.6647,405.6878,48.8667,406.1131,49.0449,406.4507,49.0115,406.5291,49.044,406.7692,49.4949,407.0185,49.9496,406.7558,50.1923,407.3626,50.7951,407.3294,51.1328,407.0329,51.1328,407.8632,61.3871,406.8344,71.6413,407.2609,81.8956,408.071,92.1499,407.2807,102.4041,407.4347,112.6584,407.668,122.9126,407.7456,133.1669,407.3255,143.4212,407.6166,153.6754,407.3294,163.9297,407.1531,163.8567,407.2413,164.3902,407.1468,164.8481,406.9391,165.2592,406.8153,165.7049,406.4507,166.051,406.3891,165.9022,405.9433,166.0259,405.5229,166.2111,405.1704,166.5601,404.7286,166.6934,404.3294,166.9297,404.3294,167.6111,394.5265,166.755,384.7236,166.5866,374.9207,167.158,365.1178,166.2628,355.3149,166.4106,345.512,167.5786,335.7091,167.3654,325.9062,167.6642,316.1033,166.6079,306.3003,167.2489,296.4974,167.5201,286.6945,166.4573,276.8916,166.8338,267.0887,167.0557,257.2858,167.5814,247.4829,166.9255,237.68,166.9297,237.739,167.0721,237.1851,166.5834,236.7451,166.3696,236.4714,166.5576,235.8915,166.006,235.5587,166.051,235.7154,166.1159,235.4466,165.6531,235.1247,165.1683,234.9225,164.7331,234.997,164.4125,234.68,163.9297,234.3807,163.9297,235.2719,153.6754,234.1273,143.4212,235.2974,133.1669,235.1643,122.9126,234.925,112.6584,234.7272,102.4041,235.4066,92.1499,235.2936,81.8956,234.8493,71.6413,234.9482,61.3871,234.68,51.1328,234.6399,51.1162,235.0764,50.7999,235.0792,50.304,235.2604,49.882,235.1956,49.3582,235.5587,49.0115,235.507,48.8867,236.0506,48.9992,236.462,48.7924,236.826,48.4711,237.2146,48.2093,237.68,48.1328" style="stroke:#FF6F00;stroke-width:2;"/><path d="M234.68,77.2656 L234.68,77.5459 L244.8358,76.7132 L254.9917,77.5233 L265.1475,77.7985 L275.3034,76.3144 L285.4592,77.162 L295.6151,76.697 L305.7709,76.7543 L315.9268,77.1747 L326.0826,76.3438 L336.2385,78.0038 L346.3943,76.4253 L356.5502,77.0019 L366.706,77.8416 L376.8619,77.1513 L387.0177,77.3566 L397.1736,77.223 L407.3294,77.2656" fill="#4051B5" style="stroke:#FF6F00;stroke-width:2;"/><text fill="#FFFFFF" font-family="'Roboto'" font-size="13" lengthAdjust="spacing" textLength="56.5322" x="292.7386" y="67.1997">Discover</text><text fill="#FFFFFF" font-family="'Roboto'" font-size="13" lengthAdjust="spacing" textLength="134.0435" x="241.68" y="96.3325">- strategic use cases</text><text fill="#FFFFFF" font-family="'Roboto'" font-size="13" lengthAdjust="spacing" textLength="136.3032" x="241.68" y="111.4653">- initial use case tree</text><text fill="#FFFFFF" font-family="'Roboto'" font-size="13" lengthAdjust="spacing" textLength="140.0801" x="241.68" y="126.5981">- business knowledge</text><text fill="#FFFFFF" font-family="'Roboto'" font-size="13" lengthAdjust="spacing" textLength="148.6494" x="241.68" y="141.731">- priorities &amp; outcomes</text><text fill="#FFFFFF" font-family="'Roboto'" font-size="13" lengthAdjust="spacing" textLength="62.0293" x="241.68" y="156.8638">- see also</text><a href="/process/plan/discover/" target="_top" title="/process/plan/discover/" xlink:actuate="onRequest" xlink:href="/process/plan/discover/" xlink:show="new" xlink:title="/process/plan/discover/" xlink:type="simple"><text fill="#FF6F00" font-family="'Roboto'" font-size="13" lengthAdjust="spacing" text-decoration="underline" textLength="68.4912" x="307.8416" y="156.8638">"Discover"</text></a></g><g><polygon fill="#4051B5" points="428.35,55.6928,428.35,55.903,438.3183,55.2785,448.2867,55.8861,458.255,56.0925,468.2233,54.9794,478.1916,55.6151,488.16,55.2663,498.1283,55.3093,508.0966,55.6247,518.065,55.0014,528.0333,56.2465,538.0016,55.0625,547.9699,55.495,557.9383,56.1248,567.9066,55.607,577.8749,55.7611,587.8433,55.6609,597.8116,55.8713,607.7799,55.9319,617.7482,56.2785,627.7166,56.3639,637.6849,56.3721,647.6532,55.6928,647.6857,55.7712,648.1366,56.0113,648.5913,56.2605,648.834,55.9979,649.4368,56.6047,649.7745,56.5715,649.6832,56.5337,650.1147,57.0638,649.9736,57.3569,650.2807,57.8355,650.7059,58.3631,650.6532,58.6928,650.6045,58.6928,650.7585,68.4592,650.9919,78.2256,651.0695,87.992,650.6493,97.7584,650.9404,107.5248,650.0808,117.2912,650.9376,127.0577,651.2014,136.8241,651.0978,146.5905,650.6532,156.3569,650.842,156.4351,650.3287,156.7195,650.1009,157.1222,649.9346,157.5504,649.9321,158.0464,649.7745,158.4782,649.7495,158.4177,649.4372,158.8638,648.9037,158.7759,648.458,158.8998,648.1066,159.2514,647.6532,159.3569,647.6532,158.69,637.6849,158.8377,627.7166,160.0058,617.7482,159.7925,607.7799,160.0914,597.8116,159.0351,587.8433,159.6761,577.8749,159.9473,567.9066,158.8845,557.9383,159.261,547.9699,159.4829,538.0016,160.0086,528.0333,159.3527,518.065,159.8194,508.0966,158.8031,498.1283,158.6796,488.16,159.8605,478.1916,158.6399,468.2233,159.8658,458.255,159.5635,448.2867,159.089,438.3183,159.0031,428.35,159.3569,428.4085,159.4982,427.8876,159.089,427.577,159.1877,427.0067,158.6594,426.7317,158.8441,426.2287,158.4782,426.3778,158.54,426.1284,158.0852,425.8917,157.6357,425.9252,157.2981,425.7147,156.8594,425.35,156.3569,425.5193,156.3569,425.6182,146.5905,425.2197,136.8241,426.0665,127.0577,425.5049,117.2913,425.5226,107.5248,424.7416,97.7584,424.9448,87.992,425.8807,78.2256,425.7798,68.4592,425.35,58.6928,425.3368,58.6873,425.4265,58.2275,425.6341,57.8164,425.6659,57.3325,426.1807,57.0487,426.2287,56.5715,426.323,56.7992,426.7201,56.5579,427.1659,56.434,427.484,56.0022,427.9369,55.8954,428.35,55.6928" style="stroke:#FF6F00;stroke-width:2;"/><path d="M425.35,84.8256 L425.35,85.1059 L435.1458,84.2732 L444.9416,85.0833 L454.7374,85.3585 L464.5332,83.8744 L474.329,84.722 L484.1248,84.257 L493.9205,84.3143 L503.7163,84.7347 L513.5121,83.9038 L523.3079,85.5638 L533.1037,83.9853 L542.8995,84.5619 L552.6953,85.4016 L562.4911,84.7113 L572.2869,84.9166 L582.0827,84.783 L591.8785,85.0637 L601.6743,85.1445 L611.4701,85.6065 L621.2658,85.7204 L631.0616,85.7313 L640.8574,85.1651 L650.6532,84.8256" fill="#4051B5" style="stroke:#FF6F00;stroke-width:2;"/><text fill="#FFFFFF" font-family="'Roboto'" font-size="13" lengthAdjust="spacing" textLength="43.9829" x="516.0102" y="74.7597">Assess</text><text fill="#FFFFFF" font-family="'Roboto'" font-size="13" lengthAdjust="spacing" textLength="93.2979" x="432.35" y="103.8925">- current state</text><text fill="#FFFFFF" font-family="'Roboto'" font-size="13" lengthAdjust="spacing" textLength="134.0879" x="432.35" y="119.0253">- required next state</text><text fill="#FFFFFF" font-family="'Roboto'" font-size="13" lengthAdjust="spacing" textLength="201.3032" x="432.35" y="134.1581">- maturity (buss/org/data/tech)</text><text fill="#FFFFFF" font-family="'Roboto'" font-size="13" lengthAdjust="spacing" textLength="62.0293" x="432.35" y="149.291">- see also</text><a href="/process/plan/assess/" target="_top" title="/process/plan/assess/" xlink:actuate="onRequest" xlink:href="/process/plan/assess/" xlink:show="new" xlink:title="/process/plan/assess/" xlink:type="simple"><text fill="#FF6F00" font-family="'Roboto'" font-size="13" lengthAdjust="spacing" text-decoration="underline" textLength="55.9419" x="498.5116" y="149.291">"Assess"</text></a></g><g><polygon fill="#4051B5" points="671.36,48.1328,671.36,48.343,681.3197,47.7185,691.2794,48.3261,701.2392,48.5325,711.1989,47.4194,721.1586,48.0551,731.1183,47.7063,741.078,47.7493,751.0377,48.0647,760.9975,47.4414,770.9572,48.6865,780.9169,47.5025,790.8766,47.935,800.8363,48.5648,810.796,48.047,820.7558,48.2011,830.7155,48.1009,840.6752,48.3113,850.6349,48.1328,850.6654,48.2065,851.1339,48.4889,851.569,48.6909,851.9943,48.8692,852.3644,48.9142,852.7562,49.0115,852.899,49.0706,853.1482,49.5253,852.8856,49.768,853.4924,50.3708,853.3679,50.6707,853.6349,51.1328,854.1687,51.1328,853.1399,61.3871,853.5664,71.6413,854.3765,81.8956,853.5862,92.1499,853.7402,102.4041,853.9735,112.6584,854.0511,122.9126,853.631,133.1669,853.9221,143.4212,853.0625,153.6754,853.6349,163.9297,853.7225,163.966,853.628,164.4239,853.4203,164.8349,853.2965,165.2807,852.7832,165.5651,852.7562,166.051,852.673,165.8502,852.2527,166.0354,851.9002,166.3843,851.4584,166.5177,851.1461,166.9638,850.6349,166.9297,850.6349,166.755,840.6752,166.5866,830.7155,167.158,820.7558,166.2628,810.796,166.4106,800.8363,167.5786,790.8766,167.3654,780.9169,167.6642,770.9572,166.6079,760.9975,167.2489,751.0377,167.5201,741.078,166.4573,731.1183,166.8338,721.1586,167.0557,711.1989,167.5814,701.2392,166.9255,691.2794,167.3923,681.3197,166.3759,671.36,166.9297,671.2736,166.7211,671,166.909,670.42,166.3574,670.1521,166.5592,669.6893,166.2904,669.2387,166.051,669.1562,166.0168,668.954,165.5816,669.0285,165.261,668.6193,164.74,668.718,164.4295,668.36,163.9297,667.8073,163.9297,668.9774,153.6754,668.8443,143.4212,668.605,133.1669,668.4072,122.9126,669.0866,112.6584,668.9736,102.4041,668.5293,92.1499,668.6282,81.8956,668.2297,71.6413,669.0765,61.3871,668.36,51.1328,668.4077,51.1526,668.5889,50.7306,668.5241,50.2067,668.7624,49.8083,669.2264,49.5035,669.2387,49.0115,669.2935,49.1438,669.6575,48.8225,670.0461,48.5608,670.4835,48.4169,670.8482,48.0972,671.36,48.1328" style="stroke:#FF6F00;stroke-width:2;"/><path d="M668.36,77.2656 L668.36,77.5459 L678.1113,76.7132 L687.8626,77.5233 L697.6139,77.7985 L707.3652,76.3144 L717.1166,77.162 L726.8679,76.697 L736.6192,76.7543 L746.3705,77.1747 L756.1218,76.3438 L765.8731,78.0038 L775.6244,76.4253 L785.3757,77.0019 L795.127,77.8416 L804.8783,77.1513 L814.6297,77.3566 L824.381,77.223 L834.1323,77.5037 L843.8836,77.5845 L853.6349,77.2656" fill="#4051B5" style="stroke:#FF6F00;stroke-width:2;"/><text fill="#FFFFFF" font-family="'Roboto'" font-size="13" lengthAdjust="spacing" textLength="35.7246" x="743.1351" y="67.1997">Chart</text><text fill="#FFFFFF" font-family="'Roboto'" font-size="13" lengthAdjust="spacing" textLength="110.4873" x="675.36" y="96.3325">- viable roadmap</text><text fill="#FFFFFF" font-family="'Roboto'" font-size="13" lengthAdjust="spacing" textLength="99.4995" x="675.36" y="111.4653">- business case</text><text fill="#FFFFFF" font-family="'Roboto'" font-size="13" lengthAdjust="spacing" textLength="161.2749" x="675.36" y="126.5981">- stakeholder agreement</text><text fill="#FFFFFF" font-family="'Roboto'" font-size="13" lengthAdjust="spacing" textLength="67.0059" x="675.36" y="141.731">- mandate</text><text fill="#FFFFFF" font-family="'Roboto'" font-size="13" lengthAdjust="spacing" textLength="62.0293" x="675.36" y="156.8638">- see also</text><a href="/process/plan/chart/" target="_top" title="/process/plan/chart/" xlink:actuate="onRequest" xlink:href="/process/plan/chart/" xlink:show="new" xlink:title="/process/plan/chart/" xlink:type="simple"><text fill="#FF6F00" font-family="'Roboto'" font-size="13" lengthAdjust="spacing" text-decoration="underline" textLength="47.6836" x="741.5216" y="156.8638">"Chart"</text></a></g><g><polygon fill="#4051B5" points="161.32,239.9228,161.32,240.133,171.5782,239.5085,181.8363,240.1161,192.0945,240.3225,202.3526,239.2094,212.6108,239.8451,222.8689,239.4963,233.1271,239.5393,243.3852,239.8547,253.6434,239.2314,263.9015,240.4765,274.1597,239.2925,284.4178,239.725,294.676,239.9228,294.7311,240.0558,295.0893,240.0721,295.5332,240.2953,295.9447,240.4402,296.3958,240.6807,296.7973,240.8015,296.8709,240.832,297.1534,241.3005,297.3554,241.7356,297.5337,242.1609,297.5786,242.531,297.676,242.9228,298.1395,242.9228,298.3782,253.3759,296.9548,263.8291,298.3545,274.2822,297.3795,284.7353,297.676,295.1884,297.8403,295.2565,297.3478,295.5496,297.3034,296.0282,297.3771,296.5558,296.958,296.8793,296.7973,297.3098,296.8107,297.3422,296.4162,297.5898,296.0018,297.7894,295.524,297.8358,295.1369,298.1012,294.676,298.1884,294.676,297.616,284.4178,298.4728,274.1597,298.7366,263.9015,298.633,253.6434,298.8015,243.3852,297.7054,233.1271,297.5363,222.8689,297.567,212.6108,298.1296,202.3526,297.9919,192.0945,298.8698,181.8363,298.0138,171.5782,297.8454,161.32,298.1884,161.3491,298.2587,160.8107,297.8073,160.4053,297.6771,160.13,297.8611,159.6785,297.6197,159.1987,297.3098,159.4249,297.4035,158.9238,296.8444,158.9455,296.5019,158.8533,296.1123,158.3503,295.5524,158.32,295.1884,158.2241,295.1884,158.446,284.7353,158.9718,274.2822,158.3158,263.8291,158.7826,253.3759,158.32,242.9228,158.1495,242.8522,158.2872,242.4122,158.8266,242.1385,158.6264,241.5586,159.1797,241.2907,159.1987,240.8015,159.225,240.8651,159.5888,240.5432,160.0021,240.3411,160.53,240.4156,160.8576,240.0064,161.32,239.9228" style="stroke:#FF6F00;stroke-width:2;"/><path d="M158.32,269.0556 L158.32,269.3359 L168.274,268.5032 L178.228,269.3133 L188.182,269.5885 L198.136,268.1044 L208.09,268.952 L218.044,268.487 L227.998,268.5443 L237.952,268.9647 L247.906,268.1338 L257.86,269.7938 L267.814,268.2153 L277.768,268.7919 L287.722,269.6316 L297.676,269.0556" fill="#4051B5" style="stroke:#FF6F00;stroke-width:2;"/><text fill="#FFFFFF" font-family="'Roboto'" font-size="13" lengthAdjust="spacing" textLength="33.103" x="211.4465" y="258.9897">Train</text><text fill="#FFFFFF" font-family="'Roboto'" font-size="13" lengthAdjust="spacing" textLength="62.0293" x="165.32" y="288.1225">- see also</text><a href="/process/plan/train/" target="_top" title="/process/plan/train/" xlink:actuate="onRequest" xlink:href="/process/plan/train/" xlink:show="new" xlink:title="/process/plan/train/" xlink:type="simple"><text fill="#FF6F00" font-family="'Roboto'" font-size="13" lengthAdjust="spacing" text-decoration="underline" textLength="45.062" x="231.4816" y="288.1225">"Train"</text></a></g><polygon fill="#222222" points="38.0552,109.9652,36.5894,111.9681,34.8556,114.9016,32.376,116.8786,29.7703,117.9597,27.6927,118.0536,25.0224,116.7015,22.5029,115.8182,20.5905,114.0248,19.5873,111.9717,18.9924,110.3369,18.4096,108.2016,17.4636,106.3642,18.1906,104.5701,18.8275,102.6048,21.2175,101.0505,22.8991,99.0338,24.9804,98.3641,27.4547,97.7874,30.6276,98.1301,32.3655,98.9497,34.3861,99.3212,36.8429,101.8382,37.6993,104.4955,38.0714,106.3086,37.65,109.2963" style="stroke:#222222;stroke-width:1;"/><polygon fill="none" points="894.0608,110.2084,892.4484,112.4116,890.5412,115.6385,887.8136,117.8132,884.9474,119.0024,882.662,119.1056,879.7247,117.6184,876.9532,116.6467,874.8495,114.674,873.7461,112.4156,873.0917,110.6173,872.4506,108.2685,871.41,106.2473,872.2096,104.2738,872.9102,102.112,875.5393,100.4023,877.389,98.1839,879.6784,97.4473,882.4001,96.8129,885.8904,97.1898,887.8021,98.0913,890.0247,98.5,892.7272,101.2688,893.6693,104.1918,894.0786,106.1862,893.615,109.4727" style="stroke:#222222;stroke-width:1;"/><polygon fill="#222222" points="889.0331,108.9922,888.1536,110.194,887.1134,111.9541,885.6256,113.1403,884.0622,113.789,882.8156,113.8453,881.2135,113.034,879.7017,112.504,878.5543,111.428,877.9524,110.1961,877.5955,109.2153,877.2458,107.9341,876.6782,106.8316,877.1143,105.7552,877.4965,104.576,878.9305,103.6434,879.9394,102.4334,881.1882,102.0316,882.6728,101.6856,884.5766,101.8912,885.6193,102.3829,886.8317,102.6058,888.3057,104.1161,888.8196,105.7104,889.0429,106.7983,888.79,108.5909" style="stroke:#222222;stroke-width:1;"/><!--link *start*Plan to Envision--><g class="link" data-entity-1="ent0002" data-entity-2="ent0003" data-link-type="dependency" data-source-line="66" id="lnk3"><path d="M38.13,107.5328 L38.13,107.6262 L40.37,107.3487 L42.61,107.6187 L44.85,107.7104 L47.09,107.2157 L49.33,107.5328" fill="none" style="stroke:#FF6F00;stroke-width:2;"/><polygon fill="#FF6F00" points="55.33,107.5328,55.3585,107.5968,53.4739,106.6066,51.7562,105.9917,49.9841,105.2546,48.0334,104.1155,46.33,103.5328,46.3117,103.5145,47.0295,104.2323,47.8396,105.0424,48.7139,105.9167,49.367,106.5699,50.33,107.5328,50.4605,107.6633,49.3814,108.1843,48.6834,109.0862,48.0318,110.0346,47.1098,110.7126,46.33,111.5328,46.3392,111.5536,48.1257,110.7231,49.9542,109.9872,51.7624,109.2057,53.6093,108.5112,55.33,107.5328" style="stroke:#FF6F00;stroke-width:2;"/></g><!--link Envision to Discover--><g class="link" data-entity-1="ent0003" data-entity-2="ent0004" data-link-type="dependency" data-source-line="68" id="lnk4"><path d="M216.58,107.5328 L216.58,107.6262 L218.968,107.3487 L221.356,107.6187 L223.744,107.7104 L226.132,107.2157 L228.52,107.5328" fill="none" style="stroke:#FF6F00;stroke-width:2;"/><polygon fill="#FF6F00" points="234.52,107.5328,234.5485,107.5968,232.6639,106.6066,230.9462,105.9917,229.1741,105.2546,227.2234,104.1155,225.52,103.5328,225.5017,103.5145,226.2195,104.2323,227.0296,105.0424,227.9039,105.9167,228.557,106.5699,229.52,107.5328,229.6505,107.6633,228.5714,108.1843,227.8734,109.0862,227.2218,110.0346,226.2998,110.7126,225.52,111.5328,225.5292,111.5536,227.3157,110.7231,229.1442,109.9872,230.9524,109.2057,232.7993,108.5112,234.52,107.5328" style="stroke:#FF6F00;stroke-width:2;"/></g><!--link Discover to Assess--><g class="link" data-entity-1="ent0004" data-entity-2="ent0005" data-link-type="dependency" data-source-line="69" id="lnk5"><path d="M407.46,107.5328 L407.46,107.6262 L409.778,107.3487 L412.096,107.6187 L414.414,107.7104 L416.732,107.2157 L419.05,107.5328" fill="none" style="stroke:#FF6F00;stroke-width:2;"/><polygon fill="#FF6F00" points="425.05,107.5328,425.0785,107.5968,423.1939,106.6066,421.4762,105.9917,419.7041,105.2546,417.7534,104.1155,416.05,103.5328,416.0317,103.5145,416.7495,104.2323,417.5596,105.0424,418.4339,105.9167,419.087,106.5699,420.05,107.5328,420.1805,107.6633,419.1014,108.1843,418.4034,109.0862,417.7518,110.0346,416.8298,110.7126,416.05,111.5328,416.0592,111.5536,417.8457,110.7231,419.6742,109.9872,421.4824,109.2057,423.3293,108.5112,425.05,107.5328" style="stroke:#FF6F00;stroke-width:2;"/></g><!--link Assess to Chart--><g class="link" data-entity-1="ent0005" data-entity-2="ent0006" data-link-type="dependency" data-source-line="70" id="lnk6"><path d="M650.81,107.5328 L650.81,107.6262 L653.052,107.3487 L655.294,107.6187 L657.536,107.7104 L659.778,107.2157 L662.02,107.5328" fill="none" style="stroke:#FF6F00;stroke-width:2;"/><polygon fill="#FF6F00" points="668.02,107.5328,668.0485,107.5968,666.1639,106.6066,664.4462,105.9917,662.6741,105.2546,660.7234,104.1155,659.02,103.5328,659.0017,103.5145,659.7195,104.2323,660.5296,105.0424,661.4039,105.9167,662.057,106.5699,663.02,107.5328,663.1505,107.6633,662.0714,108.1843,661.3734,109.0862,660.7218,110.0346,659.7998,110.7126,659.02,111.5328,659.0292,111.5536,660.8157,110.7231,662.6442,109.9872,664.4524,109.2057,666.2993,108.5112,668.02,107.5328" style="stroke:#FF6F00;stroke-width:2;"/></g><!--link Chart to *end*Plan--><g class="link" data-entity-1="ent0006" data-entity-2="ent0007" data-link-type="dependency" data-source-line="72" id="lnk8"><path d="M853.93,107.5328 L853.93,107.6262 L856.272,107.3487 L858.614,107.6187 L860.956,107.7104 L863.298,107.2157 L865.64,107.5328" fill="none" style="stroke:#FF6F00;stroke-width:2;"/><polygon fill="#FF6F00" points="871.64,107.5328,871.6685,107.5968,869.7839,106.6066,868.0662,105.9917,866.2941,105.2546,864.3434,104.1155,862.64,103.5328,862.6217,103.5145,863.3395,104.2323,864.1496,105.0424,865.0239,105.9167,865.677,106.5699,866.64,107.5328,866.7705,107.6633,865.6914,108.1843,864.9934,109.0862,864.3418,110.0346,863.4198,110.7126,862.64,111.5328,862.6492,111.5536,864.4357,110.7231,866.2642,109.9872,868.0724,109.2057,869.9193,108.5112,871.64,107.5328" style="stroke:#FF6F00;stroke-width:2;"/></g><!--link *start*Plan to Train--><g class="link" data-entity-1="ent0002" data-entity-2="ent0007" data-link-type="dependency" data-source-line="74" id="lnk9"><path d="M28.92,117.8228 L29.0121,117.8384 L29.1077,119.9685 L29.7432,122.1901 L30.2029,124.3819 L30.0844,126.4757 L30.7663,128.7052 L30.7328,128.6965 L31.252,131.2373 L31.9398,133.8219 L32.7447,136.4369 L33.1458,138.9471 L34.1125,141.6041 L34.3412,141.6948 L34.9061,144.1574 L36.1388,146.885 L37.4529,149.6448 L38.2931,152.2166 L39.3825,154.8873 L39.4081,154.9036 L40.894,157.2868 L42.4965,159.744 L44.0428,162.1655 L45.6965,164.6549 L47,166.9228 L47.2222,167.1217 L49.4837,169.6482 L51.6018,172.0463 L53.9297,174.6323 L56.2674,177.2271 L58.2936,179.543 L58.0726,179.3108 L60.9231,182.0661 L63.046,184.0569 L65.722,186.629 L67.8284,188.6025 L70.4018,191.0665 L70.3824,191.043 L73.1685,193.4211 L75.5031,195.2494 L78.1042,197.4022 L80.7275,199.5821 L83.1896,201.5656 L83.2973,201.716 L85.8551,203.4735 L88.5969,205.4881 L91.041,207.0868 L93.9292,209.3057 L96.5221,211.1123 L96.6521,211.3183 L99.3759,213.0126 L102.1643,214.8093 L104.6529,216.1305 L107.3612,217.8002 L110.2643,219.7786 L110.1292,219.5377 L113.0549,221.3274 L115.8283,222.8457 L118.8225,224.7577 L121.4399,225.9974 L124.2812,227.6367 L124.2127,227.5005 L127.1581,229.1518 L129.8107,230.2208 L132.6715,231.7038 L135.7361,233.592 L138.4378,234.7587 L138.5182,234.9349 L141.4056,236.3473 L144.043,237.2118 L146.9935,238.7626 L149.8758,240.1639 L152.5992,241.2167" fill="none" style="stroke:#FF6F00;stroke-width:2;"/><polygon fill="#FF6F00" points="158.1,243.6128,158.1517,243.6601,156.6674,242.0672,155.486,240.7518,154.2059,239.346,152.6016,237.6431,151.4462,236.3515,151.4221,236.342,151.7279,237.3524,152.1552,238.4105,152.6669,239.5019,152.8876,240.4788,153.516,241.6161,153.5835,241.7878,152.3862,241.8345,151.386,242.3826,150.4099,242.9919,149.2939,243.2453,148.2514,243.6859,148.2516,243.7086,150.2211,243.6606,152.1913,243.7162,154.1612,243.7217,156.1317,243.8226,158.1,243.6128" style="stroke:#FF6F00;stroke-width:2;"/></g><!--reverse link Envision to Train--><g class="link" data-entity-1="ent0003" data-entity-2="ent0007" data-link-type="dependency" data-source-line="75" id="lnk11"><path d="M159.6474,149.5304 L159.8902,149.6704 L164.3602,158.2557 L170.2532,167.6617 L175.6828,176.8004 L179.5885,185.0602 L185.514,194.4849 L190.3024,203.2538 L195.5433,212.2836 L201.0988,221.4949 L205.5702,230.081 L211.56,239.5428" fill="none" style="stroke:#FF6F00;stroke-width:2;"/><polygon fill="#FF6F00" points="156.65,144.3328,156.7197,144.3401,156.7189,146.2773,157.1265,148.2575,157.4011,150.2236,157.2384,152.1437,157.6811,154.1275,157.6561,154.1208,157.8371,152.998,158.1443,151.909,158.5392,150.8436,158.6319,149.6971,159.1479,148.6642,159.1957,148.8424,160.1861,148.7546,161.3161,149.1872,162.4632,149.6833,163.5112,149.81,164.6113,150.131,164.6246,150.1493,163.0127,148.9627,161.4618,147.8598,159.8814,146.7165,158.3572,145.6503,156.65,144.3328" style="stroke:#FF6F00;stroke-width:2;"/></g><!--reverse link Discover to Train--><g class="link" data-entity-1="ent0004" data-entity-2="ent0007" data-link-type="dependency" data-source-line="76" id="lnk13"><path d="M283.8793,172.2069 L284.1214,172.3481 L278.4958,180.3444 L274.2896,189.1682 L269.6212,197.7225 L263.4329,205.3908 L259.259,214.2334 L253.951,222.4149 L249.0944,230.8596 L244.63,239.5328" fill="none" style="stroke:#FF6F00;stroke-width:2;"/><polygon fill="#FF6F00" points="286.9,167.0228,286.941,167.0796,285.2218,168.0633,283.7428,169.38,282.1856,170.5883,280.3711,171.4398,278.9128,172.7852,278.9062,172.7601,279.9705,172.3592,281.0682,172.0846,282.189,171.8978,283.23,171.4085,284.3827,171.3429,284.5612,171.39,284.468,172.3833,284.8959,173.5141,285.3873,174.6616,285.5089,175.7115,285.825,176.8128,285.8476,176.8153,286.0294,174.8537,286.3141,172.9033,286.5492,170.9475,286.8791,169.0021,286.9,167.0228" style="stroke:#FF6F00;stroke-width:2;"/></g><!--reverse link Assess to Train--><g class="link" data-entity-1="ent0005" data-entity-2="ent0007" data-link-type="dependency" data-source-line="77" id="lnk15"><path d="M433.2952,162.4087 L433.4234,162.6578 L424.2303,166.4524 L415.789,171.7077 L407.1028,176.4874 L397.6116,179.7027 L389.1874,184.9913 L380.1626,189.1127 L371.3767,193.6987 L362.757,198.6075 L353.5647,202.4036 L345.5123,208.4145 L335.9779,211.5459 L327.4297,216.5936 L319.0018,221.8751 L309.8739,225.7963 L301.1558,230.5138 L292.2826,234.93 L283.49,239.5028" fill="none" style="stroke:#FF6F00;stroke-width:2;"/><polygon fill="#FF6F00" points="438.63,159.6628,438.634,159.7328,436.6556,159.6374,434.7006,159.952,432.7379,160.1332,430.7502,159.8752,428.7972,160.225,428.7893,160.2004,429.8312,160.4348,430.913,160.7937,432.0225,161.239,433.0366,161.3864,434.1843,161.951,434.3601,162.0073,433.639,162.9643,433.4311,164.0858,433.2858,165.2272,432.7763,166.252,432.4583,167.3381,432.4761,167.3524,433.6844,165.7964,434.9734,164.3053,436.2235,162.7829,437.5478,161.3202,438.63,159.6628" style="stroke:#FF6F00;stroke-width:2;"/></g><!--SRC=[hLLTRzCm57tthxZh9BwageLzFF20rBNTG40xTKC8JTFa9hUDbSGEjhDIflrtRfmqSTOM1C8FRNJkkVUUU-mu1ogpGac8k0nNMbYB4XOyCSZOmOwGrJcoWn0NGYASNTnz7doOt0sddwOpSElmk7_oUdxYKwx6m-baD9XzgtWxA9U3uSV1nRWkj4MPpaRZcTy73XUBqqM_NrFEfvFh5i5HYbLJ1hFPz6kRiwd2J2nanZLFOSw3UAbLBiEXIfIcYRaq549f6NiEGvLcFB2GyBNABHYqLiYbyGfSyZ0a2DvusAoifoLgEFNmguY7QbMmIy-RoFjrXZeHCluYG_U0fVSx6ANEpIWDWOJ71ZCuza6fGYp0epPeyLn9MrNgk-MRCi85pnCB3woWJNYAq9cfkRAgmvh4PWySU2L-8hm-Oez-fO7MQaLroWnlIxmwXqTkbKNiEa4Ig5EUiEj81B54OyZSLjKWuGG-iBCdczSweUnCQVAoYdX7gWhurNSEDR1MYtdkU-L7YycsntBmNk5qbcA-nChOhPh_E4-hXR7SuX-z-Ny3_uNBf9D58aJ0DBDhe9CPQE4k7Hh0oRvCk2JjxERLBNIrM4Qs-mx6ybuOHzeyDR6HC86wHyqs3qreO0orPULV0myZhkdLTd_GhM7gMBMbDrGISAsvaCpz4YtFV24jj9RGGglkjUItq0KEXhfYI7kaQThbkXKrY42tWeAR6-XbMWMKtyl8a1vMh1vqDWaTk2MzczOklQmf0iWDGi2fVIikfB229tMKxXV45cEU6-5sAfPgbM2uR8SpBHHz5WGQU0Pq6GOgVT9Y_mHXnQ89DWdb1ALDHNAGw-BIBS-lXslydel2D8a_jgCfjpc9MiCBKczwIYzx8RUyPp68Ndgy_TAuuv2mabpASgUZoBiNV4uNabOyJ7dMuBLNXPKDJF9YZ5H21n_uaWnEY-z87KxfqrheR_XxPGK5XLGvQYdAdQ_VPzc2GbcEwh8UVm40]--></g></svg>