<svg xmlns="http://www.w3.org/2000/svg" xmlns:xlink="http://www.w3.org/1999/xlink" contentStyleType="text/css" data-diagram-type="STATE" height="342px" preserveAspectRatio="none" style="width:1306px;height:342px;background:#FFFFFF;" version="1.1" viewBox="0 0 1306 342" width="1306px" zoomAndPan="magnify"><defs/><g><g id="Identified"><polygon fill="#ADE8F4" points="64.68,92.83,64.68,93.0402,74.714,92.4157,84.7479,93.0233,94.7819,93.2297,104.8159,92.1166,114.8499,92.7523,124.8838,92.4035,134.9178,92.4465,144.9518,92.7618,154.9858,92.1386,165.0197,93.3836,175.0537,92.1997,185.0877,92.6322,195.1217,93.2619,205.1556,92.7442,215.1896,92.8982,225.2236,92.7981,235.2576,93.0085,245.2915,93.0691,255.3255,92.83,255.4002,93.0104,255.9768,93.271,256.5435,93.5078,257.055,93.6114,257.6474,93.91,258.1539,94.0016,258.3702,94.0912,258.1662,94.4753,258.8315,95.2195,258.7656,95.6608,259.2556,96.3324,259.3255,96.83,258.8305,96.83,259.257,106.4413,260.0671,116.0527,259.2768,125.664,259.4308,135.2753,259.6641,144.8866,259.7417,154.498,259.3216,164.1093,259.3255,173.7206,259.414,173.7573,258.9149,174.2133,258.9445,174.8883,258.7914,175.4876,258.5251,176.0401,258.1539,176.5491,258.2321,176.7378,257.5266,176.6346,256.9394,176.8168,256.3776,177.0606,255.8837,177.4682,255.3255,177.7206,255.3255,177.5241,245.2915,178.402,235.2576,177.5459,225.2236,177.3776,215.1896,177.9489,205.1556,177.0538,195.1217,177.2015,185.0877,178.3696,175.0537,178.1563,165.0197,178.4551,154.9858,177.3988,144.9518,178.0398,134.9178,178.311,124.8838,177.2482,114.8499,177.6248,104.8159,177.8466,94.7819,178.3724,84.7479,177.7164,74.714,178.1832,64.68,177.7206,64.6094,177.5501,64.0279,177.2777,63.6129,177.4071,62.8915,176.7969,62.4822,176.9401,61.8516,176.5491,61.9152,176.5754,61.5348,175.9492,61.274,175.3726,61.2899,174.9105,60.8221,174.2481,60.68,173.7206,61.2719,173.7206,60.1273,164.1093,61.2974,154.498,61.1643,144.8866,60.925,135.2753,60.7272,125.664,61.4066,116.0527,61.2936,106.4413,60.68,96.83,60.7321,96.8516,60.9969,96.2985,61.1085,95.682,61.6036,95.2243,61.665,94.587,61.8516,94.0016,61.8736,94.0547,62.3397,93.5799,62.9313,93.4082,63.6163,93.4621,64.1691,93.1967,64.68,92.83" style="stroke:#0077B6;stroke-width:0.5;"/><path d="M60.68,127.1269 L60.68,127.4071 L70.6123,126.5744 L80.5446,127.3846 L90.4768,127.6598 L100.4091,126.1757 L110.3414,127.0233 L120.2737,126.5582 L130.2059,126.6155 L140.1382,127.036 L150.0705,126.205 L160.0028,127.8651 L169.935,126.2865 L179.8673,126.8632 L189.7996,127.7028 L199.7319,127.0125 L209.6641,127.2179 L219.5964,127.0843 L229.5287,127.3649 L239.461,127.4457 L249.3932,127.9078 L259.3255,127.1269" fill="#ADE8F4" style="stroke:#0077B6;stroke-width:0.5;"/><text fill="#03045E" font-family="'Roboto'" font-size="14" lengthAdjust="spacing" textLength="66.1992" x="126.9031" y="114.8251">Identified</text><text fill="#03045E" font-family="'Roboto'" font-size="14" lengthAdjust="spacing" textLength="162.2852" x="69.68" y="149.122">- name and description</text><text fill="#03045E" font-family="'Roboto'" font-size="14" lengthAdjust="spacing" textLength="170.6455" x="69.68" y="165.4189">- added to use case tree</text></g><g id="Defined"><polygon fill="#ADE8F4" points="298.38,68.38,298.38,68.5902,308.1679,67.9657,317.9557,68.5733,327.7436,68.7797,337.5314,67.6666,347.3193,68.3023,357.1072,67.9535,366.895,67.9965,376.6829,68.3118,386.4707,67.6886,396.2586,68.9336,406.0465,67.7497,415.8343,68.1822,425.6222,68.38,425.6773,68.513,426.1769,68.5879,426.7623,68.8696,427.3152,69.0731,427.9077,69.3722,428.4506,69.5516,428.5243,69.5821,428.8653,70.192,429.1259,70.7685,429.3627,71.3353,429.4663,71.8468,429.6222,72.38,430.0858,72.38,430.3244,82.0555,428.901,91.731,430.3007,101.4064,429.3257,111.0819,430.156,120.7574,429.1272,130.4329,429.5537,140.1084,430.3638,149.7838,429.5735,159.4593,429.7275,169.1348,429.9608,178.8103,430.0384,188.4858,429.6222,198.1613,429.621,198.1608,429.4763,198.7636,428.9773,199.2196,429.0068,199.8946,428.8538,200.4939,428.4506,200.9897,428.5073,201.1266,427.9631,201.4128,427.2576,201.3095,426.6704,201.4918,426.1086,201.7356,425.6222,202.1613,425.6222,202.1024,415.8343,201.9647,406.0465,202.8427,396.2586,201.9866,386.4707,201.8182,376.6829,202.3895,366.895,201.4944,357.1072,201.6421,347.3193,202.8102,337.5314,202.5969,327.7436,202.8957,317.9557,201.8395,308.1679,202.4804,298.38,202.1613,298.4553,202.3431,297.7541,201.7815,297.2364,201.6631,296.699,201.4971,296.2004,201.4247,295.5516,200.9897,295.5503,200.9891,295.4597,200.483,294.9124,199.7877,294.6401,199.2062,294.7694,198.7912,294.38,198.1613,293.6631,198.1613,294.889,188.4858,294.5866,178.8103,294.1121,169.1348,294.0262,159.4593,294.8388,149.7838,294.0807,140.1084,294.9719,130.4329,293.8273,120.7574,294.9974,111.0819,294.8643,101.4064,294.625,91.731,294.4272,82.0555,294.38,72.38,294.6038,72.4727,294.8033,71.8926,294.9008,71.2702,295.1655,70.7172,295.2771,70.1006,295.5516,69.5516,295.643,69.7722,296.137,69.365,296.705,69.1361,297.171,68.6613,297.7626,68.4895,298.38,68.38" style="stroke:#0077B6;stroke-width:0.5;"/><path d="M294.38,102.6769 L294.38,102.9571 L304.0402,102.1244 L313.7003,102.9346 L323.3605,103.2098 L333.0206,101.7257 L342.6808,102.5733 L352.3409,102.1082 L362.0011,102.1655 L371.6613,102.586 L381.3214,101.755 L390.9816,103.4151 L400.6417,101.8365 L410.3019,102.4132 L419.962,103.2528 L429.6222,102.6769" fill="#ADE8F4" style="stroke:#0077B6;stroke-width:0.5;"/><text fill="#03045E" font-family="'Roboto'" font-size="14" lengthAdjust="spacing" textLength="54.585" x="334.7086" y="90.3751">Defined</text><text fill="#03045E" font-family="'Roboto'" font-size="14" lengthAdjust="spacing" textLength="78.2373" x="303.38" y="124.672">- outcomes</text><text fill="#03045E" font-family="'Roboto'" font-size="14" lengthAdjust="spacing" textLength="73.3633" x="303.38" y="140.9689">- personas</text><text fill="#03045E" font-family="'Roboto'" font-size="14" lengthAdjust="spacing" textLength="72.6182" x="303.38" y="157.2657">- concepts</text><text fill="#03045E" font-family="'Roboto'" font-size="14" lengthAdjust="spacing" textLength="56.4033" x="303.38" y="173.5626">- stories</text><text fill="#03045E" font-family="'Roboto'" font-size="14" lengthAdjust="spacing" textLength="107.2422" x="303.38" y="189.8595">- dependencies</text></g><g id="Proposed"><polygon fill="#ADE8F4" points="468.7,100.98,468.7,101.1902,478.9357,100.5657,489.1714,101.1733,499.4071,101.3797,509.6428,100.2666,519.8785,100.9023,530.1142,100.5535,540.3499,100.5965,550.5857,100.9118,560.8214,100.2886,571.0571,101.5336,581.2928,100.98,581.2124,100.7859,581.8332,101.1534,582.4792,101.5817,582.9789,101.6565,583.5642,101.9383,584.1212,102.1516,584.1114,102.1475,584.4105,102.74,584.6635,103.3134,585.0045,103.9233,585.2651,104.4999,585.2928,104.98,585.972,104.98,585.5474,115.079,585.7564,125.1779,585.995,135.2769,584.5716,145.3758,585.9713,155.4748,585.2928,165.5738,585.2015,165.5359,585.2229,166.2075,584.6717,166.642,584.5687,167.2621,584.5839,167.9311,584.1212,168.4022,584.115,168.3872,583.5689,168.6689,583.033,168.9751,582.4772,169.2333,581.858,169.3382,581.2928,169.5738,581.2928,169.861,571.0571,169.0013,560.8214,169.8581,550.5857,170.1219,540.3499,170.0183,530.1142,170.1868,519.8785,169.0907,509.6428,168.9216,499.4071,168.9523,489.1714,169.5149,478.9357,169.3772,468.7,169.5738,468.7869,169.7836,468.112,169.2856,467.5249,168.9995,467.0321,168.9411,466.3522,168.4311,465.8716,168.4022,465.7117,168.336,465.8371,167.9193,465.5371,167.3264,465.3948,166.7988,464.8352,166.0984,464.7,165.5738,465.0192,165.5738,465.2904,155.4748,464.2276,145.3758,464.6041,135.2769,464.826,125.1779,465.3518,115.079,464.7,104.98,464.6987,104.9795,465.0768,104.4733,464.9981,103.778,465.1944,103.1966,465.7924,102.7815,465.8716,102.1516,465.7801,101.9308,466.5022,102.074,467.0293,101.7466,467.5345,101.3661,468.0892,101.1054,468.7,100.98" style="stroke:#0077B6;stroke-width:0.5;"/><path d="M464.7,135.2769 L464.7,135.5571 L474.7494,134.7244 L484.7988,135.5346 L494.8482,135.8098 L504.8976,134.3257 L514.947,135.1733 L524.9964,134.7082 L535.0458,134.7655 L545.0952,135.186 L555.1446,134.355 L565.194,136.0151 L575.2434,134.4365 L585.2928,135.2769" fill="#ADE8F4" style="stroke:#0077B6;stroke-width:0.5;"/><text fill="#03045E" font-family="'Roboto'" font-size="14" lengthAdjust="spacing" textLength="65.0098" x="492.4915" y="122.9751">Proposed</text><text fill="#03045E" font-family="'Roboto'" font-size="14" lengthAdjust="spacing" textLength="92.5928" x="473.7" y="157.272">- chart phase</text></g><g id="Planned"><polygon fill="#ADE8F4" points="623.86,100.98,623.86,101.1902,634.2492,100.5657,644.6384,101.1733,655.0276,101.3797,665.4168,100.2666,675.806,100.9023,686.1952,100.5535,696.5844,100.5965,706.9736,100.9118,717.3628,100.2886,727.752,101.5336,738.1413,100.98,738.0609,100.7859,738.6817,101.1534,739.3277,101.5817,739.8274,101.6565,740.4127,101.9383,740.9697,102.1516,740.9598,102.1475,741.259,102.74,741.5119,103.3134,741.853,103.9233,742.1136,104.4999,742.1413,104.98,742.8205,104.98,742.3959,115.079,742.6048,125.1779,742.8435,135.2769,741.4201,145.3758,742.8198,155.4748,742.1413,165.5738,742.0499,165.5359,742.0713,166.2075,741.5202,166.642,741.4172,167.2621,741.4324,167.9311,740.9697,168.4022,740.9635,168.3872,740.4174,168.6689,739.8815,168.9751,739.3257,169.2333,738.7064,169.3382,738.1413,169.5738,738.1413,169.861,727.752,169.0013,717.3628,169.8581,706.9736,170.1219,696.5844,170.0183,686.1952,170.1868,675.806,169.0907,665.4168,168.9216,655.0276,168.9523,644.6384,169.5149,634.2492,169.3772,623.86,169.5738,623.9469,169.7836,623.272,169.2856,622.6849,168.9995,622.1921,168.9411,621.5122,168.4311,621.0316,168.4022,620.8717,168.336,620.9971,167.9193,620.6971,167.3264,620.5548,166.7988,619.9952,166.0984,619.86,165.5738,620.1792,165.5738,620.4504,155.4748,619.3876,145.3758,619.7641,135.2769,619.986,125.1779,620.5118,115.079,619.86,104.98,619.8587,104.9795,620.2368,104.4733,620.1581,103.778,620.3544,103.1966,620.9524,102.7815,621.0316,102.1516,620.9401,101.9308,621.6622,102.074,622.1893,101.7466,622.6945,101.3661,623.2492,101.1054,623.86,100.98" style="stroke:#0077B6;stroke-width:0.5;"/><path d="M619.86,135.2769 L619.86,135.5571 L630.0501,134.7244 L640.2402,135.5346 L650.4303,135.8098 L660.6204,134.3257 L670.8105,135.1733 L681.0006,134.7082 L691.1907,134.7655 L701.3808,135.186 L711.5709,134.355 L721.761,136.0151 L731.9511,134.4365 L742.1413,135.2769" fill="#ADE8F4" style="stroke:#0077B6;stroke-width:0.5;"/><text fill="#03045E" font-family="'Roboto'" font-size="14" lengthAdjust="spacing" textLength="56.1572" x="652.922" y="122.9751">Planned</text><text fill="#03045E" font-family="'Roboto'" font-size="14" lengthAdjust="spacing" textLength="94.2813" x="628.86" y="157.272">- on roadmap</text></g><g id="InProgress"><polygon fill="#ADE8F4" points="780.69,100.98,780.69,101.1902,790.7467,100.5657,800.8035,101.1733,810.8602,101.3797,820.9169,100.2666,830.9736,100.9023,841.0304,100.5535,851.0871,100.5965,861.1438,100.9118,871.2006,100.2886,881.2573,101.5336,891.314,100.98,891.2336,100.7859,891.8545,101.1534,892.5005,101.5817,893.0001,101.6565,893.5855,101.9383,894.1425,102.1516,894.1326,102.1475,894.4317,102.74,894.6847,103.3134,895.0258,103.9233,895.2864,104.4999,895.314,104.98,895.9933,104.98,895.5687,115.079,895.7776,125.1779,896.0163,135.2769,894.5928,145.3758,895.9925,155.4748,895.314,165.5738,895.2227,165.5359,895.2441,166.2075,894.6929,166.642,894.59,167.2621,894.6051,167.9311,894.1425,168.4022,894.1362,168.3872,893.5902,168.6689,893.0543,168.9751,892.4985,169.2333,891.8792,169.3382,891.314,169.5738,891.314,169.861,881.2573,169.0013,871.2006,169.8581,861.1438,170.1219,851.0871,170.0183,841.0304,170.1868,830.9736,169.0907,820.9169,168.9216,810.8602,168.9523,800.8035,169.5149,790.7467,169.3772,780.69,169.5738,780.7769,169.7836,780.102,169.2856,779.5149,168.9995,779.0221,168.9411,778.3422,168.4311,777.8616,168.4022,777.7017,168.336,777.8271,167.9193,777.5271,167.3264,777.3848,166.7988,776.8252,166.0984,776.69,165.5738,777.0092,165.5738,777.2804,155.4748,776.2176,145.3758,776.5941,135.2769,776.816,125.1779,777.3418,115.079,776.69,104.98,776.6887,104.9795,777.0668,104.4733,776.9881,103.778,777.1844,103.1966,777.7824,102.7815,777.8616,102.1516,777.7701,101.9308,778.4922,102.074,779.0193,101.7466,779.5245,101.3661,780.0792,101.1054,780.69,100.98" style="stroke:#0077B6;stroke-width:0.5;"/><path d="M776.69,135.2769 L776.69,135.5571 L786.5753,134.7244 L796.4607,135.5346 L806.346,135.8098 L816.2313,134.3257 L826.1167,135.1733 L836.002,134.7082 L845.8873,134.7655 L855.7727,135.186 L865.658,134.355 L875.5434,136.0151 L885.4287,134.4365 L895.314,135.2769" fill="#ADE8F4" style="stroke:#0077B6;stroke-width:0.5;"/><text fill="#03045E" font-family="'Roboto'" font-size="14" lengthAdjust="spacing" textLength="73.6094" x="799.1973" y="122.9751">InProgress</text><text fill="#03045E" font-family="'Roboto'" font-size="14" lengthAdjust="spacing" textLength="90.624" x="785.69" y="157.272">- build phase</text></g><polygon fill="#222222" points="26.0552,137.7024,24.5894,139.7053,22.8556,142.6388,20.376,144.6158,17.7703,145.6969,15.6927,145.7907,13.0224,144.4387,10.5029,143.5554,8.5905,141.762,7.5873,139.7089,6.9924,138.0741,6.4096,135.9388,5.4636,134.1013,6.1906,132.3073,6.8275,130.342,9.2175,128.7877,10.8991,126.771,12.9804,126.1013,15.4547,125.5246,18.6276,125.8672,20.3655,126.6868,22.3861,127.0584,24.8429,129.5754,25.6993,132.2327,26.0714,134.0458,25.65,137.0335" style="stroke:#222222;stroke-width:1;"/><polygon fill="none" points="896.0608,328.1356,894.4484,330.3388,892.5412,333.5657,889.8136,335.7404,886.9474,336.9296,884.662,337.0328,881.7247,335.5455,878.9532,334.5739,876.8495,332.6012,875.7461,330.3428,875.0917,328.5445,874.4506,326.1957,873.41,324.1745,874.2096,322.201,874.9102,320.0392,877.5393,318.3295,879.389,316.1111,881.6784,315.3744,884.4001,314.7401,887.8904,315.117,889.8021,316.0185,892.0247,316.4272,894.7272,319.196,895.6693,322.119,896.0786,324.1134,895.615,327.3999" style="stroke:#222222;stroke-width:1;"/><polygon fill="#222222" points="891.0331,326.9194,890.1536,328.1212,889.1134,329.8813,887.6256,331.0675,886.0622,331.7162,884.8156,331.7724,883.2135,330.9612,881.7017,330.4312,880.5543,329.3552,879.9524,328.1233,879.5955,327.1425,879.2458,325.8613,878.6782,324.7588,879.1143,323.6824,879.4965,322.5032,880.9305,321.5706,881.9394,320.3606,883.1882,319.9588,884.6728,319.6128,886.5766,319.8183,887.6193,320.3101,888.8317,320.533,890.3057,322.0433,890.8196,323.6376,891.0429,324.7255,890.79,326.5181" style="stroke:#222222;stroke-width:1;"/><g id="Delivered"><polygon fill="#ADE8F4" points="934.34,109.12,934.34,109.3302,944.043,108.7057,953.746,109.3133,963.449,109.5197,973.1521,108.4066,982.8551,109.0423,992.5581,108.6935,1002.2611,108.7365,1011.9641,109.0518,1021.6671,109.12,1021.579,108.9071,1022.3035,109.5248,1022.7181,109.3945,1023.339,109.762,1023.985,110.1903,1024.4956,110.2916,1024.4692,110.2806,1024.7509,110.866,1024.9544,111.4189,1025.2535,112.0114,1025.5065,112.5848,1025.6671,113.12,1025.8624,113.12,1025.8908,121.9794,1025.8936,130.8387,1025.752,139.6981,1025.8217,148.5575,1025.6671,157.4169,1025.8834,157.5065,1025.2107,157.8906,1025.4075,158.6348,1024.8729,159.0761,1024.8943,159.7477,1024.4956,160.2453,1024.4324,160.0929,1023.9212,160.4585,1023.4588,160.9423,1022.7923,160.9332,1022.2463,161.215,1021.6671,161.4169,1021.6671,161.7555,1011.9641,161.8331,1002.2611,161.413,992.5581,161.7041,982.8551,160.8445,973.1521,161.7013,963.449,161.9651,953.746,161.8614,944.043,162.0299,934.34,161.4169,934.2784,161.2681,933.6911,160.9817,933.1294,160.7569,932.6354,160.6958,932.0522,160.4191,931.5116,160.2453,931.7214,160.3322,931.2235,159.6573,930.9373,159.0702,930.8789,158.5774,930.369,157.8975,930.34,157.4169,930.167,157.4169,930.5563,148.5575,930.4852,139.6981,930.5848,130.8387,930.2327,121.9794,930.34,113.12,930.4383,113.1607,930.7561,112.6296,930.6631,111.9284,931.0134,111.4107,931.3161,110.8733,931.5116,110.2916,931.5947,110.4923,932.0767,110.056,932.7019,109.9654,933.138,109.4181,933.6879,109.1457,934.34,109.12" style="stroke:#0077B6;stroke-width:0.5;"/><path d="M930.34,143.4169 L930.34,143.6971 L939.8727,142.8644 L949.4054,143.6746 L958.9381,143.9498 L968.4709,142.4657 L978.0036,143.3133 L987.5363,142.8482 L997.069,142.9055 L1006.6017,143.326 L1016.1344,142.495 L1025.6671,143.4169" fill="#ADE8F4" style="stroke:#0077B6;stroke-width:0.5;"/><text fill="#03045E" font-family="'Roboto'" font-size="14" lengthAdjust="spacing" textLength="67.3271" x="944.34" y="131.1151">Delivered</text></g><g id="Deployed"><polygon fill="#ADE8F4" points="1064.74,109.12,1064.74,109.3302,1074.3534,108.7057,1083.9668,109.3133,1093.5802,109.5197,1103.1936,108.4066,1112.8069,109.0423,1122.4203,108.6935,1132.0337,108.7365,1141.6471,109.0518,1151.2605,109.12,1151.1723,108.9071,1151.8968,109.5248,1152.3115,109.3945,1152.9323,109.762,1153.5783,110.1903,1154.0889,110.2916,1154.0625,110.2806,1154.3443,110.866,1154.5477,111.4189,1154.8469,112.0114,1155.0998,112.5848,1155.2605,113.12,1155.4557,113.12,1155.4842,121.9794,1155.4869,130.8387,1155.3454,139.6981,1155.415,148.5575,1155.2605,157.4169,1155.4768,157.5065,1154.8041,157.8906,1155.0008,158.6348,1154.4663,159.0761,1154.4876,159.7477,1154.0889,160.2453,1154.0258,160.0929,1153.5145,160.4585,1153.0522,160.9423,1152.3857,160.9332,1151.8396,161.215,1151.2605,161.4169,1151.2605,161.7555,1141.6471,161.8331,1132.0337,161.413,1122.4203,161.7041,1112.8069,160.8445,1103.1936,161.7013,1093.5802,161.9651,1083.9668,161.8614,1074.3534,162.0299,1064.74,161.4169,1064.6784,161.2681,1064.0911,160.9817,1063.5294,160.7569,1063.0354,160.6958,1062.4522,160.4191,1061.9116,160.2453,1062.1214,160.3322,1061.6235,159.6573,1061.3373,159.0702,1061.2789,158.5774,1060.769,157.8975,1060.74,157.4169,1060.567,157.4169,1060.9563,148.5575,1060.8852,139.6981,1060.9848,130.8387,1060.6327,121.9794,1060.74,113.12,1060.8383,113.1607,1061.1561,112.6296,1061.0631,111.9284,1061.4134,111.4107,1061.7161,110.8733,1061.9116,110.2916,1061.9947,110.4923,1062.4767,110.056,1063.1019,109.9654,1063.538,109.4181,1064.0879,109.1457,1064.74,109.12" style="stroke:#0077B6;stroke-width:0.5;"/><path d="M1060.74,143.4169 L1060.74,143.6971 L1071.2423,142.8644 L1081.7446,143.6746 L1092.2468,143.9498 L1102.7491,142.4657 L1113.2514,143.3133 L1123.7537,142.8482 L1134.256,142.9055 L1144.7582,143.326 L1155.2605,143.4169" fill="#ADE8F4" style="stroke:#0077B6;stroke-width:0.5;"/><text fill="#03045E" font-family="'Roboto'" font-size="14" lengthAdjust="spacing" textLength="66.5205" x="1074.74" y="131.1151">Deployed</text></g><g id="Deprecated"><polygon fill="#ADE8F4" points="1194.04,109.12,1194.04,109.3302,1204.2315,108.7057,1214.423,109.3133,1224.6145,109.5197,1234.806,108.4066,1244.9975,109.0423,1255.189,108.6935,1265.3805,108.7365,1275.572,109.0518,1285.7635,108.4286,1295.955,109.12,1296.0257,109.2905,1296.4403,109.1602,1297.0612,109.5277,1297.7072,109.956,1298.2068,110.0308,1298.7835,110.2916,1298.8045,110.3003,1299.0079,110.8532,1299.3071,111.4457,1299.5601,112.0191,1299.9011,112.629,1299.955,113.12,1300.1787,113.12,1300.1815,121.9794,1300.0399,130.8387,1300.1096,139.6981,1300.1891,148.5575,1299.955,157.4169,1299.7329,157.3249,1299.9297,158.0691,1299.3951,158.5104,1299.4165,159.182,1298.8653,159.6165,1298.7835,160.2453,1298.7747,160.2242,1298.3124,160.708,1297.6459,160.6989,1297.0998,160.9807,1296.5639,161.2868,1295.955,161.4169,1295.955,161.8331,1285.7635,161.413,1275.572,161.7041,1265.3805,160.8445,1255.189,161.7013,1244.9975,161.9651,1234.806,161.8614,1224.6145,162.0299,1214.423,160.9338,1204.2315,160.7647,1194.04,161.4169,1193.9607,161.2255,1193.4668,161.1644,1192.8836,160.8877,1192.4299,160.9238,1191.755,160.4258,1191.2116,160.2453,1191.1059,160.2015,1191.0476,159.7087,1190.5376,159.0289,1190.3488,158.482,1190.4742,158.0653,1190.04,157.4169,1190.1852,157.4169,1190.2848,148.5575,1189.9327,139.6981,1190.1464,130.8387,1190.2368,121.9794,1190.04,113.12,1189.8945,113.0597,1190.2448,112.5421,1190.5474,112.0047,1190.9437,111.5061,1190.976,110.8567,1191.2116,110.2916,1191.2706,110.434,1191.7066,109.8867,1192.2566,109.6144,1192.9729,109.7437,1193.3829,109.1335,1194.04,109.12" style="stroke:#0077B6;stroke-width:0.5;"/><path d="M1190.04,143.4169 L1190.04,143.6971 L1200.0323,142.8644 L1210.0246,143.6746 L1220.0168,143.9498 L1230.0091,142.4657 L1240.0014,143.3133 L1249.9937,142.8482 L1259.9859,142.9055 L1269.9782,143.326 L1279.9705,142.495 L1289.9628,144.1551 L1299.955,143.4169" fill="#ADE8F4" style="stroke:#0077B6;stroke-width:0.5;"/><text fill="#03045E" font-family="'Roboto'" font-size="14" lengthAdjust="spacing" textLength="81.915" x="1204.04" y="131.1151">Deprecated</text></g><g id="Decommissioned"><polygon fill="#ADE8F4" points="1033.88,232.16,1033.88,232.3702,1043.897,231.7457,1053.9139,232.3533,1063.9309,232.5597,1073.9478,231.4466,1083.9648,232.0823,1093.9817,231.7335,1103.9987,231.7765,1114.0156,232.0918,1124.0326,231.4686,1134.0495,232.7136,1144.0665,231.5297,1154.0834,231.9622,1164.1004,232.5919,1174.1173,232.16,1174.1064,232.1336,1174.6917,232.4153,1175.2446,232.6188,1175.8371,232.9179,1176.4106,233.1709,1176.9457,233.3316,1177.1261,233.4063,1177.3867,233.9829,1177.6235,234.5496,1177.7271,235.0611,1178.0258,235.6535,1178.1173,236.16,1178.3514,236.16,1177.8769,245.0194,1178.3435,253.8787,1178.0185,262.7381,1178.2952,271.5975,1178.1173,280.4569,1177.9649,280.3937,1177.8619,281.0138,1177.8771,281.6828,1177.3994,282.1477,1177.2125,282.733,1176.9457,283.2853,1176.9889,283.3896,1176.4331,283.6478,1175.8139,283.7527,1175.2853,284.0767,1174.61,284.0463,1174.1173,284.4569,1174.1173,284.7413,1164.1004,285.0051,1154.0834,284.9014,1144.0665,285.0699,1134.0495,283.9738,1124.0326,283.8047,1114.0156,283.8355,1103.9987,284.398,1093.9817,284.2603,1083.9648,285.1383,1073.9478,284.2822,1063.9309,284.1138,1053.9139,284.6851,1043.897,283.79,1033.88,284.4569,1033.8138,284.297,1033.3971,284.4224,1032.8042,284.1224,1032.2766,283.9801,1031.5762,283.4205,1031.0516,283.2853,1031.1499,283.326,1030.9991,282.7949,1030.4375,282.0937,1030.3191,281.576,1030.1531,281.0386,1029.88,280.4569,1030.0973,280.4569,1029.8786,271.5975,1030.0342,262.7381,1029.6954,253.8787,1029.6542,245.0194,1029.88,236.16,1030.0351,236.2242,1029.8935,235.5029,1030.5054,235.0936,1030.6466,234.4893,1030.7348,233.8631,1031.0516,233.3316,1031.0064,233.2226,1031.6758,233.2385,1032.1448,232.7708,1032.8241,232.8109,1033.2438,232.2241,1033.88,232.16" style="stroke:#0077B6;stroke-width:0.5;"/><path d="M1029.88,266.4569 L1029.88,266.7371 L1039.7625,265.9044 L1049.645,266.7146 L1059.5275,266.9898 L1069.4099,265.5057 L1079.2924,266.3533 L1089.1749,265.8882 L1099.0574,265.9455 L1108.9399,266.366 L1118.8224,265.535 L1128.7049,267.1951 L1138.5874,265.6165 L1148.4698,266.1932 L1158.3523,267.0328 L1168.2348,266.3425 L1178.1173,266.4569" fill="#ADE8F4" style="stroke:#0077B6;stroke-width:0.5;"/><text fill="#03045E" font-family="'Roboto'" font-size="14" lengthAdjust="spacing" textLength="120.2373" x="1043.88" y="254.1551">Decommissioned</text></g><!--link *start* to Identified--><g class="link" data-entity-1=".start." data-entity-2="Identified" data-source-line="193" data-uid="lnk3" id="link_.start._Identified"><path d="M26.41,135.27 L26.41,135.3634 L31.994,135.0859 L37.578,135.3559 L43.162,135.4476 L48.746,134.9529 L54.33,135.27" fill="none" style="stroke:#023E8A;stroke-width:1;"/><polygon fill="#023E8A" points="60.33,135.27,60.3585,135.334,58.4739,134.3438,56.7562,133.7289,54.9841,132.9917,53.0334,131.8527,51.33,131.27,51.3117,131.2517,52.0295,131.9695,52.8396,132.7796,53.7139,133.6539,54.367,134.307,55.33,135.27,55.4605,135.4005,54.3814,135.9214,53.6834,136.8234,53.0318,137.7718,52.1098,138.4498,51.33,139.27,51.3392,139.2908,53.1257,138.4603,54.9542,137.7244,56.7624,136.9428,58.6093,136.2484,60.33,135.27" style="stroke:#023E8A;stroke-width:1;"/></g><!--link Identified to Defined--><g class="link" data-entity-1="Identified" data-entity-2="Defined" data-source-line="195" data-uid="lnk4" id="link_Identified_Defined"><path d="M259.82,135.27 L259.82,135.3634 L265.484,135.0859 L271.148,135.3559 L276.812,135.4476 L282.476,134.9529 L288.14,135.27" fill="none" style="stroke:#023E8A;stroke-width:1;"/><polygon fill="#023E8A" points="294.14,135.27,294.1685,135.334,292.2839,134.3438,290.5662,133.7289,288.7941,132.9917,286.8434,131.8527,285.14,131.27,285.1217,131.2517,285.8395,131.9695,286.6496,132.7796,287.5239,133.6539,288.177,134.307,289.14,135.27,289.2705,135.4005,288.1914,135.9214,287.4934,136.8234,286.8418,137.7718,285.9198,138.4498,285.14,139.27,285.1492,139.2908,286.9357,138.4603,288.7642,137.7244,290.5724,136.9428,292.4193,136.2484,294.14,135.27" style="stroke:#023E8A;stroke-width:1;"/></g><!--link Defined to Proposed--><g class="link" data-entity-1="Defined" data-entity-2="Proposed" data-source-line="197" data-uid="lnk5" id="link_Defined_Proposed"><path d="M429.81,135.27 L429.81,135.3634 L435.526,135.0859 L441.242,135.3559 L446.958,135.4476 L452.674,134.9529 L458.39,135.27" fill="none" style="stroke:#023E8A;stroke-width:1;"/><polygon fill="#023E8A" points="464.39,135.27,464.4185,135.334,462.5339,134.3438,460.8162,133.7289,459.0441,132.9917,457.0934,131.8527,455.39,131.27,455.3717,131.2517,456.0895,131.9695,456.8996,132.7796,457.7739,133.6539,458.427,134.307,459.39,135.27,459.5205,135.4005,458.4414,135.9214,457.7434,136.8234,457.0918,137.7718,456.1698,138.4498,455.39,139.27,455.3992,139.2908,457.1857,138.4603,459.0142,137.7244,460.8224,136.9428,462.6693,136.2484,464.39,135.27" style="stroke:#023E8A;stroke-width:1;"/></g><!--link Proposed to *end*--><g class="link" data-entity-1="Proposed" data-entity-2=".end." data-source-line="199" data-uid="lnk7" id="link_Proposed_.end."><path d="M559.69,169.82 L559.7508,169.8909 L561.5456,171.3749 L563.697,173.2745 L565.7322,175.0387 L567.3857,176.3578 L569.5677,178.2931 L569.546,178.2662 L571.5461,179.8318 L573.6553,181.533 L575.8403,183.3286 L577.764,184.7992 L580.0538,186.725 L580.2003,186.9227 L582.0633,188.1128 L584.3541,189.8801 L586.6971,191.7179 L588.7364,193.1459 L590.9355,194.7894 L590.9523,194.8146 L593.1405,196.2517 L595.4053,197.8037 L597.6331,199.3002 L599.9314,200.9025 L602,202.16 L602.1558,202.4143 L604.0267,203.5622 L605.7972,204.5461 L607.7147,205.7701 L609.6391,207.0053 L611.3451,207.8839 L611.1821,207.608 L613.3991,209.2665 L615.0793,210.0163 L617.1676,211.457 L618.8356,212.1862 L620.8481,213.4985 L620.833,213.4721 L622.9393,214.8854 L624.6928,215.6809 L626.6545,216.8409 L628.6336,218.0316 L630.4867,219.0014 L630.5762,219.1634 L632.4362,220.0777 L634.4492,221.2687 L636.2147,222.0121 L638.3493,223.4232 L640.2385,224.3903 L640.3522,224.6058 L644.2816,226.6502 L648.2674,228.8017 L651.9908,230.456 L655.9066,232.4748 L659.9927,234.8163 L659.8695,234.5692 L663.9689,236.7812 L667.9295,238.7147 L672.0915,241.0522 L675.9097,242.7 L679.9322,244.7577 L679.867,244.6199 L683.9649,246.737 L687.784,248.265 L691.8014,250.2119 L696.0127,252.5687 L699.8786,254.1956 L699.9582,254.3721 L703.9678,256.2762 L707.7298,257.6313 L711.8018,259.6741 L715.8063,261.5671 L719.6534,263.1109 L719.5703,262.9181 L723.5215,264.7466 L727.4455,266.5119 L731.4229,268.4013 L735.1925,269.8084 L739.0782,271.4849 L739.1567,271.6749 L742.7634,272.8202 L746.5216,274.3322 L750.5014,276.3799 L754.0734,277.4413 L757.9744,279.2985 L758.058,279.5087 L761.6462,280.8307 L765.2061,282.0816 L768.8298,283.493 L772.6011,285.2755 L776.1636,286.5329 L776.116,286.4087 L779.7185,288.1057 L782.9971,288.958 L786.6441,290.7708 L790.0837,292.0428 L793.4674,293.1691 L793.5052,293.2711 L796.7226,294.3925 L800.0755,295.8795 L803.306,297.0362 L806.4854,298.0548 L809.7072,299.1881 L809.7475,299.3003 L812.6871,300.2102 L815.8138,301.641 L818.7289,302.4827 L821.7311,303.5667 L824.7047,304.5712 L824.6168,304.3155 L829.7569,306.1573 L835.0029,308.3072 L840.0991,310.0212 L845.1415,311.5789 L850.2585,313.3535 L850.2142,313.2173 L853.9169,314.4632 L857.5411,315.4679 L861.3813,317.1353 L865.1146,318.4748 L868.7013,319.3645" fill="none" style="stroke:#023E8A;stroke-width:1;"/><polygon fill="#023E8A" points="874.42,321.18,874.4665,321.2324,872.8548,319.7695,871.5156,318.6139,870.0877,317.3582,868.368,315.7735,867.0522,314.6443,867.0292,314.6324,867.4464,315.5835,867.9796,316.5946,868.5933,317.6475,868.9293,318.5565,869.6544,319.6671,869.7393,319.831,868.5532,320.001,867.6149,320.6494,866.7069,321.3563,865.623,321.7235,864.6316,322.2693,864.6341,322.2919,866.5881,322.0408,868.5535,321.8927,870.5134,321.6949,872.4839,321.5919,874.42,321.18" style="stroke:#023E8A;stroke-width:1;"/><text fill="#444444" font-family="'Roboto'" font-size="14" font-weight="bold" lengthAdjust="spacing" textLength="69.0771" x="772" y="263.3051">Rejected</text></g><!--link Proposed to Planned--><g class="link" data-entity-1="Proposed" data-entity-2="Planned" data-source-line="201" data-uid="lnk8" id="link_Proposed_Planned"><path d="M585.63,135.27 L585.63,135.3634 L591.21,135.0859 L596.79,135.3559 L602.37,135.4476 L607.95,134.9529 L613.53,135.27" fill="none" style="stroke:#023E8A;stroke-width:1;"/><polygon fill="#023E8A" points="619.53,135.27,619.5585,135.334,617.6739,134.3438,615.9562,133.7289,614.1841,132.9917,612.2334,131.8527,610.53,131.27,610.5117,131.2517,611.2295,131.9695,612.0396,132.7796,612.9139,133.6539,613.567,134.307,614.53,135.27,614.6605,135.4005,613.5814,135.9214,612.8834,136.8234,612.2318,137.7718,611.3098,138.4498,610.53,139.27,610.5392,139.2908,612.3257,138.4603,614.1542,137.7244,615.9624,136.9428,617.8093,136.2484,619.53,135.27" style="stroke:#023E8A;stroke-width:1;"/></g><!--link Planned to InProgress--><g class="link" data-entity-1="Planned" data-entity-2="InProgress" data-source-line="203" data-uid="lnk9" id="link_Planned_InProgress"><path d="M742.46,135.27 L742.46,135.3634 L748.056,135.0859 L753.652,135.3559 L759.248,135.4476 L764.844,134.9529 L770.44,135.27" fill="none" style="stroke:#023E8A;stroke-width:1;"/><polygon fill="#023E8A" points="776.44,135.27,776.4685,135.334,774.5839,134.3438,772.8662,133.7289,771.0941,132.9917,769.1434,131.8527,767.44,131.27,767.4217,131.2517,768.1395,131.9695,768.9496,132.7796,769.8239,133.6539,770.477,134.307,771.44,135.27,771.5705,135.4005,770.4914,135.9214,769.7934,136.8234,769.1418,137.7718,768.2198,138.4498,767.44,139.27,767.4492,139.2908,769.2357,138.4603,771.0642,137.7244,772.8724,136.9428,774.7193,136.2484,776.44,135.27" style="stroke:#023E8A;stroke-width:1;"/></g><!--link InProgress to Delivered--><g class="link" data-entity-1="InProgress" data-entity-2="Delivered" data-source-line="205" data-uid="lnk11" id="link_InProgress_Delivered"><path d="M895.63,135.27 L895.63,135.3634 L901.316,135.0859 L907.002,135.3559 L912.688,135.4476 L918.374,134.9529 L924.06,135.27" fill="none" style="stroke:#023E8A;stroke-width:1;"/><polygon fill="#023E8A" points="930.06,135.27,930.0885,135.334,928.2039,134.3438,926.4862,133.7289,924.7141,132.9917,922.7634,131.8527,921.06,131.27,921.0417,131.2517,921.7595,131.9695,922.5696,132.7796,923.4439,133.6539,924.097,134.307,925.06,135.27,925.1905,135.4005,924.1114,135.9214,923.4134,136.8234,922.7618,137.7718,921.8398,138.4498,921.06,139.27,921.0692,139.2908,922.8557,138.4603,924.6842,137.7244,926.4924,136.9428,928.3393,136.2484,930.06,135.27" style="stroke:#023E8A;stroke-width:1;"/></g><!--link Delivered to Deployed--><g class="link" data-entity-1="Delivered" data-entity-2="Deployed" data-source-line="207" data-uid="lnk13" id="link_Delivered_Deployed"><path d="M1025.99,135.27 L1025.99,135.3634 L1031.646,135.0859 L1037.302,135.3559 L1042.958,135.4476 L1048.614,134.9529 L1054.27,135.27" fill="none" style="stroke:#023E8A;stroke-width:1;"/><polygon fill="#023E8A" points="1060.27,135.27,1060.2985,135.334,1058.4139,134.3438,1056.6962,133.7289,1054.9241,132.9917,1052.9734,131.8527,1051.27,131.27,1051.2517,131.2517,1051.9695,131.9695,1052.7796,132.7796,1053.6539,133.6539,1054.307,134.307,1055.27,135.27,1055.4005,135.4005,1054.3214,135.9214,1053.6234,136.8234,1052.9718,137.7718,1052.0498,138.4498,1051.27,139.27,1051.2792,139.2908,1053.0657,138.4603,1054.8942,137.7244,1056.7024,136.9428,1058.5493,136.2484,1060.27,135.27" style="stroke:#023E8A;stroke-width:1;"/></g><!--link Deployed to Defined--><g class="link" data-entity-1="Deployed" data-entity-2="Defined" data-source-line="209" data-uid="lnk14" id="link_Deployed_Defined"><path d="M1089.32,108.95 L1089.3907,109.0111 L1087.2683,106.6181 L1085.5602,104.5834 L1083.7171,102.432 L1081.4306,99.897 L1079.758,97.893 L1079.7336,97.8685 L1077.4122,95.5495 L1075.2138,93.3537 L1073.101,91.2435 L1070.6934,88.8382 L1068.6988,86.8463 L1068.855,87.0363 L1066.0551,84.6024 L1063.7115,82.7234 L1061.4235,80.9121 L1058.8117,78.7069 L1056.3702,76.7089 L1056.3862,76.7346 L1053.6886,75.0311 L1051.064,73.4447 L1048.4043,71.8018 L1045.8117,70.2667 L1043,68.38 L1043.131,68.6479 L1039.5891,66.9179 L1035.9627,65.0152 L1032.46,63.3654 L1028.9631,61.7274 L1025.2825,59.7138 L1025.1553,59.4196 L1022.1046,58.5645 L1018.635,56.7407 L1015.4839,55.6534 L1012.0048,53.8076 L1008.7946,52.5835 L1008.784,52.5549 L1005.8186,51.7438 L1002.6054,50.2659 L999.5385,49.1814 L996.4838,48.13 L993.3406,46.8402 L993.3951,47.017 L990.4169,45.9376 L987.5319,45.1603 L984.4962,43.8942 L981.6852,43.3571 L978.7248,42.3353 L978.7827,42.572 L975.9771,41.8441 L973.2003,41.2338 L970.29,40.0775 L967.4775,39.3214 L964.7517,38.9199 L964.702,38.6482 L962.0417,38.3992 L959.3255,37.844 L956.6905,37.7329 L953.9168,36.8637 L951.2255,36.4451 L951.2063,36.2939 L948.5833,36.2092 L945.8782,35.478 L943.2315,35.2065 L940.6418,35.385 L937.9506,34.7623 L937.9657,34.9553 L935.3323,34.8797 L932.6516,34.2038 L930.0301,34.2798 L927.3957,34.1921 L924.7313,33.7225 L924.7227,33.5127 L922.0576,33.5708 L919.3898,33.5603 L916.7275,33.6847 L914.0437,33.2843 L911.3719,33.177 L911.3749,33.3826 L908.6293,32.8909 L905.8895,32.7961 L903.1581,33.2809 L900.4112,32.6985 L897.6769,32.9771 L897.6772,33.2033 L891.841,33.0772 L886.0048,32.8745 L880.1687,32.8447 L874.3333,33.2141 L868.497,33.0184 L868.4966,32.8854 L865.3227,33.2702 L862.1457,32.7503 L858.9723,33.2591 L855.7969,33.1887 L852.6209,32.9622 L852.6229,33.071 L849.2224,32.922 L845.829,33.1627 L842.4292,33.0513 L839.0267,32.7926 L835.6265,32.6562 L835.6311,32.7753 L831.9626,32.4575 L828.3154,32.6926 L824.6441,32.3023 L820.9827,32.1693 L817.3181,31.9518 L817.301,31.6819 L813.3431,31.5217 L809.4057,31.6865 L805.4393,31.3913 L801.4624,30.9313 L797.5,30.7 L797.4654,30.2718 L786.6729,29.5367 L775.8192,28.0433 L765.1337,28.6341 L754.365,28.1934 L743.482,26.3382 L743.5008,26.5714 L738.7023,26.2595 L733.8681,25.5045 L729.0716,25.2171 L724.2502,24.6202 L719.4595,24.4054 L719.4686,24.5313 L714.9834,24.191 L710.5093,24.0027 L706.0003,23.3323 L701.5193,23.0508 L697.0397,22.7866 L697.0508,22.9833 L692.8322,22.7996 L688.5835,22.0817 L684.3698,21.9844 L680.1567,21.8979 L675.9313,21.593 L675.9224,21.3217 L671.9188,21.6186 L667.8998,21.4448 L663.877,21.1541 L659.8629,21.1306 L655.8432,20.9361 L655.8433,21.2599 L651.9713,20.7952 L648.0996,21.0725 L644.2277,21.0576 L640.3558,20.9803 L636.484,20.9271 L636.4865,20.9897 L632.7017,21.1276 L628.9044,20.9501 L625.124,21.1993 L621.3387,21.3225 L617.5625,21.6775 L617.5649,21.7058 L613.8109,22.0407 L610.0587,22.3976 L606.2864,22.5213 L602.5399,22.9445 L598.7875,23.2986 L598.7802,23.2457 L595.0385,24.0732 L591.2455,24.5277 L587.4063,24.6467 L583.6473,25.349 L579.8678,25.9018 L579.8196,25.6498 L576.0207,26.767 L572.1762,27.646 L568.2997,28.3574 L564.3469,28.6689 L560.512,29.5983 L560.5584,29.7993 L558.4513,29.7353 L556.5591,30.6023 L554.5227,30.8446 L552.5758,31.4747 L550.5797,31.8915 L550.6062,31.9949 L548.6018,32.6163 L546.4398,32.6249 L544.5419,33.6611 L542.4789,34.0547 L540.4291,34.4997 L540.472,34.6517 L538.4383,35.407 L536.2676,35.6769 L534.2071,36.337 L532.1307,36.9408 L530.0238,37.437 L530.0496,37.5208 L527.8845,38.0927 L525.838,39.051 L523.5267,39.146 L521.5405,40.3013 L519.3276,40.7172 L519.2407,40.4538 L517.0476,41.2165 L514.9237,42.1889 L512.7173,42.9114 L510.4401,43.4188 L508.3039,44.3543 L508.365,44.5277 L506.0425,45.2015 L503.8562,46.2621 L501.5699,47.0387 L499.1278,47.3726 L496.9164,48.3621 L496.8547,48.1964 L494.5389,49.1869 L492.2565,50.2673 L489.9063,51.1655 L487.533,52.0016 L485.1287,52.7547 L485.0732,52.6132 L482.787,53.9763 L480.3417,54.9335 L477.7864,55.6099 L475.3104,56.4888 L472.9043,57.546 L472.8367,57.3809 L470.3287,58.4985 L467.8485,59.684 L465.2743,60.6401 L462.676,61.5372 L460.2069,62.7498 L460.2918,62.949 L457.4855,63.6882 L455.0117,65.2072 L452.3572,66.3026 L449.7062,67.406 L447,68.38 L447.1341,68.657 L444.521,69.4589 L442.079,70.6143 L439.8063,72.1194 L437.1588,72.8504 L434.843,74.2664" fill="none" style="stroke:#023E8A;stroke-width:1;"/><polygon fill="#023E8A" points="429.69,77.34,429.6984,77.4096,431.6292,76.9679,433.6091,76.934,435.573,76.7673,437.4844,76.1639,439.4685,76.165,439.4622,76.1399,438.3368,75.7499,437.2434,75.4865,436.1723,75.3112,435.0246,74.8325,433.9842,74.7787,434.1631,74.8239,434.0577,73.6303,434.4748,72.5688,434.9555,71.5234,435.0655,70.3842,435.3704,69.2943,435.389,69.3075,434.2257,70.8973,433.1469,72.5469,432.0273,74.1677,430.9856,75.8435,429.69,77.34" style="stroke:#023E8A;stroke-width:1;"/><text fill="#444444" font-family="'Roboto'" font-size="14" font-weight="bold" lengthAdjust="spacing" textLength="95.5117" x="697.5" y="30.3751">new version</text></g><!--link Deployed to Deprecated--><g class="link" data-entity-1="Deployed" data-entity-2="Deprecated" data-source-line="211" data-uid="lnk16" id="link_Deployed_Deprecated"><path d="M1155.63,135.27 L1155.63,135.3634 L1161.272,135.0859 L1166.914,135.3559 L1172.556,135.4476 L1178.198,134.9529 L1183.84,135.27" fill="none" style="stroke:#023E8A;stroke-width:1;"/><polygon fill="#023E8A" points="1189.84,135.27,1189.8685,135.334,1187.9839,134.3438,1186.2662,133.7289,1184.4941,132.9917,1182.5434,131.8527,1180.84,131.27,1180.8217,131.2517,1181.5395,131.9695,1182.3496,132.7796,1183.2239,133.6539,1183.877,134.307,1184.84,135.27,1184.9705,135.4005,1183.8914,135.9214,1183.1934,136.8234,1182.5418,137.7718,1181.6198,138.4498,1180.84,139.27,1180.8492,139.2908,1182.6357,138.4603,1184.4642,137.7244,1186.2724,136.9428,1188.1193,136.2484,1189.84,135.27" style="stroke:#023E8A;stroke-width:1;"/></g><!--link Deprecated to Decommissioned--><g class="link" data-entity-1="Deprecated" data-entity-2="Decommissioned" data-source-line="213" data-uid="lnk18" id="link_Deprecated_Decommissioned"><path d="M1218.03,161.74 L1218.0931,161.8089 L1213.5406,165.6027 L1209.358,169.8003 L1205.055,173.8665 L1200.3558,177.5002 L1196.205,181.7325 L1196.182,181.7067 L1193.7512,183.6664 L1191.4363,185.756 L1189.202,187.936 L1186.69,189.8047 L1184.5669,192.1094 L1184.7283,192.2951 L1182.0698,193.908 L1179.8825,196.0633 L1177.7527,198.2847 L1175.2884,200.1211 L1173,202.16 L1173.0195,202.1832 L1169.8239,204.8112 L1166.7172,207.545 L1163.5676,210.2277 L1160.4997,213.0077 L1157.1653,215.4706 L1157.3525,215.7028 L1154.1938,218.2537 L1150.9144,220.6549 L1147.8118,223.2753 L1144.7174,225.906 L1141.3606,228.2111" fill="none" style="stroke:#023E8A;stroke-width:1;"/><polygon fill="#023E8A" points="1136.66,231.94,1136.6775,232.0078,1138.5329,231.3143,1140.4908,231.0185,1142.4153,230.5932,1144.23,229.7421,1146.1968,229.4804,1146.1938,229.4547,1145.0566,229.2096,1143.9343,229.0943,1142.8224,229.0691,1141.6747,228.7332,1140.5771,228.8326,1140.7605,228.8537,1140.498,227.6846,1140.7708,226.5772,1141.1089,225.4773,1141.067,224.3336,1141.2249,223.213,1141.2451,223.2235,1140.3025,224.9534,1139.4517,226.7314,1138.5566,228.4861,1137.746,230.2851,1136.66,231.94" style="stroke:#023E8A;stroke-width:1;"/></g><!--link Decommissioned to *end*--><g class="link" data-entity-1="Decommissioned" data-entity-2=".end." data-source-line="215" data-uid="lnk19" id="link_Decommissioned_.end."><path d="M1029.55,281.46 L1029.6299,281.7286 L1019.531,283.8642 L1009.9005,287.5744 L1000.1175,290.7719 L989.8328,292.2831 L980.213,296.0292 L970.2189,298.5172 L960.3738,301.5059 L950.6322,304.8426 L940.5337,306.9798 L931.1456,311.5046 L920.834,312.9253 L911.1369,316.4118 L901.3506,319.5982" fill="none" style="stroke:#023E8A;stroke-width:1;"/><polygon fill="#023E8A" points="895.6,321.31,895.609,321.3795,897.5357,321.4263,899.5151,321.8803,901.4774,322.2018,903.3831,322.087,905.3671,322.5761,905.3548,322.5533,904.3045,321.9125,903.3163,321.3866,902.3714,320.9406,901.2775,320.2194,900.3922,319.8835,900.5545,319.9714,900.7459,318.7885,901.4112,317.8622,902.1344,316.9671,902.5211,315.8899,903.0848,314.9086,903.0995,314.9259,901.5809,316.1808,900.1295,317.5144,898.6457,318.81,897.2238,320.1781,895.6,321.31" style="stroke:#023E8A;stroke-width:1;"/></g><!--SRC=[rLVVR-Cs37xtNy6U7muOLY1jirvN70eaQNfNN9SKIVSm34EXM4oiHP4yIRvSDkn_7_sZiUmcQNT87kedcVn4VgHaappIYHDQGSmKNnhX72gOCcan28wsgeuuJeL2w7vw_ALpEtZi3U-68yYVyFoysxjf-P1nlpSSN7T6lvMuiDlkzhfz7tBVwNtfVEgl3OM8azEVJoh8S7JT7_b-86pdpnfoCnmyr00L9B1peH9cs08cB9hFZ4uLxscf3OJBM3YAzJq85ScK8xWOOOOA3PEmtcTXIk29Tl6F8CKiTa0v0SxCd7Ow3VehcYn524lXuiA6-4hvikYSK3FRZEJXystlow0_7iF9haHNnEyPvsG8sfviLCHXY2nSUF9npBXUPkYcbS-h18qKQlwhula2dmwxmbpZbANImJ_1ZLPkm1O8xqQQOjVlSacHk2hTkN0i_aOuQGV_-fOwnkWbsTcuOxCPjvAK8orvtL92nyPcM79wjhNREDNQlGowsb2mfSQxIEIYyg0q_p_cQnVsTHuYlKYqGfLbzZi9RsHNv2nToDDwpZXpRC8ixjbTpKSaTSeFwa1BYL7sTTYzkwcyz0XWj3oWXsvcafdL0LtqbHFka0w4ScYcBC83-XZZNocg2E-PSI8I2LEkCFOGYsYkq5hwOLPmMyA9aRzZ9xbdfZVmz33LRqbfis2ogNiMpfsOuXtzMRSQNmDsqin_di-CvzAjbdFjHbAvfihXMT29d3OlCCWXMtrbscqVy7lejI7B6XKXUWbVVFnltj07pzHCuiUFLAsiLbTNTBvZkdoe7HMmhTLZNtMXUUEQDRl-Y_BeuZSYgPXyt3_lHXDr0F9sPHqktbwkzy_xGBb-AiXl8zKLsxUNQU-QJCh2Mx1kDCRrAF8UjlLoj_TTiUyEh2WmdDaO-MjYtHXgH8uPrHNpsbYfNzzzbGuGwUuZz4kxOsvJfn4oZXVJjkSyR9srsZzXq77EY4dgS8EgAgPXw_GCBrYDPzXgVVWmEM_sjipQ7GHgO5QlhpJK1S7lF_m1nrTmowdd5rD19njKwqnpdO-492uNcUpUw4JRJFYqWcCwHqKgidS98_oJJhokfrsIgTnIkSZzAaBC3D4Xl-jruLVIS6eAp-Moa2TIhmfniV9ONeB29H3MKZFUH2Hq3PahTvRhGaDJpqBOR4-XzT-X2CfFooKSWyf6pdo-HXiPaS_63GWDmxIT1k-Kvfie6tASGLmdCeFer94ljBwiACki9gEl9iB4rMIMMXjHtyenGPgPLPJ9rxdF3SJK448IisoCBlEV4r1WDECBblZvppIJL4XUxFWF]--></g></svg>